<svg id="eayipst9nokl1" xmlns="http://www.w3.org/2000/svg" xmlns:xlink="http://www.w3.org/1999/xlink" viewBox="0 0 130 30" shape-rendering="geometricPrecision" text-rendering="geometricPrecision" width="130" height="30"><style><![CDATA[#eayipst9nokl2_ts {animation: eayipst9nokl2_ts__ts 20000ms linear infinite normal forwards}@keyframes eayipst9nokl2_ts__ts { 0% {transform: translate(65.022224px,15.026422px) scale(1,0)} 1% {transform: translate(65.022224px,15.026422px) scale(1,0)} 2% {transform: translate(65.022224px,15.026422px) scale(1,1)} 23% {transform: translate(65.022224px,15.026422px) scale(1,1)} 24% {transform: translate(65.022224px,15.026422px) scale(1,0)} 100% {transform: translate(65.022224px,15.026422px) scale(1,0)} }#eayipst9nokl11_ts {animation: eayipst9nokl11_ts__ts 20000ms linear infinite normal forwards}@keyframes eayipst9nokl11_ts__ts { 0% {transform: translate(64.952702px,15px) scale(1,0)} 26% {transform: translate(64.952702px,15px) scale(1,0)} 27% {transform: translate(64.952702px,15px) scale(1,1)} 48% {transform: translate(64.952702px,15px) scale(1,1)} 49% {transform: translate(64.952702px,15px) scale(1,0)} 100% {transform: translate(64.952702px,15px) scale(1,0)} }#eayipst9nokl23_ts {animation: eayipst9nokl23_ts__ts 20000ms linear infinite normal forwards}@keyframes eayipst9nokl23_ts__ts { 0% {transform: translate(65px,14.950000px) scale(1,0)} 51% {transform: translate(65px,14.950000px) scale(1,0)} 52% {transform: translate(65px,14.950000px) scale(1,1)} 73% {transform: translate(65px,14.950000px) scale(1,1)} 74% {transform: translate(65px,14.950000px) scale(1,0)} 100% {transform: translate(65px,14.950000px) scale(1,0)} }#eayipst9nokl31_ts {animation: eayipst9nokl31_ts__ts 20000ms linear infinite normal forwards}@keyframes eayipst9nokl31_ts__ts { 0% {transform: translate(64.970034px,14.963721px) scale(1,0)} 76% {transform: translate(64.970034px,14.963721px) scale(1,0)} 77% {transform: translate(64.970034px,14.963721px) scale(1,1)} 98% {transform: translate(64.970034px,14.963721px) scale(1,1)} 99% {transform: translate(64.970034px,14.963721px) scale(1,0)} 100% {transform: translate(64.970034px,14.963721px) scale(1,0)} }]]></style><g id="eayipst9nokl2_ts" transform="translate(65.022224,15.026422) scale(1,0)"><g id="eayipst9nokl2" transform="translate(-65.022224,-15.026422)"><path id="eayipst9nokl3" d="M47.100000,8.900000C48,8.700000,48.800000,8.400000,49.500000,8.300000C54.200000,7.300000,59.200000,10.300000,60.400000,15C60.700000,16,60.800000,17.100000,60.800000,18.200000C60.800000,21.700000,60.800000,25.300000,60.800000,28.800000C60.800000,29.800000,60.800000,29.800000,59.700000,29.800000C59.100000,29.800000,58.600000,29.800000,58,29.800000C56.400000,29.700000,55.400000,28.700000,55.400000,27.100000C55.400000,24,55.400000,20.900000,55.400000,17.800000C55.400000,15.900000,54,14.100000,52.200000,13.700000C50.200000,13.200000,48.200000,14.200000,47.400000,16C47.100000,16.700000,47,17.400000,47,18.200000C46.900000,19.700000,47,21.300000,46.600000,22.800000C45.600000,27.300000,41,30.400000,36.400000,29.900000C32.200000,29.400000,29.100000,26.800000,28,22.700000C27.800000,21.900000,27.700000,21.100000,27.700000,20.300000C27.700000,14.500000,27.700000,8.700000,27.700000,2.900000C27.700000,2.100000,27.900000,1.800000,28.700000,1.900000C29.300000,2,30,1.900000,30.600000,1.900000C31.900000,2,33,3,33.100000,4.400000C33.100000,5.400000,33.100000,6.400000,33.100000,7.500000C33.100000,8.100000,33.300000,8.300000,33.900000,8.200000C34.900000,8.200000,35.900000,8.200000,36.900000,8.200000C37.200000,8.200000,37.600000,8.500000,37.600000,8.600000C37.600000,9.500000,37.700000,10.500000,37.500000,11.400000C37.200000,12.800000,36.200000,13.600000,34.800000,13.600000C33.100000,13.700000,33.100000,13.700000,33.100000,15.300000C33.100000,16.900000,33.100000,18.500000,33.100000,20.100000C33.100000,22.600000,34.900000,24.500000,37.300000,24.500000C39.700000,24.500000,41.500000,22.600000,41.500000,20.200000C41.500000,14.500000,41.500000,8.800000,41.500000,3.100000C41.500000,2,41.500000,1.900000,42.600000,2C43.500000,2,44.500000,2,45.400000,2.300000C46.400000,2.600000,46.800000,3.500000,46.800000,4.500000C46.800000,5.700000,46.800000,7,46.800000,8.200000C47,8.400000,47.100000,8.600000,47.100000,8.900000Z" fill="rgb(189,197,208)" stroke="none" stroke-width="1"/><path id="eayipst9nokl4" d="M96.500000,17.900000C96.500000,14.900000,96.500000,12,96.500000,9C96.500000,8.300000,96.700000,8.100000,97.400000,8.100000C98,8.100000,98.600000,8,99.200000,8.100000C99.700000,8.200000,100.400000,8.300000,100.800000,8.600000C101.400000,9.100000,101.900000,9,102.600000,8.800000C106.200000,7.400000,109.500000,8,112.500000,10.500000C112.900000,10.900000,113.200000,10.900000,113.600000,10.500000C118.800000,6,126.600000,8,129,14.500000C129.300000,15.400000,129.500000,16.500000,129.500000,17.500000C129.600000,21.300000,129.500000,25.100000,129.500000,29C129.500000,29.600000,129.300000,29.900000,128.700000,29.900000C128.100000,29.900000,127.400000,29.900000,126.800000,29.900000C125.300000,29.800000,124.200000,28.800000,124.200000,27.200000C124.200000,24.100000,124.200000,21.100000,124.200000,18C124.200000,15.500000,122.400000,13.700000,120,13.700000C117.600000,13.700000,115.800000,15.500000,115.800000,17.900000C115.800000,21.600000,115.800000,25.200000,115.800000,28.900000C115.800000,29.900000,115.800000,29.900000,114.800000,29.900000C114.300000,29.900000,113.700000,29.900000,113.200000,29.900000C111.500000,29.800000,110.500000,28.800000,110.500000,27.200000C110.500000,24.200000,110.500000,21.200000,110.500000,18.200000C110.500000,16.300000,109.700000,14.900000,108,14.100000C105.300000,12.800000,102.100000,14.800000,102.100000,17.800000C102.100000,21.500000,102.100000,25.200000,102.100000,28.900000C102.100000,29.900000,102.100000,29.900000,101.100000,29.900000C100.700000,29.900000,100.300000,29.900000,99.900000,29.900000C97.700000,29.900000,96.700000,28.900000,96.700000,26.700000C96.500000,23.700000,96.500000,20.800000,96.500000,17.900000L96.500000,17.900000Z" fill="rgb(189,197,208)" stroke="none" stroke-width="1"/><path id="eayipst9nokl5" d="M73.600000,14.800000C73.600000,12.900000,73.600000,10.900000,73.600000,9C73.600000,8.400000,73.800000,8.100000,74.400000,8.200000C75,8.200000,75.600000,8.200000,76.200000,8.200000C77.900000,8.200000,79,9.400000,79.100000,11.100000C79.100000,14.100000,79.200000,17.200000,79.100000,20.200000C79.100000,22.100000,80.400000,24,82.400000,24.400000C84.300000,24.800000,86.300000,23.800000,87.100000,21.800000C87.300000,21.300000,87.400000,20.600000,87.400000,20C87.400000,16.400000,87.400000,12.800000,87.400000,9.200000C87.400000,8.200000,87.400000,8.100000,88.500000,8.100000C89.400000,8.100000,90.400000,8.100000,91.200000,8.400000C92.200000,8.700000,92.800000,9.600000,92.800000,10.700000C92.800000,14.100000,92.900000,17.500000,92.800000,20.900000C92.600000,26.100000,87.700000,30.200000,82.500000,29.800000C78.300000,29.400000,75,26.600000,74,22.800000C73.800000,22,73.700000,21.100000,73.700000,20.200000C73.500000,18.400000,73.600000,16.600000,73.600000,14.800000L73.600000,14.800000Z" fill="rgb(189,197,208)" stroke="none" stroke-width="1"/><path id="eayipst9nokl6" d="M0.500000,11.800000C0.500000,8.800000,0.500000,5.800000,0.500000,2.700000C0.500000,2,0.700000,1.700000,1.400000,1.800000C2,1.900000,2.600000,1.800000,3.200000,1.800000C4.700000,1.800000,5.800000,2.800000,5.800000,4.400000C5.800000,5.700000,5.800000,6.900000,5.800000,8.200000C5.800000,12,5.900000,15.900000,5.800000,19.700000C5.700000,22.600000,7.800000,24.700000,10.600000,24.500000C11.200000,24.500000,11.800000,24.500000,12.400000,24.500000C14.100000,24.500000,15.200000,25.400000,15.500000,27C15.600000,27.800000,15.600000,28.500000,15.500000,29.300000C15.500000,29.500000,15.200000,29.800000,15,29.800000C12.300000,29.700000,9.600000,30.200000,7,29.300000C3.900000,28.200000,1.800000,26,0.900000,22.800000C0.600000,21.800000,0.600000,20.800000,0.500000,19.800000C0.500000,17.100000,0.500000,14.400000,0.500000,11.800000Z" fill="rgb(189,197,208)" stroke="none" stroke-width="1"/><path id="eayipst9nokl7" d="M23.800000,19.900000C23.800000,22.900000,23.800000,25.900000,23.800000,29C23.800000,29.700000,23.600000,29.900000,22.900000,29.900000C22.300000,29.900000,21.700000,29.900000,21.100000,29.900000C19.500000,29.800000,18.500000,28.800000,18.500000,27.300000C18.500000,21.200000,18.500000,15.100000,18.500000,8.900000C18.500000,8.400000,18.700000,8.200000,19.200000,8.200000C19.800000,8.200000,20.400000,8.200000,21,8.200000C22.700000,8.200000,23.800000,9.300000,23.900000,11C23.800000,13.900000,23.800000,16.900000,23.800000,19.900000Z" fill="rgb(189,197,208)" stroke="none" stroke-width="1"/><path id="eayipst9nokl8" d="M70,19.900000C70,22.900000,70,25.900000,70,29C70,29.700000,69.700000,29.900000,69.100000,29.900000C68.500000,29.900000,67.900000,29.900000,67.300000,29.900000C65.700000,29.800000,64.700000,28.800000,64.700000,27.200000C64.700000,21.100000,64.700000,15.100000,64.700000,9C64.700000,8.400000,64.900000,8.100000,65.500000,8.200000C66,8.200000,66.600000,8.200000,67.100000,8.200000C68.900000,8.200000,70,9.300000,70,11.100000C70,12.600000,70,14.100000,70,15.600000C70,16.900000,70,18.400000,70,19.900000L70,19.900000Z" fill="rgb(189,197,208)" stroke="none" stroke-width="1"/><path id="eayipst9nokl9" d="M67.300000,6.200000C65.600000,6.200000,64.300000,4.900000,64.300000,3.200000C64.300000,1.500000,65.600000,0.200000,67.300000,0.200000C69,0.200000,70.300000,1.500000,70.300000,3.200000C70.300000,4.900000,69,6.200000,67.300000,6.200000Z" fill="rgb(189,197,208)" stroke="none" stroke-width="1"/><path id="eayipst9nokl10" d="M24.100000,3.100000C24.100000,4.800000,22.900000,6.100000,21.100000,6.100000C19.400000,6.100000,18.100000,4.900000,18.100000,3.100000C18.100000,1.400000,19.300000,0.100000,21.100000,0.100000C22.800000,0.100000,24.100000,1.400000,24.100000,3.100000Z" fill="rgb(189,197,208)" stroke="none" stroke-width="1"/></g></g><g id="eayipst9nokl11_ts" transform="translate(64.952702,15) scale(1,0)"><g id="eayipst9nokl11" transform="translate(-64.952702,-15)"><path id="eayipst9nokl12" d="M104.900000,11.700000L95.400000,11.700000L93.300000,11.800000C93.200000,12.100000,93.100000,12.300000,92.900000,12.600000L94.900000,12.500000L104.200000,12.500000C105.600000,12.500000,106.700000,13.600000,106.700000,15L106.700000,26.300000C106.700000,27.700000,105.600000,28.800000,104.200000,28.800000L36.300000,28.800000C34.900000,28.800000,33.800000,27.700000,33.800000,26.300000L33.800000,15.800000C33.400000,15.600000,33.100000,15.300000,32.700000,15L32.700000,26.500000C32.700000,28.200000,34,29.500000,35.600000,29.500000L104.800000,29.500000C106.400000,29.500000,107.700000,28.100000,107.700000,26.500000L107.700000,14.700000C107.800000,13,106.500000,11.700000,104.900000,11.700000Z" fill="rgb(189,197,208)" stroke="none" stroke-width="1"/><path id="eayipst9nokl13" d="M66.300000,5.400000C64.800000,5.400000,64.400000,5.600000,64.300000,7.100000L64.300000,9.500000C64.300000,11.100000,64.800000,11.300000,66.300000,11.300000C67.800000,11.300000,68.300000,11.100000,68.300000,9.500000L68.300000,7.200000C68.300000,5.600000,67.700000,5.400000,66.300000,5.400000ZM66.300000,5.400000C64.800000,5.400000,64.400000,5.600000,64.300000,7.100000L64.300000,9.500000C64.300000,11.100000,64.800000,11.300000,66.300000,11.300000C67.800000,11.300000,68.300000,11.100000,68.300000,9.500000L68.300000,7.200000C68.300000,5.600000,67.700000,5.400000,66.300000,5.400000ZM93.300000,0.500000L24.700000,0.500000C23.300000,0.500000,22.200000,1.600000,22.200000,3L22.200000,13.900000C22.200000,15.300000,23.300000,16.400000,24.700000,16.400000L93.300000,16.400000C94.700000,16.400000,95.800000,15.300000,95.800000,13.900000L95.800000,3C95.800000,1.600000,94.700000,0.500000,93.300000,0.500000ZM33.700000,13.700000L26.500000,13.700000L26.500000,3L29.300000,3L29.300000,11.200000L33.700000,11.200000L33.700000,13.700000ZM37.600000,13.700000L34.800000,13.700000L34.800000,3L37.600000,3L37.600000,13.700000ZM49.800000,13.700000L45,13.700000L42,5.500000L41.900000,5.500000L42.100000,13.700000L39.300000,13.700000L39.300000,3L44,3L47,11.200000L47.100000,11.200000L47,3L49.800000,3L49.800000,13.700000ZM60.500000,10C60.500000,11.200000,60.500000,12.200000,59.500000,13C58.500000,13.800000,57.400000,13.800000,56.200000,13.800000C53.300000,13.800000,51.200000,13.700000,51.200000,9.700000L51.200000,7C51.200000,3.500000,53.100000,2.900000,56.200000,2.900000C59.100000,2.900000,60.500000,3.200000,60.500000,6.400000L60.500000,6.800000L57.600000,6.800000L57.600000,6.500000C57.500000,5.500000,56.800000,5.500000,55.900000,5.500000C54.300000,5.500000,54.100000,6,54.100000,7.500000L54.100000,9.200000C54.100000,10.800000,54.200000,11.400000,55.900000,11.400000C57.100000,11.400000,57.600000,11.300000,57.600000,10.100000L57.600000,9.700000L60.500000,9.700000L60.500000,10ZM71.100000,9.900000C71.100000,13.200000,69.100000,13.800000,66.200000,13.800000C63.300000,13.800000,61.300000,13.200000,61.300000,9.900000L61.300000,6.900000C61.300000,3.600000,63.300000,3,66.200000,3C69.100000,3,71.100000,3.600000,71.100000,6.900000L71.100000,9.900000ZM79.600000,13.700000L72.400000,13.700000L72.400000,3L75.200000,3L75.200000,11.200000L79.600000,11.200000C79.600000,11.200000,79.600000,13.700000,79.600000,13.700000ZM91.200000,13.700000L86.400000,13.700000L83.400000,5.500000L83.300000,5.500000L83.500000,13.700000L80.700000,13.700000L80.700000,3L85.500000,3L88.500000,11.200000L88.600000,11.200000L88.400000,3L91.200000,3C91.200000,3,91.200000,13.700000,91.200000,13.700000ZM66.300000,5.400000C64.800000,5.400000,64.400000,5.600000,64.300000,7.100000L64.300000,9.500000C64.300000,11.100000,64.800000,11.300000,66.300000,11.300000C67.800000,11.300000,68.300000,11.100000,68.300000,9.500000L68.300000,7.200000C68.300000,5.600000,67.700000,5.400000,66.300000,5.400000ZM66.300000,5.400000C64.800000,5.400000,64.400000,5.600000,64.300000,7.100000L64.300000,9.500000C64.300000,11.100000,64.800000,11.300000,66.300000,11.300000C67.800000,11.300000,68.300000,11.100000,68.300000,9.500000L68.300000,7.200000C68.300000,5.600000,67.700000,5.400000,66.300000,5.400000ZM66.300000,5.400000C64.800000,5.400000,64.400000,5.600000,64.300000,7.100000L64.300000,9.500000C64.300000,11.100000,64.800000,11.300000,66.300000,11.300000C67.800000,11.300000,68.300000,11.100000,68.300000,9.500000L68.300000,7.200000C68.300000,5.600000,67.700000,5.400000,66.300000,5.400000Z" clip-rule="evenodd" fill="rgb(189,197,208)" fill-rule="evenodd" stroke="none" stroke-width="1"/><path id="eayipst9nokl14" d="M99.500000,9L98.900000,9L98.900000,6L100,6C100.800000,6,101.200000,6.200000,101.200000,6.900000C101.200000,7.500000,100.900000,7.700000,100.500000,7.700000L101.300000,9L100.500000,9L99.800000,7.700000L99.500000,7.700000L99.500000,9L99.500000,9ZM100.100000,7.200000C100.400000,7.200000,100.600000,7.100000,100.600000,6.800000C100.600000,6.500000,100.300000,6.500000,100,6.500000L99.600000,6.500000L99.600000,7.200000L100.100000,7.200000L100.100000,7.200000ZM100,10.300000C98.500000,10.300000,97.200000,9.300000,97.200000,7.500000C97.200000,5.700000,98.500000,4.700000,100,4.700000C101.500000,4.700000,102.800000,5.700000,102.800000,7.500000C102.800000,9.200000,101.500000,10.300000,100,10.300000L100,10.300000ZM100,5.300000C98.900000,5.300000,98,6.200000,98,7.500000C98,8.800000,98.900000,9.700000,100,9.700000L100,9.700000C101.100000,9.700000,102,8.800000,102,7.500000C102,6.200000,101.100000,5.300000,100,5.300000L100,5.300000Z" clip-rule="evenodd" fill="rgb(189,197,208)" fill-rule="evenodd" stroke="none" stroke-width="1"/><polygon id="eayipst9nokl15" points="46.400000,21.900000 49.700000,21.900000 49.700000,23.400000 46.400000,23.400000 46.400000,24.900000 50,24.900000 50,26.600000 44.300000,26.600000 44.300000,18.700000 49.900000,18.700000 49.900000,20.500000 46.400000,20.500000" clip-rule="evenodd" fill="rgb(189,197,208)" fill-rule="evenodd" stroke="none" stroke-width="1"/><polygon id="eayipst9nokl16" points="53.400000,24.800000 56.600000,24.800000 56.600000,26.600000 51.300000,26.600000 51.300000,18.700000 53.400000,18.700000" clip-rule="evenodd" fill="rgb(189,197,208)" fill-rule="evenodd" stroke="none" stroke-width="1"/><polygon id="eayipst9nokl17" points="59.500000,21.900000 62.800000,21.900000 62.800000,23.400000 59.500000,23.400000 59.500000,24.900000 63.100000,24.900000 63.100000,26.600000 57.400000,26.600000 57.400000,18.700000 63,18.700000 63,20.500000 59.500000,20.500000" clip-rule="evenodd" fill="rgb(189,197,208)" fill-rule="evenodd" stroke="none" stroke-width="1"/><path id="eayipst9nokl18" d="M71,23.600000L71,23.800000C71,24.700000,71,25.400000,70.300000,26C69.600000,26.600000,68.700000,26.600000,67.800000,26.600000C65.700000,26.600000,64.100000,26.500000,64.100000,23.600000L64.100000,21.600000C64.100000,19,65.500000,18.600000,67.800000,18.600000C69.900000,18.600000,70.900000,18.800000,71,21.200000L71,21.500000L68.900000,21.500000L68.900000,21.200000C68.800000,20.500000,68.300000,20.400000,67.600000,20.400000C66.400000,20.400000,66.300000,20.800000,66.300000,21.900000L66.300000,23.100000C66.300000,24.300000,66.400000,24.700000,67.600000,24.700000C68.500000,24.700000,68.900000,24.600000,68.900000,23.700000L68.900000,23.500000L71,23.600000L71,23.600000Z" clip-rule="evenodd" fill="rgb(189,197,208)" fill-rule="evenodd" stroke="none" stroke-width="1"/><polygon id="eayipst9nokl19" points="75.400000,26.600000 73.300000,26.600000 73.300000,20.600000 71.300000,20.600000 71.300000,18.700000 77.500000,18.700000 77.500000,20.600000 75.400000,20.600000" clip-rule="evenodd" fill="rgb(189,197,208)" fill-rule="evenodd" stroke="none" stroke-width="1"/><path id="eayipst9nokl20" d="M78.100000,18.700000L82.100000,18.700000C83.900000,18.700000,84.800000,19.100000,84.800000,21.100000C84.800000,22.400000,84.800000,23.200000,83.300000,23.500000L83.300000,23.600000C84.100000,23.600000,84.700000,24.100000,84.700000,25L84.700000,26.600000L82.600000,26.600000L82.600000,25.500000C82.600000,24.900000,82.400000,24.500000,81.800000,24.500000L80.200000,24.500000L80.200000,26.600000L78.100000,26.600000L78.100000,18.700000L78.100000,18.700000ZM81.700000,22.700000C82.600000,22.700000,82.600000,22.400000,82.600000,21.500000C82.600000,20.800000,82.400000,20.600000,81.700000,20.600000L80.100000,20.600000L80.100000,22.700000L81.700000,22.700000L81.700000,22.700000Z" clip-rule="evenodd" fill="rgb(189,197,208)" fill-rule="evenodd" stroke="none" stroke-width="1"/><polygon id="eayipst9nokl21" points="87.900000,26.600000 85.800000,26.600000 85.800000,18.700000 87.900000,18.700000" clip-rule="evenodd" fill="rgb(189,197,208)" fill-rule="evenodd" stroke="none" stroke-width="1"/><path id="eayipst9nokl22" d="M95.700000,23.600000L95.700000,23.800000C95.700000,24.700000,95.700000,25.400000,95,26C94.300000,26.600000,93.400000,26.600000,92.500000,26.600000C90.400000,26.600000,88.800000,26.500000,88.800000,23.600000L88.800000,21.600000C88.800000,19,90.200000,18.600000,92.500000,18.600000C94.600000,18.600000,95.600000,18.800000,95.700000,21.200000L95.700000,21.500000L93.600000,21.500000L93.600000,21.200000C93.500000,20.500000,93,20.400000,92.300000,20.400000C91.100000,20.400000,91,20.800000,91,21.900000L91,23.100000C91,24.300000,91.100000,24.700000,92.300000,24.700000C93.200000,24.700000,93.600000,24.600000,93.600000,23.700000L93.600000,23.500000L95.700000,23.600000L95.700000,23.600000Z" clip-rule="evenodd" fill="rgb(189,197,208)" fill-rule="evenodd" stroke="none" stroke-width="1"/></g></g><g id="eayipst9nokl23_ts" transform="translate(65,14.950000) scale(1,0)"><g id="eayipst9nokl23" transform="translate(-65,-14.950000)"><rect id="eayipst9nokl24" width="5.500000" height="19.500000" rx="0" ry="0" transform="matrix(1 0 0 1 18.70000000000000 5.20000000000000)" fill="rgb(189,197,208)" stroke="none" stroke-width="1"/><path id="eayipst9nokl25" d="M9.500000,12.600000C7.800000,11.800000,6.800000,11.300000,6.400000,11.100000C5.900000,10.800000,5.700000,10.500000,5.700000,10C5.700000,8.800000,6.800000,8.200000,9,8.200000C10.500000,8.200000,12.200000,8.600000,14,9.100000L14,5.400000C11.600000,4.900000,9.700000,4.700000,8.400000,4.700000C6.100000,4.700000,4.200000,5.200000,2.700000,6.200000C1.200000,7.200000,0.500000,8.700000,0.500000,10.600000C0.500000,12.100000,1,13.300000,2,14.300000C2.800000,15,4.500000,15.900000,7.100000,17C8.600000,17.600000,9.400000,18.100000,9.800000,18.400000C10.100000,18.800000,10.300000,19.100000,10.300000,19.600000C10.300000,20.900000,9.100000,21.500000,6.800000,21.500000C5.100000,21.500000,3.100000,21.200000,0.900000,20.500000L0.900000,24.400000C2.900000,24.900000,5,25.100000,7.100000,25.200000C9.500000,25.200000,11.400000,24.700000,12.900000,23.800000C14.800000,22.700000,15.700000,21.100000,15.700000,19C15.700000,17.500000,15.200000,16.300000,14.300000,15.400000C13.500000,14.600000,11.900000,13.700000,9.500000,12.600000Z" fill="rgb(189,197,208)" stroke="none" stroke-width="1"/><polygon id="eayipst9nokl26" points="59.100000,17.700000 54.200000,5.200000 47.100000,5.200000 47.100000,24.700000 50.900000,24.700000 50.900000,10.900000 56.600000,24.900000 60,24.900000 65.800000,10.900000 65.800000,24.700000 71,24.700000 71,5.200000 64.200000,5.200000" fill="rgb(189,197,208)" stroke="none" stroke-width="1"/><polygon id="eayipst9nokl27" points="34.500000,16.300000 42.200000,16.300000 42.200000,13.100000 34.500000,13.100000 34.500000,8.700000 43.300000,8.700000 43.300000,5.200000 29.200000,5.200000 29.200000,24.700000 43.500000,24.700000 43.500000,21 34.500000,21" fill="rgb(189,197,208)" stroke="none" stroke-width="1"/><polygon id="eayipst9nokl28" points="81.400000,16.300000 89,16.300000 89,13.100000 81.300000,13.100000 81.300000,8.700000 90.100000,8.700000 90.100000,5.200000 76,5.200000 76,24.700000 90.400000,24.700000 90.400000,21 81.400000,21" fill="rgb(189,197,208)" stroke="none" stroke-width="1"/><path id="eayipst9nokl29" d="M128.100000,15.200000C127.300000,14.400000,125.700000,13.500000,123.300000,12.400000C121.600000,11.600000,120.600000,11.100000,120.200000,10.900000C119.700000,10.600000,119.500000,10.300000,119.500000,9.800000C119.500000,8.600000,120.600000,8,122.800000,8C124.400000,8,126.100000,8.400000,127.900000,9.100000L127.900000,5.400000L127.400000,5.300000C125.300000,4.900000,123.600000,4.700000,122.300000,4.700000C120,4.700000,118.100000,5.200000,116.600000,6.200000C115.100000,7.200000,114.400000,8.700000,114.400000,10.600000C114.400000,12.100000,114.900000,13.300000,115.900000,14.300000C116.700000,15,118.400000,16,121,17C122.500000,17.600000,123.400000,18.100000,123.700000,18.400000C124,18.800000,124.200000,19.100000,124.200000,19.600000C124.200000,20.900000,123,21.500000,120.700000,21.500000C118.900000,21.500000,117,21.200000,114.800000,20.500000L114.800000,24.400000C116.800000,24.900000,118.900000,25.100000,120.900000,25C123.200000,25,125.200000,24.500000,126.700000,23.600000C128.600000,22.500000,129.500000,20.900000,129.500000,18.800000C129.500000,17.300000,129,16.100000,128.100000,15.200000Z" fill="rgb(189,197,208)" stroke="none" stroke-width="1"/><polygon id="eayipst9nokl30" points="107,18.300000 100.300000,5.200000 93.900000,5.200000 93.900000,24.700000 97.800000,24.700000 97.800000,11.400000 104.700000,24.700000 110.900000,24.700000 110.900000,5.200000 107,5.200000" fill="rgb(189,197,208)" stroke="none" stroke-width="1"/></g></g><g id="eayipst9nokl31_ts" transform="translate(64.970034,14.963721) scale(1,0)"><g id="eayipst9nokl31" transform="translate(-64.970034,-14.963721)"><path id="eayipst9nokl32" d="M10.100000,4.600000C12.200000,4.500000,14.300000,5,16.100000,6C17.500000,6.800000,18.800000,8,19.600000,9.400000C20.700000,11.100000,21.300000,13.100000,21.300000,15.100000C21.300000,17.200000,20.600000,19.300000,19.400000,21C18.200000,22.800000,16.300000,24.100000,14.300000,24.800000C12.500000,25.400000,10.500000,25.500000,8.600000,25.100000C6.600000,24.700000,4.800000,23.600000,3.400000,22.200000C1.900000,20.700000,0.900000,18.700000,0.600000,16.600000C0.300000,14.700000,0.500000,12.800000,1.300000,11C2,9.400000,3.100000,7.900000,4.500000,6.800000C6.100000,5.500000,8.100000,4.800000,10.100000,4.600000M10.100000,5.100000C8.900000,5.200000,7.700000,5.500000,6.600000,6.100000C4.800000,7,3.300000,8.300000,2.300000,10.100000C0.800000,12.600000,0.600000,15.700000,1.500000,18.400000C2.100000,20.200000,3.200000,21.700000,4.700000,22.900000C6.400000,24.200000,8.500000,25,10.700000,25C12.300000,25,13.900000,24.700000,15.300000,24C17.100000,23.100000,18.600000,21.700000,19.600000,19.900000C20.600000,18.200000,21,16.100000,20.800000,14.100000C20.500000,10.900000,18.500000,7.900000,15.700000,6.400000C14,5.400000,12,5,10.100000,5.100000Z" fill="rgb(189,197,208)" stroke="none" stroke-width="1"/><path id="eayipst9nokl33" d="M8.400000,6.100000C10.100000,5.600000,12,5.600000,13.700000,6.200000C13.800000,6.200000,13.800000,6.300000,13.900000,6.300000C13.600000,6.300000,13.400000,6.200000,13.100000,6.100000C12.400000,6,11.700000,5.900000,11,6C10.500000,6.100000,10,6.200000,9.800000,6.600000C9.600000,6.900000,9.600000,7.300000,9.800000,7.600000C10.100000,7.900000,10.600000,7.900000,10.900000,7.600000C11.200000,7.400000,11.500000,7,12,6.900000C12.900000,6.700000,13.900000,6.900000,14.700000,7.100000C15.800000,7.400000,16.800000,7.900000,17.600000,8.600000C18.900000,9.800000,19.800000,11.500000,20.100000,13.300000C20.400000,14.800000,20.300000,16.400000,19.800000,17.800000C19.800000,17.900000,19.700000,17.900000,19.700000,17.900000C20,16.900000,20.200000,15.900000,20,14.800000C19.900000,14.300000,19.700000,13.800000,19.100000,13.600000C18.700000,13.500000,18.200000,13.700000,18.200000,14.200000C18.100000,14.700000,18.500000,15,18.700000,15.300000C19.200000,16,19.100000,17,19,17.800000C18.800000,18.900000,18.400000,20,17.700000,21C16.700000,22.500000,15,23.500000,13.200000,23.900000C11.700000,24.300000,10,24.300000,8.500000,23.900000C8.300000,23.800000,8.100000,23.800000,7.900000,23.700000C8.200000,23.700000,8.500000,23.800000,8.700000,23.900000C9.500000,24,10.300000,24.100000,11.100000,23.900000C11.500000,23.800000,11.800000,23.600000,12,23.300000C12.200000,23,12.200000,22.600000,11.900000,22.300000C11.700000,22.100000,11.300000,22,11,22.200000C10.700000,22.400000,10.400000,22.700000,10.100000,22.800000C9.400000,23.100000,8.600000,23.100000,7.900000,23C6.700000,22.800000,5.500000,22.300000,4.500000,21.500000C3.200000,20.500000,2.300000,19,1.900000,17.500000C1.400000,15.900000,1.400000,14.100000,1.900000,12.400000C2,12.400000,2,12.100000,2.200000,12C1.900000,13,1.700000,14,1.900000,15C2,15.400000,2.100000,15.900000,2.500000,16.200000C2.700000,16.400000,3.100000,16.500000,3.400000,16.300000C3.700000,16.100000,3.800000,15.700000,3.700000,15.400000C3.500000,15,3.200000,14.700000,3,14.400000C2.600000,13.700000,2.700000,13,2.800000,12.200000C3,11.100000,3.400000,10,4.100000,9C5.100000,7.500000,6.700000,6.500000,8.400000,6.100000M8.600000,9.600000C8,9.900000,7.600000,10.400000,7.400000,11C7.100000,11.600000,7,12.200000,6.900000,12.900000C6.600000,12.900000,6.400000,12.600000,6.300000,12.400000C6.200000,12,6.300000,11.600000,6.400000,11.200000C6.400000,11.100000,6.300000,11,6.300000,10.900000C6.100000,10.900000,5.800000,11,5.700000,11.200000C5.400000,11.800000,5.400000,12.600000,5.900000,13.100000C6.200000,13.400000,6.600000,13.600000,7,13.600000C7.100000,14,7.400000,14.400000,7.800000,14.600000C8.300000,14.800000,8.900000,14.600000,9.300000,14.300000C9.300000,14.500000,9.300000,14.600000,9.200000,14.800000C9,14.900000,8.800000,15,8.700000,15.100000C7.800000,15.600000,6.900000,16,6.200000,16.700000C5.700000,17.200000,5.200000,17.900000,5.200000,18.600000C5.200000,19.200000,5.400000,19.800000,5.900000,20.100000C6.400000,20.500000,7.100000,20.400000,7.700000,20.200000C8.400000,20,9,19.400000,9.300000,18.700000C9.800000,17.700000,9.900000,16.600000,10,15.600000C10,15.500000,10,15.300000,10.100000,15.200000C11,14.700000,11.800000,14.200000,12.600000,13.600000C12.700000,13.700000,12.800000,13.800000,12.900000,14C12.500000,14.200000,12.100000,14.500000,11.800000,14.900000C10.600000,16.200000,10.600000,18.400000,11.800000,19.600000C12.400000,20.300000,13.400000,20.500000,14.300000,20.400000C15.100000,20.300000,15.900000,19.800000,16.300000,19C16.900000,18.100000,16.800000,16.800000,16,16C15.300000,15.300000,14,15.300000,13.400000,16C12.900000,16.500000,12.900000,17.500000,13.400000,18C13.600000,18.200000,14,18.400000,14.300000,18.200000C14.500000,18.100000,14.500000,17.800000,14.300000,17.700000C14.100000,17.500000,13.900000,17.200000,14,16.900000C14.100000,16.500000,14.500000,16.200000,14.900000,16.300000C15.200000,16.400000,15.500000,16.600000,15.600000,16.900000C15.900000,17.600000,15.700000,18.400000,15.200000,19C14.700000,19.600000,13.700000,19.700000,13.100000,19.200000C12.500000,18.800000,12.200000,18.200000,12.100000,17.500000C12,16.700000,12.100000,15.800000,12.600000,15.200000C12.900000,14.800000,13.400000,14.500000,13.900000,14.300000C14.300000,14.300000,14.800000,14.400000,15.200000,14.300000C15.400000,14.200000,15.600000,14,15.500000,13.800000C15.400000,13.600000,15.100000,13.500000,14.900000,13.500000C14.600000,13.400000,14.200000,13.500000,13.900000,13.600000C13.700000,13.500000,13.600000,13.300000,13.500000,13.100000C14.100000,12.600000,14.800000,12.100000,15.200000,11.400000C15.400000,11,15.600000,10.500000,15.500000,10C15.400000,9.700000,15.200000,9.400000,14.800000,9.400000C14.300000,9.300000,13.700000,9.500000,13.300000,9.900000C12.700000,10.500000,12.400000,11.400000,12.400000,12.300000C12.400000,12.500000,12.500000,12.700000,12.400000,12.800000C12,13.200000,11.500000,13.500000,11,13.800000C10.700000,14,10.500000,14.100000,10.200000,14.300000C10.200000,14,10.200000,13.700000,10.300000,13.500000C10.500000,13.200000,10.800000,13,10.900000,12.600000C11,12.400000,11.100000,12.100000,11,11.900000C10.900000,11.700000,10.600000,11.700000,10.500000,11.800000C10,12,9.800000,12.400000,9.700000,12.800000C9.600000,13,9.600000,13.300000,9.400000,13.500000C9.100000,13.700000,8.700000,14,8.300000,14C8.100000,14,7.900000,13.800000,7.900000,13.600000C8.600000,13.300000,9.100000,12.900000,9.600000,12.300000C10,11.800000,10.300000,11.100000,10.400000,10.500000C10.400000,10.200000,10.300000,9.800000,10,9.600000C9.500000,9.300000,9,9.400000,8.600000,9.600000Z" fill="rgb(189,197,208)" stroke="none" stroke-width="1"/><path id="eayipst9nokl34" d="M9,10.200000C9.200000,10.100000,9.400000,10.100000,9.500000,10.300000C9.600000,10.500000,9.500000,10.800000,9.400000,11C9.100000,11.600000,8.700000,12.100000,8.200000,12.500000C8.100000,12.600000,7.900000,12.700000,7.800000,12.800000C7.800000,12.300000,8,11.800000,8.200000,11.400000C8.400000,10.900000,8.600000,10.500000,9,10.200000Z" fill="rgb(189,197,208)" stroke="none" stroke-width="1"/><path id="eayipst9nokl35" d="M13.900000,10.400000C14,10.200000,14.300000,10.100000,14.500000,10.200000C14.700000,10.300000,14.600000,10.600000,14.500000,10.800000C14.200000,11.400000,13.700000,11.900000,13.200000,12.300000C13.200000,11.600000,13.500000,10.900000,13.900000,10.400000Z" fill="rgb(189,197,208)" stroke="none" stroke-width="1"/><path id="eayipst9nokl36" d="M7.200000,17C7.800000,16.500000,8.400000,16.100000,9.100000,15.800000C9,16.600000,8.800000,17.300000,8.600000,18C8.400000,18.600000,8,19.200000,7.400000,19.400000C7.100000,19.500000,6.700000,19.600000,6.400000,19.300000C6.100000,19.100000,6.200000,18.700000,6.200000,18.400000C6.300000,17.800000,6.800000,17.400000,7.200000,17Z" fill="rgb(189,197,208)" stroke="none" stroke-width="1"/><path id="eayipst9nokl37" d="M62.800000,12.500000C62,12.500000,61.300000,12.800000,60.900000,13.800000L60.800000,13.800000L61,12.600000L58.800000,12.600000L57.600000,21L59.800000,21L60.600000,16C60.700000,15.400000,60.900000,14.700000,61.600000,14.700000C62.200000,14.700000,62.100000,15.300000,62,15.900000L61.900000,16.300000L63.900000,16.300000L64,15.600000C64.200000,14.100000,64.300000,12.500000,62.800000,12.500000Z" fill="rgb(189,197,208)" stroke="none" stroke-width="1"/><path id="eayipst9nokl38" d="M39.400000,12.500000C36.700000,12.500000,36,13.600000,35.500000,16.800000C35.100000,20,35.600000,21.100000,38.200000,21.100000C39.100000,21.100000,40,21,40.600000,20.600000C41.200000,20.200000,41.600000,19.500000,41.800000,18.200000L39.600000,18.200000C39.500000,19.100000,39.100000,19.200000,38.400000,19.200000C37.500000,19.200000,37.400000,18.800000,37.600000,17.300000L41.900000,17.300000L42,16.800000C42.500000,13.400000,41.900000,12.500000,39.400000,12.500000ZM39.900000,15.700000L37.800000,15.700000C37.900000,14.600000,38.200000,14.400000,39,14.400000C39.700000,14.400000,40.100000,14.500000,39.900000,15.700000Z" fill="rgb(189,197,208)" stroke="none" stroke-width="1"/><path id="eayipst9nokl39" d="M68.500000,12.400000C66.900000,12.400000,65.400000,12.400000,65,15L67.300000,15C67.400000,14.300000,67.800000,14.100000,68.300000,14.100000C69.200000,14.100000,69.200000,14.600000,69.100000,15.400000L68.900000,16.700000L68.800000,16.700000C68.700000,15.800000,67.700000,15.800000,67.100000,15.800000C65.500000,15.800000,64.600000,16.400000,64.300000,18.400000C63.900000,20.500000,64.800000,21,66.300000,21C67,21,68.100000,20.800000,68.400000,19.700000L68.200000,21L70.400000,21L71.200000,15.600000C71.600000,12.800000,70.700000,12.400000,68.500000,12.400000ZM68.500000,18.300000C68.400000,19.200000,68.100000,19.300000,67.200000,19.300000C66.900000,19.300000,66.300000,19.300000,66.400000,18.400000C66.500000,17.600000,67,17.500000,67.500000,17.500000C68.200000,17.500000,68.700000,17.600000,68.500000,18.300000Z" fill="rgb(189,197,208)" stroke="none" stroke-width="1"/><path id="eayipst9nokl40" d="M31.300000,8.900000C28.500000,8.900000,26.700000,9.500000,26.100000,13.400000L25.700000,16.500000C25.200000,20.400000,26.600000,21,29.600000,21C33,21,33.900000,20.200000,34.500000,16.200000L34.800000,14.100000L30.500000,14.100000L30.200000,16.300000L32,16.300000C31.800000,17.900000,31.400000,18.300000,30.100000,18.300000C28.700000,18.300000,28.200000,18.100000,28.500000,16L28.800000,14.100000C29.100000,12.200000,29.300000,11.500000,31.100000,11.500000C31.900000,11.500000,32.700000,11.500000,32.600000,12.700000L35,12.700000C35.400000,9.500000,33.800000,8.900000,31.300000,8.900000Z" fill="rgb(189,197,208)" stroke="none" stroke-width="1"/><path id="eayipst9nokl41" d="M48,12.500000C47,12.500000,46.300000,12.900000,45.800000,14.200000L45.700000,14.200000L45.900000,12.600000L43.700000,12.600000L42.500000,21L44.700000,21L45.300000,16.500000C45.400000,15.400000,45.700000,14.700000,46.700000,14.700000C47.400000,14.700000,47.500000,15.100000,47.400000,15.900000L46.700000,21L48.900000,21L49.800000,15.200000C50,13.400000,49.500000,12.500000,48,12.500000Z" fill="rgb(189,197,208)" stroke="none" stroke-width="1"/><polygon id="eayipst9nokl42" points="123,9 120.800000,9 120.500000,11.100000 122.700000,11.100000" fill="rgb(189,197,208)" stroke="none" stroke-width="1"/><path id="eayipst9nokl43" d="M54.500000,12.500000C51.800000,12.500000,51.100000,13.600000,50.600000,16.800000C50.200000,20,50.700000,21.100000,53.300000,21.100000C54.200000,21.100000,55.100000,21,55.700000,20.600000C56.300000,20.200000,56.700000,19.500000,56.900000,18.200000L54.700000,18.200000C54.600000,19.100000,54.200000,19.200000,53.500000,19.200000C52.600000,19.200000,52.500000,18.800000,52.700000,17.300000L57,17.300000L57.100000,16.800000C57.600000,13.400000,57,12.500000,54.500000,12.500000ZM55.100000,15.700000L53,15.700000C53.100000,14.600000,53.400000,14.400000,54.200000,14.400000C54.900000,14.400000,55.300000,14.500000,55.100000,15.700000Z" fill="rgb(189,197,208)" stroke="none" stroke-width="1"/><polygon id="eayipst9nokl44" points="119.100000,21 121.300000,21 122.500000,12.600000 120.300000,12.600000" fill="rgb(189,197,208)" stroke="none" stroke-width="1"/><path id="eayipst9nokl45" d="M110.200000,14.600000L112.700000,14.600000L113,12.600000L110.500000,12.600000L110.800000,10.800000L108.600000,10.800000L108.300000,12.600000L107.500000,12.600000L107.200000,14.600000L108,14.600000L107.400000,18.700000C107.100000,20.800000,108.200000,21,109.600000,21C111.400000,21,112.200000,20.500000,112.500000,18.200000L112.600000,17.500000L110.900000,17.500000L110.800000,17.900000C110.700000,18.500000,110.700000,19,110.100000,19C109.700000,19,109.600000,18.800000,109.700000,18.300000L110.200000,14.600000Z" fill="rgb(189,197,208)" stroke="none" stroke-width="1"/><path id="eayipst9nokl46" d="M118,12.500000C117.200000,12.500000,116.500000,12.800000,116.100000,13.800000L116,13.800000L116.200000,12.600000L114.100000,12.600000L112.900000,21L115.100000,21L115.800000,16C115.900000,15.400000,116.100000,14.700000,116.800000,14.700000C117.400000,14.700000,117.300000,15.300000,117.200000,15.900000L117.100000,16.300000L119.100000,16.300000L119.200000,15.600000C119.400000,14.100000,119.500000,12.500000,118,12.500000Z" fill="rgb(189,197,208)" stroke="none" stroke-width="1"/><path id="eayipst9nokl47" d="M129.400000,15.600000C129.800000,12.700000,128.500000,12.400000,126.600000,12.400000C123.900000,12.400000,123.200000,13.900000,122.800000,16.700000C122.300000,20,122.800000,21,125.400000,21C126.600000,21,127.300000,20.900000,127.900000,20.400000C128.500000,20,128.900000,19.200000,129.100000,17.600000L127,17.600000C126.900000,18.600000,126.800000,18.900000,125.800000,18.900000C125,18.900000,124.800000,18.700000,125.100000,16.700000C125.400000,14.800000,125.600000,14.500000,126.400000,14.500000C126.800000,14.500000,127.100000,14.500000,127.200000,14.700000C127.300000,14.900000,127.300000,15.200000,127.200000,15.600000L129.400000,15.600000Z" fill="rgb(189,197,208)" stroke="none" stroke-width="1"/><path id="eayipst9nokl48" d="M96.500000,12.500000C93.800000,12.500000,93.100000,13.600000,92.600000,16.800000C92.200000,20,92.700000,21.100000,95.300000,21.100000C96.200000,21.100000,97.100000,21,97.700000,20.600000C98.300000,20.200000,98.700000,19.500000,98.900000,18.200000L96.700000,18.200000C96.600000,19.100000,96.200000,19.200000,95.500000,19.200000C94.600000,19.200000,94.500000,18.800000,94.700000,17.300000L99,17.300000L99.100000,16.800000C99.600000,13.400000,99,12.500000,96.500000,12.500000ZM97.100000,15.700000L95,15.700000C95.100000,14.600000,95.400000,14.400000,96.200000,14.400000C96.900000,14.400000,97.300000,14.500000,97.100000,15.700000Z" fill="rgb(189,197,208)" stroke="none" stroke-width="1"/><polygon id="eayipst9nokl49" points="88.400000,11.600000 88.800000,9 81.900000,9 80.100000,21 87.100000,21 87.500000,18.300000 83.100000,18.300000 83.400000,16 87.500000,16 87.800000,13.800000 83.700000,13.800000 84,11.600000" fill="rgb(189,197,208)" stroke="none" stroke-width="1"/><polygon id="eayipst9nokl50" points="90.400000,9 88.700000,21 90.900000,21 92.600000,9" fill="rgb(189,197,208)" stroke="none" stroke-width="1"/><path id="eayipst9nokl51" d="M103.700000,12.400000C101,12.400000,100.300000,13.900000,99.900000,16.700000C99.400000,20,99.900000,21,102.500000,21C103.700000,21,104.400000,20.900000,105,20.400000C105.600000,20,106,19.200000,106.200000,17.600000L104.100000,17.600000C104,18.600000,103.900000,18.900000,102.900000,18.900000C102.100000,18.900000,101.900000,18.700000,102.200000,16.700000C102.500000,14.800000,102.700000,14.500000,103.500000,14.500000C103.900000,14.500000,104.200000,14.500000,104.300000,14.700000C104.400000,14.900000,104.400000,15.200000,104.300000,15.600000L106.500000,15.600000C106.900000,12.700000,105.600000,12.400000,103.700000,12.400000Z" fill="rgb(189,197,208)" stroke="none" stroke-width="1"/><polygon id="eayipst9nokl52" points="71.800000,21 74,21 75.700000,9 73.500000,9" fill="rgb(189,197,208)" stroke="none" stroke-width="1"/></g></g></svg>