<svg id="e4qvrogxt6a61" xmlns="http://www.w3.org/2000/svg" xmlns:xlink="http://www.w3.org/1999/xlink" viewBox="0 0 130 30" shape-rendering="geometricPrecision" text-rendering="geometricPrecision" width="130" height="30"><style><![CDATA[#e4qvrogxt6a62_ts {animation: e4qvrogxt6a62_ts__ts 20000ms linear infinite normal forwards}@keyframes e4qvrogxt6a62_ts__ts { 0% {transform: translate(65px,14.989019px) scale(1,0)} 1% {transform: translate(65px,14.989019px) scale(1,0)} 2% {transform: translate(65px,14.989019px) scale(1,1)} 23% {transform: translate(65px,14.989019px) scale(1,1)} 24% {transform: translate(65px,14.989019px) scale(1,0)} 100% {transform: translate(65px,14.989019px) scale(1,0)} }#e4qvrogxt6a611_ts {animation: e4qvrogxt6a611_ts__ts 20000ms linear infinite normal forwards}@keyframes e4qvrogxt6a611_ts__ts { 0% {transform: translate(65.022224px,15.026422px) scale(1,0)} 51% {transform: translate(65.022224px,15.026422px) scale(1,0)} 52% {transform: translate(65.022224px,15.026422px) scale(1,1)} 73% {transform: translate(65.022224px,15.026422px) scale(1,1)} 74% {transform: translate(65.022224px,15.026422px) scale(1,0)} 100% {transform: translate(65.022224px,15.026422px) scale(1,0)} }#e4qvrogxt6a620_ts {animation: e4qvrogxt6a620_ts__ts 20000ms linear infinite normal forwards}@keyframes e4qvrogxt6a620_ts__ts { 0% {transform: translate(65.010205px,15px) scale(1,0)} 26% {transform: translate(65.010205px,15px) scale(1,0)} 27% {transform: translate(65.010205px,15px) scale(1,1)} 48% {transform: translate(65.010205px,15px) scale(1,1)} 49% {transform: translate(65.010205px,15px) scale(1,0)} 100% {transform: translate(65.010205px,15px) scale(1,0)} }#e4qvrogxt6a628_ts {animation: e4qvrogxt6a628_ts__ts 20000ms linear infinite normal forwards}@keyframes e4qvrogxt6a628_ts__ts { 0% {transform: translate(65px,15px) scale(1,0)} 76% {transform: translate(65px,15px) scale(1,0)} 77% {transform: translate(65px,15px) scale(1,1)} 98% {transform: translate(65px,15px) scale(1,1)} 99% {transform: translate(65px,15px) scale(1,0)} 100% {transform: translate(65px,15px) scale(1,0)} }]]></style><g id="e4qvrogxt6a62_ts" transform="translate(65,14.989019) scale(1,0)"><g id="e4qvrogxt6a62" transform="translate(-65,-14.989019)"><path id="e4qvrogxt6a63" d="M47.500000,8.100000C45.600000,7.300000,43.700000,7.800000,42.600000,8.300000C41.500000,8.800000,40.800000,9.900000,40.800000,9.900000L40.800000,8L35.400000,8L35.400000,21.700000L40.800000,21.700000L40.800000,11.900000C40.800000,11.700000,41.400000,11,42.200000,10.600000C42.900000,10.200000,43.800000,10.400000,44.100000,10.800000C44.500000,11.300000,44.500000,11.900000,44.500000,12.200000L44.500000,21.700000L49.800000,21.700000L49.800000,11.200000C49.800000,10.600000,49.400000,8.900000,47.500000,8.100000Z" fill="rgb(189,197,208)" stroke="none" stroke-width="1"/><path id="e4qvrogxt6a64" d="M29.200000,8.100000C27.700000,7.500000,25.800000,7.600000,25.800000,7.600000C25.700000,7.600000,25.200000,7.600000,24.300000,7.700000C23.300000,7.900000,21.300000,8.300000,19.600000,10.500000C18,12.700000,18.200000,15.400000,18.600000,17C19,18.500000,19.900000,19.600000,21.200000,20.700000C22.500000,21.800000,24.500000,22.100000,26,22.100000C27.500000,22.100000,29.100000,21.800000,30.100000,21.300000C31.100000,20.700000,32.600000,19.700000,33.300000,17.600000C34.100000,15.500000,33.900000,12.900000,32.900000,11.100000C31.800000,9.300000,30.700000,8.700000,29.200000,8.100000ZM27,20.200000C26.700000,20.500000,26.300000,20.500000,26,20.500000C25.600000,20.400000,25.200000,20.100000,24.900000,19.700000C24.400000,18.900000,24.200000,18.200000,24.200000,15.700000C24.200000,15.200000,24.200000,14.600000,24.200000,14.200000C24.200000,12.600000,24.200000,11.400000,24.500000,10.700000C24.900000,9.800000,25.400000,9.400000,25.800000,9.300000C25.900000,9.300000,26,9.300000,26.100000,9.300000C26.900000,9.300000,27.400000,10.100000,27.700000,10.800000C27.800000,11.100000,28,11.900000,28,13C28,14.900000,28,17,28.100000,17.500000C28,17.900000,27.800000,19.500000,27,20.200000Z" fill="rgb(189,197,208)" stroke="none" stroke-width="1"/><polygon id="e4qvrogxt6a65" points="10.800000,10.800000 6.300000,10.800000 6.300000,3 0.500000,3 0.500000,21.800000 6.300000,21.800000 6.300000,13.200000 10.800000,13.200000 10.800000,21.800000 16.600000,21.800000 16.600000,3 10.800000,3" fill="rgb(189,197,208)" stroke="none" stroke-width="1"/><rect id="e4qvrogxt6a66" width="5.200000" height="18.700000" rx="0" ry="0" transform="matrix(1 0 0 1 117.50000000000000 3)" fill="rgb(189,197,208)" stroke="none" stroke-width="1"/><path id="e4qvrogxt6a67" d="M108.400000,7.600000C105,7.400000,102.300000,9.100000,101.200000,11.300000C100.100000,13.500000,100.300000,16,100.700000,17.300000C101,18.300000,101.600000,19.400000,102.900000,20.500000C105.100000,22.300000,107.800000,22.300000,109.700000,22.100000C111.600000,21.900000,113.300000,20.900000,114.300000,20C115.300000,19.100000,115.300000,17.700000,115.300000,17.700000L113,17.700000C113,17.700000,113,19.900000,110.100000,20.300000C107.500000,20.700000,106.700000,19.600000,106.500000,19.300000C106.300000,19,106.200000,18.500000,106.200000,18.500000L106.200000,15.700000L115.800000,15.700000C115.900000,15.700000,116,13.100000,115,11.200000C113.800000,9,111.900000,7.700000,108.400000,7.600000ZM110.300000,13.900000L106.300000,13.900000C106.300000,13.500000,106.300000,12.100000,106.400000,11.400000C106.600000,10.500000,107,9.900000,107.400000,9.600000C107.900000,9.200000,108.900000,9.200000,109.400000,9.700000C109.900000,10.200000,110,10.700000,110.100000,10.900000C110.200000,11.200000,110.300000,12,110.300000,12.700000C110.300000,13.300000,110.300000,13.700000,110.300000,13.900000Z" fill="rgb(189,197,208)" stroke="none" stroke-width="1"/><path id="e4qvrogxt6a68" d="M66.300000,17.700000L64,17.700000C64,17.700000,64,19.900000,61.100000,20.300000C58.500000,20.700000,57.700000,19.600000,57.500000,19.300000C57.300000,19,57.200000,18.500000,57.200000,18.500000L57.200000,15.700000L66.800000,15.700000C66.900000,15.700000,67,13.100000,66,11.200000C64.800000,9,62.800000,7.700000,59.400000,7.600000C56,7.400000,53.300000,9.100000,52.200000,11.300000C51.100000,13.500000,51.300000,16,51.700000,17.300000C52,18.300000,52.600000,19.400000,53.900000,20.500000C56.100000,22.300000,58.800000,22.300000,60.700000,22.100000C62.600000,21.900000,64.300000,20.900000,65.300000,20C66.300000,19.100000,66.300000,17.700000,66.300000,17.700000ZM57.300000,11.400000C57.500000,10.500000,57.900000,9.900000,58.300000,9.600000C58.800000,9.200000,59.800000,9.200000,60.300000,9.700000C60.800000,10.200000,60.900000,10.700000,61,10.900000C61.100000,11.200000,61.200000,12,61.200000,12.700000C61.200000,13.300000,61.200000,13.700000,61.200000,13.900000L57.200000,13.900000C57.200000,13.500000,57.200000,12.100000,57.300000,11.400000Z" fill="rgb(189,197,208)" stroke="none" stroke-width="1"/><rect id="e4qvrogxt6a69" width="5.200000" height="18.800000" rx="0" ry="0" transform="matrix(1 0 0 1 124.30000000000000 3)" fill="rgb(189,197,208)" stroke="none" stroke-width="1"/><path id="e4qvrogxt6a610" d="M98.400000,8L96.300000,15.700000L94,8L89.300000,8L87.200000,15.700000L84.900000,8L77.500000,8L74.800000,14.500000L72.300000,8L66.400000,8L71.800000,22C71.800000,22,71.800000,22.100000,71.700000,22.500000C71.600000,22.900000,71.200000,23.900000,70.500000,24.600000C69.800000,25.300000,69.100000,25.100000,69.100000,25.100000C69.100000,25.100000,69.400000,24.900000,69.500000,24.500000C69.600000,24.100000,69.600000,23.400000,69.300000,22.800000C69,22.200000,68.200000,21.700000,66.900000,21.900000C65.600000,22.100000,65,23.300000,65.200000,24.500000C65.300000,25.600000,66,26.600000,67.900000,26.900000C69.700000,27.200000,70.900000,26.600000,71.800000,25.700000C72.700000,24.800000,73.600000,22.500000,73.600000,22.500000L79.300000,8.600000L83.300000,21.800000L87.900000,21.800000L90.100000,13.900000L92.600000,21.800000L97,21.800000L100.700000,8.100000L98.400000,8Z" fill="rgb(189,197,208)" stroke="none" stroke-width="1"/></g></g><g id="e4qvrogxt6a611_ts" transform="translate(65.022224,15.026422) scale(1,0)"><g id="e4qvrogxt6a611" transform="translate(-65.022224,-15.026422)"><path id="e4qvrogxt6a612" d="M47.100000,8.900000C48,8.700000,48.800000,8.400000,49.500000,8.300000C54.200000,7.300000,59.200000,10.300000,60.400000,15C60.700000,16,60.800000,17.100000,60.800000,18.200000C60.800000,21.700000,60.800000,25.300000,60.800000,28.800000C60.800000,29.800000,60.800000,29.800000,59.700000,29.800000C59.100000,29.800000,58.600000,29.800000,58,29.800000C56.400000,29.700000,55.400000,28.700000,55.400000,27.100000C55.400000,24,55.400000,20.900000,55.400000,17.800000C55.400000,15.900000,54,14.100000,52.200000,13.700000C50.200000,13.200000,48.200000,14.200000,47.400000,16C47.100000,16.700000,47,17.400000,47,18.200000C46.900000,19.700000,47,21.300000,46.600000,22.800000C45.600000,27.300000,41,30.400000,36.400000,29.900000C32.200000,29.400000,29.100000,26.800000,28,22.700000C27.800000,21.900000,27.700000,21.100000,27.700000,20.300000C27.700000,14.500000,27.700000,8.700000,27.700000,2.900000C27.700000,2.100000,27.900000,1.800000,28.700000,1.900000C29.300000,2,30,1.900000,30.600000,1.900000C31.900000,2,33,3,33.100000,4.400000C33.100000,5.400000,33.100000,6.400000,33.100000,7.500000C33.100000,8.100000,33.300000,8.300000,33.900000,8.200000C34.900000,8.200000,35.900000,8.200000,36.900000,8.200000C37.200000,8.200000,37.600000,8.500000,37.600000,8.600000C37.600000,9.500000,37.700000,10.500000,37.500000,11.400000C37.200000,12.800000,36.200000,13.600000,34.800000,13.600000C33.100000,13.700000,33.100000,13.700000,33.100000,15.300000C33.100000,16.900000,33.100000,18.500000,33.100000,20.100000C33.100000,22.600000,34.900000,24.500000,37.300000,24.500000C39.700000,24.500000,41.500000,22.600000,41.500000,20.200000C41.500000,14.500000,41.500000,8.800000,41.500000,3.100000C41.500000,2,41.500000,1.900000,42.600000,2C43.500000,2,44.500000,2,45.400000,2.300000C46.400000,2.600000,46.800000,3.500000,46.800000,4.500000C46.800000,5.700000,46.800000,7,46.800000,8.200000C47,8.400000,47.100000,8.600000,47.100000,8.900000Z" fill="rgb(189,197,208)" stroke="none" stroke-width="1"/><path id="e4qvrogxt6a613" d="M96.500000,17.900000C96.500000,14.900000,96.500000,12,96.500000,9C96.500000,8.300000,96.700000,8.100000,97.400000,8.100000C98,8.100000,98.600000,8,99.200000,8.100000C99.700000,8.200000,100.400000,8.300000,100.800000,8.600000C101.400000,9.100000,101.900000,9,102.600000,8.800000C106.200000,7.400000,109.500000,8,112.500000,10.500000C112.900000,10.900000,113.200000,10.900000,113.600000,10.500000C118.800000,6,126.600000,8,129,14.500000C129.300000,15.400000,129.500000,16.500000,129.500000,17.500000C129.600000,21.300000,129.500000,25.100000,129.500000,29C129.500000,29.600000,129.300000,29.900000,128.700000,29.900000C128.100000,29.900000,127.400000,29.900000,126.800000,29.900000C125.300000,29.800000,124.200000,28.800000,124.200000,27.200000C124.200000,24.100000,124.200000,21.100000,124.200000,18C124.200000,15.500000,122.400000,13.700000,120,13.700000C117.600000,13.700000,115.800000,15.500000,115.800000,17.900000C115.800000,21.600000,115.800000,25.200000,115.800000,28.900000C115.800000,29.900000,115.800000,29.900000,114.800000,29.900000C114.300000,29.900000,113.700000,29.900000,113.200000,29.900000C111.500000,29.800000,110.500000,28.800000,110.500000,27.200000C110.500000,24.200000,110.500000,21.200000,110.500000,18.200000C110.500000,16.300000,109.700000,14.900000,108,14.100000C105.300000,12.800000,102.100000,14.800000,102.100000,17.800000C102.100000,21.500000,102.100000,25.200000,102.100000,28.900000C102.100000,29.900000,102.100000,29.900000,101.100000,29.900000C100.700000,29.900000,100.300000,29.900000,99.900000,29.900000C97.700000,29.900000,96.700000,28.900000,96.700000,26.700000C96.500000,23.700000,96.500000,20.800000,96.500000,17.900000L96.500000,17.900000Z" fill="rgb(189,197,208)" stroke="none" stroke-width="1"/><path id="e4qvrogxt6a614" d="M73.600000,14.800000C73.600000,12.900000,73.600000,10.900000,73.600000,9C73.600000,8.400000,73.800000,8.100000,74.400000,8.200000C75,8.200000,75.600000,8.200000,76.200000,8.200000C77.900000,8.200000,79,9.400000,79.100000,11.100000C79.100000,14.100000,79.200000,17.200000,79.100000,20.200000C79.100000,22.100000,80.400000,24,82.400000,24.400000C84.300000,24.800000,86.300000,23.800000,87.100000,21.800000C87.300000,21.300000,87.400000,20.600000,87.400000,20C87.400000,16.400000,87.400000,12.800000,87.400000,9.200000C87.400000,8.200000,87.400000,8.100000,88.500000,8.100000C89.400000,8.100000,90.400000,8.100000,91.200000,8.400000C92.200000,8.700000,92.800000,9.600000,92.800000,10.700000C92.800000,14.100000,92.900000,17.500000,92.800000,20.900000C92.600000,26.100000,87.700000,30.200000,82.500000,29.800000C78.300000,29.400000,75,26.600000,74,22.800000C73.800000,22,73.700000,21.100000,73.700000,20.200000C73.500000,18.400000,73.600000,16.600000,73.600000,14.800000L73.600000,14.800000Z" fill="rgb(189,197,208)" stroke="none" stroke-width="1"/><path id="e4qvrogxt6a615" d="M0.500000,11.800000C0.500000,8.800000,0.500000,5.800000,0.500000,2.700000C0.500000,2,0.700000,1.700000,1.400000,1.800000C2,1.900000,2.600000,1.800000,3.200000,1.800000C4.700000,1.800000,5.800000,2.800000,5.800000,4.400000C5.800000,5.700000,5.800000,6.900000,5.800000,8.200000C5.800000,12,5.900000,15.900000,5.800000,19.700000C5.700000,22.600000,7.800000,24.700000,10.600000,24.500000C11.200000,24.500000,11.800000,24.500000,12.400000,24.500000C14.100000,24.500000,15.200000,25.400000,15.500000,27C15.600000,27.800000,15.600000,28.500000,15.500000,29.300000C15.500000,29.500000,15.200000,29.800000,15,29.800000C12.300000,29.700000,9.600000,30.200000,7,29.300000C3.900000,28.200000,1.800000,26,0.900000,22.800000C0.600000,21.800000,0.600000,20.800000,0.500000,19.800000C0.500000,17.100000,0.500000,14.400000,0.500000,11.800000Z" fill="rgb(189,197,208)" stroke="none" stroke-width="1"/><path id="e4qvrogxt6a616" d="M23.800000,19.900000C23.800000,22.900000,23.800000,25.900000,23.800000,29C23.800000,29.700000,23.600000,29.900000,22.900000,29.900000C22.300000,29.900000,21.700000,29.900000,21.100000,29.900000C19.500000,29.800000,18.500000,28.800000,18.500000,27.300000C18.500000,21.200000,18.500000,15.100000,18.500000,8.900000C18.500000,8.400000,18.700000,8.200000,19.200000,8.200000C19.800000,8.200000,20.400000,8.200000,21,8.200000C22.700000,8.200000,23.800000,9.300000,23.900000,11C23.800000,13.900000,23.800000,16.900000,23.800000,19.900000Z" fill="rgb(189,197,208)" stroke="none" stroke-width="1"/><path id="e4qvrogxt6a617" d="M70,19.900000C70,22.900000,70,25.900000,70,29C70,29.700000,69.700000,29.900000,69.100000,29.900000C68.500000,29.900000,67.900000,29.900000,67.300000,29.900000C65.700000,29.800000,64.700000,28.800000,64.700000,27.200000C64.700000,21.100000,64.700000,15.100000,64.700000,9C64.700000,8.400000,64.900000,8.100000,65.500000,8.200000C66,8.200000,66.600000,8.200000,67.100000,8.200000C68.900000,8.200000,70,9.300000,70,11.100000C70,12.600000,70,14.100000,70,15.600000C70,16.900000,70,18.400000,70,19.900000L70,19.900000Z" fill="rgb(189,197,208)" stroke="none" stroke-width="1"/><path id="e4qvrogxt6a618" d="M67.300000,6.200000C65.600000,6.200000,64.300000,4.900000,64.300000,3.200000C64.300000,1.500000,65.600000,0.200000,67.300000,0.200000C69,0.200000,70.300000,1.500000,70.300000,3.200000C70.300000,4.900000,69,6.200000,67.300000,6.200000Z" fill="rgb(189,197,208)" stroke="none" stroke-width="1"/><path id="e4qvrogxt6a619" d="M24.100000,3.100000C24.100000,4.800000,22.900000,6.100000,21.100000,6.100000C19.400000,6.100000,18.100000,4.900000,18.100000,3.100000C18.100000,1.400000,19.300000,0.100000,21.100000,0.100000C22.800000,0.100000,24.100000,1.400000,24.100000,3.100000Z" fill="rgb(189,197,208)" stroke="none" stroke-width="1"/></g></g><g id="e4qvrogxt6a620_ts" transform="translate(65.010205,15) scale(1,0)"><g id="e4qvrogxt6a620" transform="translate(-65.010205,-15)"><polygon id="e4qvrogxt6a621" points="2.200000,22.700000 9.500000,24.400000 0.300000,23 7.400000,18.400000" clip-rule="evenodd" fill="rgb(189,197,208)" fill-rule="evenodd" stroke="none" stroke-width="1"/><path id="e4qvrogxt6a622" d="M59.100000,13.800000L54.700000,19.800000L66,9.400000L59.100000,13.800000ZM42.900000,0.500000L49.700000,2.800000L61.500000,4.600000L42.900000,0.500000ZM21.100000,26.100000L9.500000,24.400000L28.800000,28.800000L21.100000,26.100000ZM7.400000,18.400000L14.300000,14L17.600000,9.800000L7.400000,18.400000Z" clip-rule="evenodd" fill="rgb(189,197,208)" fill-rule="evenodd" stroke="none" stroke-width="1"/><path id="e4qvrogxt6a623" d="M31.400000,28L31,29.100000L30.500000,28L30.200000,28L30.200000,29.500000L30.400000,29.500000L30.400000,28.300000L30.900000,29.500000L31,29.500000L31.500000,28.300000L31.500000,28.300000L31.500000,29.500000L31.700000,29.500000L31.700000,28L31.400000,28ZM28.800000,28L28.800000,28.200000L29.300000,28.200000L29.300000,29.500000L29.500000,29.500000L29.500000,28.200000L30,28.200000L30,28L28.800000,28Z" clip-rule="evenodd" fill="rgb(189,197,208)" fill-rule="evenodd" stroke="none" stroke-width="1"/><path id="e4qvrogxt6a624" d="M127.700000,18.100000C126.800000,18.100000,125.700000,18.300000,124.700000,19.400000C124.700000,18.500000,123.800000,18.100000,122.800000,18.100000C121.600000,18.100000,120.500000,18.500000,119.600000,19.600000L119.600000,19.600000L120.100000,18.300000L118.300000,18.300000C118.100000,19,117.800000,19.700000,117.500000,20.400000L114.100000,28.500000L115.800000,28.500000L118.700000,21.600000C118.900000,21.100000,119.300000,20.500000,119.700000,20.100000C120.100000,19.700000,120.900000,19.400000,121.500000,19.400000C122.900000,19.400000,122.700000,20.400000,122.300000,21.400000L119.300000,28.500000L119.300000,28.500000L121,28.500000L123.900000,21.600000C124.100000,21.200000,124.600000,20.200000,125.200000,19.800000C125.800000,19.400000,126,19.400000,126.600000,19.400000C128,19.400000,127.800000,20.400000,127.400000,21.400000L124.400000,28.500000L126.100000,28.500000L129.400000,20.700000C129.400000,20.600000,129.700000,20.100000,129.700000,19.500000C129.800000,19,129.500000,18.700000,129.500000,18.700000C129.200000,18.200000,128.300000,18.100000,127.700000,18.100000ZM111.500000,18.100000C107.900000,18.100000,106.500000,20.600000,105.300000,23.600000C103.400000,28.100000,104.900000,28.800000,107.100000,28.800000C109.300000,28.800000,111.300000,28.100000,113.200000,23.600000C114.400000,20.600000,115.100000,18.100000,111.500000,18.100000ZM111.700000,22.900000C110.300000,26.200000,109.400000,27.400000,107.600000,27.400000C105.800000,27.400000,105.900000,26.200000,107.300000,22.900000C108.500000,20.100000,109.600000,19.500000,110.900000,19.500000C112.200000,19.500000,112.900000,20.100000,111.700000,22.900000ZM103.200000,21.600000C104.300000,19.300000,103.600000,18.100000,101.500000,18.100000C97.900000,18.100000,96.500000,20.600000,95.200000,23.600000C93.300000,28.100000,94.800000,28.800000,97,28.800000C98.200000,28.800000,100.700000,28.100000,101.800000,25.200000L100,25.200000C99.300000,27,97.900000,27.500000,97.500000,27.500000C95.700000,27.500000,95.800000,26.300000,97.200000,23C98.400000,20.200000,99.500000,19.600000,100.800000,19.600000C101.400000,19.600000,102.100000,20.100000,101.300000,21.700000L103.200000,21.600000L103.200000,21.600000ZM90.600000,18.100000C87,18.100000,85.600000,20.600000,84.300000,23.600000C82.400000,28.100000,83.900000,28.800000,86.100000,28.800000C88.300000,28.800000,90.100000,27.700000,91.100000,25.500000L89.300000,25.500000C88.800000,26.500000,87.800000,27.400000,86.700000,27.400000C85.400000,27.400000,84.800000,26.800000,86,24L91.900000,24L92.200000,23.100000C93.600000,19.700000,93.500000,18.100000,90.600000,18.100000ZM90.500000,22.700000L86.500000,22.700000C87.700000,19.900000,88.800000,19.400000,89.900000,19.400000C91.100000,19.400000,91.800000,19.700000,90.500000,22.700000ZM83.300000,13.900000L77.200000,28.500000L78.900000,28.500000L85,13.900000L83.300000,13.900000ZM74.300000,18.100000C70.700000,18.100000,69.300000,20.600000,68,23.600000C66.100000,28.100000,67.600000,28.800000,69.800000,28.800000C72,28.800000,73.800000,27.700000,74.800000,25.500000L73,25.500000C72.500000,26.500000,71.500000,27.400000,70.400000,27.400000C69.100000,27.400000,68.500000,26.800000,69.700000,24L75.600000,24L76,23.100000C77.300000,19.700000,77.200000,18.100000,74.300000,18.100000ZM74.200000,22.700000L70.100000,22.700000C71.300000,19.900000,72.400000,19.400000,73.500000,19.400000C74.800000,19.400000,75.500000,19.700000,74.200000,22.700000ZM65,18.300000L66.100000,15.600000L64.100000,16.300000L63.300000,18.300000L61.600000,18.300000L61.100000,19.600000L62.800000,19.600000L59.700000,26.900000C59.200000,28.100000,59.700000,28.700000,61.300000,28.700000C61.800000,28.700000,62.500000,28.600000,63,28.500000L63.500000,27.200000C63.100000,27.200000,62.800000,27.300000,62.700000,27.300000C61.200000,27.300000,61.500000,26.500000,61.800000,25.800000L64.400000,19.500000L66.700000,19.500000L67.200000,18.200000L65,18.200000L65,18.300000Z" clip-rule="evenodd" fill="rgb(189,197,208)" fill-rule="evenodd" stroke="none" stroke-width="1"/><path id="e4qvrogxt6a625" d="M32.600000,18.300000C34.900000,18.300000,37.200000,17.300000,38.300000,14.700000C39.300000,12.100000,38.100000,11.100000,35.800000,11.100000L34.100000,11.100000L31.200000,18.200000L32.600000,18.200000L32.600000,18.300000Z" fill="rgb(189,197,208)" stroke="none" stroke-width="1"/><path id="e4qvrogxt6a626" d="M59.700000,6.200000L49.700000,2.800000L35.400000,0.600000L14.300000,14L8.700000,21.200000L43.800000,21.200000L12,23.100000L21.200000,26.200000L36.200000,28.500000L59.200000,13.900000L63.200000,8L28.100000,8L59.700000,6.200000ZM43.200000,18.600000C44.100000,18.600000,45.200000,18.100000,45.600000,17.200000C46.500000,14.900000,41,16.200000,42.600000,12.500000C43.500000,10.300000,45.800000,9.300000,47.800000,9.300000C48.900000,9.300000,49.900000,9.600000,50.400000,10.400000L48.500000,11.800000C48.300000,11.200000,47.700000,11,47,11C46.100000,11,45.100000,11.400000,44.700000,12.400000C43.800000,14.500000,49.300000,13.300000,47.800000,17.100000C46.900000,19.400000,44.700000,20.500000,42.600000,20.500000C41.300000,20.500000,40.200000,20.100000,39.700000,19.100000L41.700000,17.700000C41.800000,18.200000,42.400000,18.600000,43.200000,18.600000ZM37.100000,9.500000C39.800000,9.500000,41.700000,11.200000,40.300000,14.800000C38.800000,18.400000,35.100000,20.100000,32.600000,20.100000L28.700000,20.100000L33,9.600000L37.100000,9.600000L37.100000,9.500000ZM31.100000,9.500000L30.400000,11.200000L27.200000,11.200000L23.600000,20L21.700000,20L25.300000,11.200000L22.100000,11.200000L22.800000,9.500000L31.100000,9.500000Z" fill="rgb(189,197,208)" stroke="none" stroke-width="1"/><polygon id="e4qvrogxt6a627" points="71.200000,6.100000 61.500000,4.600000 69.300000,6.300000 66,9.400000" fill="rgb(189,197,208)" stroke="none" stroke-width="1"/></g></g><g id="e4qvrogxt6a628_ts" transform="translate(65,15) scale(1,0)"><g id="e4qvrogxt6a628" transform="translate(-65,-15)"><path id="e4qvrogxt6a629" d="M16.200000,10.900000C16.200000,10.900000,16.200000,10.900000,16.200000,10.900000C16.200000,10.800000,16.200000,10.800000,16.200000,10.900000L16.200000,10.900000Z" fill="rgb(189,197,208)" stroke="none" stroke-width="1"/><polygon id="e4qvrogxt6a630" points="18.300000,17.400000 18.300000,17.400000 18.300000,17.400000" fill="rgb(189,197,208)" stroke="none" stroke-width="1"/><path id="e4qvrogxt6a631" d="M20.900000,9.200000C18.900000,9.200000,17.400000,9.900000,16.300000,10.900000C16.300000,10.900000,16.300000,10.900000,16.300000,10.900000C17.300000,11.800000,18,12.900000,18.300000,14.300000C18.800000,13.300000,19.800000,12.600000,20.900000,12.600000C22.500000,12.600000,23.900000,13.900000,23.900000,15.800000C23.900000,17.700000,22.600000,19,20.900000,19C19.800000,19,18.800000,18.400000,18.300000,17.400000C18,18.700000,17.300000,19.900000,16.300000,20.800000C17.400000,21.900000,19,22.600000,21,22.600000C25.600000,22.600000,27.700000,19,27.700000,15.900000C27.700000,12.800000,25.500000,9.200000,20.900000,9.200000Z" fill="rgb(189,197,208)" stroke="none" stroke-width="1"/><path id="e4qvrogxt6a632" d="M18.200000,14.400000L14.500000,14.400000C14.100000,13.500000,13.300000,12.700000,11.800000,12.700000C10,12.600000,8.800000,14.100000,8.800000,15.900000C8.800000,17.700000,10,19.100000,11.800000,19.100000C13.300000,19.100000,14.100000,18.200000,14.500000,17.400000L18.300000,17.400000C18.100000,16.900000,17.900000,16.400000,17.900000,15.800000C17.900000,15.300000,18,14.800000,18.200000,14.400000Z" fill="rgb(189,197,208)" stroke="none" stroke-width="1"/><path id="e4qvrogxt6a633" d="M0.500000,11.600000L0.500000,27.500000L9.800000,22.100000C7,21.300000,5.100000,18.800000,5.100000,15.700000C5.100000,12.100000,7.900000,9.100000,11.700000,9.100000C13.500000,9.100000,15,9.800000,16.200000,10.800000L16.200000,2.500000L0.500000,11.600000Z" fill="rgb(189,197,208)" stroke="none" stroke-width="1"/><path id="e4qvrogxt6a634" d="M18.300000,14.300000C18.300000,14.300000,18.300000,14.400000,18.200000,14.400000L18.300000,14.400000C18.300000,14.400000,18.300000,14.300000,18.300000,14.300000Z" fill="rgb(189,197,208)" stroke="none" stroke-width="1"/><path id="e4qvrogxt6a635" d="M32.400000,10.900000L32.400000,9.600000L28.900000,9.600000L28.900000,22.100000L32.600000,22.100000L32.600000,15.200000C32.600000,13.300000,33.800000,12.900000,35.600000,12.900000L35.600000,9.200000C33.300000,9.200000,32.700000,10.300000,32.400000,10.900000Z" fill="rgb(189,197,208)" stroke="none" stroke-width="1"/><path id="e4qvrogxt6a636" d="M95.700000,9.200000C91.100000,9.200000,88.900000,12.800000,88.900000,15.900000C88.900000,19,91.100000,22.600000,95.700000,22.600000C100.300000,22.600000,102.500000,19,102.500000,15.900000C102.500000,12.800000,100.200000,9.200000,95.700000,9.200000ZM95.700000,19C94.100000,19,92.700000,17.700000,92.700000,15.800000C92.700000,14,94.100000,12.600000,95.700000,12.600000C97.300000,12.600000,98.700000,13.900000,98.700000,15.800000C98.700000,17.700000,97.300000,19,95.700000,19Z" fill="rgb(189,197,208)" stroke="none" stroke-width="1"/><path id="e4qvrogxt6a637" d="M113.700000,10.200000C113,9.600000,111.700000,9.100000,110.500000,9.100000C108.300000,9.100000,107.500000,10.300000,107.100000,10.900000L107.100000,9.600000L103.600000,9.600000L103.600000,22.100000L107.400000,22.100000L107.400000,15.300000C107.400000,14.500000,107.400000,12.700000,109.500000,12.700000C111.500000,12.700000,111.500000,14.400000,111.500000,15.300000L111.500000,22.100000L115.300000,22.100000L115.300000,14.300000C115.200000,11.800000,114.400000,10.800000,113.700000,10.200000Z" fill="rgb(189,197,208)" stroke="none" stroke-width="1"/><polygon id="e4qvrogxt6a638" points="88.900000,9.600000 87.100000,9.600000 87.100000,6.400000 83.400000,8.600000 83.400000,9.700000 81.500000,9.700000 81.500000,12.500000 83.400000,12.500000 83.400000,22.200000 87.100000,22.200000 87.100000,12.500000 88.900000,12.500000" fill="rgb(189,197,208)" stroke="none" stroke-width="1"/><path id="e4qvrogxt6a639" d="M129.500000,16C129.500000,12.200000,126.700000,9.200000,122.900000,9.200000C119.100000,9.200000,116.300000,12.400000,116.300000,15.900000C116.300000,19.600000,119.300000,22.500000,122.900000,22.500000C124.200000,22.500000,125.400000,22.100000,126.500000,21.400000C127.600000,20.700000,128.400000,19.600000,129,18.200000L125.200000,18.200000C124.700000,18.900000,124.100000,19.400000,122.900000,19.400000C121.400000,19.400000,120.200000,18.500000,120,17L129.400000,17C129.500000,16.700000,129.500000,16.500000,129.500000,16ZM120.100000,14.500000C120.300000,13.800000,121,12.400000,122.900000,12.400000C124.800000,12.400000,125.600000,13.800000,125.700000,14.500000L120.100000,14.500000Z" fill="rgb(189,197,208)" stroke="none" stroke-width="1"/><path id="e4qvrogxt6a640" d="M56,9.200000C52.200000,9.200000,49.400000,12.400000,49.400000,15.900000C49.400000,19.600000,52.400000,22.500000,56,22.500000C57.300000,22.500000,58.500000,22.100000,59.600000,21.400000C60.700000,20.700000,61.500000,19.600000,62.100000,18.200000L58.300000,18.200000C57.800000,18.900000,57.200000,19.400000,56,19.400000C54.500000,19.400000,53.300000,18.500000,53.100000,17L62.500000,17C62.500000,16.700000,62.600000,16.500000,62.600000,16C62.600000,12.200000,59.800000,9.200000,56,9.200000ZM53.100000,14.500000C53.300000,13.800000,54,12.400000,55.900000,12.400000C57.800000,12.400000,58.600000,13.800000,58.700000,14.500000L53.100000,14.500000Z" fill="rgb(189,197,208)" stroke="none" stroke-width="1"/><path id="e4qvrogxt6a641" d="M46.800000,10.300000C46.100000,9.700000,44.800000,9.200000,43.600000,9.200000C41.400000,9.200000,40.600000,10.400000,40.200000,11L40.200000,9.600000L36.700000,9.600000L36.700000,22.100000L40.400000,22.100000L40.400000,15.300000C40.400000,14.500000,40.400000,12.700000,42.500000,12.700000C44.500000,12.700000,44.500000,14.400000,44.500000,15.300000L44.500000,22.100000L48.200000,22.100000L48.200000,14.300000C48.200000,11.800000,47.500000,10.800000,46.800000,10.300000Z" fill="rgb(189,197,208)" stroke="none" stroke-width="1"/><path id="e4qvrogxt6a642" d="M76.600000,14.300000C75.600000,14,74.700000,13.600000,74.700000,12.900000C74.700000,12.600000,75,12.100000,75.800000,12.100000C76.900000,12.100000,76.900000,12.800000,77,13L80.700000,13C80.400000,9.700000,77.500000,9.100000,75.900000,9.100000C73.300000,9.100000,71.100000,10.700000,71.100000,13.200000C71.100000,14.900000,72.500000,15.900000,74.100000,16.500000C76.500000,17.400000,77.400000,17.500000,77.400000,18.500000C77.400000,19.100000,76.700000,19.500000,76.100000,19.500000C75.900000,19.500000,74.800000,19.500000,74.700000,18.400000L71,18.400000C71.300000,21.700000,74.200000,22.500000,76.100000,22.500000C78.900000,22.500000,81.200000,20.900000,81.200000,18.200000C81,15.600000,78.700000,14.900000,76.600000,14.300000Z" fill="rgb(189,197,208)" stroke="none" stroke-width="1"/><path id="e4qvrogxt6a643" d="M67.300000,10.900000L67.300000,9.600000L63.800000,9.600000L63.800000,22.100000L67.500000,22.100000L67.500000,15.200000C67.500000,13.300000,68.700000,12.900000,70.500000,12.900000L70.500000,9.200000C68.200000,9.200000,67.600000,10.300000,67.300000,10.900000Z" fill="rgb(189,197,208)" stroke="none" stroke-width="1"/></g></g></svg>