<svg id="emvy2rsc62mk1" xmlns="http://www.w3.org/2000/svg" xmlns:xlink="http://www.w3.org/1999/xlink" viewBox="0 0 130 30" shape-rendering="geometricPrecision" text-rendering="geometricPrecision" width="130" height="30"><style><![CDATA[#emvy2rsc62mk2_ts {animation: emvy2rsc62mk2_ts__ts 20000ms linear infinite normal forwards}@keyframes emvy2rsc62mk2_ts__ts { 0% {transform: translate(65.010205px,15px) scale(1,0)} 76% {transform: translate(65.010205px,15px) scale(1,0)} 77% {transform: translate(65.010205px,15px) scale(1,1)} 98% {transform: translate(65.010205px,15px) scale(1,1)} 99% {transform: translate(65.010205px,15px) scale(1,0)} 100% {transform: translate(65.010205px,15px) scale(1,0)} }#emvy2rsc62mk16_ts {animation: emvy2rsc62mk16_ts__ts 20000ms linear infinite normal forwards}@keyframes emvy2rsc62mk16_ts__ts { 0% {transform: translate(64.952702px,15px) scale(1,0)} 51% {transform: translate(64.952702px,15px) scale(1,0)} 52% {transform: translate(64.952702px,15px) scale(1,1)} 73% {transform: translate(64.952702px,15px) scale(1,1)} 74% {transform: translate(64.952702px,15px) scale(1,0)} 100% {transform: translate(64.952702px,15px) scale(1,0)} }#emvy2rsc62mk28_ts {animation: emvy2rsc62mk28_ts__ts 20000ms linear infinite normal forwards}@keyframes emvy2rsc62mk28_ts__ts { 0% {transform: translate(65px,14.989019px) scale(1,0)} 26% {transform: translate(65px,14.989019px) scale(1,0)} 27% {transform: translate(65px,14.989019px) scale(1,1)} 48% {transform: translate(65px,14.989019px) scale(1,1)} 49% {transform: translate(65px,14.989019px) scale(1,0)} 100% {transform: translate(65px,14.989019px) scale(1,0)} }#emvy2rsc62mk37_ts {animation: emvy2rsc62mk37_ts__ts 20000ms linear infinite normal forwards}@keyframes emvy2rsc62mk37_ts__ts { 0% {transform: translate(64.949997px,15px) scale(1,0)} 1% {transform: translate(64.949997px,15px) scale(1,0)} 2% {transform: translate(64.949997px,15px) scale(1,1)} 23% {transform: translate(64.949997px,15px) scale(1,1)} 24% {transform: translate(64.949997px,15px) scale(1,0)} 100% {transform: translate(64.949997px,15px) scale(1,0)} }]]></style><g id="emvy2rsc62mk2_ts" transform="translate(65.010205,15) scale(1,0)"><g id="emvy2rsc62mk2" transform="translate(-65.010205,-15)"><polygon id="emvy2rsc62mk3" points="2.200000,22.700000 9.500000,24.400000 0.300000,23 7.400000,18.400000" clip-rule="evenodd" fill="rgb(189,197,208)" fill-rule="evenodd" stroke="none" stroke-width="1"/><path id="emvy2rsc62mk4" d="M32.600000,18.300000C34.900000,18.300000,37.200000,17.300000,38.300000,14.700000C39.300000,12.100000,38.100000,11.100000,35.800000,11.100000L34.100000,11.100000L31.200000,18.200000L32.600000,18.200000Z" fill="rgb(189,197,208)" stroke="none" stroke-width="1"/><polygon id="emvy2rsc62mk5" points="71.200000,6.100000 61.500000,4.600000 69.300000,6.300000 66,9.400000" fill="rgb(189,197,208)" stroke="none" stroke-width="1"/><path id="emvy2rsc62mk6" d="M59.700000,6.200000L49.700000,2.800000L35.400000,0.600000L14.300000,14L8.700000,21.200000L43.800000,21.200000L12,23.100000L21.200000,26.200000L36.200000,28.500000L59.200000,13.900000L63.200000,8L28.100000,8L59.700000,6.200000ZM43.200000,18.600000C44.100000,18.600000,45.200000,18.100000,45.600000,17.200000C46.500000,14.900000,41,16.200000,42.600000,12.500000C43.500000,10.300000,45.800000,9.300000,47.800000,9.300000C48.900000,9.300000,49.900000,9.600000,50.400000,10.400000L48.500000,11.800000C48.300000,11.200000,47.700000,11,47,11C46.100000,11,45.100000,11.400000,44.700000,12.400000C43.800000,14.500000,49.300000,13.300000,47.800000,17.100000C46.900000,19.400000,44.700000,20.500000,42.600000,20.500000C41.300000,20.500000,40.200000,20.100000,39.700000,19.100000L41.700000,17.700000C41.800000,18.200000,42.400000,18.600000,43.200000,18.600000ZM37.100000,9.500000C39.800000,9.500000,41.700000,11.200000,40.300000,14.800000C38.800000,18.400000,35.100000,20.100000,32.600000,20.100000L28.700000,20.100000L33,9.600000L37.100000,9.600000ZM31.100000,9.500000L30.400000,11.200000L27.200000,11.200000L23.600000,20L21.700000,20L25.300000,11.200000L22.100000,11.200000L22.800000,9.500000L31.100000,9.500000Z" fill="rgb(189,197,208)" stroke="none" stroke-width="1"/><path id="emvy2rsc62mk7" d="M59.100000,13.800000L54.700000,19.800000L66,9.400000L59.100000,13.800000ZM42.900000,0.500000L49.700000,2.800000L61.500000,4.600000L42.900000,0.500000ZM21.100000,26.100000L9.500000,24.400000L28.800000,28.800000L21.100000,26.100000ZM7.400000,18.400000L14.300000,14L17.600000,9.800000L7.400000,18.400000Z" clip-rule="evenodd" fill="rgb(189,197,208)" fill-rule="evenodd" stroke="none" stroke-width="1"/><path id="emvy2rsc62mk8" d="M31.400000,28L31,29.100000L30.500000,28L30.200000,28L30.200000,29.500000L30.400000,29.500000L30.400000,28.300000L30.900000,29.500000L31,29.500000L31.500000,28.300000L31.500000,28.300000L31.500000,29.500000L31.700000,29.500000L31.700000,28L31.400000,28ZM28.800000,28L28.800000,28.200000L29.300000,28.200000L29.300000,29.500000L29.500000,29.500000L29.500000,28.200000L30,28.200000L30,28L28.800000,28Z" clip-rule="evenodd" fill="rgb(189,197,208)" fill-rule="evenodd" stroke="none" stroke-width="1"/><path id="emvy2rsc62mk9" d="M74.300000,18.100000C70.700000,18.100000,69.300000,20.600000,68,23.600000C66.100000,28.100000,67.600000,28.800000,69.800000,28.800000C72,28.800000,73.800000,27.700000,74.800000,25.500000L73,25.500000C72.500000,26.500000,71.500000,27.400000,70.400000,27.400000C69.100000,27.400000,68.500000,26.800000,69.700000,24L75.600000,24L76,23.100000C77.300000,19.700000,77.200000,18.100000,74.300000,18.100000ZM74.200000,22.700000L70.100000,22.700000C71.300000,19.900000,72.400000,19.400000,73.500000,19.400000C74.800000,19.400000,75.500000,19.700000,74.200000,22.700000Z" fill="rgb(189,197,208)" stroke="none" stroke-width="1"/><polygon id="emvy2rsc62mk10" points="83.300000,13.900000 77.100000,28.500000 78.800000,28.500000 85,13.900000" fill="rgb(189,197,208)" stroke="none" stroke-width="1"/><path id="emvy2rsc62mk11" d="M65,18.300000L66.100000,15.600000L64.100000,16.300000L63.300000,18.300000L61.600000,18.300000L61.100000,19.600000L62.800000,19.600000L59.700000,26.900000C59.200000,28.100000,59.700000,28.700000,61.300000,28.700000C61.800000,28.700000,62.500000,28.600000,63,28.500000L63.500000,27.200000C63.100000,27.200000,62.800000,27.300000,62.700000,27.300000C61.200000,27.300000,61.500000,26.500000,61.800000,25.800000L64.400000,19.500000L66.700000,19.500000L67.200000,18.200000L65,18.200000Z" fill="rgb(189,197,208)" stroke="none" stroke-width="1"/><path id="emvy2rsc62mk12" d="M111.500000,18.100000C107.900000,18.100000,106.500000,20.600000,105.300000,23.600000C103.400000,28.100000,104.900000,28.800000,107.100000,28.800000C109.300000,28.800000,111.300000,28.100000,113.200000,23.600000C114.400000,20.600000,115.100000,18.100000,111.500000,18.100000ZM111.700000,22.900000C110.300000,26.200000,109.400000,27.400000,107.600000,27.400000C105.800000,27.400000,105.900000,26.200000,107.300000,22.900000C108.500000,20.100000,109.600000,19.500000,110.900000,19.500000C112.200000,19.400000,112.900000,20.100000,111.700000,22.900000Z" fill="rgb(189,197,208)" stroke="none" stroke-width="1"/><path id="emvy2rsc62mk13" d="M129.500000,18.700000C129.100000,18.200000,128.300000,18.100000,127.700000,18.100000C126.800000,18.100000,125.700000,18.300000,124.700000,19.400000C124.700000,18.500000,123.800000,18.100000,122.800000,18.100000C121.600000,18.100000,120.500000,18.500000,119.600000,19.600000L119.600000,19.600000L120.100000,18.300000L118.300000,18.300000C118.100000,19,117.800000,19.700000,117.500000,20.400000L114.100000,28.500000L115.800000,28.500000L118.700000,21.600000C118.900000,21.100000,119.300000,20.500000,119.700000,20.100000C120.100000,19.700000,120.900000,19.400000,121.500000,19.400000C122.900000,19.400000,122.700000,20.400000,122.300000,21.400000L119.300000,28.500000L119.300000,28.500000L121,28.500000L123.900000,21.600000C124.100000,21.200000,124.600000,20.200000,125.200000,19.800000C125.800000,19.400000,126,19.400000,126.600000,19.400000C128,19.400000,127.800000,20.400000,127.400000,21.400000L124.400000,28.500000L126.100000,28.500000L129.400000,20.700000C129.400000,20.600000,129.700000,20.100000,129.700000,19.500000C129.800000,19.100000,129.500000,18.700000,129.500000,18.700000Z" fill="rgb(189,197,208)" stroke="none" stroke-width="1"/><path id="emvy2rsc62mk14" d="M101.500000,18.100000C97.900000,18.100000,96.500000,20.600000,95.200000,23.600000C93.300000,28.100000,94.800000,28.800000,97,28.800000C98.200000,28.800000,100.700000,28.100000,101.800000,25.200000L100,25.200000C99.300000,27,97.900000,27.500000,97.500000,27.500000C95.700000,27.500000,95.800000,26.300000,97.200000,23C98.400000,20.200000,99.500000,19.600000,100.800000,19.600000C101.400000,19.600000,102.100000,20.100000,101.300000,21.700000L103.100000,21.700000C104.300000,19.300000,103.500000,18.100000,101.500000,18.100000Z" fill="rgb(189,197,208)" stroke="none" stroke-width="1"/><path id="emvy2rsc62mk15" d="M90.600000,18.100000C87,18.100000,85.600000,20.600000,84.300000,23.600000C82.400000,28.100000,83.900000,28.800000,86.100000,28.800000C88.300000,28.800000,90.100000,27.700000,91.100000,25.500000L89.300000,25.500000C88.800000,26.500000,87.800000,27.400000,86.700000,27.400000C85.400000,27.400000,84.800000,26.800000,86,24L91.900000,24L92.300000,23.100000C93.600000,19.700000,93.500000,18.100000,90.600000,18.100000ZM90.500000,22.700000L86.500000,22.700000C87.700000,19.900000,88.800000,19.400000,89.900000,19.400000C91.100000,19.400000,91.800000,19.700000,90.500000,22.700000Z" fill="rgb(189,197,208)" stroke="none" stroke-width="1"/></g></g><g id="emvy2rsc62mk16_ts" transform="translate(64.952702,15) scale(1,0)"><g id="emvy2rsc62mk16" transform="translate(-64.952702,-15)"><path id="emvy2rsc62mk17" d="M104.900000,11.700000L95.400000,11.700000L93.300000,11.800000C93.200000,12.100000,93.100000,12.300000,92.900000,12.600000L94.900000,12.500000L104.200000,12.500000C105.600000,12.500000,106.700000,13.600000,106.700000,15L106.700000,26.300000C106.700000,27.700000,105.600000,28.800000,104.200000,28.800000L36.300000,28.800000C34.900000,28.800000,33.800000,27.700000,33.800000,26.300000L33.800000,15.800000C33.400000,15.600000,33.100000,15.300000,32.700000,15L32.700000,26.500000C32.700000,28.200000,34,29.500000,35.600000,29.500000L104.800000,29.500000C106.400000,29.500000,107.700000,28.100000,107.700000,26.500000L107.700000,14.700000C107.800000,13,106.500000,11.700000,104.900000,11.700000Z" fill="rgb(189,197,208)" stroke="none" stroke-width="1"/><path id="emvy2rsc62mk18" d="M66.300000,5.400000C64.800000,5.400000,64.400000,5.600000,64.300000,7.100000L64.300000,9.500000C64.300000,11.100000,64.800000,11.300000,66.300000,11.300000C67.800000,11.300000,68.300000,11.100000,68.300000,9.500000L68.300000,7.200000C68.300000,5.600000,67.700000,5.400000,66.300000,5.400000ZM66.300000,5.400000C64.800000,5.400000,64.400000,5.600000,64.300000,7.100000L64.300000,9.500000C64.300000,11.100000,64.800000,11.300000,66.300000,11.300000C67.800000,11.300000,68.300000,11.100000,68.300000,9.500000L68.300000,7.200000C68.300000,5.600000,67.700000,5.400000,66.300000,5.400000ZM93.300000,0.500000L24.700000,0.500000C23.300000,0.500000,22.200000,1.600000,22.200000,3L22.200000,13.900000C22.200000,15.300000,23.300000,16.400000,24.700000,16.400000L93.300000,16.400000C94.700000,16.400000,95.800000,15.300000,95.800000,13.900000L95.800000,3C95.800000,1.600000,94.700000,0.500000,93.300000,0.500000ZM33.700000,13.700000L26.500000,13.700000L26.500000,3L29.300000,3L29.300000,11.200000L33.700000,11.200000L33.700000,13.700000ZM37.600000,13.700000L34.800000,13.700000L34.800000,3L37.600000,3L37.600000,13.700000ZM49.800000,13.700000L45,13.700000L42,5.500000L41.900000,5.500000L42.100000,13.700000L39.300000,13.700000L39.300000,3L44,3L47,11.200000L47.100000,11.200000L47,3L49.800000,3L49.800000,13.700000ZM60.500000,10C60.500000,11.200000,60.500000,12.200000,59.500000,13C58.500000,13.800000,57.400000,13.800000,56.200000,13.800000C53.300000,13.800000,51.200000,13.700000,51.200000,9.700000L51.200000,7C51.200000,3.500000,53.100000,2.900000,56.200000,2.900000C59.100000,2.900000,60.500000,3.200000,60.500000,6.400000L60.500000,6.800000L57.600000,6.800000L57.600000,6.500000C57.500000,5.500000,56.800000,5.500000,55.900000,5.500000C54.300000,5.500000,54.100000,6,54.100000,7.500000L54.100000,9.200000C54.100000,10.800000,54.200000,11.400000,55.900000,11.400000C57.100000,11.400000,57.600000,11.300000,57.600000,10.100000L57.600000,9.700000L60.500000,9.700000L60.500000,10ZM71.100000,9.900000C71.100000,13.200000,69.100000,13.800000,66.200000,13.800000C63.300000,13.800000,61.300000,13.200000,61.300000,9.900000L61.300000,6.900000C61.300000,3.600000,63.300000,3,66.200000,3C69.100000,3,71.100000,3.600000,71.100000,6.900000L71.100000,9.900000ZM79.600000,13.700000L72.400000,13.700000L72.400000,3L75.200000,3L75.200000,11.200000L79.600000,11.200000L79.600000,13.700000ZM91.200000,13.700000L86.400000,13.700000L83.400000,5.500000L83.300000,5.500000L83.500000,13.700000L80.700000,13.700000L80.700000,3L85.500000,3L88.500000,11.200000L88.600000,11.200000L88.400000,3L91.200000,3L91.200000,13.700000ZM66.300000,5.400000C64.800000,5.400000,64.400000,5.600000,64.300000,7.100000L64.300000,9.500000C64.300000,11.100000,64.800000,11.300000,66.300000,11.300000C67.800000,11.300000,68.300000,11.100000,68.300000,9.500000L68.300000,7.200000C68.300000,5.600000,67.700000,5.400000,66.300000,5.400000ZM66.300000,5.400000C64.800000,5.400000,64.400000,5.600000,64.300000,7.100000L64.300000,9.500000C64.300000,11.100000,64.800000,11.300000,66.300000,11.300000C67.800000,11.300000,68.300000,11.100000,68.300000,9.500000L68.300000,7.200000C68.300000,5.600000,67.700000,5.400000,66.300000,5.400000ZM66.300000,5.400000C64.800000,5.400000,64.400000,5.600000,64.300000,7.100000L64.300000,9.500000C64.300000,11.100000,64.800000,11.300000,66.300000,11.300000C67.800000,11.300000,68.300000,11.100000,68.300000,9.500000L68.300000,7.200000C68.300000,5.600000,67.700000,5.400000,66.300000,5.400000Z" clip-rule="evenodd" fill="rgb(189,197,208)" fill-rule="evenodd" stroke="none" stroke-width="1"/><path id="emvy2rsc62mk19" d="M99.500000,9L98.900000,9L98.900000,6L100,6C100.800000,6,101.200000,6.200000,101.200000,6.900000C101.200000,7.500000,100.900000,7.700000,100.500000,7.700000L101.300000,9L100.500000,9L99.800000,7.700000L99.500000,7.700000L99.500000,9L99.500000,9ZM100.100000,7.200000C100.400000,7.200000,100.600000,7.100000,100.600000,6.800000C100.600000,6.500000,100.300000,6.500000,100,6.500000L99.600000,6.500000L99.600000,7.200000L100.100000,7.200000L100.100000,7.200000ZM100,10.300000C98.500000,10.300000,97.200000,9.300000,97.200000,7.500000C97.200000,5.700000,98.500000,4.700000,100,4.700000C101.500000,4.700000,102.800000,5.700000,102.800000,7.500000C102.800000,9.200000,101.500000,10.300000,100,10.300000L100,10.300000ZM100,5.300000C98.900000,5.300000,98,6.200000,98,7.500000C98,8.800000,98.900000,9.700000,100,9.700000L100,9.700000C101.100000,9.700000,102,8.800000,102,7.500000C102,6.200000,101.100000,5.300000,100,5.300000L100,5.300000Z" clip-rule="evenodd" fill="rgb(189,197,208)" fill-rule="evenodd" stroke="none" stroke-width="1"/><polygon id="emvy2rsc62mk20" points="46.400000,21.900000 49.700000,21.900000 49.700000,23.400000 46.400000,23.400000 46.400000,24.900000 50,24.900000 50,26.600000 44.300000,26.600000 44.300000,18.700000 49.900000,18.700000 49.900000,20.500000 46.400000,20.500000 46.400000,21.900000" clip-rule="evenodd" fill="rgb(189,197,208)" fill-rule="evenodd" stroke="none" stroke-width="1"/><polygon id="emvy2rsc62mk21" points="53.400000,24.800000 56.600000,24.800000 56.600000,26.600000 51.300000,26.600000 51.300000,18.700000 53.400000,18.700000 53.400000,24.800000" clip-rule="evenodd" fill="rgb(189,197,208)" fill-rule="evenodd" stroke="none" stroke-width="1"/><polygon id="emvy2rsc62mk22" points="59.500000,21.900000 62.800000,21.900000 62.800000,23.400000 59.500000,23.400000 59.500000,24.900000 63.100000,24.900000 63.100000,26.600000 57.400000,26.600000 57.400000,18.700000 63,18.700000 63,20.500000 59.500000,20.500000 59.500000,21.900000" clip-rule="evenodd" fill="rgb(189,197,208)" fill-rule="evenodd" stroke="none" stroke-width="1"/><path id="emvy2rsc62mk23" d="M71,23.600000L71,23.800000C71,24.700000,71,25.400000,70.300000,26C69.600000,26.600000,68.700000,26.600000,67.800000,26.600000C65.700000,26.600000,64.100000,26.500000,64.100000,23.600000L64.100000,21.600000C64.100000,19,65.500000,18.600000,67.800000,18.600000C69.900000,18.600000,70.900000,18.800000,71,21.200000L71,21.500000L68.900000,21.500000L68.900000,21.200000C68.800000,20.500000,68.300000,20.400000,67.600000,20.400000C66.400000,20.400000,66.300000,20.800000,66.300000,21.900000L66.300000,23.100000C66.300000,24.300000,66.400000,24.700000,67.600000,24.700000C68.500000,24.700000,68.900000,24.600000,68.900000,23.700000L68.900000,23.500000L71,23.500000L71,23.600000Z" clip-rule="evenodd" fill="rgb(189,197,208)" fill-rule="evenodd" stroke="none" stroke-width="1"/><polygon id="emvy2rsc62mk24" points="75.400000,26.600000 73.300000,26.600000 73.300000,20.600000 71.300000,20.600000 71.300000,18.700000 77.500000,18.700000 77.500000,20.600000 75.400000,20.600000 75.400000,26.600000" clip-rule="evenodd" fill="rgb(189,197,208)" fill-rule="evenodd" stroke="none" stroke-width="1"/><path id="emvy2rsc62mk25" d="M78.100000,18.700000L82.100000,18.700000C83.900000,18.700000,84.800000,19.100000,84.800000,21.100000C84.800000,22.400000,84.800000,23.200000,83.300000,23.500000L83.300000,23.600000C84.100000,23.600000,84.700000,24.100000,84.700000,25L84.700000,26.600000L82.600000,26.600000L82.600000,25.500000C82.600000,24.900000,82.400000,24.500000,81.800000,24.500000L80.200000,24.500000L80.200000,26.600000L78.100000,26.600000L78.100000,18.700000L78.100000,18.700000ZM81.700000,22.700000C82.600000,22.700000,82.600000,22.400000,82.600000,21.500000C82.600000,20.800000,82.400000,20.600000,81.700000,20.600000L80.100000,20.600000L80.100000,22.700000L81.700000,22.700000L81.700000,22.700000Z" clip-rule="evenodd" fill="rgb(189,197,208)" fill-rule="evenodd" stroke="none" stroke-width="1"/><polygon id="emvy2rsc62mk26" points="87.900000,26.600000 85.800000,26.600000 85.800000,18.700000 87.900000,18.700000 87.900000,26.600000" clip-rule="evenodd" fill="rgb(189,197,208)" fill-rule="evenodd" stroke="none" stroke-width="1"/><path id="emvy2rsc62mk27" d="M95.700000,23.600000L95.700000,23.800000C95.700000,24.700000,95.700000,25.400000,95,26C94.300000,26.600000,93.400000,26.600000,92.500000,26.600000C90.400000,26.600000,88.800000,26.500000,88.800000,23.600000L88.800000,21.600000C88.800000,19,90.200000,18.600000,92.500000,18.600000C94.600000,18.600000,95.600000,18.800000,95.700000,21.200000L95.700000,21.500000L93.600000,21.500000L93.600000,21.200000C93.500000,20.500000,93,20.400000,92.300000,20.400000C91.100000,20.400000,91,20.800000,91,21.900000L91,23.100000C91,24.300000,91.100000,24.700000,92.300000,24.700000C93.200000,24.700000,93.600000,24.600000,93.600000,23.700000L93.600000,23.500000L95.700000,23.500000L95.700000,23.600000Z" clip-rule="evenodd" fill="rgb(189,197,208)" fill-rule="evenodd" stroke="none" stroke-width="1"/></g></g><g id="emvy2rsc62mk28_ts" transform="translate(65,14.989019) scale(1,0)"><g id="emvy2rsc62mk28" transform="translate(-65,-14.989019)"><path id="emvy2rsc62mk29" d="M29.200000,8.100000C27.700000,7.500000,25.800000,7.600000,25.800000,7.600000C25.700000,7.600000,25.200000,7.600000,24.300000,7.700000C23.300000,7.800000,21.200000,8.200000,19.600000,10.500000C18,12.800000,18.200000,15.500000,18.600000,17C19,18.500000,19.900000,19.700000,21.200000,20.700000C22.500000,21.700000,24.500000,22.100000,26,22.100000C27.500000,22.100000,29.100000,21.800000,30.100000,21.300000C31.100000,20.800000,32.600000,19.700000,33.300000,17.600000C34,15.500000,33.900000,12.900000,32.900000,11.100000C31.800000,9.300000,30.700000,8.700000,29.200000,8.100000ZM27.900000,17.600000C27.900000,18,27.700000,19.600000,26.800000,20.300000C26.500000,20.500000,26.200000,20.600000,25.800000,20.600000C25.400000,20.500000,25,20.300000,24.700000,19.800000C24.200000,19,24,18.300000,24,15.800000C24,15.300000,24,14.700000,24,14.300000C24,12.700000,24,11.500000,24.300000,10.800000C24.700000,9.900000,25.100000,9.500000,25.600000,9.400000C25.700000,9.400000,25.800000,9.400000,25.900000,9.400000C26.700000,9.400000,27.200000,10.200000,27.500000,10.900000C27.600000,11.200000,27.800000,12,27.800000,13.100000C28,14.900000,28,17,27.900000,17.600000Z" fill="rgb(189,197,208)" stroke="none" stroke-width="1"/><polygon id="emvy2rsc62mk30" points="10.800000,10.800000 6.300000,10.800000 6.300000,3 0.500000,3 0.500000,21.700000 6.300000,21.700000 6.300000,13.200000 10.800000,13.200000 10.800000,21.700000 16.600000,21.700000 16.600000,3 10.800000,3" fill="rgb(189,197,208)" stroke="none" stroke-width="1"/><path id="emvy2rsc62mk31" d="M47.500000,8.100000C45.600000,7.300000,43.700000,7.800000,42.600000,8.300000C41.500000,8.800000,40.800000,9.900000,40.800000,9.900000L40.800000,8L35.400000,8L35.400000,21.700000L40.800000,21.700000L40.800000,11.900000C40.800000,11.700000,41.400000,11,42.200000,10.600000C43,10.200000,43.800000,10.400000,44.100000,10.800000C44.500000,11.300000,44.500000,11.900000,44.500000,12.200000L44.500000,21.700000L49.800000,21.700000L49.800000,11.200000C49.800000,10.600000,49.400000,8.900000,47.500000,8.100000Z" fill="rgb(189,197,208)" stroke="none" stroke-width="1"/><path id="emvy2rsc62mk32" d="M98.400000,8.100000L98.400000,8.100000L96.300000,15.700000L94,8L89.300000,8L87.200000,15.700000L84.900000,8L77.500000,8L74.800000,14.500000L72.300000,8L66.400000,8L71.800000,22C71.800000,22,71.800000,22.100000,71.700000,22.500000C71.600000,22.900000,71.200000,23.900000,70.500000,24.600000C69.800000,25.300000,69.100000,25.100000,69.100000,25.100000C69.100000,25.100000,69.400000,24.900000,69.500000,24.500000C69.600000,24.100000,69.600000,23.400000,69.300000,22.800000C69,22.200000,68.200000,21.700000,66.900000,21.900000C65.600000,22.100000,65,23.300000,65.200000,24.500000C65.300000,25.600000,66,26.600000,67.900000,26.900000C69.700000,27.200000,70.900000,26.600000,71.800000,25.700000C72.800000,24.800000,73.600000,22.500000,73.600000,22.500000L79.300000,8.600000L83.300000,21.800000L87.900000,21.800000L90.100000,13.900000L92.600000,21.800000L97,21.800000L100.700000,8.100000L98.400000,8.100000Z" fill="rgb(189,197,208)" stroke="none" stroke-width="1"/><path id="emvy2rsc62mk33" d="M108.500000,7.600000C105.100000,7.400000,102.400000,9.100000,101.300000,11.300000C100.200000,13.500000,100.400000,16,100.800000,17.300000C101.100000,18.300000,101.700000,19.500000,103,20.500000C105.200000,22.300000,107.900000,22.300000,109.800000,22.100000C111.700000,21.900000,113.400000,21,114.400000,20C115.300000,19.100000,115.400000,17.700000,115.400000,17.700000L113.100000,17.700000C113.100000,17.700000,113.100000,19.800000,110.200000,20.300000C107.500000,20.700000,106.800000,19.600000,106.600000,19.300000C106.400000,19,106.300000,18.500000,106.300000,18.500000L106.300000,15.700000L115.900000,15.700000C115.900000,15.700000,116.100000,13.100000,115.100000,11.200000C113.800000,9,111.900000,7.700000,108.500000,7.600000ZM110.300000,13.700000L106.300000,13.700000C106.300000,13.300000,106.300000,11.900000,106.400000,11.200000C106.500000,10.400000,107,9.700000,107.400000,9.400000C107.900000,9.100000,108.900000,9.100000,109.400000,9.500000C109.900000,10,110,10.500000,110.100000,10.700000L110.100000,10.700000C110.100000,10.900000,110.300000,11.700000,110.300000,12.500000C110.300000,13.300000,110.300000,13.700000,110.300000,13.700000Z" fill="rgb(189,197,208)" stroke="none" stroke-width="1"/><rect id="emvy2rsc62mk34" width="5.200000" height="18.800000" rx="0" ry="0" transform="matrix(1 0 0 1 117.50000000000000 3)" fill="rgb(189,197,208)" stroke="none" stroke-width="1"/><path id="emvy2rsc62mk35" d="M66.400000,17.800000L64,17.800000C64,17.800000,64,19.900000,61.100000,20.400000C58.400000,20.800000,57.700000,19.700000,57.500000,19.400000C57.300000,19.100000,57.200000,18.600000,57.200000,18.600000L57.200000,15.800000L66.800000,15.800000C66.800000,15.800000,67,13.200000,66,11.300000C64.800000,9,62.900000,7.800000,59.500000,7.700000C56.100000,7.500000,53.400000,9.200000,52.300000,11.400000C51.200000,13.600000,51.400000,16.100000,51.800000,17.400000C52.100000,18.400000,52.700000,19.600000,54,20.600000C56.200000,22.400000,58.900000,22.400000,60.800000,22.200000C62.700000,22,64.400000,21.100000,65.400000,20.100000C66.300000,19.200000,66.400000,17.800000,66.400000,17.800000ZM57.300000,11.200000C57.400000,10.400000,57.900000,9.700000,58.300000,9.400000C58.800000,9.100000,59.800000,9.100000,60.300000,9.500000C60.800000,10,60.900000,10.500000,61,10.700000L61,10.700000C61,10.900000,61.200000,11.700000,61.200000,12.500000C61.200000,13.100000,61.200000,13.500000,61.200000,13.600000L57.200000,13.600000C57.200000,13.400000,57.100000,11.900000,57.300000,11.200000Z" fill="rgb(189,197,208)" stroke="none" stroke-width="1"/><rect id="emvy2rsc62mk36" width="5.200000" height="18.800000" rx="0" ry="0" transform="matrix(1 0 0 1 124.30000000000000 3)" fill="rgb(189,197,208)" stroke="none" stroke-width="1"/></g></g><g id="emvy2rsc62mk37_ts" transform="translate(64.949997,15) scale(1,0)"><g id="emvy2rsc62mk37" transform="translate(-64.949997,-15)"><path id="emvy2rsc62mk38" d="M57.500000,6.400000C56.600000,6.400000,55.900000,6.700000,55.700000,7.100000L48.700000,25.800000L43.500000,17.800000C46.200000,17.300000,47.900000,15.900000,47.900000,13.400000L47.900000,11.700000C47.900000,8.100000,44.600000,6.600000,40.100000,6.600000L33.900000,6.600000L33.900000,24.300000L25.900000,24.300000C22.700000,24.300000,22,23.600000,22,20.300000L22,16.800000L28,16.800000L28.600000,14.600000L22,14.600000L22,8.900000L30.700000,8.900000L31.400000,6.700000L18.400000,6.700000L18.400000,20.500000C18.400000,25.100000,19.500000,26.600000,25.800000,26.600000L37.500000,26.500000L37.500000,8.900000L40.100000,8.900000C42.900000,8.900000,44.300000,9.900000,44.300000,11.800000L44.300000,13.500000C44.300000,15.400000,42.500000,16.100000,40.400000,16.100000L38.800000,16.100000L44.300000,25.500000C44.900000,26.600000,45.200000,26.700000,46.700000,26.700000L49.900000,26.700000C51.400000,26.700000,52,26.600000,52.500000,25.400000L54.100000,20.800000L58.500000,20.800000L57.900000,18.600000L54.900000,18.600000L57.600000,10.900000L62.500000,25.300000C62.900000,26.500000,63.600000,26.600000,65.200000,26.600000L66.900000,26.600000L59.300000,7.100000C59.200000,6.700000,58.400000,6.400000,57.500000,6.400000Z" fill="rgb(189,197,208)" stroke="none" stroke-width="1"/><path id="emvy2rsc62mk39" d="M83.500000,15C83.500000,9.400000,80.600000,6.600000,74.900000,6.600000L68.100000,6.600000L68.100000,24.500000C68.100000,25.800000,68.800000,26.500000,70.400000,26.500000L74.900000,26.500000L75.600000,26.500000C81,26.300000,83.500000,23.900000,83.500000,18.300000L83.500000,15ZM79.900000,18.400000C79.900000,22.400000,78.600000,24.400000,75,24.400000L71.800000,24.400000L71.800000,8.900000L74.900000,8.900000C78.600000,8.900000,79.900000,11.100000,79.900000,15.100000L79.900000,18.400000Z" fill="rgb(189,197,208)" stroke="none" stroke-width="1"/><path id="emvy2rsc62mk40" d="M23.200000,0.100000L1.200000,0.100000L0.500000,2.700000L10.600000,2.700000L10.600000,27.900000C10.600000,29.200000,11.400000,29.900000,12.900000,29.900000L14.200000,29.900000L14.200000,2.700000L22.400000,2.700000L23.200000,0.100000Z" fill="rgb(189,197,208)" stroke="none" stroke-width="1"/><path id="emvy2rsc62mk41" d="M122.100000,7.100000C121.900000,6.700000,121.100000,6.400000,120.300000,6.400000C119.400000,6.400000,118.700000,6.700000,118.500000,7.100000L111.200000,26.600000L112.600000,26.600000C114.100000,26.600000,114.700000,26.500000,115.200000,25.300000L116.800000,20.700000L121.200000,20.700000L120.500000,18.500000L117.400000,18.500000L120.100000,10.800000L125,25.200000C125.400000,26.400000,126.100000,26.500000,127.700000,26.500000L129.400000,26.500000L122.100000,7.100000Z" fill="rgb(189,197,208)" stroke="none" stroke-width="1"/><path id="emvy2rsc62mk42" d="M92.600000,6.400000C91.700000,6.400000,91,6.700000,90.800000,7.100000L83.500000,26.600000L84.900000,26.600000C86.400000,26.600000,87,26.500000,87.500000,25.300000L89.100000,20.700000L93.500000,20.700000L92.900000,18.500000L89.800000,18.500000L92.500000,10.800000L97.400000,25.200000C97.800000,26.400000,98.500000,26.500000,100.100000,26.500000L101.800000,26.500000L94.400000,7.100000C94.200000,6.700000,93.400000,6.400000,92.600000,6.400000Z" fill="rgb(189,197,208)" stroke="none" stroke-width="1"/><path id="emvy2rsc62mk43" d="M115.300000,6.700000L98.700000,6.700000L98,8.900000L104.800000,8.900000L104.800000,24.600000C104.800000,25.900000,105.600000,26.600000,107.100000,26.600000L108.400000,26.600000L108.400000,8.900000L114.500000,8.900000L115.300000,6.700000Z" fill="rgb(189,197,208)" stroke="none" stroke-width="1"/></g></g></svg>