<svg id="ecr9biaz7bsi1" xmlns="http://www.w3.org/2000/svg" xmlns:xlink="http://www.w3.org/1999/xlink" viewBox="0 0 130 30" shape-rendering="geometricPrecision" text-rendering="geometricPrecision" width="130" height="30"><style><![CDATA[#ecr9biaz7bsi2_ts {animation: ecr9biaz7bsi2_ts__ts 20000ms linear infinite normal forwards}@keyframes ecr9biaz7bsi2_ts__ts { 0% {transform: translate(65.022224px,15.026422px) scale(1,0)} 76% {transform: translate(65.022224px,15.026422px) scale(1,0)} 77% {transform: translate(65.022224px,15.026422px) scale(1,1)} 98% {transform: translate(65.022224px,15.026422px) scale(1,1)} 99% {transform: translate(65.022224px,15.026422px) scale(1,0)} 100% {transform: translate(65.022224px,15.026422px) scale(1,0)} }#ecr9biaz7bsi11_ts {animation: ecr9biaz7bsi11_ts__ts 20000ms linear infinite normal forwards}@keyframes ecr9biaz7bsi11_ts__ts { 0% {transform: translate(64.949997px,15px) scale(1,0)} 51% {transform: translate(64.949997px,15px) scale(1,0)} 52% {transform: translate(64.949997px,15px) scale(1,1)} 73% {transform: translate(64.949997px,15px) scale(1,1)} 74% {transform: translate(64.949997px,15px) scale(1,0)} 100% {transform: translate(64.949997px,15px) scale(1,0)} }#ecr9biaz7bsi18_ts {animation: ecr9biaz7bsi18_ts__ts 20000ms linear infinite normal forwards}@keyframes ecr9biaz7bsi18_ts__ts { 0% {transform: translate(64.999997px,15px) scale(1,0)} 26% {transform: translate(64.999997px,15px) scale(1,0)} 27% {transform: translate(64.999997px,15px) scale(1,1)} 48% {transform: translate(64.999997px,15px) scale(1,1)} 49% {transform: translate(64.999997px,15px) scale(1,0)} 100% {transform: translate(64.999997px,15px) scale(1,0)} }#ecr9biaz7bsi42_ts {animation: ecr9biaz7bsi42_ts__ts 20000ms linear infinite normal forwards}@keyframes ecr9biaz7bsi42_ts__ts { 0% {transform: translate(65px,15px) scale(1,0)} 1% {transform: translate(65px,15px) scale(1,0)} 2% {transform: translate(65px,15px) scale(1,1)} 23% {transform: translate(65px,15px) scale(1,1)} 24% {transform: translate(65px,15px) scale(1,0)} 100% {transform: translate(65px,15px) scale(1,0)} }]]></style><g id="ecr9biaz7bsi2_ts" transform="translate(65.022224,15.026422) scale(1,0)"><g id="ecr9biaz7bsi2" transform="translate(-65.022224,-15.026422)"><path id="ecr9biaz7bsi3" d="M47.100000,8.900000C48,8.700000,48.800000,8.400000,49.500000,8.300000C54.200000,7.300000,59.200000,10.300000,60.400000,15C60.700000,16,60.800000,17.100000,60.800000,18.200000C60.800000,21.700000,60.800000,25.300000,60.800000,28.800000C60.800000,29.800000,60.800000,29.800000,59.700000,29.800000C59.100000,29.800000,58.600000,29.800000,58,29.800000C56.400000,29.700000,55.400000,28.700000,55.400000,27.100000C55.400000,24,55.400000,20.900000,55.400000,17.800000C55.400000,15.900000,54,14.100000,52.200000,13.700000C50.200000,13.200000,48.200000,14.200000,47.400000,16C47.100000,16.700000,47,17.400000,47,18.200000C46.900000,19.700000,47,21.300000,46.600000,22.800000C45.600000,27.300000,41,30.400000,36.400000,29.900000C32.200000,29.400000,29.100000,26.800000,28,22.700000C27.800000,21.900000,27.700000,21.100000,27.700000,20.300000C27.700000,14.500000,27.700000,8.700000,27.700000,2.900000C27.700000,2.100000,27.900000,1.800000,28.700000,1.900000C29.300000,2,30,1.900000,30.600000,1.900000C31.900000,2,33,3,33.100000,4.400000C33.100000,5.400000,33.100000,6.400000,33.100000,7.500000C33.100000,8.100000,33.300000,8.300000,33.900000,8.200000C34.900000,8.200000,35.900000,8.200000,36.900000,8.200000C37.200000,8.200000,37.600000,8.500000,37.600000,8.600000C37.600000,9.500000,37.700000,10.500000,37.500000,11.400000C37.200000,12.800000,36.200000,13.600000,34.800000,13.600000C33.100000,13.700000,33.100000,13.700000,33.100000,15.300000C33.100000,16.900000,33.100000,18.500000,33.100000,20.100000C33.100000,22.600000,34.900000,24.500000,37.300000,24.500000C39.700000,24.500000,41.500000,22.600000,41.500000,20.200000C41.500000,14.500000,41.500000,8.800000,41.500000,3.100000C41.500000,2,41.500000,1.900000,42.600000,2C43.500000,2,44.500000,2,45.400000,2.300000C46.400000,2.600000,46.800000,3.500000,46.800000,4.500000C46.800000,5.700000,46.800000,7,46.800000,8.200000C47,8.400000,47.100000,8.600000,47.100000,8.900000Z" fill="rgb(189,197,208)" stroke="none" stroke-width="1"/><path id="ecr9biaz7bsi4" d="M96.500000,17.900000C96.500000,14.900000,96.500000,12,96.500000,9C96.500000,8.300000,96.700000,8.100000,97.400000,8.100000C98,8.100000,98.600000,8,99.200000,8.100000C99.700000,8.200000,100.400000,8.300000,100.800000,8.600000C101.400000,9.100000,101.900000,9,102.600000,8.800000C106.200000,7.400000,109.500000,8,112.500000,10.500000C112.900000,10.900000,113.200000,10.900000,113.600000,10.500000C118.800000,6,126.600000,8,129,14.500000C129.300000,15.400000,129.500000,16.500000,129.500000,17.500000C129.600000,21.300000,129.500000,25.100000,129.500000,29C129.500000,29.600000,129.300000,29.900000,128.700000,29.900000C128.100000,29.900000,127.400000,29.900000,126.800000,29.900000C125.300000,29.800000,124.200000,28.800000,124.200000,27.200000C124.200000,24.100000,124.200000,21.100000,124.200000,18C124.200000,15.500000,122.400000,13.700000,120,13.700000C117.600000,13.700000,115.800000,15.500000,115.800000,17.900000C115.800000,21.600000,115.800000,25.200000,115.800000,28.900000C115.800000,29.900000,115.800000,29.900000,114.800000,29.900000C114.300000,29.900000,113.700000,29.900000,113.200000,29.900000C111.500000,29.800000,110.500000,28.800000,110.500000,27.200000C110.500000,24.200000,110.500000,21.200000,110.500000,18.200000C110.500000,16.300000,109.700000,14.900000,108,14.100000C105.300000,12.800000,102.100000,14.800000,102.100000,17.800000C102.100000,21.500000,102.100000,25.200000,102.100000,28.900000C102.100000,29.900000,102.100000,29.900000,101.100000,29.900000C100.700000,29.900000,100.300000,29.900000,99.900000,29.900000C97.700000,29.900000,96.700000,28.900000,96.700000,26.700000C96.500000,23.700000,96.500000,20.800000,96.500000,17.900000L96.500000,17.900000Z" fill="rgb(189,197,208)" stroke="none" stroke-width="1"/><path id="ecr9biaz7bsi5" d="M73.600000,14.800000C73.600000,12.900000,73.600000,10.900000,73.600000,9C73.600000,8.400000,73.800000,8.100000,74.400000,8.200000C75,8.200000,75.600000,8.200000,76.200000,8.200000C77.900000,8.200000,79,9.400000,79.100000,11.100000C79.100000,14.100000,79.200000,17.200000,79.100000,20.200000C79.100000,22.100000,80.400000,24,82.400000,24.400000C84.300000,24.800000,86.300000,23.800000,87.100000,21.800000C87.300000,21.300000,87.400000,20.600000,87.400000,20C87.400000,16.400000,87.400000,12.800000,87.400000,9.200000C87.400000,8.200000,87.400000,8.100000,88.500000,8.100000C89.400000,8.100000,90.400000,8.100000,91.200000,8.400000C92.200000,8.700000,92.800000,9.600000,92.800000,10.700000C92.800000,14.100000,92.900000,17.500000,92.800000,20.900000C92.600000,26.100000,87.700000,30.200000,82.500000,29.800000C78.300000,29.400000,75,26.600000,74,22.800000C73.800000,22,73.700000,21.100000,73.700000,20.200000C73.500000,18.400000,73.600000,16.600000,73.600000,14.800000L73.600000,14.800000Z" fill="rgb(189,197,208)" stroke="none" stroke-width="1"/><path id="ecr9biaz7bsi6" d="M0.500000,11.800000C0.500000,8.800000,0.500000,5.800000,0.500000,2.700000C0.500000,2,0.700000,1.700000,1.400000,1.800000C2,1.900000,2.600000,1.800000,3.200000,1.800000C4.700000,1.800000,5.800000,2.800000,5.800000,4.400000C5.800000,5.700000,5.800000,6.900000,5.800000,8.200000C5.800000,12,5.900000,15.900000,5.800000,19.700000C5.700000,22.600000,7.800000,24.700000,10.600000,24.500000C11.200000,24.500000,11.800000,24.500000,12.400000,24.500000C14.100000,24.500000,15.200000,25.400000,15.500000,27C15.600000,27.800000,15.600000,28.500000,15.500000,29.300000C15.500000,29.500000,15.200000,29.800000,15,29.800000C12.300000,29.700000,9.600000,30.200000,7,29.300000C3.900000,28.200000,1.800000,26,0.900000,22.800000C0.600000,21.800000,0.600000,20.800000,0.500000,19.800000C0.500000,17.100000,0.500000,14.400000,0.500000,11.800000Z" fill="rgb(189,197,208)" stroke="none" stroke-width="1"/><path id="ecr9biaz7bsi7" d="M23.800000,19.900000C23.800000,22.900000,23.800000,25.900000,23.800000,29C23.800000,29.700000,23.600000,29.900000,22.900000,29.900000C22.300000,29.900000,21.700000,29.900000,21.100000,29.900000C19.500000,29.800000,18.500000,28.800000,18.500000,27.300000C18.500000,21.200000,18.500000,15.100000,18.500000,8.900000C18.500000,8.400000,18.700000,8.200000,19.200000,8.200000C19.800000,8.200000,20.400000,8.200000,21,8.200000C22.700000,8.200000,23.800000,9.300000,23.900000,11C23.800000,13.900000,23.800000,16.900000,23.800000,19.900000Z" fill="rgb(189,197,208)" stroke="none" stroke-width="1"/><path id="ecr9biaz7bsi8" d="M70,19.900000C70,22.900000,70,25.900000,70,29C70,29.700000,69.700000,29.900000,69.100000,29.900000C68.500000,29.900000,67.900000,29.900000,67.300000,29.900000C65.700000,29.800000,64.700000,28.800000,64.700000,27.200000C64.700000,21.100000,64.700000,15.100000,64.700000,9C64.700000,8.400000,64.900000,8.100000,65.500000,8.200000C66,8.200000,66.600000,8.200000,67.100000,8.200000C68.900000,8.200000,70,9.300000,70,11.100000C70,12.600000,70,14.100000,70,15.600000C70,16.900000,70,18.400000,70,19.900000L70,19.900000Z" fill="rgb(189,197,208)" stroke="none" stroke-width="1"/><path id="ecr9biaz7bsi9" d="M67.300000,6.200000C65.600000,6.200000,64.300000,4.900000,64.300000,3.200000C64.300000,1.500000,65.600000,0.200000,67.300000,0.200000C69,0.200000,70.300000,1.500000,70.300000,3.200000C70.300000,4.900000,69,6.200000,67.300000,6.200000Z" fill="rgb(189,197,208)" stroke="none" stroke-width="1"/><path id="ecr9biaz7bsi10" d="M24.100000,3.100000C24.100000,4.800000,22.900000,6.100000,21.100000,6.100000C19.400000,6.100000,18.100000,4.900000,18.100000,3.100000C18.100000,1.400000,19.300000,0.100000,21.100000,0.100000C22.800000,0.100000,24.100000,1.400000,24.100000,3.100000Z" fill="rgb(189,197,208)" stroke="none" stroke-width="1"/></g></g><g id="ecr9biaz7bsi11_ts" transform="translate(64.949997,15) scale(1,0)"><g id="ecr9biaz7bsi11" transform="translate(-64.949997,-15)"><path id="ecr9biaz7bsi12" d="M57.500000,6.400000C56.600000,6.400000,55.900000,6.700000,55.700000,7.100000L48.700000,25.800000L43.500000,17.800000C46.200000,17.300000,47.900000,15.900000,47.900000,13.400000L47.900000,11.700000C47.900000,8.100000,44.600000,6.600000,40.100000,6.600000L33.900000,6.600000L33.900000,24.300000L25.900000,24.300000C22.700000,24.300000,22,23.600000,22,20.300000L22,16.800000L28,16.800000L28.600000,14.600000L22,14.600000L22,8.900000L30.700000,8.900000L31.400000,6.700000L18.400000,6.700000L18.400000,20.500000C18.400000,25.100000,19.500000,26.600000,25.800000,26.600000L37.500000,26.500000L37.500000,8.900000L40.100000,8.900000C42.900000,8.900000,44.300000,9.900000,44.300000,11.800000L44.300000,13.500000C44.300000,15.400000,42.500000,16.100000,40.400000,16.100000L38.800000,16.100000L44.300000,25.500000C44.900000,26.600000,45.200000,26.700000,46.700000,26.700000L49.900000,26.700000C51.400000,26.700000,52,26.600000,52.500000,25.400000L54.100000,20.800000L58.500000,20.800000L57.900000,18.600000L54.900000,18.600000L57.600000,10.900000L62.500000,25.300000C62.900000,26.500000,63.600000,26.600000,65.200000,26.600000L66.900000,26.600000L59.300000,7.100000C59.200000,6.700000,58.400000,6.400000,57.500000,6.400000Z" fill="rgb(189,197,208)" stroke="none" stroke-width="1"/><path id="ecr9biaz7bsi13" d="M122.100000,7.100000C121.900000,6.700000,121.100000,6.400000,120.300000,6.400000C119.400000,6.400000,118.700000,6.700000,118.500000,7.100000L111.200000,26.600000L112.600000,26.600000C114.100000,26.600000,114.700000,26.500000,115.200000,25.300000L116.800000,20.700000L121.200000,20.700000L120.500000,18.500000L117.400000,18.500000L120.100000,10.800000L125,25.200000C125.400000,26.400000,126.100000,26.500000,127.700000,26.500000L129.400000,26.500000L122.100000,7.100000Z" fill="rgb(189,197,208)" stroke="none" stroke-width="1"/><path id="ecr9biaz7bsi14" d="M23.200000,0.100000L1.200000,0.100000L0.500000,2.700000L10.600000,2.700000L10.600000,27.900000C10.600000,29.200000,11.400000,29.900000,12.900000,29.900000L14.200000,29.900000L14.200000,2.700000L22.400000,2.700000L23.200000,0.100000Z" fill="rgb(189,197,208)" stroke="none" stroke-width="1"/><path id="ecr9biaz7bsi15" d="M115.300000,6.700000L98.700000,6.700000L98,8.900000L104.800000,8.900000L104.800000,24.600000C104.800000,25.900000,105.600000,26.600000,107.100000,26.600000L108.400000,26.600000L108.400000,8.900000L114.500000,8.900000L115.300000,6.700000Z" fill="rgb(189,197,208)" stroke="none" stroke-width="1"/><path id="ecr9biaz7bsi16" d="M83.500000,15C83.500000,9.400000,80.600000,6.600000,74.900000,6.600000L68.100000,6.600000L68.100000,24.500000C68.100000,25.800000,68.800000,26.500000,70.400000,26.500000L74.900000,26.500000L75.600000,26.500000C81,26.300000,83.500000,23.900000,83.500000,18.300000L83.500000,15ZM79.900000,18.400000C79.900000,22.400000,78.600000,24.400000,75,24.400000L71.800000,24.400000L71.800000,8.900000L74.900000,8.900000C78.600000,8.900000,79.900000,11.100000,79.900000,15.100000L79.900000,18.400000Z" fill="rgb(189,197,208)" stroke="none" stroke-width="1"/><path id="ecr9biaz7bsi17" d="M92.600000,6.400000C91.700000,6.400000,91,6.700000,90.800000,7.100000L83.500000,26.600000L84.900000,26.600000C86.400000,26.600000,87,26.500000,87.500000,25.300000L89.100000,20.700000L93.500000,20.700000L92.900000,18.500000L89.800000,18.500000L92.500000,10.800000L97.400000,25.200000C97.800000,26.400000,98.500000,26.500000,100.100000,26.500000L101.800000,26.500000L94.400000,7.100000C94.200000,6.700000,93.400000,6.400000,92.600000,6.400000Z" fill="rgb(189,197,208)" stroke="none" stroke-width="1"/></g></g><g id="ecr9biaz7bsi18_ts" transform="translate(64.999997,15) scale(1,0)"><g id="ecr9biaz7bsi18" transform="translate(-64.999997,-15)"><path id="ecr9biaz7bsi19" d="M18.500000,1.100000L18.500000,11.700000L16.300000,11.700000L16.300000,7.300000L11.500000,7.300000L11.500000,11.700000L9.300000,11.700000L9.300000,1.100000L11.500000,1.100000L11.500000,5.300000L16.300000,5.300000L16.300000,1.100000L18.500000,1.100000Z" fill="rgb(189,197,208)" stroke="none" stroke-width="1"/><path id="ecr9biaz7bsi20" d="M22,8.300000C22.200000,9.600000,23.100000,10.100000,24.200000,10.100000C25,10.100000,25.600000,9.900000,26.400000,9.400000L26.400000,11.200000C25.800000,11.700000,24.900000,11.900000,23.900000,11.900000C21.600000,11.900000,20,10.400000,20,7.900000C20,5.500000,21.500000,3.800000,23.600000,3.800000C25.800000,3.800000,27,5.400000,27,7.600000L27,8.300000L22,8.300000ZM22.100000,6.900000L25,6.900000C24.900000,6.100000,24.500000,5.500000,23.600000,5.500000C22.900000,5.500000,22.300000,6,22.100000,6.900000Z" fill="rgb(189,197,208)" stroke="none" stroke-width="1"/><path id="ecr9biaz7bsi21" d="M35.300000,8.900000L36.700000,4L38.800000,4L36.500000,11.700000L34.500000,11.700000L33.200000,7L31.900000,11.700000L29.900000,11.700000L27.600000,4L29.700000,4L31.100000,8.900000L32.400000,4L34,4L35.300000,8.900000Z" fill="rgb(189,197,208)" stroke="none" stroke-width="1"/><path id="ecr9biaz7bsi22" d="M46.500000,8.300000C46.700000,9.600000,47.600000,10.100000,48.700000,10.100000C49.500000,10.100000,50.100000,9.900000,50.900000,9.400000L50.900000,11.200000C50.300000,11.700000,49.400000,11.900000,48.400000,11.900000C46.100000,11.900000,44.500000,10.400000,44.500000,7.900000C44.500000,5.500000,46,3.800000,48.100000,3.800000C50.300000,3.800000,51.500000,5.400000,51.500000,7.600000L51.500000,8.300000L46.500000,8.300000ZM46.600000,6.900000L49.500000,6.900000C49.400000,6.100000,49,5.500000,48.100000,5.500000C47.400000,5.500000,46.800000,6,46.600000,6.900000Z" fill="rgb(189,197,208)" stroke="none" stroke-width="1"/><path id="ecr9biaz7bsi23" d="M68.800000,8L68.800000,11.700000L66.600000,11.700000L66.600000,1.100000L70.900000,1.100000C73.100000,1.100000,74.600000,2.300000,74.600000,4.600000C74.600000,6.800000,73.100000,8,70.900000,8L68.800000,8ZM70.800000,3L68.800000,3L68.800000,6.200000L70.800000,6.200000C71.900000,6.200000,72.500000,5.500000,72.500000,4.600000C72.500000,3.600000,71.900000,3,70.800000,3Z" fill="rgb(189,197,208)" stroke="none" stroke-width="1"/><path id="ecr9biaz7bsi24" d="M79.900000,6.900000C79.900000,6.200000,79.300000,5.700000,78.200000,5.700000C77.400000,5.700000,76.700000,5.900000,76.100000,6.300000L76.100000,4.500000C76.700000,4.200000,77.700000,3.900000,78.700000,3.900000C80.800000,3.900000,82,5,82,6.900000L82,11.800000L80,11.800000L80,11.400000C79.700000,11.700000,79,12,78.100000,12C76.500000,12,75.300000,11.100000,75.300000,9.500000C75.300000,8,76.600000,7,78.300000,7C79,7,79.700000,7.200000,80,7.400000L79.900000,6.900000L79.900000,6.900000ZM79.900000,9C79.700000,8.600000,79.100000,8.300000,78.500000,8.300000C77.800000,8.300000,77.100000,8.600000,77.100000,9.200000C77.100000,9.900000,77.800000,10.100000,78.500000,10.100000C79.100000,10.100000,79.700000,9.800000,79.900000,9.400000L79.900000,9Z" fill="rgb(189,197,208)" stroke="none" stroke-width="1"/><path id="ecr9biaz7bsi25" d="M87.400000,3.800000C88.200000,3.800000,88.900000,4,89.500000,4.400000L89.500000,6.300000C89,5.800000,88.400000,5.600000,87.700000,5.600000C86.600000,5.600000,85.700000,6.400000,85.700000,7.800000C85.700000,9.200000,86.600000,10,87.700000,10C88.400000,10,89,9.800000,89.500000,9.300000L89.500000,11.200000C88.900000,11.600000,88.200000,11.800000,87.400000,11.800000C85.200000,11.800000,83.500000,10.200000,83.500000,7.800000C83.500000,5.400000,85.200000,3.800000,87.400000,3.800000Z" fill="rgb(189,197,208)" stroke="none" stroke-width="1"/><path id="ecr9biaz7bsi26" d="M98.600000,11.700000L96.100000,11.700000L93.300000,8.200000L93.300000,11.700000L91.200000,11.700000L91.200000,0.500000L93.300000,0.500000L93.300000,7L96,4L98.600000,4L95.400000,7.500000L98.600000,11.700000Z" fill="rgb(189,197,208)" stroke="none" stroke-width="1"/><path id="ecr9biaz7bsi27" d="M103.600000,6.900000C103.600000,6.200000,103,5.700000,101.900000,5.700000C101.100000,5.700000,100.400000,5.900000,99.800000,6.300000L99.800000,4.500000C100.400000,4.200000,101.400000,3.900000,102.400000,3.900000C104.500000,3.900000,105.700000,5,105.700000,6.900000L105.700000,11.800000L103.700000,11.800000L103.700000,11.400000C103.400000,11.700000,102.700000,12,101.800000,12C100.200000,12,99,11.100000,99,9.500000C99,8,100.300000,7,102,7C102.700000,7,103.400000,7.200000,103.700000,7.400000L103.600000,6.900000L103.600000,6.900000ZM103.600000,9C103.400000,8.600000,102.800000,8.300000,102.200000,8.300000C101.500000,8.300000,100.800000,8.600000,100.800000,9.200000C100.800000,9.900000,101.500000,10.100000,102.200000,10.100000C102.800000,10.100000,103.400000,9.800000,103.600000,9.400000L103.600000,9Z" fill="rgb(189,197,208)" stroke="none" stroke-width="1"/><path id="ecr9biaz7bsi28" d="M112.400000,6.100000C112.100000,5.900000,111.700000,5.800000,111.300000,5.800000C110.600000,5.800000,110,6.200000,109.800000,6.900000L109.800000,11.700000L107.700000,11.700000L107.700000,4L109.800000,4L109.800000,4.800000C110.100000,4.200000,110.800000,3.900000,111.500000,3.900000C111.900000,3.900000,112.200000,4,112.300000,4L112.400000,6.100000L112.400000,6.100000Z" fill="rgb(189,197,208)" stroke="none" stroke-width="1"/><path id="ecr9biaz7bsi29" d="M118.500000,11.100000C118.200000,11.500000,117.400000,11.900000,116.600000,11.900000C114.400000,11.900000,113.100000,10.100000,113.100000,7.900000C113.100000,5.700000,114.400000,3.900000,116.600000,3.900000C117.400000,3.900000,118.200000,4.300000,118.500000,4.700000L118.500000,0.500000L120.700000,0.500000L120.700000,11.700000L118.500000,11.700000L118.500000,11.100000ZM118.500000,6.600000C118.300000,6.100000,117.700000,5.700000,117.100000,5.700000C115.900000,5.700000,115.300000,6.600000,115.300000,7.900000C115.300000,9.100000,116,10.100000,117.100000,10.100000C117.700000,10.100000,118.300000,9.700000,118.500000,9.200000L118.500000,6.600000Z" fill="rgb(189,197,208)" stroke="none" stroke-width="1"/><path id="ecr9biaz7bsi30" d="M43.300000,10.400000C42.700000,10.400000,42.300000,10,42.300000,9.400000L42.300000,9.400000L42.300000,1.200000L40.200000,1.200000L40.200000,8.800000L40.200000,9.300000L40.200000,9.400000C40.200000,11.100000,41.300000,12.100000,42.900000,12.100000C43.400000,12.100000,43.800000,12,44.100000,11.900000L44.100000,10.100000C43.800000,10.300000,43.600000,10.400000,43.300000,10.400000Z" fill="rgb(189,197,208)" stroke="none" stroke-width="1"/><path id="ecr9biaz7bsi31" d="M60.900000,6.100000L62.800000,6.100000L62.800000,4.300000L60.900000,4.300000L60.900000,1.200000L58.800000,1.200000L58.800000,4.300000L55.700000,4.300000L55.700000,1.200000L53.600000,1.200000L53.600000,4.300000L52.200000,4.300000L52.200000,6L53.600000,6L53.600000,8.800000L53.600000,9.300000L53.600000,9.400000C53.600000,11.100000,54.700000,12.100000,56.300000,12.100000C56.800000,12.100000,57.200000,12,57.500000,11.900000L57.500000,10.100000C57.300000,10.300000,57,10.300000,56.700000,10.300000C56.100000,10.300000,55.700000,9.900000,55.700000,9.300000L55.700000,9.300000L55.700000,6.100000L58.800000,6.100000L58.800000,8.900000L58.800000,9.400000L58.800000,9.500000C58.800000,11.200000,59.900000,12.200000,61.500000,12.200000C62,12.200000,62.400000,12.100000,62.700000,12L62.700000,10.200000C62.500000,10.400000,62.200000,10.400000,61.900000,10.400000C61.300000,10.400000,60.900000,10,60.900000,9.400000L60.900000,9.400000C60.900000,9.400000,60.900000,6.100000,60.900000,6.100000Z" fill="rgb(189,197,208)" stroke="none" stroke-width="1"/><path id="ecr9biaz7bsi32" d="M16.200000,15.900000L16.200000,17.100000L10.800000,17.100000L10.800000,20.500000L15.700000,20.500000L15.700000,21.700000L10.800000,21.700000L10.800000,25.300000L16.200000,25.300000L16.200000,26.500000L9.400000,26.500000L9.400000,15.900000L16.200000,15.900000Z" fill="rgb(189,197,208)" stroke="none" stroke-width="1"/><path id="ecr9biaz7bsi33" d="M18.300000,18.800000L19.600000,18.800000L19.600000,19.800000C20.100000,19.200000,20.900000,18.700000,21.900000,18.700000C23.700000,18.700000,24.600000,19.800000,24.600000,21.500000L24.600000,26.600000L23.300000,26.600000L23.300000,21.800000C23.300000,20.700000,22.800000,20,21.600000,20C20.700000,20,19.900000,20.600000,19.600000,21.400000L19.600000,26.600000L18.300000,26.600000L18.300000,18.800000Z" fill="rgb(189,197,208)" stroke="none" stroke-width="1"/><path id="ecr9biaz7bsi34" d="M32.900000,22.900000C33,24.700000,34.100000,25.500000,35.500000,25.500000C36.400000,25.500000,37,25.300000,37.700000,24.800000L37.700000,26C37.100000,26.500000,36.300000,26.700000,35.400000,26.700000C33.200000,26.700000,31.700000,25.200000,31.700000,22.800000C31.700000,20.400000,33.100000,18.700000,35.100000,18.700000C37.200000,18.700000,38.300000,20.200000,38.300000,22.500000L38.300000,23L32.900000,23L32.900000,22.900000ZM32.900000,21.900000L36.900000,21.900000C36.800000,20.800000,36.300000,19.800000,35,19.800000C34,19.800000,33.200000,20.500000,32.900000,21.900000Z" fill="rgb(189,197,208)" stroke="none" stroke-width="1"/><path id="ecr9biaz7bsi35" d="M43.900000,20.100000C43.700000,20,43.400000,19.900000,43,19.900000C42.200000,19.900000,41.500000,20.400000,41.200000,21.300000L41.200000,26.500000L40,26.500000L40,18.800000L41.300000,18.800000L41.300000,19.800000C41.600000,19.100000,42.400000,18.600000,43.200000,18.600000C43.500000,18.600000,43.800000,18.700000,43.900000,18.700000L43.900000,20.100000Z" fill="rgb(189,197,208)" stroke="none" stroke-width="1"/><path id="ecr9biaz7bsi36" d="M46.600000,29.500000L45.300000,29.500000L45.300000,18.800000L46.600000,18.800000L46.600000,19.700000C47,19.100000,47.800000,18.600000,48.800000,18.600000C51.100000,18.600000,52.300000,20.500000,52.300000,22.600000C52.300000,24.700000,51.100000,26.600000,48.800000,26.600000C47.800000,26.600000,47,26.100000,46.600000,25.500000L46.600000,29.500000ZM46.600000,24.300000C47,25.100000,47.800000,25.600000,48.600000,25.600000C50.100000,25.600000,50.900000,24.400000,50.900000,22.800000C50.900000,21.200000,50,20,48.600000,20C47.800000,20,47,20.500000,46.600000,21.300000L46.600000,24.300000Z" fill="rgb(189,197,208)" stroke="none" stroke-width="1"/><path id="ecr9biaz7bsi37" d="M58.200000,20.100000C58,20,57.700000,19.900000,57.300000,19.900000C56.500000,19.900000,55.800000,20.400000,55.500000,21.300000L55.500000,26.500000L54.200000,26.500000L54.200000,18.800000L55.500000,18.800000L55.500000,19.800000C55.800000,19.100000,56.600000,18.600000,57.400000,18.600000C57.700000,18.600000,58,18.700000,58.100000,18.700000L58.200000,20.100000L58.200000,20.100000Z" fill="rgb(189,197,208)" stroke="none" stroke-width="1"/><path id="ecr9biaz7bsi38" d="M60.500000,17.400000C60,17.400000,59.700000,17,59.700000,16.600000C59.700000,16.100000,60.100000,15.800000,60.500000,15.800000C61,15.800000,61.400000,16.200000,61.400000,16.600000C61.300000,17,60.900000,17.400000,60.500000,17.400000ZM61.100000,26.500000L59.800000,26.500000L59.800000,18.800000L61.100000,18.800000L61.100000,26.500000Z" fill="rgb(189,197,208)" stroke="none" stroke-width="1"/><path id="ecr9biaz7bsi39" d="M63,24.600000C63.700000,25.300000,64.600000,25.600000,65.500000,25.600000C66.400000,25.600000,67.100000,25.300000,67.100000,24.500000C67.100000,23.900000,66.700000,23.600000,66,23.400000L64.900000,23C63.700000,22.600000,63,22.100000,63,20.800000C63,19.400000,64.200000,18.600000,65.700000,18.600000C66.600000,18.600000,67.400000,18.800000,68,19.300000L68,20.700000C67.400000,20.200000,66.600000,19.800000,65.700000,19.800000C64.900000,19.800000,64.200000,20.100000,64.200000,20.800000C64.200000,21.400000,64.600000,21.600000,65.300000,21.900000L66.500000,22.300000C67.700000,22.700000,68.300000,23.400000,68.300000,24.500000C68.300000,25.900000,67,26.700000,65.400000,26.700000C64.400000,26.700000,63.400000,26.400000,62.900000,25.900000L62.900000,24.600000L63,24.600000Z" fill="rgb(189,197,208)" stroke="none" stroke-width="1"/><path id="ecr9biaz7bsi40" d="M71,22.900000C71.100000,24.700000,72.200000,25.500000,73.600000,25.500000C74.500000,25.500000,75.100000,25.300000,75.800000,24.800000L75.800000,26C75.200000,26.500000,74.400000,26.700000,73.500000,26.700000C71.300000,26.700000,69.800000,25.200000,69.800000,22.800000C69.800000,20.400000,71.200000,18.700000,73.200000,18.700000C75.300000,18.700000,76.400000,20.200000,76.400000,22.500000L76.400000,23L71,23L71,22.900000ZM71.100000,21.900000L75.100000,21.900000C75,20.800000,74.500000,19.800000,73.200000,19.800000C72.100000,19.800000,71.300000,20.500000,71.100000,21.900000Z" fill="rgb(189,197,208)" stroke="none" stroke-width="1"/><path id="ecr9biaz7bsi41" d="M29.900000,25.600000C29.100000,25.600000,28.600000,25.100000,28.600000,24.200000L28.600000,23.500000L28.600000,23.500000L28.600000,20L30.600000,20L30.600000,18.900000L28.600000,18.900000L28.600000,17L27.300000,17L27.300000,18.900000L25.500000,18.900000L25.500000,20L27.300000,20L27.300000,23.500000L27.300000,24.300000C27.300000,25.800000,28.300000,26.700000,29.700000,26.700000C30.100000,26.700000,30.400000,26.600000,30.700000,26.500000L30.700000,25.300000C30.500000,25.500000,30.200000,25.600000,29.900000,25.600000Z" fill="rgb(189,197,208)" stroke="none" stroke-width="1"/></g></g><g id="ecr9biaz7bsi42_ts" transform="translate(65,15) scale(1,0)"><g id="ecr9biaz7bsi42" transform="translate(-65,-15)"><path id="ecr9biaz7bsi43" d="M32.400000,10.900000L32.400000,9.600000L28.900000,9.600000L28.900000,22.100000L32.600000,22.100000L32.600000,15.200000C32.600000,13.300000,33.800000,12.900000,35.600000,12.900000L35.600000,9.200000C33.300000,9.200000,32.700000,10.300000,32.400000,10.900000Z" fill="rgb(189,197,208)" stroke="none" stroke-width="1"/><path id="ecr9biaz7bsi44" d="M20.900000,9.200000C18.900000,9.200000,17.400000,9.900000,16.300000,10.900000C16.300000,10.900000,16.300000,10.900000,16.300000,10.900000C17.300000,11.800000,18,12.900000,18.300000,14.300000C18.800000,13.300000,19.800000,12.600000,20.900000,12.600000C22.500000,12.600000,23.900000,13.900000,23.900000,15.800000C23.900000,17.700000,22.600000,19,20.900000,19C19.800000,19,18.800000,18.400000,18.300000,17.400000C18,18.700000,17.300000,19.900000,16.300000,20.800000C17.400000,21.900000,19,22.600000,21,22.600000C25.600000,22.600000,27.700000,19,27.700000,15.900000C27.700000,12.800000,25.500000,9.200000,20.900000,9.200000Z" fill="rgb(189,197,208)" stroke="none" stroke-width="1"/><path id="ecr9biaz7bsi45" d="M18.200000,14.400000L14.500000,14.400000C14.100000,13.500000,13.300000,12.700000,11.800000,12.700000C10,12.600000,8.800000,14.100000,8.800000,15.900000C8.800000,17.700000,10,19.100000,11.800000,19.100000C13.300000,19.100000,14.100000,18.200000,14.500000,17.400000L18.300000,17.400000C18.100000,16.900000,17.900000,16.400000,17.900000,15.800000C17.900000,15.300000,18,14.800000,18.200000,14.400000Z" fill="rgb(189,197,208)" stroke="none" stroke-width="1"/><polygon id="ecr9biaz7bsi46" points="18.300000,17.400000 18.300000,17.400000 18.300000,17.400000" fill="rgb(189,197,208)" stroke="none" stroke-width="1"/><path id="ecr9biaz7bsi47" d="M16.200000,10.900000C16.200000,10.900000,16.200000,10.900000,16.200000,10.900000C16.200000,10.800000,16.200000,10.800000,16.200000,10.900000L16.200000,10.900000Z" fill="rgb(189,197,208)" stroke="none" stroke-width="1"/><path id="ecr9biaz7bsi48" d="M0.500000,11.600000L0.500000,27.500000L9.800000,22.100000C7,21.300000,5.100000,18.800000,5.100000,15.700000C5.100000,12.100000,7.900000,9.100000,11.700000,9.100000C13.500000,9.100000,15,9.800000,16.200000,10.800000L16.200000,2.500000L0.500000,11.600000Z" fill="rgb(189,197,208)" stroke="none" stroke-width="1"/><path id="ecr9biaz7bsi49" d="M18.300000,14.300000C18.300000,14.300000,18.300000,14.400000,18.200000,14.400000L18.300000,14.400000C18.300000,14.400000,18.300000,14.300000,18.300000,14.300000Z" fill="rgb(189,197,208)" stroke="none" stroke-width="1"/><path id="ecr9biaz7bsi50" d="M95.700000,9.200000C91.100000,9.200000,88.900000,12.800000,88.900000,15.900000C88.900000,19,91.100000,22.600000,95.700000,22.600000C100.300000,22.600000,102.500000,19,102.500000,15.900000C102.500000,12.800000,100.200000,9.200000,95.700000,9.200000ZM95.700000,19C94.100000,19,92.700000,17.700000,92.700000,15.800000C92.700000,14,94.100000,12.600000,95.700000,12.600000C97.300000,12.600000,98.700000,13.900000,98.700000,15.800000C98.700000,17.700000,97.300000,19,95.700000,19Z" fill="rgb(189,197,208)" stroke="none" stroke-width="1"/><polygon id="ecr9biaz7bsi51" points="88.900000,9.600000 87.100000,9.600000 87.100000,6.400000 83.400000,8.600000 83.400000,9.700000 81.500000,9.700000 81.500000,12.500000 83.400000,12.500000 83.400000,22.200000 87.100000,22.200000 87.100000,12.500000 88.900000,12.500000" fill="rgb(189,197,208)" stroke="none" stroke-width="1"/><path id="ecr9biaz7bsi52" d="M76.600000,14.300000C75.600000,14,74.700000,13.600000,74.700000,12.900000C74.700000,12.600000,75,12.100000,75.800000,12.100000C76.900000,12.100000,76.900000,12.800000,77,13L80.700000,13C80.400000,9.700000,77.500000,9.100000,75.900000,9.100000C73.300000,9.100000,71.100000,10.700000,71.100000,13.200000C71.100000,14.900000,72.500000,15.900000,74.100000,16.500000C76.500000,17.400000,77.400000,17.500000,77.400000,18.500000C77.400000,19.100000,76.700000,19.500000,76.100000,19.500000C75.900000,19.500000,74.800000,19.500000,74.700000,18.400000L71,18.400000C71.300000,21.700000,74.200000,22.500000,76.100000,22.500000C78.900000,22.500000,81.200000,20.900000,81.200000,18.200000C81,15.600000,78.700000,14.900000,76.600000,14.300000Z" fill="rgb(189,197,208)" stroke="none" stroke-width="1"/><path id="ecr9biaz7bsi53" d="M113.700000,10.200000C113,9.600000,111.700000,9.100000,110.500000,9.100000C108.300000,9.100000,107.500000,10.300000,107.100000,10.900000L107.100000,9.600000L103.600000,9.600000L103.600000,22.100000L107.400000,22.100000L107.400000,15.300000C107.400000,14.500000,107.400000,12.700000,109.500000,12.700000C111.500000,12.700000,111.500000,14.400000,111.500000,15.300000L111.500000,22.100000L115.300000,22.100000L115.300000,14.300000C115.200000,11.800000,114.400000,10.800000,113.700000,10.200000Z" fill="rgb(189,197,208)" stroke="none" stroke-width="1"/><path id="ecr9biaz7bsi54" d="M46.800000,10.300000C46.100000,9.700000,44.800000,9.200000,43.600000,9.200000C41.400000,9.200000,40.600000,10.400000,40.200000,11L40.200000,9.600000L36.700000,9.600000L36.700000,22.100000L40.400000,22.100000L40.400000,15.300000C40.400000,14.500000,40.400000,12.700000,42.500000,12.700000C44.500000,12.700000,44.500000,14.400000,44.500000,15.300000L44.500000,22.100000L48.200000,22.100000L48.200000,14.300000C48.200000,11.800000,47.500000,10.800000,46.800000,10.300000Z" fill="rgb(189,197,208)" stroke="none" stroke-width="1"/><path id="ecr9biaz7bsi55" d="M129.500000,16C129.500000,12.200000,126.700000,9.200000,122.900000,9.200000C119.100000,9.200000,116.300000,12.400000,116.300000,15.900000C116.300000,19.600000,119.300000,22.500000,122.900000,22.500000C124.200000,22.500000,125.400000,22.100000,126.500000,21.400000C127.600000,20.700000,128.400000,19.600000,129,18.200000L125.200000,18.200000C124.700000,18.900000,124.100000,19.400000,122.900000,19.400000C121.400000,19.400000,120.200000,18.500000,120,17L129.400000,17C129.500000,16.700000,129.500000,16.500000,129.500000,16ZM120.100000,14.500000C120.300000,13.800000,121,12.400000,122.900000,12.400000C124.800000,12.400000,125.600000,13.800000,125.700000,14.500000L120.100000,14.500000Z" fill="rgb(189,197,208)" stroke="none" stroke-width="1"/><path id="ecr9biaz7bsi56" d="M67.300000,10.900000L67.300000,9.600000L63.800000,9.600000L63.800000,22.100000L67.500000,22.100000L67.500000,15.200000C67.500000,13.300000,68.700000,12.900000,70.500000,12.900000L70.500000,9.200000C68.200000,9.200000,67.600000,10.300000,67.300000,10.900000Z" fill="rgb(189,197,208)" stroke="none" stroke-width="1"/><path id="ecr9biaz7bsi57" d="M56,9.200000C52.200000,9.200000,49.400000,12.400000,49.400000,15.900000C49.400000,19.600000,52.400000,22.500000,56,22.500000C57.300000,22.500000,58.500000,22.100000,59.600000,21.400000C60.700000,20.700000,61.500000,19.600000,62.100000,18.200000L58.300000,18.200000C57.800000,18.900000,57.200000,19.400000,56,19.400000C54.500000,19.400000,53.300000,18.500000,53.100000,17L62.500000,17C62.500000,16.700000,62.600000,16.500000,62.600000,16C62.600000,12.200000,59.800000,9.200000,56,9.200000ZM53.100000,14.500000C53.300000,13.800000,54,12.400000,55.900000,12.400000C57.800000,12.400000,58.600000,13.800000,58.700000,14.500000L53.100000,14.500000Z" fill="rgb(189,197,208)" stroke="none" stroke-width="1"/></g></g></svg>