<svg id="en354edd91cj1" xmlns="http://www.w3.org/2000/svg" xmlns:xlink="http://www.w3.org/1999/xlink" viewBox="0 0 130 30" shape-rendering="geometricPrecision" text-rendering="geometricPrecision" width="130" height="30"><style><![CDATA[#en354edd91cj2_ts {animation: en354edd91cj2_ts__ts 20000ms linear infinite normal forwards}@keyframes en354edd91cj2_ts__ts { 0% {transform: translate(65px,14.950000px) scale(1,0)} 1% {transform: translate(65px,14.950000px) scale(1,0)} 2% {transform: translate(65px,14.950000px) scale(1,1)} 23% {transform: translate(65px,14.950000px) scale(1,1)} 24% {transform: translate(65px,14.950000px) scale(1,0)} 100% {transform: translate(65px,14.950000px) scale(1,0)} }#en354edd91cj10_ts {animation: en354edd91cj10_ts__ts 20000ms linear infinite normal forwards}@keyframes en354edd91cj10_ts__ts { 0% {transform: translate(65px,15px) scale(1,0)} 51% {transform: translate(65px,15px) scale(1,0)} 52% {transform: translate(65px,15px) scale(1,1)} 73% {transform: translate(65px,15px) scale(1,1)} 74% {transform: translate(65px,15px) scale(1,0)} 100% {transform: translate(65px,15px) scale(1,0)} }#en354edd91cj26_ts {animation: en354edd91cj26_ts__ts 20000ms linear infinite normal forwards}@keyframes en354edd91cj26_ts__ts { 0% {transform: translate(64.999997px,15px) scale(1,0)} 76% {transform: translate(64.999997px,15px) scale(1,0)} 77% {transform: translate(64.999997px,15px) scale(1,1)} 98% {transform: translate(64.999997px,15px) scale(1,1)} 99% {transform: translate(64.999997px,15px) scale(1,0)} 100% {transform: translate(64.999997px,15px) scale(1,0)} }#en354edd91cj50_ts {animation: en354edd91cj50_ts__ts 20000ms linear infinite normal forwards}@keyframes en354edd91cj50_ts__ts { 0% {transform: translate(64.970034px,14.963721px) scale(1,0)} 26% {transform: translate(64.970034px,14.963721px) scale(1,0)} 27% {transform: translate(64.970034px,14.963721px) scale(1,1)} 48% {transform: translate(64.970034px,14.963721px) scale(1,1)} 49% {transform: translate(64.970034px,14.963721px) scale(1,0)} 100% {transform: translate(64.970034px,14.963721px) scale(1,0)} }]]></style><g id="en354edd91cj2_ts" transform="translate(65,14.950000) scale(1,0)"><g id="en354edd91cj2" transform="translate(-65,-14.950000)"><polygon id="en354edd91cj3" points="34.500000,16.300000 42.200000,16.300000 42.200000,13.100000 34.500000,13.100000 34.500000,8.700000 43.300000,8.700000 43.300000,5.200000 29.200000,5.200000 29.200000,24.700000 43.500000,24.700000 43.500000,21 34.500000,21" fill="rgb(189,197,208)" stroke="none" stroke-width="1"/><rect id="en354edd91cj4" width="5.500000" height="19.500000" rx="0" ry="0" transform="matrix(1 0 0 1 18.70000000000000 5.20000000000000)" fill="rgb(189,197,208)" stroke="none" stroke-width="1"/><path id="en354edd91cj5" d="M9.500000,12.600000C7.800000,11.800000,6.800000,11.300000,6.400000,11.100000C5.900000,10.800000,5.700000,10.500000,5.700000,10C5.700000,8.800000,6.800000,8.200000,9,8.200000C10.500000,8.200000,12.200000,8.600000,14,9.100000L14,5.400000C11.600000,4.900000,9.700000,4.700000,8.400000,4.700000C6.100000,4.700000,4.200000,5.200000,2.700000,6.200000C1.200000,7.200000,0.500000,8.700000,0.500000,10.600000C0.500000,12.100000,1,13.300000,2,14.300000C2.800000,15,4.500000,15.900000,7.100000,17C8.600000,17.600000,9.400000,18.100000,9.800000,18.400000C10.100000,18.800000,10.300000,19.100000,10.300000,19.600000C10.300000,20.900000,9.100000,21.500000,6.800000,21.500000C5.100000,21.500000,3.100000,21.200000,0.900000,20.500000L0.900000,24.400000C2.900000,24.900000,5,25.100000,7.100000,25.200000C9.500000,25.200000,11.400000,24.700000,12.900000,23.800000C14.800000,22.700000,15.700000,21.100000,15.700000,19C15.700000,17.500000,15.200000,16.300000,14.300000,15.400000C13.500000,14.600000,11.900000,13.700000,9.500000,12.600000Z" fill="rgb(189,197,208)" stroke="none" stroke-width="1"/><polygon id="en354edd91cj6" points="107,18.300000 100.300000,5.200000 93.900000,5.200000 93.900000,24.700000 97.800000,24.700000 97.800000,11.400000 104.700000,24.700000 110.900000,24.700000 110.900000,5.200000 107,5.200000" fill="rgb(189,197,208)" stroke="none" stroke-width="1"/><path id="en354edd91cj7" d="M128.100000,15.200000C127.300000,14.400000,125.700000,13.500000,123.300000,12.400000C121.600000,11.600000,120.600000,11.100000,120.200000,10.900000C119.700000,10.600000,119.500000,10.300000,119.500000,9.800000C119.500000,8.600000,120.600000,8,122.800000,8C124.400000,8,126.100000,8.400000,127.900000,9.100000L127.900000,5.400000L127.400000,5.300000C125.300000,4.900000,123.600000,4.700000,122.300000,4.700000C120,4.700000,118.100000,5.200000,116.600000,6.200000C115.100000,7.200000,114.400000,8.700000,114.400000,10.600000C114.400000,12.100000,114.900000,13.300000,115.900000,14.300000C116.700000,15,118.400000,16,121,17C122.500000,17.600000,123.400000,18.100000,123.700000,18.400000C124,18.800000,124.200000,19.100000,124.200000,19.600000C124.200000,20.900000,123,21.500000,120.700000,21.500000C118.900000,21.500000,117,21.200000,114.800000,20.500000L114.800000,24.400000C116.800000,24.900000,118.900000,25.100000,120.900000,25C123.200000,25,125.200000,24.500000,126.700000,23.600000C128.600000,22.500000,129.500000,20.900000,129.500000,18.800000C129.500000,17.300000,129,16.100000,128.100000,15.200000Z" fill="rgb(189,197,208)" stroke="none" stroke-width="1"/><polygon id="en354edd91cj8" points="59.100000,17.700000 54.200000,5.200000 47.100000,5.200000 47.100000,24.700000 50.900000,24.700000 50.900000,10.900000 56.600000,24.900000 60,24.900000 65.800000,10.900000 65.800000,24.700000 71,24.700000 71,5.200000 64.200000,5.200000" fill="rgb(189,197,208)" stroke="none" stroke-width="1"/><polygon id="en354edd91cj9" points="81.400000,16.300000 89,16.300000 89,13.100000 81.300000,13.100000 81.300000,8.700000 90.100000,8.700000 90.100000,5.200000 76,5.200000 76,24.700000 90.400000,24.700000 90.400000,21 81.400000,21" fill="rgb(189,197,208)" stroke="none" stroke-width="1"/></g></g><g id="en354edd91cj10_ts" transform="translate(65,15) scale(1,0)"><g id="en354edd91cj10" transform="translate(-65,-15)"><polygon id="en354edd91cj11" points="18.300000,17.400000 18.300000,17.400000 18.300000,17.400000" fill="rgb(189,197,208)" stroke="none" stroke-width="1"/><path id="en354edd91cj12" d="M32.400000,10.900000L32.400000,9.600000L28.900000,9.600000L28.900000,22.100000L32.600000,22.100000L32.600000,15.200000C32.600000,13.300000,33.800000,12.900000,35.600000,12.900000L35.600000,9.200000C33.300000,9.200000,32.700000,10.300000,32.400000,10.900000Z" fill="rgb(189,197,208)" stroke="none" stroke-width="1"/><path id="en354edd91cj13" d="M18.200000,14.400000L14.500000,14.400000C14.100000,13.500000,13.300000,12.700000,11.800000,12.700000C10,12.600000,8.800000,14.100000,8.800000,15.900000C8.800000,17.700000,10,19.100000,11.800000,19.100000C13.300000,19.100000,14.100000,18.200000,14.500000,17.400000L18.300000,17.400000C18.100000,16.900000,17.900000,16.400000,17.900000,15.800000C17.900000,15.300000,18,14.800000,18.200000,14.400000Z" fill="rgb(189,197,208)" stroke="none" stroke-width="1"/><path id="en354edd91cj14" d="M20.900000,9.200000C18.900000,9.200000,17.400000,9.900000,16.300000,10.900000C16.300000,10.900000,16.300000,10.900000,16.300000,10.900000C17.300000,11.800000,18,12.900000,18.300000,14.300000C18.800000,13.300000,19.800000,12.600000,20.900000,12.600000C22.500000,12.600000,23.900000,13.900000,23.900000,15.800000C23.900000,17.700000,22.600000,19,20.900000,19C19.800000,19,18.800000,18.400000,18.300000,17.400000C18,18.700000,17.300000,19.900000,16.300000,20.800000C17.400000,21.900000,19,22.600000,21,22.600000C25.600000,22.600000,27.700000,19,27.700000,15.900000C27.700000,12.800000,25.500000,9.200000,20.900000,9.200000Z" fill="rgb(189,197,208)" stroke="none" stroke-width="1"/><path id="en354edd91cj15" d="M18.300000,14.300000C18.300000,14.300000,18.300000,14.400000,18.200000,14.400000L18.300000,14.400000C18.300000,14.400000,18.300000,14.300000,18.300000,14.300000Z" fill="rgb(189,197,208)" stroke="none" stroke-width="1"/><path id="en354edd91cj16" d="M16.200000,10.900000C16.200000,10.900000,16.200000,10.900000,16.200000,10.900000C16.200000,10.800000,16.200000,10.800000,16.200000,10.900000L16.200000,10.900000Z" fill="rgb(189,197,208)" stroke="none" stroke-width="1"/><path id="en354edd91cj17" d="M0.500000,11.600000L0.500000,27.500000L9.800000,22.100000C7,21.300000,5.100000,18.800000,5.100000,15.700000C5.100000,12.100000,7.900000,9.100000,11.700000,9.100000C13.500000,9.100000,15,9.800000,16.200000,10.800000L16.200000,2.500000L0.500000,11.600000Z" fill="rgb(189,197,208)" stroke="none" stroke-width="1"/><path id="en354edd91cj18" d="M129.500000,16C129.500000,12.200000,126.700000,9.200000,122.900000,9.200000C119.100000,9.200000,116.300000,12.400000,116.300000,15.900000C116.300000,19.600000,119.300000,22.500000,122.900000,22.500000C124.200000,22.500000,125.400000,22.100000,126.500000,21.400000C127.600000,20.700000,128.400000,19.600000,129,18.200000L125.200000,18.200000C124.700000,18.900000,124.100000,19.400000,122.900000,19.400000C121.400000,19.400000,120.200000,18.500000,120,17L129.400000,17C129.500000,16.700000,129.500000,16.500000,129.500000,16ZM120.100000,14.500000C120.300000,13.800000,121,12.400000,122.900000,12.400000C124.800000,12.400000,125.600000,13.800000,125.700000,14.500000L120.100000,14.500000Z" fill="rgb(189,197,208)" stroke="none" stroke-width="1"/><polygon id="en354edd91cj19" points="88.900000,9.600000 87.100000,9.600000 87.100000,6.400000 83.400000,8.600000 83.400000,9.700000 81.500000,9.700000 81.500000,12.500000 83.400000,12.500000 83.400000,22.200000 87.100000,22.200000 87.100000,12.500000 88.900000,12.500000" fill="rgb(189,197,208)" stroke="none" stroke-width="1"/><path id="en354edd91cj20" d="M95.700000,9.200000C91.100000,9.200000,88.900000,12.800000,88.900000,15.900000C88.900000,19,91.100000,22.600000,95.700000,22.600000C100.300000,22.600000,102.500000,19,102.500000,15.900000C102.500000,12.800000,100.200000,9.200000,95.700000,9.200000ZM95.700000,19C94.100000,19,92.700000,17.700000,92.700000,15.800000C92.700000,14,94.100000,12.600000,95.700000,12.600000C97.300000,12.600000,98.700000,13.900000,98.700000,15.800000C98.700000,17.700000,97.300000,19,95.700000,19Z" fill="rgb(189,197,208)" stroke="none" stroke-width="1"/><path id="en354edd91cj21" d="M76.600000,14.300000C75.600000,14,74.700000,13.600000,74.700000,12.900000C74.700000,12.600000,75,12.100000,75.800000,12.100000C76.900000,12.100000,76.900000,12.800000,77,13L80.700000,13C80.400000,9.700000,77.500000,9.100000,75.900000,9.100000C73.300000,9.100000,71.100000,10.700000,71.100000,13.200000C71.100000,14.900000,72.500000,15.900000,74.100000,16.500000C76.500000,17.400000,77.400000,17.500000,77.400000,18.500000C77.400000,19.100000,76.700000,19.500000,76.100000,19.500000C75.900000,19.500000,74.800000,19.500000,74.700000,18.400000L71,18.400000C71.300000,21.700000,74.200000,22.500000,76.100000,22.500000C78.900000,22.500000,81.200000,20.900000,81.200000,18.200000C81,15.600000,78.700000,14.900000,76.600000,14.300000Z" fill="rgb(189,197,208)" stroke="none" stroke-width="1"/><path id="en354edd91cj22" d="M46.800000,10.300000C46.100000,9.700000,44.800000,9.200000,43.600000,9.200000C41.400000,9.200000,40.600000,10.400000,40.200000,11L40.200000,9.600000L36.700000,9.600000L36.700000,22.100000L40.400000,22.100000L40.400000,15.300000C40.400000,14.500000,40.400000,12.700000,42.500000,12.700000C44.500000,12.700000,44.500000,14.400000,44.500000,15.300000L44.500000,22.100000L48.200000,22.100000L48.200000,14.300000C48.200000,11.800000,47.500000,10.800000,46.800000,10.300000Z" fill="rgb(189,197,208)" stroke="none" stroke-width="1"/><path id="en354edd91cj23" d="M67.300000,10.900000L67.300000,9.600000L63.800000,9.600000L63.800000,22.100000L67.500000,22.100000L67.500000,15.200000C67.500000,13.300000,68.700000,12.900000,70.500000,12.900000L70.500000,9.200000C68.200000,9.200000,67.600000,10.300000,67.300000,10.900000Z" fill="rgb(189,197,208)" stroke="none" stroke-width="1"/><path id="en354edd91cj24" d="M113.700000,10.200000C113,9.600000,111.700000,9.100000,110.500000,9.100000C108.300000,9.100000,107.500000,10.300000,107.100000,10.900000L107.100000,9.600000L103.600000,9.600000L103.600000,22.100000L107.400000,22.100000L107.400000,15.300000C107.400000,14.500000,107.400000,12.700000,109.500000,12.700000C111.500000,12.700000,111.500000,14.400000,111.500000,15.300000L111.500000,22.100000L115.300000,22.100000L115.300000,14.300000C115.200000,11.800000,114.400000,10.800000,113.700000,10.200000Z" fill="rgb(189,197,208)" stroke="none" stroke-width="1"/><path id="en354edd91cj25" d="M56,9.200000C52.200000,9.200000,49.400000,12.400000,49.400000,15.900000C49.400000,19.600000,52.400000,22.500000,56,22.500000C57.300000,22.500000,58.500000,22.100000,59.600000,21.400000C60.700000,20.700000,61.500000,19.600000,62.100000,18.200000L58.300000,18.200000C57.800000,18.900000,57.200000,19.400000,56,19.400000C54.500000,19.400000,53.300000,18.500000,53.100000,17L62.500000,17C62.500000,16.700000,62.600000,16.500000,62.600000,16C62.600000,12.200000,59.800000,9.200000,56,9.200000ZM53.100000,14.500000C53.300000,13.800000,54,12.400000,55.900000,12.400000C57.800000,12.400000,58.600000,13.800000,58.700000,14.500000L53.100000,14.500000Z" fill="rgb(189,197,208)" stroke="none" stroke-width="1"/></g></g><g id="en354edd91cj26_ts" transform="translate(64.999997,15) scale(1,0)"><g id="en354edd91cj26" transform="translate(-64.999997,-15)"><path id="en354edd91cj27" d="M18.500000,1.100000L18.500000,11.700000L16.300000,11.700000L16.300000,7.300000L11.500000,7.300000L11.500000,11.700000L9.300000,11.700000L9.300000,1.100000L11.500000,1.100000L11.500000,5.300000L16.300000,5.300000L16.300000,1.100000L18.500000,1.100000Z" fill="rgb(189,197,208)" stroke="none" stroke-width="1"/><path id="en354edd91cj28" d="M22,8.300000C22.200000,9.600000,23.100000,10.100000,24.200000,10.100000C25,10.100000,25.600000,9.900000,26.400000,9.400000L26.400000,11.200000C25.800000,11.700000,24.900000,11.900000,23.900000,11.900000C21.600000,11.900000,20,10.400000,20,7.900000C20,5.500000,21.500000,3.800000,23.600000,3.800000C25.800000,3.800000,27,5.400000,27,7.600000L27,8.300000L22,8.300000ZM22.100000,6.900000L25,6.900000C24.900000,6.100000,24.500000,5.500000,23.600000,5.500000C22.900000,5.500000,22.300000,6,22.100000,6.900000Z" fill="rgb(189,197,208)" stroke="none" stroke-width="1"/><path id="en354edd91cj29" d="M35.300000,8.900000L36.700000,4L38.800000,4L36.500000,11.700000L34.500000,11.700000L33.200000,7L31.900000,11.700000L29.900000,11.700000L27.600000,4L29.700000,4L31.100000,8.900000L32.400000,4L34,4L35.300000,8.900000Z" fill="rgb(189,197,208)" stroke="none" stroke-width="1"/><path id="en354edd91cj30" d="M46.500000,8.300000C46.700000,9.600000,47.600000,10.100000,48.700000,10.100000C49.500000,10.100000,50.100000,9.900000,50.900000,9.400000L50.900000,11.200000C50.300000,11.700000,49.400000,11.900000,48.400000,11.900000C46.100000,11.900000,44.500000,10.400000,44.500000,7.900000C44.500000,5.500000,46,3.800000,48.100000,3.800000C50.300000,3.800000,51.500000,5.400000,51.500000,7.600000L51.500000,8.300000L46.500000,8.300000ZM46.600000,6.900000L49.500000,6.900000C49.400000,6.100000,49,5.500000,48.100000,5.500000C47.400000,5.500000,46.800000,6,46.600000,6.900000Z" fill="rgb(189,197,208)" stroke="none" stroke-width="1"/><path id="en354edd91cj31" d="M68.800000,8L68.800000,11.700000L66.600000,11.700000L66.600000,1.100000L70.900000,1.100000C73.100000,1.100000,74.600000,2.300000,74.600000,4.600000C74.600000,6.800000,73.100000,8,70.900000,8L68.800000,8ZM70.800000,3L68.800000,3L68.800000,6.200000L70.800000,6.200000C71.900000,6.200000,72.500000,5.500000,72.500000,4.600000C72.500000,3.600000,71.900000,3,70.800000,3Z" fill="rgb(189,197,208)" stroke="none" stroke-width="1"/><path id="en354edd91cj32" d="M79.900000,6.900000C79.900000,6.200000,79.300000,5.700000,78.200000,5.700000C77.400000,5.700000,76.700000,5.900000,76.100000,6.300000L76.100000,4.500000C76.700000,4.200000,77.700000,3.900000,78.700000,3.900000C80.800000,3.900000,82,5,82,6.900000L82,11.800000L80,11.800000L80,11.400000C79.700000,11.700000,79,12,78.100000,12C76.500000,12,75.300000,11.100000,75.300000,9.500000C75.300000,8,76.600000,7,78.300000,7C79,7,79.700000,7.200000,80,7.400000L79.900000,6.900000L79.900000,6.900000ZM79.900000,9C79.700000,8.600000,79.100000,8.300000,78.500000,8.300000C77.800000,8.300000,77.100000,8.600000,77.100000,9.200000C77.100000,9.900000,77.800000,10.100000,78.500000,10.100000C79.100000,10.100000,79.700000,9.800000,79.900000,9.400000L79.900000,9Z" fill="rgb(189,197,208)" stroke="none" stroke-width="1"/><path id="en354edd91cj33" d="M87.400000,3.800000C88.200000,3.800000,88.900000,4,89.500000,4.400000L89.500000,6.300000C89,5.800000,88.400000,5.600000,87.700000,5.600000C86.600000,5.600000,85.700000,6.400000,85.700000,7.800000C85.700000,9.200000,86.600000,10,87.700000,10C88.400000,10,89,9.800000,89.500000,9.300000L89.500000,11.200000C88.900000,11.600000,88.200000,11.800000,87.400000,11.800000C85.200000,11.800000,83.500000,10.200000,83.500000,7.800000C83.500000,5.400000,85.200000,3.800000,87.400000,3.800000Z" fill="rgb(189,197,208)" stroke="none" stroke-width="1"/><path id="en354edd91cj34" d="M98.600000,11.700000L96.100000,11.700000L93.300000,8.200000L93.300000,11.700000L91.200000,11.700000L91.200000,0.500000L93.300000,0.500000L93.300000,7L96,4L98.600000,4L95.400000,7.500000L98.600000,11.700000Z" fill="rgb(189,197,208)" stroke="none" stroke-width="1"/><path id="en354edd91cj35" d="M103.600000,6.900000C103.600000,6.200000,103,5.700000,101.900000,5.700000C101.100000,5.700000,100.400000,5.900000,99.800000,6.300000L99.800000,4.500000C100.400000,4.200000,101.400000,3.900000,102.400000,3.900000C104.500000,3.900000,105.700000,5,105.700000,6.900000L105.700000,11.800000L103.700000,11.800000L103.700000,11.400000C103.400000,11.700000,102.700000,12,101.800000,12C100.200000,12,99,11.100000,99,9.500000C99,8,100.300000,7,102,7C102.700000,7,103.400000,7.200000,103.700000,7.400000L103.600000,6.900000L103.600000,6.900000ZM103.600000,9C103.400000,8.600000,102.800000,8.300000,102.200000,8.300000C101.500000,8.300000,100.800000,8.600000,100.800000,9.200000C100.800000,9.900000,101.500000,10.100000,102.200000,10.100000C102.800000,10.100000,103.400000,9.800000,103.600000,9.400000L103.600000,9Z" fill="rgb(189,197,208)" stroke="none" stroke-width="1"/><path id="en354edd91cj36" d="M112.400000,6.100000C112.100000,5.900000,111.700000,5.800000,111.300000,5.800000C110.600000,5.800000,110,6.200000,109.800000,6.900000L109.800000,11.700000L107.700000,11.700000L107.700000,4L109.800000,4L109.800000,4.800000C110.100000,4.200000,110.800000,3.900000,111.500000,3.900000C111.900000,3.900000,112.200000,4,112.300000,4L112.400000,6.100000L112.400000,6.100000Z" fill="rgb(189,197,208)" stroke="none" stroke-width="1"/><path id="en354edd91cj37" d="M118.500000,11.100000C118.200000,11.500000,117.400000,11.900000,116.600000,11.900000C114.400000,11.900000,113.100000,10.100000,113.100000,7.900000C113.100000,5.700000,114.400000,3.900000,116.600000,3.900000C117.400000,3.900000,118.200000,4.300000,118.500000,4.700000L118.500000,0.500000L120.700000,0.500000L120.700000,11.700000L118.500000,11.700000L118.500000,11.100000ZM118.500000,6.600000C118.300000,6.100000,117.700000,5.700000,117.100000,5.700000C115.900000,5.700000,115.300000,6.600000,115.300000,7.900000C115.300000,9.100000,116,10.100000,117.100000,10.100000C117.700000,10.100000,118.300000,9.700000,118.500000,9.200000L118.500000,6.600000Z" fill="rgb(189,197,208)" stroke="none" stroke-width="1"/><path id="en354edd91cj38" d="M43.300000,10.400000C42.700000,10.400000,42.300000,10,42.300000,9.400000L42.300000,9.400000L42.300000,1.200000L40.200000,1.200000L40.200000,8.800000L40.200000,9.300000L40.200000,9.400000C40.200000,11.100000,41.300000,12.100000,42.900000,12.100000C43.400000,12.100000,43.800000,12,44.100000,11.900000L44.100000,10.100000C43.800000,10.300000,43.600000,10.400000,43.300000,10.400000Z" fill="rgb(189,197,208)" stroke="none" stroke-width="1"/><path id="en354edd91cj39" d="M60.900000,6.100000L62.800000,6.100000L62.800000,4.300000L60.900000,4.300000L60.900000,1.200000L58.800000,1.200000L58.800000,4.300000L55.700000,4.300000L55.700000,1.200000L53.600000,1.200000L53.600000,4.300000L52.200000,4.300000L52.200000,6L53.600000,6L53.600000,8.800000L53.600000,9.300000L53.600000,9.400000C53.600000,11.100000,54.700000,12.100000,56.300000,12.100000C56.800000,12.100000,57.200000,12,57.500000,11.900000L57.500000,10.100000C57.300000,10.300000,57,10.300000,56.700000,10.300000C56.100000,10.300000,55.700000,9.900000,55.700000,9.300000L55.700000,9.300000L55.700000,6.100000L58.800000,6.100000L58.800000,8.900000L58.800000,9.400000L58.800000,9.500000C58.800000,11.200000,59.900000,12.200000,61.500000,12.200000C62,12.200000,62.400000,12.100000,62.700000,12L62.700000,10.200000C62.500000,10.400000,62.200000,10.400000,61.900000,10.400000C61.300000,10.400000,60.900000,10,60.900000,9.400000L60.900000,9.400000C60.900000,9.400000,60.900000,6.100000,60.900000,6.100000Z" fill="rgb(189,197,208)" stroke="none" stroke-width="1"/><path id="en354edd91cj40" d="M16.200000,15.900000L16.200000,17.100000L10.800000,17.100000L10.800000,20.500000L15.700000,20.500000L15.700000,21.700000L10.800000,21.700000L10.800000,25.300000L16.200000,25.300000L16.200000,26.500000L9.400000,26.500000L9.400000,15.900000L16.200000,15.900000Z" fill="rgb(189,197,208)" stroke="none" stroke-width="1"/><path id="en354edd91cj41" d="M18.300000,18.800000L19.600000,18.800000L19.600000,19.800000C20.100000,19.200000,20.900000,18.700000,21.900000,18.700000C23.700000,18.700000,24.600000,19.800000,24.600000,21.500000L24.600000,26.600000L23.300000,26.600000L23.300000,21.800000C23.300000,20.700000,22.800000,20,21.600000,20C20.700000,20,19.900000,20.600000,19.600000,21.400000L19.600000,26.600000L18.300000,26.600000L18.300000,18.800000Z" fill="rgb(189,197,208)" stroke="none" stroke-width="1"/><path id="en354edd91cj42" d="M32.900000,22.900000C33,24.700000,34.100000,25.500000,35.500000,25.500000C36.400000,25.500000,37,25.300000,37.700000,24.800000L37.700000,26C37.100000,26.500000,36.300000,26.700000,35.400000,26.700000C33.200000,26.700000,31.700000,25.200000,31.700000,22.800000C31.700000,20.400000,33.100000,18.700000,35.100000,18.700000C37.200000,18.700000,38.300000,20.200000,38.300000,22.500000L38.300000,23L32.900000,23L32.900000,22.900000ZM32.900000,21.900000L36.900000,21.900000C36.800000,20.800000,36.300000,19.800000,35,19.800000C34,19.800000,33.200000,20.500000,32.900000,21.900000Z" fill="rgb(189,197,208)" stroke="none" stroke-width="1"/><path id="en354edd91cj43" d="M43.900000,20.100000C43.700000,20,43.400000,19.900000,43,19.900000C42.200000,19.900000,41.500000,20.400000,41.200000,21.300000L41.200000,26.500000L40,26.500000L40,18.800000L41.300000,18.800000L41.300000,19.800000C41.600000,19.100000,42.400000,18.600000,43.200000,18.600000C43.500000,18.600000,43.800000,18.700000,43.900000,18.700000L43.900000,20.100000Z" fill="rgb(189,197,208)" stroke="none" stroke-width="1"/><path id="en354edd91cj44" d="M46.600000,29.500000L45.300000,29.500000L45.300000,18.800000L46.600000,18.800000L46.600000,19.700000C47,19.100000,47.800000,18.600000,48.800000,18.600000C51.100000,18.600000,52.300000,20.500000,52.300000,22.600000C52.300000,24.700000,51.100000,26.600000,48.800000,26.600000C47.800000,26.600000,47,26.100000,46.600000,25.500000L46.600000,29.500000ZM46.600000,24.300000C47,25.100000,47.800000,25.600000,48.600000,25.600000C50.100000,25.600000,50.900000,24.400000,50.900000,22.800000C50.900000,21.200000,50,20,48.600000,20C47.800000,20,47,20.500000,46.600000,21.300000L46.600000,24.300000Z" fill="rgb(189,197,208)" stroke="none" stroke-width="1"/><path id="en354edd91cj45" d="M58.200000,20.100000C58,20,57.700000,19.900000,57.300000,19.900000C56.500000,19.900000,55.800000,20.400000,55.500000,21.300000L55.500000,26.500000L54.200000,26.500000L54.200000,18.800000L55.500000,18.800000L55.500000,19.800000C55.800000,19.100000,56.600000,18.600000,57.400000,18.600000C57.700000,18.600000,58,18.700000,58.100000,18.700000L58.200000,20.100000L58.200000,20.100000Z" fill="rgb(189,197,208)" stroke="none" stroke-width="1"/><path id="en354edd91cj46" d="M60.500000,17.400000C60,17.400000,59.700000,17,59.700000,16.600000C59.700000,16.100000,60.100000,15.800000,60.500000,15.800000C61,15.800000,61.400000,16.200000,61.400000,16.600000C61.300000,17,60.900000,17.400000,60.500000,17.400000ZM61.100000,26.500000L59.800000,26.500000L59.800000,18.800000L61.100000,18.800000L61.100000,26.500000Z" fill="rgb(189,197,208)" stroke="none" stroke-width="1"/><path id="en354edd91cj47" d="M63,24.600000C63.700000,25.300000,64.600000,25.600000,65.500000,25.600000C66.400000,25.600000,67.100000,25.300000,67.100000,24.500000C67.100000,23.900000,66.700000,23.600000,66,23.400000L64.900000,23C63.700000,22.600000,63,22.100000,63,20.800000C63,19.400000,64.200000,18.600000,65.700000,18.600000C66.600000,18.600000,67.400000,18.800000,68,19.300000L68,20.700000C67.400000,20.200000,66.600000,19.800000,65.700000,19.800000C64.900000,19.800000,64.200000,20.100000,64.200000,20.800000C64.200000,21.400000,64.600000,21.600000,65.300000,21.900000L66.500000,22.300000C67.700000,22.700000,68.300000,23.400000,68.300000,24.500000C68.300000,25.900000,67,26.700000,65.400000,26.700000C64.400000,26.700000,63.400000,26.400000,62.900000,25.900000L62.900000,24.600000L63,24.600000Z" fill="rgb(189,197,208)" stroke="none" stroke-width="1"/><path id="en354edd91cj48" d="M71,22.900000C71.100000,24.700000,72.200000,25.500000,73.600000,25.500000C74.500000,25.500000,75.100000,25.300000,75.800000,24.800000L75.800000,26C75.200000,26.500000,74.400000,26.700000,73.500000,26.700000C71.300000,26.700000,69.800000,25.200000,69.800000,22.800000C69.800000,20.400000,71.200000,18.700000,73.200000,18.700000C75.300000,18.700000,76.400000,20.200000,76.400000,22.500000L76.400000,23L71,23L71,22.900000ZM71.100000,21.900000L75.100000,21.900000C75,20.800000,74.500000,19.800000,73.200000,19.800000C72.100000,19.800000,71.300000,20.500000,71.100000,21.900000Z" fill="rgb(189,197,208)" stroke="none" stroke-width="1"/><path id="en354edd91cj49" d="M29.900000,25.600000C29.100000,25.600000,28.600000,25.100000,28.600000,24.200000L28.600000,23.500000L28.600000,23.500000L28.600000,20L30.600000,20L30.600000,18.900000L28.600000,18.900000L28.600000,17L27.300000,17L27.300000,18.900000L25.500000,18.900000L25.500000,20L27.300000,20L27.300000,23.500000L27.300000,24.300000C27.300000,25.800000,28.300000,26.700000,29.700000,26.700000C30.100000,26.700000,30.400000,26.600000,30.700000,26.500000L30.700000,25.300000C30.500000,25.500000,30.200000,25.600000,29.900000,25.600000Z" fill="rgb(189,197,208)" stroke="none" stroke-width="1"/></g></g><g id="en354edd91cj50_ts" transform="translate(64.970034,14.963721) scale(1,0)"><g id="en354edd91cj50" transform="translate(-64.970034,-14.963721)"><path id="en354edd91cj51" d="M62.800000,12.500000C62,12.500000,61.300000,12.800000,60.900000,13.800000L60.800000,13.800000L61,12.600000L58.800000,12.600000L57.600000,21L59.800000,21L60.600000,16C60.700000,15.400000,60.900000,14.700000,61.600000,14.700000C62.200000,14.700000,62.100000,15.300000,62,15.900000L61.900000,16.300000L63.900000,16.300000L64,15.600000C64.200000,14.100000,64.300000,12.500000,62.800000,12.500000Z" fill="rgb(189,197,208)" stroke="none" stroke-width="1"/><path id="en354edd91cj52" d="M54.500000,12.500000C51.800000,12.500000,51.100000,13.600000,50.600000,16.800000C50.200000,20,50.700000,21.100000,53.300000,21.100000C54.200000,21.100000,55.100000,21,55.700000,20.600000C56.300000,20.200000,56.700000,19.500000,56.900000,18.200000L54.700000,18.200000C54.600000,19.100000,54.200000,19.200000,53.500000,19.200000C52.600000,19.200000,52.500000,18.800000,52.700000,17.300000L57,17.300000L57.100000,16.800000C57.600000,13.400000,57,12.500000,54.500000,12.500000ZM55.100000,15.700000L53,15.700000C53.100000,14.600000,53.400000,14.400000,54.200000,14.400000C54.900000,14.400000,55.300000,14.500000,55.100000,15.700000Z" fill="rgb(189,197,208)" stroke="none" stroke-width="1"/><path id="en354edd91cj53" d="M48,12.500000C47,12.500000,46.300000,12.900000,45.800000,14.200000L45.700000,14.200000L45.900000,12.600000L43.700000,12.600000L42.500000,21L44.700000,21L45.300000,16.500000C45.400000,15.400000,45.700000,14.700000,46.700000,14.700000C47.400000,14.700000,47.500000,15.100000,47.400000,15.900000L46.700000,21L48.900000,21L49.800000,15.200000C50,13.400000,49.500000,12.500000,48,12.500000Z" fill="rgb(189,197,208)" stroke="none" stroke-width="1"/><path id="en354edd91cj54" d="M31.300000,8.900000C28.500000,8.900000,26.700000,9.500000,26.100000,13.400000L25.700000,16.500000C25.200000,20.400000,26.600000,21,29.600000,21C33,21,33.900000,20.200000,34.500000,16.200000L34.800000,14.100000L30.500000,14.100000L30.200000,16.300000L32,16.300000C31.800000,17.900000,31.400000,18.300000,30.100000,18.300000C28.700000,18.300000,28.200000,18.100000,28.500000,16L28.800000,14.100000C29.100000,12.200000,29.300000,11.500000,31.100000,11.500000C31.900000,11.500000,32.700000,11.500000,32.600000,12.700000L35,12.700000C35.400000,9.500000,33.800000,8.900000,31.300000,8.900000Z" fill="rgb(189,197,208)" stroke="none" stroke-width="1"/><polygon id="en354edd91cj55" points="123,9 120.800000,9 120.500000,11.100000 122.700000,11.100000" fill="rgb(189,197,208)" stroke="none" stroke-width="1"/><path id="en354edd91cj56" d="M39.400000,12.500000C36.700000,12.500000,36,13.600000,35.500000,16.800000C35.100000,20,35.600000,21.100000,38.200000,21.100000C39.100000,21.100000,40,21,40.600000,20.600000C41.200000,20.200000,41.600000,19.500000,41.800000,18.200000L39.600000,18.200000C39.500000,19.100000,39.100000,19.200000,38.400000,19.200000C37.500000,19.200000,37.400000,18.800000,37.600000,17.300000L41.900000,17.300000L42,16.800000C42.500000,13.400000,41.900000,12.500000,39.400000,12.500000ZM39.900000,15.700000L37.800000,15.700000C37.900000,14.600000,38.200000,14.400000,39,14.400000C39.700000,14.400000,40.100000,14.500000,39.900000,15.700000Z" fill="rgb(189,197,208)" stroke="none" stroke-width="1"/><polygon id="en354edd91cj57" points="88.400000,11.600000 88.800000,9 81.900000,9 80.100000,21 87.100000,21 87.500000,18.300000 83.100000,18.300000 83.400000,16 87.500000,16 87.800000,13.800000 83.700000,13.800000 84,11.600000" fill="rgb(189,197,208)" stroke="none" stroke-width="1"/><path id="en354edd91cj58" d="M110.200000,14.600000L112.700000,14.600000L113,12.600000L110.500000,12.600000L110.800000,10.800000L108.600000,10.800000L108.300000,12.600000L107.500000,12.600000L107.200000,14.600000L108,14.600000L107.400000,18.700000C107.100000,20.800000,108.200000,21,109.600000,21C111.400000,21,112.200000,20.500000,112.500000,18.200000L112.600000,17.500000L110.900000,17.500000L110.800000,17.900000C110.700000,18.500000,110.700000,19,110.100000,19C109.700000,19,109.600000,18.800000,109.700000,18.300000L110.200000,14.600000Z" fill="rgb(189,197,208)" stroke="none" stroke-width="1"/><path id="en354edd91cj59" d="M118,12.500000C117.200000,12.500000,116.500000,12.800000,116.100000,13.800000L116,13.800000L116.200000,12.600000L114.100000,12.600000L112.900000,21L115.100000,21L115.800000,16C115.900000,15.400000,116.100000,14.700000,116.800000,14.700000C117.400000,14.700000,117.300000,15.300000,117.200000,15.900000L117.100000,16.300000L119.100000,16.300000L119.200000,15.600000C119.400000,14.100000,119.500000,12.500000,118,12.500000Z" fill="rgb(189,197,208)" stroke="none" stroke-width="1"/><polygon id="en354edd91cj60" points="119.100000,21 121.300000,21 122.500000,12.600000 120.300000,12.600000" fill="rgb(189,197,208)" stroke="none" stroke-width="1"/><path id="en354edd91cj61" d="M129.400000,15.600000C129.800000,12.700000,128.500000,12.400000,126.600000,12.400000C123.900000,12.400000,123.200000,13.900000,122.800000,16.700000C122.300000,20,122.800000,21,125.400000,21C126.600000,21,127.300000,20.900000,127.900000,20.400000C128.500000,20,128.900000,19.200000,129.100000,17.600000L127,17.600000C126.900000,18.600000,126.800000,18.900000,125.800000,18.900000C125,18.900000,124.800000,18.700000,125.100000,16.700000C125.400000,14.800000,125.600000,14.500000,126.400000,14.500000C126.800000,14.500000,127.100000,14.500000,127.200000,14.700000C127.300000,14.900000,127.300000,15.200000,127.200000,15.600000L129.400000,15.600000Z" fill="rgb(189,197,208)" stroke="none" stroke-width="1"/><polygon id="en354edd91cj62" points="71.800000,21 74,21 75.700000,9 73.500000,9" fill="rgb(189,197,208)" stroke="none" stroke-width="1"/><polygon id="en354edd91cj63" points="90.400000,9 88.700000,21 90.900000,21 92.600000,9" fill="rgb(189,197,208)" stroke="none" stroke-width="1"/><path id="en354edd91cj64" d="M68.500000,12.400000C66.900000,12.400000,65.400000,12.400000,65,15L67.300000,15C67.400000,14.300000,67.800000,14.100000,68.300000,14.100000C69.200000,14.100000,69.200000,14.600000,69.100000,15.400000L68.900000,16.700000L68.800000,16.700000C68.700000,15.800000,67.700000,15.800000,67.100000,15.800000C65.500000,15.800000,64.600000,16.400000,64.300000,18.400000C63.900000,20.500000,64.800000,21,66.300000,21C67,21,68.100000,20.800000,68.400000,19.700000L68.200000,21L70.400000,21L71.200000,15.600000C71.600000,12.800000,70.700000,12.400000,68.500000,12.400000ZM68.500000,18.300000C68.400000,19.200000,68.100000,19.300000,67.200000,19.300000C66.900000,19.300000,66.300000,19.300000,66.400000,18.400000C66.500000,17.600000,67,17.500000,67.500000,17.500000C68.200000,17.500000,68.700000,17.600000,68.500000,18.300000Z" fill="rgb(189,197,208)" stroke="none" stroke-width="1"/><path id="en354edd91cj65" d="M96.500000,12.500000C93.800000,12.500000,93.100000,13.600000,92.600000,16.800000C92.200000,20,92.700000,21.100000,95.300000,21.100000C96.200000,21.100000,97.100000,21,97.700000,20.600000C98.300000,20.200000,98.700000,19.500000,98.900000,18.200000L96.700000,18.200000C96.600000,19.100000,96.200000,19.200000,95.500000,19.200000C94.600000,19.200000,94.500000,18.800000,94.700000,17.300000L99,17.300000L99.100000,16.800000C99.600000,13.400000,99,12.500000,96.500000,12.500000ZM97.100000,15.700000L95,15.700000C95.100000,14.600000,95.400000,14.400000,96.200000,14.400000C96.900000,14.400000,97.300000,14.500000,97.100000,15.700000Z" fill="rgb(189,197,208)" stroke="none" stroke-width="1"/><path id="en354edd91cj66" d="M103.700000,12.400000C101,12.400000,100.300000,13.900000,99.900000,16.700000C99.400000,20,99.900000,21,102.500000,21C103.700000,21,104.400000,20.900000,105,20.400000C105.600000,20,106,19.200000,106.200000,17.600000L104.100000,17.600000C104,18.600000,103.900000,18.900000,102.900000,18.900000C102.100000,18.900000,101.900000,18.700000,102.200000,16.700000C102.500000,14.800000,102.700000,14.500000,103.500000,14.500000C103.900000,14.500000,104.200000,14.500000,104.300000,14.700000C104.400000,14.900000,104.400000,15.200000,104.300000,15.600000L106.500000,15.600000C106.900000,12.700000,105.600000,12.400000,103.700000,12.400000Z" fill="rgb(189,197,208)" stroke="none" stroke-width="1"/><path id="en354edd91cj67" d="M10.100000,4.600000C12.200000,4.500000,14.300000,5,16.100000,6C17.500000,6.800000,18.800000,8,19.600000,9.400000C20.700000,11.100000,21.300000,13.100000,21.300000,15.100000C21.300000,17.200000,20.600000,19.300000,19.400000,21C18.200000,22.800000,16.300000,24.100000,14.300000,24.800000C12.500000,25.400000,10.500000,25.500000,8.600000,25.100000C6.600000,24.700000,4.800000,23.600000,3.400000,22.200000C1.900000,20.700000,0.900000,18.700000,0.600000,16.600000C0.300000,14.700000,0.500000,12.800000,1.300000,11C2,9.400000,3.100000,7.900000,4.500000,6.800000C6.100000,5.500000,8.100000,4.800000,10.100000,4.600000M10.100000,5.100000C8.900000,5.200000,7.700000,5.500000,6.600000,6.100000C4.800000,7,3.300000,8.300000,2.300000,10.100000C0.800000,12.600000,0.600000,15.700000,1.500000,18.400000C2.100000,20.200000,3.200000,21.700000,4.700000,22.900000C6.400000,24.200000,8.500000,25,10.700000,25C12.300000,25,13.900000,24.700000,15.300000,24C17.100000,23.100000,18.600000,21.700000,19.600000,19.900000C20.600000,18.200000,21,16.100000,20.800000,14.100000C20.500000,10.900000,18.500000,7.900000,15.700000,6.400000C14,5.400000,12,5,10.100000,5.100000Z" fill="rgb(189,197,208)" stroke="none" stroke-width="1"/><path id="en354edd91cj68" d="M8.400000,6.100000C10.100000,5.600000,12,5.600000,13.700000,6.200000C13.800000,6.200000,13.800000,6.300000,13.900000,6.300000C13.600000,6.300000,13.400000,6.200000,13.100000,6.100000C12.400000,6,11.700000,5.900000,11,6C10.500000,6.100000,10,6.200000,9.800000,6.600000C9.600000,6.900000,9.600000,7.300000,9.800000,7.600000C10.100000,7.900000,10.600000,7.900000,10.900000,7.600000C11.200000,7.400000,11.500000,7,12,6.900000C12.900000,6.700000,13.900000,6.900000,14.700000,7.100000C15.800000,7.400000,16.800000,7.900000,17.600000,8.600000C18.900000,9.800000,19.800000,11.500000,20.100000,13.300000C20.400000,14.800000,20.300000,16.400000,19.800000,17.800000C19.800000,17.900000,19.700000,17.900000,19.700000,17.900000C20,16.900000,20.200000,15.900000,20,14.800000C19.900000,14.300000,19.700000,13.800000,19.100000,13.600000C18.700000,13.500000,18.200000,13.700000,18.200000,14.200000C18.100000,14.700000,18.500000,15,18.700000,15.300000C19.200000,16,19.100000,17,19,17.800000C18.800000,18.900000,18.400000,20,17.700000,21C16.700000,22.500000,15,23.500000,13.200000,23.900000C11.700000,24.300000,10,24.300000,8.500000,23.900000C8.300000,23.800000,8.100000,23.800000,7.900000,23.700000C8.200000,23.700000,8.500000,23.800000,8.700000,23.900000C9.500000,24,10.300000,24.100000,11.100000,23.900000C11.500000,23.800000,11.800000,23.600000,12,23.300000C12.200000,23,12.200000,22.600000,11.900000,22.300000C11.700000,22.100000,11.300000,22,11,22.200000C10.700000,22.400000,10.400000,22.700000,10.100000,22.800000C9.400000,23.100000,8.600000,23.100000,7.900000,23C6.700000,22.800000,5.500000,22.300000,4.500000,21.500000C3.200000,20.500000,2.300000,19,1.900000,17.500000C1.400000,15.900000,1.400000,14.100000,1.900000,12.400000C2,12.400000,2,12.100000,2.200000,12C1.900000,13,1.700000,14,1.900000,15C2,15.400000,2.100000,15.900000,2.500000,16.200000C2.700000,16.400000,3.100000,16.500000,3.400000,16.300000C3.700000,16.100000,3.800000,15.700000,3.700000,15.400000C3.500000,15,3.200000,14.700000,3,14.400000C2.600000,13.700000,2.700000,13,2.800000,12.200000C3,11.100000,3.400000,10,4.100000,9C5.100000,7.500000,6.700000,6.500000,8.400000,6.100000M8.600000,9.600000C8,9.900000,7.600000,10.400000,7.400000,11C7.100000,11.600000,7,12.200000,6.900000,12.900000C6.600000,12.900000,6.400000,12.600000,6.300000,12.400000C6.200000,12,6.300000,11.600000,6.400000,11.200000C6.400000,11.100000,6.300000,11,6.300000,10.900000C6.100000,10.900000,5.800000,11,5.700000,11.200000C5.400000,11.800000,5.400000,12.600000,5.900000,13.100000C6.200000,13.400000,6.600000,13.600000,7,13.600000C7.100000,14,7.400000,14.400000,7.800000,14.600000C8.300000,14.800000,8.900000,14.600000,9.300000,14.300000C9.300000,14.500000,9.300000,14.600000,9.200000,14.800000C9,14.900000,8.800000,15,8.700000,15.100000C7.800000,15.600000,6.900000,16,6.200000,16.700000C5.700000,17.200000,5.200000,17.900000,5.200000,18.600000C5.200000,19.200000,5.400000,19.800000,5.900000,20.100000C6.400000,20.500000,7.100000,20.400000,7.700000,20.200000C8.400000,20,9,19.400000,9.300000,18.700000C9.800000,17.700000,9.900000,16.600000,10,15.600000C10,15.500000,10,15.300000,10.100000,15.200000C11,14.700000,11.800000,14.200000,12.600000,13.600000C12.700000,13.700000,12.800000,13.800000,12.900000,14C12.500000,14.200000,12.100000,14.500000,11.800000,14.900000C10.600000,16.200000,10.600000,18.400000,11.800000,19.600000C12.400000,20.300000,13.400000,20.500000,14.300000,20.400000C15.100000,20.300000,15.900000,19.800000,16.300000,19C16.900000,18.100000,16.800000,16.800000,16,16C15.300000,15.300000,14,15.300000,13.400000,16C12.900000,16.500000,12.900000,17.500000,13.400000,18C13.600000,18.200000,14,18.400000,14.300000,18.200000C14.500000,18.100000,14.500000,17.800000,14.300000,17.700000C14.100000,17.500000,13.900000,17.200000,14,16.900000C14.100000,16.500000,14.500000,16.200000,14.900000,16.300000C15.200000,16.400000,15.500000,16.600000,15.600000,16.900000C15.900000,17.600000,15.700000,18.400000,15.200000,19C14.700000,19.600000,13.700000,19.700000,13.100000,19.200000C12.500000,18.800000,12.200000,18.200000,12.100000,17.500000C12,16.700000,12.100000,15.800000,12.600000,15.200000C12.900000,14.800000,13.400000,14.500000,13.900000,14.300000C14.300000,14.300000,14.800000,14.400000,15.200000,14.300000C15.400000,14.200000,15.600000,14,15.500000,13.800000C15.400000,13.600000,15.100000,13.500000,14.900000,13.500000C14.600000,13.400000,14.200000,13.500000,13.900000,13.600000C13.700000,13.500000,13.600000,13.300000,13.500000,13.100000C14.100000,12.600000,14.800000,12.100000,15.200000,11.400000C15.400000,11,15.600000,10.500000,15.500000,10C15.400000,9.700000,15.200000,9.400000,14.800000,9.400000C14.300000,9.300000,13.700000,9.500000,13.300000,9.900000C12.700000,10.500000,12.400000,11.400000,12.400000,12.300000C12.400000,12.500000,12.500000,12.700000,12.400000,12.800000C12,13.200000,11.500000,13.500000,11,13.800000C10.700000,14,10.500000,14.100000,10.200000,14.300000C10.200000,14,10.200000,13.700000,10.300000,13.500000C10.500000,13.200000,10.800000,13,10.900000,12.600000C11,12.400000,11.100000,12.100000,11,11.900000C10.900000,11.700000,10.600000,11.700000,10.500000,11.800000C10,12,9.800000,12.400000,9.700000,12.800000C9.600000,13,9.600000,13.300000,9.400000,13.500000C9.100000,13.700000,8.700000,14,8.300000,14C8.100000,14,7.900000,13.800000,7.900000,13.600000C8.600000,13.300000,9.100000,12.900000,9.600000,12.300000C10,11.800000,10.300000,11.100000,10.400000,10.500000C10.400000,10.200000,10.300000,9.800000,10,9.600000C9.500000,9.300000,9,9.400000,8.600000,9.600000Z" fill="rgb(189,197,208)" stroke="none" stroke-width="1"/><path id="en354edd91cj69" d="M9,10.200000C9.200000,10.100000,9.400000,10.100000,9.500000,10.300000C9.600000,10.500000,9.500000,10.800000,9.400000,11C9.100000,11.600000,8.700000,12.100000,8.200000,12.500000C8.100000,12.600000,7.900000,12.700000,7.800000,12.800000C7.800000,12.300000,8,11.800000,8.200000,11.400000C8.400000,10.900000,8.600000,10.500000,9,10.200000Z" fill="rgb(189,197,208)" stroke="none" stroke-width="1"/><path id="en354edd91cj70" d="M13.900000,10.400000C14,10.200000,14.300000,10.100000,14.500000,10.200000C14.700000,10.300000,14.600000,10.600000,14.500000,10.800000C14.200000,11.400000,13.700000,11.900000,13.200000,12.300000C13.200000,11.600000,13.500000,10.900000,13.900000,10.400000Z" fill="rgb(189,197,208)" stroke="none" stroke-width="1"/><path id="en354edd91cj71" d="M7.200000,17C7.800000,16.500000,8.400000,16.100000,9.100000,15.800000C9,16.600000,8.800000,17.300000,8.600000,18C8.400000,18.600000,8,19.200000,7.400000,19.400000C7.100000,19.500000,6.700000,19.600000,6.400000,19.300000C6.100000,19.100000,6.200000,18.700000,6.200000,18.400000C6.300000,17.800000,6.800000,17.400000,7.200000,17Z" fill="rgb(189,197,208)" stroke="none" stroke-width="1"/></g></g></svg>