<?xml version="1.0" encoding="utf-8"?>
<!-- Generator: Adobe Illustrator 23.0.1, SVG Export Plug-In . SVG Version: 6.00 Build 0)  -->
<svg version="1.1" id="Layer_1" xmlns="http://www.w3.org/2000/svg" xmlns:xlink="http://www.w3.org/1999/xlink" x="0px" y="0px"
	 width="76px" height="97px" viewBox="0 0 76 97" style="enable-background:new 0 0 76 97;" xml:space="preserve">
<style type="text/css">
	.st0{fill:#FFFFFF;}
	.st1{fill:url(#SVGID_1_);}
	.st2{fill:url(#SVGID_2_);}
	.st3{fill:url(#SVGID_3_);}
</style>
<g>
	<g>
		<g>
			<path class="st0" d="M12.8,59.8c1.5,0,2.8,0.2,3.9,0.6c1.1,0.4,2.1,1,2.9,1.7v5.1c-0.6-0.4-1.2-0.9-1.8-1.3
				c-0.6-0.4-1.3-0.7-2.1-1c-0.8-0.3-1.7-0.4-2.8-0.4c-1.4,0-2.8,0.3-3.9,1c-1.2,0.7-2.1,1.6-2.8,2.8c-0.7,1.2-1,2.5-1,4.1
				c0,1.5,0.3,2.8,1,4s1.6,2.1,2.8,2.8c1.2,0.7,2.5,1,3.9,1c1.6,0,3-0.2,4.1-0.7s2.1-1.1,3-1.8v4.9c-0.8,0.7-1.8,1.3-3.1,1.8
				c-1.2,0.4-2.6,0.7-4.1,0.7c-1.7,0-3.4-0.3-4.9-0.9S5,82.7,3.8,81.6s-2.1-2.5-2.8-4s-1-3.3-1-5.1c0-1.9,0.3-3.6,1-5.1
				s1.6-2.9,2.8-4s2.5-2,4.1-2.6C9.4,60.1,11.1,59.8,12.8,59.8z"/>
			<path class="st0" d="M50,60.1v24.4h-5V69.8l-6.2,6.8h-1.4L31,69.8v14.8h-5V60.1h1.7L38,70.9l10.3-10.8C48.3,60.1,50,60.1,50,60.1
				z"/>
			<path class="st0" d="M68.8,59.8c1.5,0,2.8,0.2,3.9,0.6c1.1,0.4,2.1,1,2.9,1.7v5.1c-0.6-0.4-1.2-0.9-1.8-1.3
				c-0.6-0.4-1.3-0.7-2.1-1c-0.8-0.3-1.7-0.4-2.8-0.4c-1.4,0-2.8,0.3-3.9,1c-1.2,0.7-2.1,1.6-2.8,2.8c-0.7,1.2-1,2.5-1,4.1
				c0,1.5,0.3,2.8,1,4s1.6,2.1,2.8,2.8c1.2,0.7,2.5,1,3.9,1c1.6,0,3-0.2,4.1-0.7s2.1-1.1,3-1.8v4.9c-0.8,0.7-1.8,1.3-3.1,1.8
				c-1.2,0.4-2.6,0.7-4.1,0.7c-1.7,0-3.4-0.3-4.9-0.9s-2.9-1.5-4.1-2.6c-1.2-1.1-2.1-2.5-2.8-4s-1-3.3-1-5.1c0-1.9,0.3-3.6,1-5.1
				s1.6-2.9,2.8-4s2.5-2,4.1-2.6C65.4,60.1,67.1,59.8,68.8,59.8z"/>
		</g>
		<g>
			<path class="st0" d="M6.9,96.4c-0.4,0-0.8,0-1.2,0H5.2l2.7-7.6c0.1-0.3,0.2-0.5,0.2-0.6s0-0.1,0-0.1l0,0c0.3,0,0.6,0,0.9,0
				c0.2,0,0.5,0,0.9,0l0,0c0,0,0,0,0,0.1s0.1,0.3,0.2,0.6l2.8,7.6c-0.1,0-0.2,0-0.3,0h-0.3c-0.1,0-0.2,0-0.3,0h-1l-0.6-1.8H7.5
				L6.9,96.4z M9.8,93.1l-0.9-2.9L8,93.1H9.8z"/>
			<path class="st0" d="M31.7,88.6l-0.1,1.8l0,0c-0.3-0.5-0.8-0.8-1.6-0.9c-0.2,0-0.5-0.1-0.7-0.1s-0.4,0-0.5,0.1
				c-0.2,0-0.3,0.1-0.4,0.2c-0.2,0.1-0.3,0.3-0.3,0.6c0,0.3,0.1,0.6,0.3,0.7c0.2,0.2,0.7,0.3,1.2,0.4c0.6,0.1,1,0.2,1.4,0.3
				c0.3,0.1,0.6,0.3,0.9,0.5c0.4,0.4,0.6,0.9,0.6,1.6c0,0.9-0.3,1.6-1,2.1c-0.6,0.4-1.3,0.6-2.2,0.6c-0.7,0-1.4-0.1-2.1-0.4
				c-0.2-0.1-0.4-0.2-0.6-0.3l0.1-2.1l0,0c0.5,0.9,1.4,1.3,2.5,1.3c0.8,0,1.4-0.2,1.7-0.6c0.1-0.1,0.1-0.3,0.1-0.5s0-0.3-0.1-0.4
				s-0.1-0.2-0.3-0.3c-0.2-0.2-0.6-0.3-1.2-0.3s-1-0.2-1.4-0.3c-0.4-0.1-0.6-0.3-0.9-0.6c-0.4-0.4-0.6-1-0.6-1.7s0.3-1.3,0.8-1.8
				s1.2-0.7,2.1-0.7S31.1,88.2,31.7,88.6z"/>
			<path class="st0" d="M47.3,88.1c0.4,0,0.7,0,0.8,0h0.4c0.2,0,0.4,0,0.5,0v8.3h-1.7V88.1z"/>
			<path class="st0" d="M65,96.4c-0.4,0-0.8,0-1.2,0h-0.5l2.7-7.6c0.1-0.3,0.2-0.5,0.2-0.6s0-0.1,0-0.1l0,0c0.3,0,0.6,0,0.9,0
				c0.2,0,0.5,0,0.9,0l0,0c0,0,0,0,0,0.1s0.1,0.3,0.2,0.6l2.8,7.6c-0.1,0-0.2,0-0.3,0h-0.3c-0.1,0-0.2,0-0.3,0h-1l-0.6-1.8h-2.8
				L65,96.4z M67.9,93.1L67,90.2l-1,2.9H67.9z"/>
		</g>
	</g>
	<g>
		
			<linearGradient id="SVGID_1_" gradientUnits="userSpaceOnUse" x1="24.1284" y1="98.4393" x2="24.9705" y2="46.7341" gradientTransform="matrix(1 0 0 -1 0 98)">
			<stop  offset="0" style="stop-color:#FF5B4A"/>
			<stop  offset="1" style="stop-color:#AF1101"/>
		</linearGradient>
		<path class="st1" d="M38,25.5L13.4,50.1c-0.8,0.8-2.3,0.2-2.3-1V26c0-0.4,0.1-0.7,0.4-1L35.7,0.9C36.6,0,38,0.6,38,1.8V25.5z"/>
		
			<linearGradient id="SVGID_2_" gradientUnits="userSpaceOnUse" x1="31.9574" y1="53.8929" x2="44.4235" y2="64.821" gradientTransform="matrix(1 0 0 -1 0 98)">
			<stop  offset="0" style="stop-color:#FF5B4A"/>
			<stop  offset="1" style="stop-color:#AF1101"/>
		</linearGradient>
		<path class="st2" d="M51.5,38.9L40.3,50.1c-0.8,0.8-2.3,0.2-2.3-1V25.5L51.5,38.9z"/>
		
			<linearGradient id="SVGID_3_" gradientUnits="userSpaceOnUse" x1="51.2135" y1="98.8804" x2="52.0556" y2="47.1752" gradientTransform="matrix(1 0 0 -1 0 98)">
			<stop  offset="0" style="stop-color:#FF5B4A"/>
			<stop  offset="1" style="stop-color:#AF1101"/>
		</linearGradient>
		<path class="st3" d="M64.9,49.1V1.8c0-1.2-1.4-1.8-2.3-0.9L38,25.5l24.6,24.6C63.5,50.9,64.9,50.3,64.9,49.1z"/>
	</g>
</g>
</svg>
