<?xml version="1.0" encoding="utf-8"?>
<!-- Generator: Adobe Illustrator 23.0.1, SVG Export Plug-In . SVG Version: 6.00 Build 0)  -->
<svg version="1.1" id="Layer_1" xmlns="http://www.w3.org/2000/svg" xmlns:xlink="http://www.w3.org/1999/xlink" x="0px" y="0px"
	 width="127px" height="40px" viewBox="0 0 127 40" style="enable-background:new 0 0 127 40;" xml:space="preserve">
<style type="text/css">
	.st0{fill:#243E63;}
	.st1{fill:url(#SVGID_1_);}
	.st2{fill:url(#SVGID_2_);}
	.st3{fill:url(#SVGID_3_);}
</style>
<g>
	<g>
		<g>
			<path class="st0" d="M63.4,1.6c1.5,0,2.8,0.2,3.9,0.6c1.1,0.4,2.1,1,2.9,1.7V9c-0.6-0.4-1.2-0.9-1.8-1.3c-0.6-0.4-1.3-0.7-2.1-1
				c-0.8-0.3-1.7-0.4-2.8-0.4c-1.4,0-2.8,0.3-3.9,1c-1.2,0.7-2.1,1.6-2.8,2.8c-0.7,1.2-1,2.5-1,4.1c0,1.5,0.3,2.8,1,4
				c0.7,1.2,1.6,2.1,2.8,2.8c1.2,0.7,2.5,1,3.9,1c1.6,0,3-0.2,4.1-0.7c1.1-0.5,2.1-1.1,3-1.8v4.9c-0.8,0.7-1.8,1.3-3.1,1.8
				c-1.2,0.4-2.6,0.7-4.1,0.7c-1.7,0-3.4-0.3-4.9-0.9c-1.5-0.6-2.9-1.5-4.1-2.6c-1.2-1.1-2.1-2.5-2.8-4c-0.7-1.5-1-3.3-1-5.1
				c0-1.9,0.3-3.6,1-5.1c0.7-1.5,1.6-2.9,2.8-4c1.2-1.1,2.5-2,4.1-2.6C60,1.9,61.7,1.6,63.4,1.6z"/>
			<path class="st0" d="M100.6,2v24.4h-5V11.6l-6.2,6.8h-1.4l-6.3-6.8v14.8h-5V2h1.7l10.3,10.8L98.9,2H100.6z"/>
			<path class="st0" d="M119.4,1.6c1.5,0,2.8,0.2,3.9,0.6c1.1,0.4,2.1,1,2.9,1.7V9c-0.6-0.4-1.2-0.9-1.8-1.3c-0.6-0.4-1.3-0.7-2.1-1
				c-0.8-0.3-1.7-0.4-2.8-0.4c-1.4,0-2.8,0.3-3.9,1c-1.2,0.7-2.1,1.6-2.8,2.8c-0.7,1.2-1,2.5-1,4.1c0,1.5,0.3,2.8,1,4
				c0.7,1.2,1.6,2.1,2.8,2.8c1.2,0.7,2.5,1,3.9,1c1.6,0,3-0.2,4.1-0.7c1.1-0.5,2.1-1.1,3-1.8v4.9c-0.8,0.7-1.8,1.3-3.1,1.8
				c-1.2,0.4-2.6,0.7-4.1,0.7c-1.7,0-3.4-0.3-4.9-0.9c-1.5-0.6-2.9-1.5-4.1-2.6c-1.2-1.1-2.1-2.5-2.8-4c-0.7-1.5-1-3.3-1-5.1
				c0-1.9,0.3-3.6,1-5.1c0.7-1.5,1.6-2.9,2.8-4c1.2-1.1,2.5-2,4.1-2.6C116,1.9,117.7,1.6,119.4,1.6z"/>
		</g>
		<g>
			<path class="st0" d="M57.5,38.3c-0.4,0-0.8,0-1.2,0h-0.5l2.7-7.6c0.1-0.3,0.2-0.5,0.2-0.6c0-0.1,0-0.1,0-0.1l0,0
				c0.3,0,0.6,0,0.9,0c0.2,0,0.5,0,0.9,0l0,0c0,0,0,0,0,0.1c0,0.1,0.1,0.3,0.2,0.6l2.8,7.6c-0.1,0-0.2,0-0.3,0l-0.3,0
				c-0.1,0-0.2,0-0.3,0h-1l-0.6-1.8h-2.8L57.5,38.3z M60.5,34.9l-0.9-2.9l-0.9,2.9H60.5z"/>
			<path class="st0" d="M82.3,30.4l-0.1,1.8l0,0c-0.3-0.5-0.8-0.8-1.6-0.9c-0.2,0-0.5-0.1-0.7-0.1s-0.4,0-0.5,0.1
				c-0.2,0-0.3,0.1-0.4,0.2c-0.2,0.1-0.3,0.3-0.3,0.6c0,0.3,0.1,0.6,0.3,0.7c0.2,0.2,0.7,0.3,1.2,0.4c0.6,0.1,1,0.2,1.4,0.3
				c0.3,0.1,0.6,0.3,0.9,0.5c0.4,0.4,0.6,0.9,0.6,1.6c0,0.9-0.3,1.6-1,2.1c-0.6,0.4-1.3,0.6-2.2,0.6c-0.7,0-1.4-0.1-2.1-0.4
				c-0.2-0.1-0.4-0.2-0.6-0.3l0.1-2.1l0,0c0.5,0.9,1.4,1.3,2.5,1.3c0.8,0,1.4-0.2,1.7-0.6c0.1-0.1,0.1-0.3,0.1-0.5
				c0-0.2,0-0.3-0.1-0.4c-0.1-0.1-0.1-0.2-0.3-0.3c-0.2-0.2-0.6-0.3-1.2-0.3c-0.6-0.1-1-0.2-1.4-0.3s-0.6-0.3-0.9-0.6
				c-0.4-0.4-0.6-1-0.6-1.7c0-0.7,0.3-1.3,0.8-1.8c0.5-0.5,1.2-0.7,2.1-0.7C80.9,29.8,81.7,30,82.3,30.4z"/>
			<path class="st0" d="M97.9,29.9c0.4,0,0.7,0,0.8,0h0.4c0.2,0,0.4,0,0.5,0l0,8.3h-1.7V29.9z"/>
			<path class="st0" d="M115.6,38.3c-0.4,0-0.8,0-1.2,0h-0.5l2.7-7.6c0.1-0.3,0.2-0.5,0.2-0.6c0-0.1,0-0.1,0-0.1l0,0
				c0.3,0,0.6,0,0.9,0c0.2,0,0.5,0,0.9,0l0,0c0,0,0,0,0,0.1c0,0.1,0.1,0.3,0.2,0.6l2.8,7.6c-0.1,0-0.2,0-0.3,0l-0.3,0
				c-0.1,0-0.2,0-0.3,0h-1l-0.6-1.8h-2.8L115.6,38.3z M118.5,34.9l-0.9-2.9l-0.9,2.9H118.5z"/>
		</g>
	</g>
	<g>
		<linearGradient id="SVGID_1_" gradientUnits="userSpaceOnUse" x1="10.8099" y1="-0.7331" x2="11.4835" y2="40.631">
			<stop  offset="0" style="stop-color:#FF5B4A"/>
			<stop  offset="1" style="stop-color:#AF1101"/>
		</linearGradient>
		<path class="st1" d="M21.9,20L2.2,39.7c-0.7,0.7-1.8,0.2-1.8-0.8V20.4c0-0.3,0.1-0.6,0.3-0.8L20.1,0.3c0.7-0.7,1.8-0.2,1.8,0.8V20
			z"/>
		<linearGradient id="SVGID_2_" gradientUnits="userSpaceOnUse" x1="17.0628" y1="34.8941" x2="27.0357" y2="26.1517">
			<stop  offset="0" style="stop-color:#FF5B4A"/>
			<stop  offset="1" style="stop-color:#AF1101"/>
		</linearGradient>
		<path class="st2" d="M32.7,30.8l-8.9,8.9c-0.7,0.7-1.8,0.2-1.8-0.8V20L32.7,30.8z"/>
		<linearGradient id="SVGID_3_" gradientUnits="userSpaceOnUse" x1="32.4772" y1="-1.086" x2="33.1509" y2="40.2781">
			<stop  offset="0" style="stop-color:#FF5B4A"/>
			<stop  offset="1" style="stop-color:#AF1101"/>
		</linearGradient>
		<path class="st3" d="M43.4,38.9V1.1c0-1-1.1-1.4-1.8-0.8L21.9,20l19.7,19.7C42.3,40.4,43.4,39.9,43.4,38.9z"/>
	</g>
</g>
</svg>
