<?xml version="1.0" encoding="utf-8"?>
<!-- Generator: Adobe Illustrator 23.0.1, SVG Export Plug-In . SVG Version: 6.00 Build 0)  -->
<svg version="1.1" id="Layer_1" xmlns="http://www.w3.org/2000/svg" xmlns:xlink="http://www.w3.org/1999/xlink" x="0px" y="0px"
	 width="200px" height="200px" viewBox="0 0 200 200" style="enable-background:new 0 0 200 200;" xml:space="preserve">
<style type="text/css">
	.st0{fill:url(#SVGID_1_);}
	.st1{fill:url(#SVGID_2_);}
	.st2{fill:url(#SVGID_3_);}
</style>
<g>
	<g>
		
			<linearGradient id="SVGID_1_" gradientUnits="userSpaceOnUse" x1="48.9965" y1="195.3855" x2="52.0958" y2="5.0858" gradientTransform="matrix(1 0 0 -1 0 200)">
			<stop  offset="0" style="stop-color:#FF5B4A"/>
			<stop  offset="1" style="stop-color:#AF1101"/>
		</linearGradient>
		<path class="st0" d="M100,100L9.5,190.6c-3.1,3.1-8.5,0.9-8.5-3.5v-85c0-1.3,0.5-2.6,1.4-3.5L91.6,9.4c3.1-3.1,8.5-0.9,8.5,3.5
			L100,100L100,100z"/>
		
			<linearGradient id="SVGID_2_" gradientUnits="userSpaceOnUse" x1="77.6948" y1="31.5011" x2="123.576" y2="71.7217" gradientTransform="matrix(1 0 0 -1 0 200)">
			<stop  offset="0" style="stop-color:#FF5B4A"/>
			<stop  offset="1" style="stop-color:#AF1101"/>
		</linearGradient>
		<path class="st1" d="M149.5,149.5l-41.1,41.1c-3.1,3.1-8.5,0.9-8.5-3.5V100L149.5,149.5z"/>
		
			<linearGradient id="SVGID_3_" gradientUnits="userSpaceOnUse" x1="148.6289" y1="197.0082" x2="151.7283" y2="6.7085" gradientTransform="matrix(1 0 0 -1 0 200)">
			<stop  offset="0" style="stop-color:#FF5B4A"/>
			<stop  offset="1" style="stop-color:#AF1101"/>
		</linearGradient>
		<path class="st2" d="M199,187.1V13c0-4.4-5.3-6.6-8.4-3.5L100,100l90.5,90.6C193.7,193.7,199,191.5,199,187.1z"/>
	</g>
</g>
</svg>
