<?xml version="1.0" encoding="utf-8"?>
<!-- Generator: Adobe Illustrator 23.0.1, SVG Export Plug-In . SVG Version: 6.00 Build 0)  -->
<svg version="1.1" xmlns="http://www.w3.org/2000/svg" xmlns:xlink="http://www.w3.org/1999/xlink" x="0px" y="0px" width="250px"
	 height="200px" viewBox="0 0 250 200" style="enable-background:new 0 0 250 200;" xml:space="preserve">
<style type="text/css">
	.st0{fill:#FBF2F1;}
	.st1{fill:#F4D4CF;}
	.st2{opacity:0.15;}
	.st3{fill:#F7E3E0;}
	.st4{fill:#FDF9F8;}
	.st5{fill:#801608;}
	.st6{fill:#AC2A1C;}
	.st7{fill:#E06657;}
	.st8{fill:#6F1508;}
	.st9{fill:#F5F5F5;}
	.st10{clip-path:url(#SVGID_2_);}
	.st11{fill:#481107;}
	.st12{fill:#6A1508;}
	.st13{fill:#A21F11;}
	.st14{fill:#BD3A2B;}
	.st15{fill:#D75445;}
	.st16{opacity:0.6;}
	.st17{fill:#FFFFFF;}
	.st18{fill:#EFC1BB;}
	.st19{fill:#263238;}
	.st20{fill:#EDB6AF;}
	.st21{fill:#8C1708;}
	.st22{fill:#771608;}
	.st23{fill:#9D1B0C;}
</style>
<g id="Background_Complete">
	<g>
		<g>
			<g>
				<g>
					<g>
						<rect x="97.8" y="153.2" class="st0" width="60.9" height="28.1"/>
					</g>
				</g>
			</g>
			<g>
				<g>
					<path class="st1" d="M157.2,179.9h-58v-25.3h58V179.9z M99.6,179.5h57.3V155H99.6V179.5z"/>
				</g>
			</g>
			<g>
				<g>
					<g>
						<rect x="158.7" y="153.1" class="st1" width="14.9" height="28.1"/>
					</g>
				</g>
			</g>
			<g>
				<g>
					<g>
						<path class="st1" d="M99.4,162.4c6.5,0,13,0,19.6,0c10.3,0,20.6,0,30.9,0c2.4,0,4.8,0,7.2,0c0.1,0,0.1-0.2,0-0.2
							c-6.5,0-13,0-19.6,0c-10.3,0-20.6,0-30.9,0c-2.4,0-4.8,0-7.2,0C99.3,162.3,99.3,162.4,99.4,162.4L99.4,162.4z"/>
					</g>
				</g>
			</g>
			<g>
				<g>
					<g>
						<path class="st1" d="M128.4,162.4c0.2-2.5,0.2-5.1,0-7.6c0-0.1-0.1-0.1-0.2,0c-0.1,2.5-0.2,5.1,0,7.6
							C128.3,162.4,128.4,162.4,128.4,162.4L128.4,162.4z"/>
					</g>
				</g>
			</g>
			<g>
				<g>
					<g>
						<path class="st1" d="M143.9,158.6c0,0.4-0.4,0.8-0.8,0.8c-0.4,0-0.8-0.4-0.8-0.8c0-0.4,0.4-0.8,0.8-0.8
							C143.6,157.8,143.9,158.1,143.9,158.6z"/>
					</g>
				</g>
			</g>
			<g>
				<g>
					<g>
						<path class="st1" d="M113.7,158.6c0,0.4-0.4,0.8-0.8,0.8c-0.4,0-0.8-0.4-0.8-0.8c0-0.4,0.4-0.8,0.8-0.8
							C113.3,157.8,113.7,158.1,113.7,158.6z"/>
					</g>
				</g>
			</g>
			<g class="st2">
				<g>
					<path class="st1" d="M129,167.3c0,0.4-0.4,0.8-0.8,0.8c-0.4,0-0.8-0.4-0.8-0.8s0.4-0.8,0.8-0.8
						C128.7,166.5,129,166.8,129,167.3z"/>
				</g>
			</g>
			<g>
				<g>
					<g>
						<polygon class="st1" points="105.1,181.2 102,198.8 103.7,198.8 109.5,181.2 						"/>
					</g>
				</g>
			</g>
			<g>
				<g>
					<g>
						<polygon class="st1" points="154.4,181.2 157,198.8 155.2,198.8 150,181.2 						"/>
					</g>
				</g>
			</g>
			<g>
				<g>
					<g>
						<polygon class="st1" points="166.1,181.2 169.1,198.8 167.3,198.8 161.7,181.2 						"/>
					</g>
				</g>
			</g>
			<g>
				<g>
					<g>
						<path class="st1" d="M129,175.2c0,0.4-0.4,0.8-0.8,0.8c-0.4,0-0.8-0.4-0.8-0.8c0-0.4,0.4-0.8,0.8-0.8
							C128.6,174.4,129,174.8,129,175.2z"/>
					</g>
				</g>
			</g>
			<g>
				<g>
					<g>
						<path class="st1" d="M99.4,171.1c6.5,0,13,0,19.6,0c10.3,0,20.6,0,30.9,0c2.4,0,4.8,0,7.2,0c0.1,0,0.1-0.2,0-0.2
							c-6.5,0-13,0-19.6,0c-10.3,0-20.6,0-30.9,0c-2.4,0-4.8,0-7.2,0C99.3,171,99.3,171.1,99.4,171.1L99.4,171.1z"/>
					</g>
				</g>
			</g>
		</g>
	</g>
	<rect x="1.9" y="36.5" class="st3" width="24.4" height="32.7"/>
	<rect x="3.2" y="37.8" class="st4" width="21.9" height="30.2"/>
	<rect x="10.3" y="48.2" class="st3" width="8.3" height="9.5"/>
	<g>
		<g>
			<g>
				<g>
					<g>
						<g>
							<polygon class="st3" points="137.8,137.2 136.2,152.6 157.5,152.6 159.2,137.2 							"/>
						</g>
					</g>
				</g>
			</g>
			<g>
				<g>
					<g>
						<g>
							<polygon class="st4" points="138.7,138.3 137.1,151.8 156.3,151.8 157.9,138.3 							"/>
						</g>
					</g>
				</g>
			</g>
			<g>
				<g>
					<g>
						<g>
							<polygon class="st1" points="141.9,140.6 140.9,149.6 153.1,149.6 153.7,140.6 							"/>
						</g>
					</g>
				</g>
			</g>
		</g>
	</g>
	<polyline class="st0" points="158.5,143.9 162.9,152.7 157.5,152.6 158.6,143.3 	"/>
</g>
<g id="Floor">
	<g>
		<g>
			<path class="st5" d="M247.4,198.8c0,0.1-18,0.1-99.3,0.1C66.9,198.9,1,198.8,1,198.8s65.9-0.1,147.2-0.1
				C229.4,198.6,247.4,198.7,247.4,198.8z"/>
		</g>
	</g>
</g>
<g id="Loading">
	<g>
		<g>
			<g>
				<g>
					<g>
						<rect x="30.5" y="13.1" class="st3" width="176" height="115.9"/>
					</g>
				</g>
				<g>
					<g>
						<path class="st6" d="M206.5,129c0-0.8,0-45.2-0.1-115.9l0.1,0.1c-48.3,0-109.6,0-176,0h0l0.1-0.1c0,41.2,0,80.4,0,115.9
							l-0.1-0.1C134.1,128.9,205.5,129,206.5,129c-1,0-72.4,0-176,0.1l-0.1,0V129c0-35.4,0-74.6,0-115.9V13h0.1h0
							c66.4,0,127.7,0,176,0l0.1,0l0,0.1C206.5,83.8,206.5,128.2,206.5,129z"/>
					</g>
				</g>
			</g>
			<g>
				<g>
					<path class="st6" d="M206.5,23.4c0,0.1-39.4,0.1-88,0.1c-48.6,0-88-0.1-88-0.1c0-0.1,39.4-0.1,88-0.1
						C167.1,23.3,206.5,23.4,206.5,23.4z"/>
				</g>
			</g>
		</g>
		<g>
			<g>
				<rect x="46.9" y="40.6" class="st1" width="147.5" height="20.2"/>
			</g>
		</g>
		<g>
			<g>
				<g>
					<rect x="43.1" y="96.1" class="st1" width="32.8" height="32.8"/>
				</g>
			</g>
		</g>
		<g>
			<g>
				<g>
					<rect x="81.8" y="96.1" class="st1" width="32.8" height="32.8"/>
				</g>
			</g>
		</g>
		<g>
			<g>
				<rect x="119.4" y="96.1" class="st1" width="32.8" height="32.8"/>
			</g>
		</g>
		<g>
			<g>
				<g>
					<path class="st7" d="M102.9,82.2H67.4c-3,0-5.4-2.4-5.4-5.4l0,0c0-3,2.4-5.4,5.4-5.4h35.5c3,0,5.4,2.4,5.4,5.4l0,0
						C108.3,79.8,105.9,82.2,102.9,82.2z"/>
				</g>
			</g>
			<g>
				<g>
					<path class="st6" d="M144.4,82.2c0,0,0.2,0,0.5,0c0.2,0,0.4-0.1,0.6-0.1c0.2-0.1,0.5-0.1,0.8-0.2c0.6-0.2,1.3-0.6,1.9-1.2
						c0.6-0.6,1.2-1.6,1.5-2.7c0.2-1.1,0.1-2.5-0.6-3.8c-0.7-1.2-2-2.3-3.7-2.6c-0.8-0.1-1.7-0.1-2.6-0.1c-0.9,0-1.8,0-2.8,0
						c-1.9,0-3.9,0-6.1,0c-17,0-40.5,0-66.5,0c-1.6,0-3.1,0.7-4.1,2c-1,1.2-1.4,2.9-1.1,4.4c0.3,1.5,1.3,2.8,2.7,3.6
						c0.7,0.4,1.4,0.6,2.2,0.6c0.8,0,1.5,0,2.3,0c6.1,0,12,0,17.6,0c11.2,0,21.4,0,29.9,0c8.5,0,15.4,0,20.1,0c2.4,0,4.2,0,5.5,0
						c0.6,0,1.1,0,1.4,0C144.3,82.2,144.4,82.2,144.4,82.2s-0.2,0-0.5,0c-0.3,0-0.8,0-1.4,0c-1.3,0-3.1,0-5.5,0
						c-4.8,0-11.6,0-20.1,0c-8.5,0-18.6,0-29.9,0c-5.6,0-11.5,0-17.6,0c-0.8,0-1.5,0-2.3,0c-0.8,0-1.6-0.3-2.3-0.6
						c-1.4-0.8-2.5-2.2-2.8-3.7c-0.3-1.6,0.1-3.3,1.1-4.6c1-1.3,2.7-2.1,4.3-2.1c26,0,49.5,0,66.5,0c2.1,0,4.2,0,6.1,0
						c1,0,1.9,0,2.8,0c0.9,0,1.8-0.1,2.6,0.1c1.7,0.3,3.1,1.4,3.8,2.6c0.7,1.3,0.9,2.7,0.6,3.9c-0.3,1.2-0.9,2.1-1.5,2.8
						c-0.7,0.6-1.4,1-2,1.2c-0.3,0.1-0.6,0.2-0.8,0.2c-0.2,0-0.4,0.1-0.6,0.1C144.6,82.2,144.4,82.2,144.4,82.2z"/>
				</g>
			</g>
		</g>
		<g>
			<path class="st6" d="M97.1,86h0.4L97,88.5h1.5l-0.1,0.4h-1.9L97.1,86z"/>
			<path class="st6" d="M98.8,87.9c0-0.7,0.5-1.3,1.3-1.3c0.6,0,1,0.4,1,0.9c0,0.7-0.5,1.3-1.3,1.3C99.2,88.8,98.8,88.5,98.8,87.9z
				 M100.7,87.6c0-0.4-0.2-0.6-0.6-0.6c-0.5,0-0.8,0.4-0.8,0.9c0,0.4,0.2,0.6,0.6,0.6C100.3,88.5,100.7,88.1,100.7,87.6z"/>
			<path class="st6" d="M103.8,86.7l-0.4,2.1H103l0.1-0.3c-0.2,0.2-0.4,0.3-0.8,0.3c-0.5,0-0.9-0.3-0.9-0.9c0-0.7,0.5-1.3,1.2-1.3
				c0.4,0,0.6,0.1,0.8,0.4l0.1-0.4H103.8z M103.2,87.6c0-0.4-0.2-0.6-0.6-0.6c-0.5,0-0.8,0.4-0.8,0.9c0,0.4,0.2,0.6,0.6,0.6
				C102.9,88.5,103.2,88.1,103.2,87.6z"/>
			<path class="st6" d="M106.8,85.8l-0.6,3h-0.4l0.1-0.3c-0.2,0.2-0.4,0.3-0.8,0.3c-0.5,0-0.9-0.3-0.9-0.9c0-0.7,0.5-1.3,1.2-1.3
				c0.4,0,0.6,0.1,0.8,0.4l0.2-1.2H106.8z M106,87.6c0-0.4-0.2-0.6-0.6-0.6c-0.5,0-0.8,0.4-0.8,0.9c0,0.4,0.2,0.6,0.6,0.6
				C105.7,88.5,106,88.1,106,87.6z"/>
			<path class="st6" d="M107.3,86.7h0.4l-0.4,2.1h-0.4L107.3,86.7z M107.4,86c0-0.1,0.1-0.3,0.3-0.3c0.1,0,0.2,0.1,0.2,0.2
				c0,0.2-0.1,0.3-0.3,0.3C107.5,86.3,107.4,86.1,107.4,86z"/>
			<path class="st6" d="M110.3,87.4c0,0.1,0,0.2,0,0.3l-0.2,1.2h-0.4l0.2-1.2c0-0.1,0-0.1,0-0.2c0-0.3-0.2-0.4-0.5-0.4
				c-0.4,0-0.7,0.2-0.8,0.7l-0.2,1.1H108l0.4-2.1h0.4l-0.1,0.3c0.2-0.2,0.5-0.3,0.8-0.3C110,86.6,110.3,86.9,110.3,87.4z"/>
			<path class="st6" d="M113.3,86.7l-0.4,1.9c-0.2,0.8-0.6,1.1-1.3,1.1c-0.4,0-0.7-0.1-1-0.3l0.2-0.3c0.2,0.2,0.5,0.3,0.8,0.3
				c0.5,0,0.8-0.2,0.9-0.7l0-0.2c-0.2,0.2-0.5,0.3-0.8,0.3c-0.6,0-1-0.3-1-0.9c0-0.7,0.5-1.2,1.2-1.2c0.4,0,0.7,0.1,0.8,0.4l0.1-0.4
				H113.3z M112.7,87.5c0-0.3-0.2-0.6-0.6-0.6c-0.5,0-0.8,0.4-0.8,0.8c0,0.3,0.2,0.6,0.6,0.6C112.3,88.4,112.7,88,112.7,87.5z"/>
			<path class="st6" d="M114.5,88.6c0-0.2,0.1-0.3,0.3-0.3c0.1,0,0.3,0.1,0.3,0.3c0,0.2-0.1,0.3-0.3,0.3
				C114.6,88.8,114.5,88.7,114.5,88.6z"/>
			<path class="st6" d="M115.4,88.6c0-0.2,0.1-0.3,0.3-0.3c0.1,0,0.3,0.1,0.3,0.3c0,0.2-0.1,0.3-0.3,0.3
				C115.5,88.8,115.4,88.7,115.4,88.6z"/>
			<path class="st6" d="M116.3,88.6c0-0.2,0.1-0.3,0.3-0.3c0.1,0,0.3,0.1,0.3,0.3c0,0.2-0.1,0.3-0.3,0.3
				C116.5,88.8,116.3,88.7,116.3,88.6z"/>
		</g>
		<g>
			<g>
				<path class="st8" d="M37.2,18.8c0,0.7-0.6,1.3-1.3,1.3s-1.3-0.6-1.3-1.3c0-0.7,0.6-1.3,1.3-1.3S37.2,18.1,37.2,18.8z"/>
			</g>
		</g>
		<g>
			<path class="st8" d="M42.7,18.8c0,0.7-0.6,1.3-1.3,1.3s-1.3-0.6-1.3-1.3c0-0.7,0.6-1.3,1.3-1.3S42.7,18.1,42.7,18.8z"/>
		</g>
		<g>
			<g>
				<path class="st8" d="M48.2,18.8c0,0.7-0.6,1.3-1.3,1.3c-0.7,0-1.3-0.6-1.3-1.3c0-0.7,0.6-1.3,1.3-1.3
					C47.6,17.5,48.2,18.1,48.2,18.8z"/>
			</g>
		</g>
	</g>
</g>
<g id="Character">
	<g>
		<g>
			<g>
				<g>
					<circle class="st9" cx="175.1" cy="62.4" r="61.4"/>
				</g>
				<g>
					<g>
						<path class="st6" d="M236.6,62.4c0,0,0-0.3,0-1c0-0.3,0-0.7,0-1.2c0-0.5,0-1.1-0.1-1.7c-0.1-0.6-0.1-1.4-0.2-2.1
							c-0.1-0.8-0.2-1.6-0.3-2.6c-0.3-1.9-0.7-4-1.2-6.4c-0.6-2.4-1.4-5-2.5-7.7c-1.1-2.8-2.5-5.7-4.3-8.6
							c-3.6-5.9-8.6-12.1-15.6-17.4c-3.5-2.7-7.4-5-11.7-7c-4.3-2-9.1-3.5-14.1-4.5c-5-0.9-10.4-1.3-15.8-0.9
							c-2.7,0.2-5.5,0.6-8.2,1.1c-2.7,0.6-5.5,1.4-8.2,2.3c-2.7,1-5.4,2.2-8,3.6c-2.6,1.4-5.1,3-7.6,4.8c-2.4,1.8-4.7,3.8-6.9,6
							c-2.2,2.2-4.2,4.6-6.1,7.1c-1.9,2.5-3.5,5.2-5,8c-0.4,0.7-0.8,1.4-1.1,2.1c-0.3,0.7-0.7,1.5-1,2.2c-0.6,1.5-1.2,3-1.7,4.5
							c-1,3.1-1.8,6.2-2.3,9.5c-0.5,3.2-0.8,6.5-0.8,9.9c0,3.3,0.3,6.6,0.8,9.9c0.5,3.2,1.3,6.4,2.3,9.5l0.4,1.1l0.2,0.6l0.2,0.6
							c0.3,0.8,0.6,1.5,0.9,2.2c0.3,0.7,0.7,1.5,1,2.2c0.3,0.7,0.7,1.4,1.1,2.1c1.5,2.8,3.1,5.5,5,8c1.9,2.5,3.9,4.9,6.1,7.1
							c2.2,2.2,4.5,4.2,6.9,6c2.4,1.8,5,3.4,7.6,4.8c2.6,1.4,5.3,2.6,8,3.6c2.7,1,5.5,1.8,8.2,2.3c2.8,0.5,5.5,1,8.2,1.1
							c5.4,0.4,10.8,0.1,15.8-0.9c5-0.9,9.8-2.5,14.1-4.5c4.3-2,8.3-4.4,11.7-7c6.9-5.3,12-11.5,15.6-17.4c1.8-3,3.2-5.9,4.3-8.6
							c1.1-2.7,1.9-5.4,2.5-7.7c0.6-2.4,1-4.5,1.2-6.4c0.1-0.9,0.2-1.8,0.3-2.6c0.1-0.8,0.1-1.5,0.2-2.1c0.1-0.6,0.1-1.2,0.1-1.7
							c0-0.5,0-0.9,0-1.2C236.6,62.7,236.6,62.4,236.6,62.4s0,0.3,0,1c0,0.3,0,0.7,0,1.2c0,0.5,0,1.1-0.1,1.7c0,0.6-0.1,1.4-0.2,2.1
							c-0.1,0.8-0.2,1.6-0.3,2.6c-0.3,1.9-0.7,4-1.2,6.4c-0.6,2.4-1.4,5-2.5,7.7c-1.1,2.8-2.5,5.7-4.3,8.7
							c-3.5,6-8.6,12.2-15.6,17.5c-3.5,2.7-7.4,5.1-11.7,7c-4.3,2-9.1,3.6-14.1,4.5c-5.1,0.9-10.4,1.3-15.9,0.9
							c-2.7-0.2-5.5-0.6-8.2-1.1c-2.8-0.6-5.5-1.4-8.2-2.3c-2.7-1-5.4-2.2-8-3.6c-2.6-1.4-5.2-3-7.6-4.8c-2.4-1.8-4.7-3.8-6.9-6
							c-2.2-2.2-4.2-4.6-6.1-7.1c-1.9-2.5-3.5-5.2-5-8.1c-0.4-0.7-0.8-1.4-1.1-2.2c-0.3-0.7-0.7-1.5-1-2.2c-0.3-0.8-0.6-1.5-0.9-2.3
							l-0.2-0.6l-0.2-0.6l-0.4-1.2c-1-3.1-1.8-6.3-2.3-9.5c-0.5-3.3-0.8-6.6-0.8-9.9c0-3.3,0.3-6.7,0.8-9.9c0.5-3.3,1.3-6.4,2.3-9.5
							c0.5-1.6,1.1-3,1.7-4.5c0.3-0.7,0.7-1.5,1-2.2c0.3-0.7,0.7-1.4,1.1-2.2c1.5-2.8,3.1-5.6,5-8.1c1.9-2.5,3.9-4.9,6.1-7.1
							c2.2-2.2,4.5-4.2,6.9-6c2.4-1.8,5-3.4,7.6-4.8c2.6-1.4,5.3-2.6,8-3.6c2.7-1,5.5-1.8,8.2-2.3c2.8-0.5,5.5-1,8.2-1.1
							c5.5-0.4,10.8,0,15.9,0.9c5.1,0.9,9.8,2.5,14.1,4.5c4.3,2,8.3,4.4,11.7,7c7,5.3,12.1,11.6,15.6,17.5c1.8,3,3.2,5.9,4.3,8.7
							c1.1,2.8,1.9,5.4,2.5,7.7c0.6,2.4,1,4.5,1.2,6.4c0.1,0.9,0.2,1.8,0.3,2.6c0.1,0.8,0.1,1.5,0.2,2.2c0.1,0.6,0.1,1.2,0.1,1.7
							c0,0.5,0,0.9,0,1.2C236.6,62.1,236.6,62.4,236.6,62.4z"/>
					</g>
				</g>
			</g>
			<g>
				<defs>
					<path id="SVGID_1_" d="M150.5,83.8c-5.6-5.9-9-13.9-9-22.6c0-18.2,14.8-33,33-33c18.2,0,33,14.8,33,33c0,9.1-3.7,17.4-9.7,23.3
						l16.6,16.2c10.2-10.1,16.5-24.1,16.5-39.5c0-30.8-25-55.7-55.7-55.7c-30.8,0-55.7,25-55.7,55.7c0,15.2,6.1,29,16,39L150.5,83.8
						z"/>
				</defs>
				<clipPath id="SVGID_2_">
					<use xlink:href="#SVGID_1_"  style="overflow:visible;"/>
				</clipPath>
				<g class="st10">
					<g>
						<path class="st7" d="M150.5,83.8c-5.6-5.9-9-13.9-9-22.6c0-18.2,14.8-33,33-33c18.2,0,33,14.8,33,33c0,9.1-3.7,17.4-9.7,23.3
							l16.6,16.2c10.2-10.1,16.5-24.1,16.5-39.5c0-30.8-25-55.7-55.7-55.7c-30.8,0-55.7,25-55.7,55.7c0,15.2,6.1,29,16,39
							L150.5,83.8z"/>
					</g>
				</g>
				<g class="st10">
					<g>
						<path class="st11" d="M204.3,60.9h30c0,0-3,24.4-3.6,24.9c-0.6,0.5-18.3,20.9-18.3,20.9l-20.2-23.9L204.3,60.9z"/>
					</g>
				</g>
				<g class="st10">
					<g>
						<polygon class="st12" points="196.2,40.7 217.4,19.9 232.4,42.2 234.4,60.9 204.7,60.9 199.3,49 						"/>
					</g>
				</g>
				<g class="st10">
					<g>
						<path class="st13" d="M176.5,33.2c-0.4-0.6,0-30,0-30l18.3,2.3L217.2,20l-21.6,21.2l-13.6-2L176.5,33.2z"/>
					</g>
				</g>
				<g class="st10">
					<g>
						<path class="st14" d="M132.9,21.1c0.5,0.2,20.2,21.2,20.2,21.2l17.6-7l5.6-7l0.2-25.1l-21,2.3L132.9,21.1z"/>
					</g>
				</g>
				<g class="st10">
					<g>
						<path class="st15" d="M117.4,60.9c0.5,0.3,33.3,0,33.3,0l-0.6-21.6l-15.9-16.8l-10.8,12.9L117.4,60.9z"/>
					</g>
				</g>
			</g>
			<g>
				<g>
					<circle class="st1" cx="175.8" cy="62.4" r="12.8"/>
				</g>
			</g>
			<g>
				<g>
					<path class="st6" d="M172,63.3L172,63.3c0.6,1.9,2.6,3,4.5,2.5L221,53.1l-45.9,5.5C172.8,58.9,171.4,61.1,172,63.3z"/>
				</g>
			</g>
		</g>
		<g>
			<path class="st8" d="M168.9,90.1l-2.4,12.4h-3.2l1.3-6.5l-4.1,5.3h-1.5l-2.3-5.3l-1.3,6.5H152l2.5-12.4h2.9l2.9,7.2l5.6-7.2
				H168.9z"/>
			<path class="st8" d="M180.9,92.9l-1.9,9.6h-3.2l0.2-0.9c-0.7,0.7-1.7,1.1-2.8,1.1c-2.1,0-4.1-1.6-4.1-4.4c0-3.2,2.3-5.6,5.2-5.6
				c1.3,0,2.3,0.4,2.9,1.3l0.2-1.2H180.9z M176.7,97.3c0-1.1-0.7-1.8-1.8-1.8c-1.3,0-2.3,1.1-2.3,2.7c0,1.1,0.7,1.8,1.8,1.8
				C175.7,99.9,176.7,98.9,176.7,97.3z"/>
			<path class="st8" d="M188.4,97.7l2.6,4.8h-3.6l-1.3-2.5l-2.3,2.5H180l4.8-4.9l-2.5-4.7h3.5l1.3,2.4l2.3-2.4h3.7L188.4,97.7z"/>
			<path class="st8" d="M191.9,100.8c0-1.3,1-2.1,2.2-2.1c1.1,0,1.9,0.7,1.9,1.8c0,1.3-1,2.1-2.1,2.1
				C192.7,102.7,191.9,101.9,191.9,100.8z"/>
		</g>
		<g>
			<g>
				<g>
					<polygon class="st7" points="242.1,189 244.1,192.3 249.2,186.4 246.5,183.6 					"/>
				</g>
			</g>
			<g>
				<g>
					<path class="st6" d="M248.7,185.8c0,0-0.2,0.4-0.7,0.9c-0.4,0.5-1.1,1.3-1.8,2c-0.7,0.7-1.3,1.4-1.9,2
						c-0.5,0.5-0.8,0.8-0.8,0.8c0,0,0.2-0.4,0.7-0.9c0.4-0.5,1.1-1.2,1.8-2c0.7-0.7,1.3-1.4,1.9-2
						C248.4,186.1,248.7,185.8,248.7,185.8z"/>
				</g>
			</g>
			<g>
				<g>
					<path class="st6" d="M244.1,186.1c0,0,0.6,0.4,1.2,1.1c0.6,0.6,1.1,1.2,1.1,1.2c0,0-0.6-0.4-1.2-1.1
						C244.5,186.7,244,186.2,244.1,186.1z"/>
				</g>
			</g>
			<g class="st16">
				<polyline class="st17" points="244.1,192.3 249.2,186.4 248.7,185.9 243.5,191.6 244.1,192.2 				"/>
			</g>
		</g>
		<g>
			<g>
				<g>
					<g>
						<g>
							<g>
								<g>
									<path class="st7" d="M202.2,196.7l0-0.8l8,0.1l0,2.6l-0.5,0c-2.2,0.1-11.2,0.4-12.6-0.1
										C195.4,198.1,202.2,196.7,202.2,196.7z"/>
								</g>
							</g>
						</g>
					</g>
					<g>
						<g>
							<g>
								<g>
									<path class="st18" d="M207.3,198.5c0.1-0.6,0.5-1.2,1-1.6c0.5-0.4,1.2-0.6,1.9-0.5l0,2.1L207.3,198.5z"/>
								</g>
							</g>
						</g>
					</g>
				</g>
				<g>
					<g>
						<g>
							<path class="st18" d="M198.9,197.5c0,0-2.4,0.6-2.1,1c0.3,0.4,9.4,0.4,13.4,0.1l0-0.2l-10.6,0
								C199.6,198.5,199.4,197.5,198.9,197.5z"/>
						</g>
					</g>
				</g>
				<g>
					<g>
						<g>
							<g>
								<path class="st6" d="M210.3,198.4c0,0,0,0-0.1,0c-0.1,0-0.2,0-0.4,0c-0.4,0-0.9,0-1.4,0.1c-1.2,0-2.9,0.1-4.8,0.1
									c-1.9,0-3.6-0.1-4.8-0.1c-0.6,0-1.1,0-1.4-0.1c-0.1,0-0.3,0-0.4,0c-0.1,0-0.1,0-0.1,0c0,0,0,0,0.1,0c0.1,0,0.2,0,0.4,0
									c0.4,0,0.9,0,1.4,0c1.2,0,2.9,0.1,4.8,0.1c1.9,0,3.6,0,4.8,0c0.6,0,1.1,0,1.4,0c0.1,0,0.3,0,0.4,0
									C210.3,198.4,210.3,198.4,210.3,198.4z"/>
							</g>
						</g>
					</g>
				</g>
				<g>
					<g>
						<g>
							<g>
								<path class="st6" d="M199.6,198.6c0,0,0-0.3-0.3-0.6c-0.2-0.3-0.5-0.5-0.5-0.5c0,0,0.3,0.1,0.6,0.5
									C199.6,198.2,199.6,198.6,199.6,198.6z"/>
							</g>
						</g>
					</g>
				</g>
				<g>
					<g>
						<g>
							<g>
								<path class="st6" d="M202,197.5c0,0-0.1-0.1-0.2-0.3c-0.1-0.2-0.2-0.3-0.2-0.3c0,0,0.1,0.1,0.2,0.3
									C201.9,197.3,202,197.5,202,197.5z"/>
							</g>
						</g>
					</g>
				</g>
				<g>
					<g>
						<g>
							<g>
								<path class="st6" d="M202.6,197.2c0,0-0.1-0.1-0.3-0.2c-0.1-0.1-0.2-0.2-0.2-0.2c0,0,0.1,0.1,0.3,0.2
									C202.5,197,202.6,197.1,202.6,197.2z"/>
							</g>
						</g>
					</g>
				</g>
				<g>
					<g>
						<g>
							<g>
								<path class="st6" d="M203,196.5c0,0-0.2,0-0.4,0c-0.2,0-0.4,0-0.4,0c0,0,0.2,0,0.4,0C202.8,196.4,203,196.4,203,196.5z"/>
							</g>
						</g>
					</g>
				</g>
				<g>
					<g>
						<g>
							<g>
								<path class="st19" d="M203.2,196c0,0-0.2,0.1-0.5,0.1c-0.3,0-0.5,0-0.5-0.1c0,0,0.2,0,0.5,0
									C202.9,196,203.2,195.9,203.2,196z"/>
							</g>
						</g>
					</g>
				</g>
				<g>
					<g>
						<g>
							<g>
								<path class="st6" d="M201.7,196.8c0,0-0.2,0-0.5,0c-0.2,0-0.3-0.1-0.5-0.1c-0.1,0-0.2-0.1-0.3-0.1c-0.1,0-0.1-0.1-0.1-0.1
									c0-0.1,0-0.2,0.1-0.2c0.5-0.2,1,0,1.2,0.3C201.5,196.6,201.6,196.7,201.7,196.8c-0.1,0.1-0.1,0.1-0.1,0.1c0,0,0-0.2-0.2-0.4
									c-0.1-0.1-0.2-0.2-0.4-0.3c-0.2-0.1-0.4-0.1-0.6,0c-0.1,0.1-0.1,0.1,0,0.2c0.1,0.1,0.2,0.1,0.3,0.1c0.2,0.1,0.4,0.1,0.5,0.1
									C201.5,196.8,201.7,196.8,201.7,196.8z"/>
							</g>
						</g>
					</g>
				</g>
				<g>
					<g>
						<g>
							<g>
								<path class="st6" d="M201.6,196.8c0,0-0.1-0.1-0.1-0.3c0-0.1,0.1-0.2,0.1-0.3c0.1-0.1,0.2-0.2,0.4-0.2
									c0.1,0,0.2,0.1,0.2,0.2c0,0.1-0.1,0.2-0.1,0.2c-0.1,0.1-0.2,0.2-0.2,0.3C201.7,196.8,201.6,196.9,201.6,196.8
									c0,0,0.1-0.1,0.3-0.2c0.1-0.1,0.1-0.2,0.2-0.3c0.1-0.1,0.1-0.3,0-0.3c-0.1,0-0.3,0.1-0.3,0.2c-0.1,0.1-0.1,0.2-0.1,0.3
									C201.5,196.7,201.6,196.8,201.6,196.8z"/>
							</g>
						</g>
					</g>
				</g>
				<g>
					<g>
						<g>
							<g>
								<path class="st6" d="M210.2,196.4c0,0-0.2,0-0.6,0c-0.4,0-0.9,0.2-1.3,0.5c-0.4,0.3-0.7,0.7-0.8,1c-0.1,0.3-0.1,0.5-0.2,0.5
									c0,0,0-0.1,0-0.1c0-0.1,0-0.2,0.1-0.4c0.1-0.3,0.4-0.8,0.8-1.1c0.5-0.3,1-0.5,1.3-0.5c0.2,0,0.3,0,0.4,0
									C210.1,196.4,210.2,196.4,210.2,196.4z"/>
							</g>
						</g>
					</g>
				</g>
				<g>
					<g>
						<g>
							<g>
								<path class="st6" d="M206.3,197.8c0,0-0.5,0.1-1.2,0.1c-0.6,0-1.2-0.1-1.2-0.1c0,0,0.5,0,1.2,0
									C205.8,197.8,206.3,197.8,206.3,197.8z"/>
							</g>
						</g>
					</g>
				</g>
				<g>
					<g>
						<g>
							<g>
								<path class="st6" d="M207.9,197.8c0,0,0,0.1-0.1,0.2c-0.1,0.1-0.1,0.2-0.1,0.2c0,0,0-0.1,0-0.2
									C207.8,197.8,207.9,197.8,207.9,197.8z"/>
							</g>
						</g>
					</g>
				</g>
				<g>
					<g>
						<g>
							<g>
								<path class="st6" d="M208.5,197.1c0,0,0,0.1-0.1,0.2c-0.1,0.1-0.2,0.1-0.2,0.1c0,0,0-0.1,0.1-0.2
									C208.4,197.1,208.5,197.1,208.5,197.1z"/>
							</g>
						</g>
					</g>
				</g>
				<g>
					<g>
						<g>
							<g>
								<path class="st6" d="M209.3,196.8c0,0-0.1,0-0.2,0.1c-0.1,0-0.2,0.1-0.2,0.1c0,0,0-0.1,0.2-0.2
									C209.2,196.7,209.3,196.8,209.3,196.8z"/>
							</g>
						</g>
					</g>
				</g>
				<g>
					<g>
						<g>
							<g>
								<path class="st6" d="M209.9,196.7c0,0,0,0.1-0.1,0.1c-0.1,0-0.1,0-0.1,0c0,0,0-0.1,0.1-0.1
									C209.9,196.6,209.9,196.6,209.9,196.7z"/>
							</g>
						</g>
					</g>
				</g>
			</g>
		</g>
		<g>
			<g>
				<path class="st20" d="M198.9,92.8l-12.3-12.5l1.6-16.3l0.3-0.3c0.2-0.2,0.3-0.4,0.5-0.6c0.2-0.2,0.5-0.5,0.8-0.6
					c0.4-0.2,0.9-0.4,1.2-0.5c0.4-0.1,0.5-0.5,0.2-0.7c-0.3-0.2-1.4,0-2.4,0.6c-1.1,0.7-0.4-1.2-0.2-1.9c0.2-0.7,0.8-2.8,0.7-3
					c-0.2-0.3-0.6-0.1-0.8,0.5c-0.2,0.7-1,2.7-1.3,2.6c-0.3-0.1,0.8-3.6,0.8-3.6s0.4-0.7,0-0.9c-0.7-0.3-1.7,3.5-1.8,3.8
					c-0.1,0.2-0.5,0.1-0.4-0.1c0.1-0.3,1.3-3.4,0.5-3.7c-0.6-0.2-0.8,3.1-1.4,3.6c-0.6,0.5,0.5-2.5-0.1-2.7
					c-0.2-0.1-0.4-0.1-0.7,1.7c-0.2,0.9-0.6,2.3-0.7,3.8l0,0l-3.9,19.5l12.2,16.1L198.9,92.8z"/>
			</g>
		</g>
		<g>
			<g>
				<path class="st20" d="M205.2,57c-0.5,0.3,1.1,3.1,0.4,2.7c-0.7-0.4-1.6-3.6-2.1-3.3c-0.7,0.4,1,3.3,1.2,3.5
					c0.1,0.2-0.2,0.4-0.3,0.2c-0.1-0.3-1.8-3.8-2.5-3.4c-0.4,0.2,0.1,0.8,0.1,0.8s1.8,3.2,1.5,3.4c-0.3,0.2-1.4-1.6-1.8-2.3
					c-0.3-0.6-0.8-0.7-0.9-0.4c-0.1,0.3,0.9,2.2,1.2,2.9c0.3,0.6,1.3,2.3,0.1,1.9c-1.2-0.5-2.2-0.4-2.5-0.2
					c-0.3,0.2-0.1,0.7,0.3,0.7c0.3,0,0.8,0.1,1.2,0.2c0.3,0.1,0.6,0.3,0.9,0.5c0.2,0.2,0.4,0.3,0.6,0.5l0.3,0.3l6.7,16.4l-6.1,14.1
					l9.4,3.5l4.2-18.7l-9.7-18.2l0,0c-0.4-1.4-1-2.8-1.4-3.6C205.6,56.8,205.4,56.9,205.2,57z"/>
			</g>
		</g>
		<g>
			<g>
				<g>
					<path class="st6" d="M226.2,156.9l-6.1-31.4l-8.6,0.7l0-0.1l-15.7,1.4c0,0-0.7,36-1,36l4.3,32.9l0,0l12.4-0.6l-4.8-32.7
						l1.8-26.2c0,0,0.1-0.2,0.4-0.5l7.2,26.8l24.5,27.7l8-7.7L226.2,156.9z"/>
				</g>
			</g>
			<g>
				<g>
					<path class="st21" d="M207,158.3c0,0,0-0.1,0-0.3c0-0.2,0-0.5,0-0.8c0-0.7,0.1-1.7,0.1-2.8c0.2-2.4,0.4-5.7,0.6-9.3
						c0.2-3.3,0.4-6.3,0.6-8.6l0,0l0,0c0.9-1.1,1.6-1.9,2.2-2.6c0.2-0.3,0.4-0.5,0.6-0.7c0.1-0.2,0.2-0.2,0.2-0.2
						c0,0-0.1,0.1-0.2,0.3c-0.1,0.2-0.3,0.4-0.6,0.7c-0.5,0.6-1.2,1.5-2.1,2.6l0-0.1c-0.1,2.3-0.3,5.3-0.5,8.6
						c-0.3,3.6-0.5,6.9-0.7,9.3c-0.1,1.2-0.2,2.1-0.2,2.8c0,0.3-0.1,0.6-0.1,0.8C207,158.2,207,158.3,207,158.3z"/>
				</g>
			</g>
			<g>
				<g>
					<path class="st21" d="M211.5,126.2c0.1,0,0.1,1.3,0.1,3c0,1.7-0.1,3-0.1,3c-0.1,0-0.1-1.3-0.1-3
						C211.3,127.6,211.4,126.2,211.5,126.2z"/>
				</g>
			</g>
			<g>
				<g>
					<path class="st21" d="M200.8,129c0,0,0.1,0,0.4-0.1c0.3,0,0.7-0.1,1.1-0.1c1-0.1,2.4-0.3,4.2-0.4l0.1,0l0,0.1c0,1.5,0,3.2,0,5
						l0,0.1l-0.1,0c0,0-0.1,0-0.1,0c-1,0.5-2.1,1-3,1.5l-0.1,0l-0.1,0c-0.9-0.6-1.8-1.1-2.6-1.5l0,0l0-0.1c0-1.3,0-2.4,0.1-3.3
						c0-0.4,0-0.6,0-0.9C200.8,129,200.8,128.9,200.8,129c0,0,0,0.1,0,0.3c0,0.2,0,0.5,0,0.9c0,0.8,0,1.9,0.1,3.2l0-0.1
						c0.8,0.5,1.7,1,2.6,1.5l-0.1,0c0.9-0.5,2-1,3-1.5c0,0,0.1,0,0.1,0l-0.1,0.1c0-1.8,0-3.5,0-5l0.1,0.1c-1.7,0.2-3.1,0.3-4.1,0.3
						c-0.5,0-0.9,0.1-1.2,0.1C201,129,200.9,129,200.8,129z"/>
				</g>
			</g>
			<g>
				<g>
					<path class="st21" d="M213,127.8c0,0,0.1,0,0.4-0.1c0.3,0,0.7-0.1,1.1-0.1c1-0.1,2.4-0.3,4.2-0.4l0.1,0l0,0.1c0,1.5,0,3.2,0,5
						l0,0.1l-0.1,0c0,0-0.1,0-0.1,0c-1,0.5-2.1,1-3,1.5l-0.1,0l-0.1,0c-0.9-0.6-1.8-1.1-2.6-1.5l0,0l0-0.1c0-1.3,0-2.4,0.1-3.3
						c0-0.4,0-0.6,0-0.9C212.9,127.9,213,127.7,213,127.8c0,0,0,0.1,0,0.3c0,0.2,0,0.5,0,0.9c0,0.8,0,1.9,0.1,3.2l0-0.1
						c0.8,0.5,1.7,1,2.6,1.5l-0.1,0c0.9-0.5,2-1,3-1.5c0,0,0.1,0,0.1,0l-0.1,0.1c0-1.8,0-3.5,0-5l0.1,0.1c-1.7,0.2-3.1,0.3-4.1,0.3
						c-0.5,0-0.9,0.1-1.2,0.1C213.1,127.8,213,127.8,213,127.8z"/>
				</g>
			</g>
			<g>
				<g>
					<path class="st21" d="M206.7,129.6c0,0.1-1.3,0.2-2.9,0.3c-1.6,0.1-2.9,0.1-2.9,0c0-0.1,1.3-0.2,2.9-0.3
						C205.4,129.6,206.7,129.6,206.7,129.6z"/>
				</g>
			</g>
			<g>
				<g>
					<path class="st21" d="M218.7,128.5c0,0.1-1.3,0.2-2.8,0.3c-1.6,0.1-2.9,0.2-2.9,0.1c0-0.1,1.3-0.2,2.8-0.3
						C217.4,128.5,218.7,128.5,218.7,128.5z"/>
				</g>
			</g>
			<g>
				<g>
					<path class="st21" d="M205.7,163c0,0.1-1.3,0.3-2.8,0.5c-1.6,0.2-2.8,0.3-2.8,0.2c0-0.1,1.3-0.3,2.8-0.5
						C204.4,163,205.7,162.9,205.7,163z"/>
				</g>
			</g>
			<g>
				<g>
					<path class="st21" d="M225.4,157.6c0,0.1-1.3,0.5-2.9,1.4c-1.6,0.9-2.7,1.8-2.7,1.7c0,0,0.2-0.3,0.7-0.7
						c0.5-0.4,1.1-0.8,1.9-1.3c0.8-0.4,1.5-0.8,2.1-1C225,157.7,225.4,157.6,225.4,157.6z"/>
				</g>
			</g>
		</g>
		<g>
			<g>
				<g>
					<path class="st6" d="M198.9,48.9c0,0,0-0.1-0.1-0.2c-0.1-0.1-0.1-0.3-0.2-0.5c-0.1-0.2-0.2-0.5-0.4-0.8
						c-0.2-0.3-0.4-0.7-0.6-1.1c-0.2-0.4-0.5-0.9-0.8-1.4c-0.3-0.5-0.7-1-1.1-1.5c-0.8-1.1-1.9-2.2-3.1-3.4c-2.5-2.3-5.9-4.6-10.3-6
						c-2.1-0.7-4.5-1.1-7-1.1c-2.4,0-5,0.2-7.5,0.9c-2.5,0.7-4.9,1.7-7,3c-2.1,1.2-3.9,2.8-5.5,4.4c-3.1,3.3-4.9,7-5.9,10.3
						c-0.5,1.6-0.8,3.1-1,4.5c-0.1,0.7-0.1,1.3-0.2,1.9c0,0.6-0.1,1.1,0,1.6c0,0.5,0,0.9,0,1.3c0,0.4,0.1,0.7,0.1,0.9
						c0,0.2,0,0.4,0,0.6c0,0.1,0,0.2,0,0.2c0,0,0-0.1,0-0.2c0-0.1,0-0.3-0.1-0.6c0-0.3-0.1-0.6-0.1-0.9c0-0.4,0-0.8,0-1.3
						c0-0.5,0-1,0-1.6c0-0.6,0.1-1.2,0.2-1.9c0.2-1.4,0.5-2.9,1-4.5c1-3.3,2.8-7,5.9-10.4c1.5-1.7,3.4-3.2,5.5-4.5
						c2.1-1.3,4.5-2.3,7-3c2.5-0.7,5.1-1,7.6-0.9c2.5,0,4.8,0.5,7,1.2c4.3,1.4,7.8,3.7,10.3,6.1c1.2,1.2,2.3,2.4,3.1,3.4
						c0.4,0.6,0.8,1.1,1.1,1.6c0.3,0.5,0.6,0.9,0.8,1.4c0.2,0.4,0.4,0.8,0.6,1.1c0.2,0.3,0.3,0.6,0.4,0.9c0.1,0.2,0.2,0.4,0.2,0.5
						C198.9,48.9,198.9,48.9,198.9,48.9z"/>
				</g>
			</g>
			<g>
				<g>
					<path class="st6" d="M193.6,47.7c0,0-0.1-0.1-0.2-0.3c-0.1-0.2-0.3-0.5-0.6-0.8c-0.5-0.7-1.3-1.7-2.5-2.8
						c-1.1-1.1-2.6-2.3-4.4-3.3c-1.8-1.1-3.9-2-6.3-2.5c-2.3-0.5-4.6-0.7-6.7-0.5c-2.1,0.1-3.9,0.5-5.4,1c-1.5,0.5-2.7,1-3.5,1.4
						c-0.4,0.2-0.7,0.4-0.9,0.5c-0.2,0.1-0.3,0.2-0.3,0.2c0,0,0.1-0.1,0.3-0.2c0.2-0.1,0.5-0.3,0.9-0.5c0.8-0.4,1.9-1,3.5-1.5
						c1.5-0.5,3.4-0.9,5.5-1.1c2.1-0.2,4.4,0,6.8,0.5c2.4,0.6,4.5,1.5,6.3,2.6c1.8,1.1,3.3,2.3,4.4,3.4c1.1,1.1,1.9,2.1,2.4,2.9
						c0.3,0.4,0.4,0.7,0.6,0.8C193.6,47.5,193.6,47.7,193.6,47.7z"/>
				</g>
			</g>
		</g>
		<g>
			<g>
				<g>
					<g>
						<g>
							<path class="st7" d="M217.3,102.5l-2.2,11.3c4.5,6.3,4.9,11.7,4.9,11.7l-24.4,2.1c0.5-3.8,2.8-12.1,2.8-12.1l-3.5-12.1
								l-7.1-9.2l7-6.3c-0.1,0.4,6.6,4.2,6.6,4.2l9.7,0.1c0,0,0.6,0,1.4,0.3l4.7-12.2c0,0,3.7,5.4,2.4,12
								C218.9,96.9,219,98,217.3,102.5"/>
						</g>
					</g>
				</g>
				<g>
					<g>
						<path class="st22" d="M199.6,93.9c0,0,0.1,0.1,0.4,0.4c0.2,0.3,0.5,0.7,0.7,1.3c0.2,0.6,0.5,1.3,0.5,2.2
							c0,0.9-0.1,1.8-0.6,2.7c-0.4,0.9-1.1,1.6-1.9,2c-0.8,0.4-1.5,0.6-2.2,0.6c-0.6,0-1.2-0.1-1.5-0.3c-0.2-0.1-0.3-0.1-0.4-0.2
							c-0.1,0-0.1-0.1-0.1-0.1c0-0.1,0.7,0.4,2,0.4c0.6,0,1.4-0.2,2.1-0.6c0.7-0.4,1.3-1.1,1.8-1.9c0.4-0.8,0.6-1.8,0.6-2.6
							c0-0.8-0.2-1.6-0.4-2.1C200.1,94.6,199.6,94,199.6,93.9z"/>
					</g>
				</g>
				<g>
					<g>
						<path class="st22" d="M216.5,102.2c0,0,0.2-0.5,0.4-1.2c0.2-0.7,0.4-1.8,0.3-3c-0.1-1.2-0.4-2.2-0.8-2.9
							c-0.3-0.7-0.6-1.1-0.6-1.1c0,0,0.1,0.1,0.2,0.3c0.1,0.2,0.3,0.4,0.5,0.8c0.4,0.7,0.7,1.8,0.8,3c0.1,1.2-0.1,2.3-0.4,3.1
							c-0.1,0.4-0.3,0.7-0.4,0.9C216.5,102.1,216.5,102.2,216.5,102.2z"/>
					</g>
				</g>
				<g>
					<g>
						<g>
							<path class="st14" d="M213.2,113.2c-0.2-0.3-0.6-0.2-1-0.1c-0.5,0.1-1.1,0.3-1.6,0.3c-1,0-2-0.6-2.9-1c-1-0.4-2.2-0.6-3,0.1
								c-0.6,0.5-0.7,1.5-0.2,2.1c0.2,0.3,0.6,0.6,1,0.7l0,0c2.4,0.7,4.5,0.2,6.9-0.8c0.3-0.1,0.6-0.2,0.8-0.5
								C213.4,113.8,213.4,113.4,213.2,113.2z"/>
						</g>
					</g>
				</g>
			</g>
			<g>
				<g>
					<g>
						<path class="st14" d="M195.3,87.8c-1,1.3-1.7,2.9-1.5,4.6c0.2,1.6,1.3,3.2,2.8,3.6c1.1,0.3,2.3,0,3.3,0.4c2,0.7,3,3.2,5.1,3.4
							c1.9,0.2,3.2-1.7,5-2.4c0.9-0.4,1.9-0.4,2.8-0.5c2-0.3,3.9-1.3,5.1-2.9c1.2-1.6,1.3-4,0.1-5.6c-1.3-1.7-3.7-2.1-5.8-2.1
							c-3.2,0-6.5,0.7-9.5,1.9c-0.6,0.3-1.3,0.6-1.8,1.1c-0.5,0.5-0.9,1.1-0.9,1.8"/>
					</g>
				</g>
			</g>
		</g>
		<g>
			<g>
				<g>
					<path class="st8" d="M223.2,86.5c-0.1-0.9-0.7-1.6-1.5-1.9c-0.9-0.4-2-0.1-3-0.5c-1.1-0.5-1.6-1.9-1.9-3.1
						c-0.3-1.2-0.6-2.6-1.6-3.3c-0.7-0.5-1.6-0.7-2.3-1.1c-1.1-0.7-1.7-1.9-2.4-2.9c-0.3-0.4-0.6-0.8-1-1.1c0,0,0,0,0-0.1
						c-1.6-1.9-5.8-2.2-7.6-0.5l0.1-0.1c-3.4,0.3-5.6,5.8-5.6,9.2c0,2.2,0.7,4.4-0.1,6.4c-0.5,1.2-1.4,2.1-1.8,3.3
						c-0.5,1.6,0.3,3.6,1.9,4.4c1.5,0.8,3.6,0.3,4.6-1.1c-0.1,0.9,0.7,1.7,1.5,2c0.8,0.3,1.7,0.2,2.6,0.2c1.9-0.2,4.1-0.5,5-2.1
						c0.7,1,1.9,1.4,3.1,1.3c1.2-0.1,2.3-0.2,3.3-0.7c0-0.1-0.1-0.1-0.1-0.2c0.2-0.1,0.3-0.1,0.5-0.2c0.9-0.6,1.5-1.7,1-2.7
						c0.3,0.4,0.7,0.8,1,1.2c1.8-0.9,2.6-3.3,1.7-5.1c0.6,0.2,1.1,0.6,1.6,1.1C222.9,88.3,223.3,87.4,223.2,86.5z"/>
				</g>
			</g>
			<g>
				<g>
					<path class="st23" d="M222.7,88c0,0,0.2-0.4-0.2-1.1c-0.2-0.3-0.5-0.7-1-0.9c-0.5-0.2-1.1-0.3-1.7-0.4
						c-0.7-0.1-1.4-0.1-2.2-0.5c-0.4-0.2-0.7-0.4-1-0.8c-0.3-0.3-0.5-0.8-0.6-1.2c-0.3-0.9-0.4-1.8-0.6-2.7
						c-0.1-0.5-0.3-0.9-0.6-1.3c-0.3-0.4-0.7-0.7-1.2-0.8c-0.5-0.1-1-0.1-1.5-0.2c-0.5-0.1-1-0.4-1.3-0.7c-0.7-0.7-1-1.7-1.3-2.5
						c-0.3-0.8-0.7-1.6-1.3-2.1c-0.5-0.6-1.2-0.9-1.8-1.2c-1.2-0.5-2.4-0.3-3.1-0.2c-0.7,0.2-1.1,0.4-1.1,0.4c0,0,0.1-0.1,0.3-0.2
						c0.2-0.1,0.4-0.2,0.8-0.3c0.7-0.2,1.9-0.4,3.2,0.1c0.6,0.2,1.3,0.6,1.9,1.2c0.6,0.6,1,1.3,1.3,2.2c0.3,0.8,0.6,1.7,1.3,2.4
						c0.3,0.3,0.7,0.6,1.2,0.7c0.5,0.1,1,0.1,1.5,0.2c0.5,0.1,1,0.5,1.3,0.9c0.3,0.4,0.5,0.9,0.7,1.4c0.3,0.9,0.4,1.9,0.6,2.7
						c0.3,0.8,0.8,1.5,1.5,1.9c0.7,0.3,1.4,0.4,2.1,0.5c0.7,0.1,1.3,0.2,1.8,0.5c0.5,0.2,0.8,0.6,1,0.9c0.2,0.3,0.2,0.7,0.2,0.9
						C222.8,87.9,222.7,88,222.7,88z"/>
				</g>
			</g>
			<g>
				<g>
					<path class="st23" d="M216.8,94.7c0,0,0.1,0,0.3-0.2c0.2-0.1,0.4-0.3,0.5-0.7c0.1-0.3,0.1-0.8-0.1-1.3
						c-0.2-0.5-0.7-0.9-1.2-1.2c-0.6-0.4-1.3-0.6-1.9-1.1c-0.3-0.2-0.7-0.5-0.9-0.8c-0.3-0.3-0.5-0.8-0.6-1.2
						c-0.3-0.9-0.2-1.8-0.4-2.8c-0.1-0.9-0.4-2-1.2-2.5c-0.8-0.6-1.9-0.7-2.6-1.5c-0.7-0.7-1-1.7-1.1-2.6c-0.1-0.9-0.2-1.7-0.4-2.5
						c-0.2-0.8-0.5-1.4-0.9-1.9c-0.8-1.1-1.8-1.6-2.5-1.9c-0.7-0.3-1.1-0.3-1.1-0.4c0,0,0.1,0,0.3,0c0.2,0,0.5,0.1,0.8,0.2
						c0.7,0.3,1.7,0.8,2.6,1.9c0.4,0.5,0.8,1.2,1,2c0.2,0.8,0.3,1.6,0.4,2.5c0.2,0.9,0.4,1.8,1.1,2.5c0.7,0.7,1.7,0.9,2.6,1.5
						c0.4,0.3,0.8,0.8,1,1.2c0.2,0.5,0.3,1,0.4,1.5c0.1,1,0.1,1.9,0.3,2.8c0.1,0.4,0.3,0.8,0.5,1.1c0.2,0.3,0.6,0.6,0.9,0.8
						c0.7,0.4,1.3,0.7,1.9,1.1c0.6,0.4,1,0.8,1.3,1.3c0.2,0.5,0.2,1,0,1.4c-0.1,0.4-0.4,0.6-0.5,0.7
						C216.9,94.7,216.8,94.7,216.8,94.7z"/>
				</g>
			</g>
			<g>
				<g>
					<path class="st23" d="M205.5,95.7c0,0,0.3-0.3,0.3-0.9c0-0.3-0.1-0.7-0.2-1.1c-0.2-0.4-0.5-0.8-0.7-1.4
						c-0.3-0.5-0.4-1.2-0.2-1.9c0.2-0.7,0.5-1.3,0.9-2c0.3-0.7,0.6-1.4,0.6-2.2c0-0.8-0.3-1.6-0.8-2.3c-0.5-0.7-1.2-1.3-1.7-2
						c-0.3-0.3-0.5-0.7-0.6-1.1c-0.1-0.4-0.2-0.8-0.2-1.2c-0.1-0.8,0.1-1.5,0.2-2.2c0.1-0.7,0.2-1.3,0.3-1.9
						c0.1-1.1-0.2-2.1-0.5-2.6c-0.3-0.5-0.7-0.7-0.6-0.8c0,0,0.1,0,0.2,0.1c0.1,0.1,0.3,0.3,0.5,0.6c0.4,0.5,0.7,1.5,0.6,2.7
						c0,0.6-0.1,1.2-0.2,1.9c-0.1,0.7-0.2,1.4-0.1,2.1c0,0.4,0.1,0.7,0.2,1.1c0.1,0.4,0.3,0.7,0.6,1c0.5,0.7,1.1,1.2,1.7,2
						c0.5,0.7,0.9,1.6,0.9,2.4c0,0.9-0.3,1.7-0.6,2.3c-0.3,0.7-0.7,1.3-0.9,2c-0.2,0.6-0.1,1.3,0.2,1.8c0.2,0.5,0.5,1,0.7,1.4
						c0.2,0.4,0.2,0.8,0.2,1.2c0,0.3-0.1,0.6-0.2,0.7C205.6,95.7,205.5,95.7,205.5,95.7z"/>
				</g>
			</g>
			<g>
				<g>
					<path class="st23" d="M197.3,95.4c0,0-0.1-0.1-0.1-0.2c-0.1-0.2-0.1-0.4,0-0.8c0.1-0.3,0.3-0.7,0.7-1c0.4-0.3,0.8-0.6,1.2-1
						c0.4-0.4,0.7-1,0.8-1.7c0.1-0.7,0-1.4-0.3-2.1c-0.3-0.7-0.6-1.5-0.5-2.4c0.1-0.9,0.5-1.7,0.9-2.5c0.4-0.8,0.7-1.6,0.6-2.4
						c0-0.8-0.3-1.6-0.5-2.3c-0.4-1.5-0.5-2.9-0.1-4.1c0.3-1.1,1-1.9,1.5-2.3c0.3-0.2,0.5-0.3,0.6-0.4c0.2-0.1,0.2-0.1,0.2-0.1
						c0,0-0.3,0.2-0.8,0.6c-0.5,0.4-1.1,1.2-1.4,2.3c-0.3,1.1-0.3,2.5,0.2,4c0.2,0.7,0.5,1.5,0.5,2.4c0.1,0.9-0.3,1.7-0.6,2.5
						c-0.4,0.8-0.8,1.6-0.9,2.4c-0.1,0.8,0.2,1.6,0.5,2.3c0.1,0.4,0.3,0.7,0.3,1.1c0.1,0.4,0.1,0.7,0,1.1c-0.1,0.7-0.4,1.3-0.8,1.7
						c-0.4,0.4-0.9,0.7-1.2,1c-0.4,0.3-0.6,0.6-0.7,0.9c-0.1,0.3-0.1,0.6-0.1,0.7C197.2,95.3,197.3,95.4,197.3,95.4z"/>
				</g>
			</g>
		</g>
	</g>
</g>
<g id="Plants">
	<g>
		<g>
			<g>
				<g>
					<g>
						<g>
							<path class="st5" d="M19.1,185.9c0,0,0-0.1,0.1-0.2c0.1-0.1,0.2-0.3,0.3-0.6c0.2-0.5,0.5-1.3,0.8-2.4
								c0.5-2.1,0.7-5.3-0.1-9.1c-0.4-1.9-1-4-1.7-6.1c-0.7-2.2-1.6-4.5-2.2-7c-0.7-2.5-1.2-5.2-1.1-8c0.1-2.8,0.9-5.7,1.9-8.5
								c0.9-2.8,1.9-5.6,2.2-8.4c0.3-2.8-0.3-5.5-1.5-7.7c-1.2-2.3-2.8-4.2-3.9-6.2c-1.2-2-1.9-4-2.4-5.9c-0.9-3.8-0.6-7.1-0.1-9.2
								c0.5-2.1,1-3.3,1-3.3c0,0,0,0.1-0.1,0.2c0,0.2-0.1,0.4-0.2,0.6c-0.2,0.5-0.4,1.4-0.6,2.4c-0.4,2.1-0.7,5.3,0.2,9.1
								c0.5,1.9,1.2,3.9,2.4,5.9c1.2,2,2.7,3.9,3.9,6.2c1.3,2.3,1.9,5.1,1.6,7.9c-0.3,2.8-1.3,5.6-2.2,8.4c-0.9,2.8-1.8,5.6-1.9,8.4
								c-0.1,2.8,0.4,5.5,1.1,8c0.7,2.5,1.5,4.8,2.2,7c0.7,2.2,1.3,4.2,1.7,6.2c0.8,3.8,0.6,7.1,0,9.2c-0.3,1.1-0.6,1.8-0.9,2.4
								c-0.1,0.2-0.2,0.4-0.3,0.6C19.1,185.9,19.1,185.9,19.1,185.9z"/>
						</g>
					</g>
				</g>
			</g>
			<g>
				<g>
					<g>
						<g>
							<path class="st7" d="M15.3,123.6c0,0-2.3-7.5,1.9-11.9c0.1-0.2,0.4-0.1,0.4,0.1C17.8,113.1,18.1,116.9,15.3,123.6z"/>
						</g>
					</g>
				</g>
				<g>
					<g>
						<g>
							<g>
								<path class="st5" d="M16.7,114.3c0,0,0,0.5-0.2,1.4c-0.2,1-0.3,2.1-0.5,3.3c-0.2,1.2-0.4,2.4-0.5,3.3
									c-0.1,0.8-0.2,1.4-0.2,1.4c0,0,0-0.5,0-1.4c0.1-0.9,0.2-2,0.4-3.3c0.2-1.3,0.4-2.5,0.6-3.3
									C16.5,114.8,16.7,114.3,16.7,114.3z"/>
							</g>
						</g>
					</g>
				</g>
			</g>
			<g>
				<g>
					<g>
						<g>
							<path class="st7" d="M18.1,141.3c0,0,1.4-7.7,7.2-9.6c0.2-0.1,0.4,0.1,0.3,0.3C25.2,133.2,23.7,136.7,18.1,141.3z"/>
						</g>
					</g>
				</g>
				<g>
					<g>
						<g>
							<g>
								<path class="st5" d="M23.7,133.7c0,0-0.3,0.5-0.8,1.1c-0.6,0.8-1.3,1.7-2,2.7c-0.8,1-1.4,1.9-2,2.7
									c-0.5,0.7-0.8,1.1-0.9,1.1c0,0,0.2-0.5,0.7-1.2c0.5-0.7,1.2-1.7,1.9-2.7c0.8-1,1.5-2,2.1-2.6
									C23.3,134,23.7,133.7,23.7,133.7z"/>
							</g>
						</g>
					</g>
				</g>
			</g>
			<g>
				<g>
					<g>
						<g>
							<path class="st7" d="M16.5,160.7c0,0-0.9-7.8,4.1-11.3c0.2-0.1,0.4,0,0.4,0.2C21,150.8,20.5,154.6,16.5,160.7z"/>
						</g>
					</g>
				</g>
				<g>
					<g>
						<g>
							<g>
								<path class="st5" d="M19.7,151.7c0,0-0.1,0.5-0.4,1.3c-0.3,0.9-0.7,2-1.2,3.1c-0.4,1.2-0.8,2.2-1.1,3.1
									c-0.3,0.8-0.5,1.3-0.5,1.3c0,0,0.1-0.5,0.3-1.4c0.2-0.8,0.6-2,1.1-3.2c0.5-1.2,0.9-2.3,1.2-3.1
									C19.4,152.2,19.6,151.7,19.7,151.7z"/>
							</g>
						</g>
					</g>
				</g>
			</g>
			<g>
				<g>
					<g>
						<g>
							<path class="st7" d="M20.8,180.1c0,0-0.6-7.8,4.5-11.1c0.2-0.1,0.4,0,0.4,0.2C25.7,170.5,25.1,174.2,20.8,180.1z"/>
						</g>
					</g>
				</g>
				<g>
					<g>
						<g>
							<g>
								<path class="st5" d="M24.3,171.3c0,0-0.1,0.5-0.5,1.3c-0.4,0.9-0.8,1.9-1.3,3.1c-0.5,1.2-0.9,2.2-1.3,3.1
									c-0.3,0.8-0.5,1.3-0.6,1.3c0,0,0.1-0.5,0.4-1.3c0.3-0.8,0.7-1.9,1.2-3.1c0.5-1.2,1-2.3,1.3-3.1
									C24,171.8,24.3,171.3,24.3,171.3z"/>
							</g>
						</g>
					</g>
				</g>
			</g>
			<g>
				<g>
					<g>
						<g>
							<path class="st7" d="M11.9,117.1c0,0-7-3.6-7.1-9.7c0-0.2,0.2-0.3,0.4-0.2C6.3,107.9,9.2,110.3,11.9,117.1z"/>
						</g>
					</g>
				</g>
				<g>
					<g>
						<g>
							<g>
								<path class="st5" d="M6.3,109.4c0,0,0.4,0.4,0.9,1.1c0.6,0.8,1.2,1.7,2,2.7c0.7,1,1.4,1.9,2,2.7c0.5,0.7,0.8,1.1,0.8,1.1
									c0,0-0.4-0.4-1-1c-0.6-0.7-1.3-1.6-2-2.7c-0.8-1.1-1.4-2-1.9-2.8C6.5,109.9,6.3,109.5,6.3,109.4z"/>
							</g>
						</g>
					</g>
				</g>
			</g>
			<g>
				<g>
					<g>
						<g>
							<path class="st7" d="M19.4,133.2c0,0-7.2-3.2-7.7-9.3c0-0.2,0.2-0.4,0.4-0.2C13.2,124.3,16.2,126.6,19.4,133.2z"/>
						</g>
					</g>
				</g>
				<g>
					<g>
						<g>
							<g>
								<path class="st5" d="M13.3,125.9c0,0,0.4,0.4,0.9,1c0.6,0.7,1.3,1.6,2.1,2.6c0.8,1,1.5,1.8,2.1,2.6c0.5,0.7,0.9,1.1,0.9,1.1
									c0,0-0.4-0.3-1-1c-0.6-0.6-1.4-1.5-2.2-2.5c-0.8-1-1.6-2-2.1-2.6C13.6,126.4,13.3,125.9,13.3,125.9z"/>
							</g>
						</g>
					</g>
				</g>
			</g>
			<g>
				<g>
					<g>
						<g>
							<path class="st7" d="M15.3,151.1c0,0-4.9-6.1-2.6-11.7c0.1-0.2,0.3-0.2,0.5,0C13.8,140.4,15.4,143.8,15.3,151.1z"/>
						</g>
					</g>
				</g>
				<g>
					<g>
						<g>
							<g>
								<path class="st5" d="M13.2,141.8c0,0,0.2,0.5,0.4,1.3c0.2,0.9,0.4,2,0.7,3.3c0.3,1.2,0.5,2.3,0.7,3.3
									c0.2,0.8,0.3,1.4,0.3,1.4c0,0-0.2-0.5-0.5-1.3c-0.2-0.8-0.5-2-0.8-3.3c-0.3-1.3-0.5-2.4-0.6-3.3
									C13.2,142.4,13.1,141.9,13.2,141.8z"/>
							</g>
						</g>
					</g>
				</g>
			</g>
			<g>
				<g>
					<g>
						<g>
							<path class="st7" d="M20.2,172.2c0,0-7.1-3.3-7.5-9.4c0-0.2,0.2-0.4,0.4-0.2C14.1,163.2,17.1,165.6,20.2,172.2z"/>
						</g>
					</g>
				</g>
				<g>
					<g>
						<g>
							<g>
								<path class="st5" d="M14.2,164.8c0,0,0.4,0.4,0.9,1c0.6,0.8,1.3,1.6,2.1,2.6c0.8,1,1.5,1.9,2.1,2.6c0.5,0.7,0.9,1.1,0.8,1.1
									c0,0-0.4-0.3-1-1c-0.6-0.6-1.3-1.5-2.2-2.6c-0.8-1-1.5-2-2-2.7C14.4,165.3,14.1,164.9,14.2,164.8z"/>
							</g>
						</g>
					</g>
				</g>
			</g>
			<g>
				<g>
					<g>
						<g>
							<g>
								<path class="st5" d="M34.3,141.4c0,0,0,0.1,0,0.2c0,0.1,0,0.3,0,0.5c0,0.5,0,1.1-0.1,1.9c-0.1,1.7-0.2,4-0.4,6.8l0,0l0,0
									c-0.5,2.8-2,6-3.9,9c-1.4,2.3-2.9,4.3-4.2,6.2c-1.3,1.9-2.4,3.7-3.2,5.2c-0.8,1.6-1.2,2.9-1.5,3.8c-0.1,0.5-0.2,0.8-0.3,1.1
									c-0.1,0.2-0.1,0.4-0.1,0.4c0,0,0-0.1,0-0.4c0-0.3,0.1-0.6,0.2-1.1c0.2-0.9,0.6-2.3,1.4-3.9c0.7-1.6,1.8-3.4,3.1-5.3
									c1.3-1.9,2.8-4,4.2-6.2c1.9-3,3.4-6.1,3.9-8.9l0,0c0.2-2.8,0.4-5.1,0.5-6.8c0.1-0.8,0.1-1.4,0.2-1.9c0-0.2,0-0.4,0.1-0.5
									C34.3,141.4,34.3,141.4,34.3,141.4z"/>
							</g>
						</g>
					</g>
				</g>
				<g>
					<g>
						<g>
							<g>
								<path class="st14" d="M30.1,159.2c0,0,3-7.2-0.8-12c-0.1-0.2-0.4-0.1-0.5,0.1C28.5,148.5,27.9,152.2,30.1,159.2z"/>
							</g>
						</g>
					</g>
					<g>
						<g>
							<g>
								<g>
									<path class="st5" d="M29.5,149.7c0,0,0.1,0.5,0.2,1.4c0.1,0.9,0.2,2,0.3,3.3c0.1,1.3,0.1,2.5,0.1,3.4c0,0.9,0,1.4-0.1,1.4
										c0,0-0.1-0.5-0.1-1.4c-0.1-1-0.1-2.1-0.2-3.3c-0.1-1.2-0.2-2.4-0.2-3.3C29.5,150.3,29.5,149.7,29.5,149.7z"/>
								</g>
							</g>
						</g>
					</g>
				</g>
				<g>
					<g>
						<g>
							<g>
								<g>
									<path class="st14" d="M20.8,176.7c0,0,2.4-7.5-1.7-11.9c-0.1-0.2-0.4-0.1-0.4,0.1C18.3,166.1,18,169.9,20.8,176.7z"/>
								</g>
							</g>
						</g>
					</g>
					<g>
						<g>
							<g>
								<g>
									<path class="st5" d="M19.4,167.3c0,0,0.2,0.5,0.3,1.3c0.2,0.8,0.4,2,0.6,3.3c0.2,1.3,0.3,2.5,0.4,3.3
										c0.1,0.9,0.1,1.4,0,1.4c0,0-0.1-0.5-0.2-1.4c-0.1-1-0.3-2.1-0.5-3.3c-0.2-1.2-0.4-2.4-0.5-3.3
										C19.5,167.8,19.4,167.3,19.4,167.3z"/>
								</g>
							</g>
						</g>
					</g>
				</g>
				<g>
					<g>
						<g>
							<g>
								<path class="st14" d="M33.9,150.3c0,0,6.4-4.5,5.8-10.5c0-0.2-0.3-0.3-0.4-0.2C38.3,140.5,35.8,143.3,33.9,150.3z"/>
							</g>
						</g>
					</g>
					<g>
						<g>
							<g>
								<g>
									<path class="st5" d="M38.5,142.1c0,0-0.2,0.5-0.5,1.3c-0.4,0.8-0.9,1.8-1.5,3c-0.6,1.2-1.2,2.2-1.7,2.9
										c-0.5,0.7-0.8,1.1-0.8,1.1c0,0,0.2-0.5,0.6-1.2c0.5-0.8,1-1.8,1.6-2.9c0.6-1.1,1.1-2.1,1.6-2.9
										C38.2,142.5,38.5,142,38.5,142.1z"/>
								</g>
							</g>
						</g>
					</g>
				</g>
				<g>
					<g>
						<g>
							<g>
								<g>
									<path class="st14" d="M23.4,169.3c0,0,7.8-1.2,9.8-6.9c0.1-0.2-0.1-0.4-0.3-0.3C31.7,162.3,28.2,163.8,23.4,169.3z"/>
								</g>
							</g>
						</g>
					</g>
					<g>
						<g>
							<g>
								<g>
									<path class="st5" d="M31.1,163.9c0,0-0.4,0.4-1,0.9c-0.7,0.5-1.6,1.3-2.7,2c-1.1,0.8-2.1,1.4-2.8,1.9
										c-0.7,0.4-1.2,0.7-1.2,0.7c0,0,0.4-0.3,1.1-0.8c0.8-0.6,1.7-1.2,2.7-1.9c1-0.7,1.9-1.4,2.7-1.9
										C30.7,164.1,31.1,163.8,31.1,163.9z"/>
								</g>
							</g>
						</g>
					</g>
				</g>
			</g>
		</g>
		<g>
			<g>
				<g>
					<g>
						<polygon class="st6" points="16,183.5 13.7,198.8 27.8,198.8 26,183.5 						"/>
					</g>
				</g>
			</g>
		</g>
		<g>
			<g>
				<g>
					<g>
						<path class="st5" d="M26.5,188.2c0,0.1-2.5,0.1-5.7,0.1c-3.1,0-5.7-0.1-5.7-0.1s2.5-0.1,5.7-0.1
							C24,188.1,26.5,188.2,26.5,188.2z"/>
					</g>
				</g>
			</g>
		</g>
		<g>
			<g>
				<g>
					<g>
						<g>
							<path class="st5" d="M26.8,189.5c0,0.1-2.6,0.1-5.9,0.1c-3.2,0-5.9-0.1-5.9-0.1c0-0.1,2.6-0.1,5.9-0.1
								C24.2,189.3,26.8,189.4,26.8,189.5z"/>
						</g>
					</g>
				</g>
			</g>
		</g>
	</g>
</g>
</svg>
