<?xml version="1.0" encoding="utf-8"?>
<!-- Generator: Adobe Illustrator 23.0.1, SVG Export Plug-In . SVG Version: 6.00 Build 0)  -->
<svg version="1.1" id="Layer_1" xmlns="http://www.w3.org/2000/svg" xmlns:xlink="http://www.w3.org/1999/xlink" x="0px" y="0px"
	 width="250px" height="200px" viewBox="0 0 250 200" style="enable-background:new 0 0 250 200;" xml:space="preserve">
<style type="text/css">
	.st0{fill:#FFD5D0;}
	.st1{fill:#FFE4E1;}
	.st2{fill:#FFF9F8;}
	.st3{fill:#F5CCC7;}
	.st4{fill:#EBC8C4;}
	.st5{fill:#F5F5F5;}
	.st6{fill:#FFF2F1;}
	.st7{fill:#771608;}
	.st8{fill:#FFB7B0;}
	.st9{fill:#820D01;}
	.st10{fill:#FF6656;}
	.st11{fill:#DB3726;}
	.st12{fill:#943026;}
	.st13{fill:#FFBE9D;}
	.st14{fill:#FF877B;}
	.st15{fill:#BF1B0A;}
	.st16{fill:#263238;}
	.st17{fill:#CC2817;}
	.st18{opacity:0.4;}
	.st19{fill:#FFA69D;}
	.st20{fill:#C92514;}
	.st21{fill:#E94534;}
</style>
<g>
	<g>
		<g>
			<g>
				<g>
					<g>
						<rect x="110.9" y="0.8" class="st0" width="42.6" height="70.5"/>
					</g>
				</g>
			</g>
		</g>
		<g>
			<g>
				<g>
					<g>
						<rect x="109.9" y="0.8" class="st1" width="42.6" height="70.5"/>
					</g>
				</g>
			</g>
		</g>
		<g>
			<g>
				<g>
					<g>
						<rect x="111.7" y="2.3" class="st2" width="39" height="67.6"/>
					</g>
				</g>
			</g>
		</g>
		<g>
			<g>
				<g>
					<g>
						<g>
							<rect x="119.1" y="11.1" class="st1" width="24" height="50"/>
						</g>
					</g>
				</g>
			</g>
		</g>
		<g>
			<g>
				<g>
					<g>
						<path class="st3" d="M119.1,43.4c-0.1-4.7,4.1-9.2,8.8-9.9c2.2-0.3,4.6,0.1,6.6-0.7c3.7-1.5,4.9-6.4,8.6-7.9l0.2,36.2h-24.1
							V43.4H119.1z"/>
					</g>
				</g>
			</g>
		</g>
	</g>
	<g>
		<g>
			<g>
				<g>
					<path class="st1" d="M32.7,76.5c0,0-4.2-0.3-3.8,9.2c0.4,9.5,1.4,14.5,1.4,14.5s-0.1,2.1-1.8,1.7c-1.6-0.4-4.7-2.5-6.2-0.9
						c-1.6,1.6-1,4,1.1,6.9s6.4,9.3,6.8,9.9c0.4,0.6,0.5,1.6-0.6,1.5c-1.2-0.1-8.9-2.7-10,1c-1,3.8,6.1,10.8,6.8,11.6
						c0.8,0.8,0.8,1.3,0.5,1.8s-2.8-0.7-5.1-1.3c-2.2-0.7-5-1-5.4,1.2s2.7,8.7,14.4,15.6l5.6,2.8l5.3-3.4c11-8,13.5-14.8,12.8-17
						c-0.6-2.2-3.3-1.5-5.5-0.7c-2.2,0.9-4.6,2.3-4.9,1.8c-0.4-0.4-0.4-0.9,0.3-1.8c0.7-0.9,7.1-8.6,5.6-12.2c-1.4-3.7-8.9-0.2-10,0
						s-1.1-0.9-0.8-1.5s4-7.5,5.8-10.5c1.8-3.1,2.1-5.5,0.4-7c-1.7-1.4-4.5,1-6.1,1.5c-1.6,0.6-1.9-1.5-1.9-1.5s0.5-5.1-0.1-14.6
						C36.9,75.8,32.7,76.5,32.7,76.5"/>
				</g>
			</g>
			<g>
				<g>
					<path class="st4" d="M33.1,85c0,0,0,0.1,0,0.2s0,0.3,0,0.6c0,0.5,0.1,1.3,0.2,2.2c0.1,1.9,0.3,4.8,0.5,8.2
						c0.4,7,0.8,16.6,1.3,27.2s0.9,20.2,1.2,27.2c0.2,3.5,0.3,6.3,0.4,8.2c0,1,0.1,1.7,0.1,2.2c0,0.2,0,0.4,0,0.6c0,0.1,0,0.2,0,0.2
						s0-0.1,0-0.2c0-0.1,0-0.3,0-0.6c0-0.5-0.1-1.3-0.2-2.2c-0.1-1.9-0.3-4.8-0.5-8.2c-0.4-7-0.8-16.6-1.3-27.2s-0.9-20.2-1.2-27.2
						c-0.2-3.5-0.3-6.3-0.4-8.2c0-1-0.1-1.7-0.1-2.2c0-0.2,0-0.4,0-0.6C33.1,85.1,33.1,85,33.1,85z"/>
				</g>
			</g>
			<g>
				<g>
					<path class="st4" d="M26.5,104c0,0,0.1,0.1,0.4,0.3c0.2,0.2,0.5,0.5,0.9,0.9c0.7,0.7,1.7,1.8,2.8,3c1.1,1.2,2,2.2,2.8,3
						c0.3,0.4,0.6,0.7,0.8,0.9c0.2,0.2,0.3,0.3,0.3,0.3s-0.1-0.1-0.4-0.3c-0.2-0.2-0.5-0.5-0.9-0.9c-0.7-0.7-1.7-1.8-2.8-3
						c-1.1-1.2-2-2.2-2.8-3c-0.3-0.4-0.6-0.7-0.8-0.9C26.6,104.2,26.5,104.1,26.5,104z"/>
				</g>
			</g>
			<g>
				<g>
					<path class="st4" d="M35,112.2c0,0,2-2.2,4.6-4.8c2.6-2.6,4.7-4.7,4.8-4.7c0,0-2,2.2-4.6,4.8C37.2,110.2,35,112.3,35,112.2z"/>
				</g>
			</g>
			<g>
				<g>
					<path class="st4" d="M35,128.6c0,0,0.1-0.1,0.4-0.3c0.3-0.2,0.7-0.4,1.1-0.6c0.9-0.5,2.2-1.3,3.6-2.1c1.4-0.9,2.6-1.7,3.5-2.3
						c0.4-0.3,0.8-0.5,1.1-0.7c0.2-0.2,0.4-0.2,0.4-0.2s-0.1,0.1-0.4,0.3c-0.2,0.2-0.6,0.4-1,0.8c-0.9,0.6-2.1,1.5-3.5,2.3
						c-1.4,0.9-2.7,1.6-3.6,2.1c-0.5,0.2-0.9,0.4-1.1,0.6C35.1,128.6,35,128.6,35,128.6z"/>
				</g>
			</g>
			<g>
				<g>
					<path class="st4" d="M25.6,122.9c0,0,0.1,0.1,0.4,0.2c0.2,0.1,0.6,0.3,1,0.6c0.9,0.5,2,1.2,3.3,1.9c1.3,0.8,2.5,1.5,3.3,2
						c0.4,0.3,0.8,0.5,1,0.6c0.2,0.2,0.4,0.2,0.3,0.3c0,0-0.1-0.1-0.4-0.2c-0.2-0.1-0.6-0.3-1-0.6c-0.9-0.5-2-1.2-3.3-1.9
						c-1.3-0.8-2.5-1.5-3.3-2c-0.4-0.3-0.8-0.5-1-0.6C25.8,123,25.6,122.9,25.6,122.9z"/>
				</g>
			</g>
			<g>
				<g>
					<path class="st4" d="M23.8,137.3c0,0,0.2,0.1,0.5,0.2c0.3,0.2,0.8,0.4,1.3,0.7c1.1,0.6,2.6,1.5,4.3,2.5c1.7,1,3.2,1.9,4.3,2.5
						c0.5,0.3,0.9,0.6,1.3,0.8c0.3,0.2,0.5,0.3,0.5,0.3s-0.2-0.1-0.5-0.2c-0.3-0.2-0.8-0.4-1.3-0.7c-1.1-0.6-2.6-1.5-4.3-2.5
						c-1.7-1-3.2-1.9-4.3-2.5c-0.5-0.3-0.9-0.6-1.3-0.8C23.9,137.4,23.8,137.3,23.8,137.3z"/>
				</g>
			</g>
			<g>
				<g>
					<path class="st4" d="M35.6,144.1c0,0,0.2-0.1,0.5-0.3c0.4-0.2,0.8-0.5,1.4-0.8c1.2-0.7,2.8-1.7,4.5-2.8s3.3-2.2,4.4-3
						c0.5-0.4,1-0.7,1.3-0.9s0.5-0.3,0.5-0.3s-0.2,0.1-0.4,0.4c-0.3,0.2-0.7,0.6-1.3,1c-1.1,0.8-2.6,1.9-4.4,3
						c-1.7,1.1-3.3,2.1-4.5,2.8c-0.6,0.3-1.1,0.6-1.4,0.8C35.8,144,35.6,144.1,35.6,144.1z"/>
				</g>
			</g>
		</g>
		<g>
			<g>
				<g>
					<g>
						<polygon class="st0" points="44.1,153.8 28.5,153.8 33.6,192.4 39,192.4 						"/>
					</g>
				</g>
			</g>
			<g>
				<g>
					<g>
						<path class="st5" d="M29.1,158.5c0,0,0,0.1,0.1,0.1c0.1,0.1,0.2,0.2,0.4,0.3c0.4,0.2,1,0.2,1.6-0.2c0.6-0.3,1.2-1,2-1.3
							s1.9-0.3,2.9,0.1c1,0.3,1.9,0.8,2.7,1.3s1.5,0.9,2.2,1.2c0.6,0.3,1.2,0.4,1.6,0.5c0.2,0,0.3,0,0.5,0c0.1,0,0.2,0,0.2,0
							c0-0.1-0.9,0-2.1-0.6c-0.6-0.3-1.3-0.7-2.1-1.2s-1.7-1-2.7-1.3s-2.1-0.4-3,0c-0.4,0.2-0.8,0.4-1.1,0.7s-0.6,0.5-0.9,0.7
							c-0.6,0.4-1.2,0.4-1.5,0.3C29.3,158.7,29.2,158.5,29.1,158.5z"/>
					</g>
				</g>
			</g>
			<g>
				<g>
					<g>
						<path class="st5" d="M30,165.7c0,0,0.1-0.2,0.4-0.4c0.2-0.2,0.6-0.6,1.2-0.8s1.3-0.3,2.1-0.3s1.7,0.2,2.6,0.4
							c0.9,0.2,1.9,0.2,2.7,0.1c0.8-0.1,1.6-0.3,2.1-0.6c0.6-0.3,1-0.6,1.3-0.8s0.4-0.4,0.4-0.4s-0.6,0.5-1.8,1
							c-0.6,0.2-1.3,0.5-2.1,0.5c-0.8,0.1-1.7,0-2.6-0.1c-0.9-0.2-1.8-0.3-2.7-0.3c-0.8,0-1.6,0.1-2.2,0.4c-0.6,0.2-1,0.6-1.2,0.9
							c-0.1,0.1-0.2,0.3-0.2,0.3C30.1,165.6,30,165.7,30,165.7z"/>
					</g>
				</g>
			</g>
			<g>
				<g>
					<g>
						<path class="st5" d="M42,169.5c0,0-0.1-0.1-0.4-0.2c-0.3-0.1-0.7-0.2-1.3-0.3c-0.6,0-1.2,0-2,0.1c-0.7,0.1-1.5,0.3-2.3,0.5
							s-1.6,0.3-2.3,0.3s-1.4-0.2-1.8-0.4c-1-0.4-1.4-1.1-1.4-1c0,0,0.1,0.2,0.3,0.4c0.2,0.2,0.6,0.5,1.1,0.8
							c0.5,0.2,1.2,0.4,1.9,0.5c0.7,0,1.6-0.1,2.4-0.2c0.8-0.2,1.6-0.4,2.3-0.5s1.4-0.2,1.9-0.2C41.4,169.2,42,169.5,42,169.5z"/>
					</g>
				</g>
			</g>
			<g>
				<g>
					<g>
						<path class="st5" d="M31.3,174.8c0,0,0.6-0.3,1.5-0.2c0.5,0.1,1,0.3,1.6,0.6s1.3,0.5,2.1,0.6c1.5,0.1,2.9-0.3,3.7-0.9
							c0.4-0.3,0.7-0.5,0.9-0.7s0.3-0.3,0.3-0.3s-0.4,0.4-1.3,0.9c-0.8,0.5-2.2,0.9-3.6,0.8c-1.5-0.1-2.6-1-3.6-1.1
							c-0.5-0.1-0.9,0-1.2,0.1C31.4,174.7,31.3,174.8,31.3,174.8z"/>
					</g>
				</g>
			</g>
			<g>
				<g>
					<g>
						<path class="st5" d="M32.3,182.2c0,0,0.5,0,1.3-0.3s1.8-0.9,2.9-1.3c0.6-0.2,1.1-0.4,1.7-0.3c0.5,0,1,0.1,1.3,0.3
							c0.7,0.4,0.9,0.9,1,0.8c0,0,0-0.1-0.1-0.3s-0.4-0.5-0.7-0.7c-0.4-0.2-0.9-0.4-1.4-0.4c-0.6,0-1.2,0.1-1.8,0.3
							c-1.2,0.5-2.1,1.1-2.9,1.4C32.8,182.1,32.3,182.2,32.3,182.2z"/>
					</g>
				</g>
			</g>
			<g>
				<g>
					<g>
						<path class="st5" d="M32.9,185.7c0,0,0.4,0.2,1,0.3c0.6,0.2,1.5,0.3,2.5,0.4c1,0.1,1.9,0.1,2.5,0.1s1-0.1,1-0.1
							c0-0.1-1.6,0-3.5-0.2S32.9,185.6,32.9,185.7z"/>
					</g>
				</g>
			</g>
		</g>
	</g>
	<g>
		<g>
			<g>
				<path class="st6" d="M62.8,29.5l-1.6,2.3c0,0,3.7,1,3.7,4.3S62.7,40,60.2,40c-2.4,0-4.8-0.7-4.7-4s3.2-4.5,3.2-4.5l-1.5-2H62.8z
					"/>
			</g>
		</g>
		<g>
			<g>
				<rect x="15.4" y="26" class="st6" width="3.3" height="13.8"/>
			</g>
		</g>
		<g>
			<g>
				<rect x="9" y="22.5" class="st1" width="6.4" height="17.3"/>
			</g>
		</g>
		<g>
			<g>
				<g>
					<rect x="1" y="39.8" class="st0" width="74.2" height="2.6"/>
				</g>
				<g>
					<rect x="14.9" y="41.1" class="st0" width="2" height="6.7"/>
				</g>
				<g>
					<rect x="54.9" y="41.1" class="st0" width="2" height="6.7"/>
				</g>
			</g>
		</g>
		<g>
			<g>
				<rect x="27" y="33.5" class="st1" width="17.3" height="6.4"/>
			</g>
		</g>
		<g>
			<g>
				<rect x="20.6" y="18.2" class="st6" width="6.4" height="21.6"/>
			</g>
		</g>
		<g>
			<g>
				<rect x="18.7" y="22.5" class="st1" width="1.9" height="17.3"/>
			</g>
		</g>
		<g>
			<g>
				<rect x="28.5" y="31.5" class="st1" width="17.3" height="1.9"/>
			</g>
		</g>
	</g>
	<g>
		<path class="st7" d="M249,192.5c0,0.1,1.5,0.1-82.2,0.1s-151.6-0.1-151.6-0.1s67.9-0.1,151.6-0.1S249,192.5,249,192.5z"/>
	</g>
	<g>
		<g>
			<path class="st8" d="M153,153c-0.3,0.9-3.3,36.6-3.3,36.6l8,0.5l4.9-33.8L153,153z"/>
			<path class="st9" d="M176.3,30.5c0.9,2.3,1.4,3.9,2.2,5.7c0.5,1.1,1.1,2.1,1.1,3.3c0,0.8-0.4,1.5-0.4,2.3c0,1.4,1.2,2.4,2.3,3.4
				c1.1,0.9,2.2,2.1,1.9,3.5c-0.1,0.6-0.4,1.1-0.5,1.7c-0.1,0.7,0.3,1.4,0.8,2s1,1.1,1.4,1.7l0.2,1.1l-13.3-4"/>
			<g>
				<path class="st8" d="M173.8,151.6c0.2,0.9,2.4,38.9,2.4,38.9l8-0.6l0.5-38.3L173.8,151.6L173.8,151.6z"/>
				<g>
					<g>
						<g>
							<g>
								<g>
									<g>
										<g>
											<path class="st10" d="M184.4,190.4v-0.8l-8.5,0.2l0.1,2.8h0.5c2.3,0.1,11.9,0.2,13.5-0.2
												C191.6,191.8,184.4,190.4,184.4,190.4z"/>
										</g>
									</g>
								</g>
							</g>
							<g>
								<g>
									<g>
										<g>
											<path class="st11" d="M178.9,192.4c-0.1-0.7-0.5-1.3-1.1-1.7s-1.3-0.6-2-0.5v2.2H178.9z"/>
										</g>
									</g>
								</g>
							</g>
						</g>
						<g>
							<path class="st11" d="M187.9,191.2c0,0,2.5,0.6,2.2,1s-10,0.6-14.3,0.3v-0.2l11.3-0.1C187.2,192.2,187.4,191.2,187.9,191.2z"
								/>
						</g>
						<g>
							<g>
								<g>
									<g>
										<path class="st12" d="M175.8,192.4h0.1c0.1,0,0.3,0,0.4,0c0.4,0,0.9,0,1.5,0c1.3,0,3.1,0,5.1,0s3.8-0.1,5.1-0.2
											c0.6,0,1.1-0.1,1.5-0.1c0.2,0,0.3,0,0.4,0c0.1,0,0.1,0,0.1,0h-0.1c-0.1,0-0.3,0-0.4,0c-0.4,0-0.9,0-1.5,0.1
											c-1.3,0-3.1,0.1-5.1,0.1s-3.8,0-5.1,0c-0.6,0-1.1,0-1.5,0c-0.2,0-0.3,0-0.4,0C175.8,192.4,175.8,192.4,175.8,192.4z"/>
									</g>
								</g>
							</g>
						</g>
						<g>
							<g>
								<g>
									<g>
										<path class="st12" d="M187.2,192.4c0,0,0-0.3,0.3-0.7c0.2-0.4,0.5-0.5,0.5-0.6c0,0-0.4,0.1-0.6,0.5
											C187.1,192,187.1,192.4,187.2,192.4z"/>
									</g>
								</g>
							</g>
						</g>
						<g>
							<g>
								<g>
									<g>
										<path class="st12" d="M184.6,191.2c0,0,0.1-0.1,0.3-0.3c0.1-0.2,0.2-0.3,0.2-0.4c0,0-0.1,0.1-0.3,0.3
											C184.7,191.1,184.6,191.2,184.6,191.2z"/>
									</g>
								</g>
							</g>
						</g>
						<g>
							<g>
								<g>
									<g>
										<path class="st12" d="M184,190.9c0,0,0.2-0.1,0.3-0.2c0.1-0.1,0.2-0.2,0.2-0.3c0,0-0.2,0.1-0.3,0.2
											C184,190.8,183.9,190.9,184,190.9z"/>
									</g>
								</g>
							</g>
						</g>
						<g>
							<g>
								<g>
									<g>
										<path class="st12" d="M183.5,190.2c0,0,0.2,0,0.4,0s0.4,0,0.4-0.1c0,0-0.2,0-0.4,0C183.7,190.1,183.5,190.1,183.5,190.2z"
											/>
									</g>
								</g>
							</g>
						</g>
						<g>
							<g>
								<g>
									<g>
										<path class="st12" d="M183.3,189.7c0,0,0.2,0.1,0.5,0.1s0.5,0,0.5-0.1c0,0-0.2,0-0.5,0
											C183.6,189.7,183.3,189.6,183.3,189.7z"/>
									</g>
								</g>
							</g>
						</g>
						<g>
							<g>
								<g>
									<g>
										<path class="st12" d="M184.9,190.5c0,0,0.2,0,0.5,0c0.2,0,0.4-0.1,0.6-0.1c0.1,0,0.2-0.1,0.3-0.1s0.1-0.1,0.1-0.2
											c0-0.1,0-0.2-0.1-0.2c-0.5-0.2-1,0-1.2,0.3C185.1,190.3,185,190.5,184.9,190.5c0.1,0.1,0.1,0.1,0.1,0.1s0-0.2,0.2-0.4
											c0.1-0.1,0.3-0.2,0.5-0.3s0.5-0.1,0.6,0s0.1,0.2,0,0.2c-0.1,0.1-0.2,0.1-0.3,0.1c-0.2,0.1-0.4,0.1-0.6,0.1
											C185.1,190.5,184.9,190.5,184.9,190.5z"/>
									</g>
								</g>
							</g>
						</g>
						<g>
							<g>
								<g>
									<g>
										<path class="st12" d="M185.1,190.6c0,0,0.1-0.1,0.1-0.4c0-0.1-0.1-0.2-0.2-0.4c-0.1-0.1-0.2-0.3-0.5-0.2
											c-0.1,0-0.2,0.2-0.2,0.2c0,0.1,0.1,0.2,0.1,0.2c0.1,0.1,0.2,0.2,0.3,0.3C184.9,190.5,185,190.6,185.1,190.6
											c0,0-0.2-0.1-0.3-0.3c-0.1-0.1-0.2-0.2-0.2-0.3c-0.1-0.1-0.1-0.3,0-0.3s0.3,0.1,0.4,0.2c0.1,0.1,0.1,0.2,0.2,0.3
											C185.1,190.4,185,190.6,185.1,190.6z"/>
									</g>
								</g>
							</g>
						</g>
						<g>
							<g>
								<g>
									<g>
										<path class="st12" d="M175.9,190.2c0,0,0.2,0,0.6,0c0.4,0,0.9,0.2,1.4,0.5s0.7,0.8,0.9,1.1c0.1,0.3,0.2,0.6,0.2,0.6
											s0-0.1,0-0.2c0-0.1,0-0.2-0.1-0.4c-0.1-0.3-0.4-0.8-0.9-1.2c-0.5-0.3-1-0.5-1.4-0.5c-0.2,0-0.4,0-0.5,0
											C175.9,190.2,175.9,190.2,175.9,190.2z"/>
									</g>
								</g>
							</g>
						</g>
						<g>
							<g>
								<g>
									<g>
										<path class="st12" d="M180,191.6c0,0,0.6,0.1,1.2,0.1c0.7,0,1.2-0.1,1.2-0.1s-0.6,0-1.2,0S180,191.6,180,191.6z"/>
									</g>
								</g>
							</g>
						</g>
						<g>
							<g>
								<g>
									<g>
										<path class="st12" d="M178.3,191.7c0,0,0,0.1,0.1,0.2c0.1,0.1,0.1,0.2,0.1,0.2s0-0.1,0-0.3
											C178.5,191.7,178.4,191.6,178.3,191.7z"/>
									</g>
								</g>
							</g>
						</g>
						<g>
							<g>
								<g>
									<g>
										<path class="st12" d="M177.7,190.9c0,0,0,0.1,0.1,0.2c0.1,0.1,0.2,0.1,0.2,0.1s0-0.1-0.1-0.2
											C177.8,191,177.7,190.9,177.7,190.9z"/>
									</g>
								</g>
							</g>
						</g>
						<g>
							<g>
								<g>
									<g>
										<path class="st12" d="M176.8,190.6c0,0,0.1,0,0.2,0.1c0.1,0,0.2,0.1,0.2,0.1s-0.1-0.1-0.2-0.2
											C176.9,190.6,176.8,190.6,176.8,190.6z"/>
									</g>
								</g>
							</g>
						</g>
						<g>
							<g>
								<g>
									<g>
										<path class="st12" d="M176.1,190.5c0,0,0,0.1,0.1,0.1s0.1,0,0.1,0s0-0.1-0.1-0.1C176.2,190.5,176.2,190.5,176.1,190.5z"/>
									</g>
								</g>
							</g>
						</g>
					</g>
				</g>
			</g>
			<g>
				<path class="st8" d="M141.5,80c-2.4-3.3-2-7.8,0.9-10.6l14-13.5l2.7,9.9c-0.2,0.1-10.9,9.8-10.9,9.8l7.5,11.1
					c1.2,1.7,1.4,3.9,0.5,5.8l-0.5,1.5c-0.7,2.2-3.3,3.2-5.3,2.1l-2.3-1.2c-0.3-0.1-0.3-0.5-0.2-0.7l0,0c0.1-0.1,0.3-0.2,0.4-0.2
					l3.2,0.3c0.7,0.1,1.3-0.4,1.5-1l0,0l0,0L141.5,80z"/>
				<path class="st13" d="M148.4,75.9c-0.6-0.8-1.3-1.6-1.8-2.3"/>
			</g>
			<g>
				<g>
					<path class="st8" d="M187.7,66.6l3.1,5.7l1.9-15.4c0.1-1.6-0.4-2.8-0.6-3.2c-0.2-0.4-0.5-0.9-0.8-1.3c-0.4-0.5-0.9-1-1.3-1.3
						c-0.5-0.3-0.4-1,0.1-1.1s1.9,0.7,3,2.2s1.2-1.4,1.3-2.4s0.4-4.2,0.7-4.5c0.5-0.3,0.9,0.1,0.9,1.2c-0.1,1-0.1,4.2,0.4,4.2
						s0.8-5.3,0.8-5.3s-0.1-1.1,0.5-1.1c1.1,0,0.5,5.6,0.4,6.1c-0.1,0.4,0.5,0.4,0.6,0c0-0.4,0.1-5.3,1.3-5.3c0.9,0-0.5,4.6,0,5.6
						s0.7-3.6,1.6-3.6c0.3,0,0.6,0.1,0.1,2.7c-0.3,1.4-1.2,3.5-1.5,6.2l-0.1,0.7c0,0-1.6,13.5-4,21.8c-1.4,4.9-8.4,5.4-11.3,1.1
						c-1.9-2.9-5-10.5-5-10.5L187.7,66.6z"/>
					<g>
						<path class="st14" d="M198.9,54.4c0,0-0.2,0-0.5,0.1s-0.6,0.3-0.9,0.7l-0.1,0.2l-0.1-0.2c-0.1-0.3-0.2-0.6-0.4-0.8
							c-0.4-0.6-1-0.9-1.5-1.1c-0.4-0.2-0.8-0.2-0.8-0.2s0.3-0.1,0.8,0.1c0.5,0.1,1.1,0.5,1.6,1.1c0.2,0.3,0.4,0.6,0.4,0.9h-0.2
							c0.3-0.5,0.7-0.7,1-0.7C198.7,54.4,198.9,54.4,198.9,54.4z"/>
					</g>
				</g>
			</g>
			<g>
				<g>
					<g>
						<g>
							<g>
								<g>
									<g>
										<path class="st10" d="M149.2,190.4v-0.8l8.5,0.2l-0.1,2.8h-0.5c-2.3,0.1-11.9,0.2-13.5-0.2
											C141.9,191.8,149.2,190.4,149.2,190.4z"/>
									</g>
								</g>
							</g>
						</g>
						<g>
							<g>
								<g>
									<path class="st11" d="M154.6,192.4c0.1-0.7,0.5-1.3,1.1-1.7s1.3-0.6,2-0.5v2.2H154.6z"/>
								</g>
							</g>
						</g>
					</g>
					<path class="st11" d="M145.6,191.2c0,0-2.5,0.6-2.2,1s10,0.6,14.3,0.3v-0.2l-11.3-0.1C146.4,192.2,146.1,191.2,145.6,191.2z"/>
					<g>
						<g>
							<g>
								<g>
									<path class="st12" d="M157.8,192.3h-0.1c-0.1,0-0.3,0-0.4,0c-0.4,0-0.9,0-1.5,0c-1.3,0-3.1,0-5.1,0s-3.8-0.1-5.1-0.2
										c-0.6,0-1.1-0.1-1.5-0.1c-0.2,0-0.3,0-0.4,0c-0.1,0-0.1,0-0.1,0h0.1c0.1,0,0.3,0,0.4,0c0.4,0,0.9,0,1.5,0.1
										c1.3,0,3.1,0.1,5.1,0.1s3.8,0,5.1,0c0.6,0,1.1,0,1.5,0c0.2,0,0.3,0,0.4,0C157.7,192.3,157.8,192.3,157.8,192.3z"/>
								</g>
							</g>
						</g>
					</g>
					<g>
						<g>
							<g>
								<g>
									<path class="st12" d="M146.4,192.3c0,0,0-0.3-0.3-0.7c-0.2-0.4-0.5-0.5-0.5-0.6c0,0,0.4,0.1,0.6,0.5
										C146.4,192,146.4,192.3,146.4,192.3z"/>
								</g>
							</g>
						</g>
					</g>
					<g>
						<g>
							<g>
								<g>
									<path class="st12" d="M148.9,191.2c0,0-0.1-0.1-0.3-0.3c-0.1-0.2-0.2-0.3-0.2-0.4c0,0,0.1,0.1,0.3,0.3
										C148.8,191,148.9,191.2,148.9,191.2z"/>
								</g>
							</g>
						</g>
					</g>
					<g>
						<g>
							<g>
								<g>
									<path class="st12" d="M149.6,190.9c0,0-0.2-0.1-0.3-0.2c-0.1-0.1-0.2-0.2-0.2-0.3c0,0,0.2,0.1,0.3,0.2
										C149.5,190.7,149.6,190.9,149.6,190.9z"/>
								</g>
							</g>
						</g>
					</g>
					<g>
						<g>
							<g>
								<g>
									<path class="st12" d="M150,190.1c0,0-0.2,0-0.4,0s-0.4,0-0.4-0.1c0,0,0.2,0,0.4,0C149.8,190.1,150,190.1,150,190.1z"/>
								</g>
							</g>
						</g>
					</g>
					<g>
						<g>
							<g>
								<g>
									<path class="st12" d="M150.2,189.6c0,0-0.2,0.1-0.5,0.1s-0.5,0-0.5-0.1c0,0,0.2,0,0.5,0S150.2,189.6,150.2,189.6z"/>
								</g>
							</g>
						</g>
					</g>
					<g>
						<g>
							<g>
								<g>
									<path class="st12" d="M148.6,190.5c0,0-0.2,0-0.5,0c-0.2,0-0.4-0.1-0.6-0.1c-0.1,0-0.2-0.1-0.3-0.1s-0.1-0.1-0.1-0.2
										c0-0.1,0-0.2,0.1-0.2c0.5-0.2,1,0,1.2,0.3C148.5,190.3,148.5,190.4,148.6,190.5c-0.1,0.1-0.1,0.1-0.1,0.1s0-0.2-0.2-0.4
										c-0.1-0.1-0.3-0.2-0.5-0.3s-0.5-0.1-0.6,0s-0.1,0.2,0,0.2c0.1,0.1,0.2,0.1,0.3,0.1c0.2,0.1,0.4,0.1,0.6,0.1
										C148.4,190.5,148.6,190.5,148.6,190.5z"/>
								</g>
							</g>
						</g>
					</g>
					<g>
						<g>
							<g>
								<g>
									<path class="st12" d="M148.5,190.5c0,0-0.1-0.1-0.1-0.4c0-0.1,0.1-0.2,0.2-0.4c0.1-0.1,0.2-0.3,0.5-0.2
										c0.1,0,0.2,0.2,0.2,0.2c0,0.1-0.1,0.2-0.1,0.2c-0.1,0.1-0.2,0.2-0.3,0.3C148.7,190.5,148.5,190.5,148.5,190.5
										s0.2-0.1,0.3-0.3c0.1-0.1,0.2-0.2,0.2-0.3c0.1-0.1,0.1-0.3,0-0.3s-0.3,0.1-0.4,0.2c-0.1,0.1-0.1,0.2-0.2,0.3
										C148.4,190.4,148.5,190.5,148.5,190.5z"/>
								</g>
							</g>
						</g>
					</g>
					<g>
						<g>
							<g>
								<g>
									<path class="st12" d="M157.7,190.2c0,0-0.2,0-0.6,0c-0.4,0-0.9,0.2-1.4,0.5s-0.7,0.8-0.9,1.1c-0.1,0.3-0.2,0.6-0.2,0.6
										s0-0.1,0-0.2c0-0.1,0-0.2,0.1-0.4c0.1-0.3,0.4-0.8,0.9-1.2c0.5-0.3,1-0.5,1.4-0.5c0.2,0,0.4,0,0.5,0
										C157.6,190.1,157.7,190.2,157.7,190.2z"/>
								</g>
							</g>
						</g>
					</g>
					<g>
						<g>
							<g>
								<g>
									<path class="st12" d="M153.5,191.6c0,0-0.6,0.1-1.2,0.1c-0.7,0-1.2-0.1-1.2-0.1s0.6,0,1.2,0
										C153,191.6,153.5,191.6,153.5,191.6z"/>
								</g>
							</g>
						</g>
					</g>
					<g>
						<g>
							<g>
								<g>
									<path class="st12" d="M155.2,191.6c0,0,0,0.1-0.1,0.2c-0.1,0.1-0.1,0.2-0.1,0.2s0-0.1,0-0.3
										C155.1,191.7,155.2,191.6,155.2,191.6z"/>
								</g>
							</g>
						</g>
					</g>
					<g>
						<g>
							<g>
								<g>
									<path class="st12" d="M155.8,190.9c0,0,0,0.1-0.1,0.2c-0.1,0.1-0.2,0.1-0.2,0.1s0-0.1,0.1-0.2
										C155.7,190.9,155.8,190.9,155.8,190.9z"/>
								</g>
							</g>
						</g>
					</g>
					<g>
						<g>
							<g>
								<g>
									<path class="st12" d="M156.7,190.6c0,0-0.1,0-0.2,0.1c-0.1,0-0.2,0.1-0.2,0.1s0.1-0.1,0.2-0.2
										C156.6,190.5,156.8,190.6,156.7,190.6z"/>
								</g>
							</g>
						</g>
					</g>
					<g>
						<g>
							<g>
								<g>
									<path class="st12" d="M157.4,190.5c0,0,0,0.1-0.1,0.1s-0.1,0-0.1,0s0-0.1,0.1-0.1C157.3,190.4,157.4,190.4,157.4,190.5z"/>
								</g>
							</g>
						</g>
					</g>
				</g>
			</g>
			<g>
				<path class="st9" d="M160.2,83.8L154.6,97l-6.6,72.3l16.9,1.8l5.5-62.4l1.7,62.9l15.5-0.5L185.3,97c-0.1-2-0.6-4-1.4-5.8
					l-3.7-7.6L160.2,83.8z"/>
				<g>
					<path class="st15" d="M172.1,103.7c0,0,0,0.1-0.2,0.1c-0.1,0.1-0.3,0.2-0.6,0.2s-0.6-0.1-0.9-0.3c-0.3-0.2-0.6-0.5-0.8-0.9
						c-0.4-0.9-0.3-2-0.3-3.1c0-1.2,0-2.5,0-3.8c0-2.7,0-5.2,0-7c0-0.9,0-1.6,0-2.1s0-0.8,0-0.8s0,0.3,0.1,0.8c0,0.5,0,1.3,0,2.1
						c0,1.8,0.1,4.2,0.1,7c0,1.4,0,2.7,0,3.8c0,1.2-0.1,2.3,0.3,3.1c0.3,0.8,1.1,1.1,1.5,1.2C171.8,103.9,172,103.7,172.1,103.7z"/>
				</g>
				<g>
					<path class="st15" d="M184.1,91.8c0,0-0.1,0.1-0.4,0.2c-0.3,0.1-0.7,0.3-1.2,0.4s-1.2,0.1-1.9-0.1s-1.5-0.4-2.2-0.8
						c-1.5-0.8-2.4-2.1-2.9-3.1c-0.2-0.5-0.4-0.9-0.4-1.2c-0.1-0.3-0.1-0.5-0.1-0.5s0.2,0.7,0.7,1.6s1.4,2.2,2.9,2.9
						c0.7,0.4,1.4,0.7,2.1,0.8c0.7,0.2,1.3,0.2,1.9,0.1C183.5,92.1,184.1,91.8,184.1,91.8z"/>
				</g>
				<g>
					<path class="st15" d="M164.2,86.9c0,0,0,0.2,0,0.5s-0.1,0.7-0.2,1.2c-0.3,1-1,2.3-2.2,3.4c-1.3,1-2.7,1.5-3.7,1.5
						c-0.5,0.1-0.9,0-1.2,0s-0.4-0.1-0.4-0.1s0.6,0,1.7-0.1c1-0.1,2.4-0.6,3.6-1.6c1.2-1,1.9-2.3,2.2-3.2
						C164.1,87.5,164.1,86.9,164.2,86.9z"/>
				</g>
				<g>
					<path class="st15" d="M171.1,85.7c0,0,0.1,0,0.2,0c0.1,0,0.3,0.1,0.4,0.2c0.1,0.1,0.3,0.4,0.3,0.7c0,0.3-0.3,0.6-0.7,0.6
						c-0.3,0.1-0.7-0.1-0.9-0.3c-0.2-0.3-0.1-0.6,0-0.7c0.1-0.2,0.2-0.3,0.3-0.4s0.2,0,0.2,0s-0.2,0.1-0.3,0.5
						c0,0.2-0.1,0.4,0.1,0.6c0.1,0.2,0.4,0.3,0.6,0.2c0.2,0,0.4-0.2,0.5-0.4c0-0.2,0-0.4-0.2-0.5C171.4,85.8,171.1,85.8,171.1,85.7z
						"/>
				</g>
				<g>
					<g>
						<path class="st15" d="M165,166.7c0,0-0.2,0-0.6,0c-0.4,0-1-0.1-1.8-0.1c-1.5-0.1-3.5-0.3-5.8-0.6c-2.2-0.3-4.3-0.6-5.7-0.8
							c-0.7-0.1-1.3-0.2-1.7-0.3s-0.6-0.1-0.6-0.2c0,0,0.2,0,0.6,0.1c0.5,0.1,1,0.1,1.7,0.2c1.5,0.2,3.5,0.5,5.7,0.8
							s4.3,0.5,5.8,0.7c0.7,0.1,1.3,0.1,1.7,0.2C164.8,166.6,165,166.7,165,166.7z"/>
					</g>
				</g>
				<g>
					<g>
						<path class="st15" d="M186.7,166c0,0-0.2,0-0.6,0.1c-0.4,0-1,0-1.6,0.1c-1.3,0.1-3.2,0.2-5.3,0.3c-2.1,0.2-3.9,0.4-5.2,0.5
							c-0.6,0.1-1.2,0.1-1.6,0.2c-0.4,0-0.6,0.1-0.6,0c0,0,0.2-0.1,0.6-0.1c0.4-0.1,0.9-0.2,1.6-0.3c1.3-0.2,3.2-0.4,5.3-0.6
							c2.1-0.2,3.9-0.2,5.3-0.2c0.7,0,1.2,0,1.6,0C186.5,166,186.7,166,186.7,166z"/>
					</g>
				</g>
				<g>
					<g>
						<g>
							<path class="st15" d="M185.1,163.3c0.1,0,0.1,0.5,0.2,1.2c0,0.7,0,1.2-0.1,1.2s-0.1-0.5-0.2-1.2
								C185,163.9,185.1,163.3,185.1,163.3z"/>
						</g>
						<g>
							<path class="st15" d="M184.9,158.5c0.1,0,0.1,0.5,0.2,1.2c0,0.7,0,1.2-0.1,1.2s-0.1-0.5-0.2-1.2
								C184.8,159,184.9,158.5,184.9,158.5z"/>
						</g>
						<g>
							<path class="st15" d="M184.8,153.6c0.1,0,0.1,0.5,0.2,1.2c0,0.7,0,1.2-0.1,1.2s-0.1-0.5-0.2-1.2
								C184.6,154.2,184.7,153.6,184.8,153.6z"/>
						</g>
						<g>
							<path class="st15" d="M184.6,148.8c0.1,0,0.1,0.5,0.2,1.2c0,0.7,0,1.2-0.1,1.2s-0.1-0.5-0.2-1.2
								C184.4,149.3,184.5,148.8,184.6,148.8z"/>
						</g>
						<g>
							<path class="st15" d="M184.4,143.9c0.1,0,0.1,0.5,0.2,1.2c0,0.7,0,1.2-0.1,1.2s-0.1-0.5-0.2-1.2
								C184.3,144.5,184.3,143.9,184.4,143.9z"/>
						</g>
						<g>
							<path class="st15" d="M184.2,139.1c0.1,0,0.1,0.5,0.2,1.2c0,0.7,0,1.2-0.1,1.2s-0.1-0.5-0.2-1.2
								C184.1,139.6,184.1,139.1,184.2,139.1z"/>
						</g>
						<g>
							<path class="st15" d="M184,134.2c0.1,0,0.1,0.5,0.2,1.2c0,0.7,0,1.2-0.1,1.2s-0.1-0.5-0.2-1.2
								C183.9,134.8,183.9,134.2,184,134.2z"/>
						</g>
						<g>
							<path class="st15" d="M183.8,129.4c0.1,0,0.1,0.5,0.2,1.2c0,0.7,0,1.2-0.1,1.2s-0.1-0.5-0.2-1.2
								C183.7,129.9,183.7,129.4,183.8,129.4z"/>
						</g>
						<g>
							<path class="st15" d="M183.6,124.5c0.1,0,0.1,0.5,0.2,1.2c0,0.7,0,1.2-0.1,1.2s-0.1-0.5-0.2-1.2
								C183.5,125.1,183.5,124.5,183.6,124.5z"/>
						</g>
						<g>
							<path class="st15" d="M183.4,119.7c0.1,0,0.1,0.5,0.2,1.2c0,0.7,0,1.2-0.1,1.2s-0.1-0.5-0.2-1.2
								C183.3,120.2,183.3,119.7,183.4,119.7z"/>
						</g>
						<g>
							<path class="st15" d="M183.2,114.8c0.1,0,0.1,0.5,0.2,1.2c0,0.7,0,1.2-0.1,1.2s-0.1-0.5-0.2-1.2
								C183.1,115.4,183.1,114.8,183.2,114.8z"/>
						</g>
						<g>
							<path class="st15" d="M183,110c0.1,0,0.1,0.5,0.2,1.2c0,0.7,0,1.2-0.1,1.2s-0.1-0.5-0.2-1.2C182.9,110.5,182.9,110,183,110z"
								/>
						</g>
						<g>
							<path class="st15" d="M182.8,105.1c0.1,0,0.1,0.5,0.2,1.2c0,0.7,0,1.2-0.1,1.2s-0.1-0.5-0.2-1.2
								C182.7,105.7,182.7,105.1,182.8,105.1z"/>
						</g>
						<g>
							<path class="st15" d="M182.6,100.3c0.1,0,0.1,0.5,0.2,1.2c0,0.7,0,1.2-0.1,1.2s-0.1-0.5-0.2-1.2
								C182.5,100.8,182.5,100.3,182.6,100.3z"/>
						</g>
						<g>
							<path class="st15" d="M182.4,95.4c0.1,0,0.1,0.5,0.2,1.2c0,0.7,0,1.2-0.1,1.2s-0.1-0.5-0.2-1.2
								C182.3,96,182.3,95.4,182.4,95.4z"/>
						</g>
						<g>
							<path class="st15" d="M182.2,92.2c0.1,0,0.1,0.2,0.1,0.4c0,0.2,0,0.4-0.1,0.4s-0.1-0.2-0.1-0.4
								C182.1,92.4,182.2,92.2,182.2,92.2z"/>
						</g>
					</g>
				</g>
				<g>
					<g>
						<g>
							<path class="st15" d="M150.9,162.6c0.1,0,0.1,0.6,0,1.2c-0.1,0.7-0.2,1.2-0.2,1.2c-0.1,0-0.1-0.6,0-1.2
								C150.7,163.1,150.8,162.6,150.9,162.6z"/>
						</g>
						<g>
							<path class="st15" d="M151.3,157.8c0.1,0,0.1,0.6,0,1.2c-0.1,0.7-0.2,1.2-0.2,1.2c-0.1,0-0.1-0.6,0-1.2
								C151.1,158.3,151.2,157.8,151.3,157.8z"/>
						</g>
						<g>
							<path class="st15" d="M151.8,152.9c0.1,0,0.1,0.6,0,1.2c-0.1,0.7-0.2,1.2-0.2,1.2c-0.1,0-0.1-0.6,0-1.2
								C151.6,153.5,151.7,152.9,151.8,152.9z"/>
						</g>
						<g>
							<path class="st15" d="M152.2,148.1c0.1,0,0.1,0.6,0,1.2c-0.1,0.7-0.2,1.2-0.2,1.2c-0.1,0-0.1-0.6,0-1.2
								C152,148.6,152.1,148.1,152.2,148.1z"/>
						</g>
						<g>
							<path class="st15" d="M152.7,143.3c0.1,0,0.1,0.6,0,1.2c-0.1,0.7-0.2,1.2-0.2,1.2c-0.1,0-0.1-0.6,0-1.2
								C152.5,143.8,152.6,143.3,152.7,143.3z"/>
						</g>
						<g>
							<path class="st15" d="M153.1,138.4c0.1,0,0.1,0.6,0,1.2c-0.1,0.7-0.2,1.2-0.2,1.2c-0.1,0-0.1-0.6,0-1.2
								C152.9,139,153.1,138.4,153.1,138.4z"/>
						</g>
						<g>
							<path class="st15" d="M153.6,133.6c0.1,0,0.1,0.6,0,1.2c-0.1,0.7-0.2,1.2-0.2,1.2s-0.1-0.6,0-1.2
								C153.4,134.1,153.5,133.6,153.6,133.6z"/>
						</g>
						<g>
							<path class="st15" d="M154,128.8c0.1,0,0.1,0.6,0,1.2c-0.1,0.7-0.2,1.2-0.2,1.2c-0.1,0-0.1-0.6,0-1.2
								C153.9,129.3,154,128.8,154,128.8z"/>
						</g>
						<g>
							<path class="st15" d="M154.5,123.9c0.1,0,0.1,0.6,0,1.2c-0.1,0.7-0.2,1.2-0.2,1.2c-0.1,0-0.1-0.6,0-1.2
								C154.3,124.5,154.4,123.9,154.5,123.9z"/>
						</g>
						<g>
							<path class="st15" d="M154.9,119.1c0.1,0,0.1,0.6,0,1.2c-0.1,0.7-0.2,1.2-0.2,1.2c-0.1,0-0.1-0.6,0-1.2
								C154.8,119.6,154.9,119.1,154.9,119.1z"/>
						</g>
						<g>
							<path class="st15" d="M155.4,114.3c0.1,0,0.1,0.6,0,1.2c-0.1,0.7-0.2,1.2-0.2,1.2c-0.1,0-0.1-0.6,0-1.2
								C155.2,114.8,155.3,114.3,155.4,114.3z"/>
						</g>
						<g>
							<path class="st15" d="M155.8,109.4c0.1,0,0.1,0.6,0,1.2c-0.1,0.7-0.2,1.2-0.2,1.2c-0.1,0-0.1-0.6,0-1.2
								C155.7,110,155.8,109.4,155.8,109.4z"/>
						</g>
						<g>
							<path class="st15" d="M156.3,104.6c0.1,0,0.1,0.6,0,1.2c-0.1,0.7-0.2,1.2-0.2,1.2c-0.1,0-0.1-0.6,0-1.2
								C156.1,105.1,156.2,104.6,156.3,104.6z"/>
						</g>
						<g>
							<path class="st15" d="M156.7,99.8c0.1,0,0.1,0.6,0,1.2c-0.1,0.7-0.2,1.2-0.2,1.2c-0.1,0-0.1-0.6,0-1.2
								C156.6,100.3,156.7,99.8,156.7,99.8z"/>
						</g>
						<g>
							<path class="st15" d="M157.2,94.9c0.1,0,0.1,0.6,0,1.2c-0.1,0.7-0.2,1.2-0.2,1.2c-0.1,0-0.1-0.6,0-1.2
								C157,95.5,157.1,94.9,157.2,94.9z"/>
						</g>
					</g>
				</g>
			</g>
			<g>
				<g>
					<g>
						<g>
							<path class="st10" d="M180.1,83.7c0,0,0.2-13.8,0.1-14.1l8.9-1c0,0-2.7-10.3-4.2-12.3c-3.9-5-10.1-4.1-10.1-4.1l-9.2-0.1
								c0,0-0.3-0.1-0.8-0.1c-2.7-0.3-5.5,0.6-7.5,2.4l-10.5,9.5l8.4,7.6l3.8-3.1l1.1,15.5L180.1,83.7z"/>
						</g>
					</g>
				</g>
				<g>
					<path class="st9" d="M187.6,63.2c0,0.1-6.2,4-14,8.9s-14.1,8.7-14.1,8.7c0-0.1,6.2-4,14-8.9C181.3,67,187.6,63.1,187.6,63.2z"
						/>
				</g>
				<g>
					<g>
						<path class="st9" d="M177.2,52.4c0.1,0-3.9,5.4-8.8,11.9c-4.9,6.5-9,11.8-9,11.7c-0.1,0,3.9-5.4,8.8-11.9
							S177.2,52.3,177.2,52.4z"/>
					</g>
				</g>
			</g>
			<g>
				<g>
					<path class="st9" d="M155,56.5c0.1-1.8-0.9-3.7-0.2-5.4c0.5-1.3,1.8-2,2.4-3.3c0.5-1.2,0.2-2.6,0-3.8c-0.2-1.3-0.3-2.8,0.6-3.7
						c0.7-0.8,1.9-0.9,2.7-1.7c0.7-0.7,1-1.7,1-2.7c0.1-1,0-2,0.1-2.9c0.3-2,1.5-3.8,3.3-4.7c1.8-0.9,4-0.8,5.7,0.9l-6,22.8
						C161.3,52.6,158,54.2,155,56.5z"/>
					<g>
						<path class="st9" d="M155.1,47.2c0,0-0.1,0-0.2,0.1c-0.1,0.1-0.2,0.3-0.3,0.5c0,0.2,0,0.6,0.3,0.8c0.2,0.2,0.7,0.3,1.1,0.2
							c0.4-0.1,0.8-0.5,0.9-1c0.2-0.5,0.1-1.1,0-1.7c-0.2-0.6-0.4-1.2-0.6-1.8c-0.2-0.6-0.3-1.4-0.2-2.1c0.3-1.4,1.2-2.6,2.4-3.2
							c0.6-0.3,1.1-0.4,1.6-0.7c0.5-0.2,0.9-0.5,1.2-0.9c0.6-0.7,0.7-1.5,0.7-2s-0.1-0.8-0.1-0.8s0,0.1,0.1,0.2
							c0,0.1,0.1,0.3,0.1,0.6c0,0.5-0.1,1.3-0.6,2.1c-0.3,0.4-0.7,0.7-1.2,1c-0.5,0.2-1.1,0.4-1.6,0.7c-1.1,0.5-2,1.6-2.2,3
							c-0.1,0.7-0.1,1.4,0.1,2c0.2,0.6,0.5,1.2,0.6,1.8c0.2,0.6,0.2,1.2,0,1.8c-0.2,0.5-0.6,1-1.1,1.1s-1,0-1.2-0.3
							c-0.3-0.3-0.3-0.7-0.3-0.9c0.1-0.3,0.2-0.4,0.3-0.5C155,47.2,155.1,47.2,155.1,47.2z"/>
					</g>
				</g>
				<path class="st16" d="M173.7,51.7c-0.2-2.5-3.1-1-2.8-3.5c0.7-5.7,1-11.5,0.8-17.2"/>
				<path class="st8" d="M164.8,51.8l-1.1-17.4c2.9-4,6.8-4.8,11.6-3.4c0,0,2,8.4,1.8,12.4c-0.3,4.2-3.4,5.1-3.4,5.1
					s0.1,1.4,0.3,3.2c0.8,0.1,2.1,0.3,3,0.6c0.3,0.1-6.8,9.6-6.8,9.6l-8.3-9C161.9,52.8,162.9,52.2,164.8,51.8z"/>
				<g>
					<g>
						<g>
							<g>
								<g>
									<g>
										<g>
											<g>
												<path class="st9" d="M175.2,37.5c0,0.3-0.2,0.5-0.5,0.6c-0.3,0-0.6-0.1-0.6-0.4c0-0.3,0.2-0.5,0.5-0.6
													C174.9,37.1,175.2,37.2,175.2,37.5z"/>
											</g>
											<g>
												<g>
													<path class="st9" d="M175.9,37.1c-0.1,0.1-0.5-0.2-1.1-0.1c-0.6,0-1,0.4-1,0.3c0,0,0-0.2,0.2-0.3
														c0.2-0.2,0.5-0.3,0.8-0.3c0.4,0,0.7,0.1,0.9,0.2C175.8,36.9,175.9,37,175.9,37.1z"/>
												</g>
											</g>
										</g>
										<g>
											<g>
												<path class="st9" d="M169.4,38.2c0,0.3-0.2,0.5-0.5,0.6c-0.3,0-0.6-0.1-0.6-0.4c0-0.3,0.2-0.5,0.5-0.6
													C169.1,37.7,169.3,37.9,169.4,38.2z"/>
											</g>
											<g>
												<g>
													<path class="st9" d="M170,37.7c-0.1,0.1-0.5-0.2-1.1-0.1c-0.6,0-1,0.4-1,0.3c0,0,0-0.2,0.2-0.3
														c0.2-0.2,0.5-0.3,0.8-0.3c0.4,0,0.7,0.1,0.9,0.2C170,37.6,170,37.7,170,37.7z"/>
												</g>
											</g>
										</g>
										<g>
											<g>
												<path class="st9" d="M172.6,41.7c0,0,0.3-0.1,0.9-0.3c0.1,0,0.3-0.1,0.3-0.2c0-0.1-0.1-0.3-0.1-0.4
													c-0.2-0.3-0.4-0.7-0.5-1.1c-0.8-1.5-1.3-2.8-1.3-2.8c0.1,0,0.7,1.2,1.5,2.7c0.2,0.4,0.4,0.7,0.5,1.1
													c0.1,0.2,0.2,0.3,0.1,0.6c0,0.1-0.1,0.2-0.2,0.2c-0.1,0-0.2,0-0.2,0.1C172.9,41.7,172.6,41.7,172.6,41.7z"/>
											</g>
										</g>
										<g>
											<path class="st14" d="M173.6,48.4c0,0-2.8,0.5-5.7-0.9c0,0,1.6,2.7,5.7,1.9V48.4z"/>
										</g>
										<g>
											<path class="st14" d="M172.5,43.1c-0.2-0.3-0.6-0.4-1-0.3c-0.2,0.1-0.5,0.2-0.6,0.4s-0.1,0.5,0,0.7
												c0.2,0.2,0.5,0.2,0.8,0.1c0.3-0.1,0.5-0.3,0.7-0.5c0.1-0.1,0.1-0.1,0.1-0.2C172.6,43.2,172.6,43.2,172.5,43.1"/>
										</g>
										<g>
											<g>
												<path class="st9" d="M170.9,42.2c0.1,0,0.2,0.6,0.7,1c0.6,0.4,1.2,0.3,1.2,0.3s-0.1,0.1-0.4,0.2c-0.3,0-0.7,0-1-0.3
													c-0.4-0.2-0.5-0.6-0.6-0.8C170.8,42.4,170.9,42.2,170.9,42.2z"/>
											</g>
										</g>
									</g>
								</g>
							</g>
						</g>
					</g>
					<g>
						<path class="st9" d="M173.9,36.2c0,0.1,0.4,0,0.9,0s0.9,0.1,0.9,0s-0.4-0.3-0.9-0.3C174.3,35.9,173.9,36.1,173.9,36.2z"/>
					</g>
					<g>
						<path class="st9" d="M168.1,36.5C168.2,36.5,168.2,36.4,168.1,36.5L168.1,36.5c0.1-0.1,0.5-0.2,0.9-0.2c0.5-0.1,1,0.1,1,0
							c0,0-0.1-0.1-0.3-0.2c-0.2-0.1-0.5-0.2-0.8-0.1c-0.5,0-0.9,0.3-0.9,0.4v0.1H168.1L168.1,36.5z"/>
					</g>
					<g>
						<path class="st14" d="M168,40.2l0.1-0.1c0-0.1,0-0.2-0.1-0.2l-0.1,0.1C167.9,40.1,168,40.2,168,40.2z"/>
					</g>
					<g>
						<path class="st14" d="M169.3,40.2c0,0,0.1-0.1,0-0.2c0-0.1-0.1-0.1-0.1-0.1V40C169.2,40.1,169.3,40.2,169.3,40.2z"/>
					</g>
					<g>
						<path class="st14" d="M168.6,40.7l0.1-0.1c0-0.1,0-0.1-0.1-0.1C168.5,40.5,168.5,40.6,168.6,40.7
							C168.5,40.7,168.6,40.7,168.6,40.7z"/>
					</g>
					<g>
						<path class="st14" d="M176.1,39.9c0,0,0.1-0.1,0.1-0.2c0-0.1-0.1-0.1-0.1-0.1s-0.1,0.1-0.1,0.2
							C176,39.8,176.1,39.9,176.1,39.9z"/>
					</g>
					<g>
						<path class="st14" d="M174.8,39.9l0.1-0.1c0-0.1,0-0.1-0.1-0.1l-0.1,0.1C174.7,39.9,174.7,39.9,174.8,39.9z"/>
					</g>
					<g>
						<path class="st14" d="M175.4,40.3l0.1-0.1c0-0.1,0-0.1-0.1-0.1l-0.1,0.1C175.3,40.3,175.4,40.3,175.4,40.3z"/>
					</g>
				</g>
				<g>
					<path class="st9" d="M171.2,28.9c0.2,2,1,3.9,2.4,5.4c1.3,1.5,2.9,2.8,4.8,3.1c-0.5-1.7-0.6-3.1-1.1-4.5
						c-0.4-1.4-1-2.8-2.1-3.8c-1.4-1.2-3.5-1.6-5.2-0.8"/>
					<g>
						<path class="st15" d="M178,35.9c0,0-0.1,0-0.3,0.1c-0.2,0-0.6,0-0.9-0.1c-0.4-0.1-0.8-0.3-1.3-0.6c-0.4-0.3-0.9-0.7-1.3-1.1
							c-0.9-0.9-1.5-1.8-1.9-2.5s-0.6-1.1-0.6-1.2c0,0,0.3,0.4,0.7,1.1c0.4,0.7,1,1.6,1.9,2.4c0.8,0.8,1.7,1.5,2.5,1.7
							C177.5,35.9,178,35.8,178,35.9z"/>
					</g>
					<g>
						<path class="st15" d="M176.7,36.1c0,0,0.1,0,0.1,0.1c0.1,0.1,0.2,0.2,0.4,0.4c0.3,0.4,0.7,1,0.9,1.9c0.1,0.4,0.2,0.9,0.2,1.4
							s-0.1,1.1-0.2,1.6c-0.1,0.6-0.2,1.2-0.3,1.8c0,0.6,0.1,1.2,0.4,1.8c0.3,0.6,0.7,1.1,1.2,1.5s1,0.6,1.5,1s0.8,0.9,0.8,1.5
							s-0.3,1-0.5,1.4s-0.4,0.7-0.6,1c-0.1,0.3-0.2,0.6-0.2,0.8c0,0.5,0.3,0.7,0.2,0.7c0,0-0.1,0-0.1-0.1c-0.1-0.1-0.2-0.3-0.2-0.5
							c0-0.3,0-0.6,0.1-0.9c0.1-0.3,0.3-0.7,0.5-1.1c0.2-0.4,0.4-0.8,0.4-1.3s-0.3-1-0.7-1.3c-0.4-0.4-1-0.6-1.5-1s-1-0.9-1.2-1.5
							c-0.3-0.6-0.4-1.3-0.4-1.9c0-0.6,0.2-1.2,0.3-1.8s0.2-1.1,0.2-1.6s0-1-0.1-1.4c-0.2-0.8-0.5-1.5-0.8-1.9
							C176.9,36.3,176.7,36.1,176.7,36.1z"/>
					</g>
					<g>
						<path class="st9" d="M181.4,44.9c0,0,0,0.1-0.1,0.2c-0.1,0.1-0.2,0.3-0.5,0.5c-0.3,0.1-0.6,0.2-1,0.2
							c-0.4-0.1-0.9-0.3-1.1-0.8c-0.3-0.4-0.4-1-0.3-1.7c0.1-0.6,0.4-1.2,0.7-1.8c0.4-0.6,0.9-1.1,1.2-1.7c0.4-0.6,0.5-1.4,0.3-2.1
							c-0.2-0.7-0.7-1.3-1.3-1.6c-0.3-0.2-0.6-0.2-1-0.3c-0.3-0.1-0.7-0.1-1-0.2c-0.7-0.2-1.3-0.5-1.7-0.8c-0.5-0.3-0.9-0.7-1.3-1
							c-0.8-0.7-1.3-1.3-1.6-1.8c-0.1-0.2-0.2-0.5-0.3-0.6c0-0.1-0.1-0.2-0.1-0.2s0.1,0.3,0.4,0.8c0.3,0.5,0.9,1.1,1.6,1.7
							c0.8,0.6,1.7,1.5,3,1.8c0.3,0.1,0.7,0.2,1,0.2c0.3,0.1,0.7,0.1,1.1,0.3c0.7,0.3,1.3,1,1.5,1.8s0,1.6-0.4,2.3
							c-0.4,0.6-0.9,1.1-1.3,1.7c-0.4,0.5-0.6,1.1-0.7,1.7c-0.1,0.6,0,1.1,0.3,1.5s0.6,0.7,1,0.7c0.4,0.1,0.7,0,1-0.1
							C181.4,45.2,181.4,44.9,181.4,44.9z"/>
					</g>
				</g>
				<g>
					<g>
						<path class="st15" d="M156.8,55.2c0,0-0.1-0.1-0.2-0.2c-0.1-0.1-0.3-0.3-0.4-0.6c-0.3-0.5-0.6-1.5-0.4-2.6
							c0.1-0.6,0.3-1.1,0.8-1.7c0.4-0.5,1-1,1.5-1.4c0.6-0.5,1.1-1,1.5-1.6c0.2-0.3,0.4-0.7,0.4-1.1c0.1-0.4,0-0.8-0.2-1.2
							c-0.3-0.8-0.9-1.4-1.2-2.2c-0.2-0.4-0.2-0.8-0.2-1.2c0.1-0.4,0.2-0.8,0.5-1.1c0.5-0.6,1.1-1,1.6-1.3c0.6-0.3,1.1-0.7,1.5-1
							c0.8-0.7,1.1-1.7,1-2.3s-0.3-0.9-0.3-0.9s0.1,0.1,0.1,0.2c0.1,0.1,0.2,0.4,0.2,0.7c0.1,0.6-0.2,1.6-1,2.4
							c-0.4,0.4-0.9,0.7-1.5,1.1c-0.5,0.3-1.1,0.7-1.5,1.3c-0.2,0.3-0.4,0.6-0.4,1s0,0.7,0.2,1.1c0.3,0.7,0.9,1.3,1.2,2.2
							c0.2,0.4,0.2,0.9,0.2,1.3c-0.1,0.4-0.2,0.8-0.5,1.2c-0.4,0.7-1,1.2-1.6,1.7s-1.1,0.9-1.5,1.4s-0.6,1-0.7,1.6
							c-0.2,1.1,0,2,0.3,2.5C156.6,54.9,156.8,55.2,156.8,55.2z"/>
					</g>
					<g>
						<path class="st9" d="M158.9,54.5c0.2-1.9,0.6-2.7,0.6-4.6c0-1.8,1.6-4.1,0.6-6.2c0.3-1.3,0.8-2.6,1.4-3.8
							c0.3-0.8,1.6-3.1,1.9-3.9c-0.2-1.4-1.2-1.3-1-2.7c0.2-1.7,1-3.4,2.5-4.4c0.9-0.6,2-0.8,3.1-0.9c0.7-0.1,1.5-0.1,2.2,0.1
							s1.4,0.6,1.8,1.3l-0.4-0.4c0.3,1.6-0.2,3.3-1.3,4.5s-2.6,2-4.1,2.4c0,0.5-0.1,1.1-0.3,1.5v0.1c0,0-0.1,0-0.1,0.1
							c-0.1,0.2-0.2,0.3-0.3,0.5c-0.2,0.2-0.4,0.4-0.6,0.5c-0.3,0.7-0.3,1.4,0,2.1c0.4,0.7,1.2,1.3,1.4,2.1c0.2,0.9-0.5,1.8-0.5,2.8
							c0,0.5,0.2,1,0.5,1.4c1.7,2.2,1.4,4.5,0.4,7.1c-0.4,1-0.9,2-0.6,3c0.3,0.9,1.2,1.6,1.5,2.5c0.4,1.3-0.5,2.6-1.4,3.6
							c-1.9-0.9-3.9-1.5-5.9-2c0.2-0.9,0.3-1.7,0.3-2.6c-0.2,0.9-1,1.7-1.9,1.8s-1.9-0.4-2.4-1.2C157.8,58.4,158.7,56.4,158.9,54.5z
							"/>
						<g>
							<path class="st15" d="M161.7,34.1c0,0,0.6,0.5,1.6,0.9c1.1,0.4,2.7,0.7,4.4,0.1c1.7-0.6,2.7-1.9,3.3-2.9
								c0.5-1,0.7-1.8,0.7-1.7c0,0,0,0.2-0.1,0.5s-0.2,0.8-0.5,1.3s-0.6,1.1-1.2,1.7c-0.6,0.6-1.3,1.1-2.1,1.4
								c-1.7,0.6-3.5,0.3-4.5-0.2c-0.5-0.2-0.9-0.5-1.2-0.7C161.8,34.3,161.7,34.1,161.7,34.1z"/>
						</g>
						<g>
							<path class="st15" d="M162,32c0,0,0.4,0.1,1.2,0.1c0.7,0,1.7-0.1,2.7-0.4c1-0.4,1.8-1,2.3-1.5s0.8-0.9,0.8-0.8
								c0,0-0.2,0.4-0.7,1c-0.5,0.5-1.3,1.2-2.3,1.6c-1.1,0.4-2.1,0.5-2.8,0.4C162.4,32.2,162,32,162,32z"/>
						</g>
						<g>
							<path class="st15" d="M161.7,32.9c0.1,0,0.5,0.4,1.1,0.7s1.2,0.4,1.2,0.5s-0.6,0.1-1.3-0.2C161.9,33.5,161.6,33,161.7,32.9z"
								/>
						</g>
						<g>
							<path class="st15" d="M162.1,61.8c0,0,0-0.1,0-0.3s0.2-0.5,0.5-0.8c0.3-0.2,0.7-0.5,0.9-1s0.3-1.1-0.1-1.7
								c-0.2-0.3-0.5-0.5-0.8-0.6c-0.4-0.2-0.7-0.5-0.9-0.9c-0.1-0.2-0.1-0.4-0.1-0.6c0-0.2,0.1-0.4,0.2-0.7
								c0.2-0.4,0.4-0.8,0.7-1.2c0.5-0.8,0.7-1.7,0.6-2.7c-0.1-1-0.4-1.9-1.1-2.7c-0.3-0.4-0.7-0.9-0.7-1.5s0.3-1,0.6-1.5
								c0.3-0.4,0.6-0.8,0.9-1.1c0.3-0.4,0.4-0.8,0.4-1.2s-0.3-0.8-0.5-1.1c-0.3-0.3-0.5-0.7-0.7-1.1c-0.3-0.8-0.3-1.6,0.1-2.3
								c0.4-0.6,1-0.9,1.4-1.2c0.5-0.3,0.7-0.7,0.9-1c0.1-0.4,0.1-0.7,0.1-0.8c0-0.2-0.1-0.3-0.1-0.3s0.1,0.1,0.1,0.3
								c0.1,0.2,0.1,0.5-0.1,0.9c-0.1,0.4-0.4,0.8-0.9,1.1c-0.4,0.3-1,0.6-1.3,1.2c-0.3,0.6-0.4,1.4,0,2.1c0.1,0.4,0.4,0.7,0.7,1
								s0.6,0.7,0.6,1.2s-0.2,1-0.4,1.4c-0.3,0.4-0.6,0.8-0.9,1.2c-0.3,0.4-0.5,0.8-0.5,1.3s0.3,0.9,0.6,1.3
								c0.7,0.8,1.1,1.8,1.2,2.8c0.1,1-0.2,2-0.7,2.8c-0.2,0.4-0.5,0.8-0.6,1.1c-0.1,0.2-0.1,0.4-0.1,0.6c0,0.2,0,0.4,0.1,0.6
								c0.2,0.3,0.4,0.6,0.8,0.8c0.3,0.2,0.6,0.4,0.8,0.7s0.3,0.7,0.3,1s-0.1,0.6-0.2,0.9c-0.1,0.3-0.3,0.5-0.5,0.6
								c-0.2,0.2-0.4,0.3-0.5,0.4c-0.3,0.2-0.4,0.5-0.5,0.7C162.2,61.7,162.1,61.8,162.1,61.8z"/>
						</g>
						<g>
							<path class="st15" d="M161.6,33.6c0,0,0.5,0.6,1.5,1.1c0.5,0.2,1.2,0.4,2,0.4s1.6-0.2,2.4-0.6c0.8-0.4,1.4-1.1,1.7-1.8
								s0.5-1.4,0.8-1.9c0.2-0.6,0.5-1,0.7-1.2c0.1-0.1,0.2-0.2,0.3-0.3c0.1-0.1,0.1-0.1,0.1-0.1s-0.5,0.5-0.9,1.7
								c-0.2,0.6-0.4,1.2-0.7,2c-0.3,0.7-0.9,1.5-1.8,1.9c-0.8,0.4-1.7,0.6-2.5,0.6s-1.5-0.2-2.1-0.5c-0.5-0.3-0.9-0.6-1.2-0.9
								C161.7,33.8,161.6,33.6,161.6,33.6z"/>
						</g>
					</g>
				</g>
			</g>
		</g>
	</g>
	<g>
		<g>
			<g>
				<g>
					<g>
						<path class="st10" d="M66,187.7l-0.9,3.8c0,0-6.2,8.1-8.1,7.7c-1.3-0.3,0.3-2.4,2.7-8.5l0.5-2.5L66,187.7z"/>
					</g>
				</g>
			</g>
			<g>
				<g>
					<g>
						<path class="st12" d="M56.7,197.9c0,0,0.1,0.2,0.3,0.3c0.3,0.1,0.7,0.2,1.2-0.2c0.8-0.7,1.9-1.7,3.1-2.9
							c1.2-1.2,2.1-2.4,2.8-3.2c0.3-0.4,0.6-0.7,0.8-1c0.1-0.1,0.1-0.2,0.2-0.3s0.1-0.1,0.1-0.1s0,0-0.1,0.1s-0.1,0.2-0.2,0.3
							c-0.2,0.3-0.4,0.6-0.8,1c-0.7,0.9-1.6,2-2.8,3.3c-1.2,1.2-2.3,2.3-3.1,2.9c-0.2,0.2-0.5,0.2-0.7,0.3c-0.2,0-0.4,0-0.6-0.1
							c-0.1-0.1-0.2-0.2-0.3-0.2C56.7,198,56.7,197.9,56.7,197.9z"/>
					</g>
				</g>
			</g>
			<g>
				<g>
					<g>
						<g>
							<path class="st12" d="M57.6,195.4c0,0,0.2-0.1,0.5-0.1s0.8,0.1,1.2,0.4c0.4,0.3,0.7,0.6,0.9,0.9c0.1,0.3,0.1,0.5,0.1,0.5
								s-0.1-0.2-0.2-0.5c-0.1-0.3-0.4-0.6-0.8-0.8c-0.4-0.2-0.8-0.4-1.1-0.4C57.8,195.3,57.6,195.4,57.6,195.4z"/>
						</g>
					</g>
				</g>
			</g>
			<g>
				<g>
					<g>
						<path class="st12" d="M63.5,193.5c0,0,0-0.1-0.1-0.2c0-0.1-0.1-0.3-0.1-0.5c-0.1-0.4,0-1.1,0.3-1.7c0.3-0.6,0.8-1,1.3-1.2
							c0.2-0.1,0.4-0.1,0.5-0.2c0.1,0,0.2,0,0.2,0s-0.3,0-0.7,0.2c-0.4,0.2-0.9,0.6-1.2,1.2c-0.3,0.6-0.4,1.2-0.3,1.7
							C63.4,193.2,63.5,193.5,63.5,193.5z"/>
					</g>
				</g>
			</g>
			<g>
				<g>
					<g>
						<path class="st12" d="M65.6,188.3c0,0-0.1,0.5-0.2,1.2s-0.3,1.2-0.3,1.2s0.1-0.5,0.2-1.2C65.4,188.8,65.6,188.3,65.6,188.3z"
							/>
					</g>
				</g>
			</g>
			<g>
				<g>
					<g>
						<path class="st12" d="M59.5,191.2c0,0,0.4-0.1,0.8,0c0.4,0.1,0.7,0.3,0.7,0.3s-0.3-0.1-0.7-0.2
							C59.8,191.2,59.5,191.2,59.5,191.2z"/>
					</g>
				</g>
			</g>
			<g>
				<g>
					<g>
						<path class="st12" d="M59.4,191.8c0,0,0.3-0.1,0.7,0s0.6,0.3,0.6,0.3s-0.3-0.1-0.6-0.2C59.7,191.8,59.4,191.9,59.4,191.8z"/>
					</g>
				</g>
			</g>
			<g>
				<g>
					<g>
						<path class="st12" d="M58.9,192.6c0,0,0.3-0.2,0.7-0.1c0.4,0.1,0.6,0.4,0.6,0.4s-0.3-0.2-0.6-0.3
							C59.2,192.6,58.9,192.7,58.9,192.6z"/>
					</g>
				</g>
			</g>
			<g>
				<g>
					<g>
						<path class="st12" d="M59.9,190.9c0,0,0.3-0.1,0.7-0.2c0.2-0.1,0.5-0.2,0.7-0.4c0.1-0.1,0.3-0.2,0.4-0.3
							c0.1-0.1,0.3-0.2,0.3-0.4s-0.2-0.2-0.3-0.2s-0.3,0.1-0.4,0.3c-0.2,0.2-0.4,0.4-0.6,0.6c-0.3,0.4-0.5,0.6-0.5,0.6
							s0-0.1,0.1-0.2c0.1-0.1,0.2-0.3,0.3-0.5c0.2-0.2,0.3-0.4,0.6-0.6c0.1-0.1,0.2-0.2,0.4-0.3s0.5,0,0.5,0.3
							c0,0.2-0.2,0.4-0.3,0.5s-0.3,0.2-0.4,0.3c-0.3,0.2-0.5,0.3-0.8,0.3c-0.2,0.1-0.4,0.1-0.5,0.1C60,190.9,59.9,190.9,59.9,190.9z
							"/>
					</g>
				</g>
			</g>
			<g>
				<g>
					<g>
						<path class="st12" d="M60.2,190.8c0,0,0-0.3-0.1-0.7c0-0.2-0.1-0.5-0.2-0.7c-0.1-0.1-0.1-0.3-0.2-0.4
							c-0.1-0.1-0.2-0.2-0.4-0.1c-0.1,0.1-0.1,0.2-0.1,0.4c0,0.1,0.1,0.3,0.1,0.4c0.1,0.3,0.3,0.5,0.4,0.6
							C60,190.7,60.2,190.8,60.2,190.8s-0.1,0-0.2-0.1c-0.1-0.1-0.2-0.2-0.4-0.3c-0.2-0.2-0.3-0.4-0.4-0.6c-0.1-0.1-0.1-0.3-0.1-0.4
							c0-0.2,0-0.4,0.2-0.5s0.4,0,0.5,0.2c0.1,0.1,0.2,0.3,0.2,0.4c0.1,0.3,0.2,0.5,0.2,0.7s0,0.4,0,0.5
							C60.2,190.8,60.2,190.8,60.2,190.8z"/>
					</g>
				</g>
			</g>
			<g>
				<g>
					<g>
						<path class="st17" d="M65.1,191.5l0.4-1.8c0,0-1.5,0.3-1.9,1.4c-0.4,1.1-0.3,2-0.3,2l-3.3,3.6c0,0-0.8-1.6-2.3-1.2
							c0,0-1.2,2.6-1.1,3.3c0,0.7,0.8,0.6,1.1,0.5c0.1-0.1,1.6-0.9,3-2.3C62.3,194.9,64.2,192.6,65.1,191.5z"/>
					</g>
				</g>
			</g>
		</g>
		<g>
			<g>
				<g>
					<g>
						<g>
							<g>
								<g>
									<path class="st10" d="M95.8,190.1V185l-9.5-0.1l-0.1,7.4h0.6c2.6,0.2,13.3,0.7,15.1,0.2C103.8,192,95.8,190.1,95.8,190.1z"
										/>
								</g>
							</g>
						</g>
					</g>
				</g>
				<g>
					<g>
						<g>
							<g>
								<g>
									<path class="st17" d="M89.6,192.3c-0.1-0.8-0.6-1.5-1.2-2s-1.4-0.8-2.2-0.7v2.7H89.6z"/>
								</g>
							</g>
						</g>
					</g>
				</g>
			</g>
			<g>
				<g>
					<g>
						<g class="st18">
							<g>
								<path class="st17" d="M99.7,191.2c0,0,2.8,0.8,2.5,1.3c-0.4,0.5-11.2,0.3-16-0.2v-0.2l12.6,0.3
									C98.8,192.4,99.1,191.2,99.7,191.2z"/>
							</g>
						</g>
					</g>
				</g>
			</g>
			<g>
				<g>
					<g>
						<g>
							<g>
								<path class="st12" d="M86,192.1c0,0,0.1,0,0.2,0s0.3,0,0.5,0c0.5,0,1,0.1,1.7,0.1c1.5,0.1,3.5,0.1,5.7,0.2
									c2.2,0,4.2,0,5.7,0c0.7,0,1.3,0,1.7,0c0.2,0,0.3,0,0.5,0c0.1,0,0.2,0,0.2,0s-0.1,0-0.2,0s-0.3,0-0.5,0c-0.5,0-1,0-1.7,0
									c-1.5,0-3.5,0-5.7,0s-4.2-0.1-5.7-0.1c-0.7,0-1.3,0-1.7-0.1c-0.2,0-0.3,0-0.5,0C86.1,192.1,86,192.1,86,192.1z"/>
							</g>
						</g>
					</g>
				</g>
			</g>
			<g>
				<g>
					<g>
						<g>
							<g>
								<path class="st12" d="M98.8,192.5c0,0,0.1-0.4,0.3-0.8c0.3-0.4,0.6-0.6,0.6-0.7c0,0-0.4,0.1-0.7,0.6
									C98.8,192.1,98.8,192.5,98.8,192.5z"/>
							</g>
						</g>
					</g>
				</g>
			</g>
			<g>
				<g>
					<g>
						<g>
							<g>
								<path class="st12" d="M96,191.1c0,0,0.2-0.1,0.3-0.4c0.1-0.2,0.2-0.4,0.2-0.4s-0.2,0.1-0.3,0.4
									C96.1,190.9,96,191.1,96,191.1z"/>
							</g>
						</g>
					</g>
				</g>
			</g>
			<g>
				<g>
					<g>
						<g>
							<g>
								<path class="st12" d="M95.3,190.7c0,0,0.2-0.1,0.3-0.2c0.2-0.1,0.3-0.3,0.3-0.3s-0.2,0.1-0.3,0.2
									C95.4,190.5,95.3,190.6,95.3,190.7z"/>
							</g>
						</g>
					</g>
				</g>
			</g>
			<g>
				<g>
					<g>
						<g>
							<g>
								<path class="st12" d="M94.8,189.8c0,0,0.2,0.1,0.5,0.1s0.5,0,0.5,0s-0.2-0.1-0.5-0.1C95,189.7,94.8,189.7,94.8,189.8z"/>
							</g>
						</g>
					</g>
				</g>
			</g>
			<g>
				<g>
					<g>
						<g>
							<g>
								<path class="st12" d="M94.6,189.1c0,0,0.2,0.1,0.6,0.2c0.3,0,0.6,0,0.6-0.1c0,0-0.3,0-0.6,0S94.7,189.1,94.6,189.1z"/>
							</g>
						</g>
					</g>
				</g>
			</g>
			<g>
				<g>
					<g>
						<g>
							<g>
								<path class="st12" d="M96.4,190.3c0,0,0.2,0,0.6,0c0.2,0,0.4-0.1,0.7-0.1c0.1,0,0.2-0.1,0.4-0.1c0.1,0,0.1-0.1,0.2-0.2
									c0-0.1,0-0.2-0.1-0.2c-0.6-0.3-1.2,0-1.4,0.3c-0.1,0.2-0.2,0.3-0.2,0.4c0,0.1,0,0.2,0,0.2s0-0.2,0.3-0.5
									c0.1-0.1,0.3-0.3,0.5-0.3c0.2-0.1,0.5-0.1,0.7,0.1c0.1,0.1,0.1,0.2-0.1,0.2c-0.1,0.1-0.2,0.1-0.3,0.1
									c-0.2,0.1-0.4,0.1-0.6,0.2C96.6,190.2,96.4,190.2,96.4,190.3z"/>
							</g>
						</g>
					</g>
				</g>
			</g>
			<g>
				<g>
					<g>
						<g>
							<g>
								<path class="st12" d="M96.5,190.3c0,0,0.1-0.1,0.1-0.4c0-0.1-0.1-0.3-0.2-0.4c-0.1-0.1-0.2-0.3-0.5-0.3
									c-0.1,0-0.2,0.2-0.2,0.3s0.1,0.2,0.1,0.3c0.1,0.2,0.2,0.3,0.3,0.4C96.3,190.2,96.5,190.3,96.5,190.3s-0.2-0.1-0.3-0.3
									c-0.1-0.1-0.2-0.2-0.3-0.4c-0.1-0.1-0.1-0.4,0-0.4c0.2,0,0.3,0.1,0.4,0.3c0.1,0.1,0.1,0.3,0.2,0.4
									C96.6,190.1,96.5,190.3,96.5,190.3z"/>
							</g>
						</g>
					</g>
				</g>
			</g>
			<g>
				<g>
					<g>
						<g>
							<g>
								<path class="st12" d="M86.3,189.5c0,0,0.3,0,0.7,0c0.4,0.1,1,0.2,1.5,0.7c0.5,0.4,0.8,1,0.9,1.4s0.2,0.7,0.2,0.7
									s0-0.1,0-0.2c0-0.1,0-0.3-0.1-0.5c-0.1-0.4-0.4-1-0.9-1.4s-1.1-0.6-1.6-0.6c-0.2,0-0.4,0-0.5,0
									C86.3,189.5,86.3,189.5,86.3,189.5z"/>
							</g>
						</g>
					</g>
				</g>
			</g>
			<g>
				<g>
					<g>
						<g>
							<g>
								<path class="st12" d="M87.3,185.6c0,0-0.1,0.9-0.1,1.9c0,1.1,0,2,0,2s0.1-0.9,0.1-1.9C87.3,186.5,87.3,185.6,87.3,185.6z"/>
							</g>
						</g>
					</g>
				</g>
			</g>
			<g>
				<g>
					<g>
						<g>
							<g>
								<path class="st12" d="M90.8,191.4c0,0,0.6,0.1,1.4,0.2c0.8,0,1.4-0.1,1.4-0.1s-0.6,0-1.4,0
									C91.4,191.4,90.8,191.4,90.8,191.4z"/>
							</g>
						</g>
					</g>
				</g>
			</g>
			<g>
				<g>
					<g>
						<g>
							<g>
								<path class="st12" d="M89,191.4c0,0,0,0.1,0.1,0.3c0.1,0.1,0.1,0.3,0.1,0.3s0.1-0.1,0-0.3C89.1,191.4,89,191.3,89,191.4z"/>
							</g>
						</g>
					</g>
				</g>
			</g>
			<g>
				<g>
					<g>
						<g>
							<g>
								<path class="st12" d="M88.3,190.5c0,0,0,0.1,0.1,0.2c0.1,0.1,0.2,0.2,0.2,0.1c0,0,0-0.1-0.1-0.2
									C88.4,190.5,88.3,190.5,88.3,190.5z"/>
							</g>
						</g>
					</g>
				</g>
			</g>
			<g>
				<g>
					<g>
						<g>
							<g>
								<path class="st12" d="M87.3,190.1c0,0,0.1,0,0.3,0.1c0.1,0,0.2,0.1,0.3,0.1c0,0-0.1-0.2-0.2-0.2
									C87.4,190,87.3,190,87.3,190.1z"/>
							</g>
						</g>
					</g>
				</g>
			</g>
			<g>
				<g>
					<g>
						<g>
							<g>
								<path class="st12" d="M86.6,189.9c0,0,0,0.1,0.1,0.1s0.2,0,0.2,0s0-0.1-0.1-0.1C86.6,189.8,86.6,189.8,86.6,189.9z"/>
							</g>
						</g>
					</g>
				</g>
			</g>
		</g>
		<g>
			<g>
				<g>
					<g>
						<g>
							<polygon class="st9" points="102.2,92.3 98.5,187.5 83.7,187.8 86.2,105.4 69.6,188.4 55.5,188.4 73.6,92.5 							"/>
						</g>
					</g>
				</g>
			</g>
			<g>
				<g>
					<path class="st15" d="M89.6,95.8c0,0,0,0.6-0.2,1.6c-0.1,1-0.3,2.3-0.6,3.8c-0.1,0.7-0.2,1.4-0.4,2.1c-0.2,0.6-0.6,1.2-1,1.5
						s-0.8,0.4-1.1,0.5c-0.3,0-0.4,0-0.4,0c0-0.1,0.7,0,1.4-0.6c0.4-0.3,0.7-0.8,0.9-1.4c0.2-0.6,0.3-1.3,0.4-2
						c0.2-1.5,0.5-2.8,0.7-3.7C89.4,96.4,89.6,95.8,89.6,95.8z"/>
				</g>
			</g>
			<g>
				<g>
					<path class="st15" d="M86.5,96.3c0,0-0.1,0.2,0,0.4c0,0.1,0.1,0.3,0.2,0.3c0.1,0.1,0.3,0,0.4-0.1s0.2-0.3,0.1-0.4
						c0-0.1-0.2-0.2-0.3-0.3C86.7,96.1,86.5,96.2,86.5,96.3c0-0.1,0.1-0.3,0.5-0.2c0.2,0,0.4,0.1,0.5,0.4c0.1,0.2,0,0.5-0.2,0.7
						s-0.5,0.2-0.7,0.1s-0.3-0.3-0.3-0.5C86.3,96.4,86.5,96.2,86.5,96.3z"/>
				</g>
			</g>
			<g>
				<g>
					<path class="st15" d="M78.6,97.6c-0.1,0-0.3-0.6-0.2-1.4c0.1-0.8,0.4-1.3,0.5-1.3s-0.1,0.6-0.2,1.3
						C78.6,97,78.7,97.6,78.6,97.6z"/>
				</g>
			</g>
			<g>
				<g>
					<path class="st15" d="M80.4,97.5c-0.1,0-0.3-0.6-0.2-1.4c0.1-0.8,0.3-1.4,0.4-1.4s-0.1,0.6-0.1,1.4
						C80.4,96.9,80.4,97.5,80.4,97.5z"/>
				</g>
			</g>
			<g>
				<g>
					<path class="st15" d="M95.6,97.9c-0.1,0,0-0.6,0.1-1.4c0-0.8,0-1.4,0.1-1.4s0.2,0.6,0.2,1.4C96,97.3,95.7,97.9,95.6,97.9z"/>
				</g>
			</g>
			<g>
				<g>
					<path class="st15" d="M97.6,97.8c-0.1,0,0.2-0.7,0.2-1.5c0.1-0.8-0.1-1.4,0-1.5c0.1,0,0.3,0.6,0.3,1.5
						C98,97.2,97.6,97.8,97.6,97.8z"/>
				</g>
			</g>
		</g>
		<g>
			<g>
				<g>
					<g>
						<g>
							<g>
								<g>
									<g>
										<g>
											<g>
												<path class="st8" d="M81.6,52.7l9.1-0.7c0.1-1.1,0-5.2,0-5.2s3.8-0.6,3.8-4.4s-0.6-12.5-0.6-12.5l0,0
													c-4.4-1.9-9.5-1.3-13.3,1.7L80.1,32L81.6,52.7z"/>
											</g>
										</g>
									</g>
								</g>
								<g>
									<g>
										<g>
											<path class="st14" d="M90.7,46.8c0,0-2.4,0.2-5-1.4c0,0,1.2,2.7,5,2.4V46.8z"/>
										</g>
									</g>
								</g>
							</g>
						</g>
					</g>
					<g>
						<g>
							<g>
								<g>
									<path class="st8" d="M80.6,36c-0.1,0-2.6-0.8-2.5,1.8s2.7,2,2.7,1.9C80.7,39.6,80.6,36,80.6,36z"/>
								</g>
							</g>
						</g>
						<g>
							<g>
								<g>
									<g>
										<path class="st14" d="M79.9,38.7C79.9,38.7,79.9,38.7,79.9,38.7c-0.2,0.1-0.3,0.2-0.4,0.1c-0.3-0.1-0.5-0.5-0.5-1
											c0-0.2,0-0.5,0.1-0.7s0.2-0.3,0.3-0.4c0.1,0,0.2,0,0.3,0.1c0,0.1,0,0.1,0,0.1s0.1,0,0-0.2c0-0.1,0-0.1-0.1-0.2
											c-0.1,0-0.2-0.1-0.3-0.1c-0.2,0-0.4,0.2-0.5,0.4s-0.1,0.5-0.1,0.7c0,0.5,0.3,1,0.7,1.1c0.2,0,0.3,0,0.4-0.1
											C79.9,38.8,79.9,38.7,79.9,38.7z"/>
									</g>
								</g>
							</g>
						</g>
					</g>
					<g>
						<g>
							<g>
								<g>
									<g>
										<g>
											<g>
												<g>
													<g>
														<path class="st9" d="M92.7,35.8c0,0.3-0.2,0.5-0.5,0.5s-0.5-0.2-0.6-0.5c0-0.3,0.2-0.5,0.5-0.5S92.7,35.5,92.7,35.8z"
															/>
													</g>
												</g>
											</g>
											<g>
												<g>
													<g>
														<g>
															<path class="st9" d="M93.2,35.3c-0.1,0.1-0.5-0.2-1.1-0.2s-1,0.3-1.1,0.2c0,0,0-0.2,0.2-0.3s0.5-0.3,0.9-0.3
																s0.7,0.1,0.8,0.3C93.2,35.1,93.2,35.2,93.2,35.3z"/>
														</g>
													</g>
												</g>
											</g>
										</g>
										<g>
											<g>
												<g>
													<g>
														<path class="st9" d="M86.8,35.8c0,0.3-0.2,0.5-0.5,0.5s-0.5-0.2-0.6-0.5c0-0.3,0.2-0.5,0.5-0.5
															C86.6,35.3,86.8,35.5,86.8,35.8z"/>
													</g>
												</g>
											</g>
											<g>
												<g>
													<g>
														<g>
															<path class="st9" d="M87.5,35.4c-0.1,0.1-0.5-0.2-1.1-0.2s-1,0.3-1.1,0.2c0,0,0-0.2,0.2-0.3s0.5-0.3,0.9-0.3
																s0.7,0.1,0.8,0.3C87.4,35.2,87.5,35.3,87.5,35.4z"/>
														</g>
													</g>
												</g>
											</g>
										</g>
										<g>
											<g>
												<g>
													<g>
														<path class="st9" d="M89.6,39.7c0,0,0.4-0.1,0.9-0.2c0.1,0,0.3,0,0.3-0.1s0-0.3-0.1-0.4c-0.1-0.4-0.3-0.7-0.4-1.1
															c-0.6-1.6-1.1-2.9-1-3c0.1,0,0.6,1.3,1.2,2.9c0.1,0.4,0.3,0.8,0.4,1.1c0.1,0.2,0.2,0.4,0.1,0.6c0,0.1-0.1,0.2-0.2,0.2
															s-0.2,0-0.3,0C89.9,39.7,89.6,39.7,89.6,39.7z"/>
													</g>
												</g>
											</g>
										</g>
										<g>
											<g>
												<g>
													<g>
														<path class="st9" d="M87.9,40.1c0.1,0,0.1,0.6,0.6,1.1s1.2,0.4,1.2,0.5c0,0-0.2,0.1-0.4,0.1c-0.3,0-0.7-0.1-1-0.4
															c-0.3-0.3-0.5-0.6-0.5-0.9C87.7,40.3,87.8,40.1,87.9,40.1z"/>
													</g>
												</g>
											</g>
										</g>
									</g>
								</g>
							</g>
							<g>
								<g>
									<g>
										<path class="st9" d="M87.6,33.1c-0.1,0.2-0.6,0.1-1.3,0.2c-0.7,0.1-1.2,0.3-1.3,0.1c0-0.1,0.1-0.2,0.3-0.4
											c0.2-0.2,0.6-0.3,1-0.3s0.8,0,1,0.1C87.5,32.9,87.6,33,87.6,33.1z"/>
									</g>
								</g>
							</g>
							<g>
								<g>
									<g>
										<path class="st9" d="M93,33.6c-0.1,0.1-0.5,0-1,0s-0.9,0.1-1,0c0-0.1,0-0.2,0.2-0.3s0.5-0.2,0.8-0.2s0.6,0.1,0.8,0.3
											C93,33.4,93,33.5,93,33.6z"/>
									</g>
								</g>
							</g>
						</g>
					</g>
				</g>
				<g>
					<g>
						<path class="st9" d="M95.8,27.5c0-0.5-0.1-1-0.5-1.3s-1-0.3-1.3,0.1c0.2-0.6-0.3-1.4-1-1.4c-0.6,0-1.1,0.4-1.7,0.6
							s-1.2,0-1.8-0.2c-0.6-0.2-1.1-0.5-1.7-0.7c-1.2-0.4-2.5-0.4-3.7,0.1c-1.1,0.5-2.1,1.5-2.5,2.7c-0.8-0.3-1.8,0.2-2.3,0.9
							c-0.5,0.7-0.6,1.6-0.5,2.5c0.1,0.6,0.2,1.1,0.4,1.7v0.1c0,2.1,0.3,4.5,1.2,4.6c1.6,0,1.2-2.9,1.2-2.9c1.9-0.7,1.2-3.6,1.7-4
							s1.5-1.4,5.5,0.6c1.5,0.8,3.6,0.8,4.7,0.5h0.1l0,0l0,0c0.4-0.1,0.7-0.2,1-0.4c0.4-0.2,0.7-0.5,0.8-0.9
							c0.2-0.4,0.1-0.9-0.2-1.2C95.5,28.4,95.7,28,95.8,27.5z"/>
					</g>
				</g>
			</g>
			<g>
				<g>
					<path class="st9" d="M88.7,35.8c0,0,0-0.2-0.1-0.6c-0.1-0.3-0.3-0.9-0.9-1.2c-0.5-0.4-1.3-0.6-2.1-0.3
						c-0.8,0.3-1.5,1.1-1.5,2.1s0.7,1.8,1.5,2.1s1.6,0.1,2.1-0.3c0.5-0.4,0.8-0.9,0.9-1.2C88.6,36,88.6,35.8,88.7,35.8
						c0,0,0,0.1,0,0.2c0,0.1,0,0.2,0,0.4c-0.1,0.4-0.3,0.9-0.9,1.4c-0.5,0.4-1.4,0.7-2.3,0.4s-1.7-1.2-1.6-2.3c0-1.1,0.8-2,1.6-2.3
						c0.9-0.3,1.8-0.1,2.3,0.4c0.6,0.4,0.8,1,0.9,1.4C88.7,35.6,88.7,35.7,88.7,35.8C88.7,35.7,88.7,35.8,88.7,35.8z"/>
				</g>
				<g>
					<path class="st9" d="M95,35.8c0,0,0-0.2-0.1-0.6c-0.1-0.3-0.3-0.9-0.9-1.2c-0.5-0.4-1.3-0.6-2.1-0.3c-0.8,0.3-1.5,1.1-1.5,2.1
						s0.7,1.8,1.5,2.1s1.6,0.1,2.1-0.3c0.5-0.4,0.8-0.9,0.9-1.2C95,36,95,35.8,95,35.8s0,0.1,0,0.2c0,0.1,0,0.2,0,0.4
						c-0.1,0.4-0.3,0.9-0.9,1.4c-0.5,0.4-1.4,0.7-2.3,0.4s-1.7-1.2-1.6-2.3c0-1.1,0.8-2,1.6-2.3c0.9-0.3,1.8-0.1,2.3,0.4
						c0.6,0.4,0.8,1,0.9,1.4C95,35.6,95,35.7,95,35.8C95,35.7,95,35.8,95,35.8z"/>
				</g>
				<g>
					<path class="st9" d="M90.4,35.6c0,0.1-0.4,0-0.9,0s-0.9,0.2-0.9,0.1c0-0.1,0.3-0.3,0.9-0.3C90.1,35.3,90.5,35.6,90.4,35.6z"/>
				</g>
				<g>
					<path class="st9" d="M83.9,35.6c0,0.1-0.7,0.2-1.7,0.2c-0.9,0.1-1.7,0-1.7,0c0-0.1,0.7-0.2,1.7-0.2
						C83.2,35.5,83.9,35.5,83.9,35.6z"/>
				</g>
			</g>
		</g>
		<g>
			<g>
				<g>
					<g>
						<path class="st8" d="M107,65.9l3,5.4l1.8-14.8c0.1-1.6-0.4-2.7-0.6-3.1c-0.2-0.4-0.4-0.8-0.7-1.2c-0.4-0.4-0.9-1-1.3-1.2
							c-0.5-0.3-0.4-1,0.1-1c0.5-0.1,1.8,0.7,2.8,2.1c1,1.4,1.1-1.3,1.2-2.3s0.4-4,0.7-4.3c0.5-0.3,0.9,0.1,0.8,1.1s-0.1,4,0.4,4
							s0.7-5,0.7-5s-0.1-1.1,0.5-1.1c1.1,0,0.5,5.3,0.4,5.8c-0.1,0.4,0.5,0.4,0.6,0c0-0.4,0.1-5,1.2-5.1c0.9,0-0.5,4.4,0,5.4
							s0.7-3.5,1.5-3.4c0.3,0,0.5,0.1,0.1,2.6c-0.2,1.4-1.1,3.3-1.4,6l-0.1,0.7c-0.1,3.3-0.8,13.2-3.8,20.8
							c-1.8,4.6-8.1,5.2-10.8,1.1c-1.8-2.8-4.8-10.1-4.8-10.1L107,65.9z"/>
						<g>
							<path class="st14" d="M117.2,54.5c0,0-0.2,0-0.4,0.1c-0.3,0.1-0.6,0.3-0.8,0.7l-0.1,0.2l-0.1-0.2c-0.1-0.3-0.2-0.5-0.4-0.8
								c-0.4-0.6-1-0.9-1.4-1c-0.4-0.2-0.7-0.1-0.7-0.2c0,0,0.3-0.1,0.8,0.1c0.5,0.1,1.1,0.4,1.5,1c0.2,0.3,0.3,0.6,0.4,0.9h-0.2
								c0.3-0.4,0.7-0.6,1-0.7C117,54.4,117.2,54.5,117.2,54.5z"/>
						</g>
					</g>
				</g>
				<path class="st10" d="M101.5,55.1l8.6,16.2l1.5-14.3h7.7l-2.8,20.4c-0.3,2.3-1.9,4.2-4,5l0,0c-2.8,0.9-6.5-0.2-7.9-2.8l-5-8.5
					L101.5,55.1z"/>
				<g>
					<path class="st9" d="M110.6,78c0,0-0.3-0.3-0.6-0.9c-0.3-0.6-0.6-1.5-0.7-2.5s0-2,0.2-2.6s0.4-1,0.4-1c0.1,0-0.6,1.6-0.4,3.6
						S110.6,78,110.6,78z"/>
				</g>
				<g>
					<g>
						<path class="st11" d="M109.8,70.8c-0.8,0.5-1.3,1.4-1.5,2.3s-0.2,1.9-0.1,2.8c0,0.3,0.1,0.6,0.2,0.8c0.2,0.2,0.5,0.4,0.7,0.3
							s0.3-0.3,0.3-0.6s-0.1-0.4-0.2-0.7c-0.5-1.6-0.2-3.4,0.7-4.8"/>
					</g>
				</g>
				<g>
					<g>
						<g>
							<g>
								<path class="st10" d="M77.2,51.3c1.3-0.2,2.5-0.7,4-0.8l0,0c3.2,1,6.5,1,9.7,0c0.4,0,0.9,0.1,1.6,0.2
									c4.2,0.5,5.9,1.4,8.9,4.4l-0.3,17.1c0,0,1,19.5,0.9,22.6H73.2V81.6V78l-9.5,3.5l0.9-5c0,0,4.3-16.5,4.9-18.8
									C70.2,55,73.1,52.1,77.2,51.3z"/>
							</g>
						</g>
						<g>
							<path class="st10" d="M68,76.8l13.9-3.6l4,6.5l-14.1,5.9c-0.7,0.3-1.5,0.5-2.3,0.5l0,0c-2.3,0-4.4-1.4-5.3-3.5l-0.4-1
								L68,76.8z"/>
						</g>
						<g>
							<g>
								<path class="st9" d="M75.2,75.4c-0.1,0-0.1-2.5-0.1-5.7c0-3.1,0.1-5.7,0.1-5.7c0.1,0,0.1,2.5,0.1,5.7
									C75.4,72.8,75.3,75.4,75.2,75.4z"/>
							</g>
						</g>
					</g>
				</g>
				<g>
					<g>
						<path class="st11" d="M73,85.1c0.4,0.7,1.1,1.3,1.9,1.7c1.7,0.9,3.9,0.9,5.7,0.3c1.9-0.6,3.5-1.8,5.1-3c2-1.6,3.9-3.5,5.6-5.5
							c0.1-0.1,0.2-0.3,0.2-0.5c-0.1-0.3-0.5-0.3-0.8-0.3c-2.9,0.5-5.5,1.8-8.1,3.1C79.5,82.5,76.3,83.9,73,85.1"/>
					</g>
				</g>
				<g>
					<path class="st19" d="M100.3,65.7C100.3,65.7,100.3,65.7,100.3,65.7c-0.1,0.2-0.2,0.3-0.3,0.5c-0.1,0.2-0.2,0.4-0.3,0.6
						c-0.2,0.2-0.3,0.5-0.6,0.7c-0.4,0.5-1.1,1.1-1.9,1.6s-1.9,1-3.1,1.2s-2.6,0.2-4-0.3c-1.4-0.4-2.8-1.3-3.9-2.5s-2.1-2.7-2.4-4.5
						c-0.2-0.9-0.2-1.8,0-2.7s0.6-1.8,1.2-2.6s1.4-1.3,2.3-1.6c0.4-0.1,0.9-0.2,1.4-0.1c0.5,0.1,0.9,0.3,1.3,0.6
						c0.3,0.3,0.5,0.8,0.6,1.3c0,0.5-0.2,0.9-0.4,1.3c-0.5,0.8-1.3,1.1-2.1,1.3c-1.6,0.4-3.2,0.3-4.6-0.1c-1.4-0.4-2.6-1-3.6-1.8
						c-1.9-1.6-2.8-3.5-3.2-4.8c-0.4-1.3-0.4-2.1-0.4-2.1s0,0,0,0.1s0,0.2,0.1,0.4c0.1,0.4,0.2,0.9,0.4,1.5c0.4,1.3,1.3,3.2,3.2,4.7
						c1,0.8,2.2,1.4,3.6,1.8c1.4,0.4,3,0.4,4.5,0.1c0.8-0.2,1.6-0.6,2-1.3c0.2-0.3,0.4-0.7,0.4-1.1c0-0.4-0.2-0.8-0.5-1.1
						s-0.7-0.5-1.1-0.5c-0.4-0.1-0.9,0-1.3,0.1c-0.8,0.3-1.6,0.8-2.2,1.6c-0.6,0.7-1,1.6-1.1,2.5c-0.2,0.9-0.1,1.8,0,2.6
						c0.3,1.7,1.2,3.2,2.3,4.4c1.1,1.2,2.5,2,3.8,2.4c1.4,0.5,2.7,0.5,3.9,0.3c1.2-0.2,2.2-0.6,3.1-1.2c0.8-0.5,1.5-1.1,1.9-1.6
						C100.1,66.4,100.3,65.7,100.3,65.7z"/>
				</g>
				<g>
					<path class="st19" d="M101.5,84.6c0,0-0.1-0.7-0.8-1.8c-0.3-0.5-0.8-1.1-1.5-1.7c-0.7-0.5-1.6-1-2.7-1.2s-2.3-0.2-3.6,0.2
						c-0.6,0.2-1.3,0.4-1.9,0.7c-0.6,0.3-1.2,0.7-1.8,1.2c-0.5,0.5-0.9,1.2-1,1.9c-0.1,0.7,0.2,1.5,0.8,1.9c0.3,0.2,0.7,0.3,1.1,0.3
						s0.7-0.3,1-0.6c0.5-0.6,0.8-1.4,1-2.2c0.4-1.6,0.2-3.3-0.3-4.8s-1.4-2.8-2.5-3.8S87,73,85.7,72.6c-1.2-0.4-2.4-0.6-3.6-0.6
						c-2.2,0-3.9,0.7-5,1.3c-0.5,0.3-0.9,0.6-1.2,0.7c-0.1,0.1-0.2,0.2-0.3,0.2c-0.1,0-0.1,0.1-0.1,0.1s0.5-0.5,1.6-1.1
						s2.8-1.4,5.1-1.4c1.1,0,2.4,0.1,3.6,0.6c1.3,0.4,2.5,1.1,3.6,2.1s2.1,2.3,2.6,3.9c0.5,1.5,0.7,3.3,0.3,5
						c-0.2,0.8-0.5,1.7-1,2.4c-0.3,0.3-0.7,0.6-1.1,0.7s-0.9-0.1-1.2-0.3c-0.4-0.2-0.6-0.6-0.8-1C88,84.8,88,84.4,88.1,84
						c0.1-0.8,0.5-1.5,1.1-2c0.5-0.5,1.2-0.9,1.8-1.2c0.6-0.3,1.3-0.5,1.9-0.7c1.3-0.3,2.6-0.3,3.7-0.1c1.1,0.2,2.1,0.7,2.8,1.2
						c0.7,0.6,1.2,1.2,1.5,1.7s0.5,1,0.6,1.3C101.6,84.4,101.6,84.5,101.5,84.6C101.5,84.6,101.5,84.6,101.5,84.6z"/>
				</g>
				<g>
					<path class="st19" d="M75.1,68.3c0,0-0.1,0.1-0.2,0.3c-0.2,0.2-0.4,0.4-0.8,0.7c-0.4,0.3-0.8,0.6-1.3,0.8
						c-0.5,0.3-1.2,0.5-1.8,0.6c-1.4,0.3-2.6,0.2-3.5,0c-0.4-0.1-0.8-0.2-1-0.2c-0.2-0.1-0.4-0.1-0.4-0.1s0.5,0.1,1.4,0.2
						s2.1,0.2,3.4-0.1c0.7-0.1,1.3-0.3,1.8-0.6c0.5-0.2,1-0.5,1.3-0.8C74.7,68.7,75.1,68.3,75.1,68.3z"/>
				</g>
				<g>
					<path class="st19" d="M72.5,85.2c-0.1,0-0.1-0.6-0.5-1.5s-1.4-2-2.8-2.4c-1.4-0.5-2.8-0.1-3.7,0.3c-0.9,0.4-1.3,0.9-1.3,0.9
						s0.1-0.1,0.3-0.3c0.2-0.2,0.5-0.5,1-0.7c0.9-0.5,2.4-0.9,3.9-0.4s2.5,1.7,2.9,2.6c0.2,0.5,0.3,0.9,0.3,1.1
						C72.5,85,72.5,85.2,72.5,85.2z"/>
				</g>
				<g>
					<path class="st19" d="M103.1,77.2c0,0-0.1-0.2-0.1-0.5c-0.1-0.3-0.1-0.8-0.2-1.3c0-0.6,0-1.2,0.1-2c0.1-0.7,0.3-1.6,0.6-2.4
						c0.3-0.8,0.7-1.6,1.1-2.2s0.8-1.2,1.2-1.6c0.4-0.4,0.7-0.7,1-0.9c0.2-0.2,0.4-0.3,0.4-0.3s-0.5,0.5-1.2,1.3
						c-0.4,0.4-0.8,0.9-1.2,1.6c-0.4,0.6-0.7,1.4-1,2.2c-0.3,0.8-0.5,1.6-0.6,2.3c-0.1,0.7-0.1,1.4-0.1,2
						C103,76.5,103.2,77.2,103.1,77.2z"/>
				</g>
				<g>
					<path class="st19" d="M117.6,67.7c0,0-0.1,0.1-0.3,0.3c-0.2,0.2-0.5,0.4-0.9,0.5c-0.8,0.3-2.2,0.4-3.5-0.3
						c-0.6-0.3-1.1-0.9-1.4-1.4s-0.4-1.1-0.5-1.5s-0.1-0.8-0.1-1.1c0-0.3,0-0.4,0-0.4s0.1,0.6,0.3,1.4c0.1,0.4,0.3,0.9,0.6,1.4
						c0.3,0.5,0.7,1,1.3,1.3c1.2,0.6,2.5,0.6,3.3,0.3C117.2,68,117.6,67.6,117.6,67.7z"/>
				</g>
				<g>
					<path class="st19" d="M102.1,56.3c0,0-0.1,0.1-0.3,0.2c-0.2,0.1-0.6,0.3-1.1,0.3c-0.5,0.1-1.1,0.1-1.7-0.1
						c-0.6-0.1-1.3-0.4-1.9-0.8c-1.2-0.9-1.8-2.2-1.9-3.1c-0.1-0.5-0.1-0.9-0.1-1.1c0-0.3,0.1-0.4,0.1-0.4c0.1,0,0,0.6,0.2,1.5
						s0.8,2.1,1.9,2.9c0.6,0.4,1.2,0.7,1.8,0.8c0.6,0.1,1.1,0.2,1.6,0.1C101.5,56.6,102.1,56.3,102.1,56.3z"/>
				</g>
				<g>
					<g>
						<path class="st19" d="M86.8,94.6c0,0-0.4-0.8-1.3-2s-2.3-2.7-4.3-3.7c-1-0.5-2-0.9-3-1.1s-1.8-0.3-2.6-0.3
							c-1.5,0-2.4,0.3-2.4,0.2c0,0,0.2-0.1,0.6-0.2s1-0.2,1.8-0.2s1.7,0,2.6,0.2c1,0.2,2,0.6,3,1.1c2.1,1.1,3.5,2.6,4.4,3.9
							c0.4,0.6,0.7,1.2,0.9,1.5C86.8,94.4,86.9,94.6,86.8,94.6z"/>
					</g>
				</g>
				<g>
					<path class="st9" d="M100.7,62.5c0.1,0,0.5,7.2,0.9,16s0.7,16,0.7,16c-0.1,0-0.5-7.2-0.9-16C101,69.7,100.7,62.6,100.7,62.5z"
						/>
				</g>
			</g>
			<g>
				<g>
					<path class="st8" d="M81.9,73.2c1.4-0.7,2.1-1.7,2.4-2.1c0.2-0.4,0.5-0.8,0.7-1.3c0.2-0.6,0.4-1.3,0.4-1.7
						c0-0.5,0.6-0.8,0.9-0.4s0.4,1.9-0.3,3.5c-0.7,1.6,1.7,0.3,2.6-0.1c0.9-0.5,3.7-1.8,4-1.6c0.5,0.2,0.3,0.9-0.6,1.3
						s-3.5,1.9-3.2,2.4c0.2,0.5,4.7-1.9,4.7-1.9s0.9-0.7,1.2-0.1c0.6,0.9-4.4,3.1-4.9,3.3c-0.3,0.1-0.1,0.7,0.3,0.5s4.4-2.5,5-1.5
						c0.4,0.7-4.1,1.8-4.6,2.8c-0.6,1,3.3-1.2,3.7-0.5c0.1,0.3,0.2,0.5-2.2,1.4c-1.3,0.5-3.5,0.7-5.9,1.8l-0.6,0.3"/>
				</g>
			</g>
			<g>
				<path class="st9" d="M72.3,85.4c0,0,0.1-0.1,0.3-0.1c0.2-0.1,0.4-0.2,0.8-0.3c0.7-0.3,1.7-0.7,2.9-1.2c2.5-1,5.8-2.5,9.7-4.1
					l-0.1,0.2c-0.4-0.7-0.9-1.4-1.3-2.1c-1-1.5-1.9-3-2.7-4.4l0.1,0.1c-3.3,1.1-6.2,2-8.2,2.6c-1,0.3-1.8,0.6-2.4,0.7
					c-0.3,0.1-0.5,0.1-0.6,0.2c-0.1,0-0.2,0.1-0.2,0.1s0.1,0,0.2-0.1c0.2-0.1,0.4-0.1,0.6-0.2c0.6-0.2,1.4-0.5,2.4-0.8
					c2-0.7,4.9-1.6,8.2-2.7h0.1l0.1,0.1c0.9,1.4,1.8,2.8,2.8,4.4c0.4,0.7,0.9,1.4,1.3,2.1l0.1,0.1l-0.1,0.1c-3.8,1.6-7.2,3-9.7,4
					C75,84.3,74,84.7,73.3,85c-0.3,0.1-0.6,0.2-0.8,0.3C72.4,85.3,72.3,85.4,72.3,85.4z"/>
			</g>
			<g>
				<path class="st9" d="M71.9,74.3c0-0.1,0.8-0.3,1.8-0.1c1,0.3,1.6,0.9,1.5,0.9c0,0.1-0.7-0.4-1.6-0.7
					C72.7,74.2,71.9,74.4,71.9,74.3z"/>
			</g>
		</g>
	</g>
	<g>
		<path class="st20" d="M239.2,170.8l-41-71.5c8.9-6.3,15.7-15.6,18.6-27c6.4-24.7-8.1-50.4-32.6-57.7c-25.6-7.6-52.3,7.2-59.5,32.7
			c-7.2,25.2,7.7,51.8,32.9,59c10.7,3,21.5,2.2,31-1.7l40.4,72.1c1.6,2.9,5.2,3.9,8.1,2.2l0,0C239.8,177.2,240.8,173.6,239.2,170.8z
			 M158.7,102.6c-23.4-6.5-37.1-30.7-30.7-54c6.5-23.4,30.7-37.1,54-30.7c23.4,6.5,37.1,30.7,30.7,54
			C206.3,95.3,182.1,109.1,158.7,102.6z"/>
		<g>
			<path class="st0" d="M144,90c0,0,0,0-0.1-0.1s-0.2-0.2-0.4-0.3c-0.3-0.3-0.8-0.7-1.4-1.4c-1.2-1.2-2.7-3.1-4.3-5.6
				c-0.8-1.3-1.6-2.7-2.4-4.3c-0.8-1.6-1.5-3.3-2.1-5.2c-1.3-3.8-2.1-8.1-2.1-12.7s0.7-9,2-12.7c0.6-1.9,1.3-3.6,2.1-5.3
				c0.8-1.6,1.6-3,2.4-4.3c1.6-2.5,3.1-4.4,4.3-5.7c0.5-0.6,1-1.1,1.3-1.4c0.1-0.1,0.3-0.3,0.4-0.4c0.1-0.1,0.1-0.1,0.1-0.1
				s0,0-0.1,0.1s-0.2,0.2-0.3,0.4c-0.3,0.3-0.8,0.8-1.3,1.4c-1.1,1.3-2.6,3.2-4.2,5.7c-0.8,1.3-1.6,2.7-2.3,4.3s-1.4,3.3-2,5.2
				c-1.2,3.8-1.9,8.1-1.9,12.7c0.1,4.6,0.9,8.9,2.1,12.6c0.6,1.9,1.4,3.6,2.1,5.2c0.8,1.6,1.6,3,2.4,4.3c1.6,2.5,3.1,4.4,4.3,5.6
				c0.5,0.6,1,1.1,1.3,1.4c0.1,0.2,0.3,0.3,0.3,0.4C143.9,89.9,144,90,144,90z"/>
		</g>
		<g>
			<path class="st0" d="M158.1,22.8c0,0-0.5,0.2-1.3,0.5s-1.9,0.7-3.1,1.3c-1.2,0.6-2.2,1.1-2.9,1.6c-0.7,0.4-1.2,0.7-1.2,0.7
				s0.4-0.4,1.1-0.8c0.7-0.5,1.7-1.1,2.9-1.6c1.2-0.6,2.3-1,3.1-1.2C157.6,22.9,158.1,22.8,158.1,22.8z"/>
		</g>
	</g>
	<g>
		<g>
			<g>
				<g>
					<path class="st21" d="M124,174.6c-0.8,1.2-2.5,0.8-3.2,0.1c-0.8-0.7-1.1-1.8-1.4-2.8c-0.7-2.3-1.3-4.7-0.8-7.1
						c0.1-0.7,0.4-1.4,0.9-1.9s1.3-0.8,1.9-0.6c0.8,0.2,1.3,1,1.7,1.8c1.1,2.2,1.7,4.7,1.7,7.2C124.8,172.4,124.6,173.6,124,174.6"
						/>
				</g>
			</g>
		</g>
		<g>
			<g>
				<g>
					<path class="st10" d="M120.8,180.7c-1.4-0.7-3-0.8-4.5-0.5c-0.8,0.1-1.7,0.4-2.2,1c-0.6,0.6-0.7,1.7,0,2.2
						c0.4,0.3,0.9,0.4,1.4,0.4c1.2,0,2.5-0.2,3.5,0.5c0.5,0.4,0.9,1.1,1.6,1.3c0.6,0.2,1.4-0.2,1.7-0.8c0.3-0.6,0.3-1.3,0.2-1.9
						C122.4,182.8,122.2,181.4,120.8,180.7z"/>
				</g>
			</g>
		</g>
		<g>
			<g>
				<g>
					<path class="st10" d="M126.3,176.3c-0.9-1.1-1.1-2.7-0.7-4c0.4-1.4,1.3-2.5,2.4-3.4c1.2-1.1,2.7-2,4.2-2.5
						c0.6-0.2,1.3-0.4,1.9-0.3c0.6,0.1,1.3,0.4,1.6,1c0.4,0.9,0,1.9-0.4,2.7c-0.8,1.5-1.8,2.9-2.8,4.2c-0.8,1.1-1.8,2.1-3.1,2.6
						s-2.6,0.4-3.3-0.5"/>
				</g>
			</g>
		</g>
		<g>
			<g>
				<g>
					<path class="st9" d="M124,192.6c0,0,0-0.2-0.1-0.5c0-0.4-0.1-0.9-0.1-1.5c-0.1-0.6-0.2-1.4-0.3-2.2c-0.2-0.8-0.4-1.7-0.8-2.6
						c-0.4-0.9-0.8-1.7-1.3-2.3s-1.1-1.1-1.7-1.4c-0.6-0.3-1.1-0.4-1.4-0.4s-0.5-0.1-0.5-0.1s0.2,0,0.6,0s0.9,0.1,1.5,0.4
						c0.6,0.3,1.2,0.7,1.7,1.4s1,1.5,1.4,2.4s0.6,1.8,0.8,2.6c0.2,0.8,0.2,1.6,0.3,2.2c0,0.6,0.1,1.1,0.1,1.5
						C124,192.5,124,192.6,124,192.6z"/>
				</g>
			</g>
		</g>
		<g>
			<g>
				<g>
					<path class="st9" d="M123.9,191.5c0,0,0-0.1,0-0.3s0-0.4,0-0.7c0-0.6,0-1.5,0-2.7c-0.1-2.2-0.2-5.3-0.6-8.7s-0.9-6.5-1.3-8.6
						c-0.1-0.5-0.2-1-0.3-1.5c-0.1-0.4-0.2-0.8-0.3-1.1c-0.1-0.3-0.1-0.5-0.2-0.7c0-0.2-0.1-0.2,0-0.2c0,0,0,0.1,0.1,0.2
						c0.1,0.2,0.1,0.4,0.2,0.7s0.2,0.7,0.3,1.1c0.1,0.4,0.2,0.9,0.3,1.5c0.5,2.2,1,5.2,1.4,8.7c0.4,3.4,0.5,6.5,0.6,8.7
						c0,1.1,0,2,0,2.7c0,0.3,0,0.5,0,0.7C123.9,191.4,123.9,191.5,123.9,191.5z"/>
				</g>
			</g>
		</g>
		<g>
			<g>
				<g>
					<path class="st9" d="M123.9,185.5c0,0,0-0.3,0-0.8s0.1-1.2,0.2-2c0.1-0.9,0.3-1.9,0.7-3c0.3-1.1,0.7-2.3,1.2-3.5
						c1-2.4,2.4-4.4,3.7-5.7c0.3-0.3,0.6-0.6,0.9-0.8c0.1-0.1,0.2-0.2,0.4-0.3c0.1-0.1,0.2-0.2,0.3-0.2c0.4-0.3,0.6-0.4,0.6-0.4
						s-0.9,0.6-2.1,1.9c-1.2,1.3-2.5,3.2-3.6,5.7c-0.5,1.2-0.9,2.4-1.3,3.5c-0.3,1.1-0.5,2.1-0.7,2.9c-0.2,0.8-0.2,1.5-0.3,2
						C124,185.3,123.9,185.5,123.9,185.5z"/>
				</g>
			</g>
		</g>
	</g>
</g>
</svg>
