<?xml version="1.0" encoding="utf-8"?>
<!-- Generator: Adobe Illustrator 23.0.1, SVG Export Plug-In . SVG Version: 6.00 Build 0)  -->
<svg version="1.1" xmlns="http://www.w3.org/2000/svg" xmlns:xlink="http://www.w3.org/1999/xlink" x="0px" y="0px" width="250px"
	 height="200px" viewBox="0 0 250 200" style="enable-background:new 0 0 250 200;" xml:space="preserve">
<style type="text/css">
	.st0{fill:#661C11;}
	.st1{fill-rule:evenodd;clip-rule:evenodd;fill:#E06657;}
	.st2{fill:#FFFFFF;}
	.st3{fill:#263238;}
	.st4{fill:none;stroke:#4E585D;stroke-width:5.000000e-02;stroke-miterlimit:10;}
	.st5{fill:#E06657;}
	.st6{fill:#EFC1BB;}
	.st7{fill:#9F1C0E;}
	.st8{fill:#BD3A2B;}
	.st9{fill:#6F1508;}
	.st10{fill:#941808;}
	.st11{fill:#EDB6AF;}
	.st12{fill:#E4867B;}
	.st13{fill:#FFBE9D;}
	.st14{fill:#7D1608;}
	.st15{fill:#FAFAFA;}
	.st16{opacity:0.6;}
	.st17{fill:#A82517;}
	.st18{fill:#A92618;}
	.st19{fill:#AC2A1C;}
	.st20{fill:#F4D4CF;}
	.st21{fill:#FBF2F1;}
	.st22{fill:#F8E6E4;}
</style>
<g id="Floor">
	<g>
		<g>
			<path class="st0" d="M246.2,199.3c0,0.1-85.3,0.1-141.2,0.1c-55.9,0-101.2-0.1-101.2-0.1c0-0.1,45.3-0.1,101.2-0.1
				C160.9,199.2,246.2,199.3,246.2,199.3z"/>
		</g>
	</g>
</g>
<g id="Processing">
	<g>
		<g>
			<g>
				<g>
					<path class="st1" d="M33.1,15.1c1.6-1,3.4-1.7,5.2-2.2l1.1-5.1L48,7.6l1.2,5.1c1.8,0.5,3.6,1.1,5.2,2.1l4.4-2.8l6.2,6l-2.7,4.4
						c1,1.6,1.7,3.4,2.2,5.2l5.1,1.1l0.1,8.6l-5.1,1.2c-0.5,1.8-1.1,3.6-2.1,5.2l2.8,4.4l-6,6.2l-4.4-2.7c-1.6,1-3.4,1.7-5.2,2.2
						l-1.1,5.1l-8.6,0.1l-1.2-5.1c-1.8-0.5-3.6-1.1-5.2-2.1l-4.4,2.8l-6.2-6l2.7-4.4c-1-1.6-1.7-3.4-2.2-5.2L18.5,38l-0.1-8.6
						l5.1-1.2c0.5-1.8,1.1-3.6,2.1-5.2l-2.8-4.4l6-6.2L33.1,15.1L33.1,15.1z"/>
				</g>
			</g>
		</g>
		<g>
			<g>
				<g>
					<path class="st2" d="M49.1,30.7c0,0,0-0.7-0.3-1.8c-0.1-0.6-0.4-1.2-0.8-2c-0.4-0.7-1-1.5-1.9-2.1c-0.8-0.6-1.9-1.2-3.1-1.4
						c-1.2-0.2-2.6-0.2-3.9,0.3c-0.7,0.2-1.3,0.6-1.9,1c-0.3,0.2-0.6,0.5-0.8,0.7c-0.2,0.3-0.5,0.5-0.7,0.9
						c-0.9,1.2-1.4,2.7-1.4,4.3c0,1.6,0.5,3.1,1.4,4.3c0.2,0.3,0.5,0.6,0.7,0.9c0.3,0.2,0.5,0.5,0.8,0.7c0.6,0.4,1.2,0.8,1.9,1
						c1.3,0.5,2.7,0.5,3.9,0.3c1.2-0.2,2.3-0.7,3.1-1.4c0.8-0.6,1.5-1.4,1.9-2.1c0.4-0.7,0.7-1.4,0.8-2
						C49.1,31.4,49.1,30.7,49.1,30.7c0,0,0,0,0,0.1c0,0.1,0,0.2,0,0.4c0,0.2,0,0.4,0,0.6c0,0.2-0.1,0.5-0.1,0.8
						c-0.1,0.6-0.4,1.3-0.8,2c-0.4,0.7-1,1.5-1.9,2.2c-0.8,0.6-1.9,1.2-3.2,1.4c-1.2,0.2-2.6,0.2-4-0.3c-0.7-0.2-1.3-0.6-1.9-1
						c-0.3-0.2-0.6-0.5-0.9-0.7c-0.3-0.3-0.5-0.6-0.7-0.9c-0.9-1.2-1.5-2.8-1.5-4.5c0-1.6,0.5-3.2,1.5-4.5c0.2-0.3,0.5-0.6,0.7-0.9
						c0.3-0.3,0.6-0.5,0.9-0.7c0.6-0.4,1.2-0.8,1.9-1c1.3-0.5,2.7-0.5,4-0.3c1.2,0.2,2.3,0.8,3.2,1.4c0.9,0.7,1.5,1.4,1.9,2.2
						c0.4,0.7,0.7,1.4,0.8,2c0.1,0.3,0.1,0.6,0.1,0.8c0,0.2,0,0.4,0,0.6c0,0.1,0,0.3,0,0.4C49.1,30.7,49.1,30.7,49.1,30.7z"/>
				</g>
			</g>
			<g>
				<g>
					<path class="st2" d="M46.7,36.2c0,0,1.7,1.5,3.6,3.5c2,2,3.5,3.6,3.5,3.6c0,0-1.7-1.5-3.6-3.5C48.3,37.9,46.7,36.2,46.7,36.2z"
						/>
				</g>
			</g>
		</g>
	</g>
	<g>
		<g>
			<g>
				<g>
					<path class="st1" d="M92,47.7c2.1-1.3,4.3-2.2,6.6-2.9l1.4-6.5l11.1-0.2l1.6,6.5c2.3,0.6,4.6,1.5,6.7,2.7l5.6-3.6l7.9,7.7
						l-3.5,5.7c1.3,2.1,2.2,4.3,2.9,6.6l6.5,1.4l0.2,11.1l-6.5,1.6c-0.6,2.3-1.5,4.6-2.7,6.7l3.6,5.6l-7.7,7.9l-5.7-3.5
						c-2.1,1.3-4.3,2.2-6.6,2.9l-1.4,6.5L101,104l-1.6-6.5c-2.3-0.6-4.6-1.5-6.7-2.7l-5.6,3.6l-7.9-7.7l3.5-5.7
						c-1.3-2.1-2.2-4.3-2.9-6.6l-6.5-1.4L73.1,66l6.5-1.6c0.6-2.3,1.5-4.6,2.7-6.7l-3.6-5.6l7.7-7.9L92,47.7L92,47.7z"/>
				</g>
			</g>
		</g>
		<g>
			<g>
				<g>
					<path class="st2" d="M102.3,82.6c0,0,0,0,0.1,0c0.1,0,0.2,0,0.4,0c0.3,0,0.8,0,1.5,0c1.3,0,3.1,0,5.4,0l-0.1,0.1
						c0-0.9,0-2-0.1-3.1l0-0.1l0,0c1.6-0.7,3.2-1.8,4.6-3.2c0.7-0.7,1.4-1.6,1.9-2.5c0.6-0.9,0.9-2,1.1-3.2c0.3-2.3-0.2-4.8-1.7-7
						c-1.4-2.1-3.5-3.9-6.1-4.8c-1.9-0.7-3.9-0.8-5.8-0.4c-1.9,0.4-3.6,1.2-5,2.3c-1.4,1.1-2.4,2.7-3,4.2c-0.1,0.4-0.3,0.8-0.4,1.2
						c-0.1,0.4-0.2,0.8-0.3,1.2c-0.1,0.8-0.2,1.6-0.2,2.3c0,0.8,0.1,1.5,0.3,2.2c0.2,0.7,0.4,1.4,0.7,2c0.6,1.2,1.4,2.2,2.2,3
						c1.6,1.6,3.3,2.6,4.5,3.1l0,0l0,0c-0.1,0.8-0.1,1.5-0.1,1.9c0,0.2,0,0.4,0,0.5C102.3,82.5,102.3,82.6,102.3,82.6
						c0,0,0-0.1,0-0.2c0-0.1,0-0.3,0-0.5c0-0.5,0-1.1,0.1-2l0,0c-1.2-0.5-2.9-1.4-4.6-3.1c-0.8-0.8-1.6-1.8-2.2-3.1
						c-0.3-0.6-0.6-1.3-0.7-2c-0.2-0.7-0.3-1.5-0.3-2.2c0-0.8,0.1-1.6,0.2-2.4c0.1-0.4,0.2-0.8,0.3-1.2c0.1-0.4,0.3-0.8,0.4-1.2
						c0.6-1.6,1.7-3.1,3.1-4.3c1.4-1.2,3.2-2,5.1-2.4c1.9-0.4,4-0.3,5.9,0.4c2.6,1,4.8,2.8,6.2,4.9c0.7,1.1,1.2,2.3,1.5,3.5
						c0.1,0.3,0.1,0.6,0.2,0.9c0,0.3,0.1,0.6,0.1,0.9c0,0.3,0,0.6,0,0.9c0,0.3-0.1,0.6-0.1,0.9c-0.2,1.2-0.5,2.3-1.1,3.2
						c-0.6,1-1.2,1.8-2,2.5c-1.5,1.4-3.1,2.5-4.7,3.2l0-0.1c0,1.1,0,2.2,0.1,3.1l0,0.1l-0.1,0c-2.3,0-4.2,0-5.5,0
						c-0.6,0-1.1,0-1.4,0c-0.2,0-0.3,0-0.4,0C102.3,82.6,102.3,82.6,102.3,82.6z"/>
				</g>
			</g>
			<g>
				<g>
					<path class="st2" d="M109.8,84.6c0,0.1-1.7,0.1-3.8,0.1c-2.1,0-3.8,0-3.8-0.1c0-0.1,1.7-0.1,3.8-0.1
						C108.1,84.5,109.8,84.6,109.8,84.6z"/>
				</g>
			</g>
			<g>
				<g>
					<path class="st2" d="M107.3,87.5c0,0.1-0.6,0.2-1.3,0.2c-0.8,0-1.3-0.2-1.3-0.2c0-0.1,0.6,0,1.3,0
						C106.7,87.5,107.3,87.4,107.3,87.5z"/>
				</g>
			</g>
			<g>
				<g>
					<path class="st2" d="M103.8,82.6c0,0,0,0,0-0.1c0-0.1,0-0.2,0-0.4c0-0.3,0-0.8,0-1.4c0-1.2,0.1-3,0.1-5.2
						c0-1.1,0.1-2.3,0.1-3.6c0-0.3,0-0.6-0.1-0.9c-0.1-0.3-0.4-0.5-0.7-0.4c-0.3,0.1-0.5,0.4-0.6,0.7c-0.1,0.3,0,0.7,0.1,1
						c0.3,0.6,1,1,1.7,1.1c0.7,0.1,1.5-0.2,2-0.8c0.5-0.6,0.8-1.3,0.8-2.1c0-0.4,0-0.8-0.2-1.1c-0.2-0.3-0.6-0.5-0.9-0.4
						c-0.3,0.1-0.5,0.6-0.4,0.9c0.1,0.4,0.3,0.7,0.5,1c0.5,0.6,1.1,1.2,1.8,1.4c0.4,0.1,0.7,0.2,1.1,0.1c0.4-0.1,0.7-0.2,1-0.4
						c0.3-0.2,0.5-0.5,0.6-0.8c0.1-0.3,0.1-0.7-0.1-1c-0.1-0.3-0.4-0.5-0.7-0.5c-0.3,0-0.6,0.2-0.8,0.5c-0.4,0.5-0.4,1.2-0.5,1.9
						c-0.1,1.3-0.2,2.5-0.3,3.6c-0.1,2.2-0.3,3.9-0.3,5.2c0,0.6-0.1,1.1-0.1,1.4c0,0.2,0,0.3,0,0.4c0,0.1,0,0.1,0,0.1c0,0,0,0,0-0.1
						c0-0.1,0-0.2,0-0.4c0-0.3,0-0.8,0.1-1.4c0.1-1.2,0.1-3,0.3-5.2c0.1-1.1,0.2-2.3,0.3-3.6c0-0.3,0.1-0.6,0.1-1
						c0.1-0.3,0.1-0.7,0.4-1c0.2-0.3,0.5-0.5,0.9-0.6c0.4,0,0.8,0.3,0.9,0.6c0.2,0.3,0.2,0.8,0.1,1.2c-0.1,0.4-0.4,0.7-0.7,0.9
						c-0.3,0.2-0.7,0.4-1.1,0.5c-0.4,0.1-0.8,0-1.2-0.1c-0.8-0.3-1.4-0.8-1.9-1.5c-0.3-0.3-0.5-0.7-0.6-1.1c-0.1-0.4,0.1-1,0.6-1.2
						c0.5-0.2,1,0.1,1.2,0.5c0.2,0.4,0.3,0.8,0.3,1.3c0,0.8-0.3,1.7-0.9,2.3c-0.5,0.6-1.4,1-2.2,0.9c-0.8-0.1-1.5-0.6-1.9-1.3
						c-0.2-0.3-0.2-0.7-0.1-1.1c0.1-0.4,0.3-0.7,0.7-0.8c0.2,0,0.4,0,0.6,0.1c0.2,0.1,0.3,0.3,0.3,0.4c0.1,0.3,0.1,0.7,0.1,1
						c0,1.3-0.1,2.5-0.1,3.6c-0.1,2.2-0.1,3.9-0.2,5.2c0,0.6,0,1.1-0.1,1.4c0,0.2,0,0.3,0,0.4C103.8,82.5,103.8,82.6,103.8,82.6z"/>
				</g>
			</g>
			<g>
				<g>
					<path class="st2" d="M109.1,86.1c0,0.1-1.4,0.1-3.1,0.1c-1.7,0-3.1-0.1-3.1-0.1c0-0.1,1.4-0.1,3.1-0.1
						C107.7,86,109.1,86,109.1,86.1z"/>
				</g>
			</g>
		</g>
	</g>
	<g>
		<g>
			<g>
				<g>
					<g>
						<path class="st1" d="M164.7,65.3c1.3-0.8,2.8-1.5,4.3-1.9l0.8-4.3l7.2-0.2l1.1,4.2c1.5,0.4,3,0.9,4.4,1.7l3.6-2.4l5.2,4.9
							L189,71c0.8,1.3,1.5,2.8,1.9,4.3l4.3,0.8l0.2,7.2l-4.2,1.1c-0.4,1.5-0.9,3-1.7,4.4l2.4,3.6l-4.9,5.2l-3.7-2.2
							c-1.3,0.8-2.8,1.5-4.3,1.9l-0.8,4.3l-7.2,0.2l-1.1-4.2c-1.5-0.4-3-0.9-4.4-1.7l-3.6,2.4l-5.2-4.9l2.2-3.7
							c-0.8-1.3-1.5-2.8-1.9-4.3l-4.3-0.8l-0.2-7.2l4.2-1.1c0.4-1.5,0.9-3,1.7-4.4l-2.4-3.6l4.9-5.2L164.7,65.3L164.7,65.3z"/>
					</g>
				</g>
			</g>
		</g>
		<g>
			<g>
				<g>
					<path class="st2" d="M183.6,88.1c0,0-0.1,0-0.3,0c-0.2,0-0.6,0-1,0c-0.9,0-2.1,0-3.7,0c-3.1,0-7.4,0-12.1,0c-0.3,0-0.6,0-0.9,0
						l-0.1,0l0-0.1c0-4.5,0-8.6,0-11.5c0-1.4,0-2.6,0-3.5c0-0.4,0-0.7,0-0.9c0-0.2,0-0.3,0-0.3c0,0,0,0.1,0,0.3c0,0.2,0,0.5,0,0.9
						c0,0.8,0,2,0,3.5c0,3,0,7,0,11.5l-0.1-0.1c0.3,0,0.6,0,0.9,0c4.7,0,9,0,12.1,0c1.5,0,2.8,0,3.7,0c0.4,0,0.7,0,1,0
						C183.5,88.1,183.6,88.1,183.6,88.1z"/>
				</g>
			</g>
			<g>
				<g>
					<path class="st2" d="M181.6,75.8c0,0-0.2,0.2-0.5,0.5c-0.4,0.3-0.9,0.8-1.5,1.3c-1.3,1.1-3.1,2.7-5.1,4.3l-0.3,0.3l-0.1,0.1
						l-0.1-0.1c-0.8-0.7-1.6-1.4-2.3-2.1l0.1,0c-1.3,1.1-2.5,2-3.3,2.7c-0.4,0.3-0.7,0.6-1,0.8c-0.2,0.2-0.4,0.3-0.4,0.3
						c0,0,0.1-0.1,0.3-0.3c0.2-0.2,0.5-0.5,0.9-0.8c0.8-0.7,2-1.7,3.3-2.8l0.1-0.1l0.1,0.1c0.7,0.6,1.5,1.3,2.3,2.1l-0.2,0l0.3-0.3
						c2-1.7,3.8-3.2,5.1-4.3c0.6-0.5,1.2-1,1.6-1.3C181.4,75.9,181.6,75.8,181.6,75.8z"/>
				</g>
			</g>
			<g>
				<g>
					<path class="st2" d="M181.6,79.5c0,0-0.1-0.4-0.1-1.1c0-0.7,0-1.7,0-2.7l0.1,0.1c-0.1,0-0.1,0-0.2,0c-1.1,0-2.1,0-2.9,0
						c-0.7,0-1.2,0-1.2-0.1c0,0,0.5-0.1,1.2-0.1c0.7,0,1.7,0,2.9,0c0.1,0,0.1,0,0.2,0l0.1,0l0,0.1c0,1.1,0,2,0,2.7
						C181.7,79.1,181.6,79.5,181.6,79.5z"/>
				</g>
			</g>
		</g>
	</g>
	<g>
		<g>
			<g>
				<path class="st0" d="M65.5,88.7c-0.1,0-0.3-0.5-0.5-1.2c-0.2-0.7-0.4-1.3-0.3-1.3c0.1,0,0.3,0.5,0.5,1.2
					C65.4,88.1,65.6,88.7,65.5,88.7z"/>
			</g>
		</g>
		<g>
			<g>
				<path class="st0" d="M70.2,98.1c-0.1,0-0.8-0.9-1.5-2.2c-0.7-1.3-1.2-2.3-1.1-2.4c0.1,0,0.6,1,1.3,2.3
					C69.6,97.1,70.2,98.1,70.2,98.1z"/>
			</g>
		</g>
		<g>
			<g>
				<path class="st0" d="M77,106c0,0-1-0.7-2-1.7c-1-1-1.7-2-1.7-2c0,0,0.8,0.8,1.9,1.9C76.2,105.2,77.1,106,77,106z"/>
			</g>
		</g>
		<g>
			<g>
				<path class="st3" d="M85.7,111.9c0,0.1-1.1-0.4-2.4-1.1c-1.3-0.7-2.2-1.4-2.2-1.5c0-0.1,1,0.6,2.3,1.3
					C84.7,111.3,85.7,111.9,85.7,111.9z"/>
			</g>
		</g>
		<g>
			<g>
				<path class="st3" d="M95.7,115.1c0,0.1-1.2-0.1-2.6-0.4c-1.4-0.4-2.5-0.8-2.5-0.8c0-0.1,1.2,0.2,2.6,0.6
					C94.5,114.8,95.7,115.1,95.7,115.1z"/>
			</g>
		</g>
		<g>
			<g>
				<path class="st3" d="M106.1,115.4c0,0.1-1.2,0.2-2.6,0.3c-1.5,0.1-2.6,0-2.6-0.1c0-0.1,1.2-0.1,2.6-0.1
					C105,115.4,106.1,115.3,106.1,115.4z"/>
			</g>
		</g>
		<g>
			<g>
				<path class="st0" d="M116.4,113.1c0,0.1-1.1,0.5-2.5,0.9c-1.4,0.4-2.6,0.6-2.6,0.5c0-0.1,1.1-0.4,2.5-0.7
					C115.2,113.4,116.4,113,116.4,113.1z"/>
			</g>
		</g>
		<g>
			<g>
				<path class="st0" d="M125.9,108.6c0,0.1-0.9,0.7-2.2,1.4c-1.3,0.7-2.4,1.1-2.4,1.1c0-0.1,1-0.6,2.3-1.3
					C124.8,109.2,125.8,108.6,125.9,108.6z"/>
			</g>
		</g>
		<g>
			<g>
				<path class="st0" d="M134,102.1c0,0-0.7,0.9-1.8,1.9c-1.1,1-2,1.7-2.1,1.6c0-0.1,0.9-0.8,1.9-1.8C133.1,102.8,134,102,134,102.1
					z"/>
			</g>
		</g>
		<g>
			<g>
				<path class="st0" d="M139.8,93.3c0.1,0-0.4,1.1-1.1,2.4c-0.7,1.3-1.4,2.2-1.5,2.2c-0.1,0,0.6-1,1.3-2.3
					C139.2,94.4,139.8,93.3,139.8,93.3z"/>
			</g>
		</g>
		<g>
			<g>
				<path class="st0" d="M143.4,83.5c0.1,0-0.3,1.2-0.7,2.5c-0.5,1.4-0.9,2.5-0.9,2.5c-0.1,0,0.3-1.2,0.7-2.5
					C142.9,84.6,143.4,83.5,143.4,83.5z"/>
			</g>
		</g>
		<g>
			<g>
				<path class="st0" d="M146.8,73.5c0.1,0-0.3,1.1-0.8,2.5c-0.5,1.4-0.9,2.5-1,2.4c-0.1,0,0.3-1.1,0.8-2.5c0.2-0.7,0.5-1.3,0.7-1.7
					C146.6,73.8,146.7,73.5,146.8,73.5z"/>
			</g>
		</g>
		<g>
			<g>
				<path class="st0" d="M151.4,64.1c0.1,0-0.5,1-1.2,2.3c-0.7,1.3-1.3,2.3-1.3,2.3c-0.1,0,0.4-1.1,1.1-2.4
					C150.7,65,151.4,64.1,151.4,64.1z"/>
			</g>
		</g>
		<g>
			<g>
				<path class="st0" d="M158.4,56.4c0,0.1-0.9,0.8-1.9,1.8c-1.1,1-1.9,1.8-1.9,1.8c0,0,0.7-1,1.8-2C157.4,57,158.4,56.3,158.4,56.4
					z"/>
			</g>
		</g>
		<g>
			<g>
				<path class="st0" d="M167.9,51.9c0,0.1-1.1,0.4-2.5,0.9c-1.4,0.5-2.4,0.9-2.5,0.9c0-0.1,1-0.6,2.4-1.1
					C166.7,52.1,167.9,51.9,167.9,51.9z"/>
			</g>
		</g>
		<g>
			<g>
				<path class="st0" d="M178.3,50.8c0,0.1-1.2,0-2.6,0.1c-1.4,0-2.6,0.1-2.6,0.1c0-0.1,1.2-0.3,2.6-0.3
					C177.1,50.6,178.3,50.7,178.3,50.8z"/>
			</g>
		</g>
		<g>
			<g>
				<path class="st0" d="M188.4,53.4c0,0.1-1.1-0.4-2.5-0.9c-1.4-0.5-2.5-0.8-2.5-0.9c0-0.1,1.2,0.2,2.5,0.7
					C187.4,52.8,188.5,53.3,188.4,53.4z"/>
			</g>
		</g>
		<g>
			<g>
				<path class="st0" d="M197.4,58.8c0,0-1-0.7-2.1-1.5c-1.2-0.8-2.2-1.5-2.1-1.5c0-0.1,1.1,0.5,2.3,1.4
					C196.5,58,197.4,58.8,197.4,58.8z"/>
			</g>
		</g>
		<g>
			<g>
				<path class="st0" d="M202.6,64.6c-0.1,0-0.4-0.4-0.8-1c-0.4-0.6-0.8-1.1-0.7-1.1c0,0,0.5,0.4,0.9,1
					C202.4,64.1,202.7,64.6,202.6,64.6z"/>
			</g>
		</g>
	</g>
	<g>
		<g>
			<path class="st4" d="M86.6,109.2"/>
		</g>
	</g>
	<g>
		<g>
			<path class="st0" d="M9.5,27c0,0,0-0.1,0.1-0.4c0.1-0.3,0.1-0.7,0.3-1.2c0.2-1,0.7-2.5,1.5-4.3c0.8-1.8,1.9-4,3.6-6.3
				c1.7-2.3,3.9-4.7,6.7-6.9c2.8-2.2,6.2-4.2,10.2-5.5c2-0.7,4.1-1.2,6.3-1.5c2.2-0.3,4.5-0.5,6.9-0.4c2.4,0.1,4.8,0.3,7.2,0.9
				C54.6,2,57,2.8,59.3,4c2.3,1.1,4.5,2.6,6.5,4.3c2,1.7,3.9,3.7,5.4,6c1.5,2.2,2.8,4.7,3.6,7.2c0.9,2.5,1.4,5.1,1.6,7.6
				c0,0.6,0.1,1.3,0.1,1.9c0,0.6,0,1.3,0,1.9c0,0.6,0,1.3,0,1.9c-0.1,0.6-0.1,1.2-0.2,1.9c-0.3,2.5-1,4.8-1.9,7
				c-0.9,2.2-2,4.2-3.1,6.1c-1.1,1.9-2.2,3.8-3.3,5.6c-2.1,3.6-3.2,7.4-3.8,10.9c-0.3,1.7-0.5,3.4-0.6,5c-0.1,1.6-0.2,3.1-0.2,4.5
				c0,2.8,0,5.3,0.3,7.2c0.3,2,0.7,3.5,1,4.5c0.2,0.5,0.3,0.9,0.4,1.1c0,0.1,0.1,0.2,0.1,0.3c0,0.1,0,0.1,0,0.1s-0.3-0.5-0.6-1.5
				c-0.3-1-0.7-2.5-1-4.5c-0.3-2-0.4-4.4-0.4-7.2c0-1.4,0-2.9,0.2-4.5c0.1-1.6,0.3-3.3,0.6-5c0.6-3.5,1.7-7.3,3.8-10.9
				c1.1-1.8,2.1-3.7,3.3-5.6c1.1-1.9,2.2-3.9,3.1-6.1c0.9-2.2,1.5-4.5,1.9-6.9c0.1-0.6,0.1-1.2,0.2-1.8c0-0.6,0.1-1.2,0-1.9
				c0-0.6,0-1.3,0-1.9c0-0.6-0.1-1.3-0.1-1.9c-0.3-2.5-0.8-5.1-1.6-7.6c-0.9-2.5-2.1-4.9-3.6-7.1c-1.5-2.2-3.4-4.2-5.4-5.9
				c-2-1.7-4.2-3.2-6.5-4.3c-2.3-1.1-4.7-1.9-7.1-2.5c-2.4-0.6-4.8-0.8-7.1-0.9c-2.3-0.1-4.6,0.1-6.8,0.4C36,1.5,33.9,2,31.9,2.7
				C28,4,24.6,6,21.8,8.1c-2.8,2.2-5,4.5-6.7,6.8c-1.7,2.3-2.8,4.4-3.7,6.2c-0.8,1.8-1.2,3.3-1.5,4.3c-0.1,0.5-0.2,0.9-0.3,1.2
				C9.6,26.9,9.5,27,9.5,27z"/>
		</g>
	</g>
</g>
<g id="Character">
	<g>
		<g>
			<g>
				<g>
					<g>
						<g>
							<path class="st5" d="M116.4,188.4l6.6,2.3l-0.1,6.3c-3.2,0.9-3.6,2.5-3.6,2.5l6.6-0.2l5.7-11.7l-4.5-3l-8.5-3.7"/>
						</g>
					</g>
					<g>
						<polygon class="st6" points="131.6,187.7 125.9,199.4 119.3,199.5 120,198.5 125.4,198.1 130.6,187.1 						"/>
					</g>
				</g>
				<g>
					<g>
						<path class="st7" d="M122.9,194.2c0.1,0.1,0.4-0.2,0.9-0.2c0.5,0,0.9,0.2,0.9,0.1c0.1-0.1-0.3-0.4-0.9-0.4
							C123.2,193.7,122.8,194.1,122.9,194.2z"/>
					</g>
				</g>
				<g>
					<g>
						<path class="st7" d="M122.9,192.6c0.1,0,0.4-0.4,0.9-0.5c0.5-0.1,0.9,0.1,1,0c0,0-0.1-0.1-0.2-0.2c-0.2-0.1-0.5-0.2-0.8-0.1
							c-0.3,0.1-0.6,0.3-0.7,0.4C122.9,192.4,122.9,192.6,122.9,192.6z"/>
					</g>
				</g>
				<g>
					<g>
						<path class="st7" d="M122.8,190.6c0.1,0,0.3-0.4,0.7-0.5c0.5-0.2,0.9,0,0.9-0.1c0,0-0.1-0.1-0.3-0.2c-0.2-0.1-0.5-0.1-0.8,0
							c-0.3,0.1-0.5,0.3-0.6,0.5C122.8,190.4,122.8,190.6,122.8,190.6z"/>
					</g>
				</g>
				<g>
					<g>
						<path class="st7" d="M122.4,190.6c0.1,0,0-0.4,0.2-0.9c0.2-0.5,0.5-0.7,0.5-0.8c0-0.1-0.5,0.1-0.7,0.7
							C122.1,190.1,122.3,190.6,122.4,190.6z"/>
					</g>
				</g>
				<g>
					<g>
						<path class="st7" d="M121.6,189.8c0,0,0.1-0.3,0.2-0.9c0-0.3,0.1-0.6,0.1-1c0-0.2,0.1-0.4,0-0.6c0-0.1-0.1-0.2-0.2-0.3
							c-0.1-0.1-0.3-0.1-0.4,0c-0.2,0.2-0.3,0.4-0.4,0.6c-0.1,0.2-0.1,0.4-0.1,0.6c0,0.4,0.1,0.7,0.2,1c0.2,0.5,0.6,0.7,0.6,0.7
							c0,0-0.2-0.3-0.4-0.8c-0.1-0.2-0.1-0.6-0.1-0.9c0-0.2,0.1-0.3,0.1-0.5c0.1-0.2,0.2-0.4,0.3-0.4c0.1,0,0.1,0,0.1,0
							c0,0,0.1,0.1,0.1,0.2c0,0.1,0,0.3,0,0.5c0,0.3,0,0.7,0,1C121.5,189.5,121.5,189.8,121.6,189.8z"/>
					</g>
				</g>
				<g>
					<g>
						<path class="st7" d="M121.5,190.1c0,0-0.2-0.3-0.7-0.5c-0.5-0.2-1.3-0.1-1.9,0.7c0,0.1,0,0.2,0,0.3c0,0.1,0.1,0.1,0.2,0.1
							c0.1,0,0.2,0.1,0.3,0.1c0.2,0,0.4,0,0.5,0c0.3,0,0.6-0.1,0.9-0.2C121.3,190.3,121.5,190.1,121.5,190.1c0-0.1-0.2,0.1-0.7,0.2
							c-0.2,0.1-0.5,0.1-0.8,0.1c-0.2,0-0.3,0-0.5,0c-0.1,0-0.2,0-0.2,0c-0.1,0,0,0,0,0c0,0,0.1-0.1,0.1-0.2
							c0.1-0.1,0.1-0.1,0.2-0.2c0.1-0.1,0.3-0.2,0.4-0.2c0.3-0.1,0.6-0.1,0.8,0C121.2,189.9,121.4,190.1,121.5,190.1z"/>
					</g>
				</g>
				<g>
					<path class="st6" d="M126.4,187.6c0,0.4,0.4,0.8,0.8,0.8c0.4,0,0.8-0.4,0.8-0.8c0-0.4-0.4-0.8-0.8-0.8
						C126.7,186.9,126.3,187.2,126.4,187.6z"/>
				</g>
			</g>
		</g>
		<g>
			<g>
				<g>
					<g>
						<path class="st5" d="M82.6,185.8l0.1,8.6c0,0-8.7,3-8.9,4.6l16.7,0.4l0.4-13.5L82.6,185.8z"/>
					</g>
				</g>
				<g>
					<g>
						<path class="st6" d="M87.9,193.8c0.3,0.1,0.5,0.5,0.5,0.8c-0.1,0.3-0.5,0.5-0.8,0.5c-0.3-0.1-0.6-0.5-0.5-0.8
							C87.2,193.9,87.6,193.7,87.9,193.8"/>
					</g>
				</g>
				<g>
					<g>
						<path class="st6" d="M90.5,199.4l0-1.4l-16,0.1c0,0-0.8,0.3-0.7,0.8L90.5,199.4z"/>
					</g>
				</g>
				<g>
					<g>
						<path class="st7" d="M82.4,194.3c0,0.1,0.4,0.1,0.8,0.4c0.4,0.3,0.6,0.6,0.7,0.6c0.1,0,0-0.5-0.5-0.8
							C82.9,194.1,82.4,194.2,82.4,194.3z"/>
					</g>
				</g>
				<g>
					<g>
						<path class="st7" d="M80.6,195c0,0.1,0.3,0.2,0.6,0.6c0.3,0.3,0.3,0.7,0.4,0.7c0.1,0,0.1-0.5-0.2-0.9
							C81.1,194.9,80.6,194.9,80.6,195z"/>
					</g>
				</g>
				<g>
					<g>
						<path class="st7" d="M79.6,197.1c0.1,0,0.2-0.4,0-0.8c-0.2-0.5-0.6-0.6-0.6-0.6c0,0.1,0.2,0.3,0.4,0.7
							C79.5,196.7,79.5,197,79.6,197.1z"/>
					</g>
				</g>
				<g>
					<g>
						<path class="st7" d="M82.6,192.3c0,0.1,0.4,0,0.9,0c0.5,0,0.8,0.2,0.9,0.1c0-0.1-0.3-0.4-0.8-0.4
							C82.9,192,82.5,192.3,82.6,192.3z"/>
					</g>
				</g>
			</g>
			<g>
				<g>
					<polygon class="st8" points="82.6,187.5 82.6,189 90.8,189.1 90.9,187.8 					"/>
				</g>
			</g>
			<g>
				<g>
					<path class="st7" d="M82.6,190.6c0,0,0.3,0.1,0.8,0c0.3,0,0.6-0.1,0.9-0.2c0.2-0.1,0.3-0.1,0.5-0.2c0.1,0,0.2-0.1,0.3-0.2
						c0.1-0.1,0.1-0.3,0-0.4c-0.1-0.1-0.2-0.2-0.4-0.2c-0.1,0-0.2,0-0.3,0c-0.2,0-0.4,0.1-0.5,0.2c-0.3,0.1-0.6,0.3-0.8,0.5
						C82.7,190.3,82.6,190.6,82.6,190.6c0.1,0.1,0.3-0.2,0.7-0.4c0.2-0.1,0.5-0.3,0.8-0.4c0.2-0.1,0.3-0.1,0.5-0.1
						c0.2,0,0.3,0,0.4,0c0,0,0,0,0,0.1c0,0-0.1,0.1-0.2,0.1c-0.2,0.1-0.3,0.2-0.4,0.2c-0.3,0.1-0.6,0.2-0.8,0.3
						C82.9,190.5,82.6,190.5,82.6,190.6z"/>
				</g>
			</g>
			<g>
				<g>
					<path class="st7" d="M82.7,190.7c0,0,0.2-0.3,0.2-0.8c0-0.3,0-0.6-0.1-0.9c0-0.2-0.1-0.3-0.2-0.5c-0.1-0.2-0.2-0.4-0.5-0.4
						c-0.2,0-0.3,0.1-0.4,0.2c-0.1,0.1-0.1,0.2-0.1,0.3c0,0.2,0,0.4,0,0.6c0,0.4,0.2,0.7,0.3,0.9c0.3,0.4,0.7,0.5,0.7,0.5
						c0,0-0.3-0.2-0.5-0.6c-0.1-0.2-0.2-0.5-0.2-0.8c0-0.2,0-0.3,0-0.5c0-0.2,0.1-0.3,0.2-0.3c0.1,0,0.2,0.1,0.3,0.3
						c0.1,0.2,0.1,0.3,0.2,0.5c0.1,0.3,0.1,0.6,0.1,0.8C82.8,190.4,82.7,190.7,82.7,190.7z"/>
				</g>
			</g>
		</g>
		<g>
			<g>
				<g>
					<polygon class="st9" points="121.5,181.4 102.2,174.2 122.5,171.4 123.5,161.5 85.6,164.8 80.2,172.5 81.7,182.2 118.6,191.5 
											"/>
				</g>
				<g>
					<g>
						<path class="st9" d="M80.6,188.3L78.8,153c0.1-3.4,2-6.6,4.9-8.3l0,0c2.5-1.4,5.4-1.7,8.1-0.8l24.6,8.2l13.5,3.5
							c0,0,2.3,5.7,0.9,10.1c-1.3,4.3-6,7.2-10.2,5.9c-5.2-1.5-28.9-11.7-28.9-11.7v28.7L80.6,188.3z"/>
					</g>
				</g>
				<g>
					<g>
						<path class="st10" d="M120.3,171.7c0,0-0.1,0-0.1,0c-0.1,0-0.2-0.1-0.4-0.2c-0.4-0.2-0.9-0.4-1.6-0.6
							c-1.4-0.6-3.4-1.4-5.9-2.4c-5-2.1-11.9-4.9-19.5-8c-0.3-0.1-0.7-0.3-1-0.4l0.2-0.1c0,8,0,15.2,0,20.4c0,2.6,0,4.7,0,6.1
							c0,0.7,0,1.3,0,1.7c0,0.2,0,0.3,0,0.4c0,0.1,0,0.1,0,0.1c0,0,0,0,0-0.1c0-0.1,0-0.3,0-0.4c0-0.4,0-1,0-1.7c0-1.5,0-3.5,0-6.1
							c0-5.2,0-12.4,0-20.4l0-0.2l0.2,0.1c0.3,0.1,0.7,0.3,1,0.4c7.6,3.2,14.5,6,19.4,8.1c2.5,1,4.5,1.9,5.9,2.5
							c0.7,0.3,1.2,0.5,1.6,0.7c0.2,0.1,0.3,0.1,0.4,0.2C120.2,171.6,120.3,171.7,120.3,171.7z"/>
					</g>
				</g>
				<g>
					<g>
						<path class="st10" d="M97.6,171.7c0-0.1,1.2,0.2,2.5,0.9c1.3,0.7,2.1,1.6,2.1,1.7c0,0.1-0.9-0.8-2.2-1.5
							C98.7,172.1,97.6,171.8,97.6,171.7z"/>
					</g>
				</g>
			</g>
			<g>
				<g>
					<path class="st10" d="M89.6,155.1c0.1,0,0.7,1,1.3,2.4c0.6,1.4,1,2.5,0.9,2.6c-0.1,0-0.5-1.1-1.1-2.5
						C90.1,156.2,89.6,155.1,89.6,155.1z"/>
				</g>
			</g>
		</g>
		<polygon class="st11" points="89.7,139.5 85.3,138.7 80.8,143.4 81.6,146.3 86.9,144.4 		"/>
		<g>
			<g>
				<g>
					<path class="st12" d="M73.6,87.8l-1.2,0.1c0,0-2.1,0.3-2.1,0.4c0,0-0.9,1.3-0.9,1.4L68.5,91c0,0,0.7,0.3,1.2-0.2l-0.3,0.7
						c0,0,1,0.4,1.6-0.6c0.4-0.6,0.7-1,0.9-1.3l0.4,0c0,0.1,1.5,2.2,1.6,2.1c0,0,1.3-1.2,1.3-1.2L73.6,87.8z"/>
				</g>
			</g>
			<g>
				<g>
					<path class="st11" d="M76.8,96.9l0.3-6.5l-3.3-3.7l-3.6,0.2l-1.5,1c0.1,0.4,1.1,0.6,2.2,0.3c1.1-0.3,2.3-0.1,2.3-0.1l1.4,2.4
						l-0.9,1l1.2,6.2L76.8,96.9z"/>
				</g>
			</g>
			<g>
				<path class="st0" d="M67.1,88.4h11.8c0.3,0,0.5,0.2,0.5,0.5l0,0c0,0.3-0.2,0.5-0.5,0.5H67.1L66,88.9L67.1,88.4z"/>
			</g>
			<g>
				<g>
					<path class="st11" d="M73.1,98.7l-1.2-3c-0.2-0.4-0.2-0.8-0.2-1.2c0.1-1.1,0.1-3.2,0-3.7c-0.2-0.7-1.1-2.9-0.6-3.2
						c0.5-0.3,1.2-0.4,1.7,0.9c0.5,1.3,2,4.2,2,4.2l1.1,4.7L73.1,98.7z"/>
				</g>
			</g>
			<g>
				<g>
					<g>
						<path class="st12" d="M74.5,92.4c0,0-0.3-0.5-0.7-1.3c-0.4-0.8-0.9-1.9-1.5-3.1c-0.2-0.3-0.4-0.5-0.7-0.5
							c-0.3,0-0.5,0.2-0.6,0.4c-0.1,0.2,0,0.5,0,0.8c0,0.3,0.1,0.5,0.2,0.7c0.2,0.8,0.5,1.3,0.4,1.4c0,0-0.1-0.1-0.2-0.3
							c-0.1-0.2-0.3-0.6-0.4-1c-0.1-0.2-0.1-0.4-0.2-0.7c-0.1-0.3-0.1-0.5,0-0.9c0.1-0.3,0.4-0.6,0.8-0.6c0.4,0,0.7,0.3,0.9,0.6
							c0.6,1.2,1.1,2.3,1.5,3.2C74.4,91.9,74.6,92.4,74.5,92.4z"/>
					</g>
				</g>
			</g>
		</g>
		<g>
			<g>
				<polygon class="st13" points="129.5,155.5 128.3,153.3 115.5,150.1 117,152.7 				"/>
			</g>
			<g>
				<path class="st5" d="M72,98.7l8.1,19.2c0.8,1.8,2.2,3.2,4,4l17.5,7.2l4.1-11.3l-17-6L77.6,96L72,98.7z"/>
			</g>
			<g>
				<g>
					<path class="st5" d="M98.3,118c0,0.5-1.9,14.4-1.9,17.3c0,2.9,5.5,5.9,5.5,5.9l6,12.7h21.3l-7.3-13.7l-3.3-11
						c-1.2-4.2-3.5-7.9-6.6-11l-3.6-2.4L98.3,118z"/>
				</g>
			</g>
			<g>
				<g>
					<path class="st5" d="M104.5,129l3.6,15l-18-5.1l-3.1,5.4l23.5,10.7c2.9,1.3,6.3,0.4,8.1-2.2l0,0c1.1-1.6,1.5-3.6,1-5.4
						l-5.3-20.5c-0.7-2.8-3.7-4.4-6.5-3.5l0,0C105.5,124.2,104,126.6,104.5,129z"/>
				</g>
			</g>
			<g>
				<g>
					<path class="st14" d="M101.9,141.2c0,0-0.1,0-0.2-0.1c-0.1-0.1-0.3-0.2-0.6-0.3c-0.5-0.3-1.2-0.7-2-1.3
						c-0.8-0.6-1.7-1.4-2.3-2.6c-0.6-1.2-0.5-2.8-0.3-4.3c0.2-1.5,0.5-2.9,0.7-4.2c0.2-1.3,0.3-2.5,0.4-3.5c0.1-1,0.1-1.8,0.1-2.4
						c0-0.6,0-0.9,0-0.9c0,0,0,0.1,0,0.2c0,0.1,0,0.4,0.1,0.6c0,0.6,0,1.4,0,2.4c-0.1,1-0.2,2.2-0.4,3.5c-0.2,1.3-0.5,2.7-0.7,4.2
						c-0.2,1.5-0.2,3,0.3,4.2c0.6,1.2,1.5,2,2.2,2.6c0.8,0.6,1.5,1.1,1.9,1.4C101.6,141,101.9,141.2,101.9,141.2z"/>
				</g>
			</g>
			<g>
				<g>
					<path class="st14" d="M111.8,125c0,0.1-1-0.5-2.4-0.6c-1.4-0.1-2.5,0.3-2.5,0.3c0,0,1.1-0.6,2.5-0.5
						C110.9,124.3,111.9,125,111.8,125z"/>
				</g>
			</g>
			<g>
				<g>
					<path class="st14" d="M109.4,116.9c0,0-0.1,0.1-0.3,0.4c-0.2,0.2-0.5,0.5-1,0.9c-0.8,0.8-2,1.8-3.3,2.9c-1.3,1.1-2.6,2-3.5,2.6
						c-0.5,0.3-0.8,0.6-1.1,0.7c-0.3,0.2-0.4,0.3-0.4,0.2c0,0,0.1-0.1,0.4-0.3c0.3-0.2,0.6-0.5,1.1-0.8c0.9-0.7,2.1-1.6,3.5-2.7
						c1.3-1.1,2.5-2.1,3.4-2.8c0.4-0.3,0.7-0.6,1-0.9C109.2,117,109.4,116.9,109.4,116.9z"/>
				</g>
			</g>
			<g>
				<g>
					<path class="st14" d="M88.6,111.8c0,0.1-0.6,0.3-1.4,0.8c-0.7,0.5-1.2,1-1.3,0.9c0,0,0.4-0.6,1.2-1.1
						C87.9,111.9,88.6,111.8,88.6,111.8z"/>
				</g>
			</g>
			<g>
				<g>
					<g>
						<path class="st15" d="M106.2,135.8c0,0-0.1,0.1-0.4,0.1c-0.3,0.1-0.6,0.1-1.1,0.2c-0.5,0.1-1,0.1-1.7,0c-0.6,0-1.3-0.1-2-0.3
							c-0.7-0.2-1.4-0.4-1.9-0.7c-0.6-0.3-1.1-0.6-1.5-0.8c-0.4-0.3-0.7-0.5-0.9-0.7c-0.2-0.2-0.3-0.3-0.3-0.3c0,0,0.5,0.4,1.3,0.9
							c0.8,0.5,2,1.1,3.3,1.4c1.4,0.3,2.7,0.4,3.6,0.3C105.6,135.9,106.2,135.8,106.2,135.8z"/>
					</g>
				</g>
				<g>
					<g>
						<path class="st15" d="M107.4,142.4c0,0-0.3,0.1-0.8,0.1c-0.5,0-1.2,0-2-0.1c-0.8-0.2-1.4-0.4-1.9-0.7
							c-0.5-0.2-0.7-0.4-0.7-0.5c0-0.1,1.1,0.6,2.6,0.9C106.2,142.5,107.4,142.3,107.4,142.4z"/>
					</g>
				</g>
				<g>
					<g>
						<path class="st15" d="M116.8,138.3c0,0-0.1,0.1-0.3,0.2c-0.2,0.1-0.6,0.3-1,0.4c-0.8,0.3-2,0.7-3.4,0.9
							c-1.4,0.2-2.6,0.2-3.5,0.1c-0.4,0-0.8-0.1-1.1-0.2c-0.2-0.1-0.4-0.1-0.4-0.1c0,0,0.6,0,1.4,0.1c0.9,0.1,2.1,0.1,3.5-0.1
							c1.3-0.2,2.5-0.5,3.4-0.8C116.2,138.5,116.7,138.3,116.8,138.3z"/>
					</g>
				</g>
				<g>
					<g>
						<path class="st15" d="M115.1,131c0,0-0.6-0.1-1.5-0.2c-0.9-0.1-2.1-0.2-3.5-0.1c-1.4,0.1-2.6,0.2-3.5,0.4
							c-0.9,0.2-1.4,0.3-1.4,0.3c0,0,0.1-0.1,0.4-0.1c0.2-0.1,0.6-0.2,1-0.3c0.9-0.2,2.1-0.4,3.5-0.5c1.4,0,2.6,0.1,3.5,0.2
							c0.4,0.1,0.8,0.1,1.1,0.2C115,130.9,115.1,130.9,115.1,131z"/>
					</g>
				</g>
				<g>
					<g>
						<path class="st15" d="M118.8,151.5c0,0-0.2,0-0.5-0.1c-0.3-0.1-0.8-0.2-1.4-0.4c-1.1-0.4-2.7-1.1-4.2-2.2
							c-1.5-1.1-2.7-2.2-3.5-3.2c-0.4-0.5-0.7-0.9-0.9-1.1c-0.2-0.3-0.3-0.4-0.3-0.4c0,0,0.5,0.6,1.2,1.5c0.8,0.9,2,2,3.5,3.1
							c1.5,1,3,1.8,4.1,2.2C118.1,151.3,118.8,151.5,118.8,151.5z"/>
					</g>
				</g>
				<g>
					<g>
						<path class="st15" d="M102.6,151.3c0,0-0.1-0.5-0.1-1.2c0-0.8,0.1-1.8,0.4-3c0.3-1.1,0.7-2.1,1.1-2.8c0.4-0.7,0.6-1.1,0.7-1.1
							c0,0-0.2,0.4-0.5,1.1c-0.3,0.7-0.7,1.7-1,2.8c-0.3,1.1-0.4,2.2-0.5,2.9C102.7,150.8,102.7,151.3,102.6,151.3z"/>
					</g>
				</g>
				<g>
					<g>
						<path class="st15" d="M91.8,146.3c0,0-0.1-0.4,0-1.1c0.1-0.6,0.3-1.6,0.8-2.4c0.5-0.9,1.2-1.5,1.7-1.9
							c0.5-0.4,0.8-0.6,0.9-0.6c0,0-0.3,0.3-0.7,0.7c-0.5,0.4-1.1,1.1-1.6,1.9c-0.5,0.8-0.7,1.7-0.8,2.3
							C91.8,145.9,91.8,146.3,91.8,146.3z"/>
					</g>
				</g>
				<g>
					<g>
						<path class="st15" d="M127.7,151.2c0,0-0.5,0.3-1.3,0.6c-0.8,0.3-1.9,0.7-3.2,1c-1.3,0.3-2.5,0.4-3.3,0.4c-0.2,0-0.4,0-0.6,0
							c-0.2,0-0.3,0-0.4-0.1c-0.2,0-0.4-0.1-0.4-0.1c0,0,0.5,0,1.4,0c0.8,0,2-0.1,3.3-0.4c1.3-0.3,2.4-0.6,3.2-0.9
							C127.2,151.3,127.7,151.1,127.7,151.2z"/>
					</g>
				</g>
				<g>
					<g>
						<path class="st15" d="M122.9,142.5c0,0-0.1,0.3-0.5,0.5c-0.4,0.3-0.9,0.6-1.5,0.8c-0.6,0.2-1.2,0.4-1.7,0.5
							c-0.2,0-0.4,0.1-0.5,0.1c-0.1,0-0.2,0-0.2-0.1c0,0,0.3,0,0.7-0.2c0.4-0.1,1-0.3,1.6-0.5c0.6-0.2,1.2-0.5,1.5-0.7
							C122.7,142.7,122.9,142.5,122.9,142.5z"/>
					</g>
				</g>
				<g>
					<g>
						<path class="st15" d="M119.9,133.7c0,0,0,0.1-0.1,0.2c-0.1,0.1-0.2,0.2-0.4,0.3c-0.3,0.2-0.8,0.4-1.3,0.6
							c-0.5,0.2-1,0.3-1.4,0.4c-0.4,0.1-0.6,0-0.6,0c0,0,0.2,0,0.6-0.1c0.4-0.1,0.8-0.2,1.4-0.4c0.5-0.2,1-0.4,1.3-0.5
							c0.2-0.1,0.3-0.2,0.4-0.2C119.9,133.7,119.9,133.7,119.9,133.7z"/>
					</g>
				</g>
				<g>
					<g>
						<path class="st15" d="M104.2,129c0,0-0.4,0.1-1,0c-0.6,0-1.5-0.1-2.5-0.3c-0.9-0.2-1.8-0.5-2.4-0.8c-0.6-0.3-0.9-0.5-0.9-0.5
							c0-0.1,1.4,0.6,3.3,1.1C102.7,128.9,104.3,128.9,104.2,129z"/>
					</g>
				</g>
				<g>
					<g>
						<path class="st15" d="M116.9,125c0,0.1-0.6,0.5-1.4,0.8c-0.8,0.4-1.6,0.5-1.6,0.4c0-0.1,0.7-0.3,1.5-0.6
							C116.2,125.3,116.9,125,116.9,125z"/>
					</g>
				</g>
				<g>
					<g>
						<path class="st15" d="M107,119.3c0,0,0.3,0.1,0.6,0.5c0.3,0.3,0.8,0.9,1.1,1.6c0.3,0.7,0.4,1.3,0.5,1.8c0,0.5,0,0.8,0,0.8
							c-0.1,0,0-1.2-0.7-2.5C107.9,120.2,107,119.4,107,119.3z"/>
					</g>
				</g>
				<g>
					<g>
						<path class="st15" d="M93.2,125.6c0,0-0.1-0.1-0.2-0.4c-0.1-0.3-0.2-0.7-0.3-1.2c-0.2-1-0.3-2.5,0-4.1c0.3-1.6,0.8-3,1.2-3.9
							c0.2-0.5,0.4-0.9,0.5-1.2c0.1-0.3,0.2-0.4,0.2-0.4c0,0,0,0.2-0.1,0.4c-0.1,0.3-0.3,0.7-0.4,1.2c-0.3,1-0.8,2.4-1.1,3.9
							c-0.3,1.6-0.3,3-0.1,4.1C93,125,93.3,125.6,93.2,125.6z"/>
					</g>
				</g>
				<g>
					<g>
						<path class="st15" d="M82.9,121.4c0,0,0-0.2,0.1-0.4c0.1-0.3,0.2-0.7,0.3-1.2c0.3-1,0.9-2.3,1.8-3.6c0.9-1.3,1.9-2.3,2.7-3
							c0.4-0.3,0.7-0.6,1-0.7c0.2-0.2,0.4-0.2,0.4-0.2c0,0-0.5,0.4-1.3,1.1c-0.8,0.7-1.8,1.7-2.6,3c-0.9,1.3-1.5,2.6-1.9,3.5
							C83.1,120.8,82.9,121.4,82.9,121.4z"/>
					</g>
				</g>
				<g>
					<g>
						<path class="st15" d="M84.6,105.9c0,0-0.5,0.1-1.3,0.3c-0.8,0.2-1.8,0.6-2.9,1.3c-1,0.6-1.9,1.3-2.5,1.9c-0.6,0.6-0.9,1-0.9,1
							c0,0,0-0.1,0.2-0.3c0.1-0.1,0.1-0.2,0.2-0.3c0.1-0.1,0.2-0.3,0.4-0.4c0.5-0.6,1.4-1.3,2.5-2c1.1-0.6,2.1-1.1,2.9-1.2
							c0.2,0,0.4-0.1,0.5-0.1c0.2,0,0.3,0,0.4,0C84.4,105.9,84.6,105.9,84.6,105.9z"/>
					</g>
				</g>
				<g>
					<g>
						<path class="st15" d="M80.5,100c0,0.1-1.7-0.2-3.8,0.3c-2.1,0.5-3.4,1.6-3.5,1.5c0,0,0.3-0.3,0.9-0.7c0.6-0.4,1.5-0.8,2.5-1.1
							c1-0.3,2-0.3,2.7-0.3C80,99.8,80.5,99.9,80.5,100z"/>
					</g>
				</g>
			</g>
			<g>
				<g>
					<path class="st14" d="M104.5,129c0,0,0,0.1,0.1,0.3c0.1,0.2,0.1,0.5,0.2,0.8c0.2,0.8,0.5,1.8,0.8,3.1c0.7,2.7,1.6,6.4,2.6,10.7
						l0,0.2l-0.2-0.1c-1.5-0.4-3-0.8-4.6-1.3c-5.2-1.5-10-2.8-13.4-3.8l0.1,0c-1,1.7-1.7,3-2.3,4c-0.3,0.5-0.5,0.8-0.6,1.1
						c-0.1,0.1-0.1,0.2-0.2,0.3c0,0.1-0.1,0.1-0.1,0.1c0,0,0,0,0-0.1c0-0.1,0.1-0.2,0.1-0.3c0.1-0.3,0.3-0.6,0.6-1.1
						c0.5-1,1.3-2.3,2.2-4l0-0.1l0.1,0c3.5,1,8.2,2.3,13.5,3.8c1.6,0.4,3.1,0.9,4.6,1.3l-0.1,0.1c-1-4.3-1.9-8.1-2.5-10.7
						c-0.3-1.3-0.5-2.4-0.7-3.1c-0.1-0.4-0.1-0.6-0.2-0.8C104.5,129.1,104.5,129,104.5,129z"/>
				</g>
			</g>
			<g>
				<g>
					<path class="st14" d="M114.4,128.1c0,0,0,0.1,0.1,0.3c0.1,0.2,0.1,0.4,0.2,0.7c0.2,0.7,0.4,1.6,0.7,2.8
						c0.6,2.4,1.4,5.6,2.3,9.1c0.4,1.8,0.9,3.5,1.2,5c0.4,1.6,0.5,3,0.3,4.2c-0.2,1.2-0.6,2.1-1,2.7c-0.4,0.6-0.7,0.8-0.7,0.8
						c0,0,0.3-0.3,0.6-0.8c0.4-0.6,0.8-1.5,0.9-2.6c0.2-1.2,0-2.6-0.4-4.2c-0.4-1.6-0.8-3.3-1.3-5c-0.9-3.6-1.7-6.8-2.2-9.2
						c-0.3-1.2-0.5-2.1-0.7-2.8c-0.1-0.3-0.1-0.6-0.2-0.8C114.4,128.2,114.4,128.1,114.4,128.1z"/>
				</g>
			</g>
			<g class="st16">
				<g>
					<g>
						<path class="st8" d="M117.6,153.9c2.6,0.2,4.2-1.3,4.5-3.3c0.2-1.1-0.2-2.3-0.6-3.4c-1.6-4.7-3.3-9.5-5.8-13.8
							c1,4.3,2.2,8.5,3.2,12.8c0.3,1.4,0.4,2.2,0.4,3.7C119.2,151.2,118.6,152.8,117.6,153.9"/>
					</g>
				</g>
			</g>
		</g>
		<g>
			<g>
				<g>
					<path class="st9" d="M107.9,115c1.4,0.4,3,0.2,4.3-0.5c1.3-0.8,2.2-2.1,2.5-3.6c0.7,0.7,1.8,0.9,2.7,0.7c1-0.2,1.8-0.7,2.5-1.4
						c1.3-1.2,2.2-3,2.1-4.8c-0.1-1.8-1.2-3.6-2.9-4.2c-1.7-0.6-3.8,0.2-4.5,1.8c-0.3-0.9,0.5-2.2,0.3-3.2c-0.4-2-1.6-3.1-2.5-3.1"
						/>
				</g>
			</g>
			<g>
				<g>
					<g>
						<g>
							<g>
								<path class="st9" d="M110,114.5c1.9-3.4,2.5-7.9,3-11.7c0.2-1.8,0.6-4.4-0.6-5.6c-1.3-1.2-1.5-3.1-3-4.1
									c-1.5-0.9-3.6-1-5.1,0.1"/>
							</g>
						</g>
						<g>
							<g>
								<g>
									<g>
										<g>
											<g>
												<g>
													<g>
														<g>
															<path class="st11" d="M100,121.2v-5.3c0,0-5.5-1-5.8-5.4c-0.3-4.4-0.2-14.6-0.2-14.6l0,0c4.8-2.5,10.6-2.2,15.1,1
																l-0.2,15.5l0,5.1l-4.5,3.7l-4.3,3.4V121.2z"/>
														</g>
													</g>
												</g>
											</g>
										</g>
									</g>
								</g>
								<g>
									<g>
										<path class="st9" d="M98.4,105.1c0.7-0.9,1.9-1.3,2.9-0.7c1,0.7,1.4,2.1,0.8,3.2c-0.4,0.8-1.2,1.5-2.1,1.6
											c0,0,2,3.6,3.2,4.6c1.5,1.1,2.2,1.7,4.1,1.9c1.8,0.2,1.6,0.2,2.7-1.3c0.8-1.1,1-2.2,1-3.6c0.1-3.3,0.1-6.5,0.2-9.8
											c0-1.2,0-2.4-0.2-3.5s-0.8-2.2-1.8-2.9c-1-0.7-2.4-0.8-3.5-1.2c-1.5-0.5-2.7-1.5-4.1-2.2c-1.4-0.7-3.1-1.2-4.5-0.4
											c-1,0.5-1.7,1.6-2.6,2.1c-1.4,0.8-3.3,0.6-3.9,2.7c-0.2,0.7-0.2,1.5,0,2.2c0.9,2.9,4.4,4,6.8,2.8c0.1,0.5-0.4,1.6,0.1,3.1
											C97.6,104.4,97.7,105.1,98.4,105.1"/>
									</g>
								</g>
							</g>
							<g>
								<g>
									<g>
										<path class="st12" d="M99.2,107.9c0,0,0,0.1,0.1,0.2c0.1,0.1,0.2,0.2,0.5,0.2c0.5,0,1.1-0.5,1.1-1.2
											c0-0.4-0.1-0.7-0.3-0.9c-0.2-0.2-0.5-0.3-0.7-0.4c-0.4-0.1-0.7,0.1-0.7,0.1c0,0.1,0.3,0,0.6,0.1c0.3,0.1,0.8,0.5,0.7,1.1
											c0,0.6-0.5,1-0.8,1C99.4,108.1,99.2,107.9,99.2,107.9z"/>
									</g>
								</g>
							</g>
						</g>
					</g>
				</g>
				<g>
					<g>
						<path class="st17" d="M121.6,105.6c0,0,0,0.2-0.1,0.4c-0.1,0.3-0.3,0.6-0.6,1c-0.6,0.8-1.7,1.8-3.3,2c-1.6,0.2-2.9-0.4-3.7-1
							c-0.4-0.3-0.7-0.6-0.9-0.8c-0.2-0.2-0.2-0.4-0.2-0.4c0,0,0.4,0.5,1.2,1.1c0.8,0.6,2.1,1.1,3.6,0.9c1.5-0.2,2.6-1.1,3.2-1.9
							C121.3,106.2,121.5,105.6,121.6,105.6z"/>
					</g>
				</g>
				<g>
					<g>
						<path class="st17" d="M121,104.9c0,0,0,0.1-0.2,0.3c-0.1,0.2-0.3,0.5-0.6,0.8c-0.6,0.6-1.6,1.4-2.9,1.7
							c-1.3,0.3-2.5,0-3.3-0.3c-0.4-0.2-0.7-0.4-0.9-0.5c-0.2-0.1-0.3-0.2-0.3-0.2c0,0,0.4,0.3,1.2,0.6c0.8,0.3,2,0.5,3.2,0.2
							c1.2-0.3,2.2-1,2.8-1.6C120.7,105.3,120.9,104.8,121,104.9z"/>
					</g>
				</g>
				<g>
					<g>
						<path class="st17" d="M113.6,110.5c0,0-0.1,0-0.2,0.1c-0.1,0.1-0.3,0.1-0.6,0.2c-0.5,0.1-1.3-0.1-2.1-0.6
							c-0.8-0.5-1.5-1.5-2-2.6c-0.5-1.1-1-2.4-1.8-3.5c-0.4-0.6-0.9-1-1.5-1.3c-0.6-0.3-1.2-0.4-1.8-0.5c-1.2-0.1-2.3,0-3.2-0.2
							c-0.9-0.1-1.6-0.4-2.1-0.7c-0.2-0.1-0.4-0.3-0.5-0.4c-0.1-0.1-0.1-0.1-0.1-0.2c0,0,0.2,0.2,0.7,0.4c0.4,0.2,1.2,0.5,2.1,0.6
							c0.9,0.1,2,0,3.2,0.1c0.6,0.1,1.3,0.2,1.9,0.5c0.6,0.3,1.2,0.8,1.6,1.3c0.9,1.2,1.3,2.5,1.8,3.5c0.5,1.1,1.1,2,1.9,2.5
							c0.7,0.5,1.5,0.7,2,0.6C113.3,110.7,113.6,110.5,113.6,110.5z"/>
					</g>
				</g>
				<g>
					<g>
						<path class="st17" d="M113.1,108.9c0,0-0.1,0-0.2,0c-0.1,0-0.3,0-0.6-0.1c-0.5-0.1-1.1-0.5-1.7-1.2c-0.3-0.3-0.6-0.7-0.8-1.2
							c-0.3-0.5-0.5-1-0.7-1.5c-0.3-0.5-0.5-1-0.9-1.5c-0.2-0.2-0.4-0.5-0.6-0.7c-0.1-0.1-0.3-0.2-0.4-0.3c-0.1-0.1-0.3-0.2-0.4-0.3
							c-0.6-0.3-1.2-0.4-1.8-0.5c-0.6-0.1-1.2-0.1-1.8-0.1c-1.1,0-2.2,0-3.1-0.1c-0.9-0.1-1.6-0.4-2-0.6c-0.2-0.1-0.4-0.2-0.5-0.3
							c-0.1-0.1-0.2-0.1-0.1-0.1c0,0,0.2,0.1,0.7,0.4c0.4,0.2,1.1,0.4,2,0.5c0.9,0.1,1.9,0,3.1,0c0.6,0,1.2,0,1.8,0.1
							c0.6,0.1,1.3,0.2,1.9,0.6c0.2,0.1,0.3,0.2,0.4,0.3c0.1,0.1,0.3,0.2,0.4,0.3c0.2,0.2,0.5,0.5,0.7,0.7c0.4,0.5,0.7,1.1,0.9,1.6
							c0.3,0.5,0.5,1,0.7,1.5c0.2,0.4,0.5,0.8,0.8,1.2c0.5,0.7,1.2,1,1.6,1.2C112.9,108.9,113.1,108.9,113.1,108.9z"/>
					</g>
				</g>
				<path class="st17" d="M114.2,111.2c0,0-0.1-0.1-0.2-0.2c-0.1-0.1-0.3-0.4-0.5-0.7c-0.4-0.6-0.8-1.6-0.9-2.7
					c0-1.1,0.3-2.1,0.6-2.8c0.2-0.3,0.3-0.6,0.5-0.7c0.1-0.2,0.2-0.2,0.2-0.2c0,0-0.3,0.4-0.6,1c-0.3,0.6-0.6,1.6-0.6,2.7
					c0,1.1,0.4,2,0.8,2.6C113.9,110.8,114.2,111.2,114.2,111.2z"/>
			</g>
		</g>
	</g>
</g>
<g id="Plant">
	<g>
		<g>
			<g>
				<g>
					<g>
						<g>
							<path class="st5" d="M215.3,172c3,1.1,7,0.1,9.6-1.8c2.6-1.9,4.5-4.6,6.1-7.4c0.7-1.2,1.4-2.4,1.6-3.7
								c0.2-1.4-0.1-2.9-1.2-3.8c-1.6-1.4-4.1-0.7-6,0.4C219.7,159,215.7,165.3,215.3,172"/>
						</g>
					</g>
				</g>
			</g>
			<g>
				<g>
					<g>
						<g>
							<path class="st5" d="M218.5,179.2c1.8,2.4,4.9,3.5,7.9,3.6c3,0.1,6-0.7,8.8-1.8c1-0.4,2.1-0.9,2.5-2c0.3-0.8,0-1.7-0.5-2.3
								c-0.5-0.6-1.3-1.1-2-1.4c-2.8-1.2-5.9-1.2-8.8-0.5S220.9,177.3,218.5,179.2"/>
						</g>
					</g>
				</g>
			</g>
			<g>
				<g>
					<g>
						<g>
							<path class="st5" d="M215.2,159c2.5,0.1,4.4-2.1,5.5-4.4c1.6-3.1,2.1-6.7,1.5-10.1c-0.2-1.3-0.7-2.7-1.9-3.3
								c-1.2-0.6-2.7-0.2-3.7,0.7c-1,0.9-1.5,2.2-1.9,3.4C213.5,149.7,213.8,154.7,215.2,159"/>
						</g>
					</g>
				</g>
			</g>
			<g>
				<g>
					<g>
						<g>
							<path class="st5" d="M207,172.8c4.3-7.3,5-16.2,2.5-24.2c-0.4-1.3-1.2-2.8-2.5-2.9c-1.5-0.1-2.5,1.6-2.9,3
								c-1.5,5.1-1.2,10.5-0.8,15.8C203.4,167.9,204.5,170.7,207,172.8"/>
						</g>
					</g>
				</g>
			</g>
			<g>
				<g>
					<g>
						<g>
							<path class="st5" d="M202.6,175.8c-1.5-5-5.5-9.2-10.4-11c-1.1-0.4-2.6-0.7-3.4,0.2c-0.8,0.9-0.6,2.3,0,3.3
								c0.9,1.7,2.3,3.1,3.6,4.4c1.3,1.2,2.6,2.4,4.2,3.1C198.2,176.6,201.1,176.8,202.6,175.8"/>
						</g>
					</g>
				</g>
			</g>
			<g>
				<g>
					<g>
						<g>
							<path class="st18" d="M229.1,157.2C229.1,157.2,229,157.2,229.1,157.2c-0.1,0.1-0.2,0.2-0.3,0.2c-0.2,0.2-0.5,0.4-0.9,0.7
								c-0.2,0.1-0.4,0.3-0.6,0.5c-0.2,0.2-0.5,0.4-0.7,0.6c-0.5,0.4-1.2,0.9-1.8,1.5c-0.3,0.3-0.7,0.6-1,0.9c-0.3,0.3-0.7,0.7-1,1
								c-0.7,0.7-1.4,1.5-2.2,2.4c-1.5,1.7-3,3.8-4.4,6c-1.4,2.3-2.5,4.5-3.4,6.6c-0.4,1.1-0.8,2.1-1.1,3c-0.2,0.5-0.3,0.9-0.5,1.4
								c-0.1,0.5-0.3,0.9-0.4,1.3c-0.3,0.8-0.4,1.6-0.6,2.3c-0.1,0.3-0.2,0.6-0.2,0.9c-0.1,0.3-0.1,0.6-0.1,0.8
								c-0.1,0.5-0.2,0.8-0.2,1.1c0,0.1,0,0.2-0.1,0.3c0,0.1,0,0.1,0,0.1c0,0,0,0,0-0.1c0-0.1,0-0.2,0-0.3c0-0.3,0.1-0.6,0.2-1.1
								c0-0.2,0.1-0.5,0.1-0.8c0.1-0.3,0.1-0.6,0.2-0.9c0.1-0.7,0.3-1.5,0.5-2.3c0.1-0.4,0.2-0.9,0.4-1.3c0.1-0.5,0.3-0.9,0.5-1.4
								c0.3-1,0.7-2,1.1-3.1c0.9-2.1,2-4.4,3.4-6.7c1.4-2.3,2.9-4.3,4.4-6c0.8-0.9,1.5-1.7,2.2-2.4c0.4-0.4,0.7-0.7,1.1-1
								c0.4-0.3,0.7-0.6,1-0.9c0.6-0.6,1.3-1.1,1.8-1.5c0.3-0.2,0.5-0.4,0.8-0.6c0.2-0.2,0.5-0.3,0.7-0.5c0.4-0.3,0.7-0.5,0.9-0.6
								C228.8,157.3,228.9,157.2,229.1,157.2C229,157.2,229.1,157.2,229.1,157.2z"/>
						</g>
					</g>
				</g>
			</g>
			<g>
				<g>
					<g>
						<g>
							<path class="st18" d="M234.7,177.3c0,0-0.1,0-0.3,0c-0.2,0-0.5-0.1-0.8-0.2c-0.7-0.1-1.8-0.3-3.1-0.4
								c-2.6-0.2-6.3,0.1-10,1.7c-3.7,1.5-6.6,4-8.3,5.9c-0.9,1-1.5,1.8-1.9,2.5c-0.2,0.3-0.4,0.5-0.5,0.7c-0.1,0.2-0.2,0.2-0.2,0.2
								c0,0,0-0.1,0.1-0.3c0.1-0.2,0.2-0.4,0.4-0.7c0.4-0.6,1-1.5,1.9-2.5c1.7-2,4.6-4.5,8.3-6c3.8-1.6,7.5-1.9,10.1-1.6
								c1.3,0.1,2.4,0.3,3.1,0.4c0.4,0.1,0.6,0.2,0.8,0.2C234.6,177.3,234.7,177.3,234.7,177.3z"/>
						</g>
					</g>
				</g>
			</g>
			<g>
				<g>
					<g>
						<g>
							<path class="st18" d="M218.9,144.1c0,0,0,0,0,0.1c0,0.1,0,0.2-0.1,0.3c-0.1,0.3-0.2,0.7-0.3,1.3c-0.2,1.1-0.6,2.7-1.1,4.6
								c-0.9,3.9-2.3,9.2-3.7,15.1c-0.7,3-1.3,5.8-1.9,8.4c-0.5,2.6-1,4.9-1.3,6.9c-0.2,1-0.3,1.9-0.5,2.6c-0.1,0.8-0.2,1.5-0.3,2
								c-0.1,0.5-0.1,1-0.2,1.3c0,0.1,0,0.2-0.1,0.3c0,0.1,0,0.1,0,0.1c0,0,0,0,0-0.1c0-0.1,0-0.2,0-0.3c0-0.3,0.1-0.7,0.2-1.3
								c0.1-0.6,0.2-1.2,0.3-2c0.1-0.8,0.2-1.7,0.4-2.7c0.3-2,0.8-4.3,1.3-6.9c0.5-2.6,1.2-5.4,1.9-8.4c1.4-5.9,2.8-11.2,3.8-15.1
								c0.5-1.9,0.9-3.5,1.2-4.6c0.1-0.5,0.2-0.9,0.3-1.2c0-0.1,0.1-0.2,0.1-0.3C218.9,144.1,218.9,144.1,218.9,144.1z"/>
						</g>
					</g>
				</g>
			</g>
			<g>
				<g>
					<g>
						<g>
							<path class="st18" d="M209.1,186.5C209.1,186.5,209.1,186.5,209.1,186.5c0-0.2-0.1-0.2-0.1-0.4c-0.1-0.2-0.1-0.6-0.2-1
								c-0.2-0.9-0.4-2.2-0.7-3.7c-0.5-3.2-1.2-7.6-1.6-12.4c-0.2-2.4-0.3-4.8-0.3-6.9c0-2.1,0-4,0-5.6c0-0.8,0.1-1.5,0.1-2.2
								c0-0.6,0.1-1.2,0.1-1.6c0-0.4,0.1-0.8,0.1-1c0-0.1,0-0.2,0-0.3c0-0.1,0-0.1,0-0.1c0,0,0,0,0,0.1c0,0.1,0,0.2,0,0.3
								c0,0.3,0,0.6-0.1,1c0,0.4-0.1,1-0.1,1.6c0,0.6-0.1,1.4-0.1,2.2c0,1.6-0.1,3.5,0,5.6c0.1,2.1,0.2,4.5,0.4,6.9
								c0.4,4.9,1,9.3,1.5,12.4c0.3,1.6,0.5,2.9,0.6,3.7c0.1,0.4,0.1,0.8,0.2,1C209.1,186.2,209.1,186.3,209.1,186.5
								C209.1,186.5,209.1,186.5,209.1,186.5z"/>
						</g>
					</g>
				</g>
			</g>
			<g>
				<g>
					<g>
						<g>
							<path class="st18" d="M209.4,187.4c0,0,0-0.1-0.1-0.3c-0.1-0.2-0.2-0.4-0.3-0.7c-0.1-0.2-0.1-0.3-0.2-0.5
								c-0.1-0.2-0.2-0.4-0.3-0.6c-0.1-0.2-0.2-0.5-0.3-0.7c-0.1-0.3-0.3-0.5-0.4-0.8c-0.1-0.3-0.3-0.6-0.4-0.8
								c-0.2-0.3-0.3-0.6-0.5-0.9c-0.3-0.6-0.8-1.3-1.2-1.9c-0.9-1.3-2-2.7-3.2-4.1c-1.2-1.4-2.5-2.6-3.7-3.7
								c-0.6-0.5-1.2-1-1.7-1.5c-0.3-0.2-0.5-0.4-0.8-0.6c-0.3-0.2-0.5-0.4-0.8-0.6c-0.5-0.4-0.9-0.7-1.3-0.9
								c-0.4-0.3-0.7-0.5-1-0.7c-0.3-0.2-0.5-0.3-0.7-0.4c-0.2-0.1-0.2-0.2-0.2-0.2c0,0,0.1,0,0.2,0.1c0.2,0.1,0.4,0.2,0.7,0.4
								c0.3,0.2,0.7,0.4,1.1,0.7c0.4,0.3,0.9,0.6,1.4,0.9c0.2,0.2,0.5,0.4,0.8,0.6c0.3,0.2,0.5,0.4,0.8,0.6c0.6,0.4,1.1,0.9,1.8,1.5
								c1.2,1.1,2.5,2.3,3.7,3.7c1.2,1.4,2.3,2.8,3.2,4.1c0.4,0.7,0.9,1.3,1.2,1.9c0.2,0.3,0.3,0.6,0.5,0.9c0.1,0.3,0.3,0.6,0.4,0.9
								c0.1,0.3,0.3,0.5,0.4,0.8c0.1,0.3,0.2,0.5,0.3,0.7c0.1,0.2,0.2,0.4,0.3,0.6c0.1,0.2,0.1,0.4,0.2,0.5c0.1,0.3,0.2,0.6,0.2,0.7
								C209.4,187.3,209.4,187.4,209.4,187.4z"/>
						</g>
					</g>
				</g>
			</g>
			<g>
				<g>
					<g>
						<g>
							<path class="st18" d="M227.5,165.6c0,0-0.5,0-1.3,0.1c-0.8,0-2,0.2-3.2,0.4c-1.2,0.2-2.4,0.6-3.1,0.8
								c-0.8,0.3-1.3,0.5-1.3,0.4c0,0,0.1-0.1,0.3-0.2c0.2-0.1,0.5-0.2,0.9-0.4c0.8-0.3,1.9-0.6,3.2-0.9c1.3-0.2,2.4-0.3,3.3-0.3
								c0.4,0,0.8,0,1,0C227.3,165.6,227.5,165.6,227.5,165.6z"/>
						</g>
					</g>
				</g>
			</g>
			<g>
				<g>
					<g>
						<g>
							<path class="st18" d="M230.7,181.3c-0.1,0-0.5-1.4-1.8-2.7c-1.2-1.3-2.6-1.9-2.5-2c0,0,0.4,0.1,0.9,0.4
								c0.5,0.3,1.2,0.8,1.8,1.4c0.6,0.7,1,1.4,1.3,1.9C230.6,181,230.7,181.3,230.7,181.3z"/>
						</g>
					</g>
				</g>
			</g>
			<g>
				<g>
					<g>
						<g>
							<path class="st18" d="M219.7,150c0,0-0.7,0.8-1.6,1.9c-0.9,1.1-1.5,2-1.5,2c0,0,0.5-1,1.4-2.1
								C218.8,150.7,219.7,150,219.7,150z"/>
						</g>
					</g>
				</g>
			</g>
			<g>
				<g>
					<g>
						<g>
							<path class="st18" d="M217.1,145.6c0.1,0,0.2,0.7,0.4,1.7c0.2,0.9,0.2,1.7,0.2,1.7c-0.1,0-0.2-0.7-0.4-1.7
								C217.2,146.3,217.1,145.6,217.1,145.6z"/>
						</g>
					</g>
				</g>
			</g>
			<g>
				<g>
					<g>
						<g>
							<path class="st18" d="M209.1,159.5c0,0-0.5,1.2-1.3,2.6c-0.7,1.4-1.4,2.6-1.4,2.5c0,0,0.5-1.2,1.3-2.6
								C208.4,160.7,209.1,159.5,209.1,159.5z"/>
						</g>
					</g>
				</g>
			</g>
			<g>
				<g>
					<g>
						<g>
							<path class="st18" d="M204.4,154.8c0,0,0.5,0.8,1.1,1.9c0.5,1.1,0.9,2,0.9,2c0,0-0.5-0.8-1.1-1.9
								C204.7,155.7,204.3,154.8,204.4,154.8z"/>
						</g>
					</g>
				</g>
			</g>
			<g>
				<g>
					<g>
						<g>
							<path class="st18" d="M197.4,171c0,0.1-0.9-0.1-1.9-0.2c-1.1-0.1-1.9,0-1.9-0.1c0-0.1,0.9-0.2,1.9-0.1
								C196.5,170.7,197.4,171,197.4,171z"/>
						</g>
					</g>
				</g>
			</g>
		</g>
		<g>
			<g>
				<g>
					<g>
						<g>
							<path class="st9" d="M202.2,185.4l2.4,12.5c0.2,0.8,0.9,1.4,1.7,1.4h7c0.9,0,1.6-0.6,1.7-1.5l2.1-12.5H202.2z"/>
						</g>
					</g>
				</g>
			</g>
			<g>
				<g>
					<g>
						<g>
							<polygon class="st19" points="202.9,189.5 216.4,189.5 217.1,185.4 202.2,185.4 							"/>
						</g>
					</g>
				</g>
			</g>
			<g>
				<g>
					<g>
						<polygon class="st15" points="202.9,189.5 203.2,191 216.2,191 216.4,189.5 						"/>
					</g>
				</g>
			</g>
		</g>
	</g>
</g>
<g id="Background_Complete">
	<path class="st20" d="M61.1,74.4L61.1,74.4L61.1,74.4c0.1-1.3,0-2.4,0-3.5l0-0.1l-0.1,0c-0.7-0.1-1.3-0.3-2-0.4
		c-0.2-0.7-0.5-1.4-0.9-2c0.4-0.6,0.7-1.2,1-1.7l0-0.1l-0.1,0c-0.9-0.8-1.7-1.6-2.5-2.4l0,0l-0.1,0c-0.6,0.4-1.2,0.8-1.7,1.1
		c-0.7-0.4-1.4-0.6-2-0.8c-0.2-0.7-0.3-1.4-0.5-2l0,0l0,0c-1.3,0-2.5,0.1-3.4,0.1l0,0l0,0c-0.2,0.8-0.3,1.5-0.4,2
		c-0.7,0.2-1.2,0.5-1.5,0.6c-0.2,0.1-0.3,0.2-0.4,0.2c-0.1,0-0.1,0.1-0.1,0.1l0,0c0,0,0,0-0.1-0.1c-0.1-0.1-0.2-0.1-0.3-0.2
		c-0.3-0.2-0.7-0.5-1.3-0.8l0,0l0,0c-0.6,0.6-1.4,1.5-2.4,2.4l0,0l0,0c0.3,0.5,0.7,1.1,1.1,1.7c-0.3,0.6-0.6,1.3-0.8,2
		c-0.6,0.1-1.3,0.3-2,0.5l-0.1,0l0,0.1c0,1.1,0,2.2,0.1,3.4l0,0.1l0.1,0c0.6,0.1,1.3,0.3,2,0.4c0.2,0.6,0.5,1.3,0.9,2
		c-0.3,0.5-0.7,1.1-1,1.7l0,0.1l0.1,0.1c0.8,0.7,1.6,1.6,2.5,2.4l0.1,0.1l0.1,0c0.5-0.3,1.1-0.7,1.7-1.1c0.6,0.3,1.3,0.6,2,0.8
		c0.2,0.6,0.3,1.3,0.5,2l0,0.1l0.1,0c1.1,0,2.2,0,3.4-0.1l0.1,0l0-0.1c0.1-0.6,0.3-1.3,0.4-2c0.7-0.2,1.3-0.5,2-0.8
		c0.6,0.3,1.2,0.7,1.7,1l0.1,0l0.1-0.1c0.8-0.8,1.6-1.7,2.4-2.5l0.1-0.1l0-0.1c-0.4-0.6-0.7-1.1-1.1-1.7c0.3-0.6,0.6-1.3,0.8-2
		C59.8,74.7,60.5,74.6,61.1,74.4z M49.1,69.6c0.5-0.3,1.3-0.6,2.3-0.5c0.5,0.1,1.1,0.2,1.5,0.6c0.5,0.3,1,0.8,1.2,1.4
		c0.2,0.3,0.3,0.6,0.3,1c0.1,0.3,0.1,0.7,0,1.1c-0.1,0.7-0.4,1.4-1,2c-0.5,0.6-1.2,0.9-2,1c-0.4,0.1-0.7,0.1-1.1,0
		c-0.3,0-0.7-0.1-1-0.3c-0.6-0.3-1.1-0.7-1.5-1.2c-0.4-0.5-0.5-1-0.6-1.5c-0.2-1,0.1-1.9,0.4-2.4c0.3-0.5,0.5-0.7,0.5-0.7
		C48.4,70.1,48.6,69.9,49.1,69.6z M47,65.3C47,65.3,47,65.3,47,65.3c-0.1,0-0.1,0.1-0.2,0.1C46.8,65.4,46.9,65.4,47,65.3z
		 M46.5,65.6C46.5,65.6,46.5,65.6,46.5,65.6L46.5,65.6C46.5,65.6,46.5,65.6,46.5,65.6z"/>
	<g>
		<path class="st21" d="M155.7,93.1L155.7,93.1L155.7,93.1c-0.4-0.1-0.8-0.2-1.2-0.3c-0.1-0.4-0.3-0.8-0.5-1.2
			c0.2-0.4,0.4-0.7,0.6-1l0,0l0,0c-0.5-0.5-1-1-1.5-1.4l0,0l0,0c-0.4,0.2-0.7,0.5-1,0.7c-0.4-0.2-0.8-0.4-1.2-0.5
			c-0.1-0.4-0.2-0.8-0.3-1.2l0,0l0,0c-0.8,0-1.5,0-2,0l0,0l0,0c-0.1,0.5-0.2,0.9-0.2,1.2c-0.4,0.1-0.7,0.3-0.9,0.4
			c-0.1,0.1-0.2,0.1-0.2,0.1c0,0-0.1,0-0.1,0c0,0,0,0-0.1,0c0,0-0.1-0.1-0.2-0.1c-0.2-0.1-0.4-0.3-0.8-0.5l0,0l0,0
			c-0.4,0.4-0.8,0.9-1.4,1.5l0,0l0,0c0.2,0.3,0.4,0.7,0.7,1c-0.2,0.4-0.4,0.8-0.5,1.2c-0.4,0.1-0.8,0.2-1.2,0.3l0,0l0,0
			c0,0.6,0,1.3,0,2l0,0l0,0c0.4,0.1,0.8,0.2,1.2,0.2c0.1,0.4,0.3,0.8,0.5,1.2c-0.2,0.3-0.4,0.7-0.6,1l0,0l0,0c0.5,0.4,1,0.9,1.5,1.4
			l0,0l0,0c0.3-0.2,0.7-0.4,1-0.7c0.4,0.2,0.8,0.4,1.2,0.5c0.1,0.4,0.2,0.8,0.3,1.2l0,0l0,0c0.6,0,1.3,0,2,0l0,0l0,0
			c0.1-0.4,0.2-0.8,0.2-1.2c0.4-0.1,0.8-0.3,1.2-0.5c0.3,0.2,0.7,0.4,1,0.6l0,0l0,0c0.5-0.5,1-1,1.4-1.5l0,0l0,0
			c-0.2-0.3-0.4-0.7-0.7-1c0.2-0.4,0.4-0.8,0.5-1.2c0.4-0.1,0.8-0.2,1.2-0.3l0,0l0,0C155.7,94.5,155.7,93.8,155.7,93.1z M148.5,92.3
			c0.3-0.2,0.8-0.4,1.4-0.3c0.3,0,0.6,0.1,0.9,0.3c0.3,0.2,0.6,0.5,0.7,0.9c0.1,0.2,0.2,0.4,0.2,0.6c0,0.2,0,0.4,0,0.6
			c-0.1,0.4-0.3,0.9-0.6,1.2c-0.3,0.3-0.7,0.6-1.2,0.6c-0.2,0-0.4,0-0.6,0c-0.2,0-0.4-0.1-0.6-0.2c-0.4-0.2-0.7-0.4-0.9-0.7
			c-0.2-0.3-0.3-0.6-0.4-0.9c-0.1-0.6,0.1-1.1,0.2-1.4c0.2-0.3,0.3-0.4,0.3-0.4C148.1,92.7,148.2,92.5,148.5,92.3z M147.3,89.8
			C147.3,89.8,147.3,89.8,147.3,89.8c0,0-0.1,0-0.1,0.1C147.2,89.8,147.2,89.8,147.3,89.8z"/>
		<path class="st21" d="M128.8,29.6L128.8,29.6L128.8,29.6c-0.4-0.1-0.8-0.2-1.2-0.3c-0.1-0.4-0.3-0.8-0.5-1.2
			c0.2-0.4,0.4-0.7,0.6-1l0,0l0,0c-0.5-0.5-1-1-1.5-1.4l0,0l0,0c-0.4,0.2-0.7,0.5-1,0.7c-0.4-0.2-0.8-0.4-1.2-0.5
			c-0.1-0.4-0.2-0.8-0.3-1.2l0,0l0,0c-0.8,0-1.5,0-2,0l0,0l0,0c-0.1,0.5-0.2,0.9-0.2,1.2c-0.4,0.1-0.7,0.3-0.9,0.4
			c-0.1,0.1-0.2,0.1-0.2,0.1c0,0-0.1,0-0.1,0c0,0,0,0,0,0c0,0,0,0,0,0l0,0l0,0c0,0,0,0-0.1,0c0,0-0.1-0.1-0.2-0.1
			c-0.2-0.1-0.4-0.3-0.8-0.5l0,0l0,0c-0.4,0.4-0.8,0.9-1.4,1.5l0,0l0,0c0.2,0.3,0.4,0.7,0.7,1c-0.2,0.4-0.4,0.8-0.5,1.2
			c-0.4,0.1-0.8,0.2-1.2,0.3l0,0l0,0c0,0.6,0,1.3,0,2l0,0l0,0c0.4,0.1,0.8,0.2,1.2,0.2c0.1,0.4,0.3,0.8,0.5,1.2
			c-0.2,0.3-0.4,0.7-0.6,1l0,0l0,0c0.5,0.4,1,0.9,1.5,1.4l0,0l0,0c0.3-0.2,0.7-0.4,1-0.7c0.4,0.2,0.8,0.4,1.2,0.5
			c0.1,0.4,0.2,0.8,0.3,1.2l0,0l0,0c0.6,0,1.3,0,2,0l0,0l0,0c0.1-0.4,0.2-0.8,0.2-1.2c0.4-0.1,0.8-0.3,1.2-0.5
			c0.3,0.2,0.7,0.4,1,0.6l0,0l0,0c0.5-0.5,1-1,1.4-1.5l0,0l0,0c-0.2-0.3-0.4-0.7-0.7-1c0.2-0.4,0.4-0.8,0.5-1.2
			c0.4-0.1,0.8-0.2,1.2-0.3l0,0l0,0C128.8,30.9,128.8,30.3,128.8,29.6z M121.5,28.8c0.3-0.2,0.8-0.4,1.4-0.3c0.3,0,0.6,0.1,0.9,0.3
			c0.3,0.2,0.6,0.5,0.7,0.9c0.1,0.2,0.2,0.4,0.2,0.6c0,0.2,0,0.4,0,0.6c-0.1,0.4-0.3,0.9-0.6,1.2c-0.3,0.3-0.7,0.6-1.2,0.6
			c-0.2,0-0.4,0-0.6,0c-0.2,0-0.4-0.1-0.6-0.2c-0.4-0.2-0.7-0.4-0.9-0.7c-0.2-0.3-0.3-0.6-0.4-0.9c-0.1-0.6,0.1-1.1,0.2-1.4
			c0.2-0.3,0.3-0.4,0.3-0.4C121.1,29.2,121.3,29,121.5,28.8z M120.3,26.3C120.3,26.3,120.3,26.3,120.3,26.3c0,0-0.1,0-0.1,0.1
			C120.2,26.3,120.3,26.3,120.3,26.3z"/>
		<path class="st21" d="M34.9,65.7L34.9,65.7L34.9,65.7c-0.4-0.1-0.8-0.2-1.2-0.3c-0.1-0.4-0.3-0.8-0.5-1.2c0.2-0.4,0.4-0.7,0.6-1
			l0,0l0,0c-0.5-0.5-1-1-1.5-1.4l0,0l0,0c-0.4,0.2-0.7,0.5-1,0.7c-0.4-0.2-0.8-0.4-1.2-0.5c-0.1-0.4-0.2-0.8-0.3-1.2l0,0l0,0
			c-0.8,0-1.5,0-2,0l0,0l0,0c-0.1,0.5-0.2,0.9-0.2,1.2c-0.4,0.1-0.7,0.3-0.9,0.4c-0.1,0.1-0.2,0.1-0.2,0.1c0,0-0.1,0-0.1,0
			c0,0,0,0-0.1,0c0,0-0.1-0.1-0.2-0.1c-0.2-0.1-0.4-0.3-0.8-0.5l0,0l0,0c-0.4,0.4-0.8,0.9-1.4,1.5l0,0l0,0c0.2,0.3,0.4,0.7,0.7,1
			c-0.2,0.4-0.4,0.8-0.5,1.2c-0.4,0.1-0.8,0.2-1.2,0.3l0,0l0,0c0,0.6,0,1.3,0,2l0,0l0,0c0.4,0.1,0.8,0.2,1.2,0.2
			c0.1,0.4,0.3,0.8,0.5,1.2c-0.2,0.3-0.4,0.7-0.6,1l0,0l0,0c0.5,0.4,1,0.9,1.5,1.4l0,0l0,0c0.3-0.2,0.7-0.4,1-0.7
			c0.4,0.2,0.8,0.4,1.2,0.5c0.1,0.4,0.2,0.8,0.3,1.2l0,0l0,0c0.6,0,1.3,0,2,0l0,0l0,0c0.1-0.4,0.2-0.8,0.2-1.2
			c0.4-0.1,0.8-0.3,1.2-0.5c0.3,0.2,0.7,0.4,1,0.6l0,0l0,0c0.5-0.5,1-1,1.4-1.5l0,0l0,0c-0.2-0.3-0.4-0.7-0.7-1
			c0.2-0.4,0.4-0.8,0.5-1.2c0.4-0.1,0.8-0.2,1.2-0.3l0,0l0,0C34.9,67.1,34.9,66.4,34.9,65.7z M27.7,65c0.3-0.2,0.8-0.4,1.4-0.3
			c0.3,0,0.6,0.1,0.9,0.3c0.3,0.2,0.6,0.5,0.7,0.9c0.1,0.2,0.2,0.4,0.2,0.6c0,0.2,0,0.4,0,0.6c-0.1,0.4-0.3,0.9-0.6,1.2
			c-0.3,0.3-0.7,0.6-1.2,0.6c-0.2,0-0.4,0-0.6,0c-0.2,0-0.4-0.1-0.6-0.2c-0.4-0.2-0.7-0.4-0.9-0.7c-0.2-0.3-0.3-0.6-0.4-0.9
			c-0.1-0.6,0.1-1.1,0.2-1.4c0.2-0.3,0.3-0.4,0.3-0.4C27.2,65.3,27.4,65.1,27.7,65z M26.4,62.4C26.4,62.4,26.4,62.4,26.4,62.4
			c0,0-0.1,0-0.1,0.1C26.3,62.4,26.4,62.4,26.4,62.4z"/>
	</g>
	<path class="st21" d="M174.3,21.5L174.3,21.5L174.3,21.5c0-1,0-1.9,0-2.7l0-0.1l-0.1,0c-0.5-0.1-1-0.2-1.5-0.3
		c-0.2-0.5-0.4-1-0.7-1.5c0.3-0.5,0.5-0.9,0.8-1.3l0,0l0,0c-0.7-0.6-1.3-1.3-1.9-1.8l0,0l0,0c-0.5,0.3-0.9,0.6-1.3,0.9
		c-0.5-0.3-1-0.5-1.6-0.6c-0.1-0.6-0.3-1-0.4-1.5l0,0l0,0c-1,0-1.9,0-2.6,0.1l0,0l0,0c-0.1,0.6-0.2,1.1-0.3,1.5
		c-0.6,0.2-0.9,0.4-1.2,0.5c-0.1,0.1-0.2,0.1-0.3,0.2c-0.1,0-0.1,0.1-0.1,0.1c0,0,0,0,0,0c0,0,0,0,0,0l0,0l0,0c0,0,0,0-0.1-0.1
		c-0.1,0-0.1-0.1-0.3-0.2c-0.2-0.1-0.6-0.4-1-0.6l0,0l0,0c-0.5,0.5-1.1,1.1-1.8,1.9l0,0l0,0c0.3,0.4,0.5,0.8,0.9,1.3
		c-0.3,0.5-0.5,1-0.6,1.6c-0.5,0.1-1,0.2-1.5,0.4l0,0l0,0c0,0.8,0,1.7,0,2.6l0,0.1l0,0c0.5,0.1,1,0.2,1.5,0.3c0.1,0.5,0.4,1,0.7,1.5
		c-0.3,0.4-0.5,0.9-0.8,1.3l0,0l0,0c0.6,0.6,1.2,1.2,1.9,1.8l0,0l0.1,0c0.4-0.3,0.8-0.6,1.3-0.8c0.5,0.2,1,0.5,1.5,0.6
		c0.1,0.5,0.2,1,0.4,1.5l0,0.1l0.1,0c0.8,0,1.7,0,2.6,0l0.1,0l0-0.1c0.1-0.5,0.2-1,0.3-1.5c0.5-0.1,1-0.4,1.5-0.7
		c0.4,0.3,0.9,0.5,1.3,0.8l0.1,0l0,0c0.6-0.6,1.2-1.3,1.8-1.9l0,0l0-0.1c-0.3-0.4-0.6-0.9-0.8-1.3c0.3-0.5,0.5-1,0.6-1.5
		C173.3,21.8,173.8,21.7,174.3,21.5z M165,17.8c0.4-0.2,1-0.5,1.8-0.4c0.4,0.1,0.8,0.2,1.2,0.4c0.4,0.3,0.7,0.6,1,1.1
		c0.1,0.2,0.2,0.5,0.2,0.8c0,0.3,0.1,0.5,0,0.8c-0.1,0.6-0.3,1.1-0.7,1.5c-0.4,0.4-1,0.7-1.5,0.8c-0.3,0.1-0.6,0.1-0.8,0
		c-0.3,0-0.5-0.1-0.8-0.2c-0.5-0.2-0.9-0.5-1.1-0.9c-0.3-0.4-0.4-0.8-0.5-1.2c-0.1-0.8,0.1-1.4,0.3-1.8c0.2-0.4,0.4-0.6,0.4-0.6
		C164.5,18.2,164.7,18.1,165,17.8z M163.5,14.5C163.5,14.5,163.5,14.5,163.5,14.5c0,0-0.1,0.1-0.2,0.1
		C163.3,14.6,163.4,14.6,163.5,14.5z"/>
	<path class="st22" d="M35.7,94.4c0,0-0.1,0-0.2-0.1c-0.2-0.1-0.4-0.2-0.6-0.4c-0.6-0.3-1.4-0.8-2.5-1.5l0.1,0
		c-1.1,1.2-2.7,2.8-4.5,4.7l0-0.1c0.7,1,1.4,2.1,2.2,3.3l0,0.1l0,0.1c-0.6,1.2-1.2,2.5-1.5,3.9l0,0.1l-0.1,0
		c-1.2,0.3-2.5,0.6-3.8,0.9l0.1-0.1c0,2,0.1,4.2,0.1,6.5l-0.1-0.2c1.2,0.2,2.5,0.5,3.8,0.8l0.1,0l0,0.1c0.4,1.3,0.9,2.6,1.7,3.8
		l0.1,0.1l-0.1,0.1c-0.6,1-1.3,2.2-2,3.4l0-0.2c1.5,1.4,3.1,2.9,4.7,4.5l-0.2,0c1-0.7,2.1-1.4,3.3-2.2l0.1-0.1l0.1,0.1
		c1.1,0.6,2.5,1.2,3.9,1.5l0.1,0l0,0.1c0.3,1.2,0.6,2.5,0.9,3.8l-0.2-0.1c2.1,0,4.3-0.1,6.5-0.1l-0.2,0.2c0.3-1.2,0.5-2.5,0.8-3.8
		l0-0.1l0.1,0c1.3-0.4,2.6-0.9,3.8-1.7l0,0l0.1-0.1l0.1,0.1c1.1,0.7,2.2,1.4,3.4,2l-0.2,0c1.5-1.6,3-3.1,4.5-4.7l0,0.2
		c-0.7-1.1-1.4-2.2-2.1-3.3l-0.1-0.1l0.1-0.1c0.7-1.2,1.2-2.5,1.5-3.9l0-0.1l0.1,0c1.3-0.3,2.6-0.6,3.8-0.9l-0.1,0.2
		c0-2.2-0.1-4.4-0.1-6.5l0.1,0.2c-1.3-0.3-2.6-0.5-3.8-0.8l-0.1,0l0-0.1c-0.4-1.4-1-2.7-1.7-3.8l-0.1-0.1l0.1-0.1
		c0.7-1.1,1.4-2.3,2-3.4l0,0.2c-1.6-1.6-3.2-3.1-4.7-4.5l0.2,0c-1.2,0.8-2.2,1.5-3.3,2.1l-0.1,0l-0.1,0c-1.3-0.7-2.6-1.2-3.9-1.5
		l-0.1,0l0-0.1c-0.3-1.4-0.6-2.6-0.9-3.8l0.1,0.1c-2.5,0-4.7,0.1-6.5,0.1l0.1-0.1c-0.3,1.5-0.6,2.8-0.8,3.8l0,0l0,0
		c-1.4,0.4-2.3,0.8-3,1.1c-0.3,0.2-0.5,0.3-0.7,0.4C35.8,94.4,35.7,94.4,35.7,94.4c0,0,0.1-0.1,0.2-0.1c0.1-0.1,0.4-0.2,0.7-0.4
		c0.6-0.3,1.6-0.8,3-1.2l0,0c0.2-1,0.5-2.3,0.8-3.8l0-0.1l0.1,0c1.8,0,4-0.1,6.5-0.1l0.1,0l0,0.1c0.3,1.2,0.6,2.4,0.9,3.8l-0.1-0.1
		c1.3,0.3,2.6,0.8,4,1.6l-0.1,0c1-0.7,2.1-1.4,3.3-2.2l0.1-0.1l0.1,0.1c1.5,1.4,3,2.9,4.7,4.5l0.1,0.1l-0.1,0.1
		c-0.7,1.1-1.3,2.2-2,3.4l0-0.2c0.7,1.2,1.3,2.5,1.7,3.9l-0.1-0.1c1.3,0.3,2.5,0.5,3.8,0.8l0.1,0l0,0.1c0,2.1,0.1,4.3,0.1,6.5l0,0.2
		l-0.1,0c-1.3,0.3-2.5,0.6-3.8,0.9l0.1-0.1c-0.3,1.4-0.9,2.7-1.6,4l0-0.2c0.7,1.1,1.4,2.2,2.2,3.3l0.1,0.1l-0.1,0.1
		c-1.5,1.5-3,3.1-4.5,4.7l-0.1,0.1l-0.1-0.1c-1.1-0.7-2.2-1.4-3.4-2l0.2,0l0,0c-1.3,0.8-2.6,1.3-3.9,1.7l0.1-0.2
		c-0.3,1.3-0.5,2.6-0.8,3.8l0,0.2l-0.2,0c-2.2,0-4.4,0.1-6.5,0.1l-0.2,0l0-0.2c-0.3-1.3-0.6-2.6-0.9-3.8l0.1,0.1
		c-1.4-0.4-2.8-0.9-4-1.6l0.2,0c-1.1,0.7-2.3,1.5-3.3,2.1l-0.1,0.1l-0.1-0.1c-1.6-1.6-3.2-3.1-4.7-4.5l-0.1-0.1l0.1-0.1
		c0.7-1.2,1.4-2.3,2-3.4l0,0.2c-0.8-1.3-1.3-2.6-1.7-3.9l0.1,0.1c-1.3-0.3-2.7-0.6-3.8-0.8l-0.1,0l0-0.1c0-2.3-0.1-4.4-0.1-6.5
		l0-0.1l0.1,0c1.3-0.3,2.6-0.6,3.8-0.9l-0.1,0.1c0.4-1.5,0.9-2.8,1.6-4l0,0.1c-0.8-1.2-1.5-2.3-2.1-3.3l0-0.1l0.1-0.1
		c1.8-1.9,3.4-3.5,4.5-4.6l0,0l0,0c1.1,0.7,1.9,1.2,2.5,1.5c0.3,0.2,0.5,0.3,0.6,0.4C35.7,94.4,35.7,94.4,35.7,94.4z"/>
	<path class="st22" d="M39.2,103.1c0,0,0.4-0.5,1.3-1.1c0.9-0.6,2.5-1.3,4.5-1.1c1,0.1,2.1,0.4,3.1,1.1c1,0.7,1.9,1.6,2.5,2.8
		c0.3,0.6,0.5,1.3,0.6,2c0.1,0.7,0.1,1.4,0,2.1c-0.2,1.5-0.9,2.9-1.9,4c-1.1,1.1-2.5,1.8-3.9,2.1c-0.7,0.1-1.4,0.1-2.1,0
		c-0.7-0.1-1.4-0.3-2-0.6c-1.2-0.5-2.2-1.4-2.9-2.4c-0.7-1-1.1-2.1-1.2-3c-0.3-2,0.3-3.6,0.9-4.6C38.7,103.4,39.2,103.1,39.2,103.1
		c0,0-0.4,0.5-1,1.4c-0.5,0.9-1.1,2.5-0.8,4.5c0.2,1,0.5,2,1.2,2.9c0.7,0.9,1.6,1.8,2.8,2.3c0.6,0.3,1.2,0.4,1.9,0.5
		c0.7,0.1,1.3,0.1,2,0c1.4-0.2,2.7-0.9,3.7-2c1-1.1,1.7-2.4,1.8-3.8c0.1-0.7,0.1-1.4,0-2c-0.1-0.7-0.3-1.3-0.6-1.9
		c-0.5-1.2-1.4-2.1-2.3-2.7c-0.9-0.6-2-1-2.9-1.1c-1.9-0.2-3.5,0.4-4.4,0.9C39.6,102.6,39.2,103.1,39.2,103.1z"/>
	<path class="st20" d="M160.6,38.8L160.6,38.8l0.1-0.1c-0.4-1.5-0.7-2.9-1-4.2l0-0.1l-0.1,0c-0.9,0-1.8,0-2.6,0.1
		c-0.5-0.9-1-1.6-1.6-2.2c0.3-0.9,0.6-1.7,0.8-2.5l0-0.1l-0.1,0c-1.5-0.9-2.7-1.6-3.7-2.2l0,0l0,0c-0.7,0.8-1.3,1.4-1.8,1.9
		c-0.9-0.3-1.6-0.3-2.1-0.4c-0.2,0-0.4,0-0.5,0c-0.1,0-0.2,0-0.2,0c0,0,0,0,0,0c0,0,0,0,0,0l0,0l0,0c0,0,0-0.1-0.1-0.2
		c-0.1-0.1-0.1-0.3-0.2-0.5c-0.2-0.4-0.5-1-0.9-1.8l0,0l0,0c-1.1,0.3-2.5,0.6-4.2,1l-0.1,0l0,0.1c0,0.8,0,1.7,0,2.6
		c-0.8,0.4-1.5,1-2.2,1.6c-0.8-0.3-1.6-0.5-2.5-0.8l-0.1,0l0,0.1c-0.7,1.2-1.5,2.4-2.3,3.7l0,0.1l0.1,0.1c0.6,0.6,1.2,1.2,1.9,1.8
		c-0.2,0.8-0.4,1.7-0.4,2.7c-0.7,0.4-1.5,0.7-2.3,1.1l-0.1,0l0,0.1c0.3,1.3,0.7,2.8,1,4.2l0,0.1l0.1,0c0.8,0,1.7,0,2.6,0
		c0.4,0.7,1,1.5,1.6,2.2c-0.3,0.8-0.5,1.6-0.8,2.4l0,0.1l0.1,0.1c1.2,0.7,2.4,1.5,3.7,2.3l0.1,0.1l0.1-0.1c0.6-0.6,1.2-1.2,1.8-1.8
		c0.8,0.2,1.8,0.4,2.7,0.4c0.4,0.8,0.8,1.5,1.1,2.3l0,0.1l0.1,0c1.4-0.4,2.8-0.7,4.2-1l0.1,0l0-0.1c0-0.9,0-1.7,0-2.6
		c0.8-0.4,1.5-1,2.2-1.6c0.8,0.3,1.6,0.5,2.4,0.8l0.1,0l0.1-0.1c0.8-1.3,1.5-2.5,2.3-3.7l0.1-0.1l-0.1-0.1c-0.6-0.6-1.2-1.2-1.9-1.8
		c0.3-0.9,0.4-1.8,0.4-2.7C159.1,39.6,159.9,39.2,160.6,38.8z M147.7,35c0.7,0,1.8,0.2,2.9,1.1c0.5,0.4,1,1,1.3,1.7
		c0.3,0.7,0.5,1.5,0.4,2.4c0,0.4-0.2,0.9-0.3,1.3c-0.2,0.4-0.4,0.8-0.7,1.2c-0.6,0.7-1.4,1.3-2.4,1.5c-1,0.2-2,0.1-2.8-0.2
		c-0.4-0.2-0.8-0.4-1.2-0.7c-0.3-0.3-0.6-0.6-0.9-1c-0.5-0.7-0.7-1.5-0.8-2.3c-0.1-0.8,0.1-1.5,0.4-2.1c0.5-1.2,1.4-1.9,2-2.3
		c0.6-0.4,1.1-0.4,1.1-0.5C146.5,35.1,146.9,35,147.7,35z M148.3,29C148.4,29,148.4,29,148.3,29c-0.1,0-0.2,0-0.4,0
		C148.1,29,148.2,29,148.3,29z"/>
	<g>
		<g>
			<g>
				<g>
					<g>
						<path class="st22" d="M159.9,112.1c0,0,0.4-0.2,1.2-0.2c0.7,0,1.9,0.2,3,1c0.5,0.4,1,1,1.4,1.7c0.3,0.7,0.5,1.6,0.4,2.5
							c0,0.5-0.2,0.9-0.3,1.4c-0.2,0.4-0.4,0.9-0.8,1.2c-0.6,0.8-1.5,1.3-2.6,1.6c-1,0.2-2.1,0.2-3-0.2c-0.5-0.2-0.9-0.4-1.2-0.8
							c-0.4-0.3-0.7-0.7-0.9-1c-0.5-0.8-0.7-1.6-0.8-2.4c0-0.8,0.1-1.6,0.4-2.2c0.6-1.3,1.5-2,2.2-2.3
							C159.5,112.1,159.9,112.1,159.9,112.1c0,0-0.4,0.1-1.1,0.5c-0.6,0.3-1.5,1.1-2.1,2.3c-0.3,0.6-0.4,1.3-0.4,2.1
							c0.1,0.8,0.3,1.6,0.8,2.3c0.2,0.4,0.5,0.7,0.9,1c0.3,0.3,0.7,0.5,1.2,0.7c0.9,0.4,1.9,0.4,2.9,0.2c1-0.2,1.8-0.8,2.4-1.5
							c0.3-0.4,0.5-0.8,0.7-1.2c0.2-0.4,0.3-0.8,0.3-1.3c0.1-0.9-0.1-1.7-0.4-2.4c-0.3-0.7-0.8-1.3-1.3-1.7c-1-0.8-2.1-1.1-2.9-1.1
							C160.3,112,159.9,112.1,159.9,112.1z"/>
					</g>
				</g>
			</g>
			<g>
				<g>
					<g>
						<path class="st22" d="M161,105.9c0,0,0,0-0.1-0.1c-0.1-0.1-0.1-0.3-0.2-0.4c-0.2-0.4-0.5-1-0.9-1.8l0,0
							c-1.1,0.3-2.5,0.6-4.3,1.1l0.1-0.1c0,0.8,0,1.7,0.1,2.7l0,0l0,0c-0.8,0.4-1.6,1-2.3,1.7l0,0l-0.1,0c-0.8-0.3-1.6-0.5-2.5-0.8
							l0.1,0c-0.7,1.2-1.5,2.4-2.3,3.8l0-0.1c0.6,0.6,1.2,1.2,1.9,1.8l0,0l0,0.1c-0.2,0.8-0.4,1.8-0.4,2.8l0,0.1l-0.1,0
							c-0.7,0.4-1.6,0.8-2.4,1.2l0.1-0.1c0.3,1.3,0.7,2.8,1.1,4.3l-0.1-0.1c0.8,0,1.7,0,2.7,0l0.1,0l0,0.1c0.4,0.8,1,1.6,1.7,2.3
							l0.1,0.1l0,0.1c-0.3,0.8-0.6,1.7-0.8,2.5l-0.1-0.2c1.2,0.7,2.5,1.5,3.8,2.3l-0.2,0c0.6-0.6,1.2-1.3,1.8-1.9l0.1-0.1l0.1,0
							c0.9,0.3,1.8,0.4,2.8,0.4l0,0l0.1,0l0,0.1c0.4,0.8,0.8,1.6,1.2,2.4l-0.2-0.1c1.4-0.4,2.9-0.7,4.3-1l-0.1,0.1
							c0-0.9,0-1.8,0-2.7l0-0.1l0.1,0c0.8-0.5,1.6-1,2.3-1.7l0.1-0.1l0.1,0c0.9,0.3,1.7,0.6,2.5,0.8l-0.2,0.1
							c0.8-1.3,1.5-2.5,2.3-3.8l0,0.2c-0.6-0.6-1.3-1.2-1.9-1.9l-0.1-0.1l0-0.1c0.3-0.9,0.4-1.9,0.4-2.8l0-0.1l0.1,0
							c0.8-0.4,1.6-0.8,2.4-1.2l-0.1,0.1c-0.4-1.5-0.7-2.9-1-4.3l0.1,0.1c-0.9,0-1.8,0-2.7,0l-0.1,0l0-0.1c-0.5-0.9-1.1-1.7-1.7-2.3
							l0,0l0-0.1c0.3-0.9,0.6-1.7,0.9-2.5l0,0.1c-1.5-0.9-2.7-1.7-3.8-2.3l0.1,0c-0.7,0.8-1.4,1.4-1.9,1.9l0,0l0,0
							c-0.9-0.3-1.6-0.4-2.1-0.4c-0.2,0-0.4,0-0.5,0C161.1,105.9,161,105.9,161,105.9c0,0,0.1,0,0.2,0c0.1,0,0.3,0,0.5,0
							c0.5,0,1.2,0.1,2.1,0.4l0,0c0.5-0.5,1.1-1.2,1.8-1.9l0,0l0,0c1.1,0.6,2.3,1.4,3.8,2.3l0.1,0l0,0.1c-0.3,0.8-0.5,1.6-0.8,2.5
							l0-0.1c0.6,0.7,1.2,1.4,1.7,2.3l-0.1-0.1c0.8,0,1.7,0,2.7-0.1l0.1,0l0,0.1c0.3,1.4,0.7,2.8,1.1,4.3l0,0.1l-0.1,0
							c-0.8,0.4-1.6,0.8-2.4,1.2l0.1-0.1c0,0.9-0.2,1.9-0.4,2.9l0-0.1c0.6,0.6,1.3,1.2,1.9,1.8l0.1,0.1l-0.1,0.1
							c-0.7,1.2-1.5,2.5-2.3,3.8l-0.1,0.1l-0.1,0c-0.8-0.3-1.7-0.6-2.5-0.8l0.1,0c-0.7,0.7-1.5,1.3-2.3,1.7l0.1-0.1
							c0,0.9,0,1.8,0,2.7l0,0.1l-0.1,0c-1.4,0.3-2.8,0.7-4.3,1.1l-0.1,0l0-0.1c-0.4-0.8-0.8-1.6-1.2-2.4l0.1,0.1l0,0
							c-1,0-2-0.2-2.9-0.4l0.1,0c-0.6,0.7-1.3,1.3-1.9,1.9l-0.1,0.1l-0.1-0.1c-1.3-0.8-2.6-1.6-3.8-2.3l-0.1-0.1l0-0.1
							c0.3-0.9,0.6-1.7,0.8-2.5l0,0.1c-0.7-0.7-1.3-1.5-1.7-2.3l0.1,0.1c-0.9,0-1.8,0-2.7,0l-0.1,0l0-0.1c-0.4-1.5-0.7-2.9-1-4.3
							l0-0.1l0.1,0c0.8-0.4,1.6-0.8,2.4-1.2l-0.1,0.1c0-1,0.2-2,0.4-2.9l0,0.1c-0.7-0.6-1.3-1.3-1.9-1.9l-0.1-0.1l0-0.1
							c0.8-1.3,1.6-2.6,2.3-3.8l0-0.1l0.1,0c0.9,0.3,1.7,0.6,2.5,0.9l-0.1,0c0.7-0.7,1.5-1.3,2.3-1.7l0,0.1c0-1,0-1.9,0-2.7l0-0.1
							l0.1,0c1.7-0.4,3.2-0.8,4.3-1l0,0l0,0c0.4,0.8,0.7,1.4,0.9,1.8c0.1,0.2,0.2,0.3,0.2,0.5C161,105.8,161,105.9,161,105.9z"/>
					</g>
				</g>
			</g>
		</g>
	</g>
	<g>
		<g>
			<g>
				<g>
					<g>
						<g>
							<g>
								<g>
									<polygon class="st21" points="26.4,168.5 26.4,182 46.2,182 47,182 46.2,168.5 									"/>
								</g>
							</g>
						</g>
						<g>
							<g>
								<g>
									<g>
										<g>
											<polygon class="st21" points="20,185.8 20,199.3 39.7,199.3 40.6,199.3 39.8,185.8 											"/>
										</g>
									</g>
								</g>
							</g>
						</g>
					</g>
				</g>
			</g>
			<g>
				<g>
					<polygon class="st20" points="46.2,164.7 24.6,164.7 24.6,168.5 26.4,168.5 46.2,168.5 47,182 18.2,182 18.2,185.8 39.8,185.8 
						40.6,199.3 61.6,199.4 61.6,185.8 63,185.8 63,182 68,182 68,168.5 69.4,168.5 69.4,164.7 					"/>
				</g>
			</g>
			<g>
				<g>
					<g>
						<g>
							<g>
								<g>
									<rect x="31.1" y="175.3" class="st2" width="10.8" height="4.3"/>
								</g>
							</g>
						</g>
					</g>
				</g>
			</g>
		</g>
		<rect x="25.8" y="188" class="st20" width="8.4" height="2"/>
		<g>
			<g>
				<g>
					<g>
						<g>
							<g>
								<rect x="24.7" y="192.6" class="st2" width="10.8" height="4.3"/>
							</g>
						</g>
					</g>
				</g>
			</g>
		</g>
		<rect x="32.2" y="170.7" class="st20" width="8.4" height="2"/>
	</g>
</g>
</svg>
