<?xml version="1.0" encoding="utf-8"?>
<!-- Generator: Adobe Illustrator 23.0.1, SVG Export Plug-In . SVG Version: 6.00 Build 0)  -->
<svg version="1.1" id="Layer_1" xmlns="http://www.w3.org/2000/svg" xmlns:xlink="http://www.w3.org/1999/xlink" x="0px" y="0px"
	 width="25.2px" height="11.9px" viewBox="0 0 25.2 11.9" style="enable-background:new 0 0 25.2 11.9;" xml:space="preserve">
<style type="text/css">
	.st0{fill:#ff5b4a;}
</style>
<path class="st0" d="M24.8,5.3l-9-5.2C15.6,0,15.3,0,15,0.1c-0.2,0.1-0.4,0.4-0.4,0.6v4.4H0.8C0.3,5.2,0,5.5,0,5.9s0.3,0.8,0.8,0.8
	h13.9v4.4c0,0.3,0.1,0.5,0.4,0.6c0.1,0.1,0.2,0.1,0.4,0.1s0.3,0,0.4-0.1l9-5.2c0.2-0.1,0.4-0.4,0.4-0.6S25,5.4,24.8,5.3z M16.2,9.8
	V2L23,5.9L16.2,9.8z"/>
</svg>
