<?xml version="1.0" encoding="utf-8"?>
<!-- Generator: Adobe Illustrator 23.0.1, SVG Export Plug-In . SVG Version: 6.00 Build 0)  -->
<svg version="1.1" id="Layer_1" xmlns="http://www.w3.org/2000/svg" xmlns:xlink="http://www.w3.org/1999/xlink" x="0px" y="0px"
	 width="190px" height="150px" viewBox="0 0 190 150" style="enable-background:new 0 0 190 150;" xml:space="preserve">
<style type="text/css">
	.st0{fill-rule:evenodd;clip-rule:evenodd;fill:#E06657;}
	.st1{fill:#FFFFFF;}
	.st2{fill:#661C11;}
	.st3{fill:#263238;}
	.st4{fill:none;stroke:#4E585D;stroke-width:5.000000e-02;stroke-miterlimit:10;}
	.st5{fill:#E06657;}
	.st6{fill:#EFC1BB;}
	.st7{fill:#9F1C0E;}
	.st8{fill:#BD3A2B;}
	.st9{fill:#6F1508;}
	.st10{fill:#941808;}
	.st11{fill:#EDB6AF;}
	.st12{fill:#E4867B;}
	.st13{fill:#FFBE9D;}
	.st14{fill:#7D1608;}
	.st15{fill:#FAFAFA;}
	.st16{opacity:0.6;}
	.st17{fill:#A82517;}
	.st18{fill:#A92618;}
	.st19{fill:#AC2A1C;}
	.st20{fill:#FBF2F1;}
	.st21{fill:#F4D4CF;}
	.st22{fill:#F8E6E4;}
</style>
<g>
	<g id="Processing">
		<g>
			<g>
				<g>
					<g>
						<path class="st0" d="M40.9,11.9c1.2-0.7,2.5-1.3,3.9-1.6l0.8-3.8L52,6.3l0.9,3.8c1.3,0.4,2.7,0.8,3.9,1.6L60,9.6l4.6,4.5
							l-2,3.3c0.7,1.2,1.3,2.5,1.6,3.9l3.8,0.8l0.1,6.4l-3.8,0.9c-0.4,1.3-0.8,2.7-1.6,3.9l2.1,3.3L60.4,41l-3.3-2
							c-1.2,0.7-2.5,1.3-3.9,1.6l-0.8,3.8l-6.4,0.1l-0.9-3.8c-1.3-0.4-2.7-0.8-3.9-1.6L38,41.2l-4.6-4.5l2-3.3
							c-0.7-1.2-1.3-2.5-1.6-3.9l-3.7-0.7L30,22.5l3.8-0.9c0.4-1.3,0.8-2.7,1.6-3.9l-2.1-3.3l4.5-4.6L40.9,11.9L40.9,11.9z"/>
					</g>
				</g>
			</g>
			<g>
				<g>
					<g>
						<path class="st1" d="M52.8,23.5c0,0,0-0.5-0.2-1.3c-0.1-0.4-0.3-0.9-0.6-1.5c-0.3-0.5-0.7-1.1-1.4-1.6c-0.6-0.4-1.4-0.9-2.3-1
							s-1.9-0.1-2.9,0.2c-0.5,0.1-1,0.4-1.4,0.7c-0.2,0.1-0.4,0.4-0.6,0.5c-0.1,0.2-0.4,0.4-0.5,0.7c-0.7,0.9-1,2-1,3.2
							c0,1.2,0.4,2.3,1,3.2c0.1,0.2,0.4,0.4,0.5,0.7c0.2,0.1,0.4,0.4,0.6,0.5c0.4,0.3,0.9,0.6,1.4,0.7c1,0.4,2,0.4,2.9,0.2
							c0.9-0.1,1.7-0.5,2.3-1c0.6-0.4,1.1-1,1.4-1.6c0.3-0.5,0.5-1,0.6-1.5C52.8,24,52.8,23.5,52.8,23.5S52.8,23.5,52.8,23.5
							c0,0.1,0,0.2,0,0.4c0,0.1,0,0.3,0,0.4s-0.1,0.4-0.1,0.6c-0.1,0.4-0.3,1-0.6,1.5c-0.3,0.5-0.7,1.1-1.4,1.6
							c-0.6,0.4-1.4,0.9-2.4,1c-0.9,0.1-1.9,0.1-3-0.2c-0.5-0.1-1-0.4-1.4-0.7c-0.2-0.1-0.4-0.4-0.7-0.5c-0.2-0.2-0.4-0.4-0.5-0.7
							c-0.7-0.9-1.1-2.1-1.1-3.3c0-1.2,0.4-2.4,1.1-3.3c0.1-0.2,0.4-0.4,0.5-0.7c0.2-0.2,0.4-0.4,0.7-0.5c0.4-0.3,0.9-0.6,1.4-0.7
							c1-0.4,2-0.4,3-0.2c0.9,0.1,1.7,0.6,2.4,1c0.7,0.5,1.1,1,1.4,1.6c0.3,0.5,0.5,1,0.6,1.5c0.1,0.2,0.1,0.4,0.1,0.6
							c0,0.1,0,0.3,0,0.4C52.8,23.3,52.8,23.5,52.8,23.5C52.8,23.5,52.8,23.5,52.8,23.5z"/>
					</g>
				</g>
				<g>
					<g>
						<path class="st1" d="M51,27.6c0,0,1.3,1.1,2.7,2.6c1.5,1.5,2.6,2.7,2.6,2.7s-1.3-1.1-2.7-2.6C52.2,28.8,51,27.6,51,27.6z"/>
					</g>
				</g>
			</g>
		</g>
		<g>
			<g>
				<g>
					<g>
						<path class="st0" d="M84.7,36.1c1.6-1,3.2-1.6,4.9-2.2l1-4.8l8.3-0.1l1.2,4.8c1.7,0.4,3.4,1.1,5,2l4.2-2.7l5.9,5.7l-2.6,4.2
							c1,1.6,1.6,3.2,2.2,4.9l4.8,1l0.1,8.3l-4.8,1.2c-0.4,1.7-1.1,3.4-2,5l2.7,4.2l-5.7,5.9l-4.2-2.6c-1.6,1-3.2,1.6-4.9,2.2
							l-1,4.8L91.4,78l-1.2-4.8c-1.7-0.4-3.4-1.1-5-2l-4.2,2.7l-5.9-5.7l2.6-4.2c-1-1.6-1.6-3.2-2.2-4.9l-4.8-1l-0.1-8.2l4.8-1.2
							c0.4-1.7,1.1-3.4,2-5l-2.7-4.2l5.7-5.9L84.7,36.1L84.7,36.1z"/>
					</g>
				</g>
			</g>
			<g>
				<g>
					<g>
						<path class="st1" d="M92.4,62.1C92.4,62.1,92.4,62.1,92.4,62.1c0.1,0,0.2,0,0.4,0c0.2,0,0.6,0,1.1,0c1,0,2.3,0,4,0l-0.1,0.1
							c0-0.7,0-1.5-0.1-2.3v-0.1l0,0c1.2-0.5,2.4-1.3,3.4-2.4c0.5-0.5,1-1.2,1.4-1.9c0.4-0.7,0.7-1.5,0.8-2.4
							c0.2-1.7-0.1-3.6-1.3-5.2c-1-1.6-2.6-2.9-4.5-3.6c-1.4-0.5-2.9-0.6-4.3-0.3c-1.4,0.3-2.7,0.9-3.7,1.7c-1,0.8-1.8,2-2.2,3.1
							c-0.1,0.3-0.2,0.6-0.3,0.9c-0.1,0.3-0.1,0.6-0.2,0.9c-0.1,0.6-0.1,1.2-0.1,1.7c0,0.6,0.1,1.1,0.2,1.6c0.1,0.5,0.3,1,0.5,1.5
							c0.4,0.9,1,1.6,1.6,2.2c1.2,1.2,2.5,1.9,3.3,2.3l0,0l0,0c-0.1,0.6-0.1,1.1-0.1,1.4c0,0.1,0,0.3,0,0.4
							C92.4,62,92.4,62.1,92.4,62.1s0-0.1,0-0.1c0-0.1,0-0.2,0-0.4c0-0.4,0-0.8,0.1-1.5l0,0c-0.9-0.4-2.2-1-3.4-2.3
							c-0.6-0.6-1.2-1.3-1.6-2.3c-0.2-0.4-0.4-1-0.5-1.5c-0.1-0.5-0.2-1.1-0.2-1.6c0-0.6,0.1-1.2,0.1-1.8c0.1-0.3,0.1-0.6,0.2-0.9
							c0.1-0.3,0.2-0.6,0.3-0.9c0.4-1.2,1.3-2.3,2.3-3.2c1-0.9,2.4-1.5,3.8-1.8c1.4-0.3,3-0.2,4.4,0.3c1.9,0.7,3.6,2.1,4.6,3.6
							c0.5,0.8,0.9,1.7,1.1,2.6c0.1,0.2,0.1,0.4,0.1,0.7c0,0.2,0.1,0.4,0.1,0.7s0,0.4,0,0.7c0,0.2-0.1,0.4-0.1,0.7
							c-0.1,0.9-0.4,1.7-0.8,2.4c-0.4,0.7-0.9,1.3-1.5,1.9c-1.1,1-2.3,1.9-3.5,2.4v-0.1c0,0.8,0,1.6,0.1,2.3v0.1h-0.1
							c-1.7,0-3.1,0-4.1,0c-0.4,0-0.8,0-1,0c-0.1,0-0.2,0-0.3,0C92.4,62.1,92.4,62.1,92.4,62.1z"/>
					</g>
				</g>
				<g>
					<g>
						<path class="st1" d="M98,63.6c0,0.1-1.3,0.1-2.8,0.1s-2.8,0-2.8-0.1c0-0.1,1.3-0.1,2.8-0.1C96.7,63.5,98,63.6,98,63.6z"/>
					</g>
				</g>
				<g>
					<g>
						<path class="st1" d="M96.1,65.7c0,0.1-0.4,0.1-1,0.1c-0.6,0-1-0.1-1-0.1c0-0.1,0.4,0,1,0C95.7,65.7,96.1,65.6,96.1,65.7z"/>
					</g>
				</g>
				<g>
					<g>
						<path class="st1" d="M93.5,62.1C93.5,62.1,93.5,62.1,93.5,62.1c0-0.1,0-0.2,0-0.4c0-0.2,0-0.6,0-1c0-0.9,0.1-2.2,0.1-3.9
							c0-0.8,0.1-1.7,0.1-2.7c0-0.2,0-0.4-0.1-0.7s-0.3-0.4-0.5-0.3c-0.2,0.1-0.4,0.3-0.4,0.5c-0.1,0.2,0,0.5,0.1,0.7
							c0.2,0.4,0.7,0.7,1.3,0.8s1.1-0.1,1.5-0.6s0.6-1,0.6-1.6c0-0.3,0-0.6-0.1-0.8c-0.1-0.2-0.4-0.4-0.7-0.3
							c-0.2,0.1-0.4,0.4-0.3,0.7c0.1,0.3,0.2,0.5,0.4,0.7c0.4,0.4,0.8,0.9,1.3,1c0.3,0.1,0.5,0.1,0.8,0.1c0.3-0.1,0.5-0.1,0.7-0.3
							c0.2-0.1,0.4-0.4,0.4-0.6c0.1-0.2,0.1-0.5-0.1-0.7c-0.1-0.2-0.3-0.4-0.5-0.4s-0.4,0.1-0.6,0.4c-0.3,0.4-0.3,0.9-0.4,1.4
							c-0.1,1-0.1,1.9-0.2,2.7c-0.1,1.6-0.2,2.9-0.2,3.9c0,0.4-0.1,0.8-0.1,1c0,0.1,0,0.2,0,0.3c0,0.1,0,0.1,0,0.1s0,0,0-0.1
							c0-0.1,0-0.1,0-0.3c0-0.2,0-0.6,0.1-1c0.1-0.9,0.1-2.2,0.2-3.9c0.1-0.8,0.1-1.7,0.2-2.7c0-0.2,0.1-0.4,0.1-0.7
							c0.1-0.2,0.1-0.5,0.3-0.7c0.1-0.2,0.4-0.4,0.7-0.4c0.3,0,0.6,0.2,0.7,0.4c0.1,0.2,0.1,0.6,0.1,0.9c-0.1,0.3-0.3,0.5-0.5,0.7
							c-0.2,0.1-0.5,0.3-0.8,0.4s-0.6,0-0.9-0.1c-0.6-0.2-1-0.6-1.4-1.1c-0.2-0.2-0.4-0.5-0.4-0.8c-0.1-0.3,0.1-0.7,0.4-0.9
							c0.4-0.1,0.7,0.1,0.9,0.4s0.2,0.6,0.2,1c0,0.6-0.2,1.3-0.7,1.7c-0.4,0.4-1,0.7-1.6,0.7c-0.6-0.1-1.1-0.4-1.4-1
							c-0.1-0.2-0.1-0.5-0.1-0.8c0.1-0.3,0.2-0.5,0.5-0.6c0.1,0,0.3,0,0.4,0.1c0.1,0.1,0.2,0.2,0.2,0.3c0.1,0.2,0.1,0.5,0.1,0.7
							c0,1-0.1,1.9-0.1,2.7c-0.1,1.6-0.1,2.9-0.1,3.9c0,0.4,0,0.8-0.1,1C93.5,62,93.5,62.1,93.5,62.1C93.5,62,93.5,62.1,93.5,62.1z"
							/>
					</g>
				</g>
				<g>
					<g>
						<path class="st1" d="M97.4,64.7c0,0.1-1,0.1-2.3,0.1c-1.3,0-2.3-0.1-2.3-0.1c0-0.1,1-0.1,2.3-0.1
							C96.4,64.6,97.4,64.6,97.4,64.7z"/>
					</g>
				</g>
			</g>
		</g>
		<g>
			<g>
				<g>
					<g>
						<g>
							<path class="st0" d="M138.8,49.2c1-0.6,2.1-1.1,3.2-1.4l0.6-3.2l5.4-0.1l0.8,3.1c1.1,0.3,2.2,0.7,3.3,1.3l2.7-1.8l3.9,3.6
								l-1.7,2.8c0.6,1,1.1,2.1,1.4,3.2l3.2,0.6l0.1,5.4l-3.1,0.8c-0.3,1.1-0.7,2.2-1.3,3.3l1.8,2.7l-3.6,3.9l-2.8-1.6
								c-1,0.6-2.1,1.1-3.2,1.4l-0.6,3.2l-5.4,0.1l-0.8-3.1c-1.1-0.3-2.2-0.7-3.3-1.3l-2.7,1.8l-3.9-3.6l1.6-2.8
								c-0.6-1-1.1-2.1-1.4-3.2l-3.2-0.6l-0.1-5.4l3.1-0.8c0.3-1.1,0.7-2.2,1.3-3.3l-1.8-2.7l3.6-3.9L138.8,49.2L138.8,49.2z"/>
						</g>
					</g>
				</g>
			</g>
			<g>
				<g>
					<g>
						<path class="st1" d="M152.8,66.2c0,0-0.1,0-0.2,0s-0.4,0-0.7,0c-0.7,0-1.6,0-2.8,0c-2.3,0-5.5,0-9,0c-0.2,0-0.4,0-0.7,0h-0.1
							v-0.1c0-3.3,0-6.4,0-8.6c0-1,0-1.9,0-2.6c0-0.3,0-0.5,0-0.7c0-0.1,0-0.2,0-0.2s0,0.1,0,0.2c0,0.1,0,0.4,0,0.7
							c0,0.6,0,1.5,0,2.6c0,2.2,0,5.2,0,8.6l-0.1-0.1c0.2,0,0.4,0,0.7,0c3.5,0,6.7,0,9,0c1.1,0,2.1,0,2.8,0c0.3,0,0.5,0,0.7,0
							C152.8,66.2,152.8,66.2,152.8,66.2z"/>
					</g>
				</g>
				<g>
					<g>
						<path class="st1" d="M151.4,57c0,0-0.1,0.1-0.4,0.4c-0.3,0.2-0.7,0.6-1.1,1c-1,0.8-2.3,2-3.8,3.2l-0.2,0.2l-0.1,0.1l-0.1-0.1
							c-0.6-0.5-1.2-1-1.7-1.6h0.1c-1,0.8-1.9,1.5-2.5,2c-0.3,0.2-0.5,0.4-0.7,0.6c-0.1,0.1-0.3,0.2-0.3,0.2s0.1-0.1,0.2-0.2
							c0.1-0.1,0.4-0.4,0.7-0.6c0.6-0.5,1.5-1.3,2.5-2.1l0.1-0.1l0.1,0.1c0.5,0.4,1.1,1,1.7,1.6h-0.1l0.2-0.2
							c1.5-1.3,2.8-2.4,3.8-3.2c0.4-0.4,0.9-0.7,1.2-1C151.2,57.1,151.4,57,151.4,57z"/>
					</g>
				</g>
				<g>
					<g>
						<path class="st1" d="M151.4,59.8c0,0-0.1-0.3-0.1-0.8c0-0.5,0-1.3,0-2l0.1,0.1c-0.1,0-0.1,0-0.1,0c-0.8,0-1.6,0-2.2,0
							c-0.5,0-0.9,0-0.9-0.1c0,0,0.4-0.1,0.9-0.1c0.5,0,1.3,0,2.2,0c0.1,0,0.1,0,0.1,0h0.1v0.1c0,0.8,0,1.5,0,2
							C151.4,59.5,151.4,59.8,151.4,59.8z"/>
					</g>
				</g>
			</g>
		</g>
		<g>
			<g>
				<g>
					<path class="st2" d="M65,66.6c-0.1,0-0.2-0.4-0.4-0.9c-0.1-0.5-0.3-1-0.2-1c0.1,0,0.2,0.4,0.4,0.9C64.9,66.2,65.1,66.6,65,66.6
						z"/>
				</g>
			</g>
			<g>
				<g>
					<path class="st2" d="M68.5,73.6c-0.1,0-0.6-0.7-1.1-1.6s-0.9-1.7-0.8-1.8c0.1,0,0.4,0.7,1,1.7C68.1,72.9,68.5,73.6,68.5,73.6z"
						/>
				</g>
			</g>
			<g>
				<g>
					<path class="st2" d="M73.6,79.5c0,0-0.7-0.5-1.5-1.3s-1.3-1.5-1.3-1.5s0.6,0.6,1.4,1.4C73,78.9,73.6,79.5,73.6,79.5z"/>
				</g>
			</g>
			<g>
				<g>
					<path class="st3" d="M80,83.9c0,0.1-0.8-0.3-1.8-0.8c-1-0.5-1.6-1-1.6-1.1s0.7,0.4,1.7,1C79.3,83.4,80,83.9,80,83.9z"/>
				</g>
			</g>
			<g>
				<g>
					<path class="st3" d="M87.5,86.2c0,0.1-0.9-0.1-1.9-0.3c-1-0.3-1.9-0.6-1.9-0.6c0-0.1,0.9,0.1,1.9,0.4
						C86.6,86,87.5,86.2,87.5,86.2z"/>
				</g>
			</g>
			<g>
				<g>
					<path class="st3" d="M95.2,86.5c0,0.1-0.9,0.1-1.9,0.2c-1.1,0.1-1.9,0-1.9-0.1c0-0.1,0.9-0.1,1.9-0.1
						C94.4,86.5,95.2,86.4,95.2,86.5z"/>
				</g>
			</g>
			<g>
				<g>
					<path class="st2" d="M102.9,84.8c0,0.1-0.8,0.4-1.9,0.7c-1,0.3-1.9,0.4-1.9,0.4s0.8-0.3,1.9-0.5C102,85,102.9,84.7,102.9,84.8z
						"/>
				</g>
			</g>
			<g>
				<g>
					<path class="st2" d="M109.9,81.4c0,0.1-0.7,0.5-1.6,1c-1,0.5-1.8,0.8-1.8,0.8c0-0.1,0.7-0.4,1.7-1
						C109.1,81.9,109.9,81.4,109.9,81.4z"/>
				</g>
			</g>
			<g>
				<g>
					<path class="st2" d="M116,76.6c0,0-0.5,0.7-1.3,1.4c-0.8,0.7-1.5,1.3-1.6,1.2c0-0.1,0.7-0.6,1.4-1.3
						C115.3,77.1,116,76.5,116,76.6z"/>
				</g>
			</g>
			<g>
				<g>
					<path class="st2" d="M120.3,70c0.1,0-0.3,0.8-0.8,1.8c-0.5,1-1,1.6-1.1,1.6s0.4-0.7,1-1.7C119.8,70.8,120.3,70,120.3,70z"/>
				</g>
			</g>
			<g>
				<g>
					<path class="st2" d="M122.9,62.7c0.1,0-0.2,0.9-0.5,1.9c-0.4,1-0.7,1.9-0.7,1.9c-0.1,0,0.2-0.9,0.5-1.9
						C122.6,63.6,122.9,62.7,122.9,62.7z"/>
				</g>
			</g>
			<g>
				<g>
					<path class="st2" d="M125.5,55.3c0.1,0-0.2,0.8-0.6,1.9c-0.4,1-0.7,1.9-0.7,1.8c-0.1,0,0.2-0.8,0.6-1.9c0.1-0.5,0.4-1,0.5-1.3
						C125.3,55.5,125.4,55.3,125.5,55.3z"/>
				</g>
			</g>
			<g>
				<g>
					<path class="st2" d="M128.9,48.3c0.1,0-0.4,0.7-0.9,1.7c-0.5,1-1,1.7-1,1.7c-0.1,0,0.3-0.8,0.8-1.8
						C128.4,49,128.9,48.3,128.9,48.3z"/>
				</g>
			</g>
			<g>
				<g>
					<path class="st2" d="M134.1,42.6c0,0.1-0.7,0.6-1.4,1.3c-0.8,0.7-1.4,1.3-1.4,1.3s0.5-0.7,1.3-1.5
						C133.4,43,134.1,42.5,134.1,42.6z"/>
				</g>
			</g>
			<g>
				<g>
					<path class="st2" d="M141.2,39.2c0,0.1-0.8,0.3-1.9,0.7c-1,0.4-1.8,0.7-1.9,0.7c0-0.1,0.7-0.4,1.8-0.8
						C140.3,39.4,141.2,39.2,141.2,39.2z"/>
				</g>
			</g>
			<g>
				<g>
					<path class="st2" d="M148.9,38.4c0,0.1-0.9,0-1.9,0.1c-1,0-1.9,0.1-1.9,0.1c0-0.1,0.9-0.2,1.9-0.2
						C148,38.3,148.9,38.3,148.9,38.4z"/>
				</g>
			</g>
			<g>
				<g>
					<path class="st2" d="M156.4,40.4c0,0.1-0.8-0.3-1.9-0.7c-1-0.4-1.9-0.6-1.9-0.7s0.9,0.1,1.9,0.5
						C155.7,39.9,156.5,40.3,156.4,40.4z"/>
				</g>
			</g>
			<g>
				<g>
					<path class="st2" d="M163.1,44.4c0,0-0.7-0.5-1.6-1.1c-0.9-0.6-1.6-1.1-1.6-1.1c0-0.1,0.8,0.4,1.7,1
						C162.4,43.8,163.1,44.4,163.1,44.4z"/>
				</g>
			</g>
			<g>
				<g>
					<path class="st2" d="M167,48.7c-0.1,0-0.3-0.3-0.6-0.7c-0.3-0.4-0.6-0.8-0.5-0.8c0,0,0.4,0.3,0.7,0.7S167,48.7,167,48.7z"/>
				</g>
			</g>
		</g>
		<g>
			<g>
				<path class="st4" d="M80.7,81.9"/>
			</g>
		</g>
		<g>
			<g>
				<path class="st2" d="M23.4,20.7c0,0,0-0.1,0.1-0.3c0.1-0.2,0.1-0.5,0.2-0.9c0.1-0.7,0.5-1.9,1.1-3.2c0.6-1.3,1.4-3,2.7-4.7
					s2.9-3.5,5-5.1s4.6-3.1,7.6-4.1c1.5-0.5,3-0.9,4.7-1.1s3.3-0.4,5.1-0.3c1.8,0.1,3.6,0.2,5.4,0.7c1.7,0.4,3.5,1,5.2,1.9
					c1.7,0.8,3.3,1.9,4.8,3.2c1.5,1.3,2.9,2.8,4,4.5c1.1,1.6,2.1,3.5,2.7,5.4c0.7,1.9,1,3.8,1.2,5.7c0,0.4,0.1,1,0.1,1.4
					c0,0.4,0,1,0,1.4c0,0.4,0,1,0,1.4c-0.1,0.4-0.1,0.9-0.1,1.4c-0.2,1.9-0.7,3.6-1.4,5.2c-0.7,1.6-1.5,3.1-2.3,4.5
					c-0.8,1.4-1.6,2.8-2.5,4.2c-1.6,2.7-2.4,5.5-2.8,8.1c-0.2,1.3-0.4,2.5-0.4,3.7c-0.1,1.2-0.1,2.3-0.1,3.3c0,2.1,0,3.9,0.2,5.4
					c0.2,1.5,0.5,2.6,0.7,3.3c0.1,0.4,0.2,0.7,0.3,0.8c0,0.1,0.1,0.1,0.1,0.2c0,0.1,0,0.1,0,0.1s-0.2-0.4-0.4-1.1
					c-0.2-0.7-0.5-1.9-0.7-3.3c-0.2-1.5-0.3-3.3-0.3-5.4c0-1,0-2.2,0.1-3.3c0.1-1.2,0.2-2.5,0.4-3.7c0.4-2.6,1.3-5.4,2.8-8.1
					c0.8-1.3,1.6-2.8,2.5-4.2c0.8-1.4,1.6-2.9,2.3-4.5c0.7-1.6,1.1-3.3,1.4-5.1c0.1-0.4,0.1-0.9,0.1-1.3c0-0.4,0.1-0.9,0-1.4
					c0-0.4,0-1,0-1.4c0-0.4-0.1-1-0.1-1.4c-0.2-1.9-0.6-3.8-1.2-5.7c-0.7-1.9-1.6-3.6-2.7-5.3c-1.1-1.6-2.5-3.1-4-4.4
					c-1.5-1.3-3.1-2.4-4.8-3.2S56.8,2.5,55,2.1s-3.6-0.6-5.3-0.7s-3.4,0.1-5.1,0.3c-1.6,0.1-3.1,0.4-4.6,1c-2.9,1-5.4,2.5-7.5,4
					c-2.1,1.6-3.7,3.3-5,5.1c-1.3,1.7-2.1,3.3-2.8,4.6c-0.6,1.3-0.9,2.5-1.1,3.2c-0.1,0.4-0.1,0.7-0.2,0.9
					C23.4,20.7,23.4,20.7,23.4,20.7z"/>
			</g>
		</g>
	</g>
	<g id="Character">
		<g>
			<g>
				<g>
					<g>
						<g>
							<g>
								<path class="st5" d="M102.9,140.7l4.9,1.7l-0.1,4.7c-2.4,0.7-2.7,1.9-2.7,1.9l4.9-0.1l4.2-8.7l-3.3-2.2l-6.3-2.8"/>
							</g>
						</g>
						<g>
							<polygon class="st6" points="114.2,140.2 109.9,148.9 105,149 105.5,148.3 109.6,148 113.4,139.8 							"/>
						</g>
					</g>
					<g>
						<g>
							<path class="st7" d="M107.7,145.1c0.1,0.1,0.3-0.1,0.7-0.1s0.7,0.1,0.7,0.1c0.1-0.1-0.2-0.3-0.7-0.3
								C107.9,144.7,107.6,145,107.7,145.1z"/>
						</g>
					</g>
					<g>
						<g>
							<path class="st7" d="M107.7,143.9c0.1,0,0.3-0.3,0.7-0.4s0.7,0.1,0.7,0c0,0-0.1-0.1-0.1-0.1c-0.1-0.1-0.4-0.1-0.6-0.1
								c-0.2,0.1-0.4,0.2-0.5,0.3C107.7,143.7,107.7,143.9,107.7,143.9z"/>
						</g>
					</g>
					<g>
						<g>
							<path class="st7" d="M107.6,142.4c0.1,0,0.2-0.3,0.5-0.4c0.4-0.1,0.7,0,0.7-0.1c0,0-0.1-0.1-0.2-0.1c-0.1-0.1-0.4-0.1-0.6,0
								c-0.2,0.1-0.4,0.2-0.4,0.4C107.6,142.2,107.6,142.4,107.6,142.4z"/>
						</g>
					</g>
					<g>
						<g>
							<path class="st7" d="M107.3,142.4c0.1,0,0-0.3,0.1-0.7c0.1-0.4,0.4-0.5,0.4-0.6c0-0.1-0.4,0.1-0.5,0.5
								C107.1,142,107.3,142.4,107.3,142.4z"/>
						</g>
					</g>
					<g>
						<g>
							<path class="st7" d="M106.7,141.8c0,0,0.1-0.2,0.1-0.7c0-0.2,0.1-0.4,0.1-0.7c0-0.1,0.1-0.3,0-0.4c0-0.1-0.1-0.1-0.1-0.2
								c-0.1-0.1-0.2-0.1-0.3,0c-0.1,0.1-0.2,0.3-0.3,0.4c-0.1,0.1-0.1,0.3-0.1,0.4c0,0.3,0.1,0.5,0.1,0.7
								C106.4,141.7,106.7,141.9,106.7,141.8c0,0.1-0.1-0.1-0.3-0.5c-0.1-0.1-0.1-0.4-0.1-0.7c0-0.1,0.1-0.2,0.1-0.4
								c0.1-0.1,0.1-0.3,0.2-0.3s0.1,0,0.1,0s0.1,0.1,0.1,0.1c0,0.1,0,0.2,0,0.4c0,0.2,0,0.5,0,0.7
								C106.7,141.6,106.7,141.8,106.7,141.8z"/>
						</g>
					</g>
					<g>
						<g>
							<path class="st7" d="M106.7,142c0,0-0.1-0.2-0.5-0.4s-1-0.1-1.4,0.5c0,0.1,0,0.1,0,0.2s0.1,0.1,0.1,0.1
								c0.1,0,0.1,0.1,0.2,0.1c0.1,0,0.3,0,0.4,0c0.2,0,0.4-0.1,0.7-0.1C106.5,142.2,106.7,142,106.7,142c0-0.1-0.1,0.1-0.5,0.1
								c-0.1,0.1-0.4,0.1-0.6,0.1c-0.1,0-0.2,0-0.4,0c-0.1,0-0.1,0-0.1,0c-0.1,0,0,0,0,0s0.1-0.1,0.1-0.1c0.1-0.1,0.1-0.1,0.1-0.1
								c0.1-0.1,0.2-0.1,0.3-0.1c0.2-0.1,0.4-0.1,0.6,0C106.4,141.9,106.6,142,106.7,142z"/>
						</g>
					</g>
					<g>
						<path class="st6" d="M110.3,140.2c0,0.3,0.3,0.6,0.6,0.6c0.3,0,0.6-0.3,0.6-0.6c0-0.3-0.3-0.6-0.6-0.6
							C110.5,139.6,110.2,139.9,110.3,140.2z"/>
					</g>
				</g>
			</g>
			<g>
				<g>
					<g>
						<g>
							<path class="st5" d="M77.7,138.8l0.1,6.4c0,0-6.5,2.2-6.6,3.4l12.4,0.3l0.3-10L77.7,138.8z"/>
						</g>
					</g>
					<g>
						<g>
							<path class="st6" d="M81.7,144.8c0.2,0.1,0.4,0.4,0.4,0.6c-0.1,0.2-0.4,0.4-0.6,0.4c-0.2-0.1-0.4-0.4-0.4-0.6
								C81.2,144.8,81.5,144.7,81.7,144.8"/>
						</g>
					</g>
					<g>
						<g>
							<path class="st6" d="M83.6,148.9v-1L71.7,148c0,0-0.6,0.2-0.5,0.6L83.6,148.9z"/>
						</g>
					</g>
					<g>
						<g>
							<path class="st7" d="M77.6,145.1c0,0.1,0.3,0.1,0.6,0.3s0.4,0.4,0.5,0.4c0.1,0,0-0.4-0.4-0.6C78,145,77.6,145.1,77.6,145.1z"
								/>
						</g>
					</g>
					<g>
						<g>
							<path class="st7" d="M76.2,145.7c0,0.1,0.2,0.1,0.4,0.4c0.2,0.2,0.2,0.5,0.3,0.5c0.1,0,0.1-0.4-0.1-0.7
								C76.6,145.6,76.2,145.6,76.2,145.7z"/>
						</g>
					</g>
					<g>
						<g>
							<path class="st7" d="M75.5,147.2c0.1,0,0.1-0.3,0-0.6c-0.1-0.4-0.4-0.4-0.4-0.4c0,0.1,0.1,0.2,0.3,0.5
								C75.4,146.9,75.4,147.1,75.5,147.2z"/>
						</g>
					</g>
					<g>
						<g>
							<path class="st7" d="M77.7,143.6c0,0.1,0.3,0,0.7,0s0.6,0.1,0.7,0.1c0-0.1-0.2-0.3-0.6-0.3C78,143.4,77.7,143.6,77.7,143.6z"
								/>
						</g>
					</g>
				</g>
				<g>
					<g>
						<polygon class="st8" points="77.7,140.1 77.7,141.2 83.8,141.3 83.9,140.3 						"/>
					</g>
				</g>
				<g>
					<g>
						<path class="st7" d="M77.7,142.4c0,0,0.2,0.1,0.6,0c0.2,0,0.4-0.1,0.7-0.1c0.1-0.1,0.2-0.1,0.4-0.1c0.1,0,0.1-0.1,0.2-0.1
							c0.1-0.1,0.1-0.2,0-0.3c-0.1-0.1-0.1-0.1-0.3-0.1c-0.1,0-0.1,0-0.2,0c-0.1,0-0.3,0.1-0.4,0.1c-0.2,0.1-0.4,0.2-0.6,0.4
							C77.8,142.2,77.7,142.4,77.7,142.4c0.1,0.1,0.2-0.1,0.5-0.3c0.1-0.1,0.4-0.2,0.6-0.3c0.1-0.1,0.2-0.1,0.4-0.1
							c0.1,0,0.2,0,0.3,0c0,0,0,0,0,0.1c0,0-0.1,0.1-0.1,0.1c-0.1,0.1-0.2,0.1-0.3,0.1c-0.2,0.1-0.4,0.1-0.6,0.2
							C78,142.3,77.7,142.3,77.7,142.4z"/>
					</g>
				</g>
				<g>
					<g>
						<path class="st7" d="M77.8,142.5c0,0,0.1-0.2,0.1-0.6c0-0.2,0-0.4-0.1-0.7c0-0.1-0.1-0.2-0.1-0.4c-0.1-0.1-0.1-0.3-0.4-0.3
							c-0.1,0-0.2,0.1-0.3,0.1c-0.1,0.1-0.1,0.1-0.1,0.2c0,0.1,0,0.3,0,0.4c0,0.3,0.1,0.5,0.2,0.7C77.4,142.3,77.7,142.4,77.8,142.5
							c-0.1-0.1-0.3-0.2-0.4-0.5c-0.1-0.1-0.1-0.4-0.1-0.6c0-0.1,0-0.2,0-0.4s0.1-0.2,0.1-0.2c0.1,0,0.1,0.1,0.2,0.2
							s0.1,0.2,0.1,0.4c0.1,0.2,0.1,0.4,0.1,0.6C77.9,142.2,77.8,142.5,77.8,142.5z"/>
					</g>
				</g>
			</g>
			<g>
				<g>
					<g>
						<polygon class="st9" points="106.7,135.5 92.3,130.2 107.4,128.1 108.1,120.7 80,123.2 75.9,128.9 77.1,136.1 104.5,143.1 
													"/>
					</g>
					<g>
						<g>
							<path class="st9" d="M76.2,140.7l-1.3-26.2c0.1-2.5,1.5-4.9,3.6-6.2l0,0c1.9-1,4-1.3,6-0.6l18.3,6.1l10,2.6
								c0,0,1.7,4.2,0.7,7.5c-1,3.2-4.5,5.4-7.6,4.4c-3.9-1.1-21.5-8.7-21.5-8.7v21.3L76.2,140.7z"/>
						</g>
					</g>
					<g>
						<g>
							<path class="st10" d="M105.8,128.3L105.8,128.3c-0.1,0-0.2-0.1-0.4-0.1c-0.3-0.1-0.7-0.3-1.2-0.4c-1-0.4-2.5-1-4.4-1.8
								c-3.7-1.6-8.8-3.6-14.5-5.9c-0.2-0.1-0.5-0.2-0.7-0.3l0.1-0.1c0,5.9,0,11.3,0,15.2c0,1.9,0,3.5,0,4.5c0,0.5,0,1,0,1.3
								c0,0.1,0,0.2,0,0.3c0,0.1,0,0.1,0,0.1s0,0,0-0.1c0-0.1,0-0.2,0-0.3c0-0.3,0-0.7,0-1.3c0-1.1,0-2.6,0-4.5c0-3.9,0-9.2,0-15.2
								v-0.1l0.1,0.1c0.2,0.1,0.5,0.2,0.7,0.3c5.7,2.4,10.8,4.5,14.4,6c1.9,0.7,3.3,1.4,4.4,1.9c0.5,0.2,0.9,0.4,1.2,0.5
								c0.1,0.1,0.2,0.1,0.3,0.1C105.7,128.3,105.8,128.3,105.8,128.3z"/>
						</g>
					</g>
					<g>
						<g>
							<path class="st10" d="M88.9,128.3c0-0.1,0.9,0.1,1.9,0.7c1,0.5,1.6,1.2,1.6,1.3c0,0.1-0.7-0.6-1.6-1.1
								C89.7,128.6,88.9,128.4,88.9,128.3z"/>
						</g>
					</g>
				</g>
				<g>
					<g>
						<path class="st10" d="M82.9,116c0.1,0,0.5,0.7,1,1.8c0.4,1,0.7,1.9,0.7,1.9c-0.1,0-0.4-0.8-0.8-1.9
							C83.3,116.8,82.9,116,82.9,116z"/>
					</g>
				</g>
			</g>
			<polygon class="st11" points="83,104.4 79.7,103.8 76.4,107.3 77,109.4 80.9,108 			"/>
			<g>
				<g>
					<g>
						<path class="st12" d="M71,65.9L70.1,66c0,0-1.6,0.2-1.6,0.3c0,0-0.7,1-0.7,1l-0.7,1c0,0,0.5,0.2,0.9-0.1l-0.2,0.5
							c0,0,0.7,0.3,1.2-0.4c0.3-0.4,0.5-0.7,0.7-1h0.3c0,0.1,1.1,1.6,1.2,1.6l1-0.9L71,65.9z"/>
					</g>
				</g>
				<g>
					<g>
						<path class="st11" d="M73.4,72.7l0.2-4.8l-2.5-2.8l-2.7,0.1L67.4,66c0.1,0.3,0.8,0.4,1.6,0.2c0.8-0.2,1.7-0.1,1.7-0.1l1,1.8
							l-0.7,0.7l0.9,4.6L73.4,72.7z"/>
					</g>
				</g>
				<g>
					<path class="st2" d="M66.2,66.4H75c0.2,0,0.4,0.1,0.4,0.4l0,0c0,0.2-0.1,0.4-0.4,0.4h-8.8l-0.8-0.4L66.2,66.4z"/>
				</g>
				<g>
					<g>
						<path class="st11" d="M70.7,74l-0.9-2.2c-0.1-0.3-0.1-0.6-0.1-0.9c0.1-0.8,0.1-2.4,0-2.8c-0.1-0.5-0.8-2.2-0.4-2.4
							c0.4-0.2,0.9-0.3,1.3,0.7c0.4,1,1.5,3.1,1.5,3.1l0.8,3.5L70.7,74z"/>
					</g>
				</g>
				<g>
					<g>
						<g>
							<path class="st12" d="M71.7,69.4c0,0-0.2-0.4-0.5-1s-0.7-1.4-1.1-2.3c-0.1-0.2-0.3-0.4-0.5-0.4c-0.2,0-0.4,0.1-0.4,0.3
								c-0.1,0.1,0,0.4,0,0.6c0,0.2,0.1,0.4,0.1,0.5c0.1,0.6,0.4,1,0.3,1c0,0-0.1-0.1-0.1-0.2c-0.1-0.1-0.2-0.4-0.3-0.7
								C69,67.1,69,66.9,69,66.7c-0.1-0.2-0.1-0.4,0-0.7c0.1-0.2,0.3-0.4,0.6-0.4c0.3,0,0.5,0.2,0.7,0.4c0.4,0.9,0.8,1.7,1.1,2.4
								C71.6,69,71.8,69.4,71.7,69.4z"/>
						</g>
					</g>
				</g>
			</g>
			<g>
				<g>
					<polygon class="st13" points="112.6,116.3 111.7,114.6 102.2,112.3 103.3,114.2 					"/>
				</g>
				<g>
					<path class="st5" d="M69.8,74l6,14.3c0.6,1.3,1.6,2.4,3,3l13,5.4l3-8.4l-12.6-4.5L74,72L69.8,74z"/>
				</g>
				<g>
					<g>
						<path class="st5" d="M89.4,88.4c0,0.4-1.4,10.7-1.4,12.9s4.1,4.4,4.1,4.4l4.5,9.4h15.8l-5.4-10.2l-2.5-8.2
							c-0.9-3.1-2.6-5.9-4.9-8.2l-2.7-1.8L89.4,88.4z"/>
					</g>
				</g>
				<g>
					<g>
						<path class="st5" d="M94,96.6l2.7,11.2l-13.4-3.8l-2.3,4l17.5,8c2.2,1,4.7,0.3,6-1.6l0,0c0.8-1.2,1.1-2.7,0.7-4L101.3,95
							c-0.5-2.1-2.8-3.3-4.8-2.6l0,0C94.8,93,93.6,94.8,94,96.6z"/>
					</g>
				</g>
				<g>
					<g>
						<path class="st14" d="M92.1,105.6c0,0-0.1,0-0.1-0.1c-0.1-0.1-0.2-0.1-0.4-0.2c-0.4-0.2-0.9-0.5-1.5-1c-0.6-0.4-1.3-1-1.7-1.9
							c-0.4-0.9-0.4-2.1-0.2-3.2s0.4-2.2,0.5-3.1c0.1-1,0.2-1.9,0.3-2.6c0.1-0.7,0.1-1.3,0.1-1.8c0-0.4,0-0.7,0-0.7s0,0.1,0,0.1
							c0,0.1,0,0.3,0.1,0.4c0,0.4,0,1,0,1.8c-0.1,0.7-0.1,1.6-0.3,2.6c-0.1,1-0.4,2-0.5,3.1c-0.1,1.1-0.1,2.2,0.2,3.1
							c0.4,0.9,1.1,1.5,1.6,1.9c0.6,0.4,1.1,0.8,1.4,1C91.9,105.5,92.1,105.6,92.1,105.6z"/>
					</g>
				</g>
				<g>
					<g>
						<path class="st14" d="M99.4,93.6c0,0.1-0.7-0.4-1.8-0.4c-1-0.1-1.9,0.2-1.9,0.2s0.8-0.4,1.9-0.4
							C98.8,93.1,99.5,93.6,99.4,93.6z"/>
					</g>
				</g>
				<g>
					<g>
						<path class="st14" d="M97.7,87.6c0,0-0.1,0.1-0.2,0.3c-0.1,0.1-0.4,0.4-0.7,0.7c-0.6,0.6-1.5,1.3-2.5,2.2
							c-1,0.8-1.9,1.5-2.6,1.9c-0.4,0.2-0.6,0.4-0.8,0.5c-0.2,0.1-0.3,0.2-0.3,0.1c0,0,0.1-0.1,0.3-0.2c0.2-0.1,0.4-0.4,0.8-0.6
							c0.7-0.5,1.6-1.2,2.6-2c1-0.8,1.9-1.6,2.5-2.1c0.3-0.2,0.5-0.4,0.7-0.7C97.5,87.7,97.7,87.6,97.7,87.6z"/>
					</g>
				</g>
				<g>
					<g>
						<path class="st14" d="M82.2,83.8c0,0.1-0.4,0.2-1,0.6c-0.5,0.4-0.9,0.7-1,0.7c0,0,0.3-0.4,0.9-0.8
							C81.7,83.9,82.2,83.8,82.2,83.8z"/>
					</g>
				</g>
				<g>
					<g>
						<g>
							<path class="st15" d="M95.3,101.6c0,0-0.1,0.1-0.3,0.1c-0.2,0.1-0.4,0.1-0.8,0.1c-0.4,0.1-0.7,0.1-1.3,0
								c-0.4,0-1-0.1-1.5-0.2c-0.5-0.1-1-0.3-1.4-0.5c-0.4-0.2-0.8-0.4-1.1-0.6c-0.3-0.2-0.5-0.4-0.7-0.5c-0.1-0.1-0.2-0.2-0.2-0.2
								s0.4,0.3,1,0.7c0.6,0.4,1.5,0.8,2.5,1c1,0.2,2,0.3,2.7,0.2C94.8,101.7,95.3,101.6,95.3,101.6z"/>
						</g>
					</g>
					<g>
						<g>
							<path class="st15" d="M96.2,106.5c0,0-0.2,0.1-0.6,0.1s-0.9,0-1.5-0.1c-0.6-0.1-1-0.3-1.4-0.5c-0.4-0.1-0.5-0.3-0.5-0.4
								c0-0.1,0.8,0.4,1.9,0.7C95.3,106.6,96.2,106.5,96.2,106.5z"/>
						</g>
					</g>
					<g>
						<g>
							<path class="st15" d="M103.2,103.5c0,0-0.1,0.1-0.2,0.1c-0.1,0.1-0.4,0.2-0.7,0.3c-0.6,0.2-1.5,0.5-2.5,0.7
								c-1,0.1-1.9,0.1-2.6,0.1c-0.3,0-0.6-0.1-0.8-0.1c-0.1-0.1-0.3-0.1-0.3-0.1s0.4,0,1,0.1c0.7,0.1,1.6,0.1,2.6-0.1
								c1-0.1,1.9-0.4,2.5-0.6C102.7,103.6,103.1,103.5,103.2,103.5z"/>
						</g>
					</g>
					<g>
						<g>
							<path class="st15" d="M101.9,98.1c0,0-0.4-0.1-1.1-0.1c-0.7-0.1-1.6-0.1-2.6-0.1c-1,0.1-1.9,0.1-2.6,0.3s-1,0.2-1,0.2
								s0.1-0.1,0.3-0.1c0.1-0.1,0.4-0.1,0.7-0.2c0.7-0.1,1.6-0.3,2.6-0.4c1,0,1.9,0.1,2.6,0.1c0.3,0.1,0.6,0.1,0.8,0.1
								C101.8,98,101.9,98,101.9,98.1z"/>
						</g>
					</g>
					<g>
						<g>
							<path class="st15" d="M104.7,113.3c0,0-0.1,0-0.4-0.1c-0.2-0.1-0.6-0.1-1-0.3c-0.8-0.3-2-0.8-3.1-1.6c-1.1-0.8-2-1.6-2.6-2.4
								c-0.3-0.4-0.5-0.7-0.7-0.8c-0.1-0.2-0.2-0.3-0.2-0.3s0.4,0.4,0.9,1.1c0.6,0.7,1.5,1.5,2.6,2.3c1.1,0.7,2.2,1.3,3,1.6
								C104.1,113.2,104.7,113.3,104.7,113.3z"/>
						</g>
					</g>
					<g>
						<g>
							<path class="st15" d="M92.6,113.2c0,0-0.1-0.4-0.1-0.9c0-0.6,0.1-1.3,0.3-2.2c0.2-0.8,0.5-1.6,0.8-2.1
								c0.3-0.5,0.4-0.8,0.5-0.8c0,0-0.1,0.3-0.4,0.8c-0.2,0.5-0.5,1.3-0.7,2.1c-0.2,0.8-0.3,1.6-0.4,2.2
								C92.7,112.8,92.7,113.2,92.6,113.2z"/>
						</g>
					</g>
					<g>
						<g>
							<path class="st15" d="M84.6,109.4c0,0-0.1-0.3,0-0.8c0.1-0.4,0.2-1.2,0.6-1.8c0.4-0.7,0.9-1.1,1.3-1.4
								c0.4-0.3,0.6-0.4,0.7-0.4c0,0-0.2,0.2-0.5,0.5c-0.4,0.3-0.8,0.8-1.2,1.4c-0.4,0.6-0.5,1.3-0.6,1.7
								C84.6,109.1,84.6,109.4,84.6,109.4z"/>
						</g>
					</g>
					<g>
						<g>
							<path class="st15" d="M111.3,113.1c0,0-0.4,0.2-1,0.4c-0.6,0.2-1.4,0.5-2.4,0.7c-1,0.2-1.9,0.3-2.5,0.3c-0.1,0-0.3,0-0.4,0
								c-0.1,0-0.2,0-0.3-0.1c-0.1,0-0.3-0.1-0.3-0.1s0.4,0,1,0c0.6,0,1.5-0.1,2.5-0.3c1-0.2,1.8-0.4,2.4-0.7
								C110.9,113.2,111.3,113,111.3,113.1z"/>
						</g>
					</g>
					<g>
						<g>
							<path class="st15" d="M107.7,106.6c0,0-0.1,0.2-0.4,0.4c-0.3,0.2-0.7,0.4-1.1,0.6s-0.9,0.3-1.3,0.4c-0.1,0-0.3,0.1-0.4,0.1
								s-0.1,0-0.1-0.1c0,0,0.2,0,0.5-0.1c0.3-0.1,0.7-0.2,1.2-0.4c0.4-0.1,0.9-0.4,1.1-0.5C107.6,106.8,107.7,106.6,107.7,106.6z"
								/>
						</g>
					</g>
					<g>
						<g>
							<path class="st15" d="M105.5,100.1c0,0,0,0.1-0.1,0.1c-0.1,0.1-0.1,0.1-0.3,0.2c-0.2,0.1-0.6,0.3-1,0.4
								c-0.4,0.1-0.7,0.2-1,0.3c-0.3,0.1-0.4,0-0.4,0s0.1,0,0.4-0.1c0.3-0.1,0.6-0.1,1-0.3c0.4-0.1,0.7-0.3,1-0.4
								c0.1-0.1,0.2-0.1,0.3-0.1C105.5,100.1,105.5,100.1,105.5,100.1z"/>
						</g>
					</g>
					<g>
						<g>
							<path class="st15" d="M93.8,96.6c0,0-0.3,0.1-0.7,0c-0.4,0-1.1-0.1-1.9-0.2c-0.7-0.1-1.3-0.4-1.8-0.6
								c-0.4-0.2-0.7-0.4-0.7-0.4c0-0.1,1,0.4,2.5,0.8C92.7,96.5,93.9,96.5,93.8,96.6z"/>
						</g>
					</g>
					<g>
						<g>
							<path class="st15" d="M103.2,93.6c0,0.1-0.4,0.4-1,0.6c-0.6,0.3-1.2,0.4-1.2,0.3c0-0.1,0.5-0.2,1.1-0.4
								C102.7,93.8,103.2,93.6,103.2,93.6z"/>
						</g>
					</g>
					<g>
						<g>
							<path class="st15" d="M95.9,89.4c0,0,0.2,0.1,0.4,0.4c0.2,0.2,0.6,0.7,0.8,1.2s0.3,1,0.4,1.3c0,0.4,0,0.6,0,0.6
								c-0.1,0,0-0.9-0.5-1.9C96.5,90,95.9,89.4,95.9,89.4z"/>
						</g>
					</g>
					<g>
						<g>
							<path class="st15" d="M85.6,94c0,0-0.1-0.1-0.1-0.3c-0.1-0.2-0.1-0.5-0.2-0.9c-0.1-0.7-0.2-1.9,0-3c0.2-1.2,0.6-2.2,0.9-2.9
								c0.1-0.4,0.3-0.7,0.4-0.9c0.1-0.2,0.1-0.3,0.1-0.3s0,0.1-0.1,0.3c-0.1,0.2-0.2,0.5-0.3,0.9c-0.2,0.7-0.6,1.8-0.8,2.9
								c-0.2,1.2-0.2,2.2-0.1,3C85.5,93.6,85.7,94,85.6,94z"/>
						</g>
					</g>
					<g>
						<g>
							<path class="st15" d="M78,90.9c0,0,0-0.1,0.1-0.3c0.1-0.2,0.1-0.5,0.2-0.9c0.2-0.7,0.7-1.7,1.3-2.7c0.7-1,1.4-1.7,2-2.2
								c0.3-0.2,0.5-0.4,0.7-0.5c0.1-0.1,0.3-0.1,0.3-0.1s-0.4,0.3-1,0.8s-1.3,1.3-1.9,2.2c-0.7,1-1.1,1.9-1.4,2.6
								C78.1,90.5,78,90.9,78,90.9z"/>
						</g>
					</g>
					<g>
						<g>
							<path class="st15" d="M79.2,79.4c0,0-0.4,0.1-1,0.2c-0.6,0.1-1.3,0.4-2.2,1c-0.7,0.4-1.4,1-1.9,1.4c-0.4,0.4-0.7,0.7-0.7,0.7
								s0-0.1,0.1-0.2c0.1-0.1,0.1-0.1,0.1-0.2s0.1-0.2,0.3-0.3c0.4-0.4,1-1,1.9-1.5c0.8-0.4,1.6-0.8,2.2-0.9c0.1,0,0.3-0.1,0.4-0.1
								c0.1,0,0.2,0,0.3,0C79.1,79.4,79.2,79.4,79.2,79.4z"/>
						</g>
					</g>
					<g>
						<g>
							<path class="st15" d="M76.2,75c0,0.1-1.3-0.1-2.8,0.2c-1.6,0.4-2.5,1.2-2.6,1.1c0,0,0.2-0.2,0.7-0.5s1.1-0.6,1.9-0.8
								c0.7-0.2,1.5-0.2,2-0.2C75.8,74.9,76.2,74.9,76.2,75z"/>
						</g>
					</g>
				</g>
				<g>
					<g>
						<path class="st14" d="M94,96.6c0,0,0,0.1,0.1,0.2c0.1,0.1,0.1,0.4,0.1,0.6c0.1,0.6,0.4,1.3,0.6,2.3c0.5,2,1.2,4.8,1.9,8v0.1
							l-0.1-0.1c-1.1-0.3-2.2-0.6-3.4-1c-3.9-1.1-7.4-2.1-10-2.8h0.1c-0.7,1.3-1.3,2.2-1.7,3c-0.2,0.4-0.4,0.6-0.4,0.8
							c-0.1,0.1-0.1,0.1-0.1,0.2c0,0.1-0.1,0.1-0.1,0.1s0,0,0-0.1s0.1-0.1,0.1-0.2c0.1-0.2,0.2-0.4,0.4-0.8c0.4-0.7,1-1.7,1.6-3
							v-0.1h0.1c2.6,0.7,6.1,1.7,10,2.8c1.2,0.3,2.3,0.7,3.4,1l-0.1,0.1c-0.7-3.2-1.4-6-1.9-8c-0.2-1-0.4-1.8-0.5-2.3
							c-0.1-0.3-0.1-0.4-0.1-0.6C94,96.6,94,96.6,94,96.6z"/>
					</g>
				</g>
				<g>
					<g>
						<path class="st14" d="M101.4,95.9c0,0,0,0.1,0.1,0.2c0.1,0.1,0.1,0.3,0.1,0.5c0.1,0.5,0.3,1.2,0.5,2.1c0.4,1.8,1,4.2,1.7,6.8
							c0.3,1.3,0.7,2.6,0.9,3.7c0.3,1.2,0.4,2.2,0.2,3.1c-0.1,0.9-0.4,1.6-0.7,2c-0.3,0.4-0.5,0.6-0.5,0.6s0.2-0.2,0.4-0.6
							c0.3-0.4,0.6-1.1,0.7-1.9c0.1-0.9,0-1.9-0.3-3.1c-0.3-1.2-0.6-2.5-1-3.7c-0.7-2.7-1.3-5.1-1.6-6.8c-0.2-0.9-0.4-1.6-0.5-2.1
							c-0.1-0.2-0.1-0.4-0.1-0.6C101.4,96,101.4,95.9,101.4,95.9z"/>
					</g>
				</g>
				<g class="st16">
					<g>
						<g>
							<path class="st8" d="M103.8,115.1c1.9,0.1,3.1-1,3.3-2.5c0.1-0.8-0.1-1.7-0.4-2.5c-1.2-3.5-2.5-7.1-4.3-10.3
								c0.7,3.2,1.6,6.3,2.4,9.5c0.2,1,0.3,1.6,0.3,2.8C104.9,113.1,104.5,114.3,103.8,115.1"/>
						</g>
					</g>
				</g>
			</g>
			<g>
				<g>
					<g>
						<path class="st9" d="M96.5,86.2c1,0.3,2.2,0.1,3.2-0.4c1-0.6,1.6-1.6,1.9-2.7c0.5,0.5,1.3,0.7,2,0.5c0.7-0.1,1.3-0.5,1.9-1
							c1-0.9,1.6-2.2,1.6-3.6c-0.1-1.3-0.9-2.7-2.2-3.1c-1.3-0.4-2.8,0.1-3.3,1.3c-0.2-0.7,0.4-1.6,0.2-2.4
							c-0.3-1.5-1.2-2.3-1.9-2.3"/>
					</g>
				</g>
				<g>
					<g>
						<g>
							<g>
								<g>
									<path class="st9" d="M98.1,85.8c1.4-2.5,1.9-5.9,2.2-8.7c0.1-1.3,0.4-3.3-0.4-4.2c-1-0.9-1.1-2.3-2.2-3
										c-1.1-0.7-2.7-0.7-3.8,0.1"/>
								</g>
							</g>
							<g>
								<g>
									<g>
										<g>
											<g>
												<g>
													<g>
														<g>
															<g>
																<path class="st11" d="M90.7,90.8v-3.9c0,0-4.1-0.7-4.3-4C86.1,79.5,86.2,72,86.2,72l0,0c3.6-1.9,7.9-1.6,11.2,0.7
																	l-0.1,11.5V88l-3.3,2.8l-3.2,2.5L90.7,90.8L90.7,90.8z"/>
															</g>
														</g>
													</g>
												</g>
											</g>
										</g>
									</g>
									<g>
										<g>
											<path class="st9" d="M89.5,78.8c0.5-0.7,1.4-1,2.2-0.5c0.7,0.5,1,1.6,0.6,2.4c-0.3,0.6-0.9,1.1-1.6,1.2
												c0,0,1.5,2.7,2.4,3.4c1.1,0.8,1.6,1.3,3,1.4c1.3,0.1,1.2,0.1,2-1c0.6-0.8,0.7-1.6,0.7-2.7c0.1-2.5,0.1-4.8,0.1-7.3
												c0-0.9,0-1.8-0.1-2.6c-0.1-0.8-0.6-1.6-1.3-2.2c-0.7-0.5-1.8-0.6-2.6-0.9c-1.1-0.4-2-1.1-3-1.6c-1-0.5-2.3-0.9-3.3-0.3
												c-0.7,0.4-1.3,1.2-1.9,1.6c-1,0.6-2.5,0.4-2.9,2c-0.1,0.5-0.1,1.1,0,1.6c0.7,2.2,3.3,3,5.1,2.1c0.1,0.4-0.3,1.2,0.1,2.3
												C88.9,78.3,89,78.8,89.5,78.8"/>
										</g>
									</g>
								</g>
								<g>
									<g>
										<g>
											<path class="st12" d="M90.1,80.9c0,0,0,0.1,0.1,0.1s0.1,0.1,0.4,0.1c0.4,0,0.8-0.4,0.8-0.9c0-0.3-0.1-0.5-0.2-0.7
												c-0.1-0.1-0.4-0.2-0.5-0.3c-0.3-0.1-0.5,0.1-0.5,0.1c0,0.1,0.2,0,0.4,0.1c0.2,0.1,0.6,0.4,0.5,0.8c0,0.4-0.4,0.7-0.6,0.7
												C90.2,81,90.1,80.9,90.1,80.9z"/>
										</g>
									</g>
								</g>
							</g>
						</g>
					</g>
					<g>
						<g>
							<path class="st17" d="M106.7,79.2c0,0,0,0.1-0.1,0.3c-0.1,0.2-0.2,0.4-0.4,0.7c-0.4,0.6-1.3,1.3-2.5,1.5
								c-1.2,0.1-2.2-0.3-2.8-0.7c-0.3-0.2-0.5-0.4-0.7-0.6c-0.1-0.1-0.1-0.3-0.1-0.3s0.3,0.4,0.9,0.8c0.6,0.4,1.6,0.8,2.7,0.7
								c1.1-0.1,1.9-0.8,2.4-1.4C106.5,79.6,106.7,79.2,106.7,79.2z"/>
						</g>
					</g>
					<g>
						<g>
							<path class="st17" d="M106.3,78.7c0,0,0,0.1-0.1,0.2c-0.1,0.1-0.2,0.4-0.4,0.6c-0.4,0.4-1.2,1-2.2,1.3c-1,0.2-1.9,0-2.5-0.2
								c-0.3-0.1-0.5-0.3-0.7-0.4c-0.1-0.1-0.2-0.1-0.2-0.1s0.3,0.2,0.9,0.4c0.6,0.2,1.5,0.4,2.4,0.1c0.9-0.2,1.6-0.7,2.1-1.2
								C106.1,79,106.2,78.6,106.3,78.7z"/>
						</g>
					</g>
					<g>
						<g>
							<path class="st17" d="M100.8,82.8c0,0-0.1,0-0.1,0.1c-0.1,0.1-0.2,0.1-0.4,0.1c-0.4,0.1-1-0.1-1.6-0.4
								c-0.6-0.4-1.1-1.1-1.5-1.9s-0.7-1.8-1.3-2.6c-0.3-0.4-0.7-0.7-1.1-1c-0.4-0.2-0.9-0.3-1.3-0.4c-0.9-0.1-1.7,0-2.4-0.1
								c-0.7-0.1-1.2-0.3-1.6-0.5c-0.1-0.1-0.3-0.2-0.4-0.3C89,75.7,89,75.7,89,75.6c0,0,0.1,0.1,0.5,0.3c0.3,0.1,0.9,0.4,1.6,0.4
								c0.7,0.1,1.5,0,2.4,0.1c0.4,0.1,1,0.1,1.4,0.4c0.4,0.2,0.9,0.6,1.2,1c0.7,0.9,1,1.9,1.3,2.6c0.4,0.8,0.8,1.5,1.4,1.9
								c0.5,0.4,1.1,0.5,1.5,0.4C100.6,83,100.8,82.8,100.8,82.8z"/>
						</g>
					</g>
					<g>
						<g>
							<path class="st17" d="M100.4,81.6c0,0-0.1,0-0.1,0c-0.1,0-0.2,0-0.4-0.1c-0.4-0.1-0.8-0.4-1.3-0.9c-0.2-0.2-0.4-0.5-0.6-0.9
								c-0.2-0.4-0.4-0.7-0.5-1.1c-0.2-0.4-0.4-0.7-0.7-1.1c-0.1-0.1-0.3-0.4-0.4-0.5c-0.1-0.1-0.2-0.1-0.3-0.2
								c-0.1-0.1-0.2-0.1-0.3-0.2c-0.4-0.2-0.9-0.3-1.3-0.4s-0.9-0.1-1.3-0.1c-0.8,0-1.6,0-2.3-0.1c-0.7-0.1-1.2-0.3-1.5-0.4
								c-0.1-0.1-0.3-0.1-0.4-0.2c-0.1-0.1-0.1-0.1-0.1-0.1c0,0,0.1,0.1,0.5,0.3c0.3,0.1,0.8,0.3,1.5,0.4c0.7,0.1,1.4,0,2.3,0
								c0.4,0,0.9,0,1.3,0.1c0.4,0.1,1,0.1,1.4,0.4c0.1,0.1,0.2,0.1,0.3,0.2c0.1,0.1,0.2,0.1,0.3,0.2c0.1,0.1,0.4,0.4,0.5,0.5
								c0.3,0.4,0.5,0.8,0.7,1.2c0.2,0.4,0.4,0.7,0.5,1.1c0.1,0.3,0.4,0.6,0.6,0.9c0.4,0.5,0.9,0.7,1.2,0.9
								C100.3,81.6,100.4,81.6,100.4,81.6z"/>
						</g>
					</g>
					<path class="st17" d="M101.2,83.3c0,0-0.1-0.1-0.1-0.1c-0.1-0.1-0.2-0.3-0.4-0.5c-0.3-0.4-0.6-1.2-0.7-2c0-0.8,0.2-1.6,0.4-2.1
						c0.1-0.2,0.2-0.4,0.4-0.5c0.1-0.1,0.1-0.1,0.1-0.1s-0.2,0.3-0.4,0.7c-0.2,0.4-0.4,1.2-0.4,2c0,0.8,0.3,1.5,0.6,1.9
						C101,83,101.2,83.3,101.2,83.3z"/>
				</g>
			</g>
		</g>
	</g>
	<g id="Plant">
		<g>
			<g>
				<g>
					<g>
						<g>
							<g>
								<path class="st5" d="M172.4,128.6c2.2,0.8,5.2,0.1,7.1-1.3c1.9-1.4,3.3-3.4,4.5-5.5c0.5-0.9,1-1.8,1.2-2.8
									c0.1-1-0.1-2.2-0.9-2.8c-1.2-1-3-0.5-4.5,0.3C175.7,118.9,172.7,123.6,172.4,128.6"/>
							</g>
						</g>
					</g>
				</g>
				<g>
					<g>
						<g>
							<g>
								<path class="st5" d="M174.8,133.9c1.3,1.8,3.6,2.6,5.9,2.7c2.2,0.1,4.5-0.5,6.5-1.3c0.7-0.3,1.6-0.7,1.9-1.5
									c0.2-0.6,0-1.3-0.4-1.7c-0.4-0.4-1-0.8-1.5-1c-2.1-0.9-4.4-0.9-6.5-0.4S176.6,132.5,174.8,133.9"/>
							</g>
						</g>
					</g>
				</g>
				<g>
					<g>
						<g>
							<g>
								<path class="st5" d="M172.3,118.9c1.9,0.1,3.3-1.6,4.1-3.3c1.2-2.3,1.6-5,1.1-7.5c-0.1-1-0.5-2-1.4-2.5
									c-0.9-0.4-2-0.1-2.8,0.5s-1.1,1.6-1.4,2.5C171.1,112,171.3,115.7,172.3,118.9"/>
							</g>
						</g>
					</g>
				</g>
				<g>
					<g>
						<g>
							<g>
								<path class="st5" d="M166.2,129.1c3.2-5.4,3.7-12,1.9-18c-0.3-1-0.9-2.1-1.9-2.2c-1.1-0.1-1.9,1.2-2.2,2.2
									c-1.1,3.8-0.9,7.8-0.6,11.7C163.6,125.5,164.4,127.6,166.2,129.1"/>
							</g>
						</g>
					</g>
				</g>
				<g>
					<g>
						<g>
							<g>
								<path class="st5" d="M163,131.4c-1.1-3.7-4.1-6.8-7.7-8.2c-0.8-0.3-1.9-0.5-2.5,0.1s-0.4,1.7,0,2.5c0.7,1.3,1.7,2.3,2.7,3.3
									c1,0.9,1.9,1.8,3.1,2.3C159.7,132,161.9,132.1,163,131.4"/>
							</g>
						</g>
					</g>
				</g>
				<g>
					<g>
						<g>
							<g>
								<path class="st18" d="M182.7,117.5C182.7,117.5,182.6,117.5,182.7,117.5c-0.1,0.1-0.1,0.1-0.2,0.1c-0.1,0.1-0.4,0.3-0.7,0.5
									c-0.1,0.1-0.3,0.2-0.4,0.4c-0.1,0.1-0.4,0.3-0.5,0.4c-0.4,0.3-0.9,0.7-1.3,1.1c-0.2,0.2-0.5,0.4-0.7,0.7
									c-0.2,0.2-0.5,0.5-0.7,0.7c-0.5,0.5-1,1.1-1.6,1.8c-1.1,1.3-2.2,2.8-3.3,4.5c-1,1.7-1.9,3.3-2.5,4.9
									c-0.3,0.8-0.6,1.6-0.8,2.2c-0.1,0.4-0.2,0.7-0.4,1c-0.1,0.4-0.2,0.7-0.3,1c-0.2,0.6-0.3,1.2-0.4,1.7
									c-0.1,0.2-0.1,0.4-0.1,0.7c-0.1,0.2-0.1,0.4-0.1,0.6c-0.1,0.4-0.1,0.6-0.1,0.8c0,0.1,0,0.1-0.1,0.2c0,0.1,0,0.1,0,0.1
									s0,0,0-0.1s0-0.1,0-0.2c0-0.2,0.1-0.4,0.1-0.8c0-0.1,0.1-0.4,0.1-0.6c0.1-0.2,0.1-0.4,0.1-0.7c0.1-0.5,0.2-1.1,0.4-1.7
									c0.1-0.3,0.1-0.7,0.3-1c0.1-0.4,0.2-0.7,0.4-1c0.2-0.7,0.5-1.5,0.8-2.3c0.7-1.6,1.5-3.3,2.5-5c1-1.7,2.2-3.2,3.3-4.5
									c0.6-0.7,1.1-1.3,1.6-1.8c0.3-0.3,0.5-0.5,0.8-0.7c0.3-0.2,0.5-0.4,0.7-0.7c0.4-0.4,1-0.8,1.3-1.1c0.2-0.1,0.4-0.3,0.6-0.4
									c0.1-0.1,0.4-0.2,0.5-0.4c0.3-0.2,0.5-0.4,0.7-0.4C182.4,117.6,182.5,117.5,182.7,117.5
									C182.6,117.5,182.7,117.5,182.7,117.5z"/>
							</g>
						</g>
					</g>
				</g>
				<g>
					<g>
						<g>
							<g>
								<path class="st18" d="M186.8,132.5c0,0-0.1,0-0.2,0c-0.1,0-0.4-0.1-0.6-0.1c-0.5-0.1-1.3-0.2-2.3-0.3
									c-1.9-0.1-4.7,0.1-7.4,1.3c-2.8,1.1-4.9,3-6.2,4.4c-0.7,0.7-1.1,1.3-1.4,1.9c-0.1,0.2-0.3,0.4-0.4,0.5
									c-0.1,0.1-0.1,0.1-0.1,0.1s0-0.1,0.1-0.2c0.1-0.1,0.1-0.3,0.3-0.5c0.3-0.4,0.7-1.1,1.4-1.9c1.3-1.5,3.4-3.3,6.2-4.5
									c2.8-1.2,5.6-1.4,7.5-1.2c1,0.1,1.8,0.2,2.3,0.3c0.3,0.1,0.4,0.1,0.6,0.1C186.8,132.5,186.8,132.5,186.8,132.5z"/>
							</g>
						</g>
					</g>
				</g>
				<g>
					<g>
						<g>
							<g>
								<path class="st18" d="M175.1,107.8C175.1,107.8,175.1,107.8,175.1,107.8c0,0.1,0,0.2-0.1,0.3c-0.1,0.2-0.1,0.5-0.2,1
									c-0.1,0.8-0.4,2-0.8,3.4c-0.7,2.9-1.7,6.8-2.8,11.2c-0.5,2.2-1,4.3-1.4,6.2c-0.4,1.9-0.7,3.6-1,5.1
									c-0.1,0.7-0.2,1.4-0.4,1.9c-0.1,0.6-0.1,1.1-0.2,1.5c-0.1,0.4-0.1,0.7-0.1,1c0,0.1,0,0.1-0.1,0.2c0,0.1,0,0.1,0,0.1
									s0,0,0-0.1s0-0.1,0-0.2c0-0.2,0.1-0.5,0.1-1c0.1-0.4,0.1-0.9,0.2-1.5c0.1-0.6,0.1-1.3,0.3-2c0.2-1.5,0.6-3.2,1-5.1
									c0.4-1.9,0.9-4,1.4-6.2c1-4.4,2.1-8.3,2.8-11.2c0.4-1.4,0.7-2.6,0.9-3.4c0.1-0.4,0.1-0.7,0.2-0.9
									C175,108,175.1,108,175.1,107.8C175.1,107.8,175.1,107.8,175.1,107.8z"/>
							</g>
						</g>
					</g>
				</g>
				<g>
					<g>
						<g>
							<g>
								<path class="st18" d="M167.8,139.3L167.8,139.3c0-0.1-0.1-0.1-0.1-0.3c-0.1-0.1-0.1-0.4-0.1-0.7c-0.1-0.7-0.3-1.6-0.5-2.8
									c-0.4-2.4-0.9-5.7-1.2-9.2c-0.1-1.8-0.2-3.6-0.2-5.1c0-1.6,0-3,0-4.2c0-0.6,0.1-1.1,0.1-1.6c0-0.4,0.1-0.9,0.1-1.2
									c0-0.3,0.1-0.6,0.1-0.7c0-0.1,0-0.1,0-0.2s0-0.1,0-0.1s0,0,0,0.1s0,0.1,0,0.2c0,0.2,0,0.4-0.1,0.7c0,0.3-0.1,0.7-0.1,1.2
									c0,0.4-0.1,1-0.1,1.6c0,1.2-0.1,2.6,0,4.2c0.1,1.6,0.1,3.3,0.3,5.1c0.3,3.6,0.7,6.9,1.1,9.2c0.2,1.2,0.4,2.2,0.4,2.8
									c0.1,0.3,0.1,0.6,0.1,0.7C167.8,139.1,167.8,139.2,167.8,139.3L167.8,139.3z"/>
							</g>
						</g>
					</g>
				</g>
				<g>
					<g>
						<g>
							<g>
								<path class="st18" d="M168,140c0,0,0-0.1-0.1-0.2c-0.1-0.1-0.1-0.3-0.2-0.5c-0.1-0.1-0.1-0.2-0.1-0.4
									c-0.1-0.1-0.1-0.3-0.2-0.4s-0.1-0.4-0.2-0.5c-0.1-0.2-0.2-0.4-0.3-0.6s-0.2-0.4-0.3-0.6c-0.1-0.2-0.2-0.4-0.4-0.7
									c-0.2-0.4-0.6-1-0.9-1.4c-0.7-1-1.5-2-2.4-3s-1.9-1.9-2.8-2.8c-0.4-0.4-0.9-0.7-1.3-1.1c-0.2-0.1-0.4-0.3-0.6-0.4
									c-0.2-0.1-0.4-0.3-0.6-0.4c-0.4-0.3-0.7-0.5-1-0.7c-0.3-0.2-0.5-0.4-0.7-0.5c-0.2-0.1-0.4-0.2-0.5-0.3
									c-0.1-0.1-0.1-0.1-0.1-0.1s0.1,0,0.1,0.1c0.1,0.1,0.3,0.1,0.5,0.3s0.5,0.3,0.8,0.5c0.3,0.2,0.7,0.4,1,0.7
									c0.1,0.1,0.4,0.3,0.6,0.4c0.2,0.1,0.4,0.3,0.6,0.4c0.4,0.3,0.8,0.7,1.3,1.1c0.9,0.8,1.9,1.7,2.8,2.8c0.9,1,1.7,2.1,2.4,3
									c0.3,0.5,0.7,1,0.9,1.4c0.1,0.2,0.2,0.4,0.4,0.7c0.1,0.2,0.2,0.4,0.3,0.7s0.2,0.4,0.3,0.6c0.1,0.2,0.1,0.4,0.2,0.5
									c0.1,0.1,0.1,0.3,0.2,0.4c0.1,0.1,0.1,0.3,0.1,0.4c0.1,0.2,0.1,0.4,0.1,0.5C168,139.9,168,140,168,140z"/>
							</g>
						</g>
					</g>
				</g>
				<g>
					<g>
						<g>
							<g>
								<path class="st18" d="M181.5,123.8c0,0-0.4,0-1,0.1c-0.6,0-1.5,0.1-2.4,0.3c-0.9,0.1-1.8,0.4-2.3,0.6c-0.6,0.2-1,0.4-1,0.3
									c0,0,0.1-0.1,0.2-0.1c0.1-0.1,0.4-0.1,0.7-0.3c0.6-0.2,1.4-0.4,2.4-0.7c1-0.1,1.8-0.2,2.5-0.2c0.3,0,0.6,0,0.7,0
									C181.3,123.8,181.5,123.8,181.5,123.8z"/>
							</g>
						</g>
					</g>
				</g>
				<g>
					<g>
						<g>
							<g>
								<path class="st18" d="M183.9,135.5c-0.1,0-0.4-1-1.3-2c-0.9-1-1.9-1.4-1.9-1.5c0,0,0.3,0.1,0.7,0.3s0.9,0.6,1.3,1
									c0.4,0.5,0.7,1,1,1.4C183.8,135.2,183.9,135.5,183.9,135.5z"/>
							</g>
						</g>
					</g>
				</g>
				<g>
					<g>
						<g>
							<g>
								<path class="st18" d="M175.7,112.2c0,0-0.5,0.6-1.2,1.4c-0.7,0.8-1.1,1.5-1.1,1.5s0.4-0.7,1-1.6
									C175,112.7,175.7,112.2,175.7,112.2z"/>
							</g>
						</g>
					</g>
				</g>
				<g>
					<g>
						<g>
							<g>
								<path class="st18" d="M173.7,108.9c0.1,0,0.1,0.5,0.3,1.3c0.1,0.7,0.1,1.3,0.1,1.3c-0.1,0-0.1-0.5-0.3-1.3
									C173.8,109.4,173.7,108.9,173.7,108.9z"/>
							</g>
						</g>
					</g>
				</g>
				<g>
					<g>
						<g>
							<g>
								<path class="st18" d="M167.8,119.3c0,0-0.4,0.9-1,1.9c-0.5,1-1,1.9-1,1.9c0,0,0.4-0.9,1-1.9
									C167.3,120.1,167.8,119.3,167.8,119.3z"/>
							</g>
						</g>
					</g>
				</g>
				<g>
					<g>
						<g>
							<g>
								<path class="st18" d="M164.3,115.8c0,0,0.4,0.6,0.8,1.4c0.4,0.8,0.7,1.5,0.7,1.5s-0.4-0.6-0.8-1.4
									C164.5,116.4,164.2,115.8,164.3,115.8z"/>
							</g>
						</g>
					</g>
				</g>
				<g>
					<g>
						<g>
							<g>
								<path class="st18" d="M159.1,127.8c0,0.1-0.7-0.1-1.4-0.1c-0.8-0.1-1.4,0-1.4-0.1s0.7-0.1,1.4-0.1
									C158.4,127.6,159.1,127.8,159.1,127.8z"/>
							</g>
						</g>
					</g>
				</g>
			</g>
			<g>
				<g>
					<g>
						<g>
							<g>
								<path class="st9" d="M162.7,138.5l1.8,9.3c0.1,0.6,0.7,1,1.3,1h5.2c0.7,0,1.2-0.4,1.3-1.1l1.6-9.3L162.7,138.5L162.7,138.5z
									"/>
							</g>
						</g>
					</g>
				</g>
				<g>
					<g>
						<g>
							<g>
								<polygon class="st19" points="163.2,141.6 173.2,141.6 173.7,138.5 162.7,138.5 								"/>
							</g>
						</g>
					</g>
				</g>
				<g>
					<g>
						<g>
							<polygon class="st15" points="163.2,141.6 163.4,142.7 173.1,142.7 173.2,141.6 							"/>
						</g>
					</g>
				</g>
			</g>
		</g>
	</g>
	<g id="Background_Complete">
		<g>
			<g>
				<g>
					<g>
						<g>
							<g>
								<g>
									<g>
										<polygon class="st20" points="6.9,125.9 6.9,136 21.7,136 22.3,136 21.7,125.9 										"/>
									</g>
								</g>
							</g>
							<g>
								<g>
									<g>
										<g>
											<g>
												<polygon class="st20" points="2.2,138.8 2.2,148.9 16.8,148.9 17.5,148.9 16.9,138.8 												"/>
											</g>
										</g>
									</g>
								</g>
							</g>
						</g>
					</g>
				</g>
				<g>
					<g>
						<polygon class="st21" points="21.7,123.1 5.6,123.1 5.6,125.9 6.9,125.9 21.7,125.9 22.3,136 0.8,136 0.8,138.8 16.9,138.8 
							17.5,148.9 33.1,148.9 33.1,138.8 34.2,138.8 34.2,136 37.9,136 37.9,125.9 38.9,125.9 38.9,123.1 						"/>
					</g>
				</g>
				<g>
					<g>
						<g>
							<g>
								<g>
									<g>
										<rect x="10.4" y="131" class="st1" width="8" height="3.2"/>
									</g>
								</g>
							</g>
						</g>
					</g>
				</g>
			</g>
			<rect x="6.5" y="140.4" class="st21" width="6.2" height="1.5"/>
			<g>
				<g>
					<g>
						<g>
							<g>
								<g>
									<rect x="5.7" y="143.9" class="st1" width="8" height="3.2"/>
								</g>
							</g>
						</g>
					</g>
				</g>
			</g>
			<rect x="11.3" y="127.6" class="st21" width="6.2" height="1.5"/>
		</g>
		<path class="st21" d="M61.7,56L61.7,56L61.7,56c0.1-1,0-1.8,0-2.6v-0.1h-0.1c-0.5-0.1-1-0.2-1.5-0.3c-0.1-0.5-0.4-1-0.7-1.5
			c0.3-0.4,0.5-0.9,0.7-1.3v-0.1h-0.1c-0.7-0.6-1.3-1.2-1.9-1.8l0,0h-0.1c-0.4,0.3-0.9,0.6-1.3,0.8c-0.5-0.3-1-0.4-1.5-0.6
			c-0.1-0.5-0.2-1-0.4-1.5l0,0l0,0c-1,0-1.9,0.1-2.5,0.1l0,0l0,0c-0.1,0.6-0.2,1.1-0.3,1.5c-0.5,0.1-0.9,0.4-1.1,0.4
			c-0.1,0.1-0.2,0.1-0.3,0.1c-0.1,0-0.1,0.1-0.1,0.1l0,0c0,0,0,0-0.1-0.1c-0.1-0.1-0.1-0.1-0.2-0.1c-0.2-0.1-0.5-0.4-1-0.6l0,0l0,0
			c-0.4,0.4-1,1.1-1.8,1.8l0,0l0,0c0.2,0.4,0.5,0.8,0.8,1.3c-0.2,0.4-0.4,1-0.6,1.5c-0.4,0.1-1,0.2-1.5,0.4h-0.1v0.1
			c0,0.8,0,1.6,0.1,2.5v0.1h0.1c0.4,0.1,1,0.2,1.5,0.3c0.1,0.4,0.4,1,0.7,1.5c-0.2,0.4-0.5,0.8-0.7,1.3v0.1l0.1,0.1
			c0.6,0.5,1.2,1.2,1.9,1.8l0.1,0.1h0.1c0.4-0.2,0.8-0.5,1.3-0.8c0.4,0.2,1,0.4,1.5,0.6c0.1,0.4,0.2,1,0.4,1.5v0.1h0.1
			c0.8,0,1.6,0,2.5-0.1h0.1v-0.1c0.1-0.4,0.2-1,0.3-1.5c0.5-0.1,1-0.4,1.5-0.6c0.4,0.2,0.9,0.5,1.3,0.7H59l0.1-0.1
			c0.6-0.6,1.2-1.3,1.8-1.9l0.1-0.1v-0.1c-0.3-0.4-0.5-0.8-0.8-1.3c0.2-0.4,0.4-1,0.6-1.5C60.8,56.2,61.3,56.1,61.7,56z M52.8,52.4
			c0.4-0.2,1-0.4,1.7-0.4c0.4,0.1,0.8,0.1,1.1,0.4c0.4,0.2,0.7,0.6,0.9,1c0.1,0.2,0.2,0.4,0.2,0.7c0.1,0.2,0.1,0.5,0,0.8
			c-0.1,0.5-0.3,1-0.7,1.5c-0.4,0.4-0.9,0.7-1.5,0.7c-0.3,0.1-0.5,0.1-0.8,0c-0.2,0-0.5-0.1-0.7-0.2c-0.4-0.2-0.8-0.5-1.1-0.9
			c-0.3-0.4-0.4-0.7-0.4-1.1c-0.1-0.7,0.1-1.4,0.3-1.8s0.4-0.5,0.4-0.5C52.3,52.8,52.4,52.6,52.8,52.4z M51.3,49.2L51.3,49.2
			c-0.1,0-0.1,0.1-0.1,0.1C51.1,49.3,51.2,49.3,51.3,49.2z M50.9,49.4L50.9,49.4L50.9,49.4L50.9,49.4z"/>
		<g>
			<path class="st20" d="M132.1,69.9L132.1,69.9L132.1,69.9c-0.3-0.1-0.6-0.1-0.9-0.2c-0.1-0.3-0.2-0.6-0.4-0.9
				c0.1-0.3,0.3-0.5,0.4-0.7l0,0l0,0c-0.4-0.4-0.7-0.7-1.1-1l0,0l0,0c-0.3,0.1-0.5,0.4-0.7,0.5c-0.3-0.1-0.6-0.3-0.9-0.4
				c-0.1-0.3-0.1-0.6-0.2-0.9l0,0l0,0c-0.6,0-1.1,0-1.5,0l0,0l0,0c-0.1,0.4-0.1,0.7-0.1,0.9c-0.3,0.1-0.5,0.2-0.7,0.3
				c-0.1,0.1-0.1,0.1-0.1,0.1h-0.1c0,0,0,0-0.1,0c0,0-0.1-0.1-0.1-0.1c-0.1-0.1-0.3-0.2-0.6-0.4l0,0l0,0c-0.3,0.3-0.6,0.7-1,1.1l0,0
				l0,0c0.1,0.2,0.3,0.5,0.5,0.7c-0.1,0.3-0.3,0.6-0.4,0.9c-0.3,0.1-0.6,0.1-0.9,0.2l0,0l0,0c0,0.4,0,1,0,1.5l0,0l0,0
				c0.3,0.1,0.6,0.1,0.9,0.1c0.1,0.3,0.2,0.6,0.4,0.9c-0.1,0.2-0.3,0.5-0.4,0.7l0,0l0,0c0.4,0.3,0.7,0.7,1.1,1l0,0l0,0
				c0.2-0.1,0.5-0.3,0.7-0.5c0.3,0.1,0.6,0.3,0.9,0.4c0.1,0.3,0.1,0.6,0.2,0.9l0,0l0,0c0.4,0,1,0,1.5,0l0,0l0,0
				c0.1-0.3,0.1-0.6,0.1-0.9c0.3-0.1,0.6-0.2,0.9-0.4c0.2,0.1,0.5,0.3,0.7,0.4l0,0l0,0c0.4-0.4,0.7-0.7,1-1.1l0,0l0,0
				c-0.1-0.2-0.3-0.5-0.5-0.7c0.1-0.3,0.3-0.6,0.4-0.9c0.3-0.1,0.6-0.1,0.9-0.2l0,0l0,0C132.1,70.9,132.1,70.4,132.1,69.9z
				 M126.7,69.3c0.2-0.1,0.6-0.3,1-0.2c0.2,0,0.4,0.1,0.7,0.2c0.2,0.1,0.4,0.4,0.5,0.7c0.1,0.1,0.1,0.3,0.1,0.4s0,0.3,0,0.4
				c-0.1,0.3-0.2,0.7-0.4,0.9c-0.2,0.2-0.5,0.4-0.9,0.4c-0.1,0-0.3,0-0.4,0c-0.1,0-0.3-0.1-0.4-0.1c-0.3-0.1-0.5-0.3-0.7-0.5
				c-0.1-0.2-0.2-0.4-0.3-0.7c-0.1-0.4,0.1-0.8,0.1-1c0.1-0.2,0.2-0.3,0.2-0.3C126.4,69.6,126.5,69.4,126.7,69.3z M125.8,67.4
				L125.8,67.4C125.8,67.4,125.8,67.4,125.8,67.4C125.8,67.4,125.8,67.4,125.8,67.4z"/>
			<path class="st20" d="M112.1,22.7L112.1,22.7L112.1,22.7c-0.3-0.1-0.6-0.1-0.9-0.2c-0.1-0.3-0.2-0.6-0.4-0.9
				c0.1-0.3,0.3-0.5,0.4-0.7l0,0l0,0c-0.4-0.4-0.7-0.7-1.1-1l0,0l0,0c-0.3,0.1-0.5,0.4-0.7,0.5c-0.3-0.1-0.6-0.3-0.9-0.4
				c-0.1-0.3-0.1-0.6-0.2-0.9l0,0l0,0c-0.6,0-1.1,0-1.5,0l0,0l0,0c-0.1,0.4-0.1,0.7-0.1,0.9c-0.3,0.1-0.5,0.2-0.7,0.3
				c-0.1,0.1-0.1,0.1-0.1,0.1h-0.1l0,0l0,0l0,0l0,0c0,0,0,0-0.1,0c0,0-0.1-0.1-0.1-0.1c-0.1-0.1-0.3-0.2-0.6-0.4l0,0l0,0
				c-0.3,0.3-0.6,0.7-1,1.1l0,0l0,0c0.1,0.2,0.3,0.5,0.5,0.7c-0.1,0.3-0.3,0.6-0.4,0.9c-0.3,0.1-0.6,0.1-0.9,0.2l0,0l0,0
				c0,0.4,0,1,0,1.5l0,0l0,0c0.3,0.1,0.6,0.1,0.9,0.1c0.1,0.3,0.2,0.6,0.4,0.9c-0.1,0.2-0.3,0.5-0.4,0.7l0,0l0,0
				c0.4,0.3,0.7,0.7,1.1,1l0,0l0,0c0.2-0.1,0.5-0.3,0.7-0.5c0.3,0.1,0.6,0.3,0.9,0.4c0.1,0.3,0.1,0.6,0.2,0.9l0,0l0,0
				c0.4,0,1,0,1.5,0l0,0l0,0c0.1-0.3,0.1-0.6,0.1-0.9c0.3-0.1,0.6-0.2,0.9-0.4c0.2,0.1,0.5,0.3,0.7,0.4l0,0l0,0
				c0.4-0.4,0.7-0.7,1-1.1l0,0l0,0c-0.1-0.2-0.3-0.5-0.5-0.7c0.1-0.3,0.3-0.6,0.4-0.9c0.3-0.1,0.6-0.1,0.9-0.2l0,0l0,0
				C112.1,23.6,112.1,23.2,112.1,22.7z M106.7,22.1c0.2-0.1,0.6-0.3,1-0.2c0.2,0,0.4,0.1,0.7,0.2c0.2,0.1,0.4,0.4,0.5,0.7
				c0.1,0.1,0.1,0.3,0.1,0.4c0,0.1,0,0.3,0,0.4c-0.1,0.3-0.2,0.7-0.4,0.9c-0.2,0.2-0.5,0.4-0.9,0.4c-0.1,0-0.3,0-0.4,0
				c-0.1,0-0.3-0.1-0.4-0.1c-0.3-0.1-0.5-0.3-0.7-0.5c-0.1-0.2-0.2-0.4-0.3-0.7c-0.1-0.4,0.1-0.8,0.1-1c0.1-0.2,0.2-0.3,0.2-0.3
				C106.4,22.4,106.5,22.2,106.7,22.1z M105.8,20.2L105.8,20.2C105.8,20.2,105.7,20.2,105.8,20.2C105.7,20.2,105.8,20.2,105.8,20.2z
				"/>
			<path class="st20" d="M42.3,49.5L42.3,49.5L42.3,49.5c-0.3-0.1-0.6-0.1-0.9-0.2c-0.1-0.3-0.2-0.6-0.4-0.9
				c0.1-0.3,0.3-0.5,0.4-0.7l0,0l0,0c-0.4-0.4-0.7-0.7-1.1-1l0,0l0,0c-0.3,0.1-0.5,0.4-0.7,0.5c-0.3-0.1-0.6-0.3-0.9-0.4
				c-0.1-0.3-0.1-0.6-0.2-0.9l0,0l0,0c-0.6,0-1.1,0-1.5,0l0,0l0,0c-0.1,0.4-0.1,0.7-0.1,0.9c-0.3,0.1-0.5,0.2-0.7,0.3
				c-0.1,0.1-0.1,0.1-0.1,0.1h-0.1c0,0,0,0-0.1,0c0,0-0.1-0.1-0.1-0.1c-0.1-0.1-0.3-0.2-0.6-0.4l0,0l0,0c-0.3,0.3-0.6,0.7-1,1.1l0,0
				l0,0c0.1,0.2,0.3,0.5,0.5,0.7c-0.1,0.3-0.3,0.6-0.4,0.9c-0.3,0.1-0.6,0.1-0.9,0.2l0,0l0,0c0,0.4,0,1,0,1.5l0,0l0,0
				c0.3,0.1,0.6,0.1,0.9,0.1c0.1,0.3,0.2,0.6,0.4,0.9c-0.1,0.2-0.3,0.5-0.4,0.7l0,0l0,0c0.4,0.3,0.7,0.7,1.1,1l0,0l0,0
				c0.2-0.1,0.5-0.3,0.7-0.5c0.3,0.1,0.6,0.3,0.9,0.4c0.1,0.3,0.1,0.6,0.2,0.9l0,0l0,0c0.4,0,1,0,1.5,0l0,0l0,0
				c0.1-0.3,0.1-0.6,0.1-0.9c0.3-0.1,0.6-0.2,0.9-0.4c0.2,0.1,0.5,0.3,0.7,0.4l0,0l0,0c0.4-0.4,0.7-0.7,1-1.1l0,0l0,0
				c-0.1-0.2-0.3-0.5-0.5-0.7c0.1-0.3,0.3-0.6,0.4-0.9c0.3-0.1,0.6-0.1,0.9-0.2l0,0l0,0C42.3,50.5,42.3,50,42.3,49.5z M36.9,49
				c0.2-0.1,0.6-0.3,1-0.2c0.2,0,0.4,0.1,0.7,0.2c0.2,0.1,0.4,0.4,0.5,0.7c0.1,0.1,0.1,0.3,0.1,0.4c0,0.1,0,0.3,0,0.4
				c-0.1,0.3-0.2,0.7-0.4,0.9c-0.2,0.2-0.5,0.4-0.9,0.4c-0.1,0-0.3,0-0.4,0c-0.1,0-0.3-0.1-0.4-0.1c-0.3-0.1-0.5-0.3-0.7-0.5
				c-0.1-0.2-0.2-0.4-0.3-0.7c-0.1-0.4,0.1-0.8,0.1-1c0.1-0.2,0.2-0.3,0.2-0.3C36.5,49.2,36.7,49.1,36.9,49z M35.9,47L35.9,47
				C35.9,47,35.9,47,35.9,47C35.9,47,35.9,47,35.9,47z"/>
		</g>
		<path class="st20" d="M145.9,16.6L145.9,16.6L145.9,16.6c0-0.7,0-1.4,0-2v-0.1h-0.1c-0.4-0.1-0.7-0.1-1.1-0.2
			c-0.1-0.4-0.3-0.7-0.5-1.1c0.2-0.4,0.4-0.7,0.6-1l0,0l0,0c-0.5-0.4-1-1-1.4-1.3l0,0l0,0c-0.4,0.2-0.7,0.4-1,0.7
			c-0.4-0.2-0.7-0.4-1.2-0.4c-0.1-0.4-0.2-0.7-0.3-1.1l0,0l0,0c-0.7,0-1.4,0-1.9,0.1l0,0l0,0c-0.1,0.4-0.1,0.8-0.2,1.1
			c-0.4,0.1-0.7,0.3-0.9,0.4c-0.1,0.1-0.1,0.1-0.2,0.1c-0.1,0-0.1,0.1-0.1,0.1l0,0l0,0l0,0l0,0c0,0,0,0-0.1-0.1
			c-0.1,0-0.1-0.1-0.2-0.1c-0.1-0.1-0.4-0.3-0.7-0.4l0,0l0,0c-0.4,0.4-0.8,0.8-1.3,1.4l0,0l0,0c0.2,0.3,0.4,0.6,0.7,1
			c-0.2,0.4-0.4,0.7-0.4,1.2c-0.4,0.1-0.7,0.1-1.1,0.3l0,0l0,0c0,0.6,0,1.3,0,1.9V17l0,0c0.4,0.1,0.7,0.1,1.1,0.2
			c0.1,0.4,0.3,0.7,0.5,1.1c-0.2,0.3-0.4,0.7-0.6,1l0,0l0,0c0.4,0.4,0.9,0.9,1.4,1.3l0,0h0.1c0.3-0.2,0.6-0.4,1-0.6
			c0.4,0.1,0.7,0.4,1.1,0.4c0.1,0.4,0.1,0.7,0.3,1.1v0.1h0.1c0.6,0,1.3,0,1.9,0h0.1v-0.1c0.1-0.4,0.1-0.7,0.2-1.1
			c0.4-0.1,0.7-0.3,1.1-0.5c0.3,0.2,0.7,0.4,1,0.6h0.1l0,0c0.4-0.4,0.9-1,1.3-1.4l0,0v-0.1c-0.2-0.3-0.4-0.7-0.6-1
			c0.2-0.4,0.4-0.7,0.4-1.1C145.2,16.9,145.6,16.8,145.9,16.6z M139,13.9c0.3-0.1,0.7-0.4,1.3-0.3c0.3,0.1,0.6,0.1,0.9,0.3
			c0.3,0.2,0.5,0.4,0.7,0.8c0.1,0.1,0.1,0.4,0.1,0.6c0,0.2,0.1,0.4,0,0.6c-0.1,0.4-0.2,0.8-0.5,1.1c-0.3,0.3-0.7,0.5-1.1,0.6
			c-0.2,0.1-0.4,0.1-0.6,0c-0.2,0-0.4-0.1-0.6-0.1c-0.4-0.1-0.7-0.4-0.8-0.7c-0.2-0.3-0.3-0.6-0.4-0.9c-0.1-0.6,0.1-1,0.2-1.3
			s0.3-0.4,0.3-0.4C138.6,14.2,138.8,14.1,139,13.9z M137.9,11.4L137.9,11.4c0,0-0.1,0.1-0.1,0.1C137.7,11.5,137.8,11.5,137.9,11.4z
			"/>
		<path class="st22" d="M42.9,70.8c0,0-0.1,0-0.1-0.1c-0.1-0.1-0.3-0.1-0.4-0.3c-0.4-0.2-1-0.6-1.9-1.1h0.1c-0.8,0.9-2,2.1-3.3,3.5
			v-0.1c0.5,0.7,1,1.6,1.6,2.5v0.1v0.1c-0.4,0.9-0.9,1.9-1.1,2.9v0.1h-0.1c-0.9,0.2-1.9,0.4-2.8,0.7l0.1-0.1c0,1.5,0.1,3.1,0.1,4.8
			l-0.1-0.1c0.9,0.1,1.9,0.4,2.8,0.6h0.1v0.1c0.3,1,0.7,1.9,1.3,2.8l0.1,0.1L39,87.3c-0.4,0.7-1,1.6-1.5,2.5v-0.1
			c1.1,1,2.3,2.2,3.5,3.3h-0.1c0.7-0.5,1.6-1,2.5-1.6l0.1-0.1l0.1,0.1c0.8,0.4,1.9,0.9,2.9,1.1h0.1v0.1c0.2,0.9,0.4,1.9,0.7,2.8
			l-0.1-0.1c1.6,0,3.2-0.1,4.8-0.1l-0.1,0.1c0.2-0.9,0.4-1.9,0.6-2.8v-0.1h0.1c1-0.3,1.9-0.7,2.8-1.3l0,0l0.1-0.1l0.1,0.1
			c0.8,0.5,1.6,1,2.5,1.5h-0.1c1.1-1.2,2.2-2.3,3.3-3.5v0.1c-0.5-0.8-1-1.6-1.6-2.5l-0.1-0.1l0.1-0.1c0.5-0.9,0.9-1.9,1.1-2.9v-0.1
			h0.1c1-0.2,1.9-0.4,2.8-0.7l-0.1,0.1c0-1.6-0.1-3.3-0.1-4.8l0.1,0.1c-1-0.2-1.9-0.4-2.8-0.6h-0.1v-0.1c-0.3-1-0.7-2-1.3-2.8
			L59.1,75l0.1-0.1c0.5-0.8,1-1.7,1.5-2.5v0.1c-1.2-1.2-2.4-2.3-3.5-3.3h0.1c-0.9,0.6-1.6,1.1-2.5,1.6h-0.1h-0.1
			c-1-0.5-1.9-0.9-2.9-1.1h-0.1v-0.1c-0.2-1-0.4-1.9-0.7-2.8l0.1,0.1c-1.9,0-3.5,0.1-4.8,0.1l0.1-0.1c-0.2,1.1-0.4,2.1-0.6,2.8l0,0
			l0,0c-1,0.3-1.7,0.6-2.2,0.8c-0.2,0.1-0.4,0.2-0.5,0.3C42.9,70.8,42.9,70.8,42.9,70.8s0.1-0.1,0.1-0.1c0.1-0.1,0.3-0.1,0.5-0.3
			c0.4-0.2,1.2-0.6,2.2-0.9l0,0c0.1-0.7,0.4-1.7,0.6-2.8v-0.1h0.1c1.3,0,3-0.1,4.8-0.1h0.1v0.1c0.2,0.9,0.4,1.8,0.7,2.8l-0.1-0.1
			c1,0.2,1.9,0.6,3,1.2h-0.1c0.7-0.5,1.6-1,2.5-1.6l0.1-0.1l0.1,0.1c1.1,1,2.2,2.2,3.5,3.3l0.1,0.1l-0.1,0.1c-0.5,0.8-1,1.6-1.5,2.5
			v-0.1c0.5,0.9,1,1.9,1.3,2.9l-0.1-0.1c1,0.2,1.9,0.4,2.8,0.6h0.1v0.1c0,1.6,0.1,3.2,0.1,4.8v0.1h-0.1c-1,0.2-1.9,0.4-2.8,0.7
			l0.1-0.1c-0.2,1-0.7,2-1.2,3v-0.1c0.5,0.8,1,1.6,1.6,2.5l0.1,0.1l-0.1,0.1c-1.1,1.1-2.2,2.3-3.3,3.5l-0.1,0.1l-0.1-0.1
			c-0.8-0.5-1.6-1-2.5-1.5h0.1l0,0c-1,0.6-1.9,1-2.9,1.3l0.1-0.1c-0.2,1-0.4,1.9-0.6,2.8v0.1h-0.1c-1.6,0-3.3,0.1-4.8,0.1h-0.1v-0.1
			c-0.2-1-0.4-1.9-0.7-2.8l0.1,0.1c-1-0.3-2.1-0.7-3-1.2h0.1c-0.8,0.5-1.7,1.1-2.5,1.6l-0.1,0.1L40.8,93c-1.2-1.2-2.4-2.3-3.5-3.3
			l-0.1-0.1l0.1-0.1c0.5-0.9,1-1.7,1.5-2.5v0.1c-0.6-1-1-1.9-1.3-2.9l0.1,0.1c-1-0.2-2-0.4-2.8-0.6h-0.1v-0.1c0-1.7-0.1-3.3-0.1-4.8
			v-0.1h0.1c1-0.2,1.9-0.4,2.8-0.7l-0.1,0.1c0.3-1.1,0.7-2.1,1.2-3v0.1c-0.6-0.9-1.1-1.7-1.6-2.5v-0.1l0.1-0.1
			c1.3-1.4,2.5-2.6,3.3-3.4l0,0l0,0c0.8,0.5,1.4,0.9,1.9,1.1c0.2,0.1,0.4,0.2,0.4,0.3C42.9,70.8,42.9,70.8,42.9,70.8z"/>
		<path class="st22" d="M45.5,77.3c0,0,0.3-0.4,1-0.8c0.7-0.4,1.9-1,3.3-0.8c0.7,0.1,1.6,0.3,2.3,0.8c0.7,0.5,1.4,1.2,1.9,2.1
			c0.2,0.4,0.4,1,0.4,1.5s0.1,1,0,1.6c-0.1,1.1-0.7,2.2-1.4,3c-0.8,0.8-1.9,1.3-2.9,1.6c-0.5,0.1-1,0.1-1.6,0s-1-0.2-1.5-0.4
			c-0.9-0.4-1.6-1-2.2-1.8c-0.5-0.7-0.8-1.6-0.9-2.2c-0.2-1.5,0.2-2.7,0.7-3.4S45.5,77.3,45.5,77.3s-0.3,0.4-0.7,1
			c-0.4,0.7-0.8,1.9-0.6,3.3c0.1,0.7,0.4,1.5,0.9,2.2c0.5,0.7,1.2,1.3,2.1,1.7c0.4,0.2,0.9,0.3,1.4,0.4s1,0.1,1.5,0
			c1-0.1,2-0.7,2.8-1.5c0.7-0.8,1.3-1.8,1.3-2.8c0.1-0.5,0.1-1,0-1.5c-0.1-0.5-0.2-1-0.4-1.4c-0.4-0.9-1-1.6-1.7-2
			c-0.7-0.4-1.5-0.7-2.2-0.8c-1.4-0.1-2.6,0.3-3.3,0.7C45.8,76.9,45.5,77.3,45.5,77.3z"/>
		<path class="st21" d="M135.7,29.5L135.7,29.5L135.7,29.5c-0.2-1.2-0.4-2.2-0.7-3.2v-0.1H135c-0.7,0-1.3,0-1.9,0.1
			c-0.4-0.7-0.7-1.2-1.2-1.6c0.2-0.7,0.4-1.3,0.6-1.9v-0.1h-0.1c-1.1-0.7-2-1.2-2.8-1.6l0,0l0,0c-0.5,0.6-1,1-1.3,1.4
			c-0.7-0.2-1.2-0.2-1.6-0.3c-0.1,0-0.3,0-0.4,0c-0.1,0-0.1,0-0.1,0l0,0l0,0l0,0l0,0c0,0,0-0.1-0.1-0.1c-0.1-0.1-0.1-0.2-0.1-0.4
			c-0.1-0.3-0.4-0.7-0.7-1.3l0,0l0,0c-0.8,0.2-1.9,0.4-3.1,0.7h-0.1v0.1c0,0.6,0,1.3,0,1.9c-0.6,0.3-1.1,0.7-1.6,1.2
			c-0.6-0.2-1.2-0.4-1.9-0.6h-0.1v0.1c-0.5,0.9-1.1,1.8-1.7,2.8v0.1l0.1,0.1c0.4,0.4,0.9,0.9,1.4,1.3c-0.1,0.6-0.3,1.3-0.3,2
			c-0.5,0.3-1.1,0.5-1.7,0.8h-0.1v0.1c0.2,1,0.5,2.1,0.7,3.1v0.1h0.1c0.6,0,1.3,0,1.9,0c0.3,0.5,0.7,1.1,1.2,1.6
			c-0.2,0.6-0.4,1.2-0.6,1.8v0.1l0.1,0.1c0.9,0.5,1.8,1.1,2.8,1.7l0.1,0.1l0.1-0.1c0.4-0.4,0.9-0.9,1.3-1.3c0.6,0.1,1.3,0.3,2,0.3
			c0.3,0.6,0.6,1.1,0.8,1.7v0.1h0.1c1-0.3,2.1-0.5,3.1-0.7h0.1v-0.1c0-0.7,0-1.3,0-1.9c0.6-0.3,1.1-0.7,1.6-1.2
			c0.6,0.2,1.2,0.4,1.8,0.6h0.1l0.1-0.1c0.6-1,1.1-1.9,1.7-2.8l0.1-0.1l-0.1-0.1c-0.4-0.4-0.9-0.9-1.4-1.3c0.2-0.7,0.3-1.3,0.3-2
			C134.6,30.1,135.2,29.8,135.7,29.5z M126.1,26.7c0.5,0,1.3,0.1,2.2,0.8c0.4,0.3,0.7,0.7,1,1.3c0.2,0.5,0.4,1.1,0.3,1.8
			c0,0.3-0.1,0.7-0.2,1c-0.1,0.3-0.3,0.6-0.5,0.9c-0.4,0.5-1,1-1.8,1.1c-0.7,0.1-1.5,0.1-2.1-0.1c-0.3-0.1-0.6-0.3-0.9-0.5
			c-0.2-0.2-0.4-0.4-0.7-0.7c-0.4-0.5-0.5-1.1-0.6-1.7c-0.1-0.6,0.1-1.1,0.3-1.6c0.4-0.9,1-1.4,1.5-1.7c0.4-0.3,0.8-0.3,0.8-0.4
			C125.2,26.7,125.5,26.7,126.1,26.7z M126.6,22.2C126.7,22.2,126.7,22.2,126.6,22.2c-0.1,0-0.1,0-0.3,0
			C126.4,22.2,126.5,22.2,126.6,22.2z"/>
		<g>
			<g>
				<g>
					<g>
						<g>
							<path class="st22" d="M135.2,84c0,0,0.3-0.1,0.9-0.1c0.5,0,1.4,0.1,2.2,0.7c0.4,0.3,0.7,0.7,1,1.3c0.2,0.5,0.4,1.2,0.3,1.9
								c0,0.4-0.1,0.7-0.2,1c-0.1,0.3-0.3,0.7-0.6,0.9c-0.4,0.6-1.1,1-1.9,1.2c-0.7,0.1-1.6,0.1-2.2-0.1c-0.4-0.1-0.7-0.3-0.9-0.6
								c-0.3-0.2-0.5-0.5-0.7-0.7c-0.4-0.6-0.5-1.2-0.6-1.8c0-0.6,0.1-1.2,0.3-1.6c0.4-1,1.1-1.5,1.6-1.7
								C134.9,84,135.2,84,135.2,84s-0.3,0.1-0.8,0.4c-0.4,0.2-1.1,0.8-1.6,1.7c-0.2,0.4-0.3,1-0.3,1.6c0.1,0.6,0.2,1.2,0.6,1.7
								c0.1,0.3,0.4,0.5,0.7,0.7c0.2,0.2,0.5,0.4,0.9,0.5c0.7,0.3,1.4,0.3,2.2,0.1c0.7-0.1,1.3-0.6,1.8-1.1c0.2-0.3,0.4-0.6,0.5-0.9
								c0.1-0.3,0.2-0.6,0.2-1c0.1-0.7-0.1-1.3-0.3-1.8c-0.2-0.5-0.6-1-1-1.3c-0.7-0.6-1.6-0.8-2.2-0.8
								C135.5,83.9,135.2,84,135.2,84z"/>
						</g>
					</g>
				</g>
				<g>
					<g>
						<g>
							<path class="st22" d="M136,79.4C136,79.4,136,79.4,136,79.4c-0.1-0.1-0.1-0.3-0.2-0.4c-0.1-0.3-0.4-0.7-0.7-1.3l0,0
								c-0.8,0.2-1.9,0.4-3.2,0.8l0.1-0.1c0,0.6,0,1.3,0.1,2l0,0l0,0c-0.6,0.3-1.2,0.7-1.7,1.3l0,0h-0.1c-0.6-0.2-1.2-0.4-1.9-0.6
								h0.1c-0.5,0.9-1.1,1.8-1.7,2.8v-0.1c0.4,0.4,0.9,0.9,1.4,1.3l0,0v0.1c-0.1,0.6-0.3,1.3-0.3,2.1v0.1h-0.1
								c-0.5,0.3-1.2,0.6-1.8,0.9l0.1-0.1c0.2,1,0.5,2.1,0.8,3.2l-0.1-0.1c0.6,0,1.3,0,2,0h0.1v0.1c0.3,0.6,0.7,1.2,1.3,1.7l0.1,0.1
								v0.1c-0.2,0.6-0.4,1.3-0.6,1.9l-0.1-0.1c0.9,0.5,1.9,1.1,2.8,1.7h-0.1c0.4-0.4,0.9-1,1.3-1.4l0.1-0.1h0.1
								c0.7,0.2,1.3,0.3,2.1,0.3l0,0h0.1v0.1c0.3,0.6,0.6,1.2,0.9,1.8l-0.1-0.1c1-0.3,2.2-0.5,3.2-0.7l-0.1,0.1c0-0.7,0-1.3,0-2
								v-0.1h0.1c0.6-0.4,1.2-0.7,1.7-1.3l0.1-0.1h0.1c0.7,0.2,1.3,0.4,1.9,0.6l-0.1,0.1c0.6-1,1.1-1.9,1.7-2.8v0.1
								c-0.4-0.4-1-0.9-1.4-1.4l-0.1-0.1v-0.1c0.2-0.7,0.3-1.4,0.3-2.1v-0.1h0.1c0.6-0.3,1.2-0.6,1.8-0.9l-0.1,0.1
								c-0.3-1.1-0.5-2.2-0.7-3.2l0.1,0.1c-0.7,0-1.3,0-2,0H143v-0.1c-0.4-0.7-0.8-1.3-1.3-1.7l0,0v-0.1c0.2-0.7,0.4-1.3,0.7-1.9
								v0.1c-1.1-0.7-2-1.3-2.8-1.7h0.1c-0.5,0.6-1,1-1.4,1.4l0,0l0,0c-0.7-0.2-1.2-0.3-1.6-0.3c-0.1,0-0.3,0-0.4,0
								C136.1,79.4,136,79.4,136,79.4s0.1,0,0.1,0c0.1,0,0.2,0,0.4,0c0.4,0,0.9,0.1,1.6,0.3l0,0c0.4-0.4,0.8-0.9,1.3-1.4l0,0l0,0
								c0.8,0.4,1.7,1,2.8,1.7h0.1v0.1c-0.2,0.6-0.4,1.2-0.6,1.9v-0.1c0.4,0.5,0.9,1,1.3,1.7l-0.1-0.1c0.6,0,1.3,0,2-0.1h0.1v0.1
								c0.2,1,0.5,2.1,0.8,3.2v0.1h-0.1c-0.6,0.3-1.2,0.6-1.8,0.9l0.1-0.1c0,0.7-0.1,1.4-0.3,2.2v-0.1c0.4,0.4,1,0.9,1.4,1.3
								l0.1,0.1l-0.1,0.1c-0.5,0.9-1.1,1.9-1.7,2.8l-0.1,0.1h-0.1c-0.6-0.2-1.3-0.4-1.9-0.6h0.1c-0.5,0.5-1.1,1-1.7,1.3l0.1-0.1
								c0,0.7,0,1.3,0,2v0.1h-0.1c-1,0.2-2.1,0.5-3.2,0.8h-0.1v-0.1c-0.3-0.6-0.6-1.2-0.9-1.8l0.1,0.1l0,0c-0.7,0-1.5-0.1-2.2-0.3
								h0.1c-0.4,0.5-1,1-1.4,1.4l-0.1,0.1l-0.1-0.1c-1-0.6-1.9-1.2-2.8-1.7l-0.1-0.1V95c0.2-0.7,0.4-1.3,0.6-1.9v0.1
								c-0.5-0.5-1-1.1-1.3-1.7l0.1,0.1c-0.7,0-1.3,0-2,0h-0.1v-0.1c-0.3-1.1-0.5-2.2-0.7-3.2v-0.1h0.1c0.6-0.3,1.2-0.6,1.8-0.9
								l-0.1,0.1c0-0.7,0.1-1.5,0.3-2.2v0.1c-0.5-0.4-1-1-1.4-1.4l-0.1-0.1v-0.1c0.6-1,1.2-1.9,1.7-2.8v-0.1h0.1
								c0.7,0.2,1.3,0.4,1.9,0.7h-0.1c0.5-0.5,1.1-1,1.7-1.3v0.1c0-0.7,0-1.4,0-2v-0.1h0.1c1.3-0.3,2.4-0.6,3.2-0.7l0,0l0,0
								c0.3,0.6,0.5,1,0.7,1.3c0.1,0.1,0.1,0.2,0.1,0.4C136,79.3,136,79.4,136,79.4z"/>
						</g>
					</g>
				</g>
			</g>
		</g>
	</g>
	<g id="Floor">
		<g>
			<g>
				<path class="st2" d="M184.4,148.9c0,0.1-63.4,0.1-105,0.1s-75.3-0.1-75.3-0.1c0-0.1,33.7-0.1,75.3-0.1S184.4,148.9,184.4,148.9z
					"/>
			</g>
		</g>
	</g>
</g>
</svg>
