<?xml version="1.0" encoding="utf-8"?>
<!-- Generator: Adobe Illustrator 23.0.1, SVG Export Plug-In . SVG Version: 6.00 Build 0)  -->
<svg version="1.1" id="Layer_1" xmlns="http://www.w3.org/2000/svg" xmlns:xlink="http://www.w3.org/1999/xlink" x="0px" y="0px"
	 width="540px" height="370px" viewBox="0 0 540 370" style="enable-background:new 0 0 540 370;" xml:space="preserve">
<style type="text/css">
	.st0{fill:#FCF8F7;}
	.st1{fill:#661C11;}
	.st2{fill-rule:evenodd;clip-rule:evenodd;fill:#E06657;}
	.st3{fill:#FFFFFF;}
	.st4{fill:#263238;}
	.st5{fill:none;stroke:#4E585D;stroke-width:5.000000e-02;stroke-miterlimit:10;}
	.st6{fill:#E06657;}
	.st7{fill:#EFC1BB;}
	.st8{fill:#9F1C0E;}
	.st9{fill:#BD3A2B;}
	.st10{fill:#6F1508;}
	.st11{fill:#941808;}
	.st12{fill:#EDB6AF;}
	.st13{fill:#E4867B;}
	.st14{fill:#FFBE9D;}
	.st15{fill:#7D1608;}
	.st16{fill:#FAFAFA;}
	.st17{opacity:0.6;}
	.st18{fill:#A82517;}
	.st19{fill:#A92618;}
	.st20{fill:#AC2A1C;}
	.st21{fill:#F4D4CF;}
	.st22{fill:#FBF2F1;}
	.st23{fill:#F8E6E4;}
</style>
<path class="st0" d="M494.7,368.5c0,0,103.5-158.9-6-202.2c-27.6-10.9-37.2-163.6-159.8-87.3c-48.7,30.4-118.9-6.4-186.1,13.7
	c-61.7,18.4-63.1,71.7-55.3,90.8c8.5,20.9-25.5,46-60.3,63.1c-54.6,27-14.4,121.4,37.2,121.8C115.9,368.7,494.7,368.5,494.7,368.5z"
	/>
<g>
	<g id="Floor">
		<g>
			<g>
				<path class="st1" d="M494.1,368.6c0,0.2-157.7,0.2-261.1,0.2s-187.1-0.2-187.1-0.2c0-0.2,83.8-0.2,187.1-0.2
					S494.1,368.6,494.1,368.6z"/>
			</g>
		</g>
	</g>
	<g id="Processing">
		<g>
			<g>
				<g>
					<g>
						<path class="st2" d="M100.1,28c3-1.8,6.3-3.1,9.6-4.1l2-9.4l15.9-0.4l2.2,9.4c3.3,0.9,6.7,2,9.6,3.9l8.1-5.2l11.5,11.1l-5,8.1
							c1.8,3,3.1,6.3,4.1,9.6l9.4,2l0.2,15.9l-9.4,2.2c-0.9,3.3-2,6.7-3.9,9.6l5.2,8.1l-11.1,11.5l-8.1-5c-3,1.8-6.3,3.1-9.6,4.1
							l-2,9.4l-15.9,0.2l-2.2-9.4c-3.3-0.9-6.7-2-9.6-3.9l-8.1,5.2L81.4,90l5-8.1c-1.8-3-3.1-6.3-4.1-9.6l-9.2-1.8l-0.2-15.9
							l9.4-2.2c0.9-3.3,2-6.7,3.9-9.6L81,34.5l11.1-11.5L100.1,28L100.1,28z"/>
					</g>
				</g>
			</g>
			<g>
				<g>
					<g>
						<path class="st3" d="M129.7,56.9c0,0,0-1.3-0.6-3.3c-0.2-1.1-0.7-2.2-1.5-3.7c-0.7-1.3-1.8-2.8-3.5-3.9
							c-1.5-1.1-3.5-2.2-5.7-2.6c-2.2-0.4-4.8-0.4-7.2,0.6c-1.3,0.4-2.4,1.1-3.5,1.8c-0.6,0.4-1.1,0.9-1.5,1.3
							c-0.4,0.6-0.9,0.9-1.3,1.7c-1.7,2.2-2.6,5-2.6,8c0,3,0.9,5.7,2.6,8c0.4,0.6,0.9,1.1,1.3,1.7c0.6,0.4,0.9,0.9,1.5,1.3
							c1.1,0.7,2.2,1.5,3.5,1.8c2.4,0.9,5,0.9,7.2,0.6s4.3-1.3,5.7-2.6c1.5-1.1,2.8-2.6,3.5-3.9c0.7-1.3,1.3-2.6,1.5-3.7
							C129.7,58.2,129.7,56.9,129.7,56.9s0,0,0,0.2s0,0.4,0,0.7s0,0.7,0,1.1s-0.2,0.9-0.2,1.5c-0.2,1.1-0.7,2.4-1.5,3.7
							s-1.8,2.8-3.5,4.1c-1.5,1.1-3.5,2.2-5.9,2.6c-2.2,0.4-4.8,0.4-7.4-0.6c-1.3-0.4-2.4-1.1-3.5-1.8c-0.6-0.4-1.1-0.9-1.7-1.3
							c-0.6-0.6-0.9-1.1-1.3-1.7c-1.7-2.2-2.8-5.2-2.8-8.3c0-3,0.9-5.9,2.8-8.3c0.4-0.6,0.9-1.1,1.3-1.7c0.6-0.6,1.1-0.9,1.7-1.3
							c1.1-0.7,2.2-1.5,3.5-1.8c2.4-0.9,5-0.9,7.4-0.6c2.2,0.4,4.3,1.5,5.9,2.6c1.7,1.3,2.8,2.6,3.5,4.1c0.7,1.3,1.3,2.6,1.5,3.7
							c0.2,0.6,0.2,1.1,0.2,1.5c0,0.4,0,0.7,0,1.1c0,0.2,0,0.6,0,0.7C129.7,56.9,129.7,56.9,129.7,56.9z"/>
					</g>
				</g>
				<g>
					<g>
						<path class="st3" d="M125.2,67.1c0,0,3.1,2.8,6.7,6.5c3.7,3.7,6.5,6.7,6.5,6.7s-3.1-2.8-6.7-6.5
							C128.2,70.2,125.2,67.1,125.2,67.1z"/>
					</g>
				</g>
			</g>
		</g>
		<g>
			<g>
				<g>
					<g>
						<path class="st2" d="M209,88.3c3.9-2.4,8-4.1,12.2-5.4l2.6-12l20.5-0.4l3,12c4.3,1.1,8.5,2.8,12.4,5l10.4-6.7l14.6,14.2
							l-6.5,10.5c2.4,3.9,4.1,8,5.4,12.2l12,2.6l0.4,20.5l-12,3c-1.1,4.3-2.8,8.5-5,12.4l6.7,10.4l-14.2,14.6l-10.5-6.5
							c-3.9,2.4-8,4.1-12.2,5.4l-2.6,12l-20.3,0.2l-3-12c-4.3-1.1-8.5-2.8-12.4-5l-10.4,6.7l-14.6-14.2l6.5-10.5
							c-2.4-3.9-4.1-8-5.4-12.2l-12-2.6l-0.4-20.3l12-3c1.1-4.3,2.8-8.5,5-12.4l-6.7-10.4l14.2-14.6L209,88.3L209,88.3z"/>
					</g>
				</g>
			</g>
			<g>
				<g>
					<g>
						<path class="st3" d="M228,152.9c0,0,0,0,0.2,0c0.2,0,0.4,0,0.7,0c0.6,0,1.5,0,2.8,0c2.4,0,5.7,0,10,0l-0.2,0.2
							c0-1.7,0-3.7-0.2-5.7v-0.2l0,0c3-1.3,5.9-3.3,8.5-5.9c1.3-1.3,2.6-3,3.5-4.6c1.1-1.7,1.7-3.7,2-5.9c0.6-4.3-0.4-8.9-3.1-12.9
							c-2.6-3.9-6.5-7.2-11.3-8.9c-3.5-1.3-7.2-1.5-10.7-0.7s-6.7,2.2-9.2,4.3c-2.6,2-4.4,5-5.5,7.8c-0.2,0.7-0.6,1.5-0.7,2.2
							c-0.2,0.7-0.4,1.5-0.6,2.2c-0.2,1.5-0.4,3-0.4,4.3c0,1.5,0.2,2.8,0.6,4.1c0.4,1.3,0.7,2.6,1.3,3.7c1.1,2.2,2.6,4.1,4.1,5.5
							c3,3,6.1,4.8,8.3,5.7l0,0l0,0c-0.2,1.5-0.2,2.8-0.2,3.5c0,0.4,0,0.7,0,0.9C228,152.7,228,152.9,228,152.9s0-0.2,0-0.4
							c0-0.2,0-0.6,0-0.9c0-0.9,0-2,0.2-3.7l0,0c-2.2-0.9-5.4-2.6-8.5-5.7c-1.5-1.5-3-3.3-4.1-5.7c-0.6-1.1-1.1-2.4-1.3-3.7
							c-0.4-1.3-0.6-2.8-0.6-4.1c0-1.5,0.2-3,0.4-4.4c0.2-0.7,0.4-1.5,0.6-2.2c0.2-0.7,0.6-1.5,0.7-2.2c1.1-3,3.1-5.7,5.7-8
							c2.6-2.2,5.9-3.7,9.4-4.4c3.5-0.7,7.4-0.6,10.9,0.7c4.8,1.8,8.9,5.2,11.5,9.1c1.3,2,2.2,4.3,2.8,6.5c0.2,0.6,0.2,1.1,0.4,1.7
							c0,0.6,0.2,1.1,0.2,1.7c0,0.6,0,1.1,0,1.7s-0.2,1.1-0.2,1.7c-0.4,2.2-0.9,4.3-2,5.9c-1.1,1.8-2.2,3.3-3.7,4.6
							c-2.8,2.6-5.7,4.6-8.7,5.9v-0.2c0,2,0,4.1,0.2,5.7v0.2h-0.2c-4.3,0-7.8,0-10.2,0c-1.1,0-2,0-2.6,0c-0.4,0-0.6,0-0.7,0
							C228,152.9,228,152.9,228,152.9z"/>
					</g>
				</g>
				<g>
					<g>
						<path class="st3" d="M241.9,156.5c0,0.2-3.1,0.2-7,0.2c-3.9,0-7,0-7-0.2c0-0.2,3.1-0.2,7-0.2
							C238.8,156.4,241.9,156.5,241.9,156.5z"/>
					</g>
				</g>
				<g>
					<g>
						<path class="st3" d="M237.3,161.9c0,0.2-1.1,0.4-2.4,0.4c-1.5,0-2.4-0.4-2.4-0.4c0-0.2,1.1,0,2.4,0
							C236.2,161.9,237.3,161.7,237.3,161.9z"/>
					</g>
				</g>
				<g>
					<g>
						<path class="st3" d="M230.8,152.9c0,0,0,0,0-0.2c0-0.2,0-0.4,0-0.7c0-0.6,0-1.5,0-2.6c0-2.2,0.2-5.5,0.2-9.6
							c0-2,0.2-4.3,0.2-6.7c0-0.6,0-1.1-0.2-1.7c-0.2-0.6-0.7-0.9-1.3-0.7c-0.6,0.2-0.9,0.7-1.1,1.3c-0.2,0.6,0,1.3,0.2,1.8
							c0.6,1.1,1.8,1.8,3.1,2c1.3,0.2,2.8-0.4,3.7-1.5s1.5-2.4,1.5-3.9c0-0.7,0-1.5-0.4-2c-0.4-0.6-1.1-0.9-1.7-0.7
							c-0.6,0.2-0.9,1.1-0.7,1.7c0.2,0.7,0.6,1.3,0.9,1.8c0.9,1.1,2,2.2,3.3,2.6c0.7,0.2,1.3,0.4,2,0.2c0.7-0.2,1.3-0.4,1.8-0.7
							c0.6-0.4,0.9-0.9,1.1-1.5c0.2-0.6,0.2-1.3-0.2-1.8c-0.2-0.6-0.7-0.9-1.3-0.9c-0.6,0-1.1,0.4-1.5,0.9c-0.7,0.9-0.7,2.2-0.9,3.5
							c-0.2,2.4-0.4,4.6-0.6,6.7c-0.2,4.1-0.6,7.2-0.6,9.6c0,1.1-0.2,2-0.2,2.6c0,0.4,0,0.6,0,0.7c0,0.2,0,0.2,0,0.2s0,0,0-0.2
							c0-0.2,0-0.4,0-0.7c0-0.6,0-1.5,0.2-2.6c0.2-2.2,0.2-5.5,0.6-9.6c0.2-2,0.4-4.3,0.6-6.7c0-0.6,0.2-1.1,0.2-1.8
							c0.2-0.6,0.2-1.3,0.7-1.8c0.4-0.6,0.9-0.9,1.7-1.1c0.7,0,1.5,0.6,1.7,1.1c0.4,0.6,0.4,1.5,0.2,2.2c-0.2,0.7-0.7,1.3-1.3,1.7
							c-0.6,0.4-1.3,0.7-2,0.9c-0.7,0.2-1.5,0-2.2-0.2c-1.5-0.6-2.6-1.5-3.5-2.8c-0.6-0.6-0.9-1.3-1.1-2c-0.2-0.7,0.2-1.8,1.1-2.2
							c0.9-0.4,1.8,0.2,2.2,0.9c0.4,0.7,0.6,1.5,0.6,2.4c0,1.5-0.6,3.1-1.7,4.3c-0.9,1.1-2.6,1.8-4.1,1.7c-1.5-0.2-2.8-1.1-3.5-2.4
							c-0.4-0.6-0.4-1.3-0.2-2c0.2-0.7,0.6-1.3,1.3-1.5c0.4,0,0.7,0,1.1,0.2c0.4,0.2,0.6,0.6,0.6,0.7c0.2,0.6,0.2,1.3,0.2,1.8
							c0,2.4-0.2,4.6-0.2,6.7c-0.2,4.1-0.2,7.2-0.4,9.6c0,1.1,0,2-0.2,2.6c0,0.4,0,0.6,0,0.7C230.8,152.7,230.8,152.9,230.8,152.9z"
							/>
					</g>
				</g>
				<g>
					<g>
						<path class="st3" d="M240.6,159.3c0,0.2-2.6,0.2-5.7,0.2c-3.1,0-5.7-0.2-5.7-0.2c0-0.2,2.6-0.2,5.7-0.2
							C238,159.1,240.6,159.1,240.6,159.3z"/>
					</g>
				</g>
			</g>
		</g>
		<g>
			<g>
				<g>
					<g>
						<g>
							<path class="st2" d="M343.4,120.9c2.4-1.5,5.2-2.8,8-3.5l1.5-8l13.3-0.4l2,7.8c2.8,0.7,5.5,1.7,8.1,3.1l6.7-4.4l9.6,9.1
								l-4.3,6.8c1.5,2.4,2.8,5.2,3.5,8l8,1.5l0.4,13.3l-7.8,2c-0.7,2.8-1.7,5.5-3.1,8.1l4.4,6.7l-9.1,9.6l-6.8-4.1
								c-2.4,1.5-5.2,2.8-8,3.5l-1.5,8l-13.3,0.4l-2-7.8c-2.8-0.7-5.5-1.7-8.1-3.1l-6.7,4.4l-9.6-9.1l4.1-6.8
								c-1.5-2.4-2.8-5.2-3.5-8l-8-1.5l-0.4-13.3l7.8-2c0.7-2.8,1.7-5.5,3.1-8.1l-4.4-6.7l9.1-9.6L343.4,120.9L343.4,120.9z"/>
						</g>
					</g>
				</g>
			</g>
			<g>
				<g>
					<g>
						<path class="st3" d="M378.4,163c0,0-0.2,0-0.6,0c-0.4,0-1.1,0-1.8,0c-1.7,0-3.9,0-6.8,0c-5.7,0-13.7,0-22.4,0
							c-0.6,0-1.1,0-1.7,0h-0.2v-0.2c0-8.3,0-15.9,0-21.3c0-2.6,0-4.8,0-6.5c0-0.7,0-1.3,0-1.7s0-0.6,0-0.6s0,0.2,0,0.6
							c0,0.4,0,0.9,0,1.7c0,1.5,0,3.7,0,6.5c0,5.5,0,12.9,0,21.3l-0.2-0.2c0.6,0,1.1,0,1.7,0c8.7,0,16.6,0,22.4,0c2.8,0,5.2,0,6.8,0
							c0.7,0,1.3,0,1.8,0C378.2,163,378.4,163,378.4,163z"/>
					</g>
				</g>
				<g>
					<g>
						<path class="st3" d="M374.7,140.3c0,0-0.4,0.4-0.9,0.9c-0.7,0.6-1.7,1.5-2.8,2.4c-2.4,2-5.7,5-9.4,8l-0.6,0.6l-0.2,0.2
							l-0.2-0.2c-1.5-1.3-3-2.6-4.3-3.9h0.2c-2.4,2-4.6,3.7-6.1,5c-0.7,0.6-1.3,1.1-1.8,1.5c-0.4,0.4-0.7,0.6-0.7,0.6
							s0.2-0.2,0.6-0.6c0.4-0.4,0.9-0.9,1.7-1.5c1.5-1.3,3.7-3.1,6.1-5.2l0.2-0.2l0.2,0.2c1.3,1.1,2.8,2.4,4.3,3.9h-0.4l0.6-0.6
							c3.7-3.1,7-5.9,9.4-8c1.1-0.9,2.2-1.8,3-2.4C374.3,140.5,374.7,140.3,374.7,140.3z"/>
					</g>
				</g>
				<g>
					<g>
						<path class="st3" d="M374.7,147.1c0,0-0.2-0.7-0.2-2s0-3.1,0-5l0.2,0.2c-0.2,0-0.2,0-0.4,0c-2,0-3.9,0-5.4,0
							c-1.3,0-2.2,0-2.2-0.2c0,0,0.9-0.2,2.2-0.2c1.3,0,3.1,0,5.4,0c0.2,0,0.2,0,0.4,0h0.2v0.2c0,2,0,3.7,0,5
							C374.8,146.4,374.7,147.1,374.7,147.1z"/>
					</g>
				</g>
			</g>
		</g>
		<g>
			<g>
				<g>
					<path class="st1" d="M160,164.1c-0.2,0-0.6-0.9-0.9-2.2c-0.4-1.3-0.7-2.4-0.6-2.4c0.2,0,0.6,0.9,0.9,2.2
						C159.8,163,160.2,164.1,160,164.1z"/>
				</g>
			</g>
			<g>
				<g>
					<path class="st1" d="M168.7,181.5c-0.2,0-1.5-1.7-2.8-4.1c-1.3-2.4-2.2-4.3-2-4.4c0.2,0,1.1,1.8,2.4,4.3
						C167.6,179.7,168.7,181.5,168.7,181.5z"/>
				</g>
			</g>
			<g>
				<g>
					<path class="st1" d="M181.2,196.1c0,0-1.8-1.3-3.7-3.1s-3.1-3.7-3.1-3.7s1.5,1.5,3.5,3.5C179.8,194.6,181.4,196.1,181.2,196.1z
						"/>
				</g>
			</g>
			<g>
				<g>
					<path class="st4" d="M197.3,207c0,0.2-2-0.7-4.4-2c-2.4-1.3-4.1-2.6-4.1-2.8c0-0.2,1.8,1.1,4.3,2.4
						C195.5,205.9,197.3,207,197.3,207z"/>
				</g>
			</g>
			<g>
				<g>
					<path class="st4" d="M215.8,212.9c0,0.2-2.2-0.2-4.8-0.7c-2.6-0.7-4.6-1.5-4.6-1.5c0-0.2,2.2,0.4,4.8,1.1
						C213.6,212.4,215.8,212.9,215.8,212.9z"/>
				</g>
			</g>
			<g>
				<g>
					<path class="st4" d="M235.1,213.5c0,0.2-2.2,0.4-4.8,0.6c-2.8,0.2-4.8,0-4.8-0.2c0-0.2,2.2-0.2,4.8-0.2
						C233,213.5,235.1,213.3,235.1,213.5z"/>
				</g>
			</g>
			<g>
				<g>
					<path class="st1" d="M254.1,209.2c0,0.2-2,0.9-4.6,1.7s-4.8,1.1-4.8,0.9c0-0.2,2-0.7,4.6-1.3
						C251.9,209.8,254.1,209.1,254.1,209.2z"/>
				</g>
			</g>
			<g>
				<g>
					<path class="st1" d="M271.7,200.9c0,0.2-1.7,1.3-4.1,2.6c-2.4,1.3-4.4,2-4.4,2c0-0.2,1.8-1.1,4.3-2.4
						C269.6,202,271.5,200.9,271.7,200.9z"/>
				</g>
			</g>
			<g>
				<g>
					<path class="st1" d="M286.6,188.9c0,0-1.3,1.7-3.3,3.5c-2,1.8-3.7,3.1-3.9,3c0-0.2,1.7-1.5,3.5-3.3
						C285,190.2,286.6,188.7,286.6,188.9z"/>
				</g>
			</g>
			<g>
				<g>
					<path class="st1" d="M297.4,172.6c0.2,0-0.7,2-2,4.4c-1.3,2.4-2.6,4.1-2.8,4.1c-0.2,0,1.1-1.8,2.4-4.3
						C296.3,174.7,297.4,172.6,297.4,172.6z"/>
				</g>
			</g>
			<g>
				<g>
					<path class="st1" d="M304,154.5c0.2,0-0.6,2.2-1.3,4.6c-0.9,2.6-1.7,4.6-1.7,4.6c-0.2,0,0.6-2.2,1.3-4.6
						C303.1,156.5,304,154.5,304,154.5z"/>
				</g>
			</g>
			<g>
				<g>
					<path class="st1" d="M310.3,136c0.2,0-0.6,2-1.5,4.6c-0.9,2.6-1.7,4.6-1.8,4.4c-0.2,0,0.6-2,1.5-4.6c0.4-1.3,0.9-2.4,1.3-3.1
						C309.9,136.6,310.1,136,310.3,136z"/>
				</g>
			</g>
			<g>
				<g>
					<path class="st1" d="M318.8,118.6c0.2,0-0.9,1.8-2.2,4.3c-1.3,2.4-2.4,4.3-2.4,4.3c-0.2,0,0.7-2,2-4.4
						C317.5,120.3,318.8,118.6,318.8,118.6z"/>
				</g>
			</g>
			<g>
				<g>
					<path class="st1" d="M331.8,104.4c0,0.2-1.7,1.5-3.5,3.3c-2,1.8-3.5,3.3-3.5,3.3s1.3-1.8,3.3-3.7
						C329.9,105.5,331.8,104.2,331.8,104.4z"/>
				</g>
			</g>
			<g>
				<g>
					<path class="st1" d="M349.3,96.1c0,0.2-2,0.7-4.6,1.7c-2.6,0.9-4.4,1.7-4.6,1.7c0-0.2,1.8-1.1,4.4-2
						C347.1,96.5,349.3,96.1,349.3,96.1z"/>
				</g>
			</g>
			<g>
				<g>
					<path class="st1" d="M368.6,94.1c0,0.2-2.2,0-4.8,0.2c-2.6,0-4.8,0.2-4.8,0.2c0-0.2,2.2-0.6,4.8-0.6
						C366.3,93.7,368.6,93.9,368.6,94.1z"/>
				</g>
			</g>
			<g>
				<g>
					<path class="st1" d="M387.2,98.9c0,0.2-2-0.7-4.6-1.7c-2.6-0.9-4.6-1.5-4.6-1.7c0-0.2,2.2,0.4,4.6,1.3
						C385.4,97.8,387.4,98.7,387.2,98.9z"/>
				</g>
			</g>
			<g>
				<g>
					<path class="st1" d="M403.9,108.8c0,0-1.8-1.3-3.9-2.8c-2.2-1.5-4.1-2.8-3.9-2.8c0-0.2,2,0.9,4.3,2.6
						C402.2,107.4,403.9,108.8,403.9,108.8z"/>
				</g>
			</g>
			<g>
				<g>
					<path class="st1" d="M413.5,119.6c-0.2,0-0.7-0.7-1.5-1.8c-0.7-1.1-1.5-2-1.3-2c0,0,0.9,0.7,1.7,1.8S413.7,119.6,413.5,119.6z"
						/>
				</g>
			</g>
		</g>
		<g>
			<g>
				<path class="st5" d="M199,202"/>
			</g>
		</g>
		<g>
			<g>
				<path class="st1" d="M56.4,50c0,0,0-0.2,0.2-0.7c0.2-0.6,0.2-1.3,0.6-2.2c0.4-1.8,1.3-4.6,2.8-8c1.5-3.3,3.5-7.4,6.7-11.6
					s7.2-8.7,12.4-12.8S90.5,7,97.9,4.6c3.7-1.3,7.6-2.2,11.6-2.8s8.3-0.9,12.8-0.7s8.9,0.6,13.3,1.7c4.3,1.1,8.7,2.6,12.9,4.8
					c4.3,2,8.3,4.8,12,8s7.2,6.8,10,11.1c2.8,4.1,5.2,8.7,6.7,13.3c1.7,4.6,2.6,9.4,3,14.1c0,1.1,0.2,2.4,0.2,3.5c0,1.1,0,2.4,0,3.5
					c0,1.1,0,2.4,0,3.5c-0.2,1.1-0.2,2.2-0.4,3.5c-0.6,4.6-1.8,8.9-3.5,12.9c-1.7,4.1-3.7,7.8-5.7,11.3s-4.1,7-6.1,10.4
					c-3.9,6.7-5.9,13.7-7,20.2c-0.6,3.1-0.9,6.3-1.1,9.2c-0.2,3-0.4,5.7-0.4,8.3c0,5.2,0,9.8,0.6,13.3c0.6,3.7,1.3,6.5,1.8,8.3
					c0.4,0.9,0.6,1.7,0.7,2c0,0.2,0.2,0.4,0.2,0.6c0,0.2,0,0.2,0,0.2s-0.6-0.9-1.1-2.8c-0.6-1.8-1.3-4.6-1.8-8.3
					c-0.6-3.7-0.7-8.1-0.7-13.3c0-2.6,0-5.4,0.4-8.3c0.2-3,0.6-6.1,1.1-9.2c1.1-6.5,3.1-13.5,7-20.2c2-3.3,3.9-6.8,6.1-10.4
					c2-3.5,4.1-7.2,5.7-11.3c1.7-4.1,2.8-8.3,3.5-12.8c0.2-1.1,0.2-2.2,0.4-3.3c0-1.1,0.2-2.2,0-3.5c0-1.1,0-2.4,0-3.5
					c0-1.1-0.2-2.4-0.2-3.5c-0.6-4.6-1.5-9.4-3-14.1c-1.7-4.6-3.9-9.1-6.7-13.1c-2.8-4.1-6.3-7.8-10-10.9s-7.8-5.9-12-8
					c-4.3-2-8.7-3.5-13.1-4.6c-4.4-1.1-8.9-1.5-13.1-1.7c-4.3-0.2-8.5,0.2-12.6,0.7c-3.9,0.2-7.8,1.1-11.5,2.4
					c-7.2,2.4-13.5,6.1-18.7,10c-5.2,4.1-9.2,8.3-12.4,12.6c-3.1,4.3-5.2,8.1-6.8,11.5c-1.5,3.3-2.2,6.1-2.8,8
					c-0.2,0.9-0.4,1.7-0.6,2.2C56.6,49.9,56.4,50,56.4,50z"/>
			</g>
		</g>
	</g>
	<g id="Character">
		<g>
			<g>
				<g>
					<g>
						<g>
							<g>
								<path class="st6" d="M254.1,348.5l12.2,4.3l-0.2,11.6c-5.9,1.7-6.7,4.6-6.7,4.6l12.2-0.4l10.5-21.6l-8.3-5.5l-15.7-6.8"/>
							</g>
						</g>
						<g>
							<polygon class="st7" points="282.2,347.2 271.7,368.8 259.5,369 260.8,367.2 270.7,366.4 280.4,346.1 							"/>
						</g>
					</g>
					<g>
						<g>
							<path class="st8" d="M266.1,359.2c0.2,0.2,0.7-0.4,1.7-0.4s1.7,0.4,1.7,0.2c0.2-0.2-0.6-0.7-1.7-0.7
								C266.7,358.3,265.9,359,266.1,359.2z"/>
						</g>
					</g>
					<g>
						<g>
							<path class="st8" d="M266.1,356.2c0.2,0,0.7-0.7,1.7-0.9s1.7,0.2,1.8,0c0,0-0.2-0.2-0.4-0.4c-0.4-0.2-0.9-0.4-1.5-0.2
								c-0.6,0.2-1.1,0.6-1.3,0.7C266.1,355.9,266.1,356.2,266.1,356.2z"/>
						</g>
					</g>
					<g>
						<g>
							<path class="st8" d="M265.9,352.5c0.2,0,0.6-0.7,1.3-0.9c0.9-0.4,1.7,0,1.7-0.2c0,0-0.2-0.2-0.6-0.4c-0.4-0.2-0.9-0.2-1.5,0
								c-0.6,0.2-0.9,0.6-1.1,0.9C265.9,352.2,265.9,352.5,265.9,352.5z"/>
						</g>
					</g>
					<g>
						<g>
							<path class="st8" d="M265.2,352.5c0.2,0,0-0.7,0.4-1.7c0.4-0.9,0.9-1.3,0.9-1.5s-0.9,0.2-1.3,1.3
								C264.6,351.6,265,352.5,265.2,352.5z"/>
						</g>
					</g>
					<g>
						<g>
							<path class="st8" d="M263.7,351.1c0,0,0.2-0.6,0.4-1.7c0-0.6,0.2-1.1,0.2-1.8c0-0.4,0.2-0.7,0-1.1c0-0.2-0.2-0.4-0.4-0.6
								s-0.6-0.2-0.7,0c-0.4,0.4-0.6,0.7-0.7,1.1c-0.2,0.4-0.2,0.7-0.2,1.1c0,0.7,0.2,1.3,0.4,1.8c0.4,0.9,1.1,1.3,1.1,1.3
								s-0.4-0.6-0.7-1.5c-0.2-0.4-0.2-1.1-0.2-1.7c0-0.4,0.2-0.6,0.2-0.9c0.2-0.4,0.4-0.7,0.6-0.7s0.2,0,0.2,0s0.2,0.2,0.2,0.4
								c0,0.2,0,0.6,0,0.9c0,0.6,0,1.3,0,1.8C263.5,350.5,263.5,351.1,263.7,351.1z"/>
						</g>
					</g>
					<g>
						<g>
							<path class="st8" d="M263.5,351.6c0,0-0.4-0.6-1.3-0.9c-0.9-0.4-2.4-0.2-3.5,1.3c0,0.2,0,0.4,0,0.6c0,0.2,0.2,0.2,0.4,0.2
								c0.2,0,0.4,0.2,0.6,0.2c0.4,0,0.7,0,0.9,0c0.6,0,1.1-0.2,1.7-0.4C263.2,352,263.5,351.6,263.5,351.6c0-0.2-0.4,0.2-1.3,0.4
								c-0.4,0.2-0.9,0.2-1.5,0.2c-0.4,0-0.6,0-0.9,0c-0.2,0-0.4,0-0.4,0c-0.2,0,0,0,0,0s0.2-0.2,0.2-0.4c0.2-0.2,0.2-0.2,0.4-0.4
								c0.2-0.2,0.6-0.4,0.7-0.4c0.6-0.2,1.1-0.2,1.5,0C263,351.2,263.3,351.6,263.5,351.6z"/>
						</g>
					</g>
					<g>
						<path class="st7" d="M272.6,347c0,0.7,0.7,1.5,1.5,1.5c0.7,0,1.5-0.7,1.5-1.5c0-0.7-0.7-1.5-1.5-1.5
							C273.1,345.7,272.4,346.3,272.6,347z"/>
					</g>
				</g>
			</g>
			<g>
				<g>
					<g>
						<g>
							<path class="st6" d="M191.6,343.7l0.2,15.9c0,0-16.1,5.5-16.5,8.5l30.9,0.7l0.7-25L191.6,343.7z"/>
						</g>
					</g>
					<g>
						<g>
							<path class="st7" d="M201.4,358.5c0.6,0.2,0.9,0.9,0.9,1.5c-0.2,0.6-0.9,0.9-1.5,0.9c-0.6-0.2-1.1-0.9-0.9-1.5
								C200.1,358.6,200.8,358.3,201.4,358.5"/>
						</g>
					</g>
					<g>
						<g>
							<path class="st7" d="M206.2,368.8v-2.6l-29.6,0.2c0,0-1.5,0.6-1.3,1.5L206.2,368.8z"/>
						</g>
					</g>
					<g>
						<g>
							<path class="st8" d="M191.2,359.4c0,0.2,0.7,0.2,1.5,0.7c0.7,0.6,1.1,1.1,1.3,1.1c0.2,0,0-0.9-0.9-1.5
								C192.2,359,191.2,359.2,191.2,359.4z"/>
						</g>
					</g>
					<g>
						<g>
							<path class="st8" d="M187.9,360.7c0,0.2,0.6,0.4,1.1,1.1c0.6,0.6,0.6,1.3,0.7,1.3c0.2,0,0.2-0.9-0.4-1.7
								C188.8,360.5,187.9,360.5,187.9,360.7z"/>
						</g>
					</g>
					<g>
						<g>
							<path class="st8" d="M186.1,364.6c0.2,0,0.4-0.7,0-1.5c-0.4-0.9-1.1-1.1-1.1-1.1c0,0.2,0.4,0.6,0.7,1.3
								C185.9,363.8,185.9,364.4,186.1,364.6z"/>
						</g>
					</g>
					<g>
						<g>
							<path class="st8" d="M191.6,355.7c0,0.2,0.7,0,1.7,0s1.5,0.4,1.7,0.2c0-0.2-0.6-0.7-1.5-0.7
								C192.2,355.1,191.4,355.7,191.6,355.7z"/>
						</g>
					</g>
				</g>
				<g>
					<g>
						<polygon class="st9" points="191.6,346.8 191.6,349.6 206.8,349.8 206.9,347.4 						"/>
					</g>
				</g>
				<g>
					<g>
						<path class="st8" d="M191.6,352.5c0,0,0.6,0.2,1.5,0c0.6,0,1.1-0.2,1.7-0.4c0.4-0.2,0.6-0.2,0.9-0.4c0.2,0,0.4-0.2,0.6-0.4
							c0.2-0.2,0.2-0.6,0-0.7s-0.4-0.4-0.7-0.4c-0.2,0-0.4,0-0.6,0c-0.4,0-0.7,0.2-0.9,0.4c-0.6,0.2-1.1,0.6-1.5,0.9
							C191.8,352,191.6,352.5,191.6,352.5c0.2,0.2,0.6-0.4,1.3-0.7c0.4-0.2,0.9-0.6,1.5-0.7c0.4-0.2,0.6-0.2,0.9-0.2s0.6,0,0.7,0
							c0,0,0,0,0,0.2c0,0-0.2,0.2-0.4,0.2c-0.4,0.2-0.6,0.4-0.7,0.4c-0.6,0.2-1.1,0.4-1.5,0.6C192.2,352.4,191.6,352.4,191.6,352.5z
							"/>
					</g>
				</g>
				<g>
					<g>
						<path class="st8" d="M191.8,352.7c0,0,0.4-0.6,0.4-1.5c0-0.6,0-1.1-0.2-1.7c0-0.4-0.2-0.6-0.4-0.9c-0.2-0.4-0.4-0.7-0.9-0.7
							c-0.4,0-0.6,0.2-0.7,0.4c-0.2,0.2-0.2,0.4-0.2,0.6c0,0.4,0,0.7,0,1.1c0,0.7,0.4,1.3,0.6,1.7c0.6,0.7,1.3,0.9,1.3,0.9
							s-0.6-0.4-0.9-1.1c-0.2-0.4-0.4-0.9-0.4-1.5c0-0.4,0-0.6,0-0.9c0-0.4,0.2-0.6,0.4-0.6s0.4,0.2,0.6,0.6
							c0.2,0.4,0.2,0.6,0.4,0.9c0.2,0.6,0.2,1.1,0.2,1.5C192,352.2,191.8,352.7,191.8,352.7z"/>
					</g>
				</g>
			</g>
			<g>
				<g>
					<g>
						<polygon class="st10" points="263.5,335.5 227.8,322.2 265.4,317 267.2,298.7 197.1,304.8 187.2,319.1 189.9,337 258.2,354.2 
													"/>
					</g>
					<g>
						<g>
							<path class="st10" d="M187.9,348.3l-3.3-65.3c0.2-6.3,3.7-12.2,9.1-15.3l0,0c4.6-2.6,10-3.1,15-1.5l45.5,15.2l25,6.5
								c0,0,4.3,10.5,1.7,18.7c-2.4,8-11.1,13.3-18.9,10.9c-9.6-2.8-53.4-21.6-53.4-21.6v53.1L187.9,348.3z"/>
						</g>
					</g>
					<g>
						<g>
							<path class="st11" d="M261.3,317.6h-0.2c-0.2,0-0.4-0.2-0.7-0.4c-0.7-0.4-1.7-0.7-3-1.1c-2.6-1.1-6.3-2.6-10.9-4.4
								c-9.2-3.9-22-9.1-36.1-14.8c-0.6-0.2-1.3-0.6-1.8-0.7l0.4-0.2c0,14.8,0,28.1,0,37.7c0,4.8,0,8.7,0,11.3c0,1.3,0,2.4,0,3.1
								c0,0.4,0,0.6,0,0.7c0,0.2,0,0.2,0,0.2s0,0,0-0.2s0-0.6,0-0.7c0-0.7,0-1.8,0-3.1c0-2.8,0-6.5,0-11.3c0-9.6,0-22.9,0-37.7v-0.4
								l0.4,0.2c0.6,0.2,1.3,0.6,1.8,0.7c14.1,5.9,26.8,11.1,35.9,15c4.6,1.8,8.3,3.5,10.9,4.6c1.3,0.6,2.2,0.9,3,1.3
								c0.4,0.2,0.6,0.2,0.7,0.4C261.1,317.4,261.3,317.6,261.3,317.6z"/>
						</g>
					</g>
					<g>
						<g>
							<path class="st11" d="M219.3,317.6c0-0.2,2.2,0.4,4.6,1.7c2.4,1.3,3.9,3,3.9,3.1c0,0.2-1.7-1.5-4.1-2.8
								C221.4,318.3,219.3,317.8,219.3,317.6z"/>
						</g>
					</g>
				</g>
				<g>
					<g>
						<path class="st11" d="M204.5,286.9c0.2,0,1.3,1.8,2.4,4.4c1.1,2.6,1.8,4.6,1.7,4.8c-0.2,0-0.9-2-2-4.6
							C205.5,288.9,204.5,286.9,204.5,286.9z"/>
					</g>
				</g>
			</g>
			<polygon class="st12" points="204.7,258.1 196.6,256.6 188.3,265.3 189.8,270.6 199.6,267.1 			"/>
			<g>
				<g>
					<g>
						<path class="st13" d="M175,162.5l-2.2,0.2c0,0-3.9,0.6-3.9,0.7c0,0-1.7,2.4-1.7,2.6l-1.7,2.4c0,0,1.3,0.6,2.2-0.4l-0.6,1.3
							c0,0,1.8,0.7,3-1.1c0.7-1.1,1.3-1.8,1.7-2.4h0.7c0,0.2,2.8,4.1,3,3.9l2.4-2.2L175,162.5z"/>
					</g>
				</g>
				<g>
					<g>
						<path class="st12" d="M180.9,179.3l0.6-12l-6.1-6.8l-6.7,0.4l-2.8,1.8c0.2,0.7,2,1.1,4.1,0.6c2-0.6,4.3-0.2,4.3-0.2l2.6,4.4
							l-1.7,1.8l2.2,11.5L180.9,179.3z"/>
					</g>
				</g>
				<g>
					<path class="st1" d="M162.9,163.6h21.8c0.6,0,0.9,0.4,0.9,0.9l0,0c0,0.6-0.4,0.9-0.9,0.9h-21.8l-2-0.9L162.9,163.6z"/>
				</g>
				<g>
					<g>
						<path class="st12" d="M174,182.6l-2.2-5.5c-0.4-0.7-0.4-1.5-0.4-2.2c0.2-2,0.2-5.9,0-6.8c-0.4-1.3-2-5.4-1.1-5.9
							c0.9-0.6,2.2-0.7,3.1,1.7c0.9,2.4,3.7,7.8,3.7,7.8l2,8.7L174,182.6z"/>
					</g>
				</g>
				<g>
					<g>
						<g>
							<path class="st13" d="M176.6,171c0,0-0.6-0.9-1.3-2.4c-0.7-1.5-1.7-3.5-2.8-5.7c-0.4-0.6-0.7-0.9-1.3-0.9
								c-0.6,0-0.9,0.4-1.1,0.7c-0.2,0.4,0,0.9,0,1.5s0.2,0.9,0.4,1.3c0.4,1.5,0.9,2.4,0.7,2.6c0,0-0.2-0.2-0.4-0.6
								c-0.2-0.4-0.6-1.1-0.7-1.8c-0.2-0.4-0.2-0.7-0.4-1.3c-0.2-0.6-0.2-0.9,0-1.7c0.2-0.6,0.7-1.1,1.5-1.1s1.3,0.6,1.7,1.1
								c1.1,2.2,2,4.3,2.8,5.9C176.4,170,176.8,171,176.6,171z"/>
						</g>
					</g>
				</g>
			</g>
			<g>
				<g>
					<polygon class="st14" points="278.3,287.6 276.1,283.6 252.4,277.7 255.2,282.5 					"/>
				</g>
				<g>
					<path class="st6" d="M172,182.6l15,35.5c1.5,3.3,4.1,5.9,7.4,7.4l32.4,13.3l7.6-20.9l-31.4-11.1l-20.5-29.2L172,182.6z"/>
				</g>
				<g>
					<g>
						<path class="st6" d="M220.6,218.3c0,0.9-3.5,26.6-3.5,32c0,5.4,10.2,10.9,10.2,10.9l11.1,23.5h39.4l-13.5-25.3l-6.1-20.3
							c-2.2-7.8-6.5-14.6-12.2-20.3l-6.7-4.4L220.6,218.3z"/>
					</g>
				</g>
				<g>
					<g>
						<path class="st6" d="M232.1,238.6l6.7,27.7l-33.3-9.4l-5.7,10l43.5,19.8c5.4,2.4,11.6,0.7,15-4.1l0,0c2-3,2.8-6.7,1.8-10
							l-9.8-37.9c-1.3-5.2-6.8-8.1-12-6.5l0,0C233.9,229.8,231.2,234.2,232.1,238.6z"/>
					</g>
				</g>
				<g>
					<g>
						<path class="st15" d="M227.3,261.2c0,0-0.2,0-0.4-0.2c-0.2-0.2-0.6-0.4-1.1-0.6c-0.9-0.6-2.2-1.3-3.7-2.4
							c-1.5-1.1-3.1-2.6-4.3-4.8c-1.1-2.2-0.9-5.2-0.6-8c0.4-2.8,0.9-5.4,1.3-7.8c0.4-2.4,0.6-4.6,0.7-6.5c0.2-1.8,0.2-3.3,0.2-4.4
							c0-1.1,0-1.7,0-1.7s0,0.2,0,0.4c0,0.2,0,0.7,0.2,1.1c0,1.1,0,2.6,0,4.4c-0.2,1.8-0.4,4.1-0.7,6.5c-0.4,2.4-0.9,5-1.3,7.8
							c-0.4,2.8-0.4,5.5,0.6,7.8c1.1,2.2,2.8,3.7,4.1,4.8c1.5,1.1,2.8,2,3.5,2.6C226.7,260.8,227.3,261.2,227.3,261.2z"/>
					</g>
				</g>
				<g>
					<g>
						<path class="st15" d="M245.6,231.2c0,0.2-1.8-0.9-4.4-1.1c-2.6-0.2-4.6,0.6-4.6,0.6s2-1.1,4.6-0.9
							C243.9,230,245.8,231.2,245.6,231.2z"/>
					</g>
				</g>
				<g>
					<g>
						<path class="st15" d="M241.2,216.3c0,0-0.2,0.2-0.6,0.7c-0.4,0.4-0.9,0.9-1.8,1.7c-1.5,1.5-3.7,3.3-6.1,5.4s-4.8,3.7-6.5,4.8
							c-0.9,0.6-1.5,1.1-2,1.3c-0.6,0.4-0.7,0.6-0.7,0.4c0,0,0.2-0.2,0.7-0.6c0.6-0.4,1.1-0.9,2-1.5c1.7-1.3,3.9-3,6.5-5
							c2.4-2,4.6-3.9,6.3-5.2c0.7-0.6,1.3-1.1,1.8-1.7C240.8,216.5,241.2,216.3,241.2,216.3z"/>
					</g>
				</g>
				<g>
					<g>
						<path class="st15" d="M202.7,206.8c0,0.2-1.1,0.6-2.6,1.5c-1.3,0.9-2.2,1.8-2.4,1.7c0,0,0.7-1.1,2.2-2
							C201.4,207,202.7,206.8,202.7,206.8z"/>
					</g>
				</g>
				<g>
					<g>
						<g>
							<path class="st16" d="M235.2,251.2c0,0-0.2,0.2-0.7,0.2c-0.6,0.2-1.1,0.2-2,0.4c-0.9,0.2-1.8,0.2-3.1,0
								c-1.1,0-2.4-0.2-3.7-0.6s-2.6-0.7-3.5-1.3c-1.1-0.6-2-1.1-2.8-1.5c-0.7-0.6-1.3-0.9-1.7-1.3s-0.6-0.6-0.6-0.6
								s0.9,0.7,2.4,1.7c1.5,0.9,3.7,2,6.1,2.6c2.6,0.6,5,0.7,6.7,0.6C234.1,251.4,235.2,251.2,235.2,251.2z"/>
						</g>
					</g>
					<g>
						<g>
							<path class="st16" d="M237.5,263.4c0,0-0.6,0.2-1.5,0.2s-2.2,0-3.7-0.2c-1.5-0.4-2.6-0.7-3.5-1.3c-0.9-0.4-1.3-0.7-1.3-0.9
								s2,1.1,4.8,1.7C235.2,263.6,237.5,263.2,237.5,263.4z"/>
						</g>
					</g>
					<g>
						<g>
							<path class="st16" d="M254.8,255.8c0,0-0.2,0.2-0.6,0.4c-0.4,0.2-1.1,0.6-1.8,0.7c-1.5,0.6-3.7,1.3-6.3,1.7
								c-2.6,0.4-4.8,0.4-6.5,0.2c-0.7,0-1.5-0.2-2-0.4c-0.4-0.2-0.7-0.2-0.7-0.2s1.1,0,2.6,0.2c1.7,0.2,3.9,0.2,6.5-0.2
								c2.4-0.4,4.6-0.9,6.3-1.5C253.7,256.2,254.7,255.8,254.8,255.8z"/>
						</g>
					</g>
					<g>
						<g>
							<path class="st16" d="M251.7,242.3c0,0-1.1-0.2-2.8-0.4c-1.7-0.2-3.9-0.4-6.5-0.2c-2.6,0.2-4.8,0.4-6.5,0.7s-2.6,0.6-2.6,0.6
								s0.2-0.2,0.7-0.2c0.4-0.2,1.1-0.4,1.8-0.6c1.7-0.4,3.9-0.7,6.5-0.9c2.6,0,4.8,0.2,6.5,0.4c0.7,0.2,1.5,0.2,2,0.4
								C251.5,242.2,251.7,242.2,251.7,242.3z"/>
						</g>
					</g>
					<g>
						<g>
							<path class="st16" d="M258.5,280.2c0,0-0.4,0-0.9-0.2c-0.6-0.2-1.5-0.4-2.6-0.7c-2-0.7-5-2-7.8-4.1c-2.8-2-5-4.1-6.5-5.9
								c-0.7-0.9-1.3-1.7-1.7-2c-0.4-0.6-0.6-0.7-0.6-0.7s0.9,1.1,2.2,2.8c1.5,1.7,3.7,3.7,6.5,5.7c2.8,1.8,5.5,3.3,7.6,4.1
								C257.2,279.9,258.5,280.2,258.5,280.2z"/>
						</g>
					</g>
					<g>
						<g>
							<path class="st16" d="M228.6,279.9c0,0-0.2-0.9-0.2-2.2c0-1.5,0.2-3.3,0.7-5.5c0.6-2,1.3-3.9,2-5.2c0.7-1.3,1.1-2,1.3-2
								c0,0-0.4,0.7-0.9,2c-0.6,1.3-1.3,3.1-1.8,5.2c-0.6,2-0.7,4.1-0.9,5.4C228.8,279,228.8,279.9,228.6,279.9z"/>
						</g>
					</g>
					<g>
						<g>
							<path class="st16" d="M208.6,270.6c0,0-0.2-0.7,0-2c0.2-1.1,0.6-3,1.5-4.4c0.9-1.7,2.2-2.8,3.1-3.5s1.5-1.1,1.7-1.1
								c0,0-0.6,0.6-1.3,1.3c-0.9,0.7-2,2-3,3.5s-1.3,3.1-1.5,4.3C208.6,269.9,208.6,270.6,208.6,270.6z"/>
						</g>
					</g>
					<g>
						<g>
							<path class="st16" d="M275,279.7c0,0-0.9,0.6-2.4,1.1s-3.5,1.3-5.9,1.8c-2.4,0.6-4.6,0.7-6.1,0.7c-0.4,0-0.7,0-1.1,0
								c-0.4,0-0.6,0-0.7-0.2c-0.4,0-0.7-0.2-0.7-0.2s0.9,0,2.6,0c1.5,0,3.7-0.2,6.1-0.7c2.4-0.6,4.4-1.1,5.9-1.7
								C274.1,279.9,275,279.5,275,279.7z"/>
						</g>
					</g>
					<g>
						<g>
							<path class="st16" d="M266.1,263.6c0,0-0.2,0.6-0.9,0.9c-0.7,0.6-1.7,1.1-2.8,1.5c-1.1,0.4-2.2,0.7-3.1,0.9
								c-0.4,0-0.7,0.2-0.9,0.2c-0.2,0-0.4,0-0.4-0.2c0,0,0.6,0,1.3-0.4c0.7-0.2,1.8-0.6,3-0.9c1.1-0.4,2.2-0.9,2.8-1.3
								C265.7,264,266.1,263.6,266.1,263.6z"/>
						</g>
					</g>
					<g>
						<g>
							<path class="st16" d="M260.6,247.3c0,0,0,0.2-0.2,0.4c-0.2,0.2-0.4,0.4-0.7,0.6c-0.6,0.4-1.5,0.7-2.4,1.1
								c-0.9,0.4-1.8,0.6-2.6,0.7c-0.7,0.2-1.1,0-1.1,0s0.4,0,1.1-0.2c0.7-0.2,1.5-0.4,2.6-0.7c0.9-0.4,1.8-0.7,2.4-0.9
								c0.4-0.2,0.6-0.4,0.7-0.4C260.6,247.3,260.6,247.3,260.6,247.3z"/>
						</g>
					</g>
					<g>
						<g>
							<path class="st16" d="M231.5,238.6c0,0-0.7,0.2-1.8,0c-1.1,0-2.8-0.2-4.6-0.6c-1.7-0.4-3.3-0.9-4.4-1.5
								c-1.1-0.6-1.7-0.9-1.7-0.9c0-0.2,2.6,1.1,6.1,2C228.8,238.5,231.7,238.5,231.5,238.6z"/>
						</g>
					</g>
					<g>
						<g>
							<path class="st16" d="M255,231.2c0,0.2-1.1,0.9-2.6,1.5c-1.5,0.7-3,0.9-3,0.7c0-0.2,1.3-0.6,2.8-1.1
								C253.7,231.8,255,231.2,255,231.2z"/>
						</g>
					</g>
					<g>
						<g>
							<path class="st16" d="M236.7,220.7c0,0,0.6,0.2,1.1,0.9c0.6,0.6,1.5,1.7,2,3c0.6,1.3,0.7,2.4,0.9,3.3c0,0.9,0,1.5,0,1.5
								c-0.2,0,0-2.2-1.3-4.6C238.4,222.4,236.7,220.9,236.7,220.7z"/>
						</g>
					</g>
					<g>
						<g>
							<path class="st16" d="M211.2,232.4c0,0-0.2-0.2-0.4-0.7c-0.2-0.6-0.4-1.3-0.6-2.2c-0.4-1.8-0.6-4.6,0-7.6s1.5-5.5,2.2-7.2
								c0.4-0.9,0.7-1.7,0.9-2.2c0.2-0.6,0.4-0.7,0.4-0.7s0,0.4-0.2,0.7c-0.2,0.6-0.6,1.3-0.7,2.2c-0.6,1.8-1.5,4.4-2,7.2
								c-0.6,3-0.6,5.5-0.2,7.6C210.8,231.2,211.4,232.4,211.2,232.4z"/>
						</g>
					</g>
					<g>
						<g>
							<path class="st16" d="M192.2,224.6c0,0,0-0.4,0.2-0.7c0.2-0.6,0.4-1.3,0.6-2.2c0.6-1.8,1.7-4.3,3.3-6.7
								c1.7-2.4,3.5-4.3,5-5.5c0.7-0.6,1.3-1.1,1.8-1.3c0.4-0.4,0.7-0.4,0.7-0.4s-0.9,0.7-2.4,2c-1.5,1.3-3.3,3.1-4.8,5.5
								c-1.7,2.4-2.8,4.8-3.5,6.5C192.5,223.5,192.2,224.6,192.2,224.6z"/>
						</g>
					</g>
					<g>
						<g>
							<path class="st16" d="M195.3,195.9c0,0-0.9,0.2-2.4,0.6c-1.5,0.4-3.3,1.1-5.4,2.4c-1.8,1.1-3.5,2.4-4.6,3.5
								c-1.1,1.1-1.7,1.8-1.7,1.8s0-0.2,0.4-0.6c0.2-0.2,0.2-0.4,0.4-0.6c0.2-0.2,0.4-0.6,0.7-0.7c0.9-1.1,2.6-2.4,4.6-3.7
								c2-1.1,3.9-2,5.4-2.2c0.4,0,0.7-0.2,0.9-0.2c0.4,0,0.6,0,0.7,0C194.9,195.9,195.3,195.9,195.3,195.9z"/>
						</g>
					</g>
					<g>
						<g>
							<path class="st16" d="M187.7,185c0,0.2-3.1-0.4-7,0.6c-3.9,0.9-6.3,3-6.5,2.8c0,0,0.6-0.6,1.7-1.3c1.1-0.7,2.8-1.5,4.6-2
								c1.8-0.6,3.7-0.6,5-0.6C186.8,184.7,187.7,184.8,187.7,185z"/>
						</g>
					</g>
				</g>
				<g>
					<g>
						<path class="st15" d="M232.1,238.6c0,0,0,0.2,0.2,0.6c0.2,0.4,0.2,0.9,0.4,1.5c0.4,1.5,0.9,3.3,1.5,5.7c1.3,5,3,11.8,4.8,19.8
							v0.4l-0.4-0.2c-2.8-0.7-5.5-1.5-8.5-2.4c-9.6-2.8-18.5-5.2-24.8-7h0.2c-1.8,3.1-3.1,5.5-4.3,7.4c-0.6,0.9-0.9,1.5-1.1,2
							c-0.2,0.2-0.2,0.4-0.4,0.6c0,0.2-0.2,0.2-0.2,0.2s0,0,0-0.2c0-0.2,0.2-0.4,0.2-0.6c0.2-0.6,0.6-1.1,1.1-2
							c0.9-1.8,2.4-4.3,4.1-7.4v-0.2h0.2c6.5,1.8,15.2,4.3,25,7c3,0.7,5.7,1.7,8.5,2.4l-0.2,0.2c-1.8-8-3.5-15-4.6-19.8
							c-0.6-2.4-0.9-4.4-1.3-5.7c-0.2-0.7-0.2-1.1-0.4-1.5C232.1,238.8,232.1,238.6,232.1,238.6z"/>
					</g>
				</g>
				<g>
					<g>
						<path class="st15" d="M250.4,237c0,0,0,0.2,0.2,0.6c0.2,0.4,0.2,0.7,0.4,1.3c0.4,1.3,0.7,3,1.3,5.2c1.1,4.4,2.6,10.4,4.3,16.8
							c0.7,3.3,1.7,6.5,2.2,9.2c0.7,3,0.9,5.5,0.6,7.8c-0.4,2.2-1.1,3.9-1.8,5c-0.7,1.1-1.3,1.5-1.3,1.5s0.6-0.6,1.1-1.5
							c0.7-1.1,1.5-2.8,1.7-4.8c0.4-2.2,0-4.8-0.7-7.8c-0.7-3-1.5-6.1-2.4-9.2c-1.7-6.7-3.1-12.6-4.1-17c-0.6-2.2-0.9-3.9-1.3-5.2
							c-0.2-0.6-0.2-1.1-0.4-1.5C250.4,237.2,250.4,237,250.4,237z"/>
					</g>
				</g>
				<g class="st17">
					<g>
						<g>
							<path class="st9" d="M256.3,284.7c4.8,0.4,7.8-2.4,8.3-6.1c0.4-2-0.4-4.3-1.1-6.3c-3-8.7-6.1-17.6-10.7-25.5
								c1.8,8,4.1,15.7,5.9,23.7c0.6,2.6,0.7,4.1,0.7,6.8C259.3,279.7,258.2,282.7,256.3,284.7"/>
						</g>
					</g>
				</g>
			</g>
			<g>
				<g>
					<g>
						<path class="st10" d="M238.4,212.8c2.6,0.7,5.5,0.4,8-0.9c2.4-1.5,4.1-3.9,4.6-6.7c1.3,1.3,3.3,1.7,5,1.3
							c1.8-0.4,3.3-1.3,4.6-2.6c2.4-2.2,4.1-5.5,3.9-8.9c-0.2-3.3-2.2-6.7-5.4-7.8c-3.1-1.1-7,0.4-8.3,3.3c-0.6-1.7,0.9-4.1,0.6-5.9
							c-0.7-3.7-3-5.7-4.6-5.7"/>
					</g>
				</g>
				<g>
					<g>
						<g>
							<g>
								<g>
									<path class="st10" d="M242.3,211.8c3.5-6.3,4.6-14.6,5.5-21.6c0.4-3.3,1.1-8.1-1.1-10.4c-2.4-2.2-2.8-5.7-5.5-7.6
										c-2.8-1.7-6.7-1.8-9.4,0.2"/>
								</g>
							</g>
							<g>
								<g>
									<g>
										<g>
											<g>
												<g>
													<g>
														<g>
															<g>
																<path class="st12" d="M223.8,224.2v-9.8c0,0-10.2-1.8-10.7-10c-0.6-8.1-0.4-27-0.4-27l0,0
																	c8.9-4.6,19.6-4.1,27.9,1.8l-0.4,28.7v9.4l-8.3,6.8l-8,6.3v-6.3H223.8z"/>
															</g>
														</g>
													</g>
												</g>
											</g>
										</g>
									</g>
									<g>
										<g>
											<path class="st10" d="M220.8,194.5c1.3-1.7,3.5-2.4,5.4-1.3c1.8,1.3,2.6,3.9,1.5,5.9c-0.7,1.5-2.2,2.8-3.9,3
												c0,0,3.7,6.7,5.9,8.5c2.8,2,4.1,3.1,7.6,3.5c3.3,0.4,3,0.4,5-2.4c1.5-2,1.8-4.1,1.8-6.7c0.2-6.1,0.2-12,0.4-18.1
												c0-2.2,0-4.4-0.4-6.5c-0.4-2-1.5-4.1-3.3-5.4c-1.8-1.3-4.4-1.5-6.5-2.2c-2.8-0.9-5-2.8-7.6-4.1s-5.7-2.2-8.3-0.7
												c-1.8,0.9-3.1,3-4.8,3.9c-2.6,1.5-6.1,1.1-7.2,5c-0.4,1.3-0.4,2.8,0,4.1c1.7,5.4,8.1,7.4,12.6,5.2c0.2,0.9-0.7,3,0.2,5.7
												C219.3,193.2,219.5,194.5,220.8,194.5"/>
										</g>
									</g>
								</g>
								<g>
									<g>
										<g>
											<path class="st13" d="M222.3,199.6c0,0,0,0.2,0.2,0.4c0.2,0.2,0.4,0.4,0.9,0.4c0.9,0,2-0.9,2-2.2c0-0.7-0.2-1.3-0.6-1.7
												c-0.4-0.4-0.9-0.6-1.3-0.7c-0.7-0.2-1.3,0.2-1.3,0.2c0,0.2,0.6,0,1.1,0.2c0.6,0.2,1.5,0.9,1.3,2c0,1.1-0.9,1.8-1.5,1.8
												C222.7,200,222.3,199.6,222.3,199.6z"/>
										</g>
									</g>
								</g>
							</g>
						</g>
					</g>
					<g>
						<g>
							<path class="st18" d="M263.7,195.4c0,0,0,0.4-0.2,0.7c-0.2,0.6-0.6,1.1-1.1,1.8c-1.1,1.5-3.1,3.3-6.1,3.7
								c-3,0.4-5.4-0.7-6.8-1.8c-0.7-0.6-1.3-1.1-1.7-1.5c-0.4-0.4-0.4-0.7-0.4-0.7s0.7,0.9,2.2,2c1.5,1.1,3.9,2,6.7,1.7
								c2.8-0.4,4.8-2,5.9-3.5C263.2,196.5,263.5,195.4,263.7,195.4z"/>
						</g>
					</g>
					<g>
						<g>
							<path class="st18" d="M262.6,194.1c0,0,0,0.2-0.4,0.6c-0.2,0.4-0.6,0.9-1.1,1.5c-1.1,1.1-3,2.6-5.4,3.1
								c-2.4,0.6-4.6,0-6.1-0.6c-0.7-0.4-1.3-0.7-1.7-0.9c-0.4-0.2-0.6-0.4-0.6-0.4s0.7,0.6,2.2,1.1c1.5,0.6,3.7,0.9,5.9,0.4
								s4.1-1.8,5.2-3C262,194.8,262.4,193.9,262.6,194.1z"/>
						</g>
					</g>
					<g>
						<g>
							<path class="st18" d="M248.9,204.4c0,0-0.2,0-0.4,0.2c-0.2,0.2-0.6,0.2-1.1,0.4c-0.9,0.2-2.4-0.2-3.9-1.1
								c-1.5-0.9-2.8-2.8-3.7-4.8c-0.9-2-1.8-4.4-3.3-6.5c-0.7-1.1-1.7-1.8-2.8-2.4c-1.1-0.6-2.2-0.7-3.3-0.9
								c-2.2-0.2-4.3,0-5.9-0.4c-1.7-0.2-3-0.7-3.9-1.3c-0.4-0.2-0.7-0.6-0.9-0.7c-0.2-0.2-0.2-0.2-0.2-0.4c0,0,0.4,0.4,1.3,0.7
								c0.7,0.4,2.2,0.9,3.9,1.1s3.7,0,5.9,0.2c1.1,0.2,2.4,0.4,3.5,0.9c1.1,0.6,2.2,1.5,3,2.4c1.7,2.2,2.4,4.6,3.3,6.5
								c0.9,2,2,3.7,3.5,4.6c1.3,0.9,2.8,1.3,3.7,1.1C248.4,204.8,248.9,204.4,248.9,204.4z"/>
						</g>
					</g>
					<g>
						<g>
							<path class="st18" d="M248,201.5c0,0-0.2,0-0.4,0c-0.2,0-0.6,0-1.1-0.2c-0.9-0.2-2-0.9-3.1-2.2c-0.6-0.6-1.1-1.3-1.5-2.2
								c-0.6-0.9-0.9-1.8-1.3-2.8c-0.6-0.9-0.9-1.8-1.7-2.8c-0.4-0.4-0.7-0.9-1.1-1.3c-0.2-0.2-0.6-0.4-0.7-0.6
								c-0.2-0.2-0.6-0.4-0.7-0.6c-1.1-0.6-2.2-0.7-3.3-0.9c-1.1-0.2-2.2-0.2-3.3-0.2c-2,0-4.1,0-5.7-0.2c-1.7-0.2-3-0.7-3.7-1.1
								c-0.4-0.2-0.7-0.4-0.9-0.6c-0.2-0.2-0.4-0.2-0.2-0.2c0,0,0.4,0.2,1.3,0.7c0.7,0.4,2,0.7,3.7,0.9c1.7,0.2,3.5,0,5.7,0
								c1.1,0,2.2,0,3.3,0.2c1.1,0.2,2.4,0.4,3.5,1.1c0.4,0.2,0.6,0.4,0.7,0.6c0.2,0.2,0.6,0.4,0.7,0.6c0.4,0.4,0.9,0.9,1.3,1.3
								c0.7,0.9,1.3,2,1.7,3c0.6,0.9,0.9,1.8,1.3,2.8c0.4,0.7,0.9,1.5,1.5,2.2c0.9,1.3,2.2,1.8,3,2.2
								C247.6,201.5,248,201.5,248,201.5z"/>
						</g>
					</g>
					<path class="st18" d="M250,205.7c0,0-0.2-0.2-0.4-0.4c-0.2-0.2-0.6-0.7-0.9-1.3c-0.7-1.1-1.5-3-1.7-5c0-2,0.6-3.9,1.1-5.2
						c0.4-0.6,0.6-1.1,0.9-1.3c0.2-0.4,0.4-0.4,0.4-0.4s-0.6,0.7-1.1,1.8c-0.6,1.1-1.1,3-1.1,5s0.7,3.7,1.5,4.8
						C249.5,205,250,205.7,250,205.7z"/>
				</g>
			</g>
		</g>
	</g>
	<g id="Plant">
		<g>
			<g>
				<g>
					<g>
						<g>
							<g>
								<path class="st6" d="M437,318.2c5.5,2,12.9,0.2,17.8-3.3c4.8-3.5,8.3-8.5,11.3-13.7c1.3-2.2,2.6-4.4,3-6.8
									c0.4-2.6-0.2-5.4-2.2-7c-3-2.6-7.6-1.3-11.1,0.7C445.1,294.1,437.7,305.8,437,318.2"/>
							</g>
						</g>
					</g>
				</g>
				<g>
					<g>
						<g>
							<g>
								<path class="st6" d="M442.9,331.5c3.3,4.4,9.1,6.5,14.6,6.7c5.5,0.2,11.1-1.3,16.3-3.3c1.8-0.7,3.9-1.7,4.6-3.7
									c0.6-1.5,0-3.1-0.9-4.3c-0.9-1.1-2.4-2-3.7-2.6c-5.2-2.2-10.9-2.2-16.3-0.9C452.1,324.6,447.3,328,442.9,331.5"/>
							</g>
						</g>
					</g>
				</g>
				<g>
					<g>
						<g>
							<g>
								<path class="st6" d="M436.8,294.1c4.6,0.2,8.1-3.9,10.2-8.1c3-5.7,3.9-12.4,2.8-18.7c-0.4-2.4-1.3-5-3.5-6.1
									c-2.2-1.1-5-0.4-6.8,1.3c-1.8,1.7-2.8,4.1-3.5,6.3C433.6,276.9,434.2,286.2,436.8,294.1"/>
							</g>
						</g>
					</g>
				</g>
				<g>
					<g>
						<g>
							<g>
								<path class="st6" d="M421.6,319.6c8-13.5,9.2-30,4.6-44.7c-0.7-2.4-2.2-5.2-4.6-5.4c-2.8-0.2-4.6,3-5.4,5.5
									c-2.8,9.4-2.2,19.4-1.5,29.2C415,310.6,417,315.7,421.6,319.6"/>
							</g>
						</g>
					</g>
				</g>
				<g>
					<g>
						<g>
							<g>
								<path class="st6" d="M413.5,325.2c-2.8-9.2-10.2-17-19.2-20.3c-2-0.7-4.8-1.3-6.3,0.4c-1.5,1.7-1.1,4.3,0,6.1
									c1.7,3.1,4.3,5.7,6.7,8.1c2.4,2.2,4.8,4.4,7.8,5.7C405.3,326.7,410.7,327,413.5,325.2"/>
							</g>
						</g>
					</g>
				</g>
				<g>
					<g>
						<g>
							<g>
								<path class="st19" d="M462.5,290.8C462.5,290.8,462.3,290.8,462.5,290.8c-0.2,0.2-0.4,0.4-0.6,0.4c-0.4,0.4-0.9,0.7-1.7,1.3
									c-0.4,0.2-0.7,0.6-1.1,0.9c-0.4,0.4-0.9,0.7-1.3,1.1c-0.9,0.7-2.2,1.7-3.3,2.8c-0.6,0.6-1.3,1.1-1.8,1.7
									c-0.6,0.6-1.3,1.3-1.8,1.8c-1.3,1.3-2.6,2.8-4.1,4.4c-2.8,3.1-5.5,7-8.1,11.1c-2.6,4.3-4.6,8.3-6.3,12.2
									c-0.7,2-1.5,3.9-2,5.5c-0.4,0.9-0.6,1.7-0.9,2.6c-0.2,0.9-0.6,1.7-0.7,2.4c-0.6,1.5-0.7,3-1.1,4.3c-0.2,0.6-0.4,1.1-0.4,1.7
									c-0.2,0.6-0.2,1.1-0.2,1.5c-0.2,0.9-0.4,1.5-0.4,2c0,0.2,0,0.4-0.2,0.6c0,0.2,0,0.2,0,0.2s0,0,0-0.2c0-0.2,0-0.4,0-0.6
									c0-0.6,0.2-1.1,0.4-2c0-0.4,0.2-0.9,0.2-1.5c0.2-0.6,0.2-1.1,0.4-1.7c0.2-1.3,0.6-2.8,0.9-4.3c0.2-0.7,0.4-1.7,0.7-2.4
									c0.2-0.9,0.6-1.7,0.9-2.6c0.6-1.8,1.3-3.7,2-5.7c1.7-3.9,3.7-8.1,6.3-12.4s5.4-8,8.1-11.1c1.5-1.7,2.8-3.1,4.1-4.4
									c0.7-0.7,1.3-1.3,2-1.8c0.7-0.6,1.3-1.1,1.8-1.7c1.1-1.1,2.4-2,3.3-2.8c0.6-0.4,0.9-0.7,1.5-1.1c0.4-0.4,0.9-0.6,1.3-0.9
									c0.7-0.6,1.3-0.9,1.7-1.1C461.9,291,462.1,290.8,462.5,290.8C462.3,290.8,462.5,290.8,462.5,290.8z"/>
							</g>
						</g>
					</g>
				</g>
				<g>
					<g>
						<g>
							<g>
								<path class="st19" d="M472.8,328c0,0-0.2,0-0.6,0c-0.4,0-0.9-0.2-1.5-0.4c-1.3-0.2-3.3-0.6-5.7-0.7
									c-4.8-0.4-11.6,0.2-18.5,3.1c-6.8,2.8-12.2,7.4-15.3,10.9c-1.7,1.8-2.8,3.3-3.5,4.6c-0.4,0.6-0.7,0.9-0.9,1.3
									c-0.2,0.4-0.4,0.4-0.4,0.4s0-0.2,0.2-0.6c0.2-0.4,0.4-0.7,0.7-1.3c0.7-1.1,1.8-2.8,3.5-4.6c3.1-3.7,8.5-8.3,15.3-11.1
									c7-3,13.9-3.5,18.7-3c2.4,0.2,4.4,0.6,5.7,0.7c0.7,0.2,1.1,0.4,1.5,0.4C472.7,328,472.8,328,472.8,328z"/>
							</g>
						</g>
					</g>
				</g>
				<g>
					<g>
						<g>
							<g>
								<path class="st19" d="M443.6,266.6c0,0,0,0,0,0.2c0,0.2,0,0.4-0.2,0.6c-0.2,0.6-0.4,1.3-0.6,2.4c-0.4,2-1.1,5-2,8.5
									c-1.7,7.2-4.3,17-6.8,27.9c-1.3,5.5-2.4,10.7-3.5,15.5c-0.9,4.8-1.8,9.1-2.4,12.8c-0.4,1.8-0.6,3.5-0.9,4.8
									c-0.2,1.5-0.4,2.8-0.6,3.7s-0.2,1.8-0.4,2.4c0,0.2,0,0.4-0.2,0.6c0,0.2,0,0.2,0,0.2s0,0,0-0.2c0-0.2,0-0.4,0-0.6
									c0-0.6,0.2-1.3,0.4-2.4s0.4-2.2,0.6-3.7s0.4-3.1,0.7-5c0.6-3.7,1.5-8,2.4-12.8c0.9-4.8,2.2-10,3.5-15.5
									c2.6-10.9,5.2-20.7,7-27.9c0.9-3.5,1.7-6.5,2.2-8.5c0.2-0.9,0.4-1.7,0.6-2.2c0-0.2,0.2-0.4,0.2-0.6
									C443.6,266.6,443.6,266.6,443.6,266.6z"/>
							</g>
						</g>
					</g>
				</g>
				<g>
					<g>
						<g>
							<g>
								<path class="st19" d="M425.5,345L425.5,345c0-0.4-0.2-0.4-0.2-0.7c-0.2-0.4-0.2-1.1-0.4-1.8c-0.4-1.7-0.7-4.1-1.3-6.8
									c-0.9-5.9-2.2-14.1-3-22.9c-0.4-4.4-0.6-8.9-0.6-12.8s0-7.4,0-10.4c0-1.5,0.2-2.8,0.2-4.1c0-1.1,0.2-2.2,0.2-3
									c0-0.7,0.2-1.5,0.2-1.8c0-0.2,0-0.4,0-0.6s0-0.2,0-0.2s0,0,0,0.2s0,0.4,0,0.6c0,0.6,0,1.1-0.2,1.8c0,0.7-0.2,1.8-0.2,3
									c0,1.1-0.2,2.6-0.2,4.1c0,3-0.2,6.5,0,10.4c0.2,3.9,0.4,8.3,0.7,12.8c0.7,9.1,1.8,17.2,2.8,22.9c0.6,3,0.9,5.4,1.1,6.8
									c0.2,0.7,0.2,1.5,0.4,1.8C425.5,344.4,425.5,344.6,425.5,345L425.5,345z"/>
							</g>
						</g>
					</g>
				</g>
				<g>
					<g>
						<g>
							<g>
								<path class="st19" d="M426.1,346.6c0,0,0-0.2-0.2-0.6s-0.4-0.7-0.6-1.3c-0.2-0.4-0.2-0.6-0.4-0.9c-0.2-0.4-0.4-0.7-0.6-1.1
									c-0.2-0.4-0.4-0.9-0.6-1.3c-0.2-0.6-0.6-0.9-0.7-1.5c-0.2-0.6-0.6-1.1-0.7-1.5c-0.4-0.6-0.6-1.1-0.9-1.7
									c-0.6-1.1-1.5-2.4-2.2-3.5c-1.7-2.4-3.7-5-5.9-7.6c-2.2-2.6-4.6-4.8-6.8-6.8c-1.1-0.9-2.2-1.8-3.1-2.8
									c-0.6-0.4-0.9-0.7-1.5-1.1c-0.6-0.4-0.9-0.7-1.5-1.1c-0.9-0.7-1.7-1.3-2.4-1.7c-0.7-0.6-1.3-0.9-1.8-1.3
									c-0.6-0.4-0.9-0.6-1.3-0.7c-0.4-0.2-0.4-0.4-0.4-0.4s0.2,0,0.4,0.2c0.4,0.2,0.7,0.4,1.3,0.7c0.6,0.4,1.3,0.7,2,1.3
									c0.7,0.6,1.7,1.1,2.6,1.7c0.4,0.4,0.9,0.7,1.5,1.1s0.9,0.7,1.5,1.1c1.1,0.7,2,1.7,3.3,2.8c2.2,2,4.6,4.3,6.8,6.8
									c2.2,2.6,4.3,5.2,5.9,7.6c0.7,1.3,1.7,2.4,2.2,3.5c0.4,0.6,0.6,1.1,0.9,1.7c0.2,0.6,0.6,1.1,0.7,1.7
									c0.2,0.6,0.6,0.9,0.7,1.5c0.2,0.6,0.4,0.9,0.6,1.3c0.2,0.4,0.4,0.7,0.6,1.1c0.2,0.4,0.2,0.7,0.4,0.9
									c0.2,0.6,0.4,1.1,0.4,1.3C426.1,346.4,426.1,346.6,426.1,346.6z"/>
							</g>
						</g>
					</g>
				</g>
				<g>
					<g>
						<g>
							<g>
								<path class="st19" d="M459.5,306.3c0,0-0.9,0-2.4,0.2c-1.5,0-3.7,0.4-5.9,0.7c-2.2,0.4-4.4,1.1-5.7,1.5
									c-1.5,0.6-2.4,0.9-2.4,0.7c0,0,0.2-0.2,0.6-0.4c0.4-0.2,0.9-0.4,1.7-0.7c1.5-0.6,3.5-1.1,5.9-1.7c2.4-0.4,4.4-0.6,6.1-0.6
									c0.7,0,1.5,0,1.8,0C459.2,306.3,459.5,306.3,459.5,306.3z"/>
							</g>
						</g>
					</g>
				</g>
				<g>
					<g>
						<g>
							<g>
								<path class="st19" d="M465.4,335.3c-0.2,0-0.9-2.6-3.3-5c-2.2-2.4-4.8-3.5-4.6-3.7c0,0,0.7,0.2,1.7,0.7
									c0.9,0.6,2.2,1.5,3.3,2.6c1.1,1.3,1.8,2.6,2.4,3.5C465.3,334.8,465.4,335.3,465.4,335.3z"/>
							</g>
						</g>
					</g>
				</g>
				<g>
					<g>
						<g>
							<g>
								<path class="st19" d="M445.1,277.5c0,0-1.3,1.5-3,3.5c-1.7,2-2.8,3.7-2.8,3.7s0.9-1.8,2.6-3.9
									C443.4,278.8,445.1,277.5,445.1,277.5z"/>
							</g>
						</g>
					</g>
				</g>
				<g>
					<g>
						<g>
							<g>
								<path class="st19" d="M440.3,269.3c0.2,0,0.4,1.3,0.7,3.1c0.4,1.7,0.4,3.1,0.4,3.1c-0.2,0-0.4-1.3-0.7-3.1
									C440.5,270.6,440.3,269.3,440.3,269.3z"/>
							</g>
						</g>
					</g>
				</g>
				<g>
					<g>
						<g>
							<g>
								<path class="st19" d="M425.5,295c0,0-0.9,2.2-2.4,4.8c-1.3,2.6-2.6,4.8-2.6,4.6c0,0,0.9-2.2,2.4-4.8
									C424.2,297.3,425.5,295,425.5,295z"/>
							</g>
						</g>
					</g>
				</g>
				<g>
					<g>
						<g>
							<g>
								<path class="st19" d="M416.8,286.3c0,0,0.9,1.5,2,3.5c0.9,2,1.7,3.7,1.7,3.7s-0.9-1.5-2-3.5
									C417.4,288,416.6,286.3,416.8,286.3z"/>
							</g>
						</g>
					</g>
				</g>
				<g>
					<g>
						<g>
							<g>
								<path class="st19" d="M403.9,316.3c0,0.2-1.7-0.2-3.5-0.4c-2-0.2-3.5,0-3.5-0.2s1.7-0.4,3.5-0.2
									C402.2,315.7,403.9,316.3,403.9,316.3z"/>
							</g>
						</g>
					</g>
				</g>
			</g>
			<g>
				<g>
					<g>
						<g>
							<g>
								<path class="st10" d="M412.7,342.9l4.4,23.1c0.4,1.5,1.7,2.6,3.1,2.6h12.9c1.7,0,3-1.1,3.1-2.8l3.9-23.1h-27.6V342.9z"/>
							</g>
						</g>
					</g>
				</g>
				<g>
					<g>
						<g>
							<g>
								<polygon class="st20" points="414,350.5 439,350.5 440.3,342.9 412.7,342.9 								"/>
							</g>
						</g>
					</g>
				</g>
				<g>
					<g>
						<g>
							<polygon class="st16" points="414,350.5 414.6,353.3 438.6,353.3 439,350.5 							"/>
						</g>
					</g>
				</g>
			</g>
		</g>
	</g>
	<g id="Background_Complete">
		<path class="st21" d="M151.8,137.7L151.8,137.7L151.8,137.7c0.2-2.4,0-4.4,0-6.5V131h-0.2c-1.3-0.2-2.4-0.6-3.7-0.7
			c-0.4-1.3-0.9-2.6-1.7-3.7c0.7-1.1,1.3-2.2,1.8-3.1v-0.2H148c-1.7-1.5-3.1-3-4.6-4.4l0,0h-0.2c-1.1,0.7-2.2,1.5-3.1,2
			c-1.3-0.7-2.6-1.1-3.7-1.5c-0.4-1.3-0.6-2.6-0.9-3.7l0,0l0,0c-2.4,0-4.6,0.2-6.3,0.2l0,0l0,0c-0.4,1.5-0.6,2.8-0.7,3.7
			c-1.3,0.4-2.2,0.9-2.8,1.1c-0.4,0.2-0.6,0.4-0.7,0.4s-0.2,0.2-0.2,0.2l0,0c0,0,0,0-0.2-0.2s-0.4-0.2-0.6-0.4
			c-0.6-0.4-1.3-0.9-2.4-1.5l0,0l0,0c-1.1,1.1-2.6,2.8-4.4,4.4l0,0l0,0c0.6,0.9,1.3,2,2,3.1c-0.6,1.1-1.1,2.4-1.5,3.7
			c-1.1,0.2-2.4,0.6-3.7,0.9h-0.2v0.2c0,2,0,4.1,0.2,6.3v0.2h0.2c1.1,0.2,2.4,0.6,3.7,0.7c0.4,1.1,0.9,2.4,1.7,3.7
			c-0.6,0.9-1.3,2-1.8,3.1v0.2l0.2,0.2c1.5,1.3,3,3,4.6,4.4l0.2,0.2h0.2c0.9-0.6,2-1.3,3.1-2c1.1,0.6,2.4,1.1,3.7,1.5
			c0.4,1.1,0.6,2.4,0.9,3.7v0.2h0.2c2,0,4.1,0,6.3-0.2h0.2v-0.2c0.2-1.1,0.6-2.4,0.7-3.7c1.3-0.4,2.4-0.9,3.7-1.5
			c1.1,0.6,2.2,1.3,3.1,1.8h0.2l0.2-0.2c1.5-1.5,3-3.1,4.4-4.6l0.2-0.2v-0.2c-0.7-1.1-1.3-2-2-3.1c0.6-1.1,1.1-2.4,1.5-3.7
			C149.4,138.2,150.7,138.1,151.8,137.7z M129.7,128.8c0.9-0.6,2.4-1.1,4.3-0.9c0.9,0.2,2,0.4,2.8,1.1c0.9,0.6,1.8,1.5,2.2,2.6
			c0.4,0.6,0.6,1.1,0.6,1.8c0.2,0.6,0.2,1.3,0,2c-0.2,1.3-0.7,2.6-1.8,3.7c-0.9,1.1-2.2,1.7-3.7,1.8c-0.7,0.2-1.3,0.2-2,0
			c-0.6,0-1.3-0.2-1.8-0.6c-1.1-0.6-2-1.3-2.8-2.2c-0.7-0.9-0.9-1.8-1.1-2.8c-0.4-1.8,0.2-3.5,0.7-4.4c0.6-0.9,0.9-1.3,0.9-1.3
			C128.4,129.7,128.7,129.4,129.7,128.8z M125.8,120.9L125.8,120.9c-0.2,0-0.2,0.2-0.4,0.2C125.4,121,125.6,121,125.8,120.9z
			 M124.9,121.4L124.9,121.4L124.9,121.4L124.9,121.4z"/>
		<g>
			<path class="st22" d="M326.8,172.3L326.8,172.3L326.8,172.3c-0.7-0.2-1.5-0.4-2.2-0.6c-0.2-0.7-0.6-1.5-0.9-2.2
				c0.4-0.7,0.7-1.3,1.1-1.8l0,0l0,0c-0.9-0.9-1.8-1.8-2.8-2.6l0,0l0,0c-0.7,0.4-1.3,0.9-1.8,1.3c-0.7-0.4-1.5-0.7-2.2-0.9
				c-0.2-0.7-0.4-1.5-0.6-2.2l0,0l0,0c-1.5,0-2.8,0-3.7,0l0,0l0,0c-0.2,0.9-0.4,1.7-0.4,2.2c-0.7,0.2-1.3,0.6-1.7,0.7
				c-0.2,0.2-0.4,0.2-0.4,0.2H311c0,0,0,0-0.2,0c0,0-0.2-0.2-0.4-0.2c-0.4-0.2-0.7-0.6-1.5-0.9l0,0l0,0c-0.7,0.7-1.5,1.7-2.6,2.8
				l0,0l0,0c0.4,0.6,0.7,1.3,1.3,1.8c-0.4,0.7-0.7,1.5-0.9,2.2c-0.7,0.2-1.5,0.4-2.2,0.6l0,0l0,0c0,1.1,0,2.4,0,3.7l0,0l0,0
				c0.7,0.2,1.5,0.4,2.2,0.4c0.2,0.7,0.6,1.5,0.9,2.2c-0.4,0.6-0.7,1.3-1.1,1.8l0,0l0,0c0.9,0.7,1.8,1.7,2.8,2.6l0,0l0,0
				c0.6-0.4,1.3-0.7,1.8-1.3c0.7,0.4,1.5,0.7,2.2,0.9c0.2,0.7,0.4,1.5,0.6,2.2l0,0l0,0c1.1,0,2.4,0,3.7,0l0,0l0,0
				c0.2-0.7,0.4-1.5,0.4-2.2c0.7-0.2,1.5-0.6,2.2-0.9c0.6,0.4,1.3,0.7,1.8,1.1l0,0l0,0c0.9-0.9,1.8-1.8,2.6-2.8l0,0l0,0
				c-0.4-0.6-0.7-1.3-1.3-1.8c0.4-0.7,0.7-1.5,0.9-2.2c0.7-0.2,1.5-0.4,2.2-0.6l0,0l0,0C326.8,174.9,326.8,173.6,326.8,172.3z
				 M313.5,170.8c0.6-0.4,1.5-0.7,2.6-0.6c0.6,0,1.1,0.2,1.7,0.6c0.6,0.4,1.1,0.9,1.3,1.7c0.2,0.4,0.4,0.7,0.4,1.1s0,0.7,0,1.1
				c-0.2,0.7-0.6,1.7-1.1,2.2c-0.6,0.6-1.3,1.1-2.2,1.1c-0.4,0-0.7,0-1.1,0c-0.4,0-0.7-0.2-1.1-0.4c-0.7-0.4-1.3-0.7-1.7-1.3
				c-0.4-0.6-0.6-1.1-0.7-1.7c-0.2-1.1,0.2-2,0.4-2.6c0.4-0.6,0.6-0.7,0.6-0.7C312.7,171.5,312.9,171.2,313.5,170.8z M311.2,166.2
				L311.2,166.2c0,0-0.2,0-0.2,0.2C311,166.2,311,166.2,311.2,166.2z"/>
			<path class="st22" d="M277,54.9L277,54.9L277,54.9c-0.7-0.2-1.5-0.4-2.2-0.6c-0.2-0.7-0.6-1.5-0.9-2.2c0.4-0.7,0.7-1.3,1.1-1.8
				l0,0l0,0c-0.9-0.9-1.8-1.8-2.8-2.6l0,0l0,0c-0.7,0.4-1.3,0.9-1.8,1.3c-0.7-0.4-1.5-0.7-2.2-0.9c-0.2-0.7-0.4-1.5-0.6-2.2l0,0l0,0
				c-1.5,0-2.8,0-3.7,0l0,0l0,0c-0.2,0.9-0.4,1.7-0.4,2.2c-0.7,0.2-1.3,0.6-1.7,0.7c-0.2,0.2-0.4,0.2-0.4,0.2h-0.2l0,0l0,0l0,0l0,0
				c0,0,0,0-0.2,0c0,0-0.2-0.2-0.4-0.2c-0.4-0.2-0.7-0.6-1.5-0.9l0,0l0,0c-0.7,0.7-1.5,1.7-2.6,2.8l0,0l0,0c0.4,0.6,0.7,1.3,1.3,1.8
				c-0.4,0.7-0.7,1.5-0.9,2.2c-0.7,0.2-1.5,0.4-2.2,0.6l0,0l0,0c0,1.1,0,2.4,0,3.7l0,0l0,0c0.7,0.2,1.5,0.4,2.2,0.4
				c0.2,0.7,0.6,1.5,0.9,2.2c-0.4,0.6-0.7,1.3-1.1,1.8l0,0l0,0c0.9,0.7,1.8,1.7,2.8,2.6l0,0l0,0c0.6-0.4,1.3-0.7,1.8-1.3
				c0.7,0.4,1.5,0.7,2.2,0.9c0.2,0.7,0.4,1.5,0.6,2.2l0,0l0,0c1.1,0,2.4,0,3.7,0l0,0l0,0c0.2-0.7,0.4-1.5,0.4-2.2
				c0.7-0.2,1.5-0.6,2.2-0.9c0.6,0.4,1.3,0.7,1.8,1.1l0,0l0,0c0.9-0.9,1.8-1.8,2.6-2.8l0,0l0,0c-0.4-0.6-0.7-1.3-1.3-1.8
				c0.4-0.7,0.7-1.5,0.9-2.2c0.7-0.2,1.5-0.4,2.2-0.6l0,0l0,0C277,57.3,277,56.1,277,54.9z M263.5,53.4c0.6-0.4,1.5-0.7,2.6-0.6
				c0.6,0,1.1,0.2,1.7,0.6c0.6,0.4,1.1,0.9,1.3,1.7c0.2,0.4,0.4,0.7,0.4,1.1c0,0.4,0,0.7,0,1.1c-0.2,0.7-0.6,1.7-1.1,2.2
				c-0.6,0.6-1.3,1.1-2.2,1.1c-0.4,0-0.7,0-1.1,0c-0.4,0-0.7-0.2-1.1-0.4c-0.7-0.4-1.3-0.7-1.7-1.3c-0.4-0.6-0.6-1.1-0.7-1.7
				c-0.2-1.1,0.2-2,0.4-2.6c0.4-0.6,0.6-0.7,0.6-0.7C262.8,54.1,263.2,53.7,263.5,53.4z M261.3,48.8L261.3,48.8c0,0-0.2,0-0.2,0.2
				C261.1,48.8,261.3,48.8,261.3,48.8z"/>
			<path class="st22" d="M103.4,121.6L103.4,121.6L103.4,121.6c-0.7-0.2-1.5-0.4-2.2-0.6c-0.2-0.7-0.6-1.5-0.9-2.2
				c0.4-0.7,0.7-1.3,1.1-1.8l0,0l0,0c-0.9-0.9-1.8-1.8-2.8-2.6l0,0l0,0c-0.7,0.4-1.3,0.9-1.8,1.3c-0.7-0.4-1.5-0.7-2.2-0.9
				c-0.2-0.7-0.4-1.5-0.6-2.2l0,0l0,0c-1.5,0-2.8,0-3.7,0l0,0l0,0c-0.2,0.9-0.4,1.7-0.4,2.2c-0.7,0.2-1.3,0.6-1.7,0.7
				c-0.2,0.2-0.4,0.2-0.4,0.2h-0.2c0,0,0,0-0.2,0c0,0-0.2-0.2-0.4-0.2c-0.4-0.2-0.7-0.6-1.5-0.9l0,0l0,0c-0.7,0.7-1.5,1.7-2.6,2.8
				l0,0l0,0c0.4,0.6,0.7,1.3,1.3,1.8c-0.4,0.7-0.7,1.5-0.9,2.2c-0.7,0.2-1.5,0.4-2.2,0.6l0,0l0,0c0,1.1,0,2.4,0,3.7l0,0l0,0
				c0.7,0.2,1.5,0.4,2.2,0.4c0.2,0.7,0.6,1.5,0.9,2.2c-0.4,0.6-0.7,1.3-1.1,1.8l0,0l0,0c0.9,0.7,1.8,1.7,2.8,2.6l0,0l0,0
				c0.6-0.4,1.3-0.7,1.8-1.3c0.7,0.4,1.5,0.7,2.2,0.9c0.2,0.7,0.4,1.5,0.6,2.2l0,0l0,0c1.1,0,2.4,0,3.7,0l0,0l0,0
				c0.2-0.7,0.4-1.5,0.4-2.2c0.7-0.2,1.5-0.6,2.2-0.9c0.6,0.4,1.3,0.7,1.8,1.1l0,0l0,0c0.9-0.9,1.8-1.8,2.6-2.8l0,0l0,0
				c-0.4-0.6-0.7-1.3-1.3-1.8c0.4-0.7,0.7-1.5,0.9-2.2c0.7-0.2,1.5-0.4,2.2-0.6l0,0l0,0C103.4,124.2,103.4,122.9,103.4,121.6z
				 M90.1,120.3c0.6-0.4,1.5-0.7,2.6-0.6c0.6,0,1.1,0.2,1.7,0.6c0.6,0.4,1.1,0.9,1.3,1.7c0.2,0.4,0.4,0.7,0.4,1.1s0,0.7,0,1.1
				c-0.2,0.7-0.6,1.7-1.1,2.2c-0.6,0.6-1.3,1.1-2.2,1.1c-0.4,0-0.7,0-1.1,0c-0.4,0-0.7-0.2-1.1-0.4c-0.7-0.4-1.3-0.7-1.7-1.3
				c-0.4-0.6-0.6-1.1-0.7-1.7c-0.2-1.1,0.2-2,0.4-2.6c0.4-0.6,0.6-0.7,0.6-0.7C89.2,120.9,89.5,120.5,90.1,120.3z M87.7,115.5
				L87.7,115.5c0,0-0.2,0-0.2,0.2C87.5,115.5,87.7,115.5,87.7,115.5z"/>
		</g>
		<path class="st22" d="M361.2,39.9L361.2,39.9L361.2,39.9c0-1.8,0-3.5,0-5v-0.2H361c-0.9-0.2-1.8-0.4-2.8-0.6
			c-0.4-0.9-0.7-1.8-1.3-2.8c0.6-0.9,0.9-1.7,1.5-2.4l0,0l0,0c-1.3-1.1-2.4-2.4-3.5-3.3l0,0l0,0c-0.9,0.6-1.7,1.1-2.4,1.7
			c-0.9-0.6-1.8-0.9-3-1.1c-0.2-1.1-0.6-1.8-0.7-2.8l0,0l0,0c-1.8,0-3.5,0-4.8,0.2l0,0l0,0c-0.2,1.1-0.4,2-0.6,2.8
			c-1.1,0.4-1.7,0.7-2.2,0.9c-0.2,0.2-0.4,0.2-0.6,0.4c-0.2,0-0.2,0.2-0.2,0.2l0,0l0,0l0,0l0,0c0,0,0,0-0.2-0.2
			c-0.2,0-0.2-0.2-0.6-0.4c-0.4-0.2-1.1-0.7-1.8-1.1l0,0l0,0c-0.9,0.9-2,2-3.3,3.5l0,0l0,0c0.6,0.7,0.9,1.5,1.7,2.4
			c-0.6,0.9-0.9,1.8-1.1,3c-0.9,0.2-1.8,0.4-2.8,0.7l0,0l0,0c0,1.5,0,3.1,0,4.8v0.2l0,0c0.9,0.2,1.8,0.4,2.8,0.6
			c0.2,0.9,0.7,1.8,1.3,2.8c-0.6,0.7-0.9,1.7-1.5,2.4l0,0l0,0c1.1,1.1,2.2,2.2,3.5,3.3l0,0h0.2c0.7-0.6,1.5-1.1,2.4-1.5
			c0.9,0.4,1.8,0.9,2.8,1.1c0.2,0.9,0.4,1.8,0.7,2.8v0.2h0.2c1.5,0,3.1,0,4.8,0h0.2v-0.2c0.2-0.9,0.4-1.8,0.6-2.8
			c0.9-0.2,1.8-0.7,2.8-1.3c0.7,0.6,1.7,0.9,2.4,1.5h0.2l0,0c1.1-1.1,2.2-2.4,3.3-3.5l0,0V46c-0.6-0.7-1.1-1.7-1.5-2.4
			c0.6-0.9,0.9-1.8,1.1-2.8C359.3,40.4,360.2,40.2,361.2,39.9z M344,33c0.7-0.4,1.8-0.9,3.3-0.7c0.7,0.2,1.5,0.4,2.2,0.7
			c0.7,0.6,1.3,1.1,1.8,2c0.2,0.4,0.4,0.9,0.4,1.5c0,0.6,0.2,0.9,0,1.5c-0.2,1.1-0.6,2-1.3,2.8s-1.8,1.3-2.8,1.5
			c-0.6,0.2-1.1,0.2-1.5,0c-0.6,0-0.9-0.2-1.5-0.4c-0.9-0.4-1.7-0.9-2-1.7c-0.6-0.7-0.7-1.5-0.9-2.2c-0.2-1.5,0.2-2.6,0.6-3.3
			c0.4-0.7,0.7-1.1,0.7-1.1C343,33.8,343.4,33.6,344,33z M341.2,26.9L341.2,26.9c0,0-0.2,0.2-0.4,0.2
			C340.8,27.1,341,27.1,341.2,26.9z"/>
		<path class="st23" d="M104.9,174.7c0,0-0.2,0-0.4-0.2c-0.4-0.2-0.7-0.4-1.1-0.7c-1.1-0.6-2.6-1.5-4.6-2.8H99c-2,2.2-5,5.2-8.3,8.7
			v-0.2c1.3,1.8,2.6,3.9,4.1,6.1v0.2v0.2c-1.1,2.2-2.2,4.6-2.8,7.2v0.2h-0.2c-2.2,0.6-4.6,1.1-7,1.7l0.2-0.2c0,3.7,0.2,7.8,0.2,12
			l-0.2-0.4c2.2,0.4,4.6,0.9,7,1.5h0.2v0.2c0.7,2.4,1.7,4.8,3.1,7l0.2,0.2l-0.2,0.2c-1.1,1.8-2.4,4.1-3.7,6.3v-0.4
			c2.8,2.6,5.7,5.4,8.7,8.3h-0.4c1.8-1.3,3.9-2.6,6.1-4.1l0.2-0.2l0.2,0.2c2,1.1,4.6,2.2,7.2,2.8h0.2v0.2c0.6,2.2,1.1,4.6,1.7,7
			l-0.4-0.2c3.9,0,8-0.2,12-0.2l-0.4,0.4c0.6-2.2,0.9-4.6,1.5-7v-0.2h0.2c2.4-0.7,4.8-1.7,7-3.1l0,0l0.2-0.2l0.2,0.2
			c2,1.3,4.1,2.6,6.3,3.7h-0.4c2.8-3,5.5-5.7,8.3-8.7v0.4c-1.3-2-2.6-4.1-3.9-6.1l-0.2-0.2l0.2-0.2c1.3-2.2,2.2-4.6,2.8-7.2v-0.2
			h0.2c2.4-0.6,4.8-1.1,7-1.7l-0.2,0.4c0-4.1-0.2-8.1-0.2-12l0.2,0.4c-2.4-0.6-4.8-0.9-7-1.5h-0.2v-0.2c-0.7-2.6-1.8-5-3.1-7
			l-0.2-0.2l0.2-0.2c1.3-2,2.6-4.3,3.7-6.3v0.4c-3-3-5.9-5.7-8.7-8.3h0.4c-2.2,1.5-4.1,2.8-6.1,3.9h-0.2h-0.2
			c-2.4-1.3-4.8-2.2-7.2-2.8h-0.2v-0.2c-0.6-2.6-1.1-4.8-1.7-7l0.2,0.2c-4.6,0-8.7,0.2-12,0.2l0.2-0.2c-0.6,2.8-1.1,5.2-1.5,7l0,0
			l0,0c-2.6,0.7-4.3,1.5-5.5,2c-0.6,0.4-0.9,0.6-1.3,0.7C105.1,174.7,104.9,174.7,104.9,174.7s0.2-0.2,0.4-0.2
			c0.2-0.2,0.7-0.4,1.3-0.7c1.1-0.6,3-1.5,5.5-2.2l0,0c0.4-1.8,0.9-4.3,1.5-7v-0.2h0.2c3.3,0,7.4-0.2,12-0.2h0.2v0.2
			c0.6,2.2,1.1,4.4,1.7,7l-0.2-0.2c2.4,0.6,4.8,1.5,7.4,3h-0.2c1.8-1.3,3.9-2.6,6.1-4.1l0.2-0.2l0.2,0.2c2.8,2.6,5.5,5.4,8.7,8.3
			l0.2,0.2l-0.2,0.2c-1.3,2-2.4,4.1-3.7,6.3v-0.4c1.3,2.2,2.4,4.6,3.1,7.2l-0.2-0.2c2.4,0.6,4.6,0.9,7,1.5h0.2v0.2
			c0,3.9,0.2,8,0.2,12v0.4h-0.2c-2.4,0.6-4.6,1.1-7,1.7l0.2-0.2c-0.6,2.6-1.7,5-3,7.4v-0.4c1.3,2,2.6,4.1,4.1,6.1l0.2,0.2l-0.2,0.2
			c-2.8,2.8-5.5,5.7-8.3,8.7l-0.2,0.2l-0.2-0.2c-2-1.3-4.1-2.6-6.3-3.7h0.4l0,0c-2.4,1.5-4.8,2.4-7.2,3.1l0.2-0.4
			c-0.6,2.4-0.9,4.8-1.5,7v0.4h-0.4c-4.1,0-8.1,0.2-12,0.2h-0.4v-0.4c-0.6-2.4-1.1-4.8-1.7-7l0.2,0.2c-2.6-0.7-5.2-1.7-7.4-3h0.4
			c-2,1.3-4.3,2.8-6.1,3.9l-0.2,0.2l-0.2-0.2c-3-3-5.9-5.7-8.7-8.3l-0.2-0.2l0.2-0.2c1.3-2.2,2.6-4.3,3.7-6.3v0.4
			c-1.5-2.4-2.4-4.8-3.1-7.2l0.2,0.2c-2.4-0.6-5-1.1-7-1.5h-0.2v-0.2c0-4.3-0.2-8.1-0.2-12v-0.2h0.2c2.4-0.6,4.8-1.1,7-1.7l-0.2,0.2
			c0.7-2.8,1.7-5.2,3-7.4v0.2c-1.5-2.2-2.8-4.3-3.9-6.1v-0.2l0.2-0.2c3.3-3.5,6.3-6.5,8.3-8.5l0,0l0,0c2,1.3,3.5,2.2,4.6,2.8
			c0.6,0.4,0.9,0.6,1.1,0.7C104.9,174.7,104.9,174.7,104.9,174.7z"/>
		<path class="st23" d="M111.4,190.8c0,0,0.7-0.9,2.4-2c1.7-1.1,4.6-2.4,8.3-2c1.8,0.2,3.9,0.7,5.7,2c1.8,1.3,3.5,3,4.6,5.2
			c0.6,1.1,0.9,2.4,1.1,3.7c0.2,1.3,0.2,2.6,0,3.9c-0.4,2.8-1.7,5.4-3.5,7.4c-2,2-4.6,3.3-7.2,3.9c-1.3,0.2-2.6,0.2-3.9,0
			c-1.3-0.2-2.6-0.6-3.7-1.1c-2.2-0.9-4.1-2.6-5.4-4.4c-1.3-1.8-2-3.9-2.2-5.5c-0.6-3.7,0.6-6.7,1.7-8.5
			C110.4,191.3,111.4,190.8,111.4,190.8s-0.7,0.9-1.8,2.6c-0.9,1.7-2,4.6-1.5,8.3c0.4,1.8,0.9,3.7,2.2,5.4c1.3,1.7,3,3.3,5.2,4.3
			c1.1,0.6,2.2,0.7,3.5,0.9c1.3,0.2,2.4,0.2,3.7,0c2.6-0.4,5-1.7,6.8-3.7c1.8-2,3.1-4.4,3.3-7c0.2-1.3,0.2-2.6,0-3.7
			c-0.2-1.3-0.6-2.4-1.1-3.5c-0.9-2.2-2.6-3.9-4.3-5c-1.7-1.1-3.7-1.8-5.4-2c-3.5-0.4-6.5,0.7-8.1,1.7
			C112.1,189.8,111.4,190.8,111.4,190.8z"/>
		<path class="st21" d="M335.8,71.9L335.8,71.9l0.2-0.2c-0.7-2.8-1.3-5.4-1.8-7.8v-0.2H334c-1.7,0-3.3,0-4.8,0.2
			c-0.9-1.7-1.8-3-3-4.1c0.6-1.7,1.1-3.1,1.5-4.6V55h-0.2c-2.8-1.7-5-3-6.8-4.1l0,0l0,0c-1.3,1.5-2.4,2.6-3.3,3.5
			c-1.7-0.6-3-0.6-3.9-0.7c-0.4,0-0.7,0-0.9,0s-0.4,0-0.4,0l0,0l0,0l0,0l0,0c0,0,0-0.2-0.2-0.4c-0.2-0.2-0.2-0.6-0.4-0.9
			c-0.4-0.7-0.9-1.8-1.7-3.3l0,0l0,0c-2,0.6-4.6,1.1-7.8,1.8H302v0.2c0,1.5,0,3.1,0,4.8c-1.5,0.7-2.8,1.8-4.1,3
			c-1.5-0.6-3-0.9-4.6-1.5h-0.2v0.2c-1.3,2.2-2.8,4.4-4.3,6.8v0.2l0.2,0.2c1.1,1.1,2.2,2.2,3.5,3.3c-0.4,1.5-0.7,3.1-0.7,5
			c-1.3,0.7-2.8,1.3-4.3,2h-0.2v0.2c0.6,2.4,1.3,5.2,1.8,7.8v0.2h0.2c1.5,0,3.1,0,4.8,0c0.7,1.3,1.8,2.8,3,4.1
			c-0.6,1.5-0.9,3-1.5,4.4V92l0.2,0.2c2.2,1.3,4.4,2.8,6.8,4.3l0.2,0.2l0.2-0.2c1.1-1.1,2.2-2.2,3.3-3.3c1.5,0.4,3.3,0.7,5,0.7
			c0.7,1.5,1.5,2.8,2,4.3v0.2h0.2c2.6-0.7,5.2-1.3,7.8-1.8h0.2v-0.2c0-1.7,0-3.1,0-4.8c1.5-0.7,2.8-1.8,4.1-3c1.5,0.6,3,0.9,4.4,1.5
			h0.2l0.2-0.2c1.5-2.4,2.8-4.6,4.3-6.8l0.2-0.2l-0.2-0.2c-1.1-1.1-2.2-2.2-3.5-3.3c0.6-1.7,0.7-3.3,0.7-5
			C333.1,73.3,334.5,72.6,335.8,71.9z M312,64.8c1.3,0,3.3,0.4,5.4,2c0.9,0.7,1.8,1.8,2.4,3.1c0.6,1.3,0.9,2.8,0.7,4.4
			c0,0.7-0.4,1.7-0.6,2.4c-0.4,0.7-0.7,1.5-1.3,2.2c-1.1,1.3-2.6,2.4-4.4,2.8s-3.7,0.2-5.2-0.4c-0.7-0.4-1.5-0.7-2.2-1.3
			c-0.6-0.6-1.1-1.1-1.7-1.8c-0.9-1.3-1.3-2.8-1.5-4.3s0.2-2.8,0.7-3.9c0.9-2.2,2.6-3.5,3.7-4.3c1.1-0.7,2-0.7,2-0.9
			C309.8,65,310.5,64.8,312,64.8z M313.1,53.7C313.3,53.7,313.3,53.7,313.1,53.7c-0.2,0-0.4,0-0.7,0
			C312.7,53.7,312.9,53.7,313.1,53.7z"/>
		<g>
			<g>
				<g>
					<g>
						<g>
							<path class="st23" d="M334.5,207.4c0,0,0.7-0.4,2.2-0.4c1.3,0,3.5,0.4,5.5,1.8c0.9,0.7,1.8,1.8,2.6,3.1
								c0.6,1.3,0.9,3,0.7,4.6c0,0.9-0.4,1.7-0.6,2.6c-0.4,0.7-0.7,1.7-1.5,2.2c-1.1,1.5-2.8,2.4-4.8,3c-1.8,0.4-3.9,0.4-5.5-0.4
								c-0.9-0.4-1.7-0.7-2.2-1.5c-0.7-0.6-1.3-1.3-1.7-1.8c-0.9-1.5-1.3-3-1.5-4.4c0-1.5,0.2-3,0.7-4.1c1.1-2.4,2.8-3.7,4.1-4.3
								C333.8,207.4,334.5,207.4,334.5,207.4s-0.7,0.2-2,0.9c-1.1,0.6-2.8,2-3.9,4.3c-0.6,1.1-0.7,2.4-0.7,3.9
								c0.2,1.5,0.6,3,1.5,4.3c0.4,0.7,0.9,1.3,1.7,1.8c0.6,0.6,1.3,0.9,2.2,1.3c1.7,0.7,3.5,0.7,5.4,0.4s3.3-1.5,4.4-2.8
								c0.6-0.7,0.9-1.5,1.3-2.2c0.4-0.7,0.6-1.5,0.6-2.4c0.2-1.7-0.2-3.1-0.7-4.4c-0.6-1.3-1.5-2.4-2.4-3.1c-1.8-1.5-3.9-2-5.4-2
								C335.3,207.2,334.5,207.4,334.5,207.4z"/>
						</g>
					</g>
				</g>
				<g>
					<g>
						<g>
							<path class="st23" d="M336.6,195.9c0,0,0,0-0.2-0.2c-0.2-0.2-0.2-0.6-0.4-0.7c-0.4-0.7-0.9-1.8-1.7-3.3l0,0
								c-2,0.6-4.6,1.1-8,2l0.2-0.2c0,1.5,0,3.1,0.2,5l0,0l0,0c-1.5,0.7-3,1.8-4.3,3.1l0,0h-0.2c-1.5-0.6-3-0.9-4.6-1.5h0.2
								c-1.3,2.2-2.8,4.4-4.3,7V207c1.1,1.1,2.2,2.2,3.5,3.3l0,0v0.2c-0.4,1.5-0.7,3.3-0.7,5.2v0.2h-0.2c-1.3,0.7-3,1.5-4.4,2.2
								l0.2-0.2c0.6,2.4,1.3,5.2,2,8l-0.2-0.2c1.5,0,3.1,0,5,0h0.2v0.2c0.7,1.5,1.8,3,3.1,4.3l0.2,0.2v0.2c-0.6,1.5-1.1,3.1-1.5,4.6
								l-0.2-0.4c2.2,1.3,4.6,2.8,7,4.3h-0.4c1.1-1.1,2.2-2.4,3.3-3.5l0.2-0.2h0.2c1.7,0.6,3.3,0.7,5.2,0.7l0,0h0.2v0.2
								c0.7,1.5,1.5,3,2.2,4.4l-0.4-0.2c2.6-0.7,5.4-1.3,8-1.8l-0.2,0.2c0-1.7,0-3.3,0-5v-0.2h0.2c1.5-0.9,3-1.8,4.3-3.1l0.2-0.2
								h0.2c1.7,0.6,3.1,1.1,4.6,1.5l-0.4,0.2c1.5-2.4,2.8-4.6,4.3-7v0.4c-1.1-1.1-2.4-2.2-3.5-3.5l-0.2-0.2v-0.2
								c0.6-1.7,0.7-3.5,0.7-5.2v-0.2h0.2c1.5-0.7,3-1.5,4.4-2.2l-0.2,0.2c-0.7-2.8-1.3-5.4-1.8-8l0.2,0.2c-1.7,0-3.3,0-5,0h-0.2
								v-0.2c-0.9-1.7-2-3.1-3.1-4.3l0,0v-0.2c0.6-1.7,1.1-3.1,1.7-4.6v0.2c-2.8-1.7-5-3.1-7-4.3h0.2c-1.3,1.5-2.6,2.6-3.5,3.5l0,0
								l0,0c-1.7-0.6-3-0.7-3.9-0.7c-0.4,0-0.7,0-0.9,0C336.7,195.9,336.6,195.9,336.6,195.9s0.2,0,0.4,0c0.2,0,0.6,0,0.9,0
								c0.9,0,2.2,0.2,3.9,0.7l0,0c0.9-0.9,2-2.2,3.3-3.5l0,0l0,0c2,1.1,4.3,2.6,7,4.3h0.2v0.2c-0.6,1.5-0.9,3-1.5,4.6V202
								c1.1,1.3,2.2,2.6,3.1,4.3l-0.2-0.2c1.5,0,3.1,0,5-0.2h0.2v0.2c0.6,2.6,1.3,5.2,2,8v0.2h-0.2c-1.5,0.7-3,1.5-4.4,2.2l0.2-0.2
								c0,1.7-0.4,3.5-0.7,5.4v-0.2c1.1,1.1,2.4,2.2,3.5,3.3l0.2,0.2l-0.2,0.2c-1.3,2.2-2.8,4.6-4.3,7l-0.2,0.2h-0.2
								c-1.5-0.6-3.1-1.1-4.6-1.5h0.2c-1.3,1.3-2.8,2.4-4.3,3.1l0.2-0.2c0,1.7,0,3.3,0,5v0.2H346c-2.6,0.6-5.2,1.3-8,2h-0.2v-0.2
								c-0.7-1.5-1.5-3-2.2-4.4l0.2,0.2l0,0c-1.8,0-3.7-0.4-5.4-0.7h0.2c-1.1,1.3-2.4,2.4-3.5,3.5l-0.2,0.2l-0.2-0.2
								c-2.4-1.5-4.8-3-7-4.3l-0.2-0.2v-0.2c0.6-1.7,1.1-3.1,1.5-4.6v0.2c-1.3-1.3-2.4-2.8-3.1-4.3l0.2,0.2c-1.7,0-3.3,0-5,0h-0.2
								v-0.2c-0.7-2.8-1.3-5.4-1.8-8v-0.2h0.2c1.5-0.7,3-1.5,4.4-2.2l-0.2,0.2c0-1.8,0.4-3.7,0.7-5.4v0.2c-1.3-1.1-2.4-2.4-3.5-3.5
								l-0.2-0.2v-0.2c1.5-2.4,3-4.8,4.3-7v-0.2h0.2c1.7,0.6,3.1,1.1,4.6,1.7h-0.2c1.3-1.3,2.8-2.4,4.3-3.1v0.2c0-1.8,0-3.5,0-5
								v-0.2h0.2c3.1-0.7,5.9-1.5,8-1.8l0,0l0,0c0.7,1.5,1.3,2.6,1.7,3.3c0.2,0.4,0.4,0.6,0.4,0.9
								C336.6,195.7,336.6,195.9,336.6,195.9z"/>
						</g>
					</g>
				</g>
			</g>
		</g>
		<g>
			<g>
				<g>
					<g>
						<g>
							<g>
								<g>
									<g>
										<polygon class="st22" points="87.7,311.7 87.7,336.6 124.3,336.6 125.8,336.6 124.3,311.7 										"/>
									</g>
								</g>
							</g>
							<g>
								<g>
									<g>
										<g>
											<g>
												<polygon class="st22" points="75.9,343.7 75.9,368.6 112.3,368.6 113.9,368.6 112.5,343.7 												"/>
											</g>
										</g>
									</g>
								</g>
							</g>
						</g>
					</g>
				</g>
				<g>
					<g>
						<polygon class="st21" points="124.3,304.7 84.4,304.7 84.4,311.7 87.7,311.7 124.3,311.7 125.8,336.6 72.5,336.6 72.5,343.7 
							112.5,343.7 113.9,368.6 152.8,368.8 152.8,343.7 155.4,343.7 155.4,336.6 164.6,336.6 164.6,311.7 167.2,311.7 167.2,304.7 
													"/>
					</g>
				</g>
				<g>
					<g>
						<g>
							<g>
								<g>
									<g>
										<rect x="96.4" y="324.3" class="st3" width="20" height="8"/>
									</g>
								</g>
							</g>
						</g>
					</g>
				</g>
			</g>
			<rect x="86.6" y="347.7" class="st21" width="15.5" height="3.7"/>
			<g>
				<g>
					<g>
						<g>
							<g>
								<g>
									<rect x="84.5" y="356.2" class="st3" width="20" height="8"/>
								</g>
							</g>
						</g>
					</g>
				</g>
			</g>
			<rect x="98.4" y="315.7" class="st21" width="15.5" height="3.7"/>
		</g>
	</g>
</g>
</svg>
