<?xml version="1.0" encoding="utf-8"?>
<!-- Generator: Adobe Illustrator 23.0.1, SVG Export Plug-In . SVG Version: 6.00 Build 0)  -->
<svg version="1.1" id="Layer_1" xmlns="http://www.w3.org/2000/svg" xmlns:xlink="http://www.w3.org/1999/xlink" x="0px" y="0px"
	 width="190px" height="150px" viewBox="0 0 190 150" style="enable-background:new 0 0 190 150;" xml:space="preserve">
<style type="text/css">
	.st0{fill:#FBF2F1;}
	.st1{fill:#F4D4CF;}
	.st2{opacity:0.15;}
	.st3{fill:#F7E3E0;}
	.st4{fill:#FDF9F8;}
	.st5{fill:#801608;}
	.st6{fill:#AC2A1C;}
	.st7{fill:#E06657;}
	.st8{fill:#6F1508;}
	.st9{fill:#F5F5F5;}
	.st10{clip-path:url(#SVGID_2_);}
	.st11{clip-path:url(#SVGID_4_);}
	.st12{fill:#481107;}
	.st13{clip-path:url(#SVGID_6_);}
	.st14{fill:#6A1508;}
	.st15{clip-path:url(#SVGID_8_);}
	.st16{fill:#A21F11;}
	.st17{clip-path:url(#SVGID_10_);}
	.st18{fill:#BD3A2B;}
	.st19{clip-path:url(#SVGID_12_);}
	.st20{fill:#D75445;}
	.st21{opacity:0.6;}
	.st22{fill:#FFFFFF;}
	.st23{fill:#EFC1BB;}
	.st24{fill:#263238;}
	.st25{fill:#EDB6AF;}
	.st26{fill:#8C1708;}
	.st27{fill:#771608;}
	.st28{fill:#9D1B0C;}
</style>
<g>
	<g id="Background_Complete">
		<g>
			<g>
				<g>
					<g>
						<g>
							<rect x="76.1" y="114.9" class="st0" width="45.5" height="21"/>
						</g>
					</g>
				</g>
				<g>
					<g>
						<path class="st1" d="M120.5,134.8H77.2v-18.9h43.3V134.8z M77.4,134.5h42.8v-18.3H77.4V134.5z"/>
					</g>
				</g>
				<g>
					<g>
						<g>
							<rect x="121.6" y="114.8" class="st1" width="11.1" height="21"/>
						</g>
					</g>
				</g>
				<g>
					<g>
						<g>
							<path class="st1" d="M77.3,121.7c4.9,0,9.7,0,14.6,0c7.7,0,15.4,0,23.1,0c1.8,0,3.6,0,5.4,0c0.1,0,0.1-0.1,0-0.1
								c-4.9,0-9.7,0-14.6,0c-7.7,0-15.4,0-23.1,0c-1.8,0-3.6,0-5.4,0C77.2,121.7,77.2,121.7,77.3,121.7L77.3,121.7z"/>
						</g>
					</g>
				</g>
				<g>
					<g>
						<g>
							<path class="st1" d="M99,121.7c0.1-1.9,0.1-3.8,0-5.7c0-0.1-0.1-0.1-0.1,0c-0.1,1.9-0.1,3.8,0,5.7
								C98.9,121.7,99,121.7,99,121.7L99,121.7z"/>
						</g>
					</g>
				</g>
				<g>
					<g>
						<g>
							<path class="st1" d="M110.5,118.9c0,0.3-0.3,0.6-0.6,0.6c-0.3,0-0.6-0.3-0.6-0.6c0-0.3,0.3-0.6,0.6-0.6
								C110.3,118.3,110.5,118.5,110.5,118.9z"/>
						</g>
					</g>
				</g>
				<g>
					<g>
						<g>
							<path class="st1" d="M88,118.9c0,0.3-0.3,0.6-0.6,0.6c-0.3,0-0.6-0.3-0.6-0.6c0-0.3,0.3-0.6,0.6-0.6S88,118.5,88,118.9z"/>
						</g>
					</g>
				</g>
				<g class="st2">
					<g>
						<path class="st1" d="M99.4,125.4c0,0.3-0.3,0.6-0.6,0.6s-0.6-0.3-0.6-0.6s0.3-0.6,0.6-0.6C99.2,124.8,99.4,125,99.4,125.4z"/>
					</g>
				</g>
				<g>
					<g>
						<g>
							<polygon class="st1" points="81.6,135.8 79.2,148.9 80.5,148.9 84.8,135.8 							"/>
						</g>
					</g>
				</g>
				<g>
					<g>
						<g>
							<polygon class="st1" points="118.4,135.8 120.3,148.9 119,148.9 115.1,135.8 							"/>
						</g>
					</g>
				</g>
				<g>
					<g>
						<g>
							<polygon class="st1" points="127.1,135.8 129.4,148.9 128,148.9 123.8,135.8 							"/>
						</g>
					</g>
				</g>
				<g>
					<g>
						<g>
							<path class="st1" d="M99.4,131.3c0,0.3-0.3,0.6-0.6,0.6s-0.6-0.3-0.6-0.6s0.3-0.6,0.6-0.6S99.4,131,99.4,131.3z"/>
						</g>
					</g>
				</g>
				<g>
					<g>
						<g>
							<path class="st1" d="M77.3,128.2c4.9,0,9.7,0,14.6,0c7.7,0,15.4,0,23.1,0c1.8,0,3.6,0,5.4,0c0.1,0,0.1-0.1,0-0.1
								c-4.9,0-9.7,0-14.6,0c-7.7,0-15.4,0-23.1,0c-1.8,0-3.6,0-5.4,0C77.2,128.2,77.2,128.2,77.3,128.2L77.3,128.2z"/>
						</g>
					</g>
				</g>
			</g>
		</g>
		<rect x="0.8" y="27.7" class="st3" width="18.2" height="24.4"/>
		<rect x="1.8" y="28.7" class="st4" width="16.4" height="22.6"/>
		<rect x="7.1" y="36.4" class="st3" width="6.2" height="7.1"/>
		<g>
			<g>
				<g>
					<g>
						<g>
							<g>
								<polygon class="st3" points="106,102.9 104.8,114.4 120.7,114.4 122,102.9 								"/>
							</g>
						</g>
					</g>
				</g>
				<g>
					<g>
						<g>
							<g>
								<polygon class="st4" points="106.7,103.7 105.5,113.8 119.8,113.8 121,103.7 								"/>
							</g>
						</g>
					</g>
				</g>
				<g>
					<g>
						<g>
							<g>
								<polygon class="st1" points="109,105.5 108.3,112.2 117.4,112.2 117.9,105.5 								"/>
							</g>
						</g>
					</g>
				</g>
			</g>
		</g>
		<polyline class="st0" points="121.4,107.9 124.7,114.5 120.7,114.4 121.5,107.5 		"/>
	</g>
	<g id="Floor">
		<g>
			<g>
				<path class="st5" d="M187.8,148.9c0,0.1-13.4,0.1-74.2,0.1C53,149,3.8,148.9,3.8,148.9s49.2-0.1,109.9-0.1
					C174.4,148.8,187.8,148.9,187.8,148.9z"/>
			</g>
		</g>
	</g>
	<g id="Loading">
		<g>
			<g>
				<g>
					<g>
						<g>
							<rect x="25.8" y="10.2" class="st3" width="131.5" height="86.6"/>
						</g>
					</g>
					<g>
						<g>
							<path class="st6" d="M157.3,96.8c0-0.6,0-33.8-0.1-86.6l0.1,0.1c-36.1,0-81.9,0-131.5,0l0,0l0.1-0.1c0,30.8,0,60,0,86.6
								l-0.1-0.1C103.2,96.7,156.5,96.8,157.3,96.8c-0.7,0-54.1,0-131.5,0.1h-0.1v-0.1c0-26.4,0-55.7,0-86.6v-0.1h0.1l0,0
								c49.6,0,95.4,0,131.5,0h0.1v0.1C157.3,63,157.3,96.2,157.3,96.8z"/>
						</g>
					</g>
				</g>
				<g>
					<g>
						<path class="st6" d="M157.3,17.9c0,0.1-29.4,0.1-65.7,0.1s-65.7-0.1-65.7-0.1c0-0.1,29.4-0.1,65.7-0.1S157.3,17.9,157.3,17.9z
							"/>
					</g>
				</g>
			</g>
			<g>
				<g>
					<rect x="38.1" y="30.8" class="st1" width="110.2" height="15.1"/>
				</g>
			</g>
			<g>
				<g>
					<g>
						<rect x="35.3" y="72.2" class="st1" width="24.5" height="24.5"/>
					</g>
				</g>
			</g>
			<g>
				<g>
					<g>
						<rect x="64.2" y="72.2" class="st1" width="24.5" height="24.5"/>
					</g>
				</g>
			</g>
			<g>
				<g>
					<rect x="92.2" y="72.2" class="st1" width="24.5" height="24.5"/>
				</g>
			</g>
			<g>
				<g>
					<g>
						<path class="st7" d="M79.9,61.8H53.4c-2.2,0-4-1.8-4-4l0,0c0-2.2,1.8-4,4-4h26.5c2.2,0,4,1.8,4,4l0,0
							C83.9,60,82.2,61.8,79.9,61.8z"/>
					</g>
				</g>
				<g>
					<g>
						<path class="st6" d="M110.9,61.8c0,0,0.1,0,0.4,0c0.1,0,0.3-0.1,0.4-0.1c0.1-0.1,0.4-0.1,0.6-0.1c0.4-0.1,1-0.4,1.4-0.9
							c0.4-0.4,0.9-1.2,1.1-2c0.1-0.8,0.1-1.9-0.4-2.8c-0.5-0.9-1.5-1.7-2.8-1.9c-0.6-0.1-1.3-0.1-1.9-0.1s-1.3,0-2.1,0
							c-1.4,0-2.9,0-4.6,0c-12.7,0-30.2,0-49.7,0c-1.2,0-2.3,0.5-3.1,1.5c-0.7,0.9-1,2.2-0.8,3.3c0.2,1.1,1,2.1,2,2.7
							c0.5,0.3,1,0.4,1.6,0.4c0.6,0,1.1,0,1.7,0c4.6,0,9,0,13.1,0c8.4,0,16,0,22.3,0c6.3,0,11.5,0,15,0c1.8,0,3.1,0,4.1,0
							c0.4,0,0.8,0,1,0C110.8,61.8,110.9,61.8,110.9,61.8s-0.1,0-0.4,0s-0.6,0-1,0c-1,0-2.3,0-4.1,0c-3.6,0-8.7,0-15,0
							s-13.9,0-22.3,0c-4.2,0-8.6,0-13.1,0c-0.6,0-1.1,0-1.7,0s-1.2-0.2-1.7-0.4c-1-0.6-1.9-1.6-2.1-2.8c-0.2-1.2,0.1-2.5,0.8-3.4
							c0.7-1,2-1.6,3.2-1.6c19.4,0,37,0,49.7,0c1.6,0,3.1,0,4.6,0c0.7,0,1.4,0,2.1,0c0.7,0,1.3-0.1,1.9,0.1c1.3,0.2,2.3,1,2.8,1.9
							c0.5,1,0.7,2,0.4,2.9c-0.2,0.9-0.7,1.6-1.1,2.1c-0.5,0.4-1,0.7-1.5,0.9c-0.2,0.1-0.4,0.1-0.6,0.1s-0.3,0.1-0.4,0.1
							C111.1,61.8,110.9,61.8,110.9,61.8z"/>
					</g>
				</g>
			</g>
			<g>
				<path class="st6" d="M75.6,64.7h0.3l-0.4,1.9h1.1l-0.1,0.3h-1.4L75.6,64.7z"/>
				<path class="st6" d="M76.9,66.1c0-0.5,0.4-1,1-1c0.4,0,0.7,0.3,0.7,0.7c0,0.5-0.4,1-1,1C77.2,66.8,76.9,66.5,76.9,66.1z
					 M78.3,65.9c0-0.3-0.1-0.4-0.4-0.4c-0.4,0-0.6,0.3-0.6,0.7c0,0.3,0.1,0.4,0.4,0.4C78,66.5,78.3,66.2,78.3,65.9z"/>
				<path class="st6" d="M80.6,65.2l-0.3,1.6H80l0.1-0.2c-0.1,0.1-0.3,0.2-0.6,0.2c-0.4,0-0.7-0.2-0.7-0.7c0-0.5,0.4-1,0.9-1
					c0.3,0,0.4,0.1,0.6,0.3l0.1-0.3L80.6,65.2L80.6,65.2z M80.1,65.9c0-0.3-0.1-0.4-0.4-0.4c-0.4,0-0.6,0.3-0.6,0.7
					c0,0.3,0.1,0.4,0.4,0.4C79.9,66.5,80.1,66.2,80.1,65.9z"/>
				<path class="st6" d="M82.8,64.5l-0.4,2.2h-0.3l0.1-0.2c-0.1,0.1-0.3,0.2-0.6,0.2c-0.4,0-0.7-0.2-0.7-0.7c0-0.5,0.4-1,0.9-1
					c0.3,0,0.4,0.1,0.6,0.3l0.1-0.9H82.8z M82.2,65.9c0-0.3-0.1-0.4-0.4-0.4c-0.4,0-0.6,0.3-0.6,0.7c0,0.3,0.1,0.4,0.4,0.4
					C82,66.5,82.2,66.2,82.2,65.9z"/>
				<path class="st6" d="M83.2,65.2h0.3l-0.3,1.6h-0.3L83.2,65.2z M83.3,64.7c0-0.1,0.1-0.2,0.2-0.2c0.1,0,0.1,0.1,0.1,0.1
					c0,0.1-0.1,0.2-0.2,0.2C83.4,64.9,83.3,64.8,83.3,64.7z"/>
				<path class="st6" d="M85.4,65.7c0,0.1,0,0.1,0,0.2l-0.1,0.9H85l0.1-0.9c0-0.1,0-0.1,0-0.1c0-0.2-0.1-0.3-0.4-0.3
					c-0.3,0-0.5,0.1-0.6,0.5L84,66.8h-0.3l0.3-1.6h0.3l-0.1,0.2c0.1-0.1,0.4-0.2,0.6-0.2C85.2,65.1,85.4,65.3,85.4,65.7z"/>
				<path class="st6" d="M87.7,65.2l-0.3,1.4c-0.1,0.6-0.4,0.8-1,0.8c-0.3,0-0.5-0.1-0.7-0.2l0.1-0.2c0.1,0.1,0.4,0.2,0.6,0.2
					c0.4,0,0.6-0.1,0.7-0.5v-0.1c-0.1,0.1-0.4,0.2-0.6,0.2c-0.4,0-0.7-0.2-0.7-0.7c0-0.5,0.4-0.9,0.9-0.9c0.3,0,0.5,0.1,0.6,0.3
					l0.1-0.3C87.3,65.2,87.7,65.2,87.7,65.2z M87.2,65.8c0-0.2-0.1-0.4-0.4-0.4c-0.4,0-0.6,0.3-0.6,0.6c0,0.2,0.1,0.4,0.4,0.4
					C86.9,66.5,87.2,66.2,87.2,65.8z"/>
				<path class="st6" d="M88.6,66.6c0-0.1,0.1-0.2,0.2-0.2c0.1,0,0.2,0.1,0.2,0.2c0,0.1-0.1,0.2-0.2,0.2
					C88.7,66.8,88.6,66.7,88.6,66.6z"/>
				<path class="st6" d="M89.3,66.6c0-0.1,0.1-0.2,0.2-0.2c0.1,0,0.2,0.1,0.2,0.2c0,0.1-0.1,0.2-0.2,0.2
					C89.3,66.8,89.3,66.7,89.3,66.6z"/>
				<path class="st6" d="M89.9,66.6c0-0.1,0.1-0.2,0.2-0.2c0.1,0,0.2,0.1,0.2,0.2c0,0.1-0.1,0.2-0.2,0.2
					C90.1,66.8,89.9,66.7,89.9,66.6z"/>
			</g>
			<g>
				<g>
					<path class="st8" d="M30.8,14.5c0,0.5-0.4,1-1,1s-1-0.4-1-1c0-0.5,0.4-1,1-1S30.8,14,30.8,14.5z"/>
				</g>
			</g>
			<g>
				<path class="st8" d="M35,14.5c0,0.5-0.4,1-1,1s-1-0.4-1-1c0-0.5,0.4-1,1-1S35,14,35,14.5z"/>
			</g>
			<g>
				<g>
					<path class="st8" d="M39.1,14.5c0,0.5-0.4,1-1,1s-1-0.4-1-1c0-0.5,0.4-1,1-1C38.6,13.5,39.1,14,39.1,14.5z"/>
				</g>
			</g>
		</g>
	</g>
	<g id="Character">
		<g>
			<g>
				<g>
					<g>
						<circle class="st9" cx="133.8" cy="47" r="45.9"/>
					</g>
					<g>
						<g>
							<path class="st6" d="M179.8,47c0,0,0-0.2,0-0.7c0-0.2,0-0.5,0-0.9c0-0.4,0-0.8-0.1-1.3s-0.1-1-0.1-1.6
								c-0.1-0.6-0.1-1.2-0.2-1.9c-0.2-1.4-0.5-3-0.9-4.8c-0.4-1.8-1-3.7-1.9-5.8c-0.8-2.1-1.9-4.3-3.2-6.4c-2.7-4.4-6.4-9-11.7-13
								c-2.6-2-5.5-3.7-8.7-5.2c-3.2-1.5-6.8-2.6-10.5-3.4c-3.7-0.7-7.8-1-11.8-0.7c-2,0.1-4.1,0.4-6.1,0.8c-2,0.4-4.1,1-6.1,1.7
								c-2,0.7-4,1.6-6,2.7s-3.8,2.2-5.7,3.6c-1.8,1.3-3.5,2.8-5.2,4.5S98.4,18.1,97,20c-1.4,1.9-2.6,3.9-3.7,6
								c-0.3,0.5-0.6,1-0.8,1.6c-0.2,0.5-0.5,1.1-0.7,1.6c-0.4,1.1-0.9,2.2-1.3,3.4c-0.7,2.3-1.3,4.6-1.7,7.1
								c-0.4,2.4-0.6,4.9-0.6,7.4c0,2.5,0.2,4.9,0.6,7.4c0.4,2.4,1,4.8,1.7,7.1l0.3,0.8l0.1,0.4l0.1,0.4c0.2,0.6,0.4,1.1,0.7,1.6
								c0.2,0.5,0.5,1.1,0.7,1.6c0.2,0.5,0.5,1,0.8,1.6c1.1,2.1,2.3,4.1,3.7,6c1.4,1.9,2.9,3.7,4.6,5.3s3.4,3.1,5.2,4.5
								c1.8,1.3,3.7,2.5,5.7,3.6s4,1.9,6,2.7c2,0.7,4.1,1.3,6.1,1.7c2.1,0.4,4.1,0.7,6.1,0.8c4,0.3,8.1,0.1,11.8-0.7
								c3.7-0.7,7.3-1.9,10.5-3.4c3.2-1.5,6.2-3.3,8.7-5.2c5.2-4,9-8.6,11.7-13c1.3-2.2,2.4-4.4,3.2-6.4c0.8-2,1.4-4,1.9-5.8
								c0.4-1.8,0.7-3.4,0.9-4.8c0.1-0.7,0.1-1.3,0.2-1.9c0.1-0.6,0.1-1.1,0.1-1.6c0.1-0.4,0.1-0.9,0.1-1.3s0-0.7,0-0.9
								C179.8,47.3,179.8,47,179.8,47s0,0.2,0,0.7c0,0.2,0,0.5,0,0.9s0,0.8-0.1,1.3c0,0.4-0.1,1-0.1,1.6c-0.1,0.6-0.1,1.2-0.2,1.9
								c-0.2,1.4-0.5,3-0.9,4.8c-0.4,1.8-1,3.7-1.9,5.8c-0.8,2.1-1.9,4.3-3.2,6.5c-2.6,4.5-6.4,9.1-11.7,13.1
								c-2.6,2-5.5,3.8-8.7,5.2c-3.2,1.5-6.8,2.7-10.5,3.4c-3.8,0.7-7.8,1-11.9,0.7c-2-0.1-4.1-0.4-6.1-0.8c-2.1-0.4-4.1-1-6.1-1.7
								c-2-0.7-4-1.6-6-2.7s-3.9-2.2-5.7-3.6c-1.8-1.3-3.5-2.8-5.2-4.5c-1.6-1.6-3.1-3.4-4.6-5.3s-2.6-3.9-3.7-6
								c-0.3-0.5-0.6-1-0.8-1.6c-0.2-0.5-0.5-1.1-0.7-1.6c-0.2-0.6-0.4-1.1-0.7-1.7l-0.1-0.4l-0.1-0.4l-0.3-0.9
								c-0.7-2.3-1.3-4.7-1.7-7.1c-0.4-2.5-0.6-4.9-0.6-7.4c0-2.5,0.2-5,0.6-7.4c0.4-2.5,1-4.8,1.7-7.1c0.4-1.2,0.8-2.2,1.3-3.4
								c0.2-0.5,0.5-1.1,0.7-1.6s0.5-1,0.8-1.6c1.1-2.1,2.3-4.2,3.7-6c1.4-1.9,2.9-3.7,4.6-5.3c1.6-1.6,3.4-3.1,5.2-4.5
								c1.8-1.3,3.7-2.5,5.7-3.6s4-1.9,6-2.7s4.1-1.3,6.1-1.7c2.1-0.4,4.1-0.7,6.1-0.8c4.1-0.3,8.1,0,11.9,0.7
								c3.8,0.7,7.3,1.9,10.5,3.4c3.2,1.5,6.2,3.3,8.7,5.2c5.2,4,9,8.7,11.7,13.1c1.3,2.2,2.4,4.4,3.2,6.5c0.8,2.1,1.4,4,1.9,5.8
								c0.4,1.8,0.7,3.4,0.9,4.8c0.1,0.7,0.1,1.3,0.2,1.9c0.1,0.6,0.1,1.1,0.1,1.6c0.1,0.4,0.1,0.9,0.1,1.3s0,0.7,0,0.9
								C179.8,46.8,179.8,47,179.8,47z"/>
						</g>
					</g>
				</g>
				<g>
					<g>
						<defs>
							<path id="SVGID_1_" d="M115.5,63c-4.2-4.4-6.7-10.4-6.7-16.9c0-13.6,11.1-24.6,24.6-24.6c13.6,0,24.6,11.1,24.6,24.6
								c0,6.8-2.8,13-7.2,17.4l12.4,12.1c7.6-7.5,12.3-18,12.3-29.5c0-23-18.7-41.6-41.6-41.6c-23,0-41.6,18.7-41.6,41.6
								c0,11.4,4.6,21.7,12,29.1L115.5,63z"/>
						</defs>
						<clipPath id="SVGID_2_">
							<use xlink:href="#SVGID_1_"  style="overflow:visible;"/>
						</clipPath>
						<g class="st10">
							<g>
								<path class="st7" d="M115.5,63c-4.2-4.4-6.7-10.4-6.7-16.9c0-13.6,11.1-24.6,24.6-24.6c13.6,0,24.6,11.1,24.6,24.6
									c0,6.8-2.8,13-7.2,17.4l12.4,12.1c7.6-7.5,12.3-18,12.3-29.5c0-23-18.7-41.6-41.6-41.6c-23,0-41.6,18.7-41.6,41.6
									c0,11.4,4.6,21.7,12,29.1L115.5,63z"/>
							</g>
						</g>
					</g>
					<g>
						<defs>
							<path id="SVGID_3_" d="M115.5,63c-4.2-4.4-6.7-10.4-6.7-16.9c0-13.6,11.1-24.6,24.6-24.6c13.6,0,24.6,11.1,24.6,24.6
								c0,6.8-2.8,13-7.2,17.4l12.4,12.1c7.6-7.5,12.3-18,12.3-29.5c0-23-18.7-41.6-41.6-41.6c-23,0-41.6,18.7-41.6,41.6
								c0,11.4,4.6,21.7,12,29.1L115.5,63z"/>
						</defs>
						<clipPath id="SVGID_4_">
							<use xlink:href="#SVGID_3_"  style="overflow:visible;"/>
						</clipPath>
						<g class="st11">
							<g>
								<path class="st12" d="M155.6,45.9h22.4c0,0-2.2,18.2-2.7,18.6c-0.4,0.4-13.7,15.6-13.7,15.6l-15.1-17.9L155.6,45.9z"/>
							</g>
						</g>
					</g>
					<g>
						<defs>
							<path id="SVGID_5_" d="M115.5,63c-4.2-4.4-6.7-10.4-6.7-16.9c0-13.6,11.1-24.6,24.6-24.6c13.6,0,24.6,11.1,24.6,24.6
								c0,6.8-2.8,13-7.2,17.4l12.4,12.1c7.6-7.5,12.3-18,12.3-29.5c0-23-18.7-41.6-41.6-41.6c-23,0-41.6,18.7-41.6,41.6
								c0,11.4,4.6,21.7,12,29.1L115.5,63z"/>
						</defs>
						<clipPath id="SVGID_6_">
							<use xlink:href="#SVGID_5_"  style="overflow:visible;"/>
						</clipPath>
						<g class="st13">
							<g>
								<polygon class="st14" points="149.6,30.8 165.4,15.3 176.6,32 178.1,45.9 155.9,45.9 151.9,37 								"/>
							</g>
						</g>
					</g>
					<g>
						<defs>
							<path id="SVGID_7_" d="M115.5,63c-4.2-4.4-6.7-10.4-6.7-16.9c0-13.6,11.1-24.6,24.6-24.6c13.6,0,24.6,11.1,24.6,24.6
								c0,6.8-2.8,13-7.2,17.4l12.4,12.1c7.6-7.5,12.3-18,12.3-29.5c0-23-18.7-41.6-41.6-41.6c-23,0-41.6,18.7-41.6,41.6
								c0,11.4,4.6,21.7,12,29.1L115.5,63z"/>
						</defs>
						<clipPath id="SVGID_8_">
							<use xlink:href="#SVGID_7_"  style="overflow:visible;"/>
						</clipPath>
						<g class="st15">
							<g>
								<path class="st16" d="M134.9,25.2c-0.3-0.4,0-22.4,0-22.4l13.7,1.7l16.7,10.8l-16.1,15.8L139,29.7L134.9,25.2z"/>
							</g>
						</g>
					</g>
					<g>
						<defs>
							<path id="SVGID_9_" d="M115.5,63c-4.2-4.4-6.7-10.4-6.7-16.9c0-13.6,11.1-24.6,24.6-24.6c13.6,0,24.6,11.1,24.6,24.6
								c0,6.8-2.8,13-7.2,17.4l12.4,12.1c7.6-7.5,12.3-18,12.3-29.5c0-23-18.7-41.6-41.6-41.6c-23,0-41.6,18.7-41.6,41.6
								c0,11.4,4.6,21.7,12,29.1L115.5,63z"/>
						</defs>
						<clipPath id="SVGID_10_">
							<use xlink:href="#SVGID_9_"  style="overflow:visible;"/>
						</clipPath>
						<g class="st17">
							<g>
								<path class="st18" d="M102.3,16.2c0.4,0.1,15.1,15.8,15.1,15.8l13.1-5.2l4.2-5.2l0.1-18.7l-15.7,1.7L102.3,16.2z"/>
							</g>
						</g>
					</g>
					<g>
						<defs>
							<path id="SVGID_11_" d="M115.5,63c-4.2-4.4-6.7-10.4-6.7-16.9c0-13.6,11.1-24.6,24.6-24.6c13.6,0,24.6,11.1,24.6,24.6
								c0,6.8-2.8,13-7.2,17.4l12.4,12.1c7.6-7.5,12.3-18,12.3-29.5c0-23-18.7-41.6-41.6-41.6c-23,0-41.6,18.7-41.6,41.6
								c0,11.4,4.6,21.7,12,29.1L115.5,63z"/>
						</defs>
						<clipPath id="SVGID_12_">
							<use xlink:href="#SVGID_11_"  style="overflow:visible;"/>
						</clipPath>
						<g class="st19">
							<g>
								<path class="st20" d="M90.7,45.9c0.4,0.2,24.9,0,24.9,0l-0.4-16.1l-11.9-12.5l-8.1,9.6L90.7,45.9z"/>
							</g>
						</g>
					</g>
				</g>
				<g>
					<g>
						<circle class="st1" cx="134.4" cy="47" r="9.6"/>
					</g>
				</g>
				<g>
					<g>
						<path class="st6" d="M131.5,47.7L131.5,47.7c0.4,1.4,1.9,2.2,3.4,1.9l33.2-9.5l-34.3,4.1C132.1,44.4,131.1,46.1,131.5,47.7z"
							/>
					</g>
				</g>
			</g>
			<g>
				<path class="st8" d="M129.2,67.7l-1.8,9.3H125l1-4.9l-3.1,4h-1.1l-1.7-4l-1,4.9h-2.5l1.9-9.3h2.2l2.2,5.4l4.2-5.4H129.2z"/>
				<path class="st8" d="M138.2,69.8l-1.4,7.2h-2.4l0.1-0.7c-0.5,0.5-1.3,0.8-2.1,0.8c-1.6,0-3.1-1.2-3.1-3.3c0-2.4,1.7-4.2,3.9-4.2
					c1,0,1.7,0.3,2.2,1l0.1-0.9L138.2,69.8L138.2,69.8z M135,73.1c0-0.8-0.5-1.3-1.3-1.3c-1,0-1.7,0.8-1.7,2c0,0.8,0.5,1.3,1.3,1.3
					C134.3,75.1,135,74.3,135,73.1z"/>
				<path class="st8" d="M143.8,73.4l1.9,3.6H143l-1-1.9l-1.7,1.9h-2.8l3.6-3.7l-1.9-3.5h2.6l1,1.8l1.7-1.8h2.8L143.8,73.4z"/>
				<path class="st8" d="M146.4,75.7c0-1,0.7-1.6,1.6-1.6c0.8,0,1.4,0.5,1.4,1.3c0,1-0.7,1.6-1.6,1.6
					C147,77.1,146.4,76.6,146.4,75.7z"/>
			</g>
			<g>
				<g>
					<g>
						<polygon class="st7" points="183.9,141.6 185.4,144.1 189.2,139.7 187.2,137.6 						"/>
					</g>
				</g>
				<g>
					<g>
						<path class="st6" d="M188.8,139.2c0,0-0.1,0.3-0.5,0.7c-0.3,0.4-0.8,1-1.3,1.5s-1,1-1.4,1.5c-0.4,0.4-0.6,0.6-0.6,0.6
							s0.1-0.3,0.5-0.7c0.3-0.4,0.8-0.9,1.3-1.5c0.5-0.5,1-1,1.4-1.5C188.6,139.4,188.8,139.2,188.8,139.2z"/>
					</g>
				</g>
				<g>
					<g>
						<path class="st6" d="M185.4,139.4c0,0,0.4,0.3,0.9,0.8c0.4,0.4,0.8,0.9,0.8,0.9s-0.4-0.3-0.9-0.8
							C185.7,139.9,185.3,139.5,185.4,139.4z"/>
					</g>
				</g>
				<g class="st21">
					<polyline class="st22" points="185.4,144.1 189.2,139.7 188.8,139.3 184.9,143.5 185.4,144 					"/>
				</g>
			</g>
			<g>
				<g>
					<g>
						<g>
							<g>
								<g>
									<g>
										<path class="st7" d="M154.1,147.4v-0.6l6,0.1v1.9h-0.4c-1.6,0.1-8.4,0.3-9.4-0.1C149,148.4,154.1,147.4,154.1,147.4z"/>
									</g>
								</g>
							</g>
						</g>
						<g>
							<g>
								<g>
									<g>
										<path class="st23" d="M157.9,148.7c0.1-0.4,0.4-0.9,0.7-1.2c0.4-0.3,0.9-0.4,1.4-0.4v1.6H157.9z"/>
									</g>
								</g>
							</g>
						</g>
					</g>
					<g>
						<g>
							<g>
								<path class="st23" d="M151.6,148c0,0-1.8,0.4-1.6,0.7c0.2,0.3,7,0.3,10,0.1v-0.1h-7.9C152.1,148.7,152,148,151.6,148z"/>
							</g>
						</g>
					</g>
					<g>
						<g>
							<g>
								<g>
									<path class="st6" d="M160.1,148.6C160.1,148.6,160.1,148.6,160.1,148.6c-0.1,0-0.2,0-0.4,0c-0.3,0-0.7,0-1,0.1
										c-0.9,0-2.2,0.1-3.6,0.1c-1.4,0-2.7-0.1-3.6-0.1c-0.4,0-0.8,0-1-0.1c-0.1,0-0.2,0-0.3,0c-0.1,0-0.1,0-0.1,0s0,0,0.1,0
										s0.1,0,0.3,0c0.3,0,0.7,0,1,0c0.9,0,2.2,0.1,3.6,0.1s2.7,0,3.6,0c0.4,0,0.8,0,1,0C159.8,148.7,160,148.7,160.1,148.6
										C160.1,148.6,160.1,148.6,160.1,148.6z"/>
								</g>
							</g>
						</g>
					</g>
					<g>
						<g>
							<g>
								<g>
									<path class="st6" d="M152.1,148.8c0,0,0-0.2-0.2-0.4c-0.1-0.2-0.4-0.4-0.4-0.4s0.2,0.1,0.4,0.4
										C152.1,148.5,152.1,148.8,152.1,148.8z"/>
								</g>
							</g>
						</g>
					</g>
					<g>
						<g>
							<g>
								<g>
									<path class="st6" d="M153.9,148c0,0-0.1-0.1-0.1-0.2c-0.1-0.1-0.1-0.2-0.1-0.2s0.1,0.1,0.1,0.2
										C153.9,147.8,153.9,148,153.9,148z"/>
								</g>
							</g>
						</g>
					</g>
					<g>
						<g>
							<g>
								<g>
									<path class="st6" d="M154.4,147.7c0,0-0.1-0.1-0.2-0.1c-0.1-0.1-0.1-0.1-0.1-0.1s0.1,0.1,0.2,0.1
										C154.3,147.6,154.4,147.7,154.4,147.7z"/>
								</g>
							</g>
						</g>
					</g>
					<g>
						<g>
							<g>
								<g>
									<path class="st6" d="M154.7,147.2c0,0-0.1,0-0.3,0c-0.1,0-0.3,0-0.3,0s0.1,0,0.3,0C154.5,147.1,154.7,147.1,154.7,147.2z"
										/>
								</g>
							</g>
						</g>
					</g>
					<g>
						<g>
							<g>
								<g>
									<path class="st24" d="M154.8,146.8c0,0-0.1,0.1-0.4,0.1c-0.2,0-0.4,0-0.4-0.1c0,0,0.1,0,0.4,0
										C154.6,146.8,154.8,146.8,154.8,146.8z"/>
								</g>
							</g>
						</g>
					</g>
					<g>
						<g>
							<g>
								<g>
									<path class="st6" d="M153.7,147.4c0,0-0.1,0-0.4,0c-0.1,0-0.2-0.1-0.4-0.1c-0.1,0-0.1-0.1-0.2-0.1s-0.1-0.1-0.1-0.1
										c0-0.1,0-0.1,0.1-0.1c0.4-0.1,0.7,0,0.9,0.2C153.6,147.3,153.6,147.4,153.7,147.4C153.6,147.5,153.6,147.5,153.7,147.4
										c-0.1,0.1-0.1-0.1-0.2-0.2c-0.1-0.1-0.1-0.1-0.3-0.2c-0.1-0.1-0.3-0.1-0.4,0c-0.1,0.1-0.1,0.1,0,0.1s0.1,0.1,0.2,0.1
										c0.1,0.1,0.3,0.1,0.4,0.1C153.6,147.4,153.7,147.4,153.7,147.4z"/>
								</g>
							</g>
						</g>
					</g>
					<g>
						<g>
							<g>
								<g>
									<path class="st6" d="M153.6,147.4c0,0-0.1-0.1-0.1-0.2c0-0.1,0.1-0.1,0.1-0.2c0.1-0.1,0.1-0.1,0.3-0.1
										c0.1,0,0.1,0.1,0.1,0.1c0,0.1-0.1,0.1-0.1,0.1c-0.1,0.1-0.1,0.1-0.1,0.2C153.7,147.4,153.6,147.5,153.6,147.4
										c0,0,0.1-0.1,0.2-0.1c0.1-0.1,0.1-0.1,0.1-0.2c0.1-0.1,0.1-0.2,0-0.2s-0.2,0.1-0.2,0.1c-0.1,0.1-0.1,0.1-0.1,0.2
										C153.6,147.4,153.6,147.4,153.6,147.4z"/>
								</g>
							</g>
						</g>
					</g>
					<g>
						<g>
							<g>
								<g>
									<path class="st6" d="M160.1,147.1c0,0-0.1,0-0.4,0s-0.7,0.1-1,0.4c-0.3,0.2-0.5,0.5-0.6,0.7s-0.1,0.4-0.1,0.4v-0.1
										c0-0.1,0-0.1,0.1-0.3c0.1-0.2,0.3-0.6,0.6-0.8c0.4-0.2,0.7-0.4,1-0.4c0.1,0,0.2,0,0.3,0C160,147.1,160.1,147.1,160.1,147.1
										z"/>
								</g>
							</g>
						</g>
					</g>
					<g>
						<g>
							<g>
								<g>
									<path class="st6" d="M157.1,148.2c0,0-0.4,0.1-0.9,0.1c-0.4,0-0.9-0.1-0.9-0.1s0.4,0,0.9,0
										C156.8,148.2,157.1,148.2,157.1,148.2z"/>
								</g>
							</g>
						</g>
					</g>
					<g>
						<g>
							<g>
								<g>
									<path class="st6" d="M158.3,148.2c0,0,0,0.1-0.1,0.1c-0.1,0.1-0.1,0.1-0.1,0.1s0-0.1,0-0.1
										C158.3,148.2,158.3,148.2,158.3,148.2z"/>
								</g>
							</g>
						</g>
					</g>
					<g>
						<g>
							<g>
								<g>
									<path class="st6" d="M158.8,147.7c0,0,0,0.1-0.1,0.1s-0.1,0.1-0.1,0.1s0-0.1,0.1-0.1C158.7,147.7,158.8,147.7,158.8,147.7z
										"/>
								</g>
							</g>
						</g>
					</g>
					<g>
						<g>
							<g>
								<g>
									<path class="st6" d="M159.4,147.4c0,0-0.1,0-0.1,0.1c-0.1,0-0.1,0.1-0.1,0.1s0-0.1,0.1-0.1
										C159.3,147.4,159.4,147.4,159.4,147.4z"/>
								</g>
							</g>
						</g>
					</g>
					<g>
						<g>
							<g>
								<g>
									<path class="st6" d="M159.8,147.4C159.8,147.4,159.8,147.4,159.8,147.4c-0.1,0.1-0.1,0.1-0.1,0.1S159.7,147.4,159.8,147.4
										C159.8,147.3,159.8,147.3,159.8,147.4z"/>
								</g>
							</g>
						</g>
					</g>
				</g>
			</g>
			<g>
				<g>
					<path class="st25" d="M151.6,69.8l-9.2-9.3l1.2-12.2l0.2-0.2c0.1-0.1,0.2-0.3,0.4-0.4c0.1-0.1,0.4-0.4,0.6-0.4
						c0.3-0.1,0.7-0.3,0.9-0.4c0.3-0.1,0.4-0.4,0.1-0.5c-0.2-0.1-1,0-1.8,0.4c-0.8,0.5-0.3-0.9-0.1-1.4c0.1-0.5,0.6-2.1,0.5-2.2
						c-0.1-0.2-0.4-0.1-0.6,0.4c-0.1,0.5-0.7,2-1,1.9c-0.2-0.1,0.6-2.7,0.6-2.7s0.3-0.5,0-0.7c-0.5-0.2-1.3,2.6-1.3,2.8
						c-0.1,0.1-0.4,0.1-0.3-0.1c0.1-0.2,1-2.5,0.4-2.8c-0.4-0.1-0.6,2.3-1,2.7c-0.4,0.4,0.4-1.9-0.1-2c-0.1-0.1-0.3-0.1-0.5,1.3
						c-0.1,0.7-0.4,1.7-0.5,2.8l0,0l-2.9,14.6l9.1,12L151.6,69.8z"/>
				</g>
			</g>
			<g>
				<g>
					<path class="st25" d="M156.3,43c-0.4,0.2,0.8,2.3,0.3,2s-1.2-2.7-1.6-2.5c-0.5,0.3,0.7,2.5,0.9,2.6c0.1,0.1-0.1,0.3-0.2,0.1
						c-0.1-0.2-1.3-2.8-1.9-2.5c-0.3,0.1,0.1,0.6,0.1,0.6s1.3,2.4,1.1,2.5c-0.2,0.1-1-1.2-1.3-1.7c-0.2-0.4-0.6-0.5-0.7-0.3
						c-0.1,0.2,0.7,1.6,0.9,2.2c0.2,0.4,1,1.7,0.1,1.4c-0.9-0.4-1.6-0.3-1.9-0.1s-0.1,0.5,0.2,0.5c0.2,0,0.6,0.1,0.9,0.1
						c0.2,0.1,0.4,0.2,0.7,0.4c0.1,0.1,0.3,0.2,0.4,0.4l0.2,0.2l5,12.2l-4.6,10.5l7,2.6l3.1-14L158,46.8l0,0c-0.3-1-0.7-2.1-1-2.7
						C156.6,42.9,156.5,42.9,156.3,43z"/>
				</g>
			</g>
			<g>
				<g>
					<g>
						<path class="st6" d="M172,117.6l-4.6-23.5l-6.4,0.5v-0.1l-11.7,1c0,0-0.5,26.9-0.7,26.9l3.2,24.6l0,0l9.3-0.4l-3.6-24.4
							l1.3-19.6c0,0,0.1-0.1,0.3-0.4l5.4,20l18.3,20.7l6-5.8L172,117.6z"/>
					</g>
				</g>
				<g>
					<g>
						<path class="st26" d="M157.7,118.7c0,0,0-0.1,0-0.2s0-0.4,0-0.6c0-0.5,0.1-1.3,0.1-2.1c0.1-1.8,0.3-4.3,0.4-6.9
							c0.1-2.5,0.3-4.7,0.4-6.4l0,0l0,0c0.7-0.8,1.2-1.4,1.6-1.9c0.1-0.2,0.3-0.4,0.4-0.5c0.1-0.1,0.1-0.1,0.1-0.1s-0.1,0.1-0.1,0.2
							s-0.2,0.3-0.4,0.5c-0.4,0.4-0.9,1.1-1.6,1.9v-0.1c-0.1,1.7-0.2,4-0.4,6.4c-0.2,2.7-0.4,5.2-0.5,6.9c-0.1,0.9-0.1,1.6-0.1,2.1
							c0,0.2-0.1,0.4-0.1,0.6C157.7,118.6,157.7,118.7,157.7,118.7z"/>
					</g>
				</g>
				<g>
					<g>
						<path class="st26" d="M161,94.7c0.1,0,0.1,1,0.1,2.2c0,1.3-0.1,2.2-0.1,2.2c-0.1,0-0.1-1-0.1-2.2
							C160.9,95.7,161,94.7,161,94.7z"/>
					</g>
				</g>
				<g>
					<g>
						<path class="st26" d="M153,96.8c0,0,0.1,0,0.3-0.1c0.2,0,0.5-0.1,0.8-0.1c0.7-0.1,1.8-0.2,3.1-0.3h0.1v0.1c0,1.1,0,2.4,0,3.7
							v0.1h-0.1h-0.1c-0.7,0.4-1.6,0.7-2.2,1.1h-0.1h-0.1c-0.7-0.4-1.3-0.8-1.9-1.1l0,0v-0.1c0-1,0-1.8,0.1-2.5c0-0.3,0-0.4,0-0.7
							C153,96.8,153,96.7,153,96.8c0,0,0,0.1,0,0.2s0,0.4,0,0.7c0,0.6,0,1.4,0.1,2.4V100c0.6,0.4,1.3,0.7,1.9,1.1H155
							c0.7-0.4,1.5-0.7,2.2-1.1h0.1l-0.1,0.1c0-1.3,0-2.6,0-3.7l0.1,0.1c-1.3,0.1-2.3,0.2-3.1,0.2c-0.4,0-0.7,0.1-0.9,0.1
							C153.2,96.8,153.1,96.8,153,96.8z"/>
					</g>
				</g>
				<g>
					<g>
						<path class="st26" d="M162.1,95.9c0,0,0.1,0,0.3-0.1c0.2,0,0.5-0.1,0.8-0.1c0.7-0.1,1.8-0.2,3.1-0.3h0.1v0.1
							c0,1.1,0,2.4,0,3.7v0.1h-0.1h-0.1c-0.7,0.4-1.6,0.7-2.2,1.1H164h-0.1c-0.7-0.4-1.3-0.8-1.9-1.1l0,0v-0.1c0-1,0-1.8,0.1-2.5
							c0-0.3,0-0.4,0-0.7C162.1,96,162.1,95.8,162.1,95.9c0,0,0,0.1,0,0.2c0,0.1,0,0.4,0,0.7c0,0.6,0,1.4,0.1,2.4v-0.1
							c0.6,0.4,1.3,0.7,1.9,1.1h-0.1c0.7-0.4,1.5-0.7,2.2-1.1h0.1l-0.1,0.1c0-1.3,0-2.6,0-3.7l0.1,0.1c-1.3,0.1-2.3,0.2-3.1,0.2
							c-0.4,0-0.7,0.1-0.9,0.1C162.2,95.9,162.1,95.9,162.1,95.9z"/>
					</g>
				</g>
				<g>
					<g>
						<path class="st26" d="M157.4,97.2c0,0.1-1,0.1-2.2,0.2c-1.2,0.1-2.2,0.1-2.2,0c0-0.1,1-0.1,2.2-0.2
							C156.5,97.2,157.4,97.2,157.4,97.2z"/>
					</g>
				</g>
				<g>
					<g>
						<path class="st26" d="M166.4,96.4c0,0.1-1,0.1-2.1,0.2c-1.2,0.1-2.2,0.1-2.2,0.1c0-0.1,1-0.1,2.1-0.2
							C165.4,96.4,166.4,96.4,166.4,96.4z"/>
					</g>
				</g>
				<g>
					<g>
						<path class="st26" d="M156.7,122.2c0,0.1-1,0.2-2.1,0.4c-1.2,0.1-2.1,0.2-2.1,0.1c0-0.1,1-0.2,2.1-0.4
							S156.7,122.1,156.7,122.2z"/>
					</g>
				</g>
				<g>
					<g>
						<path class="st26" d="M171.4,118.2c0,0.1-1,0.4-2.2,1c-1.2,0.7-2,1.3-2,1.3c0,0,0.1-0.2,0.5-0.5c0.4-0.3,0.8-0.6,1.4-1
							c0.6-0.3,1.1-0.6,1.6-0.7C171.1,118.2,171.4,118.2,171.4,118.2z"/>
					</g>
				</g>
			</g>
			<g>
				<g>
					<g>
						<path class="st6" d="M151.6,37c0,0,0-0.1-0.1-0.1s-0.1-0.2-0.1-0.4c-0.1-0.1-0.1-0.4-0.3-0.6c-0.1-0.2-0.3-0.5-0.4-0.8
							c-0.1-0.3-0.4-0.7-0.6-1c-0.2-0.4-0.5-0.7-0.8-1.1c-0.6-0.8-1.4-1.6-2.3-2.5c-1.9-1.7-4.4-3.4-7.7-4.5
							c-1.6-0.5-3.4-0.8-5.2-0.8c-1.8,0-3.7,0.1-5.6,0.7c-1.9,0.5-3.7,1.3-5.2,2.2c-1.6,0.9-2.9,2.1-4.1,3.3
							c-2.3,2.5-3.7,5.2-4.4,7.7c-0.4,1.2-0.6,2.3-0.7,3.4c-0.1,0.5-0.1,1-0.1,1.4c0,0.4-0.1,0.8,0,1.2c0,0.4,0,0.7,0,1
							s0.1,0.5,0.1,0.7c0,0.1,0,0.3,0,0.4c0,0.1,0,0.1,0,0.1s0-0.1,0-0.1s0-0.2-0.1-0.4c0-0.2-0.1-0.4-0.1-0.7c0-0.3,0-0.6,0-1
							c0-0.4,0-0.7,0-1.2c0-0.4,0.1-0.9,0.1-1.4c0.1-1,0.4-2.2,0.7-3.4c0.7-2.5,2.1-5.2,4.4-7.8c1.1-1.3,2.5-2.4,4.1-3.4
							c1.6-1,3.4-1.7,5.2-2.2c1.9-0.5,3.8-0.7,5.7-0.7c1.9,0,3.6,0.4,5.2,0.9c3.2,1,5.8,2.8,7.7,4.6c0.9,0.9,1.7,1.8,2.3,2.5
							c0.3,0.4,0.6,0.8,0.8,1.2c0.2,0.4,0.4,0.7,0.6,1c0.1,0.3,0.3,0.6,0.4,0.8c0.1,0.2,0.2,0.4,0.3,0.7
							C151.5,36.7,151.5,36.9,151.6,37C151.6,37,151.6,37,151.6,37z"/>
					</g>
				</g>
				<g>
					<g>
						<path class="st6" d="M147.7,36.1c0,0-0.1-0.1-0.1-0.2c-0.1-0.1-0.2-0.4-0.4-0.6c-0.4-0.5-1-1.3-1.9-2.1
							c-0.8-0.8-1.9-1.7-3.3-2.5c-1.3-0.8-2.9-1.5-4.7-1.9c-1.7-0.4-3.4-0.5-5-0.4c-1.6,0.1-2.9,0.4-4,0.7c-1.1,0.4-2,0.7-2.6,1
							c-0.3,0.1-0.5,0.3-0.7,0.4s-0.2,0.1-0.2,0.1s0.1-0.1,0.2-0.1c0.1-0.1,0.4-0.2,0.7-0.4c0.6-0.3,1.4-0.7,2.6-1.1
							c1.1-0.4,2.5-0.7,4.1-0.8c1.6-0.1,3.3,0,5.1,0.4c1.8,0.4,3.4,1.1,4.7,1.9c1.3,0.8,2.5,1.7,3.3,2.5c0.8,0.8,1.4,1.6,1.8,2.2
							c0.2,0.3,0.3,0.5,0.4,0.6C147.7,35.9,147.7,36.1,147.7,36.1z"/>
					</g>
				</g>
			</g>
			<g>
				<g>
					<g>
						<g>
							<g>
								<path class="st7" d="M165.4,77l-1.6,8.4c3.4,4.7,3.7,8.7,3.7,8.7l-18.2,1.6c0.4-2.8,2.1-9,2.1-9l-2.6-9l-5.3-6.9l5.2-4.7
									c-0.1,0.3,4.9,3.1,4.9,3.1l7.2,0.1c0,0,0.4,0,1,0.2l3.5-9.1c0,0,2.8,4,1.8,9C166.6,72.8,166.6,73.6,165.4,77"/>
							</g>
						</g>
					</g>
					<g>
						<g>
							<path class="st27" d="M152.1,70.6c0,0,0.1,0.1,0.3,0.3c0.1,0.2,0.4,0.5,0.5,1c0.1,0.4,0.4,1,0.4,1.6c0,0.7-0.1,1.3-0.4,2
								c-0.3,0.7-0.8,1.2-1.4,1.5c-0.6,0.3-1.1,0.4-1.6,0.4c-0.4,0-0.9-0.1-1.1-0.2c-0.1-0.1-0.2-0.1-0.3-0.1
								c-0.1,0-0.1-0.1-0.1-0.1c0-0.1,0.5,0.3,1.5,0.3c0.4,0,1-0.1,1.6-0.4c0.5-0.3,1-0.8,1.3-1.4c0.3-0.6,0.4-1.3,0.4-1.9
								s-0.1-1.2-0.3-1.6C152.5,71.1,152.1,70.7,152.1,70.6z"/>
						</g>
					</g>
					<g>
						<g>
							<path class="st27" d="M164.8,76.8c0,0,0.1-0.4,0.3-0.9c0.1-0.5,0.3-1.3,0.2-2.2c-0.1-0.9-0.3-1.6-0.6-2.2
								c-0.2-0.5-0.4-0.8-0.4-0.8s0.1,0.1,0.1,0.2c0.1,0.1,0.2,0.3,0.4,0.6c0.3,0.5,0.5,1.3,0.6,2.2c0.1,0.9-0.1,1.7-0.3,2.3
								C165,76.3,164.8,76.6,164.8,76.8C164.8,76.7,164.8,76.8,164.8,76.8z"/>
						</g>
					</g>
					<g>
						<g>
							<g>
								<path class="st18" d="M162.3,85c-0.1-0.2-0.4-0.1-0.7-0.1c-0.4,0.1-0.8,0.2-1.2,0.2c-0.7,0-1.5-0.4-2.2-0.7
									c-0.7-0.3-1.6-0.4-2.2,0.1c-0.4,0.4-0.5,1.1-0.1,1.6c0.1,0.2,0.4,0.4,0.7,0.5l0,0c1.8,0.5,3.4,0.1,5.2-0.6
									c0.2-0.1,0.4-0.1,0.6-0.4C162.4,85.4,162.4,85.1,162.3,85z"/>
							</g>
						</g>
					</g>
				</g>
				<g>
					<g>
						<g>
							<path class="st18" d="M148.9,66c-0.7,1-1.3,2.2-1.1,3.4c0.1,1.2,1,2.4,2.1,2.7c0.8,0.2,1.7,0,2.5,0.3
								c1.5,0.5,2.2,2.4,3.8,2.5c1.4,0.1,2.4-1.3,3.7-1.8c0.7-0.3,1.4-0.3,2.1-0.4c1.5-0.2,2.9-1,3.8-2.2s1-3,0.1-4.2
								c-1-1.3-2.8-1.6-4.3-1.6c-2.4,0-4.9,0.5-7.1,1.4c-0.4,0.2-1,0.4-1.3,0.8c-0.4,0.4-0.7,0.8-0.7,1.3"/>
						</g>
					</g>
				</g>
			</g>
			<g>
				<g>
					<g>
						<path class="st8" d="M169.8,65c-0.1-0.7-0.5-1.2-1.1-1.4c-0.7-0.3-1.5-0.1-2.2-0.4c-0.8-0.4-1.2-1.4-1.4-2.3
							c-0.2-0.9-0.4-1.9-1.2-2.5c-0.5-0.4-1.2-0.5-1.7-0.8c-0.8-0.5-1.3-1.4-1.8-2.2c-0.2-0.3-0.4-0.6-0.7-0.8c0,0,0,0,0-0.1
							c-1.2-1.4-4.3-1.6-5.7-0.4l0.1-0.1c-2.5,0.2-4.2,4.3-4.2,6.9c0,1.6,0.5,3.3-0.1,4.8c-0.4,0.9-1,1.6-1.3,2.5
							c-0.4,1.2,0.2,2.7,1.4,3.3c1.1,0.6,2.7,0.2,3.4-0.8c-0.1,0.7,0.5,1.3,1.1,1.5c0.6,0.2,1.3,0.1,1.9,0.1
							c1.4-0.1,3.1-0.4,3.7-1.6c0.5,0.7,1.4,1,2.3,1c0.9-0.1,1.7-0.1,2.5-0.5c0-0.1-0.1-0.1-0.1-0.1c0.1-0.1,0.2-0.1,0.4-0.1
							c0.7-0.4,1.1-1.3,0.7-2c0.2,0.3,0.5,0.6,0.7,0.9c1.3-0.7,1.9-2.5,1.3-3.8c0.4,0.1,0.8,0.4,1.2,0.8
							C169.5,66.4,169.8,65.7,169.8,65z"/>
					</g>
				</g>
				<g>
					<g>
						<path class="st28" d="M169.4,66.2c0,0,0.1-0.3-0.1-0.8c-0.1-0.2-0.4-0.5-0.7-0.7c-0.4-0.1-0.8-0.2-1.3-0.3
							c-0.5-0.1-1-0.1-1.6-0.4c-0.3-0.1-0.5-0.3-0.7-0.6c-0.2-0.2-0.4-0.6-0.4-0.9c-0.2-0.7-0.3-1.3-0.4-2c-0.1-0.4-0.2-0.7-0.4-1
							c-0.2-0.3-0.5-0.5-0.9-0.6c-0.4-0.1-0.7-0.1-1.1-0.1s-0.7-0.3-1-0.5c-0.5-0.5-0.7-1.3-1-1.9c-0.2-0.6-0.5-1.2-1-1.6
							c-0.4-0.4-0.9-0.7-1.3-0.9c-0.9-0.4-1.8-0.2-2.3-0.1c-0.5,0.1-0.8,0.3-0.8,0.3s0.1-0.1,0.2-0.1c0.1-0.1,0.3-0.1,0.6-0.2
							c0.5-0.1,1.4-0.3,2.4,0.1c0.4,0.1,1,0.4,1.4,0.9c0.4,0.4,0.7,1,1,1.6c0.2,0.6,0.4,1.3,1,1.8c0.2,0.2,0.5,0.4,0.9,0.5
							s0.7,0.1,1.1,0.1s0.7,0.4,1,0.7c0.2,0.3,0.4,0.7,0.5,1c0.2,0.7,0.3,1.4,0.4,2c0.2,0.6,0.6,1.1,1.1,1.4c0.5,0.2,1,0.3,1.6,0.4
							c0.5,0.1,1,0.1,1.3,0.4c0.4,0.1,0.6,0.4,0.7,0.7c0.1,0.2,0.1,0.5,0.1,0.7C169.5,66.1,169.4,66.2,169.4,66.2z"/>
					</g>
				</g>
				<g>
					<g>
						<path class="st28" d="M165,71.2c0,0,0.1,0,0.2-0.1c0.1-0.1,0.3-0.2,0.4-0.5c0.1-0.2,0.1-0.6-0.1-1c-0.1-0.4-0.5-0.7-0.9-0.9
							c-0.4-0.3-1-0.4-1.4-0.8c-0.2-0.1-0.5-0.4-0.7-0.6c-0.2-0.2-0.4-0.6-0.4-0.9c-0.2-0.7-0.1-1.3-0.3-2.1
							c-0.1-0.7-0.3-1.5-0.9-1.9c-0.6-0.4-1.4-0.5-1.9-1.1c-0.5-0.5-0.7-1.3-0.8-1.9s-0.1-1.3-0.3-1.9c-0.1-0.6-0.4-1-0.7-1.4
							c-0.6-0.8-1.3-1.2-1.9-1.4c-0.5-0.2-0.8-0.2-0.8-0.3c0,0,0.1,0,0.2,0c0.1,0,0.4,0.1,0.6,0.1c0.5,0.2,1.3,0.6,1.9,1.4
							c0.3,0.4,0.6,0.9,0.7,1.5c0.1,0.6,0.2,1.2,0.3,1.9c0.1,0.7,0.3,1.3,0.8,1.9c0.5,0.5,1.3,0.7,1.9,1.1c0.3,0.2,0.6,0.6,0.7,0.9
							c0.1,0.4,0.2,0.7,0.3,1.1c0.1,0.7,0.1,1.4,0.2,2.1c0.1,0.3,0.2,0.6,0.4,0.8c0.1,0.2,0.4,0.4,0.7,0.6c0.5,0.3,1,0.5,1.4,0.8
							c0.4,0.3,0.7,0.6,1,1c0.1,0.4,0.1,0.7,0,1c-0.1,0.3-0.3,0.4-0.4,0.5C165.1,71.2,165,71.2,165,71.2z"/>
					</g>
				</g>
				<g>
					<g>
						<path class="st28" d="M156.5,71.9c0,0,0.2-0.2,0.2-0.7c0-0.2-0.1-0.5-0.1-0.8c-0.1-0.3-0.4-0.6-0.5-1
							c-0.2-0.4-0.3-0.9-0.1-1.4c0.1-0.5,0.4-1,0.7-1.5c0.2-0.5,0.4-1,0.4-1.6s-0.2-1.2-0.6-1.7s-0.9-1-1.3-1.5
							c-0.2-0.2-0.4-0.5-0.4-0.8c-0.1-0.3-0.1-0.6-0.1-0.9c-0.1-0.6,0.1-1.1,0.1-1.6c0.1-0.5,0.1-1,0.2-1.4c0.1-0.8-0.1-1.6-0.4-1.9
							c-0.2-0.4-0.5-0.5-0.4-0.6c0,0,0.1,0,0.1,0.1c0.1,0.1,0.2,0.2,0.4,0.4c0.3,0.4,0.5,1.1,0.4,2c0,0.4-0.1,0.9-0.1,1.4
							c-0.1,0.5-0.1,1-0.1,1.6c0,0.3,0.1,0.5,0.1,0.8c0.1,0.3,0.2,0.5,0.4,0.7c0.4,0.5,0.8,0.9,1.3,1.5c0.4,0.5,0.7,1.2,0.7,1.8
							c0,0.7-0.2,1.3-0.4,1.7c-0.2,0.5-0.5,1-0.7,1.5c-0.1,0.4-0.1,1,0.1,1.3c0.1,0.4,0.4,0.7,0.5,1c0.1,0.3,0.1,0.6,0.1,0.9
							c0,0.2-0.1,0.4-0.1,0.5C156.6,71.9,156.5,71.9,156.5,71.9z"/>
					</g>
				</g>
				<g>
					<g>
						<path class="st28" d="M150.4,71.7c0,0-0.1-0.1-0.1-0.1c-0.1-0.1-0.1-0.3,0-0.6c0.1-0.2,0.2-0.5,0.5-0.7
							c0.3-0.2,0.6-0.4,0.9-0.7s0.5-0.7,0.6-1.3c0.1-0.5,0-1-0.2-1.6s-0.4-1.1-0.4-1.8s0.4-1.3,0.7-1.9c0.3-0.6,0.5-1.2,0.4-1.8
							c0-0.6-0.2-1.2-0.4-1.7c-0.3-1.1-0.4-2.2-0.1-3.1c0.2-0.8,0.7-1.4,1.1-1.7c0.2-0.1,0.4-0.2,0.4-0.3c0.1-0.1,0.1-0.1,0.1-0.1
							s-0.2,0.1-0.6,0.4c-0.4,0.3-0.8,0.9-1,1.7c-0.2,0.8-0.2,1.9,0.1,3c0.1,0.5,0.4,1.1,0.4,1.8c0.1,0.7-0.2,1.3-0.4,1.9
							c-0.3,0.6-0.6,1.2-0.7,1.8c-0.1,0.6,0.1,1.2,0.4,1.7c0.1,0.3,0.2,0.5,0.2,0.8c0.1,0.3,0.1,0.5,0,0.8c-0.1,0.5-0.3,1-0.6,1.3
							c-0.3,0.3-0.7,0.5-0.9,0.7c-0.3,0.2-0.4,0.4-0.5,0.7c-0.1,0.2-0.1,0.4-0.1,0.5C150.3,71.6,150.4,71.7,150.4,71.7z"/>
					</g>
				</g>
			</g>
		</g>
	</g>
	<g id="Plants">
		<g>
			<g>
				<g>
					<g>
						<g>
							<g>
								<path class="st5" d="M17.3,139.3c0,0,0-0.1,0.1-0.1c0.1-0.1,0.1-0.2,0.2-0.4c0.1-0.4,0.4-1,0.6-1.8c0.4-1.6,0.5-4-0.1-6.8
									c-0.3-1.4-0.7-3-1.3-4.6c-0.5-1.6-1.2-3.4-1.6-5.2c-0.5-1.9-0.9-3.9-0.8-6c0.1-2.1,0.7-4.3,1.4-6.3c0.7-2.1,1.4-4.2,1.6-6.3
									c0.2-2.1-0.2-4.1-1.1-5.8c-0.9-1.7-2.1-3.1-2.9-4.6c-0.9-1.5-1.4-3-1.8-4.4c-0.7-2.8-0.4-5.3-0.1-6.9s0.7-2.5,0.7-2.5
									s0,0.1-0.1,0.1c0,0.1-0.1,0.3-0.1,0.4c-0.1,0.4-0.3,1-0.4,1.8c-0.3,1.6-0.5,4,0.1,6.8c0.4,1.4,0.9,2.9,1.8,4.4
									c0.9,1.5,2,2.9,2.9,4.6c1,1.7,1.4,3.8,1.2,5.9s-1,4.2-1.6,6.3c-0.7,2.1-1.3,4.2-1.4,6.3c-0.1,2.1,0.3,4.1,0.8,6
									s1.1,3.6,1.6,5.2c0.5,1.6,1,3.1,1.3,4.6c0.6,2.8,0.4,5.3,0,6.9c-0.2,0.8-0.4,1.3-0.7,1.8c-0.1,0.1-0.1,0.3-0.2,0.4
									C17.3,139.3,17.3,139.3,17.3,139.3z"/>
							</g>
						</g>
					</g>
				</g>
				<g>
					<g>
						<g>
							<g>
								<path class="st7" d="M14.5,92.8c0,0-1.7-5.6,1.4-8.9c0.1-0.1,0.3-0.1,0.3,0.1C16.4,84.9,16.6,87.8,14.5,92.8z"/>
							</g>
						</g>
					</g>
					<g>
						<g>
							<g>
								<g>
									<path class="st5" d="M15.5,85.8c0,0,0,0.4-0.1,1c-0.1,0.7-0.2,1.6-0.4,2.5c-0.1,0.9-0.3,1.8-0.4,2.5c-0.1,0.6-0.1,1-0.1,1
										s0-0.4,0-1c0.1-0.7,0.1-1.5,0.3-2.5c0.1-1,0.3-1.9,0.4-2.5C15.4,86.2,15.5,85.8,15.5,85.8z"/>
								</g>
							</g>
						</g>
					</g>
				</g>
				<g>
					<g>
						<g>
							<g>
								<path class="st7" d="M16.6,106c0,0,1-5.8,5.4-7.2c0.1-0.1,0.3,0.1,0.2,0.2C21.9,99.9,20.8,102.5,16.6,106z"/>
							</g>
						</g>
					</g>
					<g>
						<g>
							<g>
								<g>
									<path class="st5" d="M20.8,100.3c0,0-0.2,0.4-0.6,0.8c-0.4,0.6-1,1.3-1.5,2c-0.6,0.7-1,1.4-1.5,2c-0.4,0.5-0.6,0.8-0.7,0.8
										c0,0,0.1-0.4,0.5-0.9c0.4-0.5,0.9-1.3,1.4-2c0.6-0.7,1.1-1.5,1.6-1.9C20.5,100.5,20.8,100.3,20.8,100.3z"/>
								</g>
							</g>
						</g>
					</g>
				</g>
				<g>
					<g>
						<g>
							<g>
								<path class="st7" d="M15.4,120.5c0,0-0.7-5.8,3.1-8.4c0.1-0.1,0.3,0,0.3,0.1C18.7,113.1,18.4,115.9,15.4,120.5z"/>
							</g>
						</g>
					</g>
					<g>
						<g>
							<g>
								<g>
									<path class="st5" d="M17.8,113.7c0,0-0.1,0.4-0.3,1c-0.2,0.7-0.5,1.5-0.9,2.3c-0.3,0.9-0.6,1.6-0.8,2.3
										c-0.2,0.6-0.4,1-0.4,1s0.1-0.4,0.2-1c0.1-0.6,0.4-1.5,0.8-2.4s0.7-1.7,0.9-2.3C17.5,114.1,17.7,113.7,17.8,113.7z"/>
								</g>
							</g>
						</g>
					</g>
				</g>
				<g>
					<g>
						<g>
							<g>
								<path class="st7" d="M18.6,135c0,0-0.4-5.8,3.4-8.3c0.1-0.1,0.3,0,0.3,0.1C22.3,127.8,21.8,130.6,18.6,135z"/>
							</g>
						</g>
					</g>
					<g>
						<g>
							<g>
								<g>
									<path class="st5" d="M21.2,128.4c0,0-0.1,0.4-0.4,1c-0.3,0.7-0.6,1.4-1,2.3c-0.4,0.9-0.7,1.6-1,2.3c-0.2,0.6-0.4,1-0.4,1
										c0,0,0.1-0.4,0.3-1c0.2-0.6,0.5-1.4,0.9-2.3c0.4-0.9,0.7-1.7,1-2.3C21,128.8,21.2,128.4,21.2,128.4z"/>
								</g>
							</g>
						</g>
					</g>
				</g>
				<g>
					<g>
						<g>
							<g>
								<path class="st7" d="M11.9,87.9c0,0-5.2-2.7-5.3-7.2c0-0.1,0.1-0.2,0.3-0.1C7.8,81,9.9,82.8,11.9,87.9z"/>
							</g>
						</g>
					</g>
					<g>
						<g>
							<g>
								<g>
									<path class="st5" d="M7.8,82.2c0,0,0.3,0.3,0.7,0.8c0.4,0.6,0.9,1.3,1.5,2c0.5,0.7,1,1.4,1.5,2c0.4,0.5,0.6,0.8,0.6,0.8
										s-0.3-0.3-0.7-0.7c-0.4-0.5-1-1.2-1.5-2c-0.6-0.8-1-1.5-1.4-2.1C7.9,82.5,7.8,82.2,7.8,82.2z"/>
								</g>
							</g>
						</g>
					</g>
				</g>
				<g>
					<g>
						<g>
							<g>
								<path class="st7" d="M17.5,99.9c0,0-5.4-2.4-5.8-6.9c0-0.1,0.1-0.3,0.3-0.1C12.9,93.3,15.2,95,17.5,99.9z"/>
							</g>
						</g>
					</g>
					<g>
						<g>
							<g>
								<g>
									<path class="st5" d="M13,94.5c0,0,0.3,0.3,0.7,0.7c0.4,0.5,1,1.2,1.6,1.9s1.1,1.3,1.6,1.9c0.4,0.5,0.7,0.8,0.7,0.8
										s-0.3-0.2-0.7-0.7c-0.4-0.4-1-1.1-1.6-1.9c-0.6-0.7-1.2-1.5-1.6-1.9C13.2,94.9,13,94.5,13,94.5z"/>
								</g>
							</g>
						</g>
					</g>
				</g>
				<g>
					<g>
						<g>
							<g>
								<path class="st7" d="M14.5,113.3c0,0-3.7-4.6-1.9-8.7c0.1-0.1,0.2-0.1,0.4,0C13.4,105.3,14.6,107.8,14.5,113.3z"/>
							</g>
						</g>
					</g>
					<g>
						<g>
							<g>
								<g>
									<path class="st5" d="M12.9,106.4c0,0,0.1,0.4,0.3,1c0.1,0.7,0.3,1.5,0.5,2.5c0.2,0.9,0.4,1.7,0.5,2.5c0.1,0.6,0.2,1,0.2,1
										s-0.1-0.4-0.4-1c-0.1-0.6-0.4-1.5-0.6-2.5c-0.2-1-0.4-1.8-0.4-2.5C12.9,106.8,12.8,106.4,12.9,106.4z"/>
								</g>
							</g>
						</g>
					</g>
				</g>
				<g>
					<g>
						<g>
							<g>
								<path class="st7" d="M18.1,129.1c0,0-5.3-2.5-5.6-7c0-0.1,0.1-0.3,0.3-0.1C13.6,122.3,15.8,124.1,18.1,129.1z"/>
							</g>
						</g>
					</g>
					<g>
						<g>
							<g>
								<g>
									<path class="st5" d="M13.7,123.5c0,0,0.3,0.3,0.7,0.7c0.4,0.6,1,1.2,1.6,1.9c0.6,0.7,1.1,1.4,1.6,1.9
										c0.4,0.5,0.7,0.8,0.6,0.8c0,0-0.3-0.2-0.7-0.7c-0.4-0.4-1-1.1-1.6-1.9c-0.6-0.7-1.1-1.5-1.5-2
										C13.8,123.9,13.6,123.6,13.7,123.5z"/>
								</g>
							</g>
						</g>
					</g>
				</g>
				<g>
					<g>
						<g>
							<g>
								<g>
									<path class="st5" d="M28.7,106.1c0,0,0,0.1,0,0.1c0,0.1,0,0.2,0,0.4c0,0.4,0,0.8-0.1,1.4c-0.1,1.3-0.1,3-0.3,5.1l0,0l0,0
										c-0.4,2.1-1.5,4.5-2.9,6.7c-1,1.7-2.2,3.2-3.1,4.6c-1,1.4-1.8,2.8-2.4,3.9c-0.6,1.2-0.9,2.2-1.1,2.8
										c-0.1,0.4-0.1,0.6-0.2,0.8c-0.1,0.1-0.1,0.3-0.1,0.3s0-0.1,0-0.3c0-0.2,0.1-0.4,0.1-0.8c0.1-0.7,0.4-1.7,1-2.9
										c0.5-1.2,1.3-2.5,2.3-4c1-1.4,2.1-3,3.1-4.6c1.4-2.2,2.5-4.6,2.9-6.6l0,0c0.1-2.1,0.3-3.8,0.4-5.1c0.1-0.6,0.1-1,0.1-1.4
										C28.5,106.4,28.5,106.2,28.7,106.1C28.7,106.1,28.7,106.1,28.7,106.1z"/>
								</g>
							</g>
						</g>
					</g>
					<g>
						<g>
							<g>
								<g>
									<path class="st18" d="M25.5,119.3c0,0,2.2-5.4-0.6-9c-0.1-0.1-0.3-0.1-0.4,0.1C24.3,111.4,23.9,114.1,25.5,119.3z"/>
								</g>
							</g>
						</g>
						<g>
							<g>
								<g>
									<g>
										<path class="st5" d="M25.1,112.3c0,0,0.1,0.4,0.1,1s0.1,1.5,0.2,2.5c0.1,1,0.1,1.9,0.1,2.5s0,1-0.1,1c0,0-0.1-0.4-0.1-1
											c-0.1-0.7-0.1-1.6-0.1-2.5s-0.1-1.8-0.1-2.5C25.1,112.7,25.1,112.3,25.1,112.3z"/>
									</g>
								</g>
							</g>
						</g>
					</g>
					<g>
						<g>
							<g>
								<g>
									<g>
										<path class="st18" d="M18.6,132.4c0,0,1.8-5.6-1.3-8.9c-0.1-0.1-0.3-0.1-0.3,0.1C16.7,124.5,16.5,127.3,18.6,132.4z"/>
									</g>
								</g>
							</g>
						</g>
						<g>
							<g>
								<g>
									<g>
										<path class="st5" d="M17.5,125.4c0,0,0.1,0.4,0.2,1c0.1,0.6,0.3,1.5,0.4,2.5c0.1,1,0.2,1.9,0.3,2.5c0.1,0.7,0.1,1,0,1
											c0,0-0.1-0.4-0.1-1c-0.1-0.7-0.2-1.6-0.4-2.5c-0.1-0.9-0.3-1.8-0.4-2.5C17.6,125.8,17.5,125.4,17.5,125.4z"/>
									</g>
								</g>
							</g>
						</g>
					</g>
					<g>
						<g>
							<g>
								<g>
									<path class="st18" d="M28.4,112.7c0,0,4.8-3.4,4.3-7.8c0-0.1-0.2-0.2-0.3-0.1C31.7,105.4,29.8,107.5,28.4,112.7z"/>
								</g>
							</g>
						</g>
						<g>
							<g>
								<g>
									<g>
										<path class="st5" d="M31.8,106.6c0,0-0.1,0.4-0.4,1c-0.3,0.6-0.7,1.3-1.1,2.2s-0.9,1.6-1.3,2.2c-0.4,0.5-0.6,0.8-0.6,0.8
											s0.1-0.4,0.4-0.9c0.4-0.6,0.7-1.3,1.2-2.2c0.4-0.8,0.8-1.6,1.2-2.2C31.6,106.9,31.8,106.5,31.8,106.6z"/>
									</g>
								</g>
							</g>
						</g>
					</g>
					<g>
						<g>
							<g>
								<g>
									<g>
										<path class="st18" d="M20.5,126.9c0,0,5.8-0.9,7.3-5.2c0.1-0.1-0.1-0.3-0.2-0.2C26.7,121.7,24.1,122.8,20.5,126.9z"/>
									</g>
								</g>
							</g>
						</g>
						<g>
							<g>
								<g>
									<g>
										<path class="st5" d="M26.3,122.9c0,0-0.3,0.3-0.7,0.7c-0.5,0.4-1.2,1-2,1.5c-0.8,0.6-1.6,1-2.1,1.4
											c-0.5,0.3-0.9,0.5-0.9,0.5s0.3-0.2,0.8-0.6c0.6-0.4,1.3-0.9,2-1.4c0.7-0.5,1.4-1,2-1.4C26,123,26.3,122.8,26.3,122.9z"/>
									</g>
								</g>
							</g>
						</g>
					</g>
				</g>
			</g>
			<g>
				<g>
					<g>
						<g>
							<polygon class="st6" points="15,137.5 13.3,148.9 23.8,148.9 22.5,137.5 							"/>
						</g>
					</g>
				</g>
			</g>
			<g>
				<g>
					<g>
						<g>
							<path class="st5" d="M22.9,141c0,0.1-1.9,0.1-4.3,0.1c-2.3,0-4.3-0.1-4.3-0.1s1.9-0.1,4.3-0.1C21,140.9,22.9,141,22.9,141z"
								/>
						</g>
					</g>
				</g>
			</g>
			<g>
				<g>
					<g>
						<g>
							<g>
								<path class="st5" d="M23.1,142c0,0.1-1.9,0.1-4.4,0.1c-2.4,0-4.4-0.1-4.4-0.1c0-0.1,1.9-0.1,4.4-0.1
									C21.1,141.8,23.1,141.9,23.1,142z"/>
							</g>
						</g>
					</g>
				</g>
			</g>
		</g>
	</g>
</g>
</svg>
