<?xml version="1.0" encoding="utf-8"?>
<!-- Generator: Adobe Illustrator 23.0.1, SVG Export Plug-In . SVG Version: 6.00 Build 0)  -->
<svg version="1.1" id="Layer_1" xmlns="http://www.w3.org/2000/svg" xmlns:xlink="http://www.w3.org/1999/xlink" x="0px" y="0px"
	 width="540px" height="370px" viewBox="0 0 540 370" style="enable-background:new 0 0 540 370;" xml:space="preserve">
<style type="text/css">
	.st0{fill:#FCF8F7;}
	.st1{fill:#FFD5D0;}
	.st2{fill:#FFE4E1;}
	.st3{fill:#FFF9F8;}
	.st4{fill:#F5CCC7;}
	.st5{fill:#EBC8C4;}
	.st6{fill:#F5F5F5;}
	.st7{fill:#FFF2F1;}
	.st8{fill:#771608;}
	.st9{fill:#FFB7B0;}
	.st10{fill:#820D01;}
	.st11{fill:#FF6656;}
	.st12{fill:#DB3726;}
	.st13{fill:#943026;}
	.st14{fill:#FFBE9D;}
	.st15{fill:#FF877B;}
	.st16{fill:#BF1B0A;}
	.st17{fill:#263238;}
	.st18{fill:#CC2817;}
	.st19{opacity:0.4;}
	.st20{fill:#FFA69D;}
	.st21{fill:#C92514;}
	.st22{fill:#E94534;}
</style>
<path class="st0" d="M494.7,356c0,0,103.5-158.9-6-202.2c-27.6-10.9-37.2-163.6-159.8-87.3C280.2,96.9,210,60.2,142.8,80.3
	C81,98.7,79.6,151.9,87.4,171.1c8.5,20.9-25.5,46-60.3,63.1c-54.6,27-14.4,121.4,37.2,121.8C115.9,356.2,494.7,356,494.7,356z"/>
<g>
	<g>
		<g>
			<g>
				<g>
					<g>
						<rect x="243.9" y="1" class="st1" width="78.9" height="130.7"/>
					</g>
				</g>
			</g>
		</g>
		<g>
			<g>
				<g>
					<g>
						<rect x="242" y="1" class="st2" width="78.9" height="130.7"/>
					</g>
				</g>
			</g>
		</g>
		<g>
			<g>
				<g>
					<g>
						<rect x="245.4" y="3.8" class="st3" width="72.3" height="125.3"/>
					</g>
				</g>
			</g>
		</g>
		<g>
			<g>
				<g>
					<g>
						<g>
							<rect x="259.1" y="20.1" class="st2" width="44.5" height="92.7"/>
						</g>
					</g>
				</g>
			</g>
		</g>
		<g>
			<g>
				<g>
					<g>
						<path class="st4" d="M259.1,79.9c-0.2-8.7,7.6-17,16.3-18.3c4.1-0.6,8.5,0.2,12.2-1.3c6.9-2.8,9.1-11.9,15.9-14.6l0.4,67.1
							h-44.7V79.9H259.1z"/>
					</g>
				</g>
			</g>
		</g>
	</g>
	<g>
		<g>
			<g>
				<g>
					<path class="st2" d="M98.9,141.3c0,0-7.8-0.6-7,17c0.7,17.6,2.6,26.9,2.6,26.9s-0.2,3.9-3.3,3.2c-3-0.7-8.7-4.6-11.5-1.7
						c-3,3-1.9,7.4,2,12.8c3.9,5.4,11.9,17.2,12.6,18.3c0.7,1.1,0.9,3-1.1,2.8c-2.2-0.2-16.5-5-18.5,1.9c-1.9,7,11.3,20,12.6,21.5
						c1.5,1.5,1.5,2.4,0.9,3.3c-0.6,0.9-5.2-1.3-9.5-2.4c-4.1-1.3-9.3-1.9-10,2.2c-0.7,4.1,5,16.1,26.7,28.9l10.4,5.2l9.8-6.3
						c20.4-14.8,25-27.4,23.7-31.5c-1.1-4.1-6.1-2.8-10.2-1.3c-4.1,1.7-8.5,4.3-9.1,3.3c-0.7-0.7-0.7-1.7,0.6-3.3
						c1.3-1.7,13.2-15.9,10.4-22.6c-2.6-6.9-16.5-0.4-18.5,0s-2-1.7-1.5-2.8c0.6-1.1,7.4-13.9,10.7-19.5c3.3-5.7,3.9-10.2,0.7-13
						c-3.2-2.6-8.3,1.9-11.3,2.8c-3,1.1-3.5-2.8-3.5-2.8s0.9-9.5-0.2-27.1C106.7,140,98.9,141.3,98.9,141.3"/>
				</g>
			</g>
			<g>
				<g>
					<path class="st5" d="M99.7,157c0,0,0,0.2,0,0.4c0,0.2,0,0.6,0,1.1c0,0.9,0.2,2.4,0.4,4.1c0.2,3.5,0.6,8.9,0.9,15.2
						c0.7,13,1.5,30.8,2.4,50.4s1.7,37.4,2.2,50.4c0.4,6.5,0.6,11.7,0.7,15.2c0,1.9,0.2,3.2,0.2,4.1c0,0.4,0,0.7,0,1.1
						c0,0.2,0,0.4,0,0.4s0-0.2,0-0.4s0-0.6,0-1.1c0-0.9-0.2-2.4-0.4-4.1c-0.2-3.5-0.6-8.9-0.9-15.2c-0.7-13-1.5-30.8-2.4-50.4
						c-0.9-19.6-1.7-37.4-2.2-50.4c-0.4-6.5-0.6-11.7-0.7-15.2c0-1.9-0.2-3.2-0.2-4.1c0-0.4,0-0.7,0-1.1
						C99.7,157.2,99.7,157,99.7,157z"/>
				</g>
			</g>
			<g>
				<g>
					<path class="st5" d="M87.5,192.3c0,0,0.2,0.2,0.7,0.6c0.4,0.4,0.9,0.9,1.7,1.7c1.3,1.3,3.2,3.3,5.2,5.6s3.7,4.1,5.2,5.6
						c0.6,0.7,1.1,1.3,1.5,1.7c0.4,0.4,0.6,0.6,0.6,0.6s-0.2-0.2-0.7-0.6c-0.4-0.4-0.9-0.9-1.7-1.7c-1.3-1.3-3.2-3.3-5.2-5.6
						s-3.7-4.1-5.2-5.6c-0.6-0.7-1.1-1.3-1.5-1.7C87.6,192.6,87.5,192.4,87.5,192.3z"/>
				</g>
			</g>
			<g>
				<g>
					<path class="st5" d="M103.2,207.5c0,0,3.7-4.1,8.5-8.9c4.8-4.8,8.7-8.7,8.9-8.7c0,0-3.7,4.1-8.5,8.9
						C107.3,203.7,103.2,207.6,103.2,207.5z"/>
				</g>
			</g>
			<g>
				<g>
					<path class="st5" d="M103.2,237.8c0,0,0.2-0.2,0.7-0.6c0.6-0.4,1.3-0.7,2-1.1c1.7-0.9,4.1-2.4,6.7-3.9c2.6-1.7,4.8-3.2,6.5-4.3
						c0.7-0.6,1.5-0.9,2-1.3c0.4-0.4,0.7-0.4,0.7-0.4s-0.2,0.2-0.7,0.6c-0.4,0.4-1.1,0.7-1.9,1.5c-1.7,1.1-3.9,2.8-6.5,4.3
						c-2.6,1.7-5,3-6.7,3.9c-0.9,0.4-1.7,0.7-2,1.1C103.4,237.8,103.2,237.8,103.2,237.8z"/>
				</g>
			</g>
			<g>
				<g>
					<path class="st5" d="M85.8,227.3c0,0,0.2,0.2,0.7,0.4c0.4,0.2,1.1,0.6,1.9,1.1c1.7,0.9,3.7,2.2,6.1,3.5
						c2.4,1.5,4.6,2.8,6.1,3.7c0.7,0.6,1.5,0.9,1.9,1.1c0.4,0.4,0.7,0.4,0.6,0.6c0,0-0.2-0.2-0.7-0.4c-0.4-0.2-1.1-0.6-1.9-1.1
						c-1.7-0.9-3.7-2.2-6.1-3.5c-2.4-1.5-4.6-2.8-6.1-3.7c-0.7-0.6-1.5-0.9-1.9-1.1C86.2,227.5,85.8,227.3,85.8,227.3z"/>
				</g>
			</g>
			<g>
				<g>
					<path class="st5" d="M82.5,254c0,0,0.4,0.2,0.9,0.4c0.6,0.4,1.5,0.7,2.4,1.3c2,1.1,4.8,2.8,8,4.6s5.9,3.5,8,4.6
						c0.9,0.6,1.7,1.1,2.4,1.5c0.6,0.4,0.9,0.6,0.9,0.6s-0.4-0.2-0.9-0.4c-0.6-0.4-1.5-0.7-2.4-1.3c-2-1.1-4.8-2.8-8-4.6
						c-3.2-1.9-5.9-3.5-8-4.6c-0.9-0.6-1.7-1.1-2.4-1.5C82.6,254.2,82.5,254,82.5,254z"/>
				</g>
			</g>
			<g>
				<g>
					<path class="st5" d="M104.3,266.6c0,0,0.4-0.2,0.9-0.6c0.7-0.4,1.5-0.9,2.6-1.5c2.2-1.3,5.2-3.2,8.3-5.2c3.2-2,6.1-4.1,8.2-5.6
						c0.9-0.7,1.9-1.3,2.4-1.7c0.6-0.4,0.9-0.6,0.9-0.6s-0.4,0.2-0.7,0.7c-0.6,0.4-1.3,1.1-2.4,1.9c-2,1.5-4.8,3.5-8.2,5.6
						c-3.2,2-6.1,3.9-8.3,5.2c-1.1,0.6-2,1.1-2.6,1.5C104.7,266.4,104.3,266.6,104.3,266.6z"/>
				</g>
			</g>
		</g>
		<g>
			<g>
				<g>
					<g>
						<polygon class="st1" points="120.1,284.5 91.2,284.5 100.6,356.1 110.6,356.1 						"/>
					</g>
				</g>
			</g>
			<g>
				<g>
					<g>
						<path class="st6" d="M92.3,293.3c0,0,0,0.2,0.2,0.2c0.2,0.2,0.4,0.4,0.7,0.6c0.7,0.4,1.9,0.4,3-0.4c1.1-0.6,2.2-1.9,3.7-2.4
							c1.5-0.6,3.5-0.6,5.4,0.2c1.9,0.6,3.5,1.5,5,2.4c1.5,0.9,2.8,1.7,4.1,2.2c1.1,0.6,2.2,0.7,3,0.9c0.4,0,0.6,0,0.9,0
							c0.2,0,0.4,0,0.4,0c0-0.2-1.7,0-3.9-1.1c-1.1-0.6-2.4-1.3-3.9-2.2c-1.5-0.9-3.2-1.9-5-2.4c-1.9-0.6-3.9-0.7-5.6,0
							c-0.7,0.4-1.5,0.7-2,1.3c-0.6,0.6-1.1,0.9-1.7,1.3c-1.1,0.7-2.2,0.7-2.8,0.6C92.6,293.6,92.5,293.3,92.3,293.3z"/>
					</g>
				</g>
			</g>
			<g>
				<g>
					<g>
						<path class="st6" d="M93.9,306.6c0,0,0.2-0.4,0.7-0.7c0.4-0.4,1.1-1.1,2.2-1.5c1.1-0.4,2.4-0.6,3.9-0.6c1.5,0,3.2,0.4,4.8,0.7
							c1.7,0.4,3.5,0.4,5,0.2c1.5-0.2,3-0.6,3.9-1.1c1.1-0.6,1.9-1.1,2.4-1.5s0.7-0.7,0.7-0.7s-1.1,0.9-3.3,1.9
							c-1.1,0.4-2.4,0.9-3.9,0.9c-1.5,0.2-3.2,0-4.8-0.2c-1.7-0.4-3.3-0.6-5-0.6c-1.5,0-3,0.2-4.1,0.7c-1.1,0.4-1.9,1.1-2.2,1.7
							c-0.2,0.2-0.4,0.6-0.4,0.6C94.1,306.4,93.9,306.6,93.9,306.6z"/>
					</g>
				</g>
			</g>
			<g>
				<g>
					<g>
						<path class="st6" d="M116.2,313.6c0,0-0.2-0.2-0.7-0.4c-0.6-0.2-1.3-0.4-2.4-0.6c-1.1,0-2.2,0-3.7,0.2
							c-1.3,0.2-2.8,0.6-4.3,0.9c-1.5,0.4-3,0.6-4.3,0.6s-2.6-0.4-3.3-0.7c-1.9-0.7-2.6-2-2.6-1.9c0,0,0.2,0.4,0.6,0.7
							c0.4,0.4,1.1,0.9,2,1.5c0.9,0.4,2.2,0.7,3.5,0.9c1.3,0,3-0.2,4.4-0.4c1.5-0.4,3-0.7,4.3-0.9s2.6-0.4,3.5-0.4
							C115.1,313.1,116.2,313.6,116.2,313.6z"/>
					</g>
				</g>
			</g>
			<g>
				<g>
					<g>
						<path class="st6" d="M96.3,323.5c0,0,1.1-0.6,2.8-0.4c0.9,0.2,1.9,0.6,3,1.1c1.1,0.6,2.4,0.9,3.9,1.1c2.8,0.2,5.4-0.6,6.9-1.7
							c0.7-0.6,1.3-0.9,1.7-1.3s0.6-0.6,0.6-0.6s-0.7,0.7-2.4,1.7c-1.5,0.9-4.1,1.7-6.7,1.5c-2.8-0.2-4.8-1.9-6.7-2
							c-0.9-0.2-1.7,0-2.2,0.2C96.5,323.3,96.3,323.5,96.3,323.5z"/>
					</g>
				</g>
			</g>
			<g>
				<g>
					<g>
						<path class="st6" d="M98.2,337.2c0,0,0.9,0,2.4-0.6c1.5-0.6,3.3-1.7,5.4-2.4c1.1-0.4,2-0.7,3.2-0.6c0.9,0,1.9,0.2,2.4,0.6
							c1.3,0.7,1.7,1.7,1.9,1.5c0,0,0-0.2-0.2-0.6c-0.2-0.4-0.7-0.9-1.3-1.3c-0.7-0.4-1.7-0.7-2.6-0.7c-1.1,0-2.2,0.2-3.3,0.6
							c-2.2,0.9-3.9,2-5.4,2.6C99.1,337,98.2,337.2,98.2,337.2z"/>
					</g>
				</g>
			</g>
			<g>
				<g>
					<g>
						<path class="st6" d="M99.3,343.7c0,0,0.7,0.4,1.9,0.6c1.1,0.4,2.8,0.6,4.6,0.7c1.9,0.2,3.5,0.2,4.6,0.2c1.1,0,1.9-0.2,1.9-0.2
							c0-0.2-3,0-6.5-0.4C102.3,344.2,99.3,343.5,99.3,343.7z"/>
					</g>
				</g>
			</g>
		</g>
	</g>
	<g>
		<g>
			<g>
				<path class="st7" d="M154.7,54.2l-3,4.3c0,0,6.9,1.9,6.9,8c0,6.1-4.1,7.2-8.7,7.2c-4.4,0-8.9-1.3-8.7-7.4s5.9-8.3,5.9-8.3
					l-2.8-3.7H154.7z"/>
			</g>
		</g>
		<g>
			<g>
				<rect x="66.9" y="47.7" class="st7" width="6.1" height="25.6"/>
			</g>
		</g>
		<g>
			<g>
				<rect x="55" y="41.2" class="st2" width="11.9" height="32.1"/>
			</g>
		</g>
		<g>
			<g>
				<g>
					<rect x="40.2" y="73.3" class="st1" width="137.5" height="4.8"/>
				</g>
				<g>
					<rect x="66" y="75.7" class="st1" width="3.7" height="12.4"/>
				</g>
				<g>
					<rect x="140.1" y="75.7" class="st1" width="3.7" height="12.4"/>
				</g>
			</g>
		</g>
		<g>
			<g>
				<rect x="88.4" y="61.6" class="st2" width="32.1" height="11.9"/>
			</g>
		</g>
		<g>
			<g>
				<rect x="76.5" y="33.2" class="st7" width="11.9" height="40"/>
			</g>
		</g>
		<g>
			<g>
				<rect x="73" y="41.2" class="st2" width="3.5" height="32.1"/>
			</g>
		</g>
		<g>
			<g>
				<rect x="91.2" y="57.9" class="st2" width="32.1" height="3.5"/>
			</g>
		</g>
	</g>
	<g>
		<path class="st8" d="M499.8,356.3c0,0.2,2.8,0.2-152.3,0.2s-281-0.2-281-0.2s125.8-0.2,281-0.2S499.8,356.3,499.8,356.3z"/>
	</g>
	<g>
		<g>
			<path class="st9" d="M321.9,283.1c-0.6,1.7-6.1,67.8-6.1,67.8l14.8,0.9l9.1-62.6L321.9,283.1z"/>
			<path class="st10" d="M365.1,56c1.7,4.3,2.6,7.2,4.1,10.6c0.9,2,2,3.9,2,6.1c0,1.5-0.7,2.8-0.7,4.3c0,2.6,2.2,4.4,4.3,6.3
				c2,1.7,4.1,3.9,3.5,6.5c-0.2,1.1-0.7,2-0.9,3.2c-0.2,1.3,0.6,2.6,1.5,3.7c0.9,1.1,1.9,2,2.6,3.2l0.4,2l-24.6-7.4"/>
			<g>
				<path class="st9" d="M360.4,280.5c0.4,1.7,4.4,72.1,4.4,72.1l14.8-1.1l0.9-71L360.4,280.5L360.4,280.5z"/>
				<g>
					<g>
						<g>
							<g>
								<g>
									<g>
										<g>
											<path class="st11" d="M380.1,352.4v-1.5l-15.8,0.4l0.2,5.2h0.9c4.3,0.2,22.1,0.4,25-0.4
												C393.4,355,380.1,352.4,380.1,352.4z"/>
										</g>
									</g>
								</g>
							</g>
							<g>
								<g>
									<g>
										<g>
											<path class="st12" d="M369.9,356.1c-0.2-1.3-0.9-2.4-2-3.2c-1.1-0.7-2.4-1.1-3.7-0.9v4.1H369.9z"/>
										</g>
									</g>
								</g>
							</g>
						</g>
						<g>
							<path class="st12" d="M386.6,353.9c0,0,4.6,1.1,4.1,1.9c-0.6,0.7-18.5,1.1-26.5,0.6v-0.4l20.9-0.2
								C385.3,355.7,385.6,353.9,386.6,353.9z"/>
						</g>
						<g>
							<g>
								<g>
									<g>
										<path class="st13" d="M364.1,356.1h0.2c0.2,0,0.6,0,0.7,0c0.7,0,1.7,0,2.8,0c2.4,0,5.7,0,9.5,0s7-0.2,9.5-0.4
											c1.1,0,2-0.2,2.8-0.2c0.4,0,0.6,0,0.7,0c0.2,0,0.2,0,0.2,0h-0.2c-0.2,0-0.6,0-0.7,0c-0.7,0-1.7,0-2.8,0.2
											c-2.4,0-5.7,0.2-9.5,0.2s-7,0-9.5,0c-1.1,0-2,0-2.8,0c-0.4,0-0.6,0-0.7,0C364.1,356.1,364.1,356.1,364.1,356.1z"/>
									</g>
								</g>
							</g>
						</g>
						<g>
							<g>
								<g>
									<g>
										<path class="st13" d="M385.3,356.1c0,0,0-0.6,0.6-1.3c0.4-0.7,0.9-0.9,0.9-1.1c0,0-0.7,0.2-1.1,0.9
											C385.1,355.3,385.1,356.1,385.3,356.1z"/>
									</g>
								</g>
							</g>
						</g>
						<g>
							<g>
								<g>
									<g>
										<path class="st13" d="M380.5,353.9c0,0,0.2-0.2,0.6-0.6c0.2-0.4,0.4-0.6,0.4-0.7c0,0-0.2,0.2-0.6,0.6
											C380.6,353.7,380.5,353.9,380.5,353.9z"/>
									</g>
								</g>
							</g>
						</g>
						<g>
							<g>
								<g>
									<g>
										<path class="st13" d="M379.3,353.3c0,0,0.4-0.2,0.6-0.4s0.4-0.4,0.4-0.6c0,0-0.4,0.2-0.6,0.4
											C379.3,353.1,379.2,353.3,379.3,353.3z"/>
									</g>
								</g>
							</g>
						</g>
						<g>
							<g>
								<g>
									<g>
										<path class="st13" d="M378.4,352c0,0,0.4,0,0.7,0c0.4,0,0.7,0,0.7-0.2c0,0-0.4,0-0.7,0C378.8,351.8,378.4,351.8,378.4,352
											z"/>
									</g>
								</g>
							</g>
						</g>
						<g>
							<g>
								<g>
									<g>
										<path class="st13" d="M378,351.1c0,0,0.4,0.2,0.9,0.2c0.6,0,0.9,0,0.9-0.2c0,0-0.4,0-0.9,0
											C378.6,351.1,378,350.9,378,351.1z"/>
									</g>
								</g>
							</g>
						</g>
						<g>
							<g>
								<g>
									<g>
										<path class="st13" d="M381,352.6c0,0,0.4,0,0.9,0c0.4,0,0.7-0.2,1.1-0.2c0.2,0,0.4-0.2,0.6-0.2s0.2-0.2,0.2-0.4
											c0-0.2,0-0.4-0.2-0.4c-0.9-0.4-1.9,0-2.2,0.6C381.4,352.2,381.2,352.6,381,352.6c0.2,0.2,0.2,0.2,0.2,0.2s0-0.4,0.4-0.7
											c0.2-0.2,0.6-0.4,0.9-0.6c0.4-0.2,0.9-0.2,1.1,0c0.2,0.2,0.2,0.4,0,0.4c-0.2,0.2-0.4,0.2-0.6,0.2
											c-0.4,0.2-0.7,0.2-1.1,0.2C381.4,352.6,381,352.6,381,352.6z"/>
									</g>
								</g>
							</g>
						</g>
						<g>
							<g>
								<g>
									<g>
										<path class="st13" d="M381.4,352.7c0,0,0.2-0.2,0.2-0.7c0-0.2-0.2-0.4-0.4-0.7c-0.2-0.2-0.4-0.6-0.9-0.4
											c-0.2,0-0.4,0.4-0.4,0.4c0,0.2,0.2,0.4,0.2,0.4c0.2,0.2,0.4,0.4,0.6,0.6C381,352.6,381.2,352.7,381.4,352.7
											c0,0-0.4-0.2-0.6-0.6c-0.2-0.2-0.4-0.4-0.4-0.6c-0.2-0.2-0.2-0.6,0-0.6s0.6,0.2,0.7,0.4s0.2,0.4,0.4,0.6
											C381.4,352.4,381.2,352.7,381.4,352.7z"/>
									</g>
								</g>
							</g>
						</g>
						<g>
							<g>
								<g>
									<g>
										<path class="st13" d="M364.3,352c0,0,0.4,0,1.1,0s1.7,0.4,2.6,0.9c0.9,0.6,1.3,1.5,1.7,2c0.2,0.6,0.4,1.1,0.4,1.1
											s0-0.2,0-0.4c0-0.2,0-0.4-0.2-0.7c-0.2-0.6-0.7-1.5-1.7-2.2c-0.9-0.6-1.9-0.9-2.6-0.9c-0.4,0-0.7,0-0.9,0
											C364.3,352,364.3,352,364.3,352z"/>
									</g>
								</g>
							</g>
						</g>
						<g>
							<g>
								<g>
									<g>
										<path class="st13" d="M371.9,354.6c0,0,1.1,0.2,2.2,0.2c1.3,0,2.2-0.2,2.2-0.2s-1.1,0-2.2,0
											C373,354.6,371.9,354.6,371.9,354.6z"/>
									</g>
								</g>
							</g>
						</g>
						<g>
							<g>
								<g>
									<g>
										<path class="st13" d="M368.8,354.8c0,0,0,0.2,0.2,0.4c0.2,0.2,0.2,0.4,0.2,0.4s0-0.2,0-0.6
											C369.1,354.8,369,354.6,368.8,354.8z"/>
									</g>
								</g>
							</g>
						</g>
						<g>
							<g>
								<g>
									<g>
										<path class="st13" d="M367.7,353.3c0,0,0,0.2,0.2,0.4c0.2,0.2,0.4,0.2,0.4,0.2s0-0.2-0.2-0.4
											C367.8,353.5,367.7,353.3,367.7,353.3z"/>
									</g>
								</g>
							</g>
						</g>
						<g>
							<g>
								<g>
									<g>
										<path class="st13" d="M366,352.7c0,0,0.2,0,0.4,0.2c0.2,0,0.4,0.2,0.4,0.2s-0.2-0.2-0.4-0.4
											C366.2,352.7,366,352.7,366,352.7z"/>
									</g>
								</g>
							</g>
						</g>
						<g>
							<g>
								<g>
									<g>
										<path class="st13" d="M364.7,352.6c0,0,0,0.2,0.2,0.2s0.2,0,0.2,0s0-0.2-0.2-0.2C364.9,352.6,364.9,352.6,364.7,352.6z"/>
									</g>
								</g>
							</g>
						</g>
					</g>
				</g>
			</g>
			<g>
				<path class="st9" d="M300.6,147.8c-4.4-6.1-3.7-14.5,1.7-19.6l25.9-25l5,18.3c-0.4,0.2-20.2,18.2-20.2,18.2l13.9,20.6
					c2.2,3.2,2.6,7.2,0.9,10.7l-0.9,2.8c-1.3,4.1-6.1,5.9-9.8,3.9l-4.3-2.2c-0.6-0.2-0.6-0.9-0.4-1.3l0,0c0.2-0.2,0.6-0.4,0.7-0.4
					l5.9,0.6c1.3,0.2,2.4-0.7,2.8-1.9l0,0l0,0L300.6,147.8z"/>
				<path class="st14" d="M313.4,140.2c-1.1-1.5-2.4-3-3.3-4.3"/>
			</g>
			<g>
				<g>
					<path class="st9" d="M386.2,122.9l5.7,10.6l3.5-28.5c0.2-3-0.7-5.2-1.1-5.9c-0.4-0.7-0.9-1.7-1.5-2.4c-0.7-0.9-1.7-1.9-2.4-2.4
						c-0.9-0.6-0.7-1.9,0.2-2c0.9-0.2,3.5,1.3,5.6,4.1c2,2.8,2.2-2.6,2.4-4.4c0.2-1.9,0.7-7.8,1.3-8.3c0.9-0.6,1.7,0.2,1.7,2.2
						c-0.2,1.9-0.2,7.8,0.7,7.8c0.9,0,1.5-9.8,1.5-9.8s-0.2-2,0.9-2c2,0,0.9,10.4,0.7,11.3c-0.2,0.7,0.9,0.7,1.1,0
						c0-0.7,0.2-9.8,2.4-9.8c1.7,0-0.9,8.5,0,10.4c0.9,1.9,1.3-6.7,3-6.7c0.6,0,1.1,0.2,0.2,5c-0.6,2.6-2.2,6.5-2.8,11.5l-0.2,1.3
						c0,0-3,25-7.4,40.4c-2.6,9.1-15.6,10-20.9,2c-3.5-5.4-9.3-19.5-9.3-19.5L386.2,122.9z"/>
					<g>
						<path class="st15" d="M407,100.3c0,0-0.4,0-0.9,0.2c-0.6,0.2-1.1,0.6-1.7,1.3l-0.2,0.4l-0.2-0.4c-0.2-0.6-0.4-1.1-0.7-1.5
							c-0.7-1.1-1.9-1.7-2.8-2c-0.7-0.4-1.5-0.4-1.5-0.4s0.6-0.2,1.5,0.2c0.9,0.2,2,0.9,3,2c0.4,0.6,0.7,1.1,0.7,1.7h-0.4
							c0.6-0.9,1.3-1.3,1.9-1.3C406.6,100.3,407,100.3,407,100.3z"/>
					</g>
				</g>
			</g>
			<g>
				<g>
					<g>
						<g>
							<g>
								<g>
									<g>
										<path class="st11" d="M314.8,352.4v-1.5l15.8,0.4l-0.2,5.2h-0.9c-4.3,0.2-22.1,0.4-25-0.4
											C301.3,355,314.8,352.4,314.8,352.4z"/>
									</g>
								</g>
							</g>
						</g>
						<g>
							<g>
								<g>
									<path class="st12" d="M324.9,356.1c0.2-1.3,0.9-2.4,2-3.2c1.1-0.7,2.4-1.1,3.7-0.9v4.1H324.9z"/>
								</g>
							</g>
						</g>
					</g>
					<path class="st12" d="M308.2,353.9c0,0-4.6,1.1-4.1,1.9c0.6,0.7,18.5,1.1,26.5,0.6v-0.4l-20.9-0.2
						C309.7,355.7,309.1,353.9,308.2,353.9z"/>
					<g>
						<g>
							<g>
								<g>
									<path class="st13" d="M330.8,355.9h-0.2c-0.2,0-0.6,0-0.7,0c-0.7,0-1.7,0-2.8,0c-2.4,0-5.7,0-9.5,0s-7-0.2-9.5-0.4
										c-1.1,0-2-0.2-2.8-0.2c-0.4,0-0.6,0-0.7,0c-0.2,0-0.2,0-0.2,0h0.2c0.2,0,0.6,0,0.7,0c0.7,0,1.7,0,2.8,0.2
										c2.4,0,5.7,0.2,9.5,0.2s7,0,9.5,0c1.1,0,2,0,2.8,0c0.4,0,0.6,0,0.7,0C330.6,355.9,330.8,355.9,330.8,355.9z"/>
								</g>
							</g>
						</g>
					</g>
					<g>
						<g>
							<g>
								<g>
									<path class="st13" d="M309.7,355.9c0,0,0-0.6-0.6-1.3c-0.4-0.7-0.9-0.9-0.9-1.1c0,0,0.7,0.2,1.1,0.9
										C309.7,355.3,309.7,355.9,309.7,355.9z"/>
								</g>
							</g>
						</g>
					</g>
					<g>
						<g>
							<g>
								<g>
									<path class="st13" d="M314.3,353.9c0,0-0.2-0.2-0.6-0.6c-0.2-0.4-0.4-0.6-0.4-0.7c0,0,0.2,0.2,0.6,0.6
										C314.1,353.5,314.3,353.9,314.3,353.9z"/>
								</g>
							</g>
						</g>
					</g>
					<g>
						<g>
							<g>
								<g>
									<path class="st13" d="M315.6,353.3c0,0-0.4-0.2-0.6-0.4s-0.4-0.4-0.4-0.6c0,0,0.4,0.2,0.6,0.4
										C315.4,352.9,315.6,353.3,315.6,353.3z"/>
								</g>
							</g>
						</g>
					</g>
					<g>
						<g>
							<g>
								<g>
									<path class="st13" d="M316.3,351.8c0,0-0.4,0-0.7,0c-0.4,0-0.7,0-0.7-0.2c0,0,0.4,0,0.7,0
										C316,351.8,316.3,351.8,316.3,351.8z"/>
								</g>
							</g>
						</g>
					</g>
					<g>
						<g>
							<g>
								<g>
									<path class="st13" d="M316.7,350.9c0,0-0.4,0.2-0.9,0.2c-0.6,0-0.9,0-0.9-0.2c0,0,0.4,0,0.9,0
										C316.3,350.9,316.7,350.9,316.7,350.9z"/>
								</g>
							</g>
						</g>
					</g>
					<g>
						<g>
							<g>
								<g>
									<path class="st13" d="M313.7,352.6c0,0-0.4,0-0.9,0c-0.4,0-0.7-0.2-1.1-0.2c-0.2,0-0.4-0.2-0.6-0.2s-0.2-0.2-0.2-0.4
										c0-0.2,0-0.4,0.2-0.4c0.9-0.4,1.9,0,2.2,0.6C313.5,352.2,313.5,352.4,313.7,352.6c-0.2,0.2-0.2,0.2-0.2,0.2s0-0.4-0.4-0.7
										c-0.2-0.2-0.6-0.4-0.9-0.6c-0.4-0.2-0.9-0.2-1.1,0c-0.2,0.2-0.2,0.4,0,0.4c0.2,0.2,0.4,0.2,0.6,0.2
										c0.4,0.2,0.7,0.2,1.1,0.2C313.4,352.6,313.7,352.6,313.7,352.6z"/>
								</g>
							</g>
						</g>
					</g>
					<g>
						<g>
							<g>
								<g>
									<path class="st13" d="M313.5,352.6c0,0-0.2-0.2-0.2-0.7c0-0.2,0.2-0.4,0.4-0.7c0.2-0.2,0.4-0.6,0.9-0.4
										c0.2,0,0.4,0.4,0.4,0.4c0,0.2-0.2,0.4-0.2,0.4c-0.2,0.2-0.4,0.4-0.6,0.6C313.9,352.6,313.5,352.6,313.5,352.6
										s0.4-0.2,0.6-0.6c0.2-0.2,0.4-0.4,0.4-0.6c0.2-0.2,0.2-0.6,0-0.6s-0.6,0.2-0.7,0.4c-0.2,0.2-0.2,0.4-0.4,0.6
										C313.4,352.4,313.5,352.6,313.5,352.6z"/>
								</g>
							</g>
						</g>
					</g>
					<g>
						<g>
							<g>
								<g>
									<path class="st13" d="M330.6,352c0,0-0.4,0-1.1,0s-1.7,0.4-2.6,0.9c-0.9,0.6-1.3,1.5-1.7,2c-0.2,0.6-0.4,1.1-0.4,1.1
										s0-0.2,0-0.4c0-0.2,0-0.4,0.2-0.7c0.2-0.6,0.7-1.5,1.7-2.2c0.9-0.6,1.9-0.9,2.6-0.9c0.4,0,0.7,0,0.9,0
										C330.4,351.8,330.6,352,330.6,352z"/>
								</g>
							</g>
						</g>
					</g>
					<g>
						<g>
							<g>
								<g>
									<path class="st13" d="M322.8,354.6c0,0-1.1,0.2-2.2,0.2c-1.3,0-2.2-0.2-2.2-0.2s1.1,0,2.2,0
										C321.9,354.6,322.8,354.6,322.8,354.6z"/>
								</g>
							</g>
						</g>
					</g>
					<g>
						<g>
							<g>
								<g>
									<path class="st13" d="M326,354.6c0,0,0,0.2-0.2,0.4s-0.2,0.4-0.2,0.4s0-0.2,0-0.6C325.8,354.8,326,354.6,326,354.6z"/>
								</g>
							</g>
						</g>
					</g>
					<g>
						<g>
							<g>
								<g>
									<path class="st13" d="M327.1,353.3c0,0,0,0.2-0.2,0.4c-0.2,0.2-0.4,0.2-0.4,0.2s0-0.2,0.2-0.4
										C326.9,353.3,327.1,353.3,327.1,353.3z"/>
								</g>
							</g>
						</g>
					</g>
					<g>
						<g>
							<g>
								<g>
									<path class="st13" d="M328.7,352.7c0,0-0.2,0-0.4,0.2c-0.2,0-0.4,0.2-0.4,0.2s0.2-0.2,0.4-0.4
										C328.6,352.6,328.9,352.7,328.7,352.7z"/>
								</g>
							</g>
						</g>
					</g>
					<g>
						<g>
							<g>
								<g>
									<path class="st13" d="M330,352.6c0,0,0,0.2-0.2,0.2s-0.2,0-0.2,0s0-0.2,0.2-0.2C329.9,352.4,330,352.4,330,352.6z"/>
								</g>
							</g>
						</g>
					</g>
				</g>
			</g>
			<g>
				<path class="st10" d="M335.2,154.8l-10.4,24.5l-12.2,134l31.3,3.3L354.1,201l3.2,116.6l28.7-0.9l-4.3-137.3
					c-0.2-3.7-1.1-7.4-2.6-10.7l-6.9-14.1L335.2,154.8z"/>
				<g>
					<path class="st16" d="M357.3,191.7c0,0,0,0.2-0.4,0.2c-0.2,0.2-0.6,0.4-1.1,0.4c-0.6,0-1.1-0.2-1.7-0.6
						c-0.6-0.4-1.1-0.9-1.5-1.7c-0.7-1.7-0.6-3.7-0.6-5.7c0-2.2,0-4.6,0-7c0-5,0-9.6,0-13c0-1.7,0-3,0-3.9s0-1.5,0-1.5
						s0,0.6,0.2,1.5c0,0.9,0,2.4,0,3.9c0,3.3,0.2,7.8,0.2,13c0,2.6,0,5,0,7c0,2.2-0.2,4.3,0.6,5.7c0.6,1.5,2,2,2.8,2.2
						C356.7,192.1,357.1,191.7,357.3,191.7z"/>
				</g>
				<g>
					<path class="st16" d="M379.5,169.6c0,0-0.2,0.2-0.7,0.4c-0.6,0.2-1.3,0.6-2.2,0.7c-0.9,0.2-2.2,0.2-3.5-0.2
						c-1.3-0.4-2.8-0.7-4.1-1.5c-2.8-1.5-4.4-3.9-5.4-5.7c-0.4-0.9-0.7-1.7-0.7-2.2c-0.2-0.6-0.2-0.9-0.2-0.9s0.4,1.3,1.3,3
						c0.9,1.7,2.6,4.1,5.4,5.4c1.3,0.7,2.6,1.3,3.9,1.5c1.3,0.4,2.4,0.4,3.5,0.2C378.4,170.2,379.5,169.6,379.5,169.6z"/>
				</g>
				<g>
					<path class="st16" d="M342.6,160.6c0,0,0,0.4,0,0.9c0,0.6-0.2,1.3-0.4,2.2c-0.6,1.9-1.9,4.3-4.1,6.3c-2.4,1.9-5,2.8-6.9,2.8
						c-0.9,0.2-1.7,0-2.2,0c-0.6,0-0.7-0.2-0.7-0.2s1.1,0,3.2-0.2c1.9-0.2,4.4-1.1,6.7-3c2.2-1.9,3.5-4.3,4.1-5.9
						C342.5,161.7,342.5,160.6,342.6,160.6z"/>
				</g>
				<g>
					<path class="st16" d="M355.4,158.3c0,0,0.2,0,0.4,0c0.2,0,0.6,0.2,0.7,0.4c0.2,0.2,0.6,0.7,0.6,1.3c0,0.6-0.6,1.1-1.3,1.1
						c-0.6,0.2-1.3-0.2-1.7-0.6c-0.4-0.6-0.2-1.1,0-1.3c0.2-0.4,0.4-0.6,0.6-0.7s0.4,0,0.4,0s-0.4,0.2-0.6,0.9
						c0,0.4-0.2,0.7,0.2,1.1c0.2,0.4,0.7,0.6,1.1,0.4c0.4,0,0.7-0.4,0.9-0.7c0-0.4,0-0.7-0.4-0.9C356,158.5,355.4,158.5,355.4,158.3
						z"/>
				</g>
				<g>
					<g>
						<path class="st16" d="M344.1,308.5c0,0-0.4,0-1.1,0s-1.9-0.2-3.3-0.2c-2.8-0.2-6.5-0.6-10.7-1.1c-4.1-0.6-8-1.1-10.6-1.5
							c-1.3-0.2-2.4-0.4-3.2-0.6c-0.7-0.2-1.1-0.2-1.1-0.4c0,0,0.4,0,1.1,0.2c0.9,0.2,1.9,0.2,3.2,0.4c2.8,0.4,6.5,0.9,10.6,1.5
							c4.1,0.6,8,0.9,10.7,1.3c1.3,0.2,2.4,0.2,3.2,0.4C343.8,308.3,344.1,308.5,344.1,308.5z"/>
					</g>
				</g>
				<g>
					<g>
						<path class="st16" d="M384.3,307.2c0,0-0.4,0-1.1,0.2c-0.7,0-1.9,0-3,0.2c-2.4,0.2-5.9,0.4-9.8,0.6c-3.9,0.4-7.2,0.7-9.6,0.9
							c-1.1,0.2-2.2,0.2-3,0.4c-0.7,0-1.1,0.2-1.1,0c0,0,0.4-0.2,1.1-0.2c0.7-0.2,1.7-0.4,3-0.6c2.4-0.4,5.9-0.7,9.8-1.1
							c3.9-0.4,7.2-0.4,9.8-0.4c1.3,0,2.2,0,3,0C384,307.2,384.3,307.2,384.3,307.2z"/>
					</g>
				</g>
				<g>
					<g>
						<g>
							<path class="st16" d="M381.4,302.2c0.2,0,0.2,0.9,0.4,2.2c0,1.3,0,2.2-0.2,2.2s-0.2-0.9-0.4-2.2
								C381.2,303.3,381.4,302.2,381.4,302.2z"/>
						</g>
						<g>
							<path class="st16" d="M381,293.3c0.2,0,0.2,0.9,0.4,2.2c0,1.3,0,2.2-0.2,2.2s-0.2-0.9-0.4-2.2
								C380.8,294.2,381,293.3,381,293.3z"/>
						</g>
						<g>
							<path class="st16" d="M380.8,284.2c0.2,0,0.2,0.9,0.4,2.2c0,1.3,0,2.2-0.2,2.2c-0.2,0-0.2-0.9-0.4-2.2
								C380.5,285.3,380.6,284.2,380.8,284.2z"/>
						</g>
						<g>
							<path class="st16" d="M380.5,275.3c0.2,0,0.2,0.9,0.4,2.2c0,1.3,0,2.2-0.2,2.2s-0.2-0.9-0.4-2.2
								C380.1,276.2,380.3,275.3,380.5,275.3z"/>
						</g>
						<g>
							<path class="st16" d="M380.1,266.2c0.2,0,0.2,0.9,0.4,2.2c0,1.3,0,2.2-0.2,2.2s-0.2-0.9-0.4-2.2
								C379.9,267.3,379.9,266.2,380.1,266.2z"/>
						</g>
						<g>
							<path class="st16" d="M379.7,257.3c0.2,0,0.2,0.9,0.4,2.2c0,1.3,0,2.2-0.2,2.2s-0.2-0.9-0.4-2.2
								C379.5,258.2,379.5,257.3,379.7,257.3z"/>
						</g>
						<g>
							<path class="st16" d="M379.3,248.2c0.2,0,0.2,0.9,0.4,2.2c0,1.3,0,2.2-0.2,2.2s-0.2-0.9-0.4-2.2
								C379.2,249.3,379.2,248.2,379.3,248.2z"/>
						</g>
						<g>
							<path class="st16" d="M379,239.3c0.2,0,0.2,0.9,0.4,2.2c0,1.3,0,2.2-0.2,2.2s-0.2-0.9-0.4-2.2
								C378.8,240.3,378.8,239.3,379,239.3z"/>
						</g>
						<g>
							<path class="st16" d="M378.6,230.2c0.2,0,0.2,0.9,0.4,2.2c0,1.3,0,2.2-0.2,2.2s-0.2-0.9-0.4-2.2
								C378.4,231.4,378.4,230.2,378.6,230.2z"/>
						</g>
						<g>
							<path class="st16" d="M378.2,221.4c0.2,0,0.2,0.9,0.4,2.2c0,1.3,0,2.2-0.2,2.2s-0.2-0.9-0.4-2.2
								C378,222.3,378,221.4,378.2,221.4z"/>
						</g>
						<g>
							<path class="st16" d="M377.9,212.3c0.2,0,0.2,0.9,0.4,2.2c0,1.3,0,2.2-0.2,2.2s-0.2-0.9-0.4-2.2
								C377.7,213.4,377.7,212.3,377.9,212.3z"/>
						</g>
						<g>
							<path class="st16" d="M377.5,203.4c0.2,0,0.2,0.9,0.4,2.2c0,1.3,0,2.2-0.2,2.2c-0.2,0-0.2-0.9-0.4-2.2
								C377.3,204.3,377.3,203.4,377.5,203.4z"/>
						</g>
						<g>
							<path class="st16" d="M377.1,194.3c0.2,0,0.2,0.9,0.4,2.2c0,1.3,0,2.2-0.2,2.2s-0.2-0.9-0.4-2.2
								C376.9,195.4,376.9,194.3,377.1,194.3z"/>
						</g>
						<g>
							<path class="st16" d="M376.7,185.4c0.2,0,0.2,0.9,0.4,2.2c0,1.3,0,2.2-0.2,2.2s-0.2-0.9-0.4-2.2
								C376.6,186.3,376.6,185.4,376.7,185.4z"/>
						</g>
						<g>
							<path class="st16" d="M376.4,176.3c0.2,0,0.2,0.9,0.4,2.2c0,1.3,0,2.2-0.2,2.2s-0.2-0.9-0.4-2.2
								C376.2,177.4,376.2,176.3,376.4,176.3z"/>
						</g>
						<g>
							<path class="st16" d="M376,170.4c0.2,0,0.2,0.4,0.2,0.7c0,0.4,0,0.7-0.2,0.7c-0.2,0-0.2-0.4-0.2-0.7
								C375.8,170.8,376,170.4,376,170.4z"/>
						</g>
					</g>
				</g>
				<g>
					<g>
						<g>
							<path class="st16" d="M318,300.9c0.2,0,0.2,1.1,0,2.2c-0.2,1.3-0.4,2.2-0.4,2.2c-0.2,0-0.2-1.1,0-2.2
								C317.6,301.8,317.8,300.9,318,300.9z"/>
						</g>
						<g>
							<path class="st16" d="M318.7,292c0.2,0,0.2,1.1,0,2.2c-0.2,1.3-0.4,2.2-0.4,2.2c-0.2,0-0.2-1.1,0-2.2
								C318.4,292.9,318.6,292,318.7,292z"/>
						</g>
						<g>
							<path class="st16" d="M319.7,282.9c0.2,0,0.2,1.1,0,2.2c-0.2,1.3-0.4,2.2-0.4,2.2c-0.2,0-0.2-1.1,0-2.2
								C319.3,284,319.5,282.9,319.7,282.9z"/>
						</g>
						<g>
							<path class="st16" d="M320.4,274c0.2,0,0.2,1.1,0,2.2c-0.2,1.3-0.4,2.2-0.4,2.2c-0.2,0-0.2-1.1,0-2.2
								C320,274.9,320.2,274,320.4,274z"/>
						</g>
						<g>
							<path class="st16" d="M321.3,265.1c0.2,0,0.2,1.1,0,2.2c-0.2,1.3-0.4,2.2-0.4,2.2c-0.2,0-0.2-1.1,0-2.2
								C321,266,321.1,265.1,321.3,265.1z"/>
						</g>
						<g>
							<path class="st16" d="M322.1,256c0.2,0,0.2,1.1,0,2.2c-0.2,1.3-0.4,2.2-0.4,2.2c-0.2,0-0.2-1.1,0-2.2
								C321.7,257.1,322.1,256,322.1,256z"/>
						</g>
						<g>
							<path class="st16" d="M323,247.1c0.2,0,0.2,1.1,0,2.2c-0.2,1.3-0.4,2.2-0.4,2.2s-0.2-1.1,0-2.2
								C322.6,248,322.8,247.1,323,247.1z"/>
						</g>
						<g>
							<path class="st16" d="M323.7,238.2c0.2,0,0.2,1.1,0,2.2c-0.2,1.3-0.4,2.2-0.4,2.2c-0.2,0-0.2-1.1,0-2.2
								C323.6,239.1,323.7,238.2,323.7,238.2z"/>
						</g>
						<g>
							<path class="st16" d="M324.7,229.1c0.2,0,0.2,1.1,0,2.2c-0.2,1.3-0.4,2.2-0.4,2.2c-0.2,0-0.2-1.1,0-2.2
								C324.3,230.2,324.5,229.1,324.7,229.1z"/>
						</g>
						<g>
							<path class="st16" d="M325.4,220.2c0.2,0,0.2,1.1,0,2.2c-0.2,1.3-0.4,2.2-0.4,2.2c-0.2,0-0.2-1.1,0-2.2
								C325.2,221.2,325.4,220.2,325.4,220.2z"/>
						</g>
						<g>
							<path class="st16" d="M326.3,211.3c0.2,0,0.2,1.1,0,2.2c-0.2,1.3-0.4,2.2-0.4,2.2c-0.2,0-0.2-1.1,0-2.2
								C326,212.3,326.2,211.3,326.3,211.3z"/>
						</g>
						<g>
							<path class="st16" d="M327.1,202.3c0.2,0,0.2,1.1,0,2.2c-0.2,1.3-0.4,2.2-0.4,2.2c-0.2,0-0.2-1.1,0-2.2
								C326.9,203.4,327.1,202.3,327.1,202.3z"/>
						</g>
						<g>
							<path class="st16" d="M328,193.4c0.2,0,0.2,1.1,0,2.2c-0.2,1.3-0.4,2.2-0.4,2.2c-0.2,0-0.2-1.1,0-2.2
								C327.6,194.3,327.8,193.4,328,193.4z"/>
						</g>
						<g>
							<path class="st16" d="M328.7,184.5c0.2,0,0.2,1.1,0,2.2c-0.2,1.3-0.4,2.2-0.4,2.2c-0.2,0-0.2-1.1,0-2.2
								C328.6,185.4,328.7,184.5,328.7,184.5z"/>
						</g>
						<g>
							<path class="st16" d="M329.7,175.4c0.2,0,0.2,1.1,0,2.2c-0.2,1.3-0.4,2.2-0.4,2.2c-0.2,0-0.2-1.1,0-2.2
								C329.3,176.5,329.5,175.4,329.7,175.4z"/>
						</g>
					</g>
				</g>
			</g>
			<g>
				<g>
					<g>
						<g>
							<path class="st11" d="M372.1,154.6c0,0,0.4-25.6,0.2-26.1l16.5-1.9c0,0-5-19.1-7.8-22.8c-7.2-9.3-18.7-7.6-18.7-7.6l-17-0.2
								c0,0-0.6-0.2-1.5-0.2c-5-0.6-10.2,1.1-13.9,4.4l-19.5,17.6L326,132l7-5.7l2,28.7L372.1,154.6z"/>
						</g>
					</g>
				</g>
				<g>
					<path class="st10" d="M386,116.6c0,0.2-11.5,7.4-25.9,16.5s-26.1,16.1-26.1,16.1c0-0.2,11.5-7.4,25.9-16.5
						C374.3,123.7,386,116.5,386,116.6z"/>
				</g>
				<g>
					<g>
						<path class="st10" d="M366.7,96.6c0.2,0-7.2,10-16.3,22.1c-9.1,12-16.7,21.9-16.7,21.7c-0.2,0,7.2-10,16.3-22.1
							S366.7,96.4,366.7,96.6z"/>
					</g>
				</g>
			</g>
			<g>
				<g>
					<path class="st10" d="M325.6,104.2c0.2-3.3-1.7-6.9-0.4-10c0.9-2.4,3.3-3.7,4.4-6.1c0.9-2.2,0.4-4.8,0-7
						c-0.4-2.4-0.6-5.2,1.1-6.9c1.3-1.5,3.5-1.7,5-3.2c1.3-1.3,1.9-3.2,1.9-5c0.2-1.9,0-3.7,0.2-5.4c0.6-3.7,2.8-7,6.1-8.7
						c3.3-1.7,7.4-1.5,10.6,1.7l-11.1,42.3C337.3,97,331.2,100,325.6,104.2z"/>
					<g>
						<path class="st10" d="M325.8,87c0,0-0.2,0-0.4,0.2c-0.2,0.2-0.4,0.6-0.6,0.9c0,0.4,0,1.1,0.6,1.5c0.4,0.4,1.3,0.6,2,0.4
							c0.7-0.2,1.5-0.9,1.7-1.9c0.4-0.9,0.2-2,0-3.2c-0.4-1.1-0.7-2.2-1.1-3.3c-0.4-1.1-0.6-2.6-0.4-3.9c0.6-2.6,2.2-4.8,4.4-5.9
							c1.1-0.6,2-0.7,3-1.3c0.9-0.4,1.7-0.9,2.2-1.7c1.1-1.3,1.3-2.8,1.3-3.7s-0.2-1.5-0.2-1.5s0,0.2,0.2,0.4c0,0.2,0.2,0.6,0.2,1.1
							c0,0.9-0.2,2.4-1.1,3.9c-0.6,0.7-1.3,1.3-2.2,1.9c-0.9,0.4-2,0.7-3,1.3c-2,0.9-3.7,3-4.1,5.6c-0.2,1.3-0.2,2.6,0.2,3.7
							c0.4,1.1,0.9,2.2,1.1,3.3c0.4,1.1,0.4,2.2,0,3.3c-0.4,0.9-1.1,1.9-2,2c-0.9,0.2-1.9,0-2.2-0.6c-0.6-0.6-0.6-1.3-0.6-1.7
							c0.2-0.6,0.4-0.7,0.6-0.9C325.6,87,325.8,87,325.8,87z"/>
					</g>
				</g>
				<path class="st17" d="M360.3,95.3c-0.4-4.6-5.7-1.9-5.2-6.5c1.3-10.6,1.9-21.3,1.5-31.9"/>
				<path class="st9" d="M343.8,95.5l-2-32.2c5.4-7.4,12.6-8.9,21.5-6.3c0,0,3.7,15.6,3.3,23c-0.6,7.8-6.3,9.5-6.3,9.5
					s0.2,2.6,0.6,5.9c1.5,0.2,3.9,0.6,5.6,1.1c0.6,0.2-12.6,17.8-12.6,17.8l-15.4-16.7C338.4,97.4,340.2,96.3,343.8,95.5z"/>
				<g>
					<g>
						<g>
							<g>
								<g>
									<g>
										<g>
											<g>
												<path class="st10" d="M363,69c0,0.6-0.4,0.9-0.9,1.1c-0.6,0-1.1-0.2-1.1-0.7c0-0.6,0.4-0.9,0.9-1.1
													C362.5,68.3,363,68.5,363,69z"/>
											</g>
											<g>
												<g>
													<path class="st10" d="M364.3,68.3c-0.2,0.2-0.9-0.4-2-0.2c-1.1,0-1.9,0.7-1.9,0.6c0,0,0-0.4,0.4-0.6
														c0.4-0.4,0.9-0.6,1.5-0.6c0.7,0,1.3,0.2,1.7,0.4C364.1,67.9,364.3,68.1,364.3,68.3z"/>
												</g>
											</g>
										</g>
										<g>
											<g>
												<path class="st10" d="M352.3,70.3c0,0.6-0.4,0.9-0.9,1.1c-0.6,0-1.1-0.2-1.1-0.7s0.4-0.9,0.9-1.1
													C351.7,69.4,352.1,69.8,352.3,70.3z"/>
											</g>
											<g>
												<g>
													<path class="st10" d="M353.4,69.4c-0.2,0.2-0.9-0.4-2-0.2c-1.1,0-1.9,0.7-1.9,0.6c0,0,0-0.4,0.4-0.6
														c0.4-0.4,0.9-0.6,1.5-0.6c0.7,0,1.3,0.2,1.7,0.4C353.4,69.2,353.4,69.4,353.4,69.4z"/>
												</g>
											</g>
										</g>
										<g>
											<g>
												<path class="st10" d="M358.2,76.8c0,0,0.6-0.2,1.7-0.6c0.2,0,0.6-0.2,0.6-0.4s-0.2-0.6-0.2-0.7c-0.4-0.6-0.7-1.3-0.9-2
													c-1.5-2.8-2.4-5.2-2.4-5.2c0.2,0,1.3,2.2,2.8,5c0.4,0.7,0.7,1.3,0.9,2c0.2,0.4,0.4,0.6,0.2,1.1c0,0.2-0.2,0.4-0.4,0.4
													c-0.2,0-0.4,0-0.4,0.2C358.8,76.8,358.2,76.8,358.2,76.8z"/>
											</g>
										</g>
										<g>
											<path class="st15" d="M360.1,89.2c0,0-5.2,0.9-10.6-1.7c0,0,3,5,10.6,3.5V89.2z"/>
										</g>
										<g>
											<path class="st15" d="M358,79.4c-0.4-0.6-1.1-0.7-1.9-0.6c-0.4,0.2-0.9,0.4-1.1,0.7c-0.2,0.4-0.2,0.9,0,1.3
												c0.4,0.4,0.9,0.4,1.5,0.2c0.6-0.2,0.9-0.6,1.3-0.9c0.2-0.2,0.2-0.2,0.2-0.4C358.2,79.6,358.2,79.6,358,79.4"/>
										</g>
										<g>
											<g>
												<path class="st10" d="M355.1,77.7c0.2,0,0.4,1.1,1.3,1.9c1.1,0.7,2.2,0.6,2.2,0.6s-0.2,0.2-0.7,0.4
													c-0.6,0-1.3,0-1.9-0.6c-0.7-0.4-0.9-1.1-1.1-1.5C354.9,78.1,355.1,77.7,355.1,77.7z"/>
											</g>
										</g>
									</g>
								</g>
							</g>
						</g>
					</g>
					<g>
						<path class="st10" d="M360.6,66.6c0,0.2,0.7,0,1.7,0c0.9,0,1.7,0.2,1.7,0c0-0.2-0.7-0.6-1.7-0.6
							C361.4,66,360.6,66.4,360.6,66.6z"/>
					</g>
					<g>
						<path class="st10" d="M349.9,67.2C350.1,67.2,350.1,67,349.9,67.2L349.9,67.2c0.2-0.2,0.9-0.4,1.7-0.4c0.9-0.2,1.9,0.2,1.9,0
							c0,0-0.2-0.2-0.6-0.4c-0.4-0.2-0.9-0.4-1.5-0.2c-0.9,0-1.7,0.6-1.7,0.7v0.2H349.9L349.9,67.2z"/>
					</g>
					<g>
						<path class="st15" d="M349.7,74l0.2-0.2c0-0.2,0-0.4-0.2-0.4l-0.2,0.2C349.5,73.8,349.7,74,349.7,74z"/>
					</g>
					<g>
						<path class="st15" d="M352.1,74c0,0,0.2-0.2,0-0.4c0-0.2-0.2-0.2-0.2-0.2v0.2C351.9,73.8,352.1,74,352.1,74z"/>
					</g>
					<g>
						<path class="st15" d="M350.8,74.9l0.2-0.2c0-0.2,0-0.2-0.2-0.2C350.6,74.6,350.6,74.8,350.8,74.9
							C350.6,74.9,350.8,74.9,350.8,74.9z"/>
					</g>
					<g>
						<path class="st15" d="M364.7,73.5c0,0,0.2-0.2,0.2-0.4c0-0.2-0.2-0.2-0.2-0.2s-0.2,0.2-0.2,0.4
							C364.5,73.3,364.7,73.5,364.7,73.5z"/>
					</g>
					<g>
						<path class="st15" d="M362.3,73.5l0.2-0.2c0-0.2,0-0.2-0.2-0.2l-0.2,0.2C362.1,73.5,362.1,73.5,362.3,73.5z"/>
					</g>
					<g>
						<path class="st15" d="M363.4,74.2l0.2-0.2c0-0.2,0-0.2-0.2-0.2l-0.2,0.2C363.2,74.2,363.4,74.2,363.4,74.2z"/>
					</g>
				</g>
				<g>
					<path class="st10" d="M355.6,53.1c0.4,3.7,1.9,7.2,4.4,10c2.4,2.8,5.4,5.2,8.9,5.7c-0.9-3.2-1.1-5.7-2-8.3
						c-0.7-2.6-1.9-5.2-3.9-7c-2.6-2.2-6.5-3-9.6-1.5"/>
					<g>
						<path class="st16" d="M368.2,66c0,0-0.2,0-0.6,0.2c-0.4,0-1.1,0-1.7-0.2c-0.7-0.2-1.5-0.6-2.4-1.1c-0.7-0.6-1.7-1.3-2.4-2
							c-1.7-1.7-2.8-3.3-3.5-4.6c-0.7-1.3-1.1-2-1.1-2.2c0,0,0.6,0.7,1.3,2c0.7,1.3,1.9,3,3.5,4.4c1.5,1.5,3.2,2.8,4.6,3.2
							C367.3,66,368.2,65.9,368.2,66z"/>
					</g>
					<g>
						<path class="st16" d="M365.8,66.4c0,0,0.2,0,0.2,0.2c0.2,0.2,0.4,0.4,0.7,0.7c0.6,0.7,1.3,1.9,1.7,3.5
							c0.2,0.7,0.4,1.7,0.4,2.6s-0.2,2-0.4,3c-0.2,1.1-0.4,2.2-0.6,3.3c0,1.1,0.2,2.2,0.7,3.3c0.6,1.1,1.3,2,2.2,2.8
							c0.9,0.7,1.9,1.1,2.8,1.9c0.9,0.7,1.5,1.7,1.5,2.8c0,1.1-0.6,1.9-0.9,2.6c-0.4,0.7-0.7,1.3-1.1,1.9c-0.2,0.6-0.4,1.1-0.4,1.5
							c0,0.9,0.6,1.3,0.4,1.3c0,0-0.2,0-0.2-0.2c-0.2-0.2-0.4-0.6-0.4-0.9c0-0.6,0-1.1,0.2-1.7c0.2-0.6,0.6-1.3,0.9-2
							s0.7-1.5,0.7-2.4c0-0.9-0.6-1.9-1.3-2.4c-0.7-0.7-1.9-1.1-2.8-1.9c-0.9-0.7-1.9-1.7-2.2-2.8c-0.6-1.1-0.7-2.4-0.7-3.5
							c0-1.1,0.4-2.2,0.6-3.3c0.2-1.1,0.4-2,0.4-3c0-0.9,0-1.9-0.2-2.6c-0.4-1.5-0.9-2.8-1.5-3.5C366.2,66.8,365.8,66.4,365.8,66.4z
							"/>
					</g>
					<g>
						<path class="st10" d="M374.5,82.7c0,0,0,0.2-0.2,0.4c-0.2,0.2-0.4,0.6-0.9,0.9c-0.6,0.2-1.1,0.4-1.9,0.4
							c-0.7-0.2-1.7-0.6-2-1.5c-0.6-0.7-0.7-1.9-0.6-3.2c0.2-1.1,0.7-2.2,1.3-3.3c0.7-1.1,1.7-2,2.2-3.2c0.7-1.1,0.9-2.6,0.6-3.9
							c-0.4-1.3-1.3-2.4-2.4-3c-0.6-0.4-1.1-0.4-1.9-0.6c-0.6-0.2-1.3-0.2-1.9-0.4c-1.3-0.4-2.4-0.9-3.2-1.5
							c-0.9-0.6-1.7-1.3-2.4-1.9c-1.5-1.3-2.4-2.4-3-3.3c-0.2-0.4-0.4-0.9-0.6-1.1c0-0.2-0.2-0.4-0.2-0.4s0.2,0.6,0.7,1.5
							c0.6,0.9,1.7,2,3,3.2c1.5,1.1,3.2,2.8,5.6,3.3c0.6,0.2,1.3,0.4,1.9,0.4c0.6,0.2,1.3,0.2,2,0.6c1.3,0.6,2.4,1.9,2.8,3.3
							c0.4,1.5,0,3-0.7,4.3c-0.7,1.1-1.7,2-2.4,3.2c-0.7,0.9-1.1,2-1.3,3.2c-0.2,1.1,0,2,0.6,2.8c0.6,0.7,1.1,1.3,1.9,1.3
							c0.7,0.2,1.3,0,1.9-0.2C374.5,83.3,374.5,82.7,374.5,82.7z"/>
					</g>
				</g>
				<g>
					<g>
						<path class="st16" d="M328.9,101.8c0,0-0.2-0.2-0.4-0.4c-0.2-0.2-0.6-0.6-0.7-1.1c-0.6-0.9-1.1-2.8-0.7-4.8
							c0.2-1.1,0.6-2,1.5-3.2c0.7-0.9,1.9-1.9,2.8-2.6c1.1-0.9,2-1.9,2.8-3c0.4-0.6,0.7-1.3,0.7-2c0.2-0.7,0-1.5-0.4-2.2
							c-0.6-1.5-1.7-2.6-2.2-4.1c-0.4-0.7-0.4-1.5-0.4-2.2c0.2-0.7,0.4-1.5,0.9-2c0.9-1.1,2-1.9,3-2.4c1.1-0.6,2-1.3,2.8-1.9
							c1.5-1.3,2-3.2,1.9-4.3c-0.2-1.1-0.6-1.7-0.6-1.7s0.2,0.2,0.2,0.4c0.2,0.2,0.4,0.7,0.4,1.3c0.2,1.1-0.4,3-1.9,4.4
							c-0.7,0.7-1.7,1.3-2.8,2c-0.9,0.6-2,1.3-2.8,2.4c-0.4,0.6-0.7,1.1-0.7,1.9s0,1.3,0.4,2c0.6,1.3,1.7,2.4,2.2,4.1
							c0.4,0.7,0.4,1.7,0.4,2.4c-0.2,0.7-0.4,1.5-0.9,2.2c-0.7,1.3-1.9,2.2-3,3.2c-1.1,0.9-2,1.7-2.8,2.6c-0.7,0.9-1.1,1.9-1.3,3
							c-0.4,2,0,3.7,0.6,4.6C328.6,101.3,328.9,101.8,328.9,101.8z"/>
					</g>
					<g>
						<path class="st10" d="M332.8,100.5c0.4-3.5,1.1-5,1.1-8.5c0-3.3,3-7.6,1.1-11.5c0.6-2.4,1.5-4.8,2.6-7c0.6-1.5,3-5.7,3.5-7.2
							c-0.4-2.6-2.2-2.4-1.9-5c0.4-3.2,1.9-6.3,4.6-8.2c1.7-1.1,3.7-1.5,5.7-1.7c1.3-0.2,2.8-0.2,4.1,0.2s2.6,1.1,3.3,2.4l-0.7-0.7
							c0.6,3-0.4,6.1-2.4,8.3c-2,2.2-4.8,3.7-7.6,4.4c0,0.9-0.2,2-0.6,2.8V69c0,0-0.2,0-0.2,0.2c-0.2,0.4-0.4,0.6-0.6,0.9
							c-0.4,0.4-0.7,0.7-1.1,0.9c-0.6,1.3-0.6,2.6,0,3.9c0.7,1.3,2.2,2.4,2.6,3.9c0.4,1.7-0.9,3.3-0.9,5.2c0,0.9,0.4,1.9,0.9,2.6
							c3.2,4.1,2.6,8.3,0.7,13.2c-0.7,1.9-1.7,3.7-1.1,5.6c0.6,1.7,2.2,3,2.8,4.6c0.7,2.4-0.9,4.8-2.6,6.7
							c-3.5-1.7-7.2-2.8-10.9-3.7c0.4-1.7,0.6-3.2,0.6-4.8c-0.4,1.7-1.9,3.2-3.5,3.3c-1.7,0.2-3.5-0.7-4.4-2.2
							C330.8,107.7,332.5,104,332.8,100.5z"/>
						<g>
							<path class="st16" d="M338,62.7c0,0,1.1,0.9,3,1.7c2,0.7,5,1.3,8.2,0.2c3.2-1.1,5-3.5,6.1-5.4c0.9-1.9,1.3-3.3,1.3-3.2
								c0,0,0,0.4-0.2,0.9s-0.4,1.5-0.9,2.4c-0.6,0.9-1.1,2-2.2,3.2c-1.1,1.1-2.4,2-3.9,2.6c-3.2,1.1-6.5,0.6-8.3-0.4
								c-0.9-0.4-1.7-0.9-2.2-1.3C338.2,63.1,338,62.7,338,62.7z"/>
						</g>
						<g>
							<path class="st16" d="M338.6,58.8c0,0,0.7,0.2,2.2,0.2c1.3,0,3.2-0.2,5-0.7c1.9-0.7,3.3-1.9,4.3-2.8c0.9-0.9,1.5-1.7,1.5-1.5
								c0,0-0.4,0.7-1.3,1.9c-0.9,0.9-2.4,2.2-4.3,3c-2,0.7-3.9,0.9-5.2,0.7C339.3,59.2,338.6,58.8,338.6,58.8z"/>
						</g>
						<g>
							<path class="st16" d="M338,60.5c0.2,0,0.9,0.7,2,1.3c1.1,0.6,2.2,0.7,2.2,0.9s-1.1,0.2-2.4-0.4
								C338.4,61.6,337.8,60.7,338,60.5z"/>
						</g>
						<g>
							<path class="st16" d="M338.8,114c0,0,0-0.2,0-0.6s0.4-0.9,0.9-1.5c0.6-0.4,1.3-0.9,1.7-1.9s0.6-2-0.2-3.2
								c-0.4-0.6-0.9-0.9-1.5-1.1c-0.7-0.4-1.3-0.9-1.7-1.7c-0.2-0.4-0.2-0.7-0.2-1.1c0-0.4,0.2-0.7,0.4-1.3
								c0.4-0.7,0.7-1.5,1.3-2.2c0.9-1.5,1.3-3.2,1.1-5c-0.2-1.9-0.7-3.5-2-5c-0.6-0.7-1.3-1.7-1.3-2.8c0-1.1,0.6-1.9,1.1-2.8
								c0.6-0.7,1.1-1.5,1.7-2c0.6-0.7,0.7-1.5,0.7-2.2s-0.6-1.5-0.9-2c-0.6-0.6-0.9-1.3-1.3-2c-0.6-1.5-0.6-3,0.2-4.3
								c0.7-1.1,1.9-1.7,2.6-2.2c0.9-0.6,1.3-1.3,1.7-1.9c0.2-0.7,0.2-1.3,0.2-1.5c0-0.4-0.2-0.6-0.2-0.6s0.2,0.2,0.2,0.6
								c0.2,0.4,0.2,0.9-0.2,1.7c-0.2,0.7-0.7,1.5-1.7,2c-0.7,0.6-1.9,1.1-2.4,2.2c-0.6,1.1-0.7,2.6,0,3.9c0.2,0.7,0.7,1.3,1.3,1.9
								c0.6,0.6,1.1,1.3,1.1,2.2s-0.4,1.9-0.7,2.6c-0.6,0.7-1.1,1.5-1.7,2.2c-0.6,0.7-0.9,1.5-0.9,2.4s0.6,1.7,1.1,2.4
								c1.3,1.5,2,3.3,2.2,5.2c0.2,1.9-0.4,3.7-1.3,5.2c-0.4,0.7-0.9,1.5-1.1,2c-0.2,0.4-0.2,0.7-0.2,1.1c0,0.4,0,0.7,0.2,1.1
								c0.4,0.6,0.7,1.1,1.5,1.5c0.6,0.4,1.1,0.7,1.5,1.3c0.4,0.6,0.6,1.3,0.6,1.9c0,0.6-0.2,1.1-0.4,1.7c-0.2,0.6-0.6,0.9-0.9,1.1
								c-0.4,0.4-0.7,0.6-0.9,0.7c-0.6,0.4-0.7,0.9-0.9,1.3C338.9,113.9,338.8,114,338.8,114z"/>
						</g>
						<g>
							<path class="st16" d="M337.8,61.8c0,0,0.9,1.1,2.8,2c0.9,0.4,2.2,0.7,3.7,0.7c1.5,0,3-0.4,4.4-1.1c1.5-0.7,2.6-2,3.2-3.3
								s0.9-2.6,1.5-3.5c0.4-1.1,0.9-1.9,1.3-2.2c0.2-0.2,0.4-0.4,0.6-0.6c0.2-0.2,0.2-0.2,0.2-0.2s-0.9,0.9-1.7,3.2
								c-0.4,1.1-0.7,2.2-1.3,3.7c-0.6,1.3-1.7,2.8-3.3,3.5c-1.5,0.7-3.2,1.1-4.6,1.1s-2.8-0.4-3.9-0.9c-0.9-0.6-1.7-1.1-2.2-1.7
								C338,62.2,337.8,61.8,337.8,61.8z"/>
						</g>
					</g>
				</g>
			</g>
		</g>
	</g>
	<g>
		<g>
			<g>
				<g>
					<g>
						<path class="st11" d="M160.7,347.4l-1.7,7c0,0-11.5,15-15,14.3c-2.4-0.6,0.6-4.4,5-15.8l0.9-4.6L160.7,347.4z"/>
					</g>
				</g>
			</g>
			<g>
				<g>
					<g>
						<path class="st13" d="M143.4,366.3c0,0,0.2,0.4,0.6,0.6c0.6,0.2,1.3,0.4,2.2-0.4c1.5-1.3,3.5-3.2,5.7-5.4
							c2.2-2.2,3.9-4.4,5.2-5.9c0.6-0.7,1.1-1.3,1.5-1.9c0.2-0.2,0.2-0.4,0.4-0.6s0.2-0.2,0.2-0.2s0,0-0.2,0.2s-0.2,0.4-0.4,0.6
							c-0.4,0.6-0.7,1.1-1.5,1.9c-1.3,1.7-3,3.7-5.2,6.1c-2.2,2.2-4.3,4.3-5.7,5.4c-0.4,0.4-0.9,0.4-1.3,0.6c-0.4,0-0.7,0-1.1-0.2
							c-0.2-0.2-0.4-0.4-0.6-0.4C143.4,366.5,143.4,366.3,143.4,366.3z"/>
					</g>
				</g>
			</g>
			<g>
				<g>
					<g>
						<g>
							<path class="st13" d="M145.1,361.6c0,0,0.4-0.2,0.9-0.2c0.6,0,1.5,0.2,2.2,0.7c0.7,0.6,1.3,1.1,1.7,1.7
								c0.2,0.6,0.2,0.9,0.2,0.9s-0.2-0.4-0.4-0.9c-0.2-0.6-0.7-1.1-1.5-1.5c-0.7-0.4-1.5-0.7-2-0.7
								C145.5,361.5,145.1,361.6,145.1,361.6z"/>
						</g>
					</g>
				</g>
			</g>
			<g>
				<g>
					<g>
						<path class="st13" d="M156,358.1c0,0,0-0.2-0.2-0.4c0-0.2-0.2-0.6-0.2-0.9c-0.2-0.7,0-2,0.6-3.2c0.6-1.1,1.5-1.9,2.4-2.2
							c0.4-0.2,0.7-0.2,0.9-0.4c0.2,0,0.4,0,0.4,0s-0.6,0-1.3,0.4c-0.7,0.4-1.7,1.1-2.2,2.2c-0.6,1.1-0.7,2.2-0.6,3.2
							C155.8,357.6,156,358.1,156,358.1z"/>
					</g>
				</g>
			</g>
			<g>
				<g>
					<g>
						<path class="st13" d="M159.9,348.5c0,0-0.2,0.9-0.4,2.2c-0.2,1.3-0.6,2.2-0.6,2.2s0.2-0.9,0.4-2.2
							C159.5,349.4,159.9,348.5,159.9,348.5z"/>
					</g>
				</g>
			</g>
			<g>
				<g>
					<g>
						<path class="st13" d="M148.6,353.9c0,0,0.7-0.2,1.5,0c0.7,0.2,1.3,0.6,1.3,0.6s-0.6-0.2-1.3-0.4
							C149.2,353.9,148.6,353.9,148.6,353.9z"/>
					</g>
				</g>
			</g>
			<g>
				<g>
					<g>
						<path class="st13" d="M148.4,355c0,0,0.6-0.2,1.3,0c0.7,0.2,1.1,0.6,1.1,0.6s-0.6-0.2-1.1-0.4C149,355,148.4,355.2,148.4,355z
							"/>
					</g>
				</g>
			</g>
			<g>
				<g>
					<g>
						<path class="st13" d="M147.5,356.5c0,0,0.6-0.4,1.3-0.2c0.7,0.2,1.1,0.7,1.1,0.7s-0.6-0.4-1.1-0.6
							C148.1,356.5,147.5,356.6,147.5,356.5z"/>
					</g>
				</g>
			</g>
			<g>
				<g>
					<g>
						<path class="st13" d="M149.4,353.3c0,0,0.6-0.2,1.3-0.4c0.4-0.2,0.9-0.4,1.3-0.7c0.2-0.2,0.6-0.4,0.7-0.6
							c0.2-0.2,0.6-0.4,0.6-0.7s-0.4-0.4-0.6-0.4c-0.2,0-0.6,0.2-0.7,0.6c-0.4,0.4-0.7,0.7-1.1,1.1c-0.6,0.7-0.9,1.1-0.9,1.1
							s0-0.2,0.2-0.4c0.2-0.2,0.4-0.6,0.6-0.9c0.4-0.4,0.6-0.7,1.1-1.1c0.2-0.2,0.4-0.4,0.7-0.6s0.9,0,0.9,0.6
							c0,0.4-0.4,0.7-0.6,0.9c-0.2,0.2-0.6,0.4-0.7,0.6c-0.6,0.4-0.9,0.6-1.5,0.6c-0.4,0.2-0.7,0.2-0.9,0.2
							C149.5,353.3,149.4,353.3,149.4,353.3z"/>
					</g>
				</g>
			</g>
			<g>
				<g>
					<g>
						<path class="st13" d="M149.9,353.1c0,0,0-0.6-0.2-1.3c0-0.4-0.2-0.9-0.4-1.3c-0.2-0.2-0.2-0.6-0.4-0.7
							c-0.2-0.2-0.4-0.4-0.7-0.2c-0.2,0.2-0.2,0.4-0.2,0.7c0,0.2,0.2,0.6,0.2,0.7c0.2,0.6,0.6,0.9,0.7,1.1
							C149.5,352.9,149.9,353.1,149.9,353.1s-0.2,0-0.4-0.2s-0.4-0.4-0.7-0.6c-0.4-0.4-0.6-0.7-0.7-1.1c-0.2-0.2-0.2-0.6-0.2-0.7
							c0-0.4,0-0.7,0.4-0.9s0.7,0,0.9,0.4c0.2,0.2,0.4,0.6,0.4,0.7c0.2,0.6,0.4,0.9,0.4,1.3s0,0.7,0,0.9
							C149.9,353.1,149.9,353.1,149.9,353.1z"/>
					</g>
				</g>
			</g>
			<g>
				<g>
					<g>
						<path class="st18" d="M159,354.4l0.7-3.3c0,0-2.8,0.6-3.5,2.6c-0.7,2-0.6,3.7-0.6,3.7l-6.1,6.7c0,0-1.5-3-4.3-2.2
							c0,0-2.2,4.8-2,6.1c0,1.3,1.5,1.1,2,0.9c0.2-0.2,3-1.7,5.6-4.3C153.8,360.7,157.3,356.5,159,354.4z"/>
					</g>
				</g>
			</g>
		</g>
		<g>
			<g>
				<g>
					<g>
						<g>
							<g>
								<g>
									<path class="st11" d="M215.9,351.8v-9.5l-17.6-0.2l-0.2,13.7h1.1c4.8,0.4,24.6,1.3,28,0.4
										C230.7,355.3,215.9,351.8,215.9,351.8z"/>
								</g>
							</g>
						</g>
					</g>
				</g>
				<g>
					<g>
						<g>
							<g>
								<g>
									<path class="st18" d="M204.4,355.9c-0.2-1.5-1.1-2.8-2.2-3.7c-1.1-0.9-2.6-1.5-4.1-1.3v5H204.4z"/>
								</g>
							</g>
						</g>
					</g>
				</g>
			</g>
			<g>
				<g>
					<g>
						<g class="st19">
							<g>
								<path class="st18" d="M223.1,353.9c0,0,5.2,1.5,4.6,2.4c-0.7,0.9-20.8,0.6-29.7-0.4v-0.4l23.4,0.6
									C221.4,356.1,222,353.9,223.1,353.9z"/>
							</g>
						</g>
					</g>
				</g>
			</g>
			<g>
				<g>
					<g>
						<g>
							<g>
								<path class="st13" d="M197.7,355.5c0,0,0.2,0,0.4,0c0.2,0,0.6,0,0.9,0c0.9,0,1.9,0.2,3.2,0.2c2.8,0.2,6.5,0.2,10.6,0.4
									c4.1,0,7.8,0,10.6,0c1.3,0,2.4,0,3.2,0c0.4,0,0.6,0,0.9,0c0.2,0,0.4,0,0.4,0s-0.2,0-0.4,0c-0.2,0-0.6,0-0.9,0
									c-0.9,0-1.9,0-3.2,0c-2.8,0-6.5,0-10.6,0s-7.8-0.2-10.6-0.2c-1.3,0-2.4,0-3.2-0.2c-0.4,0-0.6,0-0.9,0
									C197.9,355.5,197.7,355.5,197.7,355.5z"/>
							</g>
						</g>
					</g>
				</g>
			</g>
			<g>
				<g>
					<g>
						<g>
							<g>
								<path class="st13" d="M221.4,356.3c0,0,0.2-0.7,0.6-1.5c0.6-0.7,1.1-1.1,1.1-1.3c0,0-0.7,0.2-1.3,1.1
									C221.4,355.5,221.4,356.3,221.4,356.3z"/>
							</g>
						</g>
					</g>
				</g>
			</g>
			<g>
				<g>
					<g>
						<g>
							<g>
								<path class="st13" d="M216.3,353.7c0,0,0.4-0.2,0.6-0.7c0.2-0.4,0.4-0.7,0.4-0.7s-0.4,0.2-0.6,0.7
									C216.4,353.3,216.3,353.7,216.3,353.7z"/>
							</g>
						</g>
					</g>
				</g>
			</g>
			<g>
				<g>
					<g>
						<g>
							<g>
								<path class="st13" d="M215,352.9c0,0,0.4-0.2,0.6-0.4c0.4-0.2,0.6-0.6,0.6-0.6s-0.4,0.2-0.6,0.4
									C215.1,352.6,215,352.7,215,352.9z"/>
							</g>
						</g>
					</g>
				</g>
			</g>
			<g>
				<g>
					<g>
						<g>
							<g>
								<path class="st13" d="M214,351.3c0,0,0.4,0.2,0.9,0.2c0.6,0,0.9,0,0.9,0s-0.4-0.2-0.9-0.2C214.4,351.1,214,351.1,214,351.3z
									"/>
							</g>
						</g>
					</g>
				</g>
			</g>
			<g>
				<g>
					<g>
						<g>
							<g>
								<path class="st13" d="M213.7,350c0,0,0.4,0.2,1.1,0.4c0.6,0,1.1,0,1.1-0.2c0,0-0.6,0-1.1,0C214.2,350.2,213.8,350,213.7,350
									z"/>
							</g>
						</g>
					</g>
				</g>
			</g>
			<g>
				<g>
					<g>
						<g>
							<g>
								<path class="st13" d="M217,352.2c0,0,0.4,0,1.1,0c0.4,0,0.7-0.2,1.3-0.2c0.2,0,0.4-0.2,0.7-0.2c0.2,0,0.2-0.2,0.4-0.4
									c0-0.2,0-0.4-0.2-0.4c-1.1-0.6-2.2,0-2.6,0.6c-0.2,0.4-0.4,0.6-0.4,0.7c0,0.2,0,0.4,0,0.4s0-0.4,0.6-0.9
									c0.2-0.2,0.6-0.6,0.9-0.6c0.4-0.2,0.9-0.2,1.3,0.2c0.2,0.2,0.2,0.4-0.2,0.4c-0.2,0.2-0.4,0.2-0.6,0.2
									c-0.4,0.2-0.7,0.2-1.1,0.4C217.4,352,217,352,217,352.2z"/>
							</g>
						</g>
					</g>
				</g>
			</g>
			<g>
				<g>
					<g>
						<g>
							<g>
								<path class="st13" d="M217.2,352.2c0,0,0.2-0.2,0.2-0.7c0-0.2-0.2-0.6-0.4-0.7c-0.2-0.2-0.4-0.6-0.9-0.6
									c-0.2,0-0.4,0.4-0.4,0.6s0.2,0.4,0.2,0.6c0.2,0.4,0.4,0.6,0.6,0.7C216.8,352,217.2,352.2,217.2,352.2s-0.4-0.2-0.6-0.6
									c-0.2-0.2-0.4-0.4-0.6-0.7c-0.2-0.2-0.2-0.7,0-0.7c0.4,0,0.6,0.2,0.7,0.6c0.2,0.2,0.2,0.6,0.4,0.7
									C217.4,351.8,217.2,352.2,217.2,352.2z"/>
							</g>
						</g>
					</g>
				</g>
			</g>
			<g>
				<g>
					<g>
						<g>
							<g>
								<path class="st13" d="M198.3,350.7c0,0,0.6,0,1.3,0c0.7,0.2,1.9,0.4,2.8,1.3c0.9,0.7,1.5,1.9,1.7,2.6
									c0.2,0.7,0.4,1.3,0.4,1.3s0-0.2,0-0.4c0-0.2,0-0.6-0.2-0.9c-0.2-0.7-0.7-1.9-1.7-2.6c-0.9-0.7-2-1.1-3-1.1
									c-0.4,0-0.7,0-0.9,0C198.3,350.7,198.3,350.7,198.3,350.7z"/>
							</g>
						</g>
					</g>
				</g>
			</g>
			<g>
				<g>
					<g>
						<g>
							<g>
								<path class="st13" d="M200.1,343.5c0,0-0.2,1.7-0.2,3.5c0,2,0,3.7,0,3.7s0.2-1.7,0.2-3.5
									C200.1,345.1,200.1,343.5,200.1,343.5z"/>
							</g>
						</g>
					</g>
				</g>
			</g>
			<g>
				<g>
					<g>
						<g>
							<g>
								<path class="st13" d="M206.6,354.2c0,0,1.1,0.2,2.6,0.4c1.5,0,2.6-0.2,2.6-0.2s-1.1,0-2.6,0
									C207.7,354.2,206.6,354.2,206.6,354.2z"/>
							</g>
						</g>
					</g>
				</g>
			</g>
			<g>
				<g>
					<g>
						<g>
							<g>
								<path class="st13" d="M203.3,354.2c0,0,0,0.2,0.2,0.6c0.2,0.2,0.2,0.6,0.2,0.6s0.2-0.2,0-0.6
									C203.5,354.2,203.3,354,203.3,354.2z"/>
							</g>
						</g>
					</g>
				</g>
			</g>
			<g>
				<g>
					<g>
						<g>
							<g>
								<path class="st13" d="M202,352.6c0,0,0,0.2,0.2,0.4c0.2,0.2,0.4,0.4,0.4,0.2c0,0,0-0.2-0.2-0.4
									C202.2,352.6,202,352.6,202,352.6z"/>
							</g>
						</g>
					</g>
				</g>
			</g>
			<g>
				<g>
					<g>
						<g>
							<g>
								<path class="st13" d="M200.1,351.8c0,0,0.2,0,0.6,0.2c0.2,0,0.4,0.2,0.6,0.2c0,0-0.2-0.4-0.4-0.4
									C200.3,351.6,200.1,351.6,200.1,351.8z"/>
							</g>
						</g>
					</g>
				</g>
			</g>
			<g>
				<g>
					<g>
						<g>
							<g>
								<path class="st13" d="M198.8,351.4c0,0,0,0.2,0.2,0.2c0.2,0,0.4,0,0.4,0s0-0.2-0.2-0.2C198.8,351.3,198.8,351.3,198.8,351.4
									z"/>
							</g>
						</g>
					</g>
				</g>
			</g>
		</g>
		<g>
			<g>
				<g>
					<g>
						<g>
							<polygon class="st10" points="227.7,170.6 220.9,347 193.5,347.6 198.1,194.8 167.3,348.7 141.2,348.7 174.7,170.9 							
								"/>
						</g>
					</g>
				</g>
			</g>
			<g>
				<g>
					<path class="st16" d="M204.4,177.1c0,0,0,1.1-0.4,3c-0.2,1.9-0.6,4.3-1.1,7c-0.2,1.3-0.4,2.6-0.7,3.9c-0.4,1.1-1.1,2.2-1.9,2.8
						c-0.7,0.6-1.5,0.7-2,0.9c-0.6,0-0.7,0-0.7,0c0-0.2,1.3,0,2.6-1.1c0.7-0.6,1.3-1.5,1.7-2.6c0.4-1.1,0.6-2.4,0.7-3.7
						c0.4-2.8,0.9-5.2,1.3-6.9C204,178.2,204.4,177.1,204.4,177.1z"/>
				</g>
			</g>
			<g>
				<g>
					<path class="st16" d="M198.6,178c0,0-0.2,0.4,0,0.7c0,0.2,0.2,0.6,0.4,0.6c0.2,0.2,0.6,0,0.7-0.2c0.2-0.2,0.4-0.6,0.2-0.7
						c0-0.2-0.4-0.4-0.6-0.6C199,177.6,198.6,177.8,198.6,178c0-0.2,0.2-0.6,0.9-0.4c0.4,0,0.7,0.2,0.9,0.7c0.2,0.4,0,0.9-0.4,1.3
						c-0.4,0.4-0.9,0.4-1.3,0.2c-0.4-0.2-0.6-0.6-0.6-0.9C198.3,178.2,198.6,177.8,198.6,178z"/>
				</g>
			</g>
			<g>
				<g>
					<path class="st16" d="M184,180.4c-0.2,0-0.6-1.1-0.4-2.6c0.2-1.5,0.7-2.4,0.9-2.4c0.2,0-0.2,1.1-0.4,2.4
						C184,179.3,184.2,180.4,184,180.4z"/>
				</g>
			</g>
			<g>
				<g>
					<path class="st16" d="M187.3,180.2c-0.2,0-0.6-1.1-0.4-2.6c0.2-1.5,0.6-2.6,0.7-2.6s-0.2,1.1-0.2,2.6
						C187.3,179.1,187.3,180.2,187.3,180.2z"/>
				</g>
			</g>
			<g>
				<g>
					<path class="st16" d="M215.5,180.9c-0.2,0,0-1.1,0.2-2.6c0-1.5,0-2.6,0.2-2.6c0.2,0,0.4,1.1,0.4,2.6
						C216.3,179.8,215.7,180.9,215.5,180.9z"/>
				</g>
			</g>
			<g>
				<g>
					<path class="st16" d="M219.2,180.8c-0.2,0,0.4-1.3,0.4-2.8c0.2-1.5-0.2-2.6,0-2.8c0.2,0,0.6,1.1,0.6,2.8
						C220,179.7,219.2,180.8,219.2,180.8z"/>
				</g>
			</g>
		</g>
		<g>
			<g>
				<g>
					<g>
						<g>
							<g>
								<g>
									<g>
										<g>
											<g>
												<path class="st9" d="M189.6,97.2l16.9-1.3c0.2-2,0-9.6,0-9.6s7-1.1,7-8.2s-1.1-23.2-1.1-23.2l0,0
													c-8.2-3.5-17.6-2.4-24.6,3.2l-0.9,0.7L189.6,97.2z"/>
											</g>
										</g>
									</g>
								</g>
								<g>
									<g>
										<g>
											<path class="st15" d="M206.4,86.2c0,0-4.4,0.4-9.3-2.6c0,0,2.2,5,9.3,4.4V86.2z"/>
										</g>
									</g>
								</g>
							</g>
						</g>
					</g>
					<g>
						<g>
							<g>
								<g>
									<path class="st9" d="M187.7,66.2c-0.2,0-4.8-1.5-4.6,3.3c0.2,4.8,5,3.7,5,3.5C187.9,72.9,187.7,66.2,187.7,66.2z"/>
								</g>
							</g>
						</g>
						<g>
							<g>
								<g>
									<g>
										<path class="st15" d="M186.4,71.2L186.4,71.2c-0.4,0.2-0.6,0.4-0.7,0.2c-0.6-0.2-0.9-0.9-0.9-1.9c0-0.4,0-0.9,0.2-1.3
											s0.4-0.6,0.6-0.7c0.2,0,0.4,0,0.6,0.2c0,0.2,0,0.2,0,0.2s0.2,0,0-0.4c0-0.2,0-0.2-0.2-0.4c-0.2,0-0.4-0.2-0.6-0.2
											c-0.4,0-0.7,0.4-0.9,0.7c-0.2,0.4-0.2,0.9-0.2,1.3c0,0.9,0.6,1.9,1.3,2c0.4,0,0.6,0,0.7-0.2
											C186.4,71.4,186.4,71.2,186.4,71.2z"/>
									</g>
								</g>
							</g>
						</g>
					</g>
					<g>
						<g>
							<g>
								<g>
									<g>
										<g>
											<g>
												<g>
													<g>
														<path class="st10" d="M210.1,65.9c0,0.6-0.4,0.9-0.9,0.9c-0.6,0-0.9-0.4-1.1-0.9c0-0.6,0.4-0.9,0.9-0.9
															C209.6,64.9,210.1,65.3,210.1,65.9z"/>
													</g>
												</g>
											</g>
											<g>
												<g>
													<g>
														<g>
															<path class="st10" d="M211.1,64.9c-0.2,0.2-0.9-0.4-2-0.4c-1.1,0-1.9,0.6-2,0.4c0,0,0-0.4,0.4-0.6
																c0.4-0.2,0.9-0.6,1.7-0.6c0.7,0,1.3,0.2,1.5,0.6C211.1,64.6,211.1,64.8,211.1,64.9z"/>
														</g>
													</g>
												</g>
											</g>
										</g>
										<g>
											<g>
												<g>
													<g>
														<path class="st10" d="M199.2,65.9c0,0.6-0.4,0.9-0.9,0.9c-0.6,0-0.9-0.4-1.1-0.9c0-0.6,0.4-0.9,0.9-0.9
															C198.8,64.9,199.2,65.3,199.2,65.9z"/>
													</g>
												</g>
											</g>
											<g>
												<g>
													<g>
														<g>
															<path class="st10" d="M200.5,65.1c-0.2,0.2-0.9-0.4-2-0.4s-1.9,0.6-2,0.4c0,0,0-0.4,0.4-0.6c0.4-0.2,0.9-0.6,1.7-0.6
																s1.3,0.2,1.5,0.6C200.3,64.8,200.5,64.9,200.5,65.1z"/>
														</g>
													</g>
												</g>
											</g>
										</g>
										<g>
											<g>
												<g>
													<g>
														<path class="st10" d="M204.4,73.1c0,0,0.7-0.2,1.7-0.4c0.2,0,0.6,0,0.6-0.2c0-0.2,0-0.6-0.2-0.7
															c-0.2-0.7-0.6-1.3-0.7-2c-1.1-3-2-5.4-1.9-5.6c0.2,0,1.1,2.4,2.2,5.4c0.2,0.7,0.6,1.5,0.7,2c0.2,0.4,0.4,0.7,0.2,1.1
															c0,0.2-0.2,0.4-0.4,0.4c-0.2,0-0.4,0-0.6,0C204.9,73.1,204.4,73.1,204.4,73.1z"/>
													</g>
												</g>
											</g>
										</g>
										<g>
											<g>
												<g>
													<g>
														<path class="st10" d="M201.2,73.8c0.2,0,0.2,1.1,1.1,2c0.9,0.9,2.2,0.7,2.2,0.9c0,0-0.4,0.2-0.7,0.2
															c-0.6,0-1.3-0.2-1.9-0.7c-0.6-0.6-0.9-1.1-0.9-1.7C200.9,74.2,201.1,73.8,201.2,73.8z"/>
													</g>
												</g>
											</g>
										</g>
									</g>
								</g>
							</g>
							<g>
								<g>
									<g>
										<path class="st10" d="M200.7,60.9c-0.2,0.4-1.1,0.2-2.4,0.4c-1.3,0.2-2.2,0.6-2.4,0.2c0-0.2,0.2-0.4,0.6-0.7
											c0.4-0.4,1.1-0.6,1.9-0.6s1.5,0,1.9,0.2C200.5,60.5,200.7,60.7,200.7,60.9z"/>
									</g>
								</g>
							</g>
							<g>
								<g>
									<g>
										<path class="st10" d="M210.7,61.8c-0.2,0.2-0.9,0-1.9,0s-1.7,0.2-1.9,0c0-0.2,0-0.4,0.4-0.6c0.4-0.2,0.9-0.4,1.5-0.4
											c0.6,0,1.1,0.2,1.5,0.6C210.7,61.4,210.7,61.6,210.7,61.8z"/>
									</g>
								</g>
							</g>
						</g>
					</g>
				</g>
				<g>
					<g>
						<path class="st10" d="M215.9,50.5c0-0.9-0.2-1.9-0.9-2.4c-0.7-0.6-1.9-0.6-2.4,0.2c0.4-1.1-0.6-2.6-1.9-2.6
							c-1.1,0-2,0.7-3.2,1.1c-1.1,0.4-2.2,0-3.3-0.4c-1.1-0.4-2-0.9-3.2-1.3c-2.2-0.7-4.6-0.7-6.9,0.2c-2,0.9-3.9,2.8-4.6,5
							c-1.5-0.6-3.3,0.4-4.3,1.7c-0.9,1.3-1.1,3-0.9,4.6c0.2,1.1,0.4,2,0.7,3.2v0.2c0,3.9,0.6,8.3,2.2,8.5c3,0,2.2-5.4,2.2-5.4
							c3.5-1.3,2.2-6.7,3.2-7.4c0.9-0.7,2.8-2.6,10.2,1.1c2.8,1.5,6.7,1.5,8.7,0.9h0.2l0,0l0,0c0.7-0.2,1.3-0.4,1.9-0.7
							c0.7-0.4,1.3-0.9,1.5-1.7c0.4-0.7,0.2-1.7-0.4-2.2C215.3,52.1,215.7,51.4,215.9,50.5z"/>
					</g>
				</g>
			</g>
			<g>
				<g>
					<path class="st10" d="M202.7,65.9c0,0,0-0.4-0.2-1.1c-0.2-0.6-0.6-1.7-1.7-2.2c-0.9-0.7-2.4-1.1-3.9-0.6
						c-1.5,0.6-2.8,2-2.8,3.9s1.3,3.3,2.8,3.9c1.5,0.6,3,0.2,3.9-0.6c0.9-0.7,1.5-1.7,1.7-2.2C202.5,66.2,202.5,65.9,202.7,65.9
						c0,0,0,0.2,0,0.4c0,0.2,0,0.4,0,0.7c-0.2,0.7-0.6,1.7-1.7,2.6c-0.9,0.7-2.6,1.3-4.3,0.7c-1.7-0.6-3.2-2.2-3-4.3
						c0-2,1.5-3.7,3-4.3c1.7-0.6,3.3-0.2,4.3,0.7c1.1,0.7,1.5,1.9,1.7,2.6C202.7,65.5,202.7,65.7,202.7,65.9
						C202.7,65.7,202.7,65.9,202.7,65.9z"/>
				</g>
				<g>
					<path class="st10" d="M214.4,65.9c0,0,0-0.4-0.2-1.1c-0.2-0.6-0.6-1.7-1.7-2.2c-0.9-0.7-2.4-1.1-3.9-0.6
						c-1.5,0.6-2.8,2-2.8,3.9s1.3,3.3,2.8,3.9c1.5,0.6,3,0.2,3.9-0.6c0.9-0.7,1.5-1.7,1.7-2.2C214.4,66.2,214.4,65.9,214.4,65.9
						s0,0.2,0,0.4c0,0.2,0,0.4,0,0.7c-0.2,0.7-0.6,1.7-1.7,2.6c-0.9,0.7-2.6,1.3-4.3,0.7c-1.7-0.6-3.2-2.2-3-4.3c0-2,1.5-3.7,3-4.3
						c1.7-0.6,3.3-0.2,4.3,0.7c1.1,0.7,1.5,1.9,1.7,2.6C214.4,65.5,214.4,65.7,214.4,65.9C214.4,65.7,214.4,65.9,214.4,65.9z"/>
				</g>
				<g>
					<path class="st10" d="M205.9,65.5c0,0.2-0.7,0-1.7,0s-1.7,0.4-1.7,0.2s0.6-0.6,1.7-0.6C205.3,64.9,206.1,65.5,205.9,65.5z"/>
				</g>
				<g>
					<path class="st10" d="M193.8,65.5c0,0.2-1.3,0.4-3.2,0.4c-1.7,0.2-3.2,0-3.2,0c0-0.2,1.3-0.4,3.2-0.4
						C192.5,65.3,193.8,65.3,193.8,65.5z"/>
				</g>
			</g>
		</g>
		<g>
			<g>
				<g>
					<g>
						<path class="st9" d="M236.6,121.6l5.6,10l3.3-27.4c0.2-3-0.7-5-1.1-5.7c-0.4-0.7-0.7-1.5-1.3-2.2c-0.7-0.7-1.7-1.9-2.4-2.2
							c-0.9-0.6-0.7-1.9,0.2-1.9c0.9-0.2,3.3,1.3,5.2,3.9c1.9,2.6,2-2.4,2.2-4.3c0.2-1.9,0.7-7.4,1.3-8c0.9-0.6,1.7,0.2,1.5,2
							c-0.2,1.9-0.2,7.4,0.7,7.4s1.3-9.3,1.3-9.3s-0.2-2,0.9-2c2,0,0.9,9.8,0.7,10.7c-0.2,0.7,0.9,0.7,1.1,0c0-0.7,0.2-9.3,2.2-9.5
							c1.7,0-0.9,8.2,0,10c0.9,1.9,1.3-6.5,2.8-6.3c0.6,0,0.9,0.2,0.2,4.8c-0.4,2.6-2,6.1-2.6,11.1l-0.2,1.3
							c-0.2,6.1-1.5,24.5-7,38.5c-3.3,8.5-15,9.6-20,2c-3.3-5.2-8.9-18.7-8.9-18.7L236.6,121.6z"/>
						<g>
							<path class="st15" d="M255.5,100.5c0,0-0.4,0-0.7,0.2c-0.6,0.2-1.1,0.6-1.5,1.3l-0.2,0.4l-0.2-0.4c-0.2-0.6-0.4-0.9-0.7-1.5
								c-0.7-1.1-1.9-1.7-2.6-1.9c-0.7-0.4-1.3-0.2-1.3-0.4c0,0,0.6-0.2,1.5,0.2c0.9,0.2,2,0.7,2.8,1.9c0.4,0.6,0.6,1.1,0.7,1.7
								h-0.4c0.6-0.7,1.3-1.1,1.9-1.3C255.2,100.3,255.5,100.5,255.5,100.5z"/>
						</g>
					</g>
				</g>
				<path class="st11" d="M226.4,101.6l15.9,30l2.8-26.5h14.3l-5.2,37.8c-0.6,4.3-3.5,7.8-7.4,9.3l0,0c-5.2,1.7-12-0.4-14.6-5.2
					l-9.3-15.8L226.4,101.6z"/>
				<g>
					<path class="st10" d="M243.3,144.1c0,0-0.6-0.6-1.1-1.7c-0.6-1.1-1.1-2.8-1.3-4.6c-0.2-1.9,0-3.7,0.4-4.8
						c0.4-1.1,0.7-1.9,0.7-1.9c0.2,0-1.1,3-0.7,6.7C241.6,141.5,243.3,144.1,243.3,144.1z"/>
				</g>
				<g>
					<g>
						<path class="st12" d="M241.8,130.7c-1.5,0.9-2.4,2.6-2.8,4.3c-0.4,1.7-0.4,3.5-0.2,5.2c0,0.6,0.2,1.1,0.4,1.5
							c0.4,0.4,0.9,0.7,1.3,0.6c0.4-0.2,0.6-0.6,0.6-1.1c0-0.6-0.2-0.7-0.4-1.3c-0.9-3-0.4-6.3,1.3-8.9"/>
					</g>
				</g>
				<g>
					<g>
						<g>
							<g>
								<path class="st11" d="M181.4,94.6c2.4-0.4,4.6-1.3,7.4-1.5l0,0c5.9,1.9,12,1.9,18,0c0.7,0,1.7,0.2,3,0.4
									c7.8,0.9,10.9,2.6,16.5,8.2l-0.6,31.7c0,0,1.9,36.1,1.7,41.9H174v-24.5v-6.7l-17.6,6.5l1.7-9.3c0,0,8-30.6,9.1-34.8
									C168.4,101.4,173.8,96.1,181.4,94.6z"/>
							</g>
						</g>
						<g>
							<path class="st11" d="M164.4,141.8l25.8-6.7l7.4,12l-26.1,10.9c-1.3,0.6-2.8,0.9-4.3,0.9l0,0c-4.3,0-8.2-2.6-9.8-6.5
								l-0.7-1.9L164.4,141.8z"/>
						</g>
						<g>
							<g>
								<path class="st10" d="M177.7,139.3c-0.2,0-0.2-4.6-0.2-10.6c0-5.7,0.2-10.6,0.2-10.6c0.2,0,0.2,4.6,0.2,10.6
									C178.1,134.4,177.9,139.3,177.7,139.3z"/>
							</g>
						</g>
					</g>
				</g>
				<g>
					<g>
						<path class="st12" d="M173.6,157.2c0.7,1.3,2,2.4,3.5,3.2c3.2,1.7,7.2,1.7,10.6,0.6c3.5-1.1,6.5-3.3,9.5-5.6
							c3.7-3,7.2-6.5,10.4-10.2c0.2-0.2,0.4-0.6,0.4-0.9c-0.2-0.6-0.9-0.6-1.5-0.6c-5.4,0.9-10.2,3.3-15,5.7
							C185.7,152.4,179.7,155,173.6,157.2"/>
					</g>
				</g>
				<g>
					<path class="st20" d="M224.2,121.3L224.2,121.3c-0.2,0.4-0.4,0.6-0.6,0.9c-0.2,0.4-0.4,0.7-0.6,1.1c-0.4,0.4-0.6,0.9-1.1,1.3
						c-0.7,0.9-2,2-3.5,3c-1.5,0.9-3.5,1.9-5.7,2.2c-2.2,0.4-4.8,0.4-7.4-0.6c-2.6-0.7-5.2-2.4-7.2-4.6c-2-2.2-3.9-5-4.4-8.3
						c-0.4-1.7-0.4-3.3,0-5c0.4-1.7,1.1-3.3,2.2-4.8c1.1-1.5,2.6-2.4,4.3-3c0.7-0.2,1.7-0.4,2.6-0.2s1.7,0.6,2.4,1.1
						c0.6,0.6,0.9,1.5,1.1,2.4c0,0.9-0.4,1.7-0.7,2.4c-0.9,1.5-2.4,2-3.9,2.4c-3,0.7-5.9,0.6-8.5-0.2c-2.6-0.7-4.8-1.9-6.7-3.3
						c-3.5-3-5.2-6.5-5.9-8.9c-0.7-2.4-0.7-3.9-0.7-3.9s0,0,0,0.2c0,0.2,0,0.4,0.2,0.7c0.2,0.7,0.4,1.7,0.7,2.8
						c0.7,2.4,2.4,5.9,5.9,8.7c1.9,1.5,4.1,2.6,6.7,3.3s5.6,0.7,8.3,0.2c1.5-0.4,3-1.1,3.7-2.4c0.4-0.6,0.7-1.3,0.7-2
						c0-0.7-0.4-1.5-0.9-2c-0.6-0.6-1.3-0.9-2-0.9c-0.7-0.2-1.7,0-2.4,0.2c-1.5,0.6-3,1.5-4.1,3c-1.1,1.3-1.9,3-2,4.6
						c-0.4,1.7-0.2,3.3,0,4.8c0.6,3.2,2.2,5.9,4.3,8.2s4.6,3.7,7,4.4c2.6,0.9,5,0.9,7.2,0.6c2.2-0.4,4.1-1.1,5.7-2.2
						c1.5-0.9,2.8-2,3.5-3C223.9,122.6,224.2,121.3,224.2,121.3z"/>
				</g>
				<g>
					<path class="st20" d="M226.4,156.3c0,0-0.2-1.3-1.5-3.3c-0.6-0.9-1.5-2-2.8-3.2c-1.3-0.9-3-1.9-5-2.2c-2-0.4-4.3-0.4-6.7,0.4
						c-1.1,0.4-2.4,0.7-3.5,1.3s-2.2,1.3-3.3,2.2c-0.9,0.9-1.7,2.2-1.9,3.5c-0.2,1.3,0.4,2.8,1.5,3.5c0.6,0.4,1.3,0.6,2,0.6
						s1.3-0.6,1.9-1.1c0.9-1.1,1.5-2.6,1.9-4.1c0.7-3,0.4-6.1-0.6-8.9c-0.9-2.8-2.6-5.2-4.6-7c-2-1.9-4.3-3.2-6.7-3.9
						c-2.2-0.7-4.4-1.1-6.7-1.1c-4.1,0-7.2,1.3-9.3,2.4c-0.9,0.6-1.7,1.1-2.2,1.3c-0.2,0.2-0.4,0.4-0.6,0.4c-0.2,0-0.2,0.2-0.2,0.2
						s0.9-0.9,3-2c2-1.1,5.2-2.6,9.5-2.6c2,0,4.4,0.2,6.7,1.1c2.4,0.7,4.6,2,6.7,3.9c2,1.9,3.9,4.3,4.8,7.2c0.9,2.8,1.3,6.1,0.6,9.3
						c-0.4,1.5-0.9,3.2-1.9,4.4c-0.6,0.6-1.3,1.1-2,1.3s-1.7-0.2-2.2-0.6c-0.7-0.4-1.1-1.1-1.5-1.9c-0.4-0.7-0.4-1.5-0.2-2.2
						c0.2-1.5,0.9-2.8,2-3.7c0.9-0.9,2.2-1.7,3.3-2.2c1.1-0.6,2.4-0.9,3.5-1.3c2.4-0.6,4.8-0.6,6.9-0.2c2,0.4,3.9,1.3,5.2,2.2
						c1.3,1.1,2.2,2.2,2.8,3.2c0.6,0.9,0.9,1.9,1.1,2.4C226.6,155.9,226.6,156.1,226.4,156.3L226.4,156.3z"/>
				</g>
				<g>
					<path class="st20" d="M177.5,126.1c0,0-0.2,0.2-0.4,0.6c-0.4,0.4-0.7,0.7-1.5,1.3c-0.7,0.6-1.5,1.1-2.4,1.5
						c-0.9,0.6-2.2,0.9-3.3,1.1c-2.6,0.6-4.8,0.4-6.5,0c-0.7-0.2-1.5-0.4-1.9-0.4c-0.4-0.2-0.7-0.2-0.7-0.2s0.9,0.2,2.6,0.4
						s3.9,0.4,6.3-0.2c1.3-0.2,2.4-0.6,3.3-1.1c0.9-0.4,1.9-0.9,2.4-1.5C176.8,126.8,177.5,126.1,177.5,126.1z"/>
				</g>
				<g>
					<path class="st20" d="M172.7,157.4c-0.2,0-0.2-1.1-0.9-2.8s-2.6-3.7-5.2-4.4c-2.6-0.9-5.2-0.2-6.9,0.6
						c-1.7,0.7-2.4,1.7-2.4,1.7s0.2-0.2,0.6-0.6c0.4-0.4,0.9-0.9,1.9-1.3c1.7-0.9,4.4-1.7,7.2-0.7c2.8,0.9,4.6,3.2,5.4,4.8
						c0.4,0.9,0.6,1.7,0.6,2C172.7,157,172.7,157.4,172.7,157.4z"/>
				</g>
				<g>
					<path class="st20" d="M229.4,142.6c0,0-0.2-0.4-0.2-0.9c-0.2-0.6-0.2-1.5-0.4-2.4c0-1.1,0-2.2,0.2-3.7c0.2-1.3,0.6-3,1.1-4.4
						s1.3-3,2-4.1c0.7-1.1,1.5-2.2,2.2-3c0.7-0.7,1.3-1.3,1.9-1.7c0.4-0.4,0.7-0.6,0.7-0.6s-0.9,0.9-2.2,2.4c-0.7,0.7-1.5,1.7-2.2,3
						c-0.7,1.1-1.3,2.6-1.9,4.1c-0.6,1.5-0.9,3-1.1,4.3s-0.2,2.6-0.2,3.7C229.2,141.3,229.6,142.6,229.4,142.6z"/>
				</g>
				<g>
					<path class="st20" d="M256.3,125c0,0-0.2,0.2-0.6,0.6c-0.4,0.4-0.9,0.7-1.7,0.9c-1.5,0.6-4.1,0.7-6.5-0.6
						c-1.1-0.6-2-1.7-2.6-2.6c-0.6-0.9-0.7-2-0.9-2.8s-0.2-1.5-0.2-2s0-0.7,0-0.7s0.2,1.1,0.6,2.6c0.2,0.7,0.6,1.7,1.1,2.6
						c0.6,0.9,1.3,1.9,2.4,2.4c2.2,1.1,4.6,1.1,6.1,0.6C255.5,125.5,256.3,124.8,256.3,125z"/>
				</g>
				<g>
					<path class="st20" d="M227.6,103.9c0,0-0.2,0.2-0.6,0.4s-1.1,0.6-2,0.6c-0.9,0.2-2,0.2-3.2-0.2c-1.1-0.2-2.4-0.7-3.5-1.5
						c-2.2-1.7-3.3-4.1-3.5-5.7c-0.2-0.9-0.2-1.7-0.2-2c0-0.6,0.2-0.7,0.2-0.7c0.2,0,0,1.1,0.4,2.8c0.4,1.7,1.5,3.9,3.5,5.4
						c1.1,0.7,2.2,1.3,3.3,1.5c1.1,0.2,2,0.4,3,0.2C226.4,104.4,227.6,103.9,227.6,103.9z"/>
				</g>
				<g>
					<g>
						<path class="st20" d="M199.2,174.8c0,0-0.7-1.5-2.4-3.7c-1.7-2.2-4.3-5-8-6.9c-1.9-0.9-3.7-1.7-5.6-2s-3.3-0.6-4.8-0.6
							c-2.8,0-4.4,0.6-4.4,0.4c0,0,0.4-0.2,1.1-0.4c0.7-0.2,1.9-0.4,3.3-0.4s3.2,0,4.8,0.4c1.9,0.4,3.7,1.1,5.6,2
							c3.9,2,6.5,4.8,8.2,7.2c0.7,1.1,1.3,2.2,1.7,2.8C199.2,174.5,199.4,174.8,199.2,174.8z"/>
					</g>
				</g>
				<g>
					<path class="st10" d="M225,115.3c0.2,0,0.9,13.3,1.7,29.7c0.7,16.3,1.3,29.7,1.3,29.7c-0.2,0-0.9-13.3-1.7-29.7
						C225.5,128.7,225,115.5,225,115.3z"/>
				</g>
			</g>
			<g>
				<g>
					<path class="st9" d="M190.1,135.2c2.6-1.3,3.9-3.2,4.4-3.9c0.4-0.7,0.9-1.5,1.3-2.4c0.4-1.1,0.7-2.4,0.7-3.2
						c0-0.9,1.1-1.5,1.7-0.7c0.6,0.7,0.7,3.5-0.6,6.5c-1.3,3,3.2,0.6,4.8-0.2c1.7-0.9,6.9-3.3,7.4-3c0.9,0.4,0.6,1.7-1.1,2.4
						c-1.7,0.7-6.5,3.5-5.9,4.4c0.4,0.9,8.7-3.5,8.7-3.5s1.7-1.3,2.2-0.2c1.1,1.7-8.2,5.7-9.1,6.1c-0.6,0.2-0.2,1.3,0.6,0.9
						c0.7-0.4,8.2-4.6,9.3-2.8c0.7,1.3-7.6,3.3-8.5,5.2c-1.1,1.9,6.1-2.2,6.9-0.9c0.2,0.6,0.4,0.9-4.1,2.6
						c-2.4,0.9-6.5,1.3-10.9,3.3l-1.1,0.6"/>
				</g>
			</g>
			<g>
				<path class="st10" d="M172.3,157.8c0,0,0.2-0.2,0.6-0.2c0.4-0.2,0.7-0.4,1.5-0.6c1.3-0.6,3.2-1.3,5.4-2.2
					c4.6-1.9,10.7-4.6,18-7.6l-0.2,0.4c-0.7-1.3-1.7-2.6-2.4-3.9c-1.9-2.8-3.5-5.6-5-8.2l0.2,0.2c-6.1,2-11.5,3.7-15.2,4.8
					c-1.9,0.6-3.3,1.1-4.4,1.3c-0.6,0.2-0.9,0.2-1.1,0.4c-0.2,0-0.4,0.2-0.4,0.2s0.2,0,0.4-0.2c0.4-0.2,0.7-0.2,1.1-0.4
					c1.1-0.4,2.6-0.9,4.4-1.5c3.7-1.3,9.1-3,15.2-5h0.2l0.2,0.2c1.7,2.6,3.3,5.2,5.2,8.2c0.7,1.3,1.7,2.6,2.4,3.9l0.2,0.2l-0.2,0.2
					c-7,3-13.3,5.6-18,7.4c-3,0.4-4.8,1.1-6.1,1.7c-0.6,0.2-1.1,0.4-1.5,0.6C172.5,157.6,172.3,157.8,172.3,157.8z"/>
			</g>
			<g>
				<path class="st10" d="M171.6,137.2c0-0.2,1.5-0.6,3.3-0.2c1.9,0.6,3,1.7,2.8,1.7c0,0.2-1.3-0.7-3-1.3
					C173.1,137,171.6,137.4,171.6,137.2z"/>
			</g>
		</g>
	</g>
	<g>
		<path class="st21" d="M481.6,316.1l-76-132.5c16.5-11.7,29.1-28.9,34.5-50c11.9-45.8-15-93.4-60.4-106.9
			c-47.4-14.1-96.9,13.3-110.3,60.6c-13.3,46.7,14.3,96,61,109.3c19.8,5.6,39.8,4.1,57.5-3.2L462.7,327c3,5.4,9.6,7.2,15,4.1l0,0
			C482.8,327.9,484.6,321.2,481.6,316.1z M332.5,189.7c-43.4-12-68.8-56.9-56.9-100.1c12-43.4,56.9-68.8,100.1-56.9
			c43.4,12,68.8,56.9,56.9,100.1C420.7,176.1,375.8,201.7,332.5,189.7z"/>
		<g>
			<path class="st1" d="M305.2,166.3c0,0,0,0-0.2-0.2c-0.2-0.2-0.4-0.4-0.7-0.6c-0.6-0.6-1.5-1.3-2.6-2.6c-2.2-2.2-5-5.7-8-10.4
				c-1.5-2.4-3-5-4.4-8c-1.5-3-2.8-6.1-3.9-9.6c-2.4-7-3.9-15-3.9-23.5s1.3-16.7,3.7-23.5c1.1-3.5,2.4-6.7,3.9-9.8
				c1.5-3,3-5.6,4.4-8c3-4.6,5.7-8.2,8-10.6c0.9-1.1,1.9-2,2.4-2.6c0.2-0.2,0.6-0.6,0.7-0.7c0.2-0.2,0.2-0.2,0.2-0.2s0,0-0.2,0.2
				s-0.4,0.4-0.6,0.7c-0.6,0.6-1.5,1.5-2.4,2.6c-2,2.4-4.8,5.9-7.8,10.6c-1.5,2.4-3,5-4.3,8s-2.6,6.1-3.7,9.6
				c-2.2,7-3.5,15-3.5,23.5c0.2,8.5,1.7,16.5,3.9,23.4c1.1,3.5,2.6,6.7,3.9,9.6c1.5,3,3,5.6,4.4,8c3,4.6,5.7,8.2,8,10.4
				c0.9,1.1,1.9,2,2.4,2.6c0.2,0.4,0.6,0.6,0.6,0.7C305,166.1,305.2,166.3,305.2,166.3z"/>
		</g>
		<g>
			<path class="st1" d="M331.3,41.8c0,0-0.9,0.4-2.4,0.9c-1.5,0.6-3.5,1.3-5.7,2.4c-2.2,1.1-4.1,2-5.4,3c-1.3,0.7-2.2,1.3-2.2,1.3
				s0.7-0.7,2-1.5c1.3-0.9,3.2-2,5.4-3c2.2-1.1,4.3-1.9,5.7-2.2C330.4,42,331.3,41.8,331.3,41.8z"/>
		</g>
	</g>
	<g>
		<g>
			<g>
				<g>
					<path class="st22" d="M268.1,323.1c-1.5,2.2-4.6,1.5-5.9,0.2c-1.5-1.3-2-3.3-2.6-5.2c-1.3-4.3-2.4-8.7-1.5-13.2
						c0.2-1.3,0.7-2.6,1.7-3.5c0.9-0.9,2.4-1.5,3.5-1.1c1.5,0.4,2.4,1.9,3.2,3.3c2,4.1,3.2,8.7,3.2,13.3
						C269.6,319,269.3,321.2,268.1,323.1"/>
				</g>
			</g>
		</g>
		<g>
			<g>
				<g>
					<path class="st11" d="M262.2,334.4c-2.6-1.3-5.6-1.5-8.3-0.9c-1.5,0.2-3.2,0.7-4.1,1.9c-1.1,1.1-1.3,3.2,0,4.1
						c0.7,0.6,1.7,0.7,2.6,0.7c2.2,0,4.6-0.4,6.5,0.9c0.9,0.7,1.7,2,3,2.4c1.1,0.4,2.6-0.4,3.2-1.5c0.6-1.1,0.6-2.4,0.4-3.5
						C265.2,338.3,264.8,335.7,262.2,334.4z"/>
				</g>
			</g>
		</g>
		<g>
			<g>
				<g>
					<path class="st11" d="M272.4,326.2c-1.7-2-2-5-1.3-7.4c0.7-2.6,2.4-4.6,4.4-6.3c2.2-2,5-3.7,7.8-4.6c1.1-0.4,2.4-0.7,3.5-0.6
						c1.1,0.2,2.4,0.7,3,1.9c0.7,1.7,0,3.5-0.7,5c-1.5,2.8-3.3,5.4-5.2,7.8c-1.5,2-3.3,3.9-5.7,4.8c-2.4,0.9-4.8,0.7-6.1-0.9"/>
				</g>
			</g>
		</g>
		<g>
			<g>
				<g>
					<path class="st10" d="M268.1,356.5c0,0,0-0.4-0.2-0.9c0-0.7-0.2-1.7-0.2-2.8c-0.2-1.1-0.4-2.6-0.6-4.1
						c-0.4-1.5-0.7-3.2-1.5-4.8c-0.7-1.7-1.5-3.2-2.4-4.3c-0.9-1.1-2-2-3.2-2.6c-1.1-0.6-2-0.7-2.6-0.7c-0.6,0-0.9-0.2-0.9-0.2
						s0.4,0,1.1,0s1.7,0.2,2.8,0.7s2.2,1.3,3.2,2.6c0.9,1.3,1.9,2.8,2.6,4.4s1.1,3.3,1.5,4.8c0.4,1.5,0.4,3,0.6,4.1
						c0,1.1,0.2,2,0.2,2.8C268.1,356.3,268.1,356.5,268.1,356.5z"/>
				</g>
			</g>
		</g>
		<g>
			<g>
				<g>
					<path class="st10" d="M268,354.4c0,0,0-0.2,0-0.6s0-0.7,0-1.3c0-1.1,0-2.8,0-5c-0.2-4.1-0.4-9.8-1.1-16.1
						c-0.7-6.3-1.7-12-2.4-15.9c-0.2-0.9-0.4-1.9-0.6-2.8c-0.2-0.7-0.4-1.5-0.6-2c-0.2-0.6-0.2-0.9-0.4-1.3c0-0.4-0.2-0.4,0-0.4
						c0,0,0,0.2,0.2,0.4c0.2,0.4,0.2,0.7,0.4,1.3c0.2,0.6,0.4,1.3,0.6,2s0.4,1.7,0.6,2.8c0.9,4.1,1.9,9.6,2.6,16.1
						c0.7,6.3,0.9,12,1.1,16.1c0,2,0,3.7,0,5c0,0.6,0,0.9,0,1.3C268,354.2,268,354.4,268,354.4z"/>
				</g>
			</g>
		</g>
		<g>
			<g>
				<g>
					<path class="st10" d="M268,343.3c0,0,0-0.6,0-1.5c0-0.9,0.2-2.2,0.4-3.7c0.2-1.7,0.6-3.5,1.3-5.6c0.6-2,1.3-4.3,2.2-6.5
						c1.9-4.4,4.4-8.2,6.9-10.6c0.6-0.6,1.1-1.1,1.7-1.5c0.2-0.2,0.4-0.4,0.7-0.6c0.2-0.2,0.4-0.4,0.6-0.4c0.7-0.6,1.1-0.7,1.1-0.7
						s-1.7,1.1-3.9,3.5c-2.2,2.4-4.6,5.9-6.7,10.6c-0.9,2.2-1.7,4.4-2.4,6.5c-0.6,2-0.9,3.9-1.3,5.4c-0.4,1.5-0.4,2.8-0.6,3.7
						C268.1,342.9,268,343.3,268,343.3z"/>
				</g>
			</g>
		</g>
	</g>
</g>
</svg>
