<?xml version="1.0" encoding="utf-8"?>
<!-- Generator: Adobe Illustrator 23.0.1, SVG Export Plug-In . SVG Version: 6.00 Build 0)  -->
<svg version="1.1" id="Layer_1" xmlns="http://www.w3.org/2000/svg" xmlns:xlink="http://www.w3.org/1999/xlink" x="0px" y="0px"
	 width="190px" height="150px" viewBox="0 0 190 150" style="enable-background:new 0 0 190 150;" xml:space="preserve">
<style type="text/css">
	.st0{fill:#FFD5D0;}
	.st1{fill:#FFE4E1;}
	.st2{fill:#FFF9F8;}
	.st3{fill:#F5CCC7;}
	.st4{fill:#EBC8C4;}
	.st5{fill:#F5F5F5;}
	.st6{fill:#FFF2F1;}
	.st7{fill:#771608;}
	.st8{fill:#FFB7B0;}
	.st9{fill:#820D01;}
	.st10{fill:#FF6656;}
	.st11{fill:#DB3726;}
	.st12{fill:#943026;}
	.st13{fill:#FFBE9D;}
	.st14{fill:#FF877B;}
	.st15{fill:#BF1B0A;}
	.st16{fill:#263238;}
	.st17{fill:#CC2817;}
	.st18{opacity:0.4;}
	.st19{fill:#FFA69D;}
	.st20{fill:#C92514;}
	.st21{fill:#E94534;}
</style>
<g>
	<g>
		<g>
			<g>
				<g>
					<g>
						<rect x="86" y="1" class="st0" width="31.8" height="52.5"/>
					</g>
				</g>
			</g>
		</g>
		<g>
			<g>
				<g>
					<g>
						<rect x="85.2" y="1" class="st1" width="31.8" height="52.5"/>
					</g>
				</g>
			</g>
		</g>
		<g>
			<g>
				<g>
					<g>
						<rect x="86.6" y="2.1" class="st2" width="29.1" height="50.4"/>
					</g>
				</g>
			</g>
		</g>
		<g>
			<g>
				<g>
					<g>
						<g>
							<rect x="92.1" y="8.7" class="st1" width="17.9" height="37.3"/>
						</g>
					</g>
				</g>
			</g>
		</g>
		<g>
			<g>
				<g>
					<g>
						<path class="st3" d="M92.1,32.8c-0.1-3.5,3.1-6.9,6.6-7.4c1.6-0.2,3.4,0.1,4.9-0.5c2.8-1.1,3.7-4.8,6.4-5.9l0.1,27h-18
							L92.1,32.8L92.1,32.8z"/>
					</g>
				</g>
			</g>
		</g>
	</g>
	<g>
		<g>
			<g>
				<g>
					<path class="st1" d="M27.7,57.4c0,0-3.1-0.2-2.8,6.9c0.3,7.1,1,10.8,1,10.8s-0.1,1.6-1.3,1.3c-1.2-0.3-3.5-1.9-4.6-0.7
						c-1.2,1.2-0.7,3,0.8,5.1s4.8,6.9,5.1,7.4c0.3,0.4,0.4,1.2-0.4,1.1c-0.9-0.1-6.6-2-7.5,0.7c-0.7,2.8,4.5,8,5.1,8.6
						c0.6,0.6,0.6,1,0.4,1.3c-0.2,0.4-2.1-0.5-3.8-1c-1.6-0.5-3.7-0.7-4,0.9s2,6.5,10.7,11.6l4.2,2.1l4-2.5c8.2-6,10.1-11,9.5-12.7
						c-0.4-1.6-2.5-1.1-4.1-0.5c-1.6,0.7-3.4,1.7-3.7,1.3c-0.3-0.3-0.3-0.7,0.2-1.3c0.5-0.7,5.3-6.4,4.2-9.1c-1-2.8-6.6-0.1-7.5,0
						c-0.8,0.1-0.8-0.7-0.6-1.1c0.2-0.4,3-5.6,4.3-7.8c1.3-2.3,1.6-4.1,0.3-5.2c-1.3-1-3.4,0.7-4.5,1.1c-1.2,0.4-1.4-1.1-1.4-1.1
						s0.4-3.8-0.1-10.9C30.8,56.9,27.7,57.4,27.7,57.4"/>
				</g>
			</g>
			<g>
				<g>
					<path class="st4" d="M28,63.8c0,0,0,0.1,0,0.1s0,0.2,0,0.4c0,0.4,0.1,1,0.1,1.6c0.1,1.4,0.2,3.6,0.4,6.1
						c0.3,5.2,0.6,12.4,1,20.3c0.4,7.9,0.7,15.1,0.9,20.3c0.1,2.6,0.2,4.7,0.3,6.1c0,0.7,0.1,1.3,0.1,1.6c0,0.1,0,0.3,0,0.4
						c0,0.1,0,0.1,0,0.1s0-0.1,0-0.1c0-0.1,0-0.2,0-0.4c0-0.4-0.1-1-0.1-1.6c-0.1-1.4-0.2-3.6-0.4-6.1c-0.3-5.2-0.6-12.4-1-20.3
						s-0.7-15.1-0.9-20.3c-0.1-2.6-0.2-4.7-0.3-6.1c0-0.7-0.1-1.3-0.1-1.6c0-0.1,0-0.3,0-0.4C28,63.8,28,63.8,28,63.8z"/>
				</g>
			</g>
			<g>
				<g>
					<path class="st4" d="M23.1,77.9c0,0,0.1,0.1,0.3,0.2c0.1,0.1,0.4,0.4,0.7,0.7c0.5,0.5,1.3,1.3,2.1,2.2c0.8,0.9,1.5,1.6,2.1,2.2
						c0.2,0.3,0.4,0.5,0.6,0.7c0.1,0.1,0.2,0.2,0.2,0.2S29,84.1,28.7,84c-0.1-0.1-0.4-0.4-0.7-0.7c-0.5-0.5-1.3-1.3-2.1-2.2
						c-0.8-0.9-1.5-1.6-2.1-2.2c-0.2-0.3-0.4-0.5-0.6-0.7C23.2,78.1,23.1,78,23.1,77.9z"/>
				</g>
			</g>
			<g>
				<g>
					<path class="st4" d="M29.4,84c0,0,1.5-1.6,3.4-3.6c1.9-1.9,3.5-3.5,3.6-3.5c0,0-1.5,1.6-3.4,3.6C31.1,82.5,29.4,84.1,29.4,84z"
						/>
				</g>
			</g>
			<g>
				<g>
					<path class="st4" d="M29.4,96.3c0,0,0.1-0.1,0.3-0.2c0.2-0.1,0.5-0.3,0.8-0.4c0.7-0.4,1.6-1,2.7-1.6c1-0.7,1.9-1.3,2.6-1.7
						c0.3-0.2,0.6-0.4,0.8-0.5c0.1-0.1,0.3-0.1,0.3-0.1s-0.1,0.1-0.3,0.2c-0.1,0.1-0.4,0.3-0.7,0.6c-0.7,0.4-1.6,1.1-2.6,1.7
						c-1,0.7-2,1.2-2.7,1.6c-0.4,0.1-0.7,0.3-0.8,0.4C29.5,96.3,29.4,96.3,29.4,96.3z"/>
				</g>
			</g>
			<g>
				<g>
					<path class="st4" d="M22.4,92c0,0,0.1,0.1,0.3,0.1c0.1,0.1,0.4,0.2,0.7,0.4c0.7,0.4,1.5,0.9,2.5,1.4c1,0.6,1.9,1.1,2.5,1.5
						c0.3,0.2,0.6,0.4,0.7,0.4c0.1,0.1,0.3,0.1,0.2,0.2c0,0-0.1-0.1-0.3-0.1c-0.1-0.1-0.4-0.2-0.7-0.4c-0.7-0.4-1.5-0.9-2.5-1.4
						c-1-0.6-1.9-1.1-2.5-1.5c-0.3-0.2-0.6-0.4-0.7-0.4C22.6,92.1,22.4,92,22.4,92z"/>
				</g>
			</g>
			<g>
				<g>
					<path class="st4" d="M21.1,102.7c0,0,0.1,0.1,0.4,0.1c0.2,0.1,0.6,0.3,1,0.5c0.8,0.4,1.9,1.1,3.2,1.9c1.3,0.7,2.4,1.4,3.2,1.9
						c0.4,0.2,0.7,0.4,1,0.6c0.2,0.1,0.4,0.2,0.4,0.2s-0.1-0.1-0.4-0.1c-0.2-0.1-0.6-0.3-1-0.5c-0.8-0.4-1.9-1.1-3.2-1.9
						c-1.3-0.7-2.4-1.4-3.2-1.9c-0.4-0.2-0.7-0.4-1-0.6C21.1,102.8,21.1,102.7,21.1,102.7z"/>
				</g>
			</g>
			<g>
				<g>
					<path class="st4" d="M29.9,107.8c0,0,0.1-0.1,0.4-0.2c0.3-0.1,0.6-0.4,1-0.6c0.9-0.5,2.1-1.3,3.4-2.1s2.5-1.6,3.3-2.2
						c0.4-0.3,0.7-0.5,1-0.7c0.2-0.1,0.4-0.2,0.4-0.2s-0.1,0.1-0.3,0.3c-0.2,0.1-0.5,0.4-1,0.7c-0.8,0.6-1.9,1.4-3.3,2.2
						c-1.3,0.8-2.5,1.6-3.4,2.1c-0.4,0.2-0.8,0.4-1,0.6C30,107.7,29.9,107.8,29.9,107.8z"/>
				</g>
			</g>
		</g>
		<g>
			<g>
				<g>
					<g>
						<polygon class="st0" points="36.2,115 24.6,115 28.4,143.8 32.4,143.8 						"/>
					</g>
				</g>
			</g>
			<g>
				<g>
					<g>
						<path class="st5" d="M25,118.5C25,118.5,25,118.6,25,118.5c0.1,0.1,0.2,0.2,0.4,0.3c0.3,0.1,0.7,0.1,1.2-0.1
							c0.4-0.2,0.9-0.7,1.5-1c0.6-0.2,1.4-0.2,2.2,0.1c0.7,0.2,1.4,0.6,2,1c0.6,0.4,1.1,0.7,1.6,0.9c0.4,0.2,0.9,0.3,1.2,0.4
							c0.1,0,0.2,0,0.4,0c0.1,0,0.1,0,0.1,0c0-0.1-0.7,0-1.6-0.4c-0.4-0.2-1-0.5-1.6-0.9s-1.3-0.7-2-1c-0.7-0.2-1.6-0.3-2.2,0
							c-0.3,0.1-0.6,0.3-0.8,0.5c-0.2,0.2-0.4,0.4-0.7,0.5c-0.4,0.3-0.9,0.3-1.1,0.2C25.2,118.7,25.1,118.5,25,118.5z"/>
					</g>
				</g>
			</g>
			<g>
				<g>
					<g>
						<path class="st5" d="M25.7,123.9c0,0,0.1-0.1,0.3-0.3c0.1-0.1,0.4-0.4,0.9-0.6c0.4-0.1,1-0.2,1.6-0.2c0.6,0,1.3,0.1,1.9,0.3
							s1.4,0.1,2,0.1c0.6-0.1,1.2-0.2,1.6-0.4c0.4-0.2,0.7-0.4,1-0.6s0.3-0.3,0.3-0.3s-0.4,0.4-1.3,0.7c-0.4,0.1-1,0.4-1.6,0.4
							c-0.6,0.1-1.3,0-1.9-0.1c-0.7-0.1-1.3-0.2-2-0.2c-0.6,0-1.2,0.1-1.6,0.3c-0.4,0.1-0.7,0.4-0.9,0.7
							C25.8,123.7,25.7,123.8,25.7,123.9C25.8,123.8,25.7,123.9,25.7,123.9z"/>
					</g>
				</g>
			</g>
			<g>
				<g>
					<g>
						<path class="st5" d="M34.6,126.7c0,0-0.1-0.1-0.3-0.1s-0.5-0.1-1-0.2c-0.4,0-0.9,0-1.5,0.1c-0.5,0.1-1.1,0.2-1.7,0.4
							S29,127,28.5,127c-0.5,0-1-0.1-1.3-0.3c-0.7-0.3-1-0.8-1-0.7c0,0,0.1,0.1,0.2,0.3s0.4,0.4,0.8,0.6c0.4,0.1,0.9,0.3,1.4,0.4
							c0.5,0,1.2-0.1,1.8-0.1c0.6-0.1,1.2-0.3,1.7-0.4c0.5-0.1,1-0.1,1.4-0.1C34.2,126.5,34.6,126.7,34.6,126.7z"/>
					</g>
				</g>
			</g>
			<g>
				<g>
					<g>
						<path class="st5" d="M26.7,130.7c0,0,0.4-0.2,1.1-0.1c0.4,0.1,0.7,0.2,1.2,0.4s1,0.4,1.6,0.4c1.1,0.1,2.2-0.2,2.8-0.7
							c0.3-0.2,0.5-0.4,0.7-0.5c0.1-0.1,0.2-0.2,0.2-0.2s-0.3,0.3-1,0.7c-0.6,0.4-1.6,0.7-2.7,0.6c-1.1-0.1-1.9-0.7-2.7-0.8
							c-0.4-0.1-0.7,0-0.9,0.1C26.7,130.6,26.7,130.7,26.7,130.7z"/>
					</g>
				</g>
			</g>
			<g>
				<g>
					<g>
						<path class="st5" d="M27.4,136.2c0,0,0.4,0,1-0.2s1.3-0.7,2.2-1c0.4-0.1,0.8-0.3,1.3-0.2c0.4,0,0.7,0.1,1,0.2
							c0.5,0.3,0.7,0.7,0.7,0.6c0,0,0-0.1-0.1-0.2s-0.3-0.4-0.5-0.5c-0.3-0.1-0.7-0.3-1-0.3c-0.4,0-0.9,0.1-1.3,0.2
							c-0.9,0.4-1.6,0.8-2.2,1C27.8,136.1,27.4,136.2,27.4,136.2z"/>
					</g>
				</g>
			</g>
			<g>
				<g>
					<g>
						<path class="st5" d="M27.9,138.8c0,0,0.3,0.1,0.7,0.2c0.4,0.1,1.1,0.2,1.9,0.3c0.7,0.1,1.4,0.1,1.9,0.1c0.4,0,0.7-0.1,0.7-0.1
							c0-0.1-1.2,0-2.6-0.1S27.9,138.7,27.9,138.8z"/>
					</g>
				</g>
			</g>
		</g>
	</g>
	<g>
		<g>
			<g>
				<path class="st6" d="M47.1,22.4l-1.2,1.7c0,0,2.8,0.7,2.8,3.2s-1.6,2.9-3.5,2.9c-1.8,0-3.6-0.5-3.5-3s2.4-3.4,2.4-3.4L43,22.4
					H47.1z"/>
			</g>
		</g>
		<g>
			<g>
				<rect x="11.8" y="19.8" class="st6" width="2.5" height="10.3"/>
			</g>
		</g>
		<g>
			<g>
				<rect x="7" y="17.2" class="st1" width="4.8" height="12.9"/>
			</g>
		</g>
		<g>
			<g>
				<g>
					<rect x="1.1" y="30.1" class="st0" width="55.3" height="1.9"/>
				</g>
				<g>
					<rect x="11.4" y="31" class="st0" width="1.5" height="5"/>
				</g>
				<g>
					<rect x="41.3" y="31" class="st0" width="1.5" height="5"/>
				</g>
			</g>
		</g>
		<g>
			<g>
				<rect x="20.5" y="25.4" class="st1" width="12.9" height="4.8"/>
			</g>
		</g>
		<g>
			<g>
				<rect x="15.7" y="14" class="st6" width="4.8" height="16.1"/>
			</g>
		</g>
		<g>
			<g>
				<rect x="14.3" y="17.2" class="st1" width="1.4" height="12.9"/>
			</g>
		</g>
		<g>
			<g>
				<rect x="21.6" y="23.9" class="st1" width="12.9" height="1.4"/>
			</g>
		</g>
	</g>
	<g>
		<path class="st7" d="M188.9,143.9c0,0.1,1.1,0.1-61.3,0.1s-123-0.1-123-0.1s60.6-0.1,123-0.1S188.9,143.9,188.9,143.9z"/>
	</g>
	<g>
		<g>
			<path class="st8" d="M117.4,114.4c-0.2,0.7-2.5,27.3-2.5,27.3l6,0.4l3.7-25.2L117.4,114.4z"/>
			<path class="st9" d="M134.7,23.1c0.7,1.7,1,2.9,1.6,4.2c0.4,0.8,0.8,1.6,0.8,2.5c0,0.6-0.3,1.1-0.3,1.7c0,1,0.9,1.8,1.7,2.5
				c0.8,0.7,1.6,1.6,1.4,2.6c-0.1,0.4-0.3,0.8-0.4,1.3c-0.1,0.5,0.2,1,0.6,1.5c0.4,0.4,0.7,0.8,1,1.3l0.1,0.8l-9.9-3"/>
			<g>
				<path class="st8" d="M132.9,113.4c0.1,0.7,1.8,29,1.8,29l6-0.4l0.4-28.5L132.9,113.4L132.9,113.4z"/>
				<g>
					<g>
						<g>
							<g>
								<g>
									<g>
										<g>
											<path class="st10" d="M140.8,142.3v-0.6l-6.3,0.1l0.1,2.1h0.4c1.7,0.1,8.9,0.1,10.1-0.1
												C146.1,143.4,140.8,142.3,140.8,142.3z"/>
										</g>
									</g>
								</g>
							</g>
							<g>
								<g>
									<g>
										<g>
											<path class="st11" d="M136.7,143.8c-0.1-0.5-0.4-1-0.8-1.3s-1-0.4-1.5-0.4v1.6H136.7z"/>
										</g>
									</g>
								</g>
							</g>
						</g>
						<g>
							<path class="st11" d="M143.4,142.9c0,0,1.9,0.4,1.6,0.7c-0.2,0.3-7.5,0.4-10.7,0.2v-0.1l8.4-0.1
								C142.9,143.7,143,142.9,143.4,142.9z"/>
						</g>
						<g>
							<g>
								<g>
									<g>
										<path class="st12" d="M134.4,143.8L134.4,143.8c0.1,0,0.3,0,0.4,0c0.3,0,0.7,0,1.1,0c1,0,2.3,0,3.8,0
											c1.5,0,2.8-0.1,3.8-0.1c0.4,0,0.8-0.1,1.1-0.1c0.1,0,0.2,0,0.3,0c0.1,0,0.1,0,0.1,0h-0.1c-0.1,0-0.2,0-0.3,0
											c-0.3,0-0.7,0-1.1,0.1c-1,0-2.3,0.1-3.8,0.1c-1.5,0-2.8,0-3.8,0c-0.4,0-0.8,0-1.1,0C134.6,143.7,134.5,143.7,134.4,143.8
											C134.4,143.8,134.4,143.8,134.4,143.8z"/>
									</g>
								</g>
							</g>
						</g>
						<g>
							<g>
								<g>
									<g>
										<path class="st12" d="M142.9,143.8c0,0,0-0.2,0.2-0.5c0.1-0.3,0.4-0.4,0.4-0.4c0,0-0.3,0.1-0.4,0.4
											C142.8,143.5,142.8,143.8,142.9,143.8z"/>
									</g>
								</g>
							</g>
						</g>
						<g>
							<g>
								<g>
									<g>
										<path class="st12" d="M140.9,142.9c0,0,0.1-0.1,0.2-0.2c0.1-0.1,0.1-0.2,0.1-0.3c0,0-0.1,0.1-0.2,0.2
											C141,142.8,140.9,142.9,140.9,142.9z"/>
									</g>
								</g>
							</g>
						</g>
						<g>
							<g>
								<g>
									<g>
										<path class="st12" d="M140.5,142.7c0,0,0.1-0.1,0.2-0.1c0.1-0.1,0.1-0.1,0.1-0.2c0,0-0.1,0.1-0.2,0.1
											C140.5,142.6,140.4,142.7,140.5,142.7z"/>
									</g>
								</g>
							</g>
						</g>
						<g>
							<g>
								<g>
									<g>
										<path class="st12" d="M140.1,142.2c0,0,0.1,0,0.3,0s0.3,0,0.3-0.1c0,0-0.1,0-0.3,0C140.2,142.1,140.1,142.1,140.1,142.2z"
											/>
									</g>
								</g>
							</g>
						</g>
						<g>
							<g>
								<g>
									<g>
										<path class="st12" d="M140,141.8c0,0,0.1,0.1,0.4,0.1s0.4,0,0.4-0.1c0,0-0.1,0-0.4,0C140.2,141.8,140,141.7,140,141.8z"/>
									</g>
								</g>
							</g>
						</g>
						<g>
							<g>
								<g>
									<g>
										<path class="st12" d="M141.1,142.4c0,0,0.1,0,0.4,0c0.1,0,0.3-0.1,0.4-0.1c0.1,0,0.1-0.1,0.2-0.1c0.1,0,0.1-0.1,0.1-0.1
											c0-0.1,0-0.1-0.1-0.1c-0.4-0.1-0.7,0-0.9,0.2C141.3,142.2,141.2,142.4,141.1,142.4C141.2,142.5,141.2,142.5,141.1,142.4
											c0.1,0.1,0.1-0.1,0.2-0.2c0.1-0.1,0.2-0.1,0.4-0.2c0.1-0.1,0.4-0.1,0.4,0c0.1,0.1,0.1,0.1,0,0.1c-0.1,0.1-0.1,0.1-0.2,0.1
											c-0.1,0.1-0.3,0.1-0.4,0.1C141.3,142.4,141.1,142.4,141.1,142.4z"/>
									</g>
								</g>
							</g>
						</g>
						<g>
							<g>
								<g>
									<g>
										<path class="st12" d="M141.3,142.5c0,0,0.1-0.1,0.1-0.3c0-0.1-0.1-0.1-0.1-0.3c-0.1-0.1-0.1-0.2-0.4-0.1
											c-0.1,0-0.1,0.1-0.1,0.1c0,0.1,0.1,0.1,0.1,0.1c0.1,0.1,0.1,0.1,0.2,0.2C141.1,142.4,141.2,142.5,141.3,142.5
											c0,0-0.1-0.1-0.2-0.2c-0.1-0.1-0.1-0.1-0.1-0.2c-0.1-0.1-0.1-0.2,0-0.2s0.2,0.1,0.3,0.1c0.1,0.1,0.1,0.1,0.1,0.2
											C141.3,142.3,141.2,142.5,141.3,142.5z"/>
									</g>
								</g>
							</g>
						</g>
						<g>
							<g>
								<g>
									<g>
										<path class="st12" d="M134.4,142.2c0,0,0.1,0,0.4,0s0.7,0.1,1,0.4c0.4,0.2,0.5,0.6,0.7,0.8c0.1,0.2,0.1,0.4,0.1,0.4
											s0-0.1,0-0.1c0-0.1,0-0.1-0.1-0.3c-0.1-0.2-0.3-0.6-0.7-0.9c-0.4-0.2-0.7-0.4-1-0.4c-0.1,0-0.3,0-0.4,0
											C134.4,142.2,134.4,142.2,134.4,142.2z"/>
									</g>
								</g>
							</g>
						</g>
						<g>
							<g>
								<g>
									<g>
										<path class="st12" d="M137.5,143.2c0,0,0.4,0.1,0.9,0.1c0.5,0,0.9-0.1,0.9-0.1s-0.4,0-0.9,0S137.5,143.2,137.5,143.2z"/>
									</g>
								</g>
							</g>
						</g>
						<g>
							<g>
								<g>
									<g>
										<path class="st12" d="M136.2,143.3c0,0,0,0.1,0.1,0.1c0.1,0.1,0.1,0.1,0.1,0.1s0-0.1,0-0.2
											C136.4,143.3,136.3,143.2,136.2,143.3z"/>
									</g>
								</g>
							</g>
						</g>
						<g>
							<g>
								<g>
									<g>
										<path class="st12" d="M135.8,142.7c0,0,0,0.1,0.1,0.1c0.1,0.1,0.1,0.1,0.1,0.1s0-0.1-0.1-0.1
											C135.9,142.8,135.8,142.7,135.8,142.7z"/>
									</g>
								</g>
							</g>
						</g>
						<g>
							<g>
								<g>
									<g>
										<path class="st12" d="M135.1,142.5c0,0,0.1,0,0.1,0.1c0.1,0,0.1,0.1,0.1,0.1s-0.1-0.1-0.1-0.1
											C135.2,142.5,135.1,142.5,135.1,142.5z"/>
									</g>
								</g>
							</g>
						</g>
						<g>
							<g>
								<g>
									<g>
										<path class="st12" d="M134.6,142.4C134.6,142.4,134.6,142.5,134.6,142.4c0.1,0.1,0.1,0.1,0.1,0.1S134.7,142.4,134.6,142.4
											C134.7,142.4,134.7,142.4,134.6,142.4z"/>
									</g>
								</g>
							</g>
						</g>
					</g>
				</g>
			</g>
			<g>
				<path class="st8" d="M108.8,60c-1.8-2.5-1.5-5.8,0.7-7.9l10.4-10.1l2,7.4c-0.1,0.1-8.1,7.3-8.1,7.3l5.6,8.3
					c0.9,1.3,1,2.9,0.4,4.3l-0.4,1.1c-0.5,1.6-2.5,2.4-4,1.6l-1.7-0.9c-0.2-0.1-0.2-0.4-0.1-0.5l0,0c0.1-0.1,0.2-0.1,0.3-0.1
					l2.4,0.2c0.5,0.1,1-0.3,1.1-0.7l0,0l0,0L108.8,60z"/>
				<path class="st13" d="M113.9,57c-0.4-0.6-1-1.2-1.3-1.7"/>
			</g>
			<g>
				<g>
					<path class="st8" d="M143.2,50l2.3,4.2l1.4-11.5c0.1-1.2-0.3-2.1-0.4-2.4c-0.1-0.3-0.4-0.7-0.6-1c-0.3-0.4-0.7-0.7-1-1
						c-0.4-0.2-0.3-0.7,0.1-0.8c0.4-0.1,1.4,0.5,2.2,1.6c0.8,1.1,0.9-1,1-1.8s0.3-3.1,0.5-3.4c0.4-0.2,0.7,0.1,0.7,0.9
						c-0.1,0.7-0.1,3.1,0.3,3.1s0.6-4,0.6-4s-0.1-0.8,0.4-0.8c0.8,0,0.4,4.2,0.3,4.5c-0.1,0.3,0.4,0.3,0.4,0c0-0.3,0.1-4,1-4
						c0.7,0-0.4,3.4,0,4.2c0.4,0.7,0.5-2.7,1.2-2.7c0.2,0,0.4,0.1,0.1,2c-0.2,1-0.9,2.6-1.1,4.6l-0.1,0.5c0,0-1.2,10.1-3,16.2
						c-1,3.7-6.3,4-8.4,0.8c-1.4-2.2-3.7-7.8-3.7-7.8L143.2,50z"/>
					<g>
						<path class="st14" d="M151.6,40.9c0,0-0.1,0-0.4,0.1s-0.4,0.2-0.7,0.5l-0.1,0.1l-0.1-0.1c-0.1-0.2-0.1-0.4-0.3-0.6
							c-0.3-0.4-0.7-0.7-1.1-0.8c-0.3-0.1-0.6-0.1-0.6-0.1s0.2-0.1,0.6,0.1c0.4,0.1,0.8,0.4,1.2,0.8c0.1,0.2,0.3,0.4,0.3,0.7h-0.1
							c0.2-0.4,0.5-0.5,0.7-0.5C151.4,40.9,151.6,40.9,151.6,40.9z"/>
					</g>
				</g>
			</g>
			<g>
				<g>
					<g>
						<g>
							<g>
								<g>
									<g>
										<path class="st10" d="M114.5,142.3v-0.6l6.3,0.1l-0.1,2.1h-0.4c-1.7,0.1-8.9,0.1-10.1-0.1
											C109.1,143.4,114.5,142.3,114.5,142.3z"/>
									</g>
								</g>
							</g>
						</g>
						<g>
							<g>
								<g>
									<path class="st11" d="M118.6,143.8c0.1-0.5,0.4-1,0.8-1.3c0.4-0.3,1-0.4,1.5-0.4v1.6H118.6z"/>
								</g>
							</g>
						</g>
					</g>
					<path class="st11" d="M111.9,142.9c0,0-1.9,0.4-1.6,0.7c0.2,0.3,7.5,0.4,10.7,0.2v-0.1l-8.4-0.1
						C112.4,143.7,112.2,142.9,111.9,142.9z"/>
					<g>
						<g>
							<g>
								<g>
									<path class="st12" d="M120.9,143.7L120.9,143.7c-0.1,0-0.3,0-0.4,0c-0.3,0-0.7,0-1.1,0c-1,0-2.3,0-3.8,0
										c-1.5,0-2.8-0.1-3.8-0.1c-0.4,0-0.8-0.1-1.1-0.1c-0.1,0-0.2,0-0.3,0c-0.1,0-0.1,0-0.1,0h0.1c0.1,0,0.2,0,0.3,0
										c0.3,0,0.7,0,1.1,0.1c1,0,2.3,0.1,3.8,0.1c1.5,0,2.8,0,3.8,0c0.4,0,0.8,0,1.1,0C120.7,143.7,120.8,143.7,120.9,143.7
										C120.9,143.7,120.9,143.7,120.9,143.7z"/>
								</g>
							</g>
						</g>
					</g>
					<g>
						<g>
							<g>
								<g>
									<path class="st12" d="M112.4,143.7c0,0,0-0.2-0.2-0.5c-0.1-0.3-0.4-0.4-0.4-0.4c0,0,0.3,0.1,0.4,0.4
										C112.4,143.5,112.4,143.7,112.4,143.7z"/>
								</g>
							</g>
						</g>
					</g>
					<g>
						<g>
							<g>
								<g>
									<path class="st12" d="M114.3,142.9c0,0-0.1-0.1-0.2-0.2c-0.1-0.1-0.1-0.2-0.1-0.3c0,0,0.1,0.1,0.2,0.2
										C114.2,142.8,114.3,142.9,114.3,142.9z"/>
								</g>
							</g>
						</g>
					</g>
					<g>
						<g>
							<g>
								<g>
									<path class="st12" d="M114.8,142.7c0,0-0.1-0.1-0.2-0.1c-0.1-0.1-0.1-0.1-0.1-0.2c0,0,0.1,0.1,0.2,0.1
										C114.8,142.5,114.8,142.7,114.8,142.7z"/>
								</g>
							</g>
						</g>
					</g>
					<g>
						<g>
							<g>
								<g>
									<path class="st12" d="M115.1,142.1c0,0-0.1,0-0.3,0s-0.3,0-0.3-0.1c0,0,0.1,0,0.3,0C115,142.1,115.1,142.1,115.1,142.1z"/>
								</g>
							</g>
						</g>
					</g>
					<g>
						<g>
							<g>
								<g>
									<path class="st12" d="M115.3,141.7c0,0-0.1,0.1-0.4,0.1s-0.4,0-0.4-0.1c0,0,0.1,0,0.4,0S115.3,141.7,115.3,141.7z"/>
								</g>
							</g>
						</g>
					</g>
					<g>
						<g>
							<g>
								<g>
									<path class="st12" d="M114.1,142.4c0,0-0.1,0-0.4,0c-0.1,0-0.3-0.1-0.4-0.1c-0.1,0-0.1-0.1-0.2-0.1c-0.1,0-0.1-0.1-0.1-0.1
										c0-0.1,0-0.1,0.1-0.1c0.4-0.1,0.7,0,0.9,0.2C114,142.2,114,142.3,114.1,142.4C114,142.5,114,142.5,114.1,142.4
										c-0.1,0.1-0.1-0.1-0.2-0.2c-0.1-0.1-0.2-0.1-0.4-0.2c-0.1-0.1-0.4-0.1-0.4,0c-0.1,0.1-0.1,0.1,0,0.1
										c0.1,0.1,0.1,0.1,0.2,0.1c0.1,0.1,0.3,0.1,0.4,0.1C113.9,142.4,114.1,142.4,114.1,142.4z"/>
								</g>
							</g>
						</g>
					</g>
					<g>
						<g>
							<g>
								<g>
									<path class="st12" d="M114,142.4c0,0-0.1-0.1-0.1-0.3c0-0.1,0.1-0.1,0.1-0.3c0.1-0.1,0.1-0.2,0.4-0.1
										c0.1,0,0.1,0.1,0.1,0.1c0,0.1-0.1,0.1-0.1,0.1c-0.1,0.1-0.1,0.1-0.2,0.2C114.2,142.4,114,142.4,114,142.4s0.1-0.1,0.2-0.2
										c0.1-0.1,0.1-0.1,0.1-0.2c0.1-0.1,0.1-0.2,0-0.2c-0.1,0-0.2,0.1-0.3,0.1c-0.1,0.1-0.1,0.1-0.1,0.2
										C113.9,142.3,114,142.4,114,142.4z"/>
								</g>
							</g>
						</g>
					</g>
					<g>
						<g>
							<g>
								<g>
									<path class="st12" d="M120.9,142.2c0,0-0.1,0-0.4,0c-0.3,0-0.7,0.1-1,0.4c-0.4,0.2-0.5,0.6-0.7,0.8
										c-0.1,0.2-0.1,0.4-0.1,0.4s0-0.1,0-0.1c0-0.1,0-0.1,0.1-0.3c0.1-0.2,0.3-0.6,0.7-0.9c0.4-0.2,0.7-0.4,1-0.4
										c0.1,0,0.3,0,0.4,0C120.8,142.1,120.9,142.2,120.9,142.2z"/>
								</g>
							</g>
						</g>
					</g>
					<g>
						<g>
							<g>
								<g>
									<path class="st12" d="M117.7,143.2c0,0-0.4,0.1-0.9,0.1c-0.5,0-0.9-0.1-0.9-0.1s0.4,0,0.9,0
										C117.4,143.2,117.7,143.2,117.7,143.2z"/>
								</g>
							</g>
						</g>
					</g>
					<g>
						<g>
							<g>
								<g>
									<path class="st12" d="M119,143.2c0,0,0,0.1-0.1,0.1c-0.1,0.1-0.1,0.1-0.1,0.1s0-0.1,0-0.2C118.9,143.3,119,143.2,119,143.2
										z"/>
								</g>
							</g>
						</g>
					</g>
					<g>
						<g>
							<g>
								<g>
									<path class="st12" d="M119.5,142.7c0,0,0,0.1-0.1,0.1c-0.1,0.1-0.1,0.1-0.1,0.1s0-0.1,0.1-0.1
										C119.4,142.7,119.5,142.7,119.5,142.7z"/>
								</g>
							</g>
						</g>
					</g>
					<g>
						<g>
							<g>
								<g>
									<path class="st12" d="M120.1,142.5c0,0-0.1,0-0.1,0.1c-0.1,0-0.1,0.1-0.1,0.1s0.1-0.1,0.1-0.1
										C120.1,142.4,120.2,142.5,120.1,142.5z"/>
								</g>
							</g>
						</g>
					</g>
					<g>
						<g>
							<g>
								<g>
									<path class="st12" d="M120.6,142.4C120.6,142.4,120.6,142.5,120.6,142.4c-0.1,0.1-0.1,0.1-0.1,0.1S120.5,142.4,120.6,142.4
										C120.6,142.3,120.6,142.3,120.6,142.4z"/>
								</g>
							</g>
						</g>
					</g>
				</g>
			</g>
			<g>
				<path class="st9" d="M122.7,62.9l-4.2,9.8l-4.9,53.9l12.6,1.3l4.1-46.5l1.3,46.9l11.6-0.4l-1.7-55.2c-0.1-1.5-0.4-3-1-4.3
					l-2.8-5.7L122.7,62.9z"/>
				<g>
					<path class="st15" d="M131.6,77.7c0,0,0,0.1-0.1,0.1c-0.1,0.1-0.2,0.1-0.4,0.1s-0.4-0.1-0.7-0.2c-0.2-0.1-0.4-0.4-0.6-0.7
						c-0.3-0.7-0.2-1.5-0.2-2.3c0-0.9,0-1.9,0-2.8c0-2,0-3.9,0-5.2c0-0.7,0-1.2,0-1.6c0-0.4,0-0.6,0-0.6s0,0.2,0.1,0.6
						c0,0.4,0,1,0,1.6c0,1.3,0.1,3.1,0.1,5.2c0,1,0,2,0,2.8c0,0.9-0.1,1.7,0.2,2.3c0.2,0.6,0.8,0.8,1.1,0.9
						C131.4,77.8,131.5,77.7,131.6,77.7z"/>
				</g>
				<g>
					<path class="st15" d="M140.5,68.8c0,0-0.1,0.1-0.3,0.1c-0.2,0.1-0.5,0.2-0.9,0.3s-0.9,0.1-1.4-0.1s-1.1-0.3-1.6-0.6
						c-1.1-0.6-1.8-1.6-2.2-2.3c-0.1-0.4-0.3-0.7-0.3-0.9c-0.1-0.2-0.1-0.4-0.1-0.4s0.1,0.5,0.5,1.2c0.4,0.7,1,1.6,2.2,2.2
						c0.5,0.3,1,0.5,1.6,0.6c0.5,0.1,1,0.1,1.4,0.1C140.1,69,140.5,68.8,140.5,68.8z"/>
				</g>
				<g>
					<path class="st15" d="M125.7,65.2c0,0,0,0.1,0,0.4c0,0.2-0.1,0.5-0.1,0.9c-0.2,0.7-0.7,1.7-1.6,2.5c-1,0.7-2,1.1-2.8,1.1
						c-0.4,0.1-0.7,0-0.9,0c-0.2,0-0.3-0.1-0.3-0.1s0.4,0,1.3-0.1c0.7-0.1,1.8-0.4,2.7-1.2c0.9-0.7,1.4-1.7,1.6-2.4
						C125.6,65.6,125.6,65.2,125.7,65.2z"/>
				</g>
				<g>
					<path class="st15" d="M130.9,64.3c0,0,0.1,0,0.1,0c0.1,0,0.2,0.1,0.3,0.1c0.1,0.1,0.2,0.3,0.2,0.5c0,0.2-0.2,0.4-0.5,0.4
						c-0.2,0.1-0.5-0.1-0.7-0.2c-0.1-0.2-0.1-0.4,0-0.5c0.1-0.1,0.1-0.2,0.2-0.3s0.1,0,0.1,0s-0.1,0.1-0.2,0.4
						c0,0.1-0.1,0.3,0.1,0.4c0.1,0.1,0.3,0.2,0.4,0.1c0.1,0,0.3-0.1,0.4-0.3c0-0.1,0-0.3-0.1-0.4C131.1,64.4,130.9,64.4,130.9,64.3z
						"/>
				</g>
				<g>
					<g>
						<path class="st15" d="M126.3,124.6c0,0-0.1,0-0.4,0c-0.3,0-0.7-0.1-1.3-0.1c-1.1-0.1-2.6-0.2-4.3-0.4
							c-1.6-0.2-3.2-0.4-4.2-0.6c-0.5-0.1-1-0.1-1.3-0.2c-0.3-0.1-0.4-0.1-0.4-0.1c0,0,0.1,0,0.4,0.1c0.4,0.1,0.7,0.1,1.3,0.1
							c1.1,0.1,2.6,0.4,4.2,0.6c1.6,0.2,3.2,0.4,4.3,0.5c0.5,0.1,1,0.1,1.3,0.1C126.2,124.6,126.3,124.6,126.3,124.6z"/>
					</g>
				</g>
				<g>
					<g>
						<path class="st15" d="M142.5,124.1c0,0-0.1,0-0.4,0.1c-0.3,0-0.7,0-1.2,0.1c-1,0.1-2.4,0.1-4,0.2c-1.6,0.1-2.9,0.3-3.9,0.4
							c-0.4,0.1-0.9,0.1-1.2,0.1c-0.3,0-0.4,0.1-0.4,0c0,0,0.1-0.1,0.4-0.1c0.3-0.1,0.7-0.1,1.2-0.2c1-0.1,2.4-0.3,4-0.4
							c1.6-0.1,2.9-0.1,4-0.1c0.5,0,0.9,0,1.2,0C142.3,124.1,142.5,124.1,142.5,124.1z"/>
					</g>
				</g>
				<g>
					<g>
						<g>
							<path class="st15" d="M141.3,122.1c0.1,0,0.1,0.4,0.1,0.9c0,0.5,0,0.9-0.1,0.9s-0.1-0.4-0.1-0.9
								C141.2,122.6,141.3,122.1,141.3,122.1z"/>
						</g>
						<g>
							<path class="st15" d="M141.1,118.5c0.1,0,0.1,0.4,0.1,0.9c0,0.5,0,0.9-0.1,0.9s-0.1-0.4-0.1-0.9
								C141.1,118.9,141.1,118.5,141.1,118.5z"/>
						</g>
						<g>
							<path class="st15" d="M141.1,114.9c0.1,0,0.1,0.4,0.1,0.9c0,0.5,0,0.9-0.1,0.9s-0.1-0.4-0.1-0.9
								C140.9,115.3,141,114.9,141.1,114.9z"/>
						</g>
						<g>
							<path class="st15" d="M140.9,111.3c0.1,0,0.1,0.4,0.1,0.9c0,0.5,0,0.9-0.1,0.9s-0.1-0.4-0.1-0.9
								C140.8,111.7,140.8,111.3,140.9,111.3z"/>
						</g>
						<g>
							<path class="st15" d="M140.8,107.7c0.1,0,0.1,0.4,0.1,0.9c0,0.5,0,0.9-0.1,0.9s-0.1-0.4-0.1-0.9
								C140.7,108.1,140.7,107.7,140.8,107.7z"/>
						</g>
						<g>
							<path class="st15" d="M140.6,104.1c0.1,0,0.1,0.4,0.1,0.9c0,0.5,0,0.9-0.1,0.9s-0.1-0.4-0.1-0.9
								C140.5,104.5,140.5,104.1,140.6,104.1z"/>
						</g>
						<g>
							<path class="st15" d="M140.5,100.4c0.1,0,0.1,0.4,0.1,0.9c0,0.5,0,0.9-0.1,0.9s-0.1-0.4-0.1-0.9
								C140.4,100.9,140.4,100.4,140.5,100.4z"/>
						</g>
						<g>
							<path class="st15" d="M140.3,96.8c0.1,0,0.1,0.4,0.1,0.9c0,0.5,0,0.9-0.1,0.9s-0.1-0.4-0.1-0.9
								C140.2,97.2,140.2,96.8,140.3,96.8z"/>
						</g>
						<g>
							<path class="st15" d="M140.2,93.2c0.1,0,0.1,0.4,0.1,0.9c0,0.5,0,0.9-0.1,0.9s-0.1-0.4-0.1-0.9
								C140.1,93.6,140.1,93.2,140.2,93.2z"/>
						</g>
						<g>
							<path class="st15" d="M140,89.6c0.1,0,0.1,0.4,0.1,0.9c0,0.5,0,0.9-0.1,0.9c-0.1,0-0.1-0.4-0.1-0.9C140,90,140,89.6,140,89.6
								z"/>
						</g>
						<g>
							<path class="st15" d="M139.9,86c0.1,0,0.1,0.4,0.1,0.9c0,0.5,0,0.9-0.1,0.9c-0.1,0-0.1-0.4-0.1-0.9
								C139.8,86.4,139.8,86,139.9,86z"/>
						</g>
						<g>
							<path class="st15" d="M139.7,82.4c0.1,0,0.1,0.4,0.1,0.9c0,0.5,0,0.9-0.1,0.9c-0.1,0-0.1-0.4-0.1-0.9
								C139.7,82.8,139.7,82.4,139.7,82.4z"/>
						</g>
						<g>
							<path class="st15" d="M139.6,78.7c0.1,0,0.1,0.4,0.1,0.9c0,0.5,0,0.9-0.1,0.9c-0.1,0-0.1-0.4-0.1-0.9
								C139.5,79.2,139.5,78.7,139.6,78.7z"/>
						</g>
						<g>
							<path class="st15" d="M139.4,75.2c0.1,0,0.1,0.4,0.1,0.9c0,0.5,0,0.9-0.1,0.9c-0.1,0-0.1-0.4-0.1-0.9
								C139.4,75.5,139.4,75.2,139.4,75.2z"/>
						</g>
						<g>
							<path class="st15" d="M139.3,71.5c0.1,0,0.1,0.4,0.1,0.9c0,0.5,0,0.9-0.1,0.9s-0.1-0.4-0.1-0.9
								C139.2,72,139.2,71.5,139.3,71.5z"/>
						</g>
						<g>
							<path class="st15" d="M139.1,69.1c0.1,0,0.1,0.1,0.1,0.3c0,0.1,0,0.3-0.1,0.3s-0.1-0.1-0.1-0.3
								C139.1,69.3,139.1,69.1,139.1,69.1z"/>
						</g>
					</g>
				</g>
				<g>
					<g>
						<g>
							<path class="st15" d="M115.8,121.6c0.1,0,0.1,0.4,0,0.9c-0.1,0.5-0.1,0.9-0.1,0.9c-0.1,0-0.1-0.4,0-0.9
								C115.7,122,115.7,121.6,115.8,121.6z"/>
						</g>
						<g>
							<path class="st15" d="M116.1,118c0.1,0,0.1,0.4,0,0.9c-0.1,0.5-0.1,0.9-0.1,0.9c-0.1,0-0.1-0.4,0-0.9
								C116,118.4,116,118,116.1,118z"/>
						</g>
						<g>
							<path class="st15" d="M116.5,114.4c0.1,0,0.1,0.4,0,0.9c-0.1,0.5-0.1,0.9-0.1,0.9c-0.1,0-0.1-0.4,0-0.9
								C116.3,114.8,116.4,114.4,116.5,114.4z"/>
						</g>
						<g>
							<path class="st15" d="M116.8,110.8c0.1,0,0.1,0.4,0,0.9c-0.1,0.5-0.1,0.9-0.1,0.9c-0.1,0-0.1-0.4,0-0.9
								C116.6,111.2,116.7,110.8,116.8,110.8z"/>
						</g>
						<g>
							<path class="st15" d="M117.1,107.2c0.1,0,0.1,0.4,0,0.9c-0.1,0.5-0.1,0.9-0.1,0.9c-0.1,0-0.1-0.4,0-0.9
								C117,107.6,117.1,107.2,117.1,107.2z"/>
						</g>
						<g>
							<path class="st15" d="M117.4,103.6c0.1,0,0.1,0.4,0,0.9c-0.1,0.5-0.1,0.9-0.1,0.9c-0.1,0-0.1-0.4,0-0.9
								C117.3,104,117.4,103.6,117.4,103.6z"/>
						</g>
						<g>
							<path class="st15" d="M117.8,100c0.1,0,0.1,0.4,0,0.9c-0.1,0.5-0.1,0.9-0.1,0.9s-0.1-0.4,0-0.9
								C117.7,100.4,117.7,100,117.8,100z"/>
						</g>
						<g>
							<path class="st15" d="M118.1,96.4c0.1,0,0.1,0.4,0,0.9c-0.1,0.5-0.1,0.9-0.1,0.9c-0.1,0-0.1-0.4,0-0.9
								C118,96.8,118.1,96.4,118.1,96.4z"/>
						</g>
						<g>
							<path class="st15" d="M118.5,92.7c0.1,0,0.1,0.4,0,0.9c-0.1,0.5-0.1,0.9-0.1,0.9c-0.1,0-0.1-0.4,0-0.9
								C118.3,93.2,118.4,92.7,118.5,92.7z"/>
						</g>
						<g>
							<path class="st15" d="M118.8,89.2c0.1,0,0.1,0.4,0,0.9c-0.1,0.5-0.1,0.9-0.1,0.9c-0.1,0-0.1-0.4,0-0.9
								C118.7,89.5,118.8,89.2,118.8,89.2z"/>
						</g>
						<g>
							<path class="st15" d="M119.2,85.6c0.1,0,0.1,0.4,0,0.9c-0.1,0.5-0.1,0.9-0.1,0.9c-0.1,0-0.1-0.4,0-0.9
								C119,86,119.1,85.6,119.2,85.6z"/>
						</g>
						<g>
							<path class="st15" d="M119.5,81.9c0.1,0,0.1,0.4,0,0.9c-0.1,0.5-0.1,0.9-0.1,0.9c-0.1,0-0.1-0.4,0-0.9
								C119.4,82.4,119.5,81.9,119.5,81.9z"/>
						</g>
						<g>
							<path class="st15" d="M119.8,78.4c0.1,0,0.1,0.4,0,0.9c-0.1,0.5-0.1,0.9-0.1,0.9c-0.1,0-0.1-0.4,0-0.9
								C119.7,78.7,119.8,78.4,119.8,78.4z"/>
						</g>
						<g>
							<path class="st15" d="M120.1,74.8c0.1,0,0.1,0.4,0,0.9c-0.1,0.5-0.1,0.9-0.1,0.9c-0.1,0-0.1-0.4,0-0.9
								C120.1,75.2,120.1,74.8,120.1,74.8z"/>
						</g>
						<g>
							<path class="st15" d="M120.5,71.1c0.1,0,0.1,0.4,0,0.9c-0.1,0.5-0.1,0.9-0.1,0.9c-0.1,0-0.1-0.4,0-0.9
								C120.3,71.6,120.4,71.1,120.5,71.1z"/>
						</g>
					</g>
				</g>
			</g>
			<g>
				<g>
					<g>
						<g>
							<path class="st10" d="M137.6,62.8c0,0,0.1-10.3,0.1-10.5l6.6-0.7c0,0-2-7.7-3.1-9.2c-2.9-3.7-7.5-3.1-7.5-3.1l-6.9-0.1
								c0,0-0.2-0.1-0.6-0.1c-2-0.2-4.1,0.4-5.6,1.8l-7.8,7.1l6.3,5.7l2.8-2.3l0.8,11.6L137.6,62.8z"/>
						</g>
					</g>
				</g>
				<g>
					<path class="st9" d="M143.2,47.5c0,0.1-4.6,3-10.4,6.6c-5.8,3.7-10.5,6.5-10.5,6.5c0-0.1,4.6-3,10.4-6.6
						C138.5,50.3,143.2,47.4,143.2,47.5z"/>
				</g>
				<g>
					<g>
						<path class="st9" d="M135.4,39.5c0.1,0-2.9,4-6.6,8.9s-6.7,8.8-6.7,8.7c-0.1,0,2.9-4,6.6-8.9
							C132.3,43.3,135.4,39.4,135.4,39.5z"/>
					</g>
				</g>
			</g>
			<g>
				<g>
					<path class="st9" d="M118.9,42.5c0.1-1.3-0.7-2.8-0.1-4c0.4-1,1.3-1.5,1.8-2.5c0.4-0.9,0.1-1.9,0-2.8c-0.1-1-0.2-2.1,0.4-2.8
						c0.5-0.6,1.4-0.7,2-1.3c0.5-0.5,0.7-1.3,0.7-2c0.1-0.7,0-1.5,0.1-2.2c0.2-1.5,1.1-2.8,2.5-3.5c1.3-0.7,3-0.6,4.2,0.7l-4.5,17
						C123.6,39.6,121.1,40.8,118.9,42.5z"/>
					<g>
						<path class="st9" d="M118.9,35.6c0,0-0.1,0-0.1,0.1c-0.1,0.1-0.1,0.2-0.2,0.4c0,0.1,0,0.4,0.2,0.6c0.1,0.1,0.5,0.2,0.8,0.1
							c0.3-0.1,0.6-0.4,0.7-0.7c0.1-0.4,0.1-0.8,0-1.3c-0.1-0.4-0.3-0.9-0.4-1.3c-0.1-0.4-0.2-1-0.1-1.6c0.2-1,0.9-1.9,1.8-2.4
							c0.4-0.2,0.8-0.3,1.2-0.5c0.4-0.1,0.7-0.4,0.9-0.7c0.4-0.5,0.5-1.1,0.5-1.5s-0.1-0.6-0.1-0.6s0,0.1,0.1,0.1
							c0,0.1,0.1,0.2,0.1,0.4c0,0.4-0.1,1-0.4,1.6c-0.2,0.3-0.5,0.5-0.9,0.7c-0.4,0.1-0.8,0.3-1.2,0.5c-0.8,0.4-1.5,1.2-1.6,2.2
							c-0.1,0.5-0.1,1,0.1,1.5c0.1,0.4,0.4,0.9,0.4,1.3c0.1,0.4,0.1,0.9,0,1.3c-0.1,0.4-0.4,0.7-0.8,0.8s-0.7,0-0.9-0.2
							c-0.2-0.2-0.2-0.5-0.2-0.7c0.1-0.2,0.1-0.3,0.2-0.4C118.9,35.6,118.9,35.6,118.9,35.6z"/>
					</g>
				</g>
				<path class="st16" d="M132.8,38.9c-0.1-1.9-2.3-0.7-2.1-2.6c0.5-4.2,0.7-8.6,0.6-12.8"/>
				<path class="st8" d="M126.2,39l-0.8-13c2.2-3,5.1-3.6,8.6-2.5c0,0,1.5,6.3,1.3,9.2c-0.2,3.1-2.5,3.8-2.5,3.8s0.1,1,0.2,2.4
					c0.6,0.1,1.6,0.2,2.2,0.4c0.2,0.1-5.1,7.2-5.1,7.2l-6.2-6.7C124,39.8,124.7,39.3,126.2,39z"/>
				<g>
					<g>
						<g>
							<g>
								<g>
									<g>
										<g>
											<g>
												<path class="st9" d="M133.9,28.4c0,0.2-0.1,0.4-0.4,0.4c-0.2,0-0.4-0.1-0.4-0.3c0-0.2,0.1-0.4,0.4-0.4
													C133.7,28.1,133.9,28.1,133.9,28.4z"/>
											</g>
											<g>
												<g>
													<path class="st9" d="M134.4,28.1c-0.1,0.1-0.4-0.1-0.8-0.1c-0.4,0-0.7,0.3-0.7,0.2c0,0,0-0.1,0.1-0.2
														c0.1-0.1,0.4-0.2,0.6-0.2c0.3,0,0.5,0.1,0.7,0.1C134.4,27.9,134.4,28,134.4,28.1z"/>
												</g>
											</g>
										</g>
										<g>
											<g>
												<path class="st9" d="M129.6,28.9c0,0.2-0.1,0.4-0.4,0.4c-0.2,0-0.4-0.1-0.4-0.3c0-0.2,0.1-0.4,0.4-0.4
													S129.5,28.7,129.6,28.9z"/>
											</g>
											<g>
												<g>
													<path class="st9" d="M130,28.5c-0.1,0.1-0.4-0.1-0.8-0.1c-0.4,0-0.7,0.3-0.7,0.2c0,0,0-0.1,0.1-0.2
														c0.1-0.1,0.4-0.2,0.6-0.2c0.3,0,0.5,0.1,0.7,0.1C130,28.4,130,28.5,130,28.5z"/>
												</g>
											</g>
										</g>
										<g>
											<g>
												<path class="st9" d="M132,31.5c0,0,0.2-0.1,0.7-0.2c0.1,0,0.2-0.1,0.2-0.1c0-0.1-0.1-0.2-0.1-0.3
													c-0.1-0.2-0.3-0.5-0.4-0.8c-0.6-1.1-1-2.1-1-2.1c0.1,0,0.5,0.9,1.1,2c0.1,0.3,0.3,0.5,0.4,0.8c0.1,0.1,0.1,0.2,0.1,0.4
													c0,0.1-0.1,0.1-0.1,0.1c-0.1,0-0.1,0-0.1,0.1C132.2,31.5,132,31.5,132,31.5z"/>
											</g>
										</g>
										<g>
											<path class="st14" d="M132.7,36.5c0,0-2.1,0.4-4.2-0.7c0,0,1.2,2,4.2,1.4V36.5z"/>
										</g>
										<g>
											<path class="st14" d="M131.9,32.5c-0.1-0.2-0.4-0.3-0.7-0.2c-0.1,0.1-0.4,0.1-0.4,0.3s-0.1,0.4,0,0.5
												c0.1,0.1,0.4,0.1,0.6,0.1c0.2-0.1,0.4-0.2,0.5-0.4c0.1-0.1,0.1-0.1,0.1-0.1C132,32.6,132,32.6,131.9,32.5"/>
										</g>
										<g>
											<g>
												<path class="st9" d="M130.7,31.9c0.1,0,0.1,0.4,0.5,0.7c0.4,0.3,0.9,0.2,0.9,0.2s-0.1,0.1-0.3,0.1c-0.2,0-0.5,0-0.7-0.2
													c-0.3-0.1-0.4-0.4-0.4-0.6C130.6,32,130.7,31.9,130.7,31.9z"/>
											</g>
										</g>
									</g>
								</g>
							</g>
						</g>
					</g>
					<g>
						<path class="st9" d="M132.9,27.4c0,0.1,0.3,0,0.7,0s0.7,0.1,0.7,0s-0.3-0.2-0.7-0.2C133.2,27.2,132.9,27.3,132.9,27.4z"/>
					</g>
					<g>
						<path class="st9" d="M128.6,27.6C128.7,27.6,128.7,27.5,128.6,27.6L128.6,27.6c0.1-0.1,0.4-0.1,0.7-0.1c0.4-0.1,0.7,0.1,0.7,0
							c0,0-0.1-0.1-0.2-0.1c-0.1-0.1-0.4-0.1-0.6-0.1C128.8,27.2,128.5,27.5,128.6,27.6L128.6,27.6L128.6,27.6L128.6,27.6z"/>
					</g>
					<g>
						<path class="st14" d="M128.5,30.4L128.5,30.4c0.1-0.1,0.1-0.2,0-0.2l-0.1,0.1C128.5,30.3,128.5,30.4,128.5,30.4z"/>
					</g>
					<g>
						<path class="st14" d="M129.5,30.4c0,0,0.1-0.1,0-0.1c0-0.1-0.1-0.1-0.1-0.1v0.1C129.4,30.3,129.5,30.4,129.5,30.4z"/>
					</g>
					<g>
						<path class="st14" d="M129,30.7L129,30.7c0.1-0.1,0.1-0.1,0-0.1C128.9,30.6,128.9,30.7,129,30.7C128.9,30.7,129,30.7,129,30.7
							z"/>
					</g>
					<g>
						<path class="st14" d="M134.6,30.1c0,0,0.1-0.1,0.1-0.1c0-0.1-0.1-0.1-0.1-0.1S134.5,30,134.6,30.1
							C134.5,30.1,134.6,30.1,134.6,30.1z"/>
					</g>
					<g>
						<path class="st14" d="M133.6,30.1L133.6,30.1c0.1-0.1,0.1-0.1,0-0.1V30.1C133.5,30.1,133.5,30.1,133.6,30.1z"/>
					</g>
					<g>
						<path class="st14" d="M134.1,30.4L134.1,30.4c0.1-0.1,0.1-0.1,0-0.1V30.4C134,30.4,134.1,30.4,134.1,30.4z"/>
					</g>
				</g>
				<g>
					<path class="st9" d="M130.9,21.9c0.1,1.5,0.7,2.9,1.8,4c1,1.1,2.2,2.1,3.6,2.3c-0.4-1.3-0.4-2.3-0.8-3.4
						c-0.3-1-0.7-2.1-1.6-2.8c-1-0.9-2.6-1.2-3.9-0.6"/>
					<g>
						<path class="st15" d="M136,27.2c0,0-0.1,0-0.2,0.1c-0.1,0-0.4,0-0.7-0.1c-0.3-0.1-0.6-0.2-1-0.4c-0.3-0.2-0.7-0.5-1-0.8
							c-0.7-0.7-1.1-1.3-1.4-1.9s-0.4-0.8-0.4-0.9c0,0,0.2,0.3,0.5,0.8s0.7,1.2,1.4,1.8c0.6,0.6,1.3,1.1,1.9,1.3
							C135.6,27.2,136,27.1,136,27.2z"/>
					</g>
					<g>
						<path class="st15" d="M135,27.3C135,27.3,135.1,27.3,135,27.3c0.1,0.1,0.2,0.2,0.4,0.4c0.2,0.3,0.5,0.7,0.7,1.4
							c0.1,0.3,0.1,0.7,0.1,1s-0.1,0.8-0.1,1.2c-0.1,0.4-0.1,0.9-0.2,1.3c0,0.4,0.1,0.9,0.3,1.3c0.2,0.4,0.5,0.8,0.9,1.1
							c0.4,0.3,0.7,0.4,1.1,0.7c0.4,0.3,0.6,0.7,0.6,1.1c0,0.4-0.2,0.7-0.4,1c-0.1,0.3-0.3,0.5-0.4,0.7c-0.1,0.2-0.1,0.4-0.1,0.6
							c0,0.4,0.2,0.5,0.1,0.5c0,0-0.1,0-0.1-0.1c-0.1-0.1-0.1-0.2-0.1-0.4c0-0.2,0-0.4,0.1-0.7c0.1-0.2,0.2-0.5,0.4-0.8
							c0.1-0.3,0.3-0.6,0.3-1s-0.2-0.7-0.5-1c-0.3-0.3-0.7-0.4-1.1-0.7c-0.4-0.3-0.7-0.7-0.9-1.1c-0.2-0.4-0.3-1-0.3-1.4
							s0.1-0.9,0.2-1.3s0.1-0.8,0.1-1.2s0-0.7-0.1-1c-0.1-0.6-0.4-1.1-0.6-1.4C135.2,27.5,135,27.3,135,27.3z"/>
					</g>
					<g>
						<path class="st9" d="M138.5,33.9c0,0,0,0.1-0.1,0.1c-0.1,0.1-0.1,0.2-0.4,0.4c-0.2,0.1-0.4,0.1-0.7,0.1
							c-0.3-0.1-0.7-0.2-0.8-0.6c-0.2-0.3-0.3-0.7-0.2-1.3c0.1-0.4,0.3-0.9,0.5-1.3c0.3-0.4,0.7-0.8,0.9-1.3c0.3-0.4,0.4-1,0.2-1.6
							c-0.1-0.5-0.5-1-1-1.2c-0.2-0.1-0.4-0.1-0.7-0.2c-0.2-0.1-0.5-0.1-0.7-0.1c-0.5-0.1-1-0.4-1.3-0.6c-0.4-0.2-0.7-0.5-1-0.7
							c-0.6-0.5-1-1-1.2-1.3c-0.1-0.1-0.1-0.4-0.2-0.4c0-0.1-0.1-0.1-0.1-0.1s0.1,0.2,0.3,0.6c0.2,0.4,0.7,0.8,1.2,1.3
							c0.6,0.4,1.3,1.1,2.2,1.3c0.2,0.1,0.5,0.1,0.7,0.1c0.2,0.1,0.5,0.1,0.8,0.2c0.5,0.2,1,0.7,1.1,1.3c0.1,0.6,0,1.2-0.3,1.7
							c-0.3,0.4-0.7,0.8-1,1.3c-0.3,0.4-0.4,0.8-0.5,1.3c-0.1,0.4,0,0.8,0.2,1.1c0.2,0.3,0.4,0.5,0.7,0.5c0.3,0.1,0.5,0,0.7-0.1
							C138.5,34.1,138.5,33.9,138.5,33.9z"/>
					</g>
				</g>
				<g>
					<g>
						<path class="st15" d="M120.2,41.5c0,0-0.1-0.1-0.1-0.1c-0.1-0.1-0.2-0.2-0.3-0.4c-0.2-0.4-0.4-1.1-0.3-1.9
							c0.1-0.4,0.2-0.8,0.6-1.3c0.3-0.4,0.7-0.7,1.1-1c0.4-0.4,0.8-0.7,1.1-1.2c0.1-0.2,0.3-0.5,0.3-0.8c0.1-0.3,0-0.6-0.1-0.9
							c-0.2-0.6-0.7-1-0.9-1.6c-0.1-0.3-0.1-0.6-0.1-0.9c0.1-0.3,0.1-0.6,0.4-0.8c0.4-0.4,0.8-0.7,1.2-1c0.4-0.2,0.8-0.5,1.1-0.7
							c0.6-0.5,0.8-1.3,0.7-1.7c-0.1-0.4-0.2-0.7-0.2-0.7s0.1,0.1,0.1,0.1c0.1,0.1,0.1,0.3,0.1,0.5c0.1,0.4-0.1,1.2-0.7,1.8
							c-0.3,0.3-0.7,0.5-1.1,0.8c-0.4,0.2-0.8,0.5-1.1,1c-0.1,0.2-0.3,0.4-0.3,0.7s0,0.5,0.1,0.8c0.2,0.5,0.7,1,0.9,1.6
							c0.1,0.3,0.1,0.7,0.1,1c-0.1,0.3-0.1,0.6-0.4,0.9c-0.3,0.5-0.7,0.9-1.2,1.3c-0.4,0.4-0.8,0.7-1.1,1c-0.3,0.4-0.4,0.7-0.5,1.2
							c-0.1,0.8,0,1.5,0.2,1.9C120.1,41.3,120.2,41.5,120.2,41.5z"/>
					</g>
					<g>
						<path class="st9" d="M121.8,41c0.1-1.4,0.4-2,0.4-3.4c0-1.3,1.2-3.1,0.4-4.6c0.2-1,0.6-1.9,1-2.8c0.2-0.6,1.2-2.3,1.4-2.9
							c-0.1-1-0.9-1-0.7-2c0.1-1.3,0.7-2.5,1.9-3.3c0.7-0.4,1.5-0.6,2.3-0.7c0.5-0.1,1.1-0.1,1.6,0.1c0.5,0.1,1,0.4,1.3,1l-0.3-0.3
							c0.2,1.2-0.1,2.5-1,3.4s-1.9,1.5-3.1,1.8c0,0.4-0.1,0.8-0.2,1.1v0.1c0,0-0.1,0-0.1,0.1c-0.1,0.1-0.1,0.2-0.2,0.4
							c-0.1,0.1-0.3,0.3-0.4,0.4c-0.2,0.5-0.2,1,0,1.6c0.3,0.5,0.9,1,1,1.6c0.1,0.7-0.4,1.3-0.4,2.1c0,0.4,0.1,0.7,0.4,1
							c1.3,1.6,1,3.4,0.3,5.3c-0.3,0.7-0.7,1.5-0.4,2.2c0.2,0.7,0.9,1.2,1.1,1.9c0.3,1-0.4,1.9-1,2.7c-1.4-0.7-2.9-1.1-4.4-1.5
							c0.1-0.7,0.2-1.3,0.2-1.9c-0.1,0.7-0.7,1.3-1.4,1.3c-0.7,0.1-1.4-0.3-1.8-0.9C120.9,43.9,121.6,42.4,121.8,41z"/>
						<g>
							<path class="st15" d="M123.9,25.8c0,0,0.4,0.4,1.2,0.7c0.8,0.3,2,0.5,3.3,0.1c1.3-0.4,2-1.4,2.5-2.2c0.4-0.7,0.5-1.3,0.5-1.3
								c0,0,0,0.1-0.1,0.4c-0.1,0.2-0.1,0.6-0.4,1c-0.2,0.4-0.4,0.8-0.9,1.3c-0.4,0.4-1,0.8-1.6,1c-1.3,0.4-2.6,0.2-3.4-0.1
								c-0.4-0.1-0.7-0.4-0.9-0.5C123.9,26,123.9,25.8,123.9,25.8z"/>
						</g>
						<g>
							<path class="st15" d="M124.1,24.3c0,0,0.3,0.1,0.9,0.1c0.5,0,1.3-0.1,2-0.3c0.7-0.3,1.3-0.7,1.7-1.1s0.6-0.7,0.6-0.6
								c0,0-0.1,0.3-0.5,0.7c-0.4,0.4-1,0.9-1.7,1.2c-0.8,0.3-1.6,0.4-2.1,0.3C124.4,24.4,124.1,24.3,124.1,24.3z"/>
						</g>
						<g>
							<path class="st15" d="M123.9,24.9c0.1,0,0.4,0.3,0.8,0.5c0.4,0.2,0.9,0.3,0.9,0.4s-0.4,0.1-1-0.1
								C124,25.4,123.8,25,123.9,24.9z"/>
						</g>
						<g>
							<path class="st15" d="M124.2,46.5c0,0,0-0.1,0-0.2s0.1-0.4,0.4-0.6c0.2-0.1,0.5-0.4,0.7-0.7c0.1-0.4,0.2-0.8-0.1-1.3
								c-0.1-0.2-0.4-0.4-0.6-0.4c-0.3-0.1-0.5-0.4-0.7-0.7c-0.1-0.1-0.1-0.3-0.1-0.4s0.1-0.3,0.1-0.5c0.1-0.3,0.3-0.6,0.5-0.9
								c0.4-0.6,0.5-1.3,0.4-2c-0.1-0.7-0.3-1.4-0.8-2c-0.2-0.3-0.5-0.7-0.5-1.1c0-0.4,0.2-0.7,0.4-1.1c0.2-0.3,0.4-0.6,0.7-0.8
								c0.2-0.3,0.3-0.6,0.3-0.9c0-0.3-0.2-0.6-0.4-0.8c-0.2-0.2-0.4-0.5-0.5-0.8c-0.2-0.6-0.2-1.2,0.1-1.7c0.3-0.4,0.7-0.7,1-0.9
								c0.4-0.2,0.5-0.5,0.7-0.7c0.1-0.3,0.1-0.5,0.1-0.6c0-0.1-0.1-0.2-0.1-0.2s0.1,0.1,0.1,0.2c0.1,0.1,0.1,0.4-0.1,0.7
								c-0.1,0.3-0.3,0.6-0.7,0.8c-0.3,0.2-0.7,0.4-1,0.9c-0.2,0.4-0.3,1,0,1.6c0.1,0.3,0.3,0.5,0.5,0.7c0.2,0.2,0.4,0.5,0.4,0.9
								c0,0.4-0.1,0.7-0.3,1c-0.2,0.3-0.4,0.6-0.7,0.9c-0.2,0.3-0.4,0.6-0.4,1s0.2,0.7,0.4,1c0.5,0.6,0.8,1.3,0.9,2.1
								c0.1,0.7-0.1,1.5-0.5,2.1c-0.1,0.3-0.4,0.6-0.4,0.8c-0.1,0.1-0.1,0.3-0.1,0.4c0,0.1,0,0.3,0.1,0.4c0.1,0.2,0.3,0.4,0.6,0.6
								c0.2,0.1,0.4,0.3,0.6,0.5s0.2,0.5,0.2,0.7s-0.1,0.4-0.1,0.7c-0.1,0.2-0.2,0.4-0.4,0.4c-0.1,0.1-0.3,0.2-0.4,0.3
								c-0.2,0.1-0.3,0.4-0.4,0.5C124.2,46.4,124.2,46.5,124.2,46.5z"/>
						</g>
						<g>
							<path class="st15" d="M123.8,25.4c0,0,0.4,0.4,1.1,0.8c0.4,0.1,0.9,0.3,1.5,0.3s1.2-0.1,1.8-0.4c0.6-0.3,1-0.8,1.3-1.3
								c0.2-0.5,0.4-1,0.6-1.4c0.1-0.4,0.4-0.7,0.5-0.9c0.1-0.1,0.1-0.1,0.2-0.2c0.1-0.1,0.1-0.1,0.1-0.1s-0.4,0.4-0.7,1.3
								c-0.1,0.4-0.3,0.9-0.5,1.5c-0.2,0.5-0.7,1.1-1.3,1.4c-0.6,0.3-1.3,0.4-1.9,0.4c-0.6,0-1.1-0.1-1.6-0.4
								c-0.4-0.2-0.7-0.4-0.9-0.7C123.9,25.6,123.8,25.4,123.8,25.4z"/>
						</g>
					</g>
				</g>
			</g>
		</g>
	</g>
	<g>
		<g>
			<g>
				<g>
					<g>
						<path class="st10" d="M52.5,140.3l-0.7,2.8c0,0-4.6,6-6,5.7c-1-0.2,0.2-1.8,2-6.3l0.4-1.9L52.5,140.3z"/>
					</g>
				</g>
			</g>
			<g>
				<g>
					<g>
						<path class="st12" d="M45.6,147.9c0,0,0.1,0.1,0.2,0.2c0.2,0.1,0.5,0.1,0.9-0.1c0.6-0.5,1.4-1.3,2.3-2.2
							c0.9-0.9,1.6-1.8,2.1-2.4c0.2-0.3,0.4-0.5,0.6-0.7c0.1-0.1,0.1-0.1,0.1-0.2c0.1-0.1,0.1-0.1,0.1-0.1s0,0-0.1,0.1
							c-0.1,0.1-0.1,0.1-0.1,0.2c-0.1,0.2-0.3,0.4-0.6,0.7c-0.5,0.7-1.2,1.5-2.1,2.5c-0.9,0.9-1.7,1.7-2.3,2.2
							c-0.1,0.1-0.4,0.1-0.5,0.2c-0.1,0-0.3,0-0.4-0.1c-0.1-0.1-0.1-0.1-0.2-0.1C45.6,148,45.6,147.9,45.6,147.9z"/>
					</g>
				</g>
			</g>
			<g>
				<g>
					<g>
						<g>
							<path class="st12" d="M46.3,146c0,0,0.1-0.1,0.4-0.1c0.2,0,0.6,0.1,0.9,0.3c0.3,0.2,0.5,0.4,0.7,0.7c0.1,0.2,0.1,0.4,0.1,0.4
								s-0.1-0.1-0.1-0.4c-0.1-0.2-0.3-0.4-0.6-0.6s-0.6-0.3-0.8-0.3C46.4,146,46.3,146,46.3,146z"/>
						</g>
					</g>
				</g>
			</g>
			<g>
				<g>
					<g>
						<path class="st12" d="M50.7,144.6c0,0,0-0.1-0.1-0.1c0-0.1-0.1-0.2-0.1-0.4c-0.1-0.3,0-0.8,0.2-1.3s0.6-0.7,1-0.9
							c0.1-0.1,0.3-0.1,0.4-0.1c0.1,0,0.1,0,0.1,0s-0.2,0-0.5,0.1c-0.3,0.1-0.7,0.4-0.9,0.9c-0.2,0.4-0.3,0.9-0.2,1.3
							C50.6,144.4,50.7,144.6,50.7,144.6z"/>
					</g>
				</g>
			</g>
			<g>
				<g>
					<g>
						<path class="st12" d="M52.2,140.7c0,0-0.1,0.4-0.1,0.9s-0.2,0.9-0.2,0.9s0.1-0.4,0.1-0.9C52.1,141.1,52.2,140.7,52.2,140.7z"
							/>
					</g>
				</g>
			</g>
			<g>
				<g>
					<g>
						<path class="st12" d="M47.7,142.9c0,0,0.3-0.1,0.6,0c0.3,0.1,0.5,0.2,0.5,0.2s-0.2-0.1-0.5-0.1
							C47.9,142.9,47.7,142.9,47.7,142.9z"/>
					</g>
				</g>
			</g>
			<g>
				<g>
					<g>
						<path class="st12" d="M47.6,143.4c0,0,0.2-0.1,0.5,0c0.3,0.1,0.4,0.2,0.4,0.2s-0.2-0.1-0.4-0.1
							C47.8,143.4,47.6,143.4,47.6,143.4z"/>
					</g>
				</g>
			</g>
			<g>
				<g>
					<g>
						<path class="st12" d="M47.2,144c0,0,0.2-0.1,0.5-0.1c0.3,0.1,0.4,0.3,0.4,0.3S48,144,47.8,144C47.5,144,47.2,144,47.2,144z"/>
					</g>
				</g>
			</g>
			<g>
				<g>
					<g>
						<path class="st12" d="M48,142.7c0,0,0.2-0.1,0.5-0.1c0.1-0.1,0.4-0.1,0.5-0.3c0.1-0.1,0.2-0.1,0.3-0.2
							c0.1-0.1,0.2-0.1,0.2-0.3s-0.1-0.1-0.2-0.1s-0.2,0.1-0.3,0.2c-0.1,0.1-0.3,0.3-0.4,0.4c-0.2,0.3-0.4,0.4-0.4,0.4
							s0-0.1,0.1-0.1c0.1-0.1,0.1-0.2,0.2-0.4c0.1-0.1,0.2-0.3,0.4-0.4c0.1-0.1,0.1-0.1,0.3-0.2c0.1-0.1,0.4,0,0.4,0.2
							c0,0.1-0.1,0.3-0.2,0.4s-0.2,0.1-0.3,0.2c-0.2,0.1-0.4,0.2-0.6,0.2c-0.1,0.1-0.3,0.1-0.4,0.1C48.1,142.7,48,142.7,48,142.7z"
							/>
					</g>
				</g>
			</g>
			<g>
				<g>
					<g>
						<path class="st12" d="M48.2,142.6c0,0,0-0.2-0.1-0.5c0-0.1-0.1-0.4-0.1-0.5c-0.1-0.1-0.1-0.2-0.1-0.3
							c-0.1-0.1-0.1-0.1-0.3-0.1c-0.1,0.1-0.1,0.1-0.1,0.3c0,0.1,0.1,0.2,0.1,0.3c0.1,0.2,0.2,0.4,0.3,0.4
							C48.1,142.5,48.2,142.6,48.2,142.6s-0.1,0-0.1-0.1c-0.1-0.1-0.1-0.1-0.3-0.2c-0.1-0.1-0.2-0.3-0.3-0.4
							c-0.1-0.1-0.1-0.2-0.1-0.3c0-0.1,0-0.3,0.1-0.4c0.1-0.1,0.3,0,0.4,0.1c0.1,0.1,0.1,0.2,0.1,0.3c0.1,0.2,0.1,0.4,0.1,0.5
							S48.2,142.5,48.2,142.6C48.2,142.6,48.2,142.6,48.2,142.6z"/>
					</g>
				</g>
			</g>
			<g>
				<g>
					<g>
						<path class="st17" d="M51.9,143.1l0.3-1.3c0,0-1.1,0.2-1.4,1c-0.3,0.8-0.2,1.5-0.2,1.5l-2.5,2.7c0,0-0.6-1.2-1.7-0.9
							c0,0-0.9,1.9-0.8,2.5c0,0.5,0.6,0.4,0.8,0.4c0.1-0.1,1.2-0.7,2.2-1.7C49.8,145.7,51.2,144,51.9,143.1z"/>
					</g>
				</g>
			</g>
		</g>
		<g>
			<g>
				<g>
					<g>
						<g>
							<g>
								<g>
									<path class="st10" d="M74.7,142.1v-3.8l-7.1-0.1l-0.1,5.5H68c1.9,0.1,9.9,0.5,11.3,0.1C80.7,143.5,74.7,142.1,74.7,142.1z"
										/>
								</g>
							</g>
						</g>
					</g>
				</g>
				<g>
					<g>
						<g>
							<g>
								<g>
									<path class="st17" d="M70.1,143.7c-0.1-0.6-0.4-1.1-0.9-1.5c-0.4-0.4-1-0.6-1.6-0.5v2H70.1z"/>
								</g>
							</g>
						</g>
					</g>
				</g>
			</g>
			<g>
				<g>
					<g>
						<g class="st18">
							<g>
								<path class="st17" d="M77.6,142.9c0,0,2.1,0.6,1.9,1c-0.3,0.4-8.3,0.2-11.9-0.1v-0.1l9.4,0.2
									C77,143.8,77.2,142.9,77.6,142.9z"/>
							</g>
						</g>
					</g>
				</g>
			</g>
			<g>
				<g>
					<g>
						<g>
							<g>
								<path class="st12" d="M67.4,143.6c0,0,0.1,0,0.1,0s0.2,0,0.4,0c0.4,0,0.7,0.1,1.3,0.1c1.1,0.1,2.6,0.1,4.2,0.1
									c1.6,0,3.1,0,4.2,0c0.5,0,1,0,1.3,0c0.1,0,0.2,0,0.4,0c0.1,0,0.1,0,0.1,0s-0.1,0-0.1,0s-0.2,0-0.4,0c-0.4,0-0.7,0-1.3,0
									c-1.1,0-2.6,0-4.2,0c-1.6,0-3.1-0.1-4.2-0.1c-0.5,0-1,0-1.3-0.1c-0.1,0-0.2,0-0.4,0C67.5,143.6,67.4,143.6,67.4,143.6z"/>
							</g>
						</g>
					</g>
				</g>
			</g>
			<g>
				<g>
					<g>
						<g>
							<g>
								<path class="st12" d="M77,143.9c0,0,0.1-0.3,0.2-0.6c0.2-0.3,0.4-0.4,0.4-0.5c0,0-0.3,0.1-0.5,0.4
									C77,143.6,77,143.9,77,143.9z"/>
							</g>
						</g>
					</g>
				</g>
			</g>
			<g>
				<g>
					<g>
						<g>
							<g>
								<path class="st12" d="M74.9,142.8c0,0,0.1-0.1,0.2-0.3c0.1-0.1,0.1-0.3,0.1-0.3s-0.1,0.1-0.2,0.3
									C75,142.7,74.9,142.8,74.9,142.8z"/>
							</g>
						</g>
					</g>
				</g>
			</g>
			<g>
				<g>
					<g>
						<g>
							<g>
								<path class="st12" d="M74.4,142.5c0,0,0.1-0.1,0.2-0.1c0.1-0.1,0.2-0.2,0.2-0.2s-0.1,0.1-0.2,0.1
									C74.4,142.4,74.4,142.5,74.4,142.5z"/>
							</g>
						</g>
					</g>
				</g>
			</g>
			<g>
				<g>
					<g>
						<g>
							<g>
								<path class="st12" d="M74,141.9c0,0,0.1,0.1,0.4,0.1c0.2,0,0.4,0,0.4,0s-0.1-0.1-0.4-0.1C74.1,141.8,74,141.8,74,141.9z"/>
							</g>
						</g>
					</g>
				</g>
			</g>
			<g>
				<g>
					<g>
						<g>
							<g>
								<path class="st12" d="M73.8,141.3c0,0,0.1,0.1,0.4,0.1c0.2,0,0.4,0,0.4-0.1c0,0-0.2,0-0.4,0S73.9,141.3,73.8,141.3z"/>
							</g>
						</g>
					</g>
				</g>
			</g>
			<g>
				<g>
					<g>
						<g>
							<g>
								<path class="st12" d="M75.2,142.2c0,0,0.1,0,0.4,0c0.1,0,0.3-0.1,0.5-0.1c0.1,0,0.1-0.1,0.3-0.1c0.1,0,0.1-0.1,0.1-0.1
									c0-0.1,0-0.1-0.1-0.1c-0.4-0.2-0.9,0-1,0.2c-0.1,0.1-0.1,0.2-0.1,0.3c0,0.1,0,0.1,0,0.1s0-0.1,0.2-0.4
									c0.1-0.1,0.2-0.2,0.4-0.2c0.1-0.1,0.4-0.1,0.5,0.1c0.1,0.1,0.1,0.1-0.1,0.1c-0.1,0.1-0.1,0.1-0.2,0.1
									c-0.1,0.1-0.3,0.1-0.4,0.1C75.3,142.2,75.2,142.2,75.2,142.2z"/>
							</g>
						</g>
					</g>
				</g>
			</g>
			<g>
				<g>
					<g>
						<g>
							<g>
								<path class="st12" d="M75.3,142.2c0,0,0.1-0.1,0.1-0.3c0-0.1-0.1-0.2-0.1-0.3c-0.1-0.1-0.1-0.2-0.4-0.2
									c-0.1,0-0.1,0.1-0.1,0.2c0,0.1,0.1,0.1,0.1,0.2c0.1,0.1,0.1,0.2,0.2,0.3C75.1,142.2,75.3,142.2,75.3,142.2s-0.1-0.1-0.2-0.2
									c-0.1-0.1-0.1-0.1-0.2-0.3c-0.1-0.1-0.1-0.3,0-0.3c0.1,0,0.2,0.1,0.3,0.2c0.1,0.1,0.1,0.2,0.1,0.3
									C75.3,142.1,75.3,142.2,75.3,142.2z"/>
							</g>
						</g>
					</g>
				</g>
			</g>
			<g>
				<g>
					<g>
						<g>
							<g>
								<path class="st12" d="M67.7,141.6c0,0,0.2,0,0.5,0c0.3,0.1,0.7,0.1,1.1,0.5c0.4,0.3,0.6,0.7,0.7,1s0.1,0.5,0.1,0.5
									s0-0.1,0-0.1c0-0.1,0-0.2-0.1-0.4c-0.1-0.3-0.3-0.7-0.7-1c-0.4-0.3-0.8-0.4-1.2-0.4c-0.1,0-0.3,0-0.4,0
									C67.7,141.6,67.7,141.6,67.7,141.6z"/>
							</g>
						</g>
					</g>
				</g>
			</g>
			<g>
				<g>
					<g>
						<g>
							<g>
								<path class="st12" d="M68.4,138.7c0,0-0.1,0.7-0.1,1.4c0,0.8,0,1.5,0,1.5s0.1-0.7,0.1-1.4C68.4,139.4,68.4,138.7,68.4,138.7
									z"/>
							</g>
						</g>
					</g>
				</g>
			</g>
			<g>
				<g>
					<g>
						<g>
							<g>
								<path class="st12" d="M71,143.1c0,0,0.4,0.1,1,0.1c0.6,0,1-0.1,1-0.1s-0.4,0-1,0C71.5,143.1,71,143.1,71,143.1z"/>
							</g>
						</g>
					</g>
				</g>
			</g>
			<g>
				<g>
					<g>
						<g>
							<g>
								<path class="st12" d="M69.7,143.1c0,0,0,0.1,0.1,0.2c0.1,0.1,0.1,0.2,0.1,0.2s0.1-0.1,0-0.2C69.7,143.1,69.7,143,69.7,143.1
									z"/>
							</g>
						</g>
					</g>
				</g>
			</g>
			<g>
				<g>
					<g>
						<g>
							<g>
								<path class="st12" d="M69.1,142.4c0,0,0,0.1,0.1,0.1c0.1,0.1,0.1,0.1,0.1,0.1c0,0,0-0.1-0.1-0.1
									C69.2,142.4,69.1,142.4,69.1,142.4z"/>
							</g>
						</g>
					</g>
				</g>
			</g>
			<g>
				<g>
					<g>
						<g>
							<g>
								<path class="st12" d="M68.4,142.1c0,0,0.1,0,0.2,0.1c0.1,0,0.1,0.1,0.2,0.1c0,0-0.1-0.1-0.1-0.1
									C68.5,142,68.4,142,68.4,142.1z"/>
							</g>
						</g>
					</g>
				</g>
			</g>
			<g>
				<g>
					<g>
						<g>
							<g>
								<path class="st12" d="M67.9,141.9C67.9,141.9,67.9,142,67.9,141.9c0.1,0.1,0.2,0.1,0.2,0.1s0-0.1-0.1-0.1
									C67.9,141.9,67.9,141.9,67.9,141.9z"/>
							</g>
						</g>
					</g>
				</g>
			</g>
		</g>
		<g>
			<g>
				<g>
					<g>
						<g>
							<polygon class="st9" points="79.5,69.2 76.7,140.2 65.7,140.4 67.6,79 55.2,140.8 44.7,140.8 58.2,69.3 							"/>
						</g>
					</g>
				</g>
			</g>
			<g>
				<g>
					<path class="st15" d="M70.1,71.8c0,0,0,0.4-0.1,1.2c-0.1,0.7-0.2,1.7-0.4,2.8c-0.1,0.5-0.1,1-0.3,1.6c-0.1,0.4-0.4,0.9-0.7,1.1
						c-0.3,0.2-0.6,0.3-0.8,0.4c-0.2,0-0.3,0-0.3,0c0-0.1,0.5,0,1-0.4c0.3-0.2,0.5-0.6,0.7-1c0.1-0.4,0.2-1,0.3-1.5
						c0.1-1.1,0.4-2.1,0.5-2.8C70,72.3,70.1,71.8,70.1,71.8z"/>
				</g>
			</g>
			<g>
				<g>
					<path class="st15" d="M67.8,72.2c0,0-0.1,0.1,0,0.3c0,0.1,0.1,0.2,0.1,0.2c0.1,0.1,0.2,0,0.3-0.1s0.1-0.2,0.1-0.3
						c0-0.1-0.1-0.1-0.2-0.2C68,72,67.8,72.1,67.8,72.2c0-0.1,0.1-0.2,0.4-0.1c0.1,0,0.3,0.1,0.4,0.3c0.1,0.1,0,0.4-0.1,0.5
						S68,73,67.9,72.9s-0.2-0.2-0.2-0.4C67.7,72.3,67.8,72.1,67.8,72.2z"/>
				</g>
			</g>
			<g>
				<g>
					<path class="st15" d="M61.9,73.1c-0.1,0-0.2-0.4-0.1-1c0.1-0.6,0.3-1,0.4-1s-0.1,0.4-0.1,1C61.9,72.7,62,73.1,61.9,73.1z"/>
				</g>
			</g>
			<g>
				<g>
					<path class="st15" d="M63.3,73.1c-0.1,0-0.2-0.4-0.1-1c0.1-0.6,0.2-1,0.3-1s-0.1,0.4-0.1,1C63.3,72.6,63.3,73.1,63.3,73.1z"/>
				</g>
			</g>
			<g>
				<g>
					<path class="st15" d="M74.6,73.4c-0.1,0,0-0.4,0.1-1c0-0.6,0-1,0.1-1s0.1,0.4,0.1,1C74.9,72.9,74.7,73.4,74.6,73.4z"/>
				</g>
			</g>
			<g>
				<g>
					<path class="st15" d="M76.1,73.3c-0.1,0,0.1-0.5,0.1-1.1c0.1-0.6-0.1-1,0-1.1c0.1,0,0.2,0.4,0.2,1.1
						C76.4,72.8,76.1,73.3,76.1,73.3z"/>
				</g>
			</g>
		</g>
		<g>
			<g>
				<g>
					<g>
						<g>
							<g>
								<g>
									<g>
										<g>
											<g>
												<path class="st8" d="M64.2,39.7l6.8-0.5c0.1-0.8,0-3.9,0-3.9s2.8-0.4,2.8-3.3s-0.4-9.3-0.4-9.3l0,0
													c-3.3-1.4-7.1-1-9.9,1.3L63,24.3L64.2,39.7z"/>
											</g>
										</g>
									</g>
								</g>
								<g>
									<g>
										<g>
											<path class="st14" d="M70.9,35.3c0,0-1.8,0.1-3.7-1c0,0,0.9,2,3.7,1.8V35.3z"/>
										</g>
									</g>
								</g>
							</g>
						</g>
					</g>
					<g>
						<g>
							<g>
								<g>
									<path class="st8" d="M63.4,27.2c-0.1,0-1.9-0.6-1.9,1.3s2,1.5,2,1.4C63.5,29.9,63.4,27.2,63.4,27.2z"/>
								</g>
							</g>
						</g>
						<g>
							<g>
								<g>
									<g>
										<path class="st14" d="M62.9,29.2L62.9,29.2c-0.1,0.1-0.2,0.1-0.3,0.1c-0.2-0.1-0.4-0.4-0.4-0.7c0-0.1,0-0.4,0.1-0.5
											c0.1-0.1,0.1-0.2,0.2-0.3c0.1,0,0.1,0,0.2,0.1c0,0.1,0,0.1,0,0.1s0.1,0,0-0.1c0-0.1,0-0.1-0.1-0.1c-0.1,0-0.1-0.1-0.2-0.1
											c-0.1,0-0.3,0.1-0.4,0.3C62,28,62,28.2,62,28.4c0,0.4,0.2,0.7,0.5,0.8c0.1,0,0.2,0,0.3-0.1C62.9,29.3,62.9,29.2,62.9,29.2
											z"/>
									</g>
								</g>
							</g>
						</g>
					</g>
					<g>
						<g>
							<g>
								<g>
									<g>
										<g>
											<g>
												<g>
													<g>
														<path class="st9" d="M72.4,27.1c0,0.2-0.1,0.4-0.4,0.4c-0.2,0-0.4-0.1-0.4-0.4c0-0.2,0.1-0.4,0.4-0.4
															C72.2,26.7,72.4,26.9,72.4,27.1z"/>
													</g>
												</g>
											</g>
											<g>
												<g>
													<g>
														<g>
															<path class="st9" d="M72.8,26.7c-0.1,0.1-0.4-0.1-0.8-0.1c-0.4,0-0.7,0.2-0.8,0.1c0,0,0-0.1,0.1-0.2s0.4-0.2,0.7-0.2
																c0.3,0,0.5,0.1,0.6,0.2C72.8,26.6,72.8,26.6,72.8,26.7z"/>
														</g>
													</g>
												</g>
											</g>
										</g>
										<g>
											<g>
												<g>
													<g>
														<path class="st9" d="M68,27.1c0,0.2-0.1,0.4-0.4,0.4c-0.2,0-0.4-0.1-0.4-0.4c0-0.2,0.1-0.4,0.4-0.4
															C67.9,26.7,68,26.9,68,27.1z"/>
													</g>
												</g>
											</g>
											<g>
												<g>
													<g>
														<g>
															<path class="st9" d="M68.5,26.8c-0.1,0.1-0.4-0.1-0.8-0.1c-0.4,0-0.7,0.2-0.8,0.1c0,0,0-0.1,0.1-0.2s0.4-0.2,0.7-0.2
																c0.3,0,0.5,0.1,0.6,0.2C68.5,26.6,68.5,26.7,68.5,26.8z"/>
														</g>
													</g>
												</g>
											</g>
										</g>
										<g>
											<g>
												<g>
													<g>
														<path class="st9" d="M70.1,30c0,0,0.3-0.1,0.7-0.1c0.1,0,0.2,0,0.2-0.1s0-0.2-0.1-0.3c-0.1-0.3-0.2-0.5-0.3-0.8
															c-0.4-1.2-0.8-2.2-0.7-2.2c0.1,0,0.4,1,0.9,2.2c0.1,0.3,0.2,0.6,0.3,0.8c0.1,0.1,0.1,0.3,0.1,0.4
															c0,0.1-0.1,0.1-0.1,0.1s-0.1,0-0.2,0C70.3,30,70.1,30,70.1,30z"/>
													</g>
												</g>
											</g>
										</g>
										<g>
											<g>
												<g>
													<g>
														<path class="st9" d="M68.8,30.3c0.1,0,0.1,0.4,0.4,0.8c0.4,0.4,0.9,0.3,0.9,0.4c0,0-0.1,0.1-0.3,0.1
															c-0.2,0-0.5-0.1-0.7-0.3c-0.2-0.2-0.4-0.4-0.4-0.7C68.7,30.4,68.8,30.3,68.8,30.3z"/>
													</g>
												</g>
											</g>
										</g>
									</g>
								</g>
							</g>
							<g>
								<g>
									<g>
										<path class="st9" d="M68.6,25.1c-0.1,0.1-0.4,0.1-1,0.1c-0.5,0.1-0.9,0.2-1,0.1c0-0.1,0.1-0.1,0.2-0.3
											c0.1-0.1,0.4-0.2,0.7-0.2c0.3,0,0.6,0,0.7,0.1C68.5,24.9,68.6,25,68.6,25.1z"/>
									</g>
								</g>
							</g>
							<g>
								<g>
									<g>
										<path class="st9" d="M72.6,25.4c-0.1,0.1-0.4,0-0.7,0c-0.4,0-0.7,0.1-0.7,0c0-0.1,0-0.1,0.1-0.2s0.4-0.1,0.6-0.1
											c0.2,0,0.4,0.1,0.6,0.2C72.6,25.3,72.6,25.4,72.6,25.4z"/>
									</g>
								</g>
							</g>
						</g>
					</g>
				</g>
				<g>
					<g>
						<path class="st9" d="M74.7,20.9c0-0.4-0.1-0.7-0.4-1c-0.3-0.2-0.7-0.2-1,0.1c0.1-0.4-0.2-1-0.7-1c-0.4,0-0.8,0.3-1.3,0.4
							c-0.4,0.1-0.9,0-1.3-0.1s-0.8-0.4-1.3-0.5c-0.9-0.3-1.9-0.3-2.8,0.1c-0.8,0.4-1.6,1.1-1.9,2c-0.6-0.2-1.3,0.1-1.7,0.7
							c-0.4,0.5-0.4,1.2-0.4,1.9c0.1,0.4,0.1,0.8,0.3,1.3v0.1c0,1.6,0.2,3.4,0.9,3.4c1.2,0,0.9-2.2,0.9-2.2c1.4-0.5,0.9-2.7,1.3-3
							c0.4-0.3,1.1-1,4.1,0.4c1.1,0.6,2.7,0.6,3.5,0.4h0.1l0,0l0,0c0.3-0.1,0.5-0.1,0.7-0.3c0.3-0.1,0.5-0.4,0.6-0.7
							c0.1-0.3,0.1-0.7-0.1-0.9C74.5,21.6,74.7,21.3,74.7,20.9z"/>
					</g>
				</g>
			</g>
			<g>
				<g>
					<path class="st9" d="M69.4,27.1c0,0,0-0.1-0.1-0.4c-0.1-0.2-0.2-0.7-0.7-0.9c-0.4-0.3-1-0.4-1.6-0.2c-0.6,0.2-1.1,0.8-1.1,1.6
						s0.5,1.3,1.1,1.6c0.6,0.2,1.2,0.1,1.6-0.2c0.4-0.3,0.6-0.7,0.7-0.9C69.4,27.2,69.4,27.1,69.4,27.1c0,0,0,0.1,0,0.1
						c0,0.1,0,0.1,0,0.3c-0.1,0.3-0.2,0.7-0.7,1c-0.4,0.3-1,0.5-1.7,0.3c-0.7-0.2-1.3-0.9-1.2-1.7c0-0.8,0.6-1.5,1.2-1.7
						c0.7-0.2,1.3-0.1,1.7,0.3c0.4,0.3,0.6,0.7,0.7,1C69.4,26.9,69.4,27,69.4,27.1C69.4,27,69.4,27.1,69.4,27.1z"/>
				</g>
				<g>
					<path class="st9" d="M74.1,27.1c0,0,0-0.1-0.1-0.4c-0.1-0.2-0.2-0.7-0.7-0.9c-0.4-0.3-1-0.4-1.6-0.2c-0.6,0.2-1.1,0.8-1.1,1.6
						s0.5,1.3,1.1,1.6c0.6,0.2,1.2,0.1,1.6-0.2c0.4-0.3,0.6-0.7,0.7-0.9C74.1,27.2,74.1,27.1,74.1,27.1s0,0.1,0,0.1
						c0,0.1,0,0.1,0,0.3c-0.1,0.3-0.2,0.7-0.7,1c-0.4,0.3-1,0.5-1.7,0.3c-0.7-0.2-1.3-0.9-1.2-1.7c0-0.8,0.6-1.5,1.2-1.7
						c0.7-0.2,1.3-0.1,1.7,0.3c0.4,0.3,0.6,0.7,0.7,1C74.1,26.9,74.1,27,74.1,27.1C74.1,27,74.1,27.1,74.1,27.1z"/>
				</g>
				<g>
					<path class="st9" d="M70.7,26.9c0,0.1-0.3,0-0.7,0c-0.4,0-0.7,0.1-0.7,0.1c0-0.1,0.2-0.2,0.7-0.2
						C70.5,26.7,70.8,26.9,70.7,26.9z"/>
				</g>
				<g>
					<path class="st9" d="M65.9,26.9c0,0.1-0.5,0.1-1.3,0.1c-0.7,0.1-1.3,0-1.3,0c0-0.1,0.5-0.1,1.3-0.1
						C65.3,26.9,65.9,26.9,65.9,26.9z"/>
				</g>
			</g>
		</g>
		<g>
			<g>
				<g>
					<g>
						<path class="st8" d="M83.1,49.5l2.2,4l1.3-11c0.1-1.2-0.3-2-0.4-2.3c-0.1-0.3-0.3-0.6-0.5-0.9c-0.3-0.3-0.7-0.7-1-0.9
							c-0.4-0.2-0.3-0.7,0.1-0.7c0.4-0.1,1.3,0.5,2.1,1.6c0.7,1,0.8-1,0.9-1.7s0.3-3,0.5-3.2c0.4-0.2,0.7,0.1,0.6,0.8s-0.1,3,0.3,3
							c0.4,0,0.5-3.7,0.5-3.7s-0.1-0.8,0.4-0.8c0.8,0,0.4,4,0.3,4.3c-0.1,0.3,0.4,0.3,0.4,0c0-0.3,0.1-3.7,0.9-3.8
							c0.7,0-0.4,3.3,0,4s0.5-2.6,1.1-2.5c0.2,0,0.4,0.1,0.1,1.9c-0.1,1-0.8,2.5-1,4.5l-0.1,0.5C91.7,45,91.2,52.4,89,58
							c-1.3,3.4-6,3.9-8,0.8c-1.3-2.1-3.6-7.5-3.6-7.5L83.1,49.5z"/>
						<g>
							<path class="st14" d="M90.7,41c0,0-0.1,0-0.3,0.1c-0.2,0.1-0.4,0.2-0.6,0.5l-0.1,0.1l-0.1-0.1c-0.1-0.2-0.1-0.4-0.3-0.6
								c-0.3-0.4-0.7-0.7-1-0.7c-0.3-0.1-0.5-0.1-0.5-0.1c0,0,0.2-0.1,0.6,0.1c0.4,0.1,0.8,0.3,1.1,0.7c0.1,0.2,0.2,0.4,0.3,0.7
								h-0.1c0.2-0.3,0.5-0.4,0.7-0.5C90.5,40.9,90.7,41,90.7,41z"/>
						</g>
					</g>
				</g>
				<path class="st10" d="M79,41.5l6.4,12.1l1.1-10.7h5.7l-2.1,15.2c-0.2,1.7-1.4,3.1-3,3.7l0,0c-2.1,0.7-4.8-0.1-5.9-2.1l-3.7-6.3
					L79,41.5z"/>
				<g>
					<path class="st9" d="M85.8,58.5c0,0-0.2-0.2-0.4-0.7c-0.2-0.4-0.4-1.1-0.5-1.9s0-1.5,0.1-1.9c0.1-0.4,0.3-0.7,0.3-0.7
						c0.1,0-0.4,1.2-0.3,2.7S85.8,58.5,85.8,58.5z"/>
				</g>
				<g>
					<g>
						<path class="st11" d="M85.2,53.2c-0.6,0.4-1,1-1.1,1.7S83.9,56.3,84,57c0,0.2,0.1,0.4,0.1,0.6c0.1,0.1,0.4,0.3,0.5,0.2
							s0.2-0.2,0.2-0.4s-0.1-0.3-0.1-0.5C84.4,55.6,84.6,54.3,85.2,53.2"/>
					</g>
				</g>
				<g>
					<g>
						<g>
							<g>
								<path class="st10" d="M60.9,38.6c1-0.1,1.9-0.5,3-0.6l0,0c2.4,0.7,4.8,0.7,7.2,0c0.3,0,0.7,0.1,1.2,0.1
									c3.1,0.4,4.4,1,6.6,3.3l-0.2,12.7c0,0,0.7,14.5,0.7,16.8H57.9v-9.8v-2.7l-7.1,2.6l0.7-3.7c0,0,3.2-12.3,3.7-14
									C55.7,41.4,57.8,39.2,60.9,38.6z"/>
							</g>
						</g>
						<g>
							<path class="st10" d="M54,57.6L64.4,55l3,4.8l-10.5,4.4c-0.5,0.2-1.1,0.4-1.7,0.4l0,0c-1.7,0-3.3-1-4-2.6l-0.3-0.7L54,57.6z"
								/>
						</g>
						<g>
							<g>
								<path class="st9" d="M59.4,56.6c-0.1,0-0.1-1.9-0.1-4.2c0-2.3,0.1-4.2,0.1-4.2c0.1,0,0.1,1.9,0.1,4.2
									C59.5,54.7,59.5,56.6,59.4,56.6z"/>
							</g>
						</g>
					</g>
				</g>
				<g>
					<g>
						<path class="st11" d="M57.7,63.8c0.3,0.5,0.8,1,1.4,1.3c1.3,0.7,2.9,0.7,4.2,0.2c1.4-0.4,2.6-1.3,3.8-2.2
							c1.5-1.2,2.9-2.6,4.2-4.1c0.1-0.1,0.1-0.2,0.1-0.4c-0.1-0.2-0.4-0.2-0.6-0.2c-2.2,0.4-4.1,1.3-6,2.3
							C62.6,61.9,60.2,62.9,57.7,63.8"/>
					</g>
				</g>
				<g>
					<path class="st19" d="M78.1,49.4L78.1,49.4c-0.1,0.1-0.1,0.2-0.2,0.4s-0.1,0.3-0.2,0.4c-0.1,0.1-0.2,0.4-0.4,0.5
						c-0.3,0.4-0.8,0.8-1.4,1.2c-0.6,0.4-1.4,0.7-2.3,0.9c-0.9,0.1-1.9,0.1-3-0.2c-1-0.3-2.1-1-2.9-1.9c-0.8-0.9-1.6-2-1.8-3.4
						c-0.1-0.7-0.1-1.3,0-2s0.4-1.3,0.9-1.9c0.4-0.6,1-1,1.7-1.2c0.3-0.1,0.7-0.1,1-0.1c0.4,0.1,0.7,0.2,1,0.4
						c0.2,0.2,0.4,0.6,0.4,1c0,0.4-0.1,0.7-0.3,1c-0.4,0.6-1,0.8-1.6,1c-1.2,0.3-2.4,0.2-3.4-0.1s-1.9-0.7-2.7-1.3
						c-1.4-1.2-2.1-2.6-2.4-3.6c-0.3-1-0.3-1.6-0.3-1.6s0,0,0,0.1s0,0.1,0.1,0.3c0.1,0.3,0.1,0.7,0.3,1.1c0.3,1,1,2.4,2.4,3.5
						c0.7,0.6,1.6,1,2.7,1.3c1,0.3,2.2,0.3,3.4,0.1c0.6-0.1,1.2-0.4,1.5-1c0.1-0.2,0.3-0.5,0.3-0.8c0-0.3-0.1-0.6-0.4-0.8
						c-0.2-0.2-0.5-0.4-0.8-0.4c-0.3-0.1-0.7,0-1,0.1C68,42.7,67.4,43,67,43.6c-0.4,0.5-0.7,1.2-0.8,1.9c-0.1,0.7-0.1,1.3,0,1.9
						c0.2,1.3,0.9,2.4,1.7,3.3s1.9,1.5,2.8,1.8c1,0.4,2,0.4,2.9,0.2c0.9-0.1,1.6-0.4,2.3-0.9c0.6-0.4,1.1-0.8,1.4-1.2
						C77.9,49.9,78.1,49.4,78.1,49.4z"/>
				</g>
				<g>
					<path class="st19" d="M79,63.5c0,0-0.1-0.5-0.6-1.3c-0.2-0.4-0.6-0.8-1.1-1.3c-0.5-0.4-1.2-0.7-2-0.9c-0.8-0.1-1.7-0.1-2.7,0.1
						c-0.4,0.1-1,0.3-1.4,0.5c-0.4,0.2-0.9,0.5-1.3,0.9c-0.4,0.4-0.7,0.9-0.7,1.4s0.1,1.1,0.6,1.4c0.2,0.1,0.5,0.2,0.8,0.2
						c0.3,0,0.5-0.2,0.7-0.4c0.4-0.4,0.6-1,0.7-1.6c0.3-1.2,0.1-2.5-0.2-3.6c-0.4-1.1-1-2.1-1.9-2.8s-1.7-1.3-2.7-1.6
						c-0.9-0.3-1.8-0.4-2.7-0.4c-1.6,0-2.9,0.5-3.7,1c-0.4,0.2-0.7,0.4-0.9,0.5c-0.1,0.1-0.1,0.1-0.2,0.1c-0.1,0-0.1,0.1-0.1,0.1
						s0.4-0.4,1.2-0.8c0.8-0.4,2.1-1,3.8-1c0.8,0,1.8,0.1,2.7,0.4c1,0.3,1.9,0.8,2.7,1.6c0.8,0.7,1.6,1.7,1.9,2.9
						c0.4,1.1,0.5,2.5,0.2,3.7c-0.1,0.6-0.4,1.3-0.7,1.8c-0.2,0.2-0.5,0.4-0.8,0.5c-0.3,0.1-0.7-0.1-0.9-0.2
						c-0.3-0.1-0.4-0.4-0.6-0.7c-0.1-0.3-0.1-0.6-0.1-0.9c0.1-0.6,0.4-1.1,0.8-1.5c0.4-0.4,0.9-0.7,1.3-0.9c0.4-0.2,1-0.4,1.4-0.5
						c1-0.2,1.9-0.2,2.8-0.1c0.8,0.1,1.6,0.5,2.1,0.9c0.5,0.4,0.9,0.9,1.1,1.3c0.2,0.4,0.4,0.7,0.4,1C79.1,63.3,79.1,63.4,79,63.5
						L79,63.5z"/>
				</g>
				<g>
					<path class="st19" d="M59.3,51.3c0,0-0.1,0.1-0.1,0.2c-0.1,0.1-0.3,0.3-0.6,0.5c-0.3,0.2-0.6,0.4-1,0.6
						c-0.4,0.2-0.9,0.4-1.3,0.4c-1,0.2-1.9,0.1-2.6,0c-0.3-0.1-0.6-0.1-0.7-0.1c-0.1-0.1-0.3-0.1-0.3-0.1s0.4,0.1,1,0.1
						s1.6,0.1,2.5-0.1c0.5-0.1,1-0.2,1.3-0.4c0.4-0.1,0.7-0.4,1-0.6C59,51.6,59.3,51.3,59.3,51.3z"/>
				</g>
				<g>
					<path class="st19" d="M57.4,63.9c-0.1,0-0.1-0.4-0.4-1.1c-0.3-0.7-1-1.5-2.1-1.8c-1-0.4-2.1-0.1-2.8,0.2c-0.7,0.3-1,0.7-1,0.7
						s0.1-0.1,0.2-0.2c0.1-0.1,0.4-0.4,0.7-0.5c0.7-0.4,1.8-0.7,2.9-0.3c1.1,0.4,1.9,1.3,2.2,1.9c0.1,0.4,0.2,0.7,0.2,0.8
						C57.4,63.8,57.4,63.9,57.4,63.9z"/>
				</g>
				<g>
					<path class="st19" d="M80.2,57.9c0,0-0.1-0.1-0.1-0.4C80,57.3,80,57,80,56.6c0-0.4,0-0.9,0.1-1.5c0.1-0.5,0.2-1.2,0.4-1.8
						c0.2-0.6,0.5-1.2,0.8-1.6c0.3-0.4,0.6-0.9,0.9-1.2c0.3-0.3,0.5-0.5,0.7-0.7c0.1-0.1,0.3-0.2,0.3-0.2s-0.4,0.4-0.9,1
						c-0.3,0.3-0.6,0.7-0.9,1.2c-0.3,0.4-0.5,1-0.7,1.6c-0.2,0.6-0.4,1.2-0.4,1.7c-0.1,0.5-0.1,1-0.1,1.5
						C80.1,57.4,80.3,57.9,80.2,57.9z"/>
				</g>
				<g>
					<path class="st19" d="M91,50.9c0,0-0.1,0.1-0.2,0.2c-0.1,0.1-0.4,0.3-0.7,0.4c-0.6,0.2-1.6,0.3-2.6-0.2c-0.4-0.2-0.8-0.7-1-1
						c-0.2-0.4-0.3-0.8-0.4-1.1C86,48.8,86,48.5,86,48.3c0-0.2,0-0.3,0-0.3s0.1,0.4,0.2,1c0.1,0.3,0.2,0.7,0.4,1
						c0.2,0.4,0.5,0.7,1,1c0.9,0.4,1.9,0.4,2.5,0.2C90.7,51.1,91,50.8,91,50.9z"/>
				</g>
				<g>
					<path class="st19" d="M79.4,42.4c0,0-0.1,0.1-0.2,0.1c-0.1,0.1-0.4,0.2-0.8,0.2c-0.4,0.1-0.8,0.1-1.3-0.1
						c-0.4-0.1-1-0.3-1.4-0.6c-0.9-0.7-1.3-1.6-1.4-2.3c-0.1-0.4-0.1-0.7-0.1-0.8c0-0.2,0.1-0.3,0.1-0.3c0.1,0,0,0.4,0.1,1.1
						s0.6,1.6,1.4,2.2c0.4,0.3,0.9,0.5,1.3,0.6s0.8,0.1,1.2,0.1C79,42.6,79.4,42.4,79.4,42.4z"/>
				</g>
				<g>
					<g>
						<path class="st19" d="M68,70.9c0,0-0.3-0.6-1-1.5c-0.7-0.9-1.7-2-3.2-2.8c-0.7-0.4-1.5-0.7-2.2-0.8s-1.3-0.2-1.9-0.2
							c-1.1,0-1.8,0.2-1.8,0.1c0,0,0.1-0.1,0.4-0.1c0.3-0.1,0.7-0.1,1.3-0.1c0.6,0,1.3,0,1.9,0.1c0.7,0.1,1.5,0.4,2.2,0.8
							c1.6,0.8,2.6,1.9,3.3,2.9c0.3,0.4,0.5,0.9,0.7,1.1C68,70.8,68.1,70.9,68,70.9z"/>
					</g>
				</g>
				<g>
					<path class="st9" d="M78.4,47c0.1,0,0.4,5.4,0.7,11.9s0.5,11.9,0.5,11.9c-0.1,0-0.4-5.4-0.7-11.9C78.6,52.4,78.4,47.1,78.4,47z
						"/>
				</g>
			</g>
			<g>
				<g>
					<path class="st8" d="M64.4,55c1-0.5,1.6-1.3,1.8-1.6c0.1-0.3,0.4-0.6,0.5-1c0.1-0.4,0.3-1,0.3-1.3c0-0.4,0.4-0.6,0.7-0.3
						c0.2,0.3,0.3,1.4-0.2,2.6s1.3,0.2,1.9-0.1c0.7-0.4,2.8-1.3,3-1.2c0.4,0.1,0.2,0.7-0.4,1c-0.7,0.3-2.6,1.4-2.4,1.8
						c0.1,0.4,3.5-1.4,3.5-1.4s0.7-0.5,0.9-0.1c0.4,0.7-3.3,2.3-3.7,2.5c-0.2,0.1-0.1,0.5,0.2,0.4c0.3-0.1,3.3-1.9,3.7-1.1
						c0.3,0.5-3.1,1.3-3.4,2.1c-0.4,0.7,2.5-0.9,2.8-0.4c0.1,0.2,0.1,0.4-1.6,1c-1,0.4-2.6,0.5-4.4,1.3l-0.4,0.2"/>
				</g>
			</g>
			<g>
				<path class="st9" d="M57.2,64.1c0,0,0.1-0.1,0.2-0.1c0.1-0.1,0.3-0.1,0.6-0.2c0.5-0.2,1.3-0.5,2.2-0.9c1.9-0.7,4.3-1.9,7.2-3.1
					L67.4,60c-0.3-0.5-0.7-1-1-1.6c-0.7-1.1-1.4-2.2-2-3.3l0.1,0.1c-2.5,0.8-4.6,1.5-6.1,1.9c-0.7,0.2-1.3,0.4-1.8,0.5
					c-0.2,0.1-0.4,0.1-0.4,0.1c-0.1,0-0.1,0.1-0.1,0.1s0.1,0,0.1-0.1c0.1-0.1,0.3-0.1,0.4-0.1c0.4-0.1,1-0.4,1.8-0.6
					c1.5-0.5,3.7-1.2,6.1-2h0.1l0.1,0.1c0.7,1,1.3,2.1,2.1,3.3c0.3,0.5,0.7,1,1,1.6l0.1,0.1l-0.1,0.1c-2.8,1.2-5.4,2.2-7.2,3
					c-1.2,0.1-1.9,0.4-2.5,0.7c-0.2,0.1-0.4,0.1-0.6,0.2C57.3,64,57.2,64.1,57.2,64.1z"/>
			</g>
			<g>
				<path class="st9" d="M56.9,55.8c0-0.1,0.6-0.2,1.3-0.1c0.7,0.2,1.2,0.7,1.1,0.7c0,0.1-0.5-0.3-1.2-0.5
					C57.5,55.7,56.9,55.9,56.9,55.8z"/>
			</g>
		</g>
	</g>
	<g>
		<path class="st20" d="M181.6,127.7l-30.6-53.3c6.6-4.7,11.7-11.6,13.9-20.1c4.8-18.4-6-37.6-24.3-43c-19.1-5.7-39,5.4-44.3,24.4
			c-5.4,18.8,5.7,38.6,24.5,44c8,2.2,16,1.6,23.1-1.3l30.1,53.7c1.2,2.2,3.9,2.9,6,1.6l0,0C182.1,132.5,182.8,129.8,181.6,127.7z
			 M121.6,76.9C104.2,72,94,54,98.7,36.6C103.6,19.2,121.6,9,139,13.7c17.4,4.8,27.7,22.9,22.9,40.2
			C157.1,71.4,139.1,81.7,121.6,76.9z"/>
		<g>
			<path class="st0" d="M110.7,67.5C110.7,67.5,110.7,67.5,110.7,67.5c-0.1-0.1-0.2-0.2-0.4-0.3c-0.2-0.2-0.6-0.5-1-1
				c-0.9-0.9-2-2.3-3.2-4.2c-0.6-1-1.2-2-1.8-3.2c-0.6-1.2-1.1-2.5-1.6-3.9c-1-2.8-1.6-6-1.6-9.5c0-3.4,0.5-6.7,1.5-9.5
				c0.4-1.4,1-2.7,1.6-4c0.6-1.2,1.2-2.2,1.8-3.2c1.2-1.9,2.3-3.3,3.2-4.2c0.4-0.4,0.7-0.8,1-1c0.1-0.1,0.2-0.2,0.3-0.3
				s0.1-0.1,0.1-0.1s0,0-0.1,0.1c-0.1,0.1-0.1,0.1-0.2,0.3c-0.2,0.2-0.6,0.6-1,1c-0.8,1-1.9,2.4-3.1,4.2c-0.6,1-1.2,2-1.7,3.2
				c-0.5,1.2-1,2.5-1.5,3.9c-0.9,2.8-1.4,6-1.4,9.5c0.1,3.4,0.7,6.6,1.6,9.4c0.4,1.4,1,2.7,1.6,3.9c0.6,1.2,1.2,2.2,1.8,3.2
				c1.2,1.9,2.3,3.3,3.2,4.2c0.4,0.4,0.7,0.8,1,1c0.1,0.1,0.2,0.2,0.2,0.3C110.6,67.4,110.7,67.5,110.7,67.5z"/>
		</g>
		<g>
			<path class="st0" d="M121.2,17.4c0,0-0.4,0.1-1,0.4c-0.6,0.2-1.4,0.5-2.3,1c-0.9,0.4-1.6,0.8-2.2,1.2c-0.5,0.3-0.9,0.5-0.9,0.5
				s0.3-0.3,0.8-0.6c0.5-0.4,1.3-0.8,2.2-1.2c0.9-0.4,1.7-0.7,2.3-0.9C120.8,17.5,121.2,17.4,121.2,17.4z"/>
		</g>
	</g>
	<g>
		<g>
			<g>
				<g>
					<path class="st21" d="M95.8,130.5c-0.6,0.9-1.9,0.6-2.4,0.1c-0.6-0.5-0.8-1.3-1-2.1c-0.5-1.7-1-3.5-0.6-5.3
						c0.1-0.5,0.3-1,0.7-1.4c0.4-0.4,1-0.6,1.4-0.4c0.6,0.1,1,0.7,1.3,1.3c0.8,1.6,1.3,3.5,1.3,5.4
						C96.4,128.9,96.2,129.8,95.8,130.5"/>
				</g>
			</g>
		</g>
		<g>
			<g>
				<g>
					<path class="st10" d="M93.4,135.1c-1-0.5-2.2-0.6-3.4-0.4c-0.6,0.1-1.3,0.3-1.6,0.7c-0.4,0.4-0.5,1.3,0,1.6
						c0.3,0.2,0.7,0.3,1,0.3c0.9,0,1.9-0.1,2.6,0.4c0.4,0.3,0.7,0.8,1.2,1c0.4,0.1,1-0.1,1.3-0.6c0.2-0.4,0.2-1,0.1-1.4
						C94.6,136.6,94.4,135.6,93.4,135.1z"/>
				</g>
			</g>
		</g>
		<g>
			<g>
				<g>
					<path class="st10" d="M97.5,131.8c-0.7-0.8-0.8-2-0.5-3c0.3-1,1-1.9,1.8-2.5c0.9-0.8,2-1.5,3.1-1.9c0.4-0.1,1-0.3,1.4-0.2
						c0.4,0.1,1,0.3,1.2,0.7c0.3,0.7,0,1.4-0.3,2c-0.6,1.1-1.3,2.2-2.1,3.1c-0.6,0.8-1.3,1.6-2.3,1.9c-1,0.4-1.9,0.3-2.5-0.4"/>
				</g>
			</g>
		</g>
		<g>
			<g>
				<g>
					<path class="st9" d="M95.8,144c0,0,0-0.1-0.1-0.4c0-0.3-0.1-0.7-0.1-1.1c-0.1-0.4-0.1-1-0.2-1.6c-0.1-0.6-0.3-1.3-0.6-1.9
						c-0.3-0.7-0.6-1.3-1-1.7c-0.4-0.4-0.8-0.8-1.3-1c-0.4-0.2-0.8-0.3-1-0.3c-0.2,0-0.4-0.1-0.4-0.1s0.1,0,0.4,0
						c0.3,0,0.7,0.1,1.1,0.3c0.4,0.2,0.9,0.5,1.3,1c0.4,0.5,0.7,1.1,1,1.8c0.3,0.7,0.4,1.3,0.6,1.9c0.1,0.6,0.1,1.2,0.2,1.6
						c0,0.4,0.1,0.8,0.1,1.1C95.8,143.9,95.8,144,95.8,144z"/>
				</g>
			</g>
		</g>
		<g>
			<g>
				<g>
					<path class="st9" d="M95.7,143.1c0,0,0-0.1,0-0.2s0-0.3,0-0.5c0-0.4,0-1.1,0-2c-0.1-1.6-0.1-4-0.4-6.5s-0.7-4.8-1-6.4
						c-0.1-0.4-0.1-0.7-0.2-1.1c-0.1-0.3-0.1-0.6-0.2-0.8c-0.1-0.2-0.1-0.4-0.1-0.5c0-0.1-0.1-0.1,0-0.1c0,0,0,0.1,0.1,0.1
						c0.1,0.1,0.1,0.3,0.1,0.5c0.1,0.2,0.1,0.5,0.2,0.8c0.1,0.3,0.1,0.7,0.2,1.1c0.4,1.6,0.7,3.9,1,6.5c0.3,2.5,0.4,4.8,0.4,6.5
						c0,0.8,0,1.5,0,2c0,0.2,0,0.4,0,0.5C95.7,143.1,95.7,143.1,95.7,143.1z"/>
				</g>
			</g>
		</g>
		<g>
			<g>
				<g>
					<path class="st9" d="M95.7,138.7c0,0,0-0.2,0-0.6s0.1-0.9,0.1-1.5c0.1-0.7,0.2-1.4,0.5-2.2c0.2-0.8,0.5-1.7,0.9-2.6
						c0.7-1.8,1.8-3.3,2.8-4.2c0.2-0.2,0.4-0.4,0.7-0.6c0.1-0.1,0.1-0.1,0.3-0.2c0.1-0.1,0.1-0.1,0.2-0.1c0.3-0.2,0.4-0.3,0.4-0.3
						s-0.7,0.4-1.6,1.4c-0.9,1-1.9,2.4-2.7,4.2c-0.4,0.9-0.7,1.8-1,2.6c-0.2,0.8-0.4,1.6-0.5,2.2c-0.1,0.6-0.1,1.1-0.2,1.5
						C95.8,138.5,95.7,138.7,95.7,138.7z"/>
				</g>
			</g>
		</g>
	</g>
</g>
</svg>
