<?xml version="1.0" encoding="utf-8"?>
<!-- Generator: Adobe Illustrator 23.0.1, SVG Export Plug-In . SVG Version: 6.00 Build 0)  -->
<svg version="1.1" id="Layer_1" xmlns="http://www.w3.org/2000/svg" xmlns:xlink="http://www.w3.org/1999/xlink" x="0px" y="0px"
	 width="540px" height="370px" viewBox="0 0 540 370" style="enable-background:new 0 0 540 370;" xml:space="preserve">
<style type="text/css">
	.st0{fill:#FCF8F7;}
	.st1{fill:#FBF2F1;}
	.st2{fill:#F4D4CF;}
	.st3{opacity:0.15;}
	.st4{fill:#F7E3E0;}
	.st5{fill:#FDF9F8;}
	.st6{fill:#801608;}
	.st7{fill:#AC2A1C;}
	.st8{fill:#E06657;}
	.st9{fill:#6F1508;}
	.st10{fill:#F5F5F5;}
	.st11{clip-path:url(#SVGID_2_);}
	.st12{clip-path:url(#SVGID_4_);}
	.st13{fill:#481107;}
	.st14{clip-path:url(#SVGID_6_);}
	.st15{fill:#6A1508;}
	.st16{clip-path:url(#SVGID_8_);}
	.st17{fill:#A21F11;}
	.st18{clip-path:url(#SVGID_10_);}
	.st19{fill:#BD3A2B;}
	.st20{clip-path:url(#SVGID_12_);}
	.st21{fill:#D75445;}
	.st22{opacity:0.6;}
	.st23{fill:#FFFFFF;}
	.st24{fill:#EFC1BB;}
	.st25{fill:#263238;}
	.st26{fill:#EDB6AF;}
	.st27{fill:#8C1708;}
	.st28{fill:#771608;}
	.st29{fill:#9D1B0C;}
</style>
<path class="st0" d="M494.7,368.7c0,0,103.5-158.9-6-202.2c-27.6-10.9-37.2-163.6-159.8-87.3c-48.7,30.4-118.9-6.4-186.1,13.7
	c-61.7,18.4-63.1,71.7-55.3,90.8c8.5,20.9-25.5,46-60.3,63.1c-54.6,27-14.4,121.4,37.2,121.8C115.9,368.9,494.7,368.7,494.7,368.7z"
	/>
<g>
	<g id="Background_Complete">
		<g>
			<g>
				<g>
					<g>
						<g>
							<rect x="219.3" y="284.1" class="st1" width="113.1" height="52.2"/>
						</g>
					</g>
				</g>
				<g>
					<g>
						<path class="st2" d="M329.6,333.7H221.9v-47h107.7V333.7z M222.6,333h106.4v-45.5H222.6V333z"/>
					</g>
				</g>
				<g>
					<g>
						<g>
							<rect x="332.4" y="283.9" class="st2" width="27.7" height="52.2"/>
						</g>
					</g>
				</g>
				<g>
					<g>
						<g>
							<path class="st2" d="M222.3,301.2c12.1,0,24.1,0,36.4,0c19.1,0,38.3,0,57.4,0c4.5,0,8.9,0,13.4,0c0.2,0,0.2-0.4,0-0.4
								c-12.1,0-24.1,0-36.4,0c-19.1,0-38.3,0-57.4,0c-4.5,0-8.9,0-13.4,0C222.1,301,222.1,301.2,222.3,301.2L222.3,301.2z"/>
						</g>
					</g>
				</g>
				<g>
					<g>
						<g>
							<path class="st2" d="M276.1,301.2c0.4-4.6,0.4-9.5,0-14.1c0-0.2-0.2-0.2-0.4,0c-0.2,4.6-0.4,9.5,0,14.1
								C275.9,301.2,276.1,301.2,276.1,301.2L276.1,301.2z"/>
						</g>
					</g>
				</g>
				<g>
					<g>
						<g>
							<path class="st2" d="M304.9,294.2c0,0.7-0.7,1.5-1.5,1.5c-0.7,0-1.5-0.7-1.5-1.5c0-0.7,0.7-1.5,1.5-1.5
								C304.4,292.7,304.9,293.2,304.9,294.2z"/>
						</g>
					</g>
				</g>
				<g>
					<g>
						<g>
							<path class="st2" d="M248.8,294.2c0,0.7-0.7,1.5-1.5,1.5s-1.5-0.7-1.5-1.5c0-0.7,0.7-1.5,1.5-1.5
								C248.1,292.7,248.8,293.2,248.8,294.2z"/>
						</g>
					</g>
				</g>
				<g class="st3">
					<g>
						<path class="st2" d="M277.2,310.3c0,0.7-0.7,1.5-1.5,1.5s-1.5-0.7-1.5-1.5s0.7-1.5,1.5-1.5
							C276.7,308.8,277.2,309.4,277.2,310.3z"/>
					</g>
				</g>
				<g>
					<g>
						<g>
							<polygon class="st2" points="232.9,336.1 227.1,368.8 230.3,368.8 241,336.1 							"/>
						</g>
					</g>
				</g>
				<g>
					<g>
						<g>
							<polygon class="st2" points="324.4,336.1 329.2,368.8 325.9,368.8 316.2,336.1 							"/>
						</g>
					</g>
				</g>
				<g>
					<g>
						<g>
							<polygon class="st2" points="346.1,336.1 351.7,368.8 348.4,368.8 338,336.1 							"/>
						</g>
					</g>
				</g>
				<g>
					<g>
						<g>
							<path class="st2" d="M277.2,325c0,0.7-0.7,1.5-1.5,1.5s-1.5-0.7-1.5-1.5c0-0.7,0.7-1.5,1.5-1.5S277.2,324.2,277.2,325z"/>
						</g>
					</g>
				</g>
				<g>
					<g>
						<g>
							<path class="st2" d="M222.3,317.4c12.1,0,24.1,0,36.4,0c19.1,0,38.3,0,57.4,0c4.5,0,8.9,0,13.4,0c0.2,0,0.2-0.4,0-0.4
								c-12.1,0-24.1,0-36.4,0c-19.1,0-38.3,0-57.4,0c-4.5,0-8.9,0-13.4,0C222.1,317.2,222.1,317.4,222.3,317.4L222.3,317.4z"/>
						</g>
					</g>
				</g>
			</g>
		</g>
		<rect x="41.2" y="67.4" class="st4" width="45.3" height="60.7"/>
		<rect x="43.6" y="69.8" class="st5" width="40.7" height="56.1"/>
		<rect x="56.8" y="89.1" class="st4" width="15.4" height="17.6"/>
		<g>
			<g>
				<g>
					<g>
						<g>
							<g>
								<polygon class="st4" points="293.6,254.4 290.6,283 330.2,283 333.3,254.4 								"/>
							</g>
						</g>
					</g>
				</g>
				<g>
					<g>
						<g>
							<g>
								<polygon class="st5" points="295.3,256.5 292.3,281.5 327.9,281.5 330.9,256.5 								"/>
							</g>
						</g>
					</g>
				</g>
				<g>
					<g>
						<g>
							<g>
								<polygon class="st2" points="301.2,260.7 299.3,277.4 322,277.4 323.1,260.7 								"/>
							</g>
						</g>
					</g>
				</g>
			</g>
		</g>
		<polyline class="st1" points="332,266.9 340.2,283.2 330.2,283 332.2,265.7 		"/>
	</g>
	<g id="Floor">
		<g>
			<g>
				<path class="st6" d="M497.1,368.8c0,0.2-33.4,0.2-184.4,0.2c-150.8,0-273.2-0.2-273.2-0.2s122.4-0.2,273.4-0.2
					C463.7,368.4,497.1,368.6,497.1,368.8z"/>
			</g>
		</g>
	</g>
	<g id="Loading">
		<g>
			<g>
				<g>
					<g>
						<g>
							<rect x="94.3" y="23.9" class="st4" width="326.9" height="215.2"/>
						</g>
					</g>
					<g>
						<g>
							<path class="st7" d="M421.2,239.2c0-1.5,0-83.9-0.2-215.2l0.2,0.2c-89.7,0-203.5,0-326.9,0l0,0l0.2-0.2
								c0,76.5,0,149.3,0,215.2l-0.2-0.2C286.7,239,419.3,239.2,421.2,239.2c-1.9,0-134.5,0-326.9,0.2h-0.2v-0.2
								c0-65.7,0-138.5,0-215.2v-0.2h0.2l0,0c123.3,0,237.2,0,326.9,0h0.2v0.2C421.2,155.2,421.2,237.7,421.2,239.2z"/>
						</g>
					</g>
				</g>
				<g>
					<g>
						<path class="st7" d="M421.2,43.1c0,0.2-73.2,0.2-163.4,0.2S94.3,43.1,94.3,43.1c0-0.2,73.2-0.2,163.4-0.2
							S421.2,43.1,421.2,43.1z"/>
					</g>
				</g>
			</g>
			<g>
				<g>
					<rect x="124.8" y="75" class="st2" width="273.9" height="37.5"/>
				</g>
			</g>
			<g>
				<g>
					<g>
						<rect x="117.7" y="178.1" class="st2" width="60.9" height="60.9"/>
					</g>
				</g>
			</g>
			<g>
				<g>
					<g>
						<rect x="189.6" y="178.1" class="st2" width="60.9" height="60.9"/>
					</g>
				</g>
			</g>
			<g>
				<g>
					<rect x="259.4" y="178.1" class="st2" width="60.9" height="60.9"/>
				</g>
			</g>
			<g>
				<g>
					<g>
						<path class="st8" d="M228.8,152.3h-65.9c-5.6,0-10-4.5-10-10l0,0c0-5.6,4.5-10,10-10h65.9c5.6,0,10,4.5,10,10l0,0
							C238.8,147.8,234.3,152.3,228.8,152.3z"/>
					</g>
				</g>
				<g>
					<g>
						<path class="st7" d="M305.8,152.3c0,0,0.4,0,0.9,0c0.4,0,0.7-0.2,1.1-0.2c0.4-0.2,0.9-0.2,1.5-0.4c1.1-0.4,2.4-1.1,3.5-2.2
							c1.1-1.1,2.2-3,2.8-5c0.4-2,0.2-4.6-1.1-7.1c-1.3-2.2-3.7-4.3-6.9-4.8c-1.5-0.2-3.2-0.2-4.8-0.2s-3.3,0-5.2,0
							c-3.5,0-7.2,0-11.3,0c-31.6,0-75.2,0-123.5,0c-3,0-5.8,1.3-7.6,3.7c-1.9,2.2-2.6,5.4-2,8.2c0.6,2.8,2.4,5.2,5,6.7
							c1.3,0.7,2.6,1.1,4.1,1.1c1.5,0,2.8,0,4.3,0c11.3,0,22.3,0,32.7,0c20.8,0,39.7,0,55.5,0s28.6,0,37.3,0c4.5,0,7.8,0,10.2,0
							c1.1,0,2,0,2.6,0C305.7,152.3,305.8,152.3,305.8,152.3s-0.4,0-0.9,0s-1.5,0-2.6,0c-2.4,0-5.8,0-10.2,0c-8.9,0-21.5,0-37.3,0
							s-34.5,0-55.5,0c-10.4,0-21.4,0-32.7,0c-1.5,0-2.8,0-4.3,0c-1.5,0-3-0.6-4.3-1.1c-2.6-1.5-4.6-4.1-5.2-6.9
							c-0.6-3,0.2-6.1,2-8.5c1.9-2.4,5-3.9,8-3.9c48.3,0,91.9,0,123.5,0c3.9,0,7.8,0,11.3,0c1.9,0,3.5,0,5.2,0
							c1.7,0,3.3-0.2,4.8,0.2c3.2,0.6,5.8,2.6,7.1,4.8c1.3,2.4,1.7,5,1.1,7.2c-0.6,2.2-1.7,3.9-2.8,5.2c-1.3,1.1-2.6,1.9-3.7,2.2
							c-0.6,0.2-1.1,0.4-1.5,0.4c-0.4,0-0.7,0.2-1.1,0.2C306.2,152.3,305.8,152.3,305.8,152.3z"/>
					</g>
				</g>
			</g>
			<g>
				<path class="st7" d="M218,159.3h0.7l-0.9,4.6h2.8l-0.2,0.7h-3.5L218,159.3z"/>
				<path class="st7" d="M221.2,162.9c0-1.3,0.9-2.4,2.4-2.4c1.1,0,1.9,0.7,1.9,1.7c0,1.3-0.9,2.4-2.4,2.4
					C221.9,164.5,221.2,164,221.2,162.9z M224.7,162.3c0-0.7-0.4-1.1-1.1-1.1c-0.9,0-1.5,0.7-1.5,1.7c0,0.7,0.4,1.1,1.1,1.1
					S224.7,163.2,224.7,162.3z"/>
				<path class="st7" d="M230.4,160.6l-0.7,3.9H229l0.2-0.6c-0.4,0.4-0.7,0.6-1.5,0.6c-0.9,0-1.7-0.6-1.7-1.7c0-1.3,0.9-2.4,2.2-2.4
					c0.7,0,1.1,0.2,1.5,0.7l0.2-0.7h0.6V160.6z M229.3,162.3c0-0.7-0.4-1.1-1.1-1.1c-0.9,0-1.5,0.7-1.5,1.7c0,0.7,0.4,1.1,1.1,1.1
					C228.8,164,229.3,163.2,229.3,162.3z"/>
				<path class="st7" d="M236,159l-1.1,5.6h-0.7l0.2-0.6c-0.4,0.4-0.7,0.6-1.5,0.6c-0.9,0-1.7-0.6-1.7-1.7c0-1.3,0.9-2.4,2.2-2.4
					c0.7,0,1.1,0.2,1.5,0.7l0.4-2.2H236z M234.5,162.3c0-0.7-0.4-1.1-1.1-1.1c-0.9,0-1.5,0.7-1.5,1.7c0,0.7,0.4,1.1,1.1,1.1
					C234,164,234.5,163.2,234.5,162.3z"/>
				<path class="st7" d="M236.9,160.6h0.7l-0.7,3.9h-0.7L236.9,160.6z M237.1,159.3c0-0.2,0.2-0.6,0.6-0.6c0.2,0,0.4,0.2,0.4,0.4
					c0,0.4-0.2,0.6-0.6,0.6C237.3,159.9,237.1,159.5,237.1,159.3z"/>
				<path class="st7" d="M242.5,161.9c0,0.2,0,0.4,0,0.6l-0.4,2.2h-0.7l0.4-2.2c0-0.2,0-0.2,0-0.4c0-0.6-0.4-0.7-0.9-0.7
					c-0.7,0-1.3,0.4-1.5,1.3l-0.4,2h-0.7l0.7-3.9h0.7l-0.2,0.6c0.4-0.4,0.9-0.6,1.5-0.6C242,160.4,242.5,161,242.5,161.9z"/>
				<path class="st7" d="M248.1,160.6l-0.7,3.5c-0.4,1.5-1.1,2-2.4,2c-0.7,0-1.3-0.2-1.9-0.6l0.4-0.6c0.4,0.4,0.9,0.6,1.5,0.6
					c0.9,0,1.5-0.4,1.7-1.3V164c-0.4,0.4-0.9,0.6-1.5,0.6c-1.1,0-1.9-0.6-1.9-1.7c0-1.3,0.9-2.2,2.2-2.2c0.7,0,1.3,0.2,1.5,0.7
					l0.2-0.7C247.2,160.6,248.1,160.6,248.1,160.6z M247,162.1c0-0.6-0.4-1.1-1.1-1.1c-0.9,0-1.5,0.7-1.5,1.5c0,0.6,0.4,1.1,1.1,1.1
					C246.2,163.8,247,163,247,162.1z"/>
				<path class="st7" d="M250.3,164.2c0-0.4,0.2-0.6,0.6-0.6c0.2,0,0.6,0.2,0.6,0.6c0,0.4-0.2,0.6-0.6,0.6
					C250.5,164.5,250.3,164.3,250.3,164.2z"/>
				<path class="st7" d="M252,164.2c0-0.4,0.2-0.6,0.6-0.6c0.2,0,0.6,0.2,0.6,0.6c0,0.4-0.2,0.6-0.6,0.6
					C252.2,164.5,252,164.3,252,164.2z"/>
				<path class="st7" d="M253.7,164.2c0-0.4,0.2-0.6,0.6-0.6c0.2,0,0.6,0.2,0.6,0.6c0,0.4-0.2,0.6-0.6,0.6
					C254,164.5,253.7,164.3,253.7,164.2z"/>
			</g>
			<g>
				<g>
					<path class="st9" d="M106.8,34.5c0,1.3-1.1,2.4-2.4,2.4c-1.3,0-2.4-1.1-2.4-2.4c0-1.3,1.1-2.4,2.4-2.4
						C105.6,32.1,106.8,33.2,106.8,34.5z"/>
				</g>
			</g>
			<g>
				<path class="st9" d="M117,34.5c0,1.3-1.1,2.4-2.4,2.4s-2.4-1.1-2.4-2.4c0-1.3,1.1-2.4,2.4-2.4S117,33.2,117,34.5z"/>
			</g>
			<g>
				<g>
					<path class="st9" d="M127.2,34.5c0,1.3-1.1,2.4-2.4,2.4s-2.4-1.1-2.4-2.4c0-1.3,1.1-2.4,2.4-2.4
						C126.1,32.1,127.2,33.2,127.2,34.5z"/>
				</g>
			</g>
		</g>
	</g>
	<g id="Character">
		<g>
			<g>
				<g>
					<g>
						<circle class="st10" cx="362.9" cy="115.5" r="114"/>
					</g>
					<g>
						<g>
							<path class="st7" d="M477.1,115.5c0,0,0-0.6,0-1.9c0-0.6,0-1.3,0-2.2s0-2-0.2-3.2c-0.2-1.1-0.2-2.6-0.4-3.9
								c-0.2-1.5-0.4-3-0.6-4.8c-0.6-3.5-1.3-7.4-2.2-11.9c-1.1-4.5-2.6-9.3-4.6-14.3c-2-5.2-4.6-10.6-8-16c-6.7-11-16-22.5-29-32.3
								c-6.5-5-13.7-9.3-21.7-13c-8-3.7-16.9-6.5-26.2-8.4C374.9,2,364.9,1.3,354.9,2c-5,0.4-10.2,1.1-15.2,2
								c-5,1.1-10.2,2.6-15.2,4.3c-5,1.9-10,4.1-14.9,6.7s-9.5,5.6-14.1,8.9c-4.5,3.3-8.7,7.1-12.8,11.1c-4.1,4.1-7.8,8.5-11.3,13.2
								s-6.5,9.7-9.3,14.9c-0.7,1.3-1.5,2.6-2,3.9c-0.6,1.3-1.3,2.8-1.9,4.1c-1.1,2.8-2.2,5.6-3.2,8.4c-1.9,5.8-3.3,11.5-4.3,17.6
								c-0.9,5.9-1.5,12.1-1.5,18.4c0,6.1,0.6,12.3,1.5,18.4c0.9,5.9,2.4,11.9,4.3,17.6l0.7,2l0.4,1.1l0.4,1.1
								c0.6,1.5,1.1,2.8,1.7,4.1c0.6,1.3,1.3,2.8,1.9,4.1c0.6,1.3,1.3,2.6,2,3.9c2.8,5.2,5.8,10.2,9.3,14.9
								c3.5,4.6,7.2,9.1,11.3,13.2c4.1,4.1,8.4,7.8,12.8,11.1c4.5,3.3,9.3,6.3,14.1,8.9c4.8,2.6,9.8,4.8,14.9,6.7s10.2,3.3,15.2,4.3
								c5.2,0.9,10.2,1.9,15.2,2c10,0.7,20.1,0.2,29.3-1.7c9.3-1.7,18.2-4.6,26.2-8.4c8-3.7,15.4-8.2,21.7-13
								c12.8-9.8,22.3-21.4,29-32.3c3.3-5.6,5.9-11,8-16c2-5,3.5-10,4.6-14.3c1.1-4.5,1.9-8.4,2.2-11.9c0.2-1.7,0.4-3.3,0.6-4.8
								c0.2-1.5,0.2-2.8,0.4-3.9c0.2-1.1,0.2-2.2,0.2-3.2s0-1.7,0-2.2C477.1,116.1,477.1,115.5,477.1,115.5s0,0.6,0,1.9
								c0,0.6,0,1.3,0,2.2s0,2-0.2,3.2c0,1.1-0.2,2.6-0.4,3.9c-0.2,1.5-0.4,3-0.6,4.8c-0.6,3.5-1.3,7.4-2.2,11.9
								c-1.1,4.5-2.6,9.3-4.6,14.3c-2,5.2-4.6,10.6-8,16.2c-6.5,11.1-16,22.7-29,32.5c-6.5,5-13.7,9.5-21.7,13
								c-8,3.7-16.9,6.7-26.2,8.4c-9.5,1.7-19.3,2.4-29.5,1.7c-5-0.4-10.2-1.1-15.2-2c-5.2-1.1-10.2-2.6-15.2-4.3
								c-5-1.9-10-4.1-14.9-6.7c-4.8-2.6-9.7-5.6-14.1-8.9c-4.5-3.3-8.7-7.1-12.8-11.1c-4.1-4.1-7.8-8.5-11.3-13.2
								c-3.5-4.6-6.5-9.7-9.3-15c-0.7-1.3-1.5-2.6-2-4.1c-0.6-1.3-1.3-2.8-1.9-4.1c-0.6-1.5-1.1-2.8-1.7-4.3l-0.4-1.1l-0.4-1.1
								l-0.7-2.2c-1.9-5.8-3.3-11.7-4.3-17.6c-0.9-6.1-1.5-12.3-1.5-18.4c0-6.1,0.6-12.4,1.5-18.4c0.9-6.1,2.4-11.9,4.3-17.6
								c0.9-3,2-5.6,3.2-8.4c0.6-1.3,1.3-2.8,1.9-4.1c0.6-1.3,1.3-2.6,2-4.1c2.8-5.2,5.8-10.4,9.3-15s7.2-9.1,11.3-13.2
								c4.1-4.1,8.4-7.8,12.8-11.1c4.5-3.3,9.3-6.3,14.1-8.9s9.8-4.8,14.9-6.7s10.2-3.3,15.2-4.3c5.2-0.9,10.2-1.9,15.2-2
								c10.2-0.7,20.1,0,29.5,1.7c9.5,1.7,18.2,4.6,26.2,8.4c8,3.7,15.4,8.2,21.7,13c13,9.8,22.5,21.5,29,32.5
								c3.3,5.6,5.9,11,8,16.2c2,5.2,3.5,10,4.6,14.3c1.1,4.5,1.9,8.4,2.2,11.9c0.2,1.7,0.4,3.3,0.6,4.8c0.2,1.5,0.2,2.8,0.4,4.1
								c0.2,1.1,0.2,2.2,0.2,3.2s0,1.7,0,2.2C477.1,114.9,477.1,115.5,477.1,115.5z"/>
						</g>
					</g>
				</g>
				<g>
					<g>
						<defs>
							<path id="SVGID_1_" d="M317.2,155.2c-10.4-11-16.7-25.8-16.7-42c0-33.8,27.5-61.3,61.3-61.3S423,79.5,423,113.3
								c0,16.9-6.9,32.3-18,43.3l30.8,30.1c18.9-18.8,30.6-44.8,30.6-73.4C466.5,56.1,420.1,9.8,363,9.8
								c-57.2,0-103.4,46.4-103.4,103.4c0,28.2,11.3,53.9,29.7,72.4L317.2,155.2z"/>
						</defs>
						<clipPath id="SVGID_2_">
							<use xlink:href="#SVGID_1_"  style="overflow:visible;"/>
						</clipPath>
						<g class="st11">
							<g>
								<path class="st8" d="M317.2,155.2c-10.4-11-16.7-25.8-16.7-42c0-33.8,27.5-61.3,61.3-61.3S423,79.5,423,113.3
									c0,16.9-6.9,32.3-18,43.3l30.8,30.1c18.9-18.8,30.6-44.8,30.6-73.4C466.5,56.1,420.1,9.8,363,9.8
									c-57.2,0-103.4,46.4-103.4,103.4c0,28.2,11.3,53.9,29.7,72.4L317.2,155.2z"/>
							</g>
						</g>
					</g>
					<g>
						<defs>
							<path id="SVGID_3_" d="M317.2,155.2c-10.4-11-16.7-25.8-16.7-42c0-33.8,27.5-61.3,61.3-61.3S423,79.5,423,113.3
								c0,16.9-6.9,32.3-18,43.3l30.8,30.1c18.9-18.8,30.6-44.8,30.6-73.4C466.5,56.1,420.1,9.8,363,9.8
								c-57.2,0-103.4,46.4-103.4,103.4c0,28.2,11.3,53.9,29.7,72.4L317.2,155.2z"/>
						</defs>
						<clipPath id="SVGID_4_">
							<use xlink:href="#SVGID_3_"  style="overflow:visible;"/>
						</clipPath>
						<g class="st12">
							<g>
								<path class="st13" d="M417.1,112.7h55.7c0,0-5.6,45.3-6.7,46.2c-1.1,0.9-34,38.8-34,38.8l-37.5-44.4L417.1,112.7z"/>
							</g>
						</g>
					</g>
					<g>
						<defs>
							<path id="SVGID_5_" d="M317.2,155.2c-10.4-11-16.7-25.8-16.7-42c0-33.8,27.5-61.3,61.3-61.3S423,79.5,423,113.3
								c0,16.9-6.9,32.3-18,43.3l30.8,30.1c18.9-18.8,30.6-44.8,30.6-73.4C466.5,56.1,420.1,9.8,363,9.8
								c-57.2,0-103.4,46.4-103.4,103.4c0,28.2,11.3,53.9,29.7,72.4L317.2,155.2z"/>
						</defs>
						<clipPath id="SVGID_6_">
							<use xlink:href="#SVGID_5_"  style="overflow:visible;"/>
						</clipPath>
						<g class="st14">
							<g>
								<polygon class="st15" points="402,75.2 441.4,36.6 469.3,78 473,112.7 417.8,112.7 407.8,90.6 								"/>
							</g>
						</g>
					</g>
					<g>
						<defs>
							<path id="SVGID_7_" d="M317.2,155.2c-10.4-11-16.7-25.8-16.7-42c0-33.8,27.5-61.3,61.3-61.3S423,79.5,423,113.3
								c0,16.9-6.9,32.3-18,43.3l30.8,30.1c18.9-18.8,30.6-44.8,30.6-73.4C466.5,56.1,420.1,9.8,363,9.8
								c-57.2,0-103.4,46.4-103.4,103.4c0,28.2,11.3,53.9,29.7,72.4L317.2,155.2z"/>
						</defs>
						<clipPath id="SVGID_8_">
							<use xlink:href="#SVGID_7_"  style="overflow:visible;"/>
						</clipPath>
						<g class="st16">
							<g>
								<path class="st17" d="M365.5,61.3c-0.7-1.1,0-55.7,0-55.7l34,4.3L441,36.8l-40.1,39.4l-25.3-3.7L365.5,61.3z"/>
							</g>
						</g>
					</g>
					<g>
						<defs>
							<path id="SVGID_9_" d="M317.2,155.2c-10.4-11-16.7-25.8-16.7-42c0-33.8,27.5-61.3,61.3-61.3S423,79.5,423,113.3
								c0,16.9-6.9,32.3-18,43.3l30.8,30.1c18.9-18.8,30.6-44.8,30.6-73.4C466.5,56.1,420.1,9.8,363,9.8
								c-57.2,0-103.4,46.4-103.4,103.4c0,28.2,11.3,53.9,29.7,72.4L317.2,155.2z"/>
						</defs>
						<clipPath id="SVGID_10_">
							<use xlink:href="#SVGID_9_"  style="overflow:visible;"/>
						</clipPath>
						<g class="st18">
							<g>
								<path class="st19" d="M284.5,38.8c0.9,0.4,37.5,39.4,37.5,39.4l32.7-13l10.4-13l0.4-46.6l-39,4.3L284.5,38.8z"/>
							</g>
						</g>
					</g>
					<g>
						<defs>
							<path id="SVGID_11_" d="M317.2,155.2c-10.4-11-16.7-25.8-16.7-42c0-33.8,27.5-61.3,61.3-61.3S423,79.5,423,113.3
								c0,16.9-6.9,32.3-18,43.3l30.8,30.1c18.9-18.8,30.6-44.8,30.6-73.4C466.5,56.1,420.1,9.8,363,9.8
								c-57.2,0-103.4,46.4-103.4,103.4c0,28.2,11.3,53.9,29.7,72.4L317.2,155.2z"/>
						</defs>
						<clipPath id="SVGID_12_">
							<use xlink:href="#SVGID_11_"  style="overflow:visible;"/>
						</clipPath>
						<g class="st20">
							<g>
								<path class="st21" d="M255.7,112.7c0.9,0.6,61.8,0,61.8,0l-1.1-40.1l-29.5-31.2l-20.1,24L255.7,112.7z"/>
							</g>
						</g>
					</g>
				</g>
				<g>
					<g>
						<circle class="st2" cx="364.2" cy="115.5" r="23.8"/>
					</g>
				</g>
				<g>
					<g>
						<path class="st7" d="M357.1,117.2L357.1,117.2c1.1,3.5,4.8,5.6,8.4,4.6l82.6-23.6l-85.2,10.2C358.6,109,356,113.1,357.1,117.2
							z"/>
					</g>
				</g>
			</g>
			<g>
				<path class="st9" d="M351.3,166.9l-4.5,23h-5.9l2.4-12.1l-7.6,9.8H333l-4.3-9.8l-2.4,12.1H320l4.6-23h5.4l5.4,13.4l10.4-13.4
					H351.3z"/>
				<path class="st9" d="M373.6,172.1l-3.5,17.8h-5.9l0.4-1.7c-1.3,1.3-3.2,2-5.2,2c-3.9,0-7.6-3-7.6-8.2c0-5.9,4.3-10.4,9.7-10.4
					c2.4,0,4.3,0.7,5.4,2.4l0.4-2.2h6.5V172.1z M365.8,180.3c0-2-1.3-3.3-3.3-3.3c-2.4,0-4.3,2-4.3,5c0,2,1.3,3.3,3.3,3.3
					C364,185.1,365.8,183.3,365.8,180.3z"/>
				<path class="st9" d="M387.6,181.1l4.8,8.9h-6.7l-2.4-4.6L379,190H372l8.9-9.1l-4.6-8.7h6.5l2.4,4.5l4.3-4.5h6.9L387.6,181.1z"/>
				<path class="st9" d="M394.1,186.8c0-2.4,1.9-3.9,4.1-3.9c2,0,3.5,1.3,3.5,3.3c0,2.4-1.9,3.9-3.9,3.9
					C395.5,190.3,394.1,188.9,394.1,186.8z"/>
			</g>
			<g>
				<g>
					<g>
						<polygon class="st8" points="487.3,350.6 491,356.7 500.5,345.8 495.5,340.6 						"/>
					</g>
				</g>
				<g>
					<g>
						<path class="st7" d="M499.5,344.7c0,0-0.4,0.7-1.3,1.7c-0.7,0.9-2,2.4-3.3,3.7c-1.3,1.3-2.4,2.6-3.5,3.7
							c-0.9,0.9-1.5,1.5-1.5,1.5s0.4-0.7,1.3-1.7c0.7-0.9,2-2.2,3.3-3.7c1.3-1.3,2.4-2.6,3.5-3.7C499,345.2,499.5,344.7,499.5,344.7
							z"/>
					</g>
				</g>
				<g>
					<g>
						<path class="st7" d="M491,345.2c0,0,1.1,0.7,2.2,2c1.1,1.1,2,2.2,2,2.2s-1.1-0.7-2.2-2C491.7,346.3,490.8,345.4,491,345.2z"/>
					</g>
				</g>
				<g class="st22">
					<polyline class="st23" points="491,356.7 500.5,345.8 499.5,344.9 489.9,355.4 491,356.6 					"/>
				</g>
			</g>
			<g>
				<g>
					<g>
						<g>
							<g>
								<g>
									<g>
										<path class="st8" d="M413.2,364.9v-1.5l14.9,0.2v4.8h-0.9c-4.1,0.2-20.8,0.7-23.4-0.2
											C400.6,367.5,413.2,364.9,413.2,364.9z"/>
									</g>
								</g>
							</g>
						</g>
						<g>
							<g>
								<g>
									<g>
										<path class="st24" d="M422.7,368.3c0.2-1.1,0.9-2.2,1.9-3c0.9-0.7,2.2-1.1,3.5-0.9v3.9H422.7z"/>
									</g>
								</g>
							</g>
						</g>
					</g>
					<g>
						<g>
							<g>
								<path class="st24" d="M407.1,366.4c0,0-4.5,1.1-3.9,1.9c0.6,0.7,17.5,0.7,24.9,0.2v-0.4h-19.7
									C408.4,368.3,408,366.4,407.1,366.4z"/>
							</g>
						</g>
					</g>
					<g>
						<g>
							<g>
								<g>
									<path class="st7" d="M428.2,368.1c0,0,0,0-0.2,0s-0.4,0-0.7,0c-0.7,0-1.7,0-2.6,0.2c-2.2,0-5.4,0.2-8.9,0.2
										c-3.5,0-6.7-0.2-8.9-0.2c-1.1,0-2,0-2.6-0.2c-0.2,0-0.6,0-0.7,0c-0.2,0-0.2,0-0.2,0s0,0,0.2,0s0.4,0,0.7,0
										c0.7,0,1.7,0,2.6,0c2.2,0,5.4,0.2,8.9,0.2c3.5,0,6.7,0,8.9,0c1.1,0,2,0,2.6,0c0.2,0,0.6,0,0.7,0
										C428.2,368.1,428.2,368.1,428.2,368.1z"/>
								</g>
							</g>
						</g>
					</g>
					<g>
						<g>
							<g>
								<g>
									<path class="st7" d="M408.4,368.4c0,0,0-0.6-0.6-1.1c-0.4-0.6-0.9-0.9-0.9-0.9s0.6,0.2,1.1,0.9
										C408.4,367.7,408.4,368.4,408.4,368.4z"/>
								</g>
							</g>
						</g>
					</g>
					<g>
						<g>
							<g>
								<g>
									<path class="st7" d="M412.8,366.4c0,0-0.2-0.2-0.4-0.6c-0.2-0.4-0.4-0.6-0.4-0.6s0.2,0.2,0.4,0.6
										C412.6,366,412.8,366.4,412.8,366.4z"/>
								</g>
							</g>
						</g>
					</g>
					<g>
						<g>
							<g>
								<g>
									<path class="st7" d="M413.9,365.8c0,0-0.2-0.2-0.6-0.4c-0.2-0.2-0.4-0.4-0.4-0.4s0.2,0.2,0.6,0.4
										C413.7,365.5,413.9,365.7,413.9,365.8z"/>
								</g>
							</g>
						</g>
					</g>
					<g>
						<g>
							<g>
								<g>
									<path class="st7" d="M414.7,364.5c0,0-0.4,0-0.7,0s-0.7,0-0.7,0s0.4,0,0.7,0C414.3,364.4,414.7,364.4,414.7,364.5z"/>
								</g>
							</g>
						</g>
					</g>
					<g>
						<g>
							<g>
								<g>
									<path class="st25" d="M415,363.6c0,0-0.4,0.2-0.9,0.2c-0.6,0-0.9,0-0.9-0.2c0,0,0.4,0,0.9,0
										C414.5,363.6,415,363.4,415,363.6z"/>
								</g>
							</g>
						</g>
					</g>
					<g>
						<g>
							<g>
								<g>
									<path class="st7" d="M412.3,365.1c0,0-0.4,0-0.9,0c-0.4,0-0.6-0.2-0.9-0.2c-0.2,0-0.4-0.2-0.6-0.2s-0.2-0.2-0.2-0.2
										c0-0.2,0-0.4,0.2-0.4c0.9-0.4,1.9,0,2.2,0.6C411.9,364.7,412.1,364.9,412.3,365.1c-0.2,0.2-0.2,0.2-0.2,0.2s0-0.4-0.4-0.7
										c-0.2-0.2-0.4-0.4-0.7-0.6c-0.4-0.2-0.7-0.2-1.1,0c-0.2,0.2-0.2,0.2,0,0.4c0.2,0.2,0.4,0.2,0.6,0.2
										c0.4,0.2,0.7,0.2,0.9,0.2C411.9,365.1,412.3,365.1,412.3,365.1z"/>
								</g>
							</g>
						</g>
					</g>
					<g>
						<g>
							<g>
								<g>
									<path class="st7" d="M412.1,365.1c0,0-0.2-0.2-0.2-0.6c0-0.2,0.2-0.4,0.2-0.6c0.2-0.2,0.4-0.4,0.7-0.4
										c0.2,0,0.4,0.2,0.4,0.4c0,0.2-0.2,0.4-0.2,0.4c-0.2,0.2-0.4,0.4-0.4,0.6C412.3,365.1,412.1,365.3,412.1,365.1
										c0,0,0.2-0.2,0.6-0.4c0.2-0.2,0.2-0.4,0.4-0.6s0.2-0.6,0-0.6c-0.2,0-0.6,0.2-0.6,0.4c-0.2,0.2-0.2,0.4-0.2,0.6
										C411.9,364.9,412.1,365.1,412.1,365.1z"/>
								</g>
							</g>
						</g>
					</g>
					<g>
						<g>
							<g>
								<g>
									<path class="st7" d="M428,364.4c0,0-0.4,0-1.1,0c-0.7,0-1.7,0.4-2.4,0.9c-0.7,0.6-1.3,1.3-1.5,1.9
										c-0.2,0.6-0.2,0.9-0.4,0.9v-0.2c0-0.2,0-0.4,0.2-0.7c0.2-0.6,0.7-1.5,1.5-2c0.9-0.6,1.9-0.9,2.4-0.9c0.4,0,0.6,0,0.7,0
										C427.9,364.4,428,364.4,428,364.4z"/>
								</g>
							</g>
						</g>
					</g>
					<g>
						<g>
							<g>
								<g>
									<path class="st7" d="M420.8,367c0,0-0.9,0.2-2.2,0.2c-1.1,0-2.2-0.2-2.2-0.2s0.9,0,2.2,0S420.8,367,420.8,367z"/>
								</g>
							</g>
						</g>
					</g>
					<g>
						<g>
							<g>
								<g>
									<path class="st7" d="M423.8,367c0,0,0,0.2-0.2,0.4c-0.2,0.2-0.2,0.4-0.2,0.4s0-0.2,0-0.4C423.6,367,423.8,367,423.8,367z"
										/>
								</g>
							</g>
						</g>
					</g>
					<g>
						<g>
							<g>
								<g>
									<path class="st7" d="M424.9,365.7c0,0,0,0.2-0.2,0.4c-0.2,0.2-0.4,0.2-0.4,0.2s0-0.2,0.2-0.4
										C424.7,365.7,424.9,365.7,424.9,365.7z"/>
								</g>
							</g>
						</g>
					</g>
					<g>
						<g>
							<g>
								<g>
									<path class="st7" d="M426.4,365.1c0,0-0.2,0-0.4,0.2c-0.2,0-0.4,0.2-0.4,0.2s0-0.2,0.4-0.4
										C426.2,364.9,426.4,365.1,426.4,365.1z"/>
								</g>
							</g>
						</g>
					</g>
					<g>
						<g>
							<g>
								<g>
									<path class="st7" d="M427.5,364.9c0,0,0,0.2-0.2,0.2s-0.2,0-0.2,0s0-0.2,0.2-0.2C427.5,364.7,427.5,364.7,427.5,364.9z"/>
								</g>
							</g>
						</g>
					</g>
				</g>
			</g>
			<g>
				<g>
					<path class="st26" d="M407.1,172l-22.8-23.2l3-30.3l0.6-0.6c0.4-0.4,0.6-0.7,0.9-1.1c0.4-0.4,0.9-0.9,1.5-1.1
						c0.7-0.4,1.7-0.7,2.2-0.9c0.7-0.2,0.9-0.9,0.4-1.3c-0.6-0.4-2.6,0-4.5,1.1c-2,1.3-0.7-2.2-0.4-3.5c0.4-1.3,1.5-5.2,1.3-5.6
						c-0.4-0.6-1.1-0.2-1.5,0.9c-0.4,1.3-1.9,5-2.4,4.8c-0.6-0.2,1.5-6.7,1.5-6.7s0.7-1.3,0-1.7c-1.3-0.6-3.2,6.5-3.3,7.1
						c-0.2,0.4-0.9,0.2-0.7-0.2c0.2-0.6,2.4-6.3,0.9-6.9c-1.1-0.4-1.5,5.8-2.6,6.7c-1.1,0.9,0.9-4.6-0.2-5c-0.4-0.2-0.7-0.2-1.3,3.2
						c-0.4,1.7-1.1,4.3-1.3,7.1l0,0L371,151l22.7,29.9L407.1,172z"/>
				</g>
			</g>
			<g>
				<g>
					<path class="st26" d="M418.8,105.5c-0.9,0.6,2,5.8,0.7,5c-1.3-0.7-3-6.7-3.9-6.1c-1.3,0.7,1.9,6.1,2.2,6.5
						c0.2,0.4-0.4,0.7-0.6,0.4c-0.2-0.6-3.3-7.1-4.6-6.3c-0.7,0.4,0.2,1.5,0.2,1.5s3.3,5.9,2.8,6.3c-0.6,0.4-2.6-3-3.3-4.3
						c-0.6-1.1-1.5-1.3-1.7-0.7c-0.2,0.6,1.7,4.1,2.2,5.4c0.6,1.1,2.4,4.3,0.2,3.5c-2.2-0.9-4.1-0.7-4.6-0.4
						c-0.6,0.4-0.2,1.3,0.6,1.3c0.6,0,1.5,0.2,2.2,0.4c0.6,0.2,1.1,0.6,1.7,0.9c0.4,0.4,0.7,0.6,1.1,0.9l0.6,0.6l12.4,30.5
						L415.6,177l17.5,6.5l7.8-34.7l-18-33.8l0,0c-0.7-2.6-1.9-5.2-2.6-6.7C419.5,105.1,419.1,105.3,418.8,105.5z"/>
				</g>
			</g>
			<g>
				<g>
					<g>
						<path class="st7" d="M457.8,291l-11.3-58.3l-16,1.3v-0.2l-29.2,2.6c0,0-1.3,66.9-1.9,66.9l8,61.1l0,0l23-1.1l-8.9-60.7
							l3.3-48.7c0,0,0.2-0.4,0.7-0.9l13.4,49.8l45.5,51.4l14.9-14.3L457.8,291z"/>
					</g>
				</g>
				<g>
					<g>
						<path class="st27" d="M422.1,293.6c0,0,0-0.2,0-0.6s0-0.9,0-1.5c0-1.3,0.2-3.2,0.2-5.2c0.4-4.5,0.7-10.6,1.1-17.3
							c0.4-6.1,0.7-11.7,1.1-16l0,0l0,0c1.7-2,3-3.5,4.1-4.8c0.4-0.6,0.7-0.9,1.1-1.3c0.2-0.4,0.4-0.4,0.4-0.4s-0.2,0.2-0.4,0.6
							c-0.2,0.4-0.6,0.7-1.1,1.3c-0.9,1.1-2.2,2.8-3.9,4.8v-0.2c-0.2,4.3-0.6,9.8-0.9,16c-0.6,6.7-0.9,12.8-1.3,17.3
							c-0.2,2.2-0.4,3.9-0.4,5.2c0,0.6-0.2,1.1-0.2,1.5C422.1,293.4,422.1,293.6,422.1,293.6z"/>
					</g>
				</g>
				<g>
					<g>
						<path class="st27" d="M430.5,234c0.2,0,0.2,2.4,0.2,5.6s-0.2,5.6-0.2,5.6c-0.2,0-0.2-2.4-0.2-5.6
							C430.1,236.6,430.3,234,430.5,234z"/>
					</g>
				</g>
				<g>
					<g>
						<path class="st27" d="M410.6,239.2c0,0,0.2,0,0.7-0.2c0.6,0,1.3-0.2,2-0.2c1.9-0.2,4.5-0.6,7.8-0.7h0.2v0.2c0,2.8,0,5.9,0,9.3
							v0.2h-0.2H421c-1.9,0.9-3.9,1.9-5.6,2.8h-0.2H415c-1.7-1.1-3.3-2-4.8-2.8l0,0v-0.2c0-2.4,0-4.5,0.2-6.1c0-0.7,0-1.1,0-1.7
							C410.6,239.2,410.6,239,410.6,239.2c0,0,0,0.2,0,0.6c0,0.4,0,0.9,0,1.7c0,1.5,0,3.5,0.2,5.9v-0.2c1.5,0.9,3.2,1.9,4.8,2.8
							h-0.2c1.7-0.9,3.7-1.9,5.6-2.8h0.2l-0.2,0.2c0-3.3,0-6.5,0-9.3l0.2,0.2c-3.2,0.4-5.8,0.6-7.6,0.6c-0.9,0-1.7,0.2-2.2,0.2
							C411,239.2,410.8,239.2,410.6,239.2z"/>
					</g>
				</g>
				<g>
					<g>
						<path class="st27" d="M433.2,237c0,0,0.2,0,0.7-0.2c0.6,0,1.3-0.2,2-0.2c1.9-0.2,4.5-0.6,7.8-0.7h0.2v0.2c0,2.8,0,5.9,0,9.3
							v0.2h-0.2h-0.2c-1.9,0.9-3.9,1.9-5.6,2.8h-0.2h-0.2c-1.7-1.1-3.3-2-4.8-2.8l0,0v-0.2c0-2.4,0-4.5,0.2-6.1c0-0.7,0-1.1,0-1.7
							C433.1,237.1,433.2,236.8,433.2,237c0,0,0,0.2,0,0.6c0,0.4,0,0.9,0,1.7c0,1.5,0,3.5,0.2,5.9v-0.2c1.5,0.9,3.2,1.9,4.8,2.8
							h-0.2c1.7-0.9,3.7-1.9,5.6-2.8h0.2l-0.2,0.2c0-3.3,0-6.5,0-9.3l0.2,0.2c-3.2,0.4-5.8,0.6-7.6,0.6c-0.9,0-1.7,0.2-2.2,0.2
							C433.4,237,433.2,237,433.2,237z"/>
					</g>
				</g>
				<g>
					<g>
						<path class="st27" d="M421.5,240.3c0,0.2-2.4,0.4-5.4,0.6c-3,0.2-5.4,0.2-5.4,0c0-0.2,2.4-0.4,5.4-0.6
							C419.1,240.3,421.5,240.3,421.5,240.3z"/>
					</g>
				</g>
				<g>
					<g>
						<path class="st27" d="M443.8,238.3c0,0.2-2.4,0.4-5.2,0.6c-3,0.2-5.4,0.4-5.4,0.2c0-0.2,2.4-0.4,5.2-0.6
							C441.4,238.3,443.8,238.3,443.8,238.3z"/>
					</g>
				</g>
				<g>
					<g>
						<path class="st27" d="M419.7,302.3c0,0.2-2.4,0.6-5.2,0.9c-3,0.4-5.2,0.6-5.2,0.4c0-0.2,2.4-0.6,5.2-0.9
							C417.3,302.3,419.7,302.1,419.7,302.3z"/>
					</g>
				</g>
				<g>
					<g>
						<path class="st27" d="M456.3,292.3c0,0.2-2.4,0.9-5.4,2.6c-3,1.7-5,3.3-5,3.2c0,0,0.4-0.6,1.3-1.3c0.9-0.7,2-1.5,3.5-2.4
							c1.5-0.7,2.8-1.5,3.9-1.9C455.5,292.5,456.3,292.3,456.3,292.3z"/>
					</g>
				</g>
			</g>
			<g>
				<g>
					<g>
						<path class="st7" d="M407.1,90.4c0,0,0-0.2-0.2-0.4c-0.2-0.2-0.2-0.6-0.4-0.9c-0.2-0.4-0.4-0.9-0.7-1.5
							c-0.4-0.6-0.7-1.3-1.1-2c-0.4-0.7-0.9-1.7-1.5-2.6c-0.6-0.9-1.3-1.9-2-2.8c-1.5-2-3.5-4.1-5.8-6.3c-4.6-4.3-11-8.5-19.1-11.1
							c-3.9-1.3-8.4-2-13-2c-4.5,0-9.3,0.4-13.9,1.7c-4.6,1.3-9.1,3.2-13,5.6c-3.9,2.2-7.2,5.2-10.2,8.2c-5.8,6.1-9.1,13-11,19.1
							c-0.9,3-1.5,5.8-1.9,8.4c-0.2,1.3-0.2,2.4-0.4,3.5c0,1.1-0.2,2,0,3c0,0.9,0,1.7,0,2.4s0.2,1.3,0.2,1.7s0,0.7,0,1.1
							c0,0.2,0,0.4,0,0.4s0-0.2,0-0.4s0-0.6-0.2-1.1c0-0.6-0.2-1.1-0.2-1.7c0-0.7,0-1.5,0-2.4s0-1.9,0-3c0-1.1,0.2-2.2,0.4-3.5
							c0.4-2.6,0.9-5.4,1.9-8.4c1.9-6.1,5.2-13,11-19.3c2.8-3.2,6.3-5.9,10.2-8.4c3.9-2.4,8.4-4.3,13-5.6c4.6-1.3,9.5-1.9,14.1-1.7
							c4.6,0,8.9,0.9,13,2.2c8,2.6,14.5,6.9,19.1,11.3c2.2,2.2,4.3,4.5,5.8,6.3c0.7,1.1,1.5,2,2,3c0.6,0.9,1.1,1.7,1.5,2.6
							c0.4,0.7,0.7,1.5,1.1,2c0.4,0.6,0.6,1.1,0.7,1.7c0.2,0.4,0.4,0.7,0.4,0.9C407.1,90.4,407.1,90.4,407.1,90.4z"/>
					</g>
				</g>
				<g>
					<g>
						<path class="st7" d="M397.2,88.2c0,0-0.2-0.2-0.4-0.6c-0.2-0.4-0.6-0.9-1.1-1.5c-0.9-1.3-2.4-3.2-4.6-5.2
							c-2-2-4.8-4.3-8.2-6.1c-3.3-2-7.2-3.7-11.7-4.6c-4.3-0.9-8.5-1.3-12.4-0.9c-3.9,0.2-7.2,0.9-10,1.9s-5,1.9-6.5,2.6
							c-0.7,0.4-1.3,0.7-1.7,0.9c-0.4,0.2-0.6,0.4-0.6,0.4s0.2-0.2,0.6-0.4c0.4-0.2,0.9-0.6,1.7-0.9c1.5-0.7,3.5-1.9,6.5-2.8
							c2.8-0.9,6.3-1.7,10.2-2c3.9-0.4,8.2,0,12.6,0.9c4.5,1.1,8.4,2.8,11.7,4.8c3.3,2,6.1,4.3,8.2,6.3c2,2,3.5,3.9,4.5,5.4
							c0.6,0.7,0.7,1.3,1.1,1.5C397.2,87.8,397.2,88.2,397.2,88.2z"/>
					</g>
				</g>
			</g>
			<g>
				<g>
					<g>
						<g>
							<g>
								<path class="st8" d="M441.2,190l-4.1,21c8.4,11.7,9.1,21.7,9.1,21.7l-45.3,3.9c0.9-7.1,5.2-22.5,5.2-22.5l-6.5-22.5
									l-13.2-17.1l13-11.7c-0.2,0.7,12.3,7.8,12.3,7.8l18,0.2c0,0,1.1,0,2.6,0.6l8.7-22.7c0,0,6.9,10,4.5,22.3
									C444.2,179.6,444.4,181.6,441.2,190"/>
							</g>
						</g>
					</g>
					<g>
						<g>
							<path class="st28" d="M408.4,174c0,0,0.2,0.2,0.7,0.7c0.4,0.6,0.9,1.3,1.3,2.4c0.4,1.1,0.9,2.4,0.9,4.1c0,1.7-0.2,3.3-1.1,5
								c-0.7,1.7-2,3-3.5,3.7c-1.5,0.7-2.8,1.1-4.1,1.1c-1.1,0-2.2-0.2-2.8-0.6c-0.4-0.2-0.6-0.2-0.7-0.4c-0.2,0-0.2-0.2-0.2-0.2
								c0-0.2,1.3,0.7,3.7,0.7c1.1,0,2.6-0.4,3.9-1.1c1.3-0.7,2.4-2,3.3-3.5c0.7-1.5,1.1-3.3,1.1-4.8c0-1.5-0.4-3-0.7-3.9
								C409.3,175.3,408.4,174.2,408.4,174z"/>
						</g>
					</g>
					<g>
						<g>
							<path class="st28" d="M439.7,189.4c0,0,0.4-0.9,0.7-2.2s0.7-3.3,0.6-5.6c-0.2-2.2-0.7-4.1-1.5-5.4c-0.6-1.3-1.1-2-1.1-2
								s0.2,0.2,0.4,0.6c0.2,0.4,0.6,0.7,0.9,1.5c0.7,1.3,1.3,3.3,1.5,5.6c0.2,2.2-0.2,4.3-0.7,5.8c-0.2,0.7-0.6,1.3-0.7,1.7
								C439.7,189.2,439.7,189.4,439.7,189.4z"/>
						</g>
					</g>
					<g>
						<g>
							<g>
								<path class="st19" d="M433.6,209.8c-0.4-0.6-1.1-0.4-1.9-0.2c-0.9,0.2-2,0.6-3,0.6c-1.9,0-3.7-1.1-5.4-1.9
									c-1.9-0.7-4.1-1.1-5.6,0.2c-1.1,0.9-1.3,2.8-0.4,3.9c0.4,0.6,1.1,1.1,1.9,1.3l0,0c4.5,1.3,8.4,0.4,12.8-1.5
									c0.6-0.2,1.1-0.4,1.5-0.9C434,211,434,210.2,433.6,209.8z"/>
							</g>
						</g>
					</g>
				</g>
				<g>
					<g>
						<g>
							<path class="st19" d="M400.4,162.7c-1.9,2.4-3.2,5.4-2.8,8.5c0.4,3,2.4,5.9,5.2,6.7c2,0.6,4.3,0,6.1,0.7
								c3.7,1.3,5.6,5.9,9.5,6.3c3.5,0.4,5.9-3.2,9.3-4.5c1.7-0.7,3.5-0.7,5.2-0.9c3.7-0.6,7.2-2.4,9.5-5.4c2.2-3,2.4-7.4,0.2-10.4
								c-2.4-3.2-6.9-3.9-10.8-3.9c-5.9,0-12.1,1.3-17.6,3.5c-1.1,0.6-2.4,1.1-3.3,2c-0.9,0.9-1.7,2-1.7,3.3"/>
						</g>
					</g>
				</g>
			</g>
			<g>
				<g>
					<g>
						<path class="st9" d="M452.2,160.3c-0.2-1.7-1.3-3-2.8-3.5c-1.7-0.7-3.7-0.2-5.6-0.9c-2-0.9-3-3.5-3.5-5.8s-1.1-4.8-3-6.1
							c-1.3-0.9-3-1.3-4.3-2c-2-1.3-3.2-3.5-4.5-5.4c-0.6-0.7-1.1-1.5-1.9-2c0,0,0,0,0-0.2c-3-3.5-10.8-4.1-14.1-0.9l0.2-0.2
							c-6.3,0.6-10.4,10.8-10.4,17.1c0,4.1,1.3,8.2-0.2,11.9c-0.9,2.2-2.6,3.9-3.3,6.1c-0.9,3,0.6,6.7,3.5,8.2
							c2.8,1.5,6.7,0.6,8.5-2c-0.2,1.7,1.3,3.2,2.8,3.7s3.2,0.4,4.8,0.4c3.5-0.4,7.6-0.9,9.3-3.9c1.3,1.9,3.5,2.6,5.8,2.4
							c2.2-0.2,4.3-0.4,6.1-1.3c0-0.2-0.2-0.2-0.2-0.4c0.4-0.2,0.6-0.2,0.9-0.4c1.7-1.1,2.8-3.2,1.9-5c0.6,0.7,1.3,1.5,1.9,2.2
							c3.3-1.7,4.8-6.1,3.2-9.5c1.1,0.4,2,1.1,3,2C451.6,163.6,452.4,161.9,452.2,160.3z"/>
					</g>
				</g>
				<g>
					<g>
						<path class="st29" d="M451.3,163c0,0,0.4-0.7-0.4-2c-0.4-0.6-0.9-1.3-1.9-1.7s-2-0.6-3.2-0.7c-1.3-0.2-2.6-0.2-4.1-0.9
							c-0.7-0.4-1.3-0.7-1.9-1.5c-0.6-0.6-0.9-1.5-1.1-2.2c-0.6-1.7-0.7-3.3-1.1-5c-0.2-0.9-0.6-1.7-1.1-2.4
							c-0.6-0.7-1.3-1.3-2.2-1.5c-0.9-0.2-1.9-0.2-2.8-0.4c-0.9-0.2-1.9-0.7-2.4-1.3c-1.3-1.3-1.9-3.2-2.4-4.6
							c-0.6-1.5-1.3-3-2.4-3.9c-0.9-1.1-2.2-1.7-3.3-2.2c-2.2-0.9-4.5-0.6-5.8-0.4c-1.3,0.4-2,0.7-2,0.7s0.2-0.2,0.6-0.4
							c0.4-0.2,0.7-0.4,1.5-0.6c1.3-0.4,3.5-0.7,5.9,0.2c1.1,0.4,2.4,1.1,3.5,2.2c1.1,1.1,1.9,2.4,2.4,4.1c0.6,1.5,1.1,3.2,2.4,4.5
							c0.6,0.6,1.3,1.1,2.2,1.3c0.9,0.2,1.9,0.2,2.8,0.4s1.9,0.9,2.4,1.7c0.6,0.7,0.9,1.7,1.3,2.6c0.6,1.7,0.7,3.5,1.1,5
							c0.6,1.5,1.5,2.8,2.8,3.5c1.3,0.6,2.6,0.7,3.9,0.9c1.3,0.2,2.4,0.4,3.3,0.9c0.9,0.4,1.5,1.1,1.9,1.7c0.4,0.6,0.4,1.3,0.4,1.7
							C451.4,162.9,451.3,163,451.3,163z"/>
					</g>
				</g>
				<g>
					<g>
						<path class="st29" d="M440.3,175.5c0,0,0.2,0,0.6-0.4c0.4-0.2,0.7-0.6,0.9-1.3c0.2-0.6,0.2-1.5-0.2-2.4
							c-0.4-0.9-1.3-1.7-2.2-2.2c-1.1-0.7-2.4-1.1-3.5-2c-0.6-0.4-1.3-0.9-1.7-1.5c-0.6-0.6-0.9-1.5-1.1-2.2
							c-0.6-1.7-0.4-3.3-0.7-5.2c-0.2-1.7-0.7-3.7-2.2-4.6c-1.5-1.1-3.5-1.3-4.8-2.8c-1.3-1.3-1.9-3.2-2-4.8
							c-0.2-1.7-0.4-3.2-0.7-4.6c-0.4-1.5-0.9-2.6-1.7-3.5c-1.5-2-3.3-3-4.6-3.5s-2-0.6-2-0.7c0,0,0.2,0,0.6,0s0.9,0.2,1.5,0.4
							c1.3,0.6,3.2,1.5,4.8,3.5c0.7,0.9,1.5,2.2,1.9,3.7c0.4,1.5,0.6,3,0.7,4.6c0.4,1.7,0.7,3.3,2,4.6c1.3,1.3,3.2,1.7,4.8,2.8
							c0.7,0.6,1.5,1.5,1.9,2.2c0.4,0.9,0.6,1.9,0.7,2.8c0.2,1.9,0.2,3.5,0.6,5.2c0.2,0.7,0.6,1.5,0.9,2c0.4,0.6,1.1,1.1,1.7,1.5
							c1.3,0.7,2.4,1.3,3.5,2c1.1,0.7,1.9,1.5,2.4,2.4c0.4,0.9,0.4,1.9,0,2.6c-0.2,0.7-0.7,1.1-0.9,1.3
							C440.5,175.5,440.3,175.5,440.3,175.5z"/>
					</g>
				</g>
				<g>
					<g>
						<path class="st29" d="M419.3,177.3c0,0,0.6-0.6,0.6-1.7c0-0.6-0.2-1.3-0.4-2c-0.4-0.7-0.9-1.5-1.3-2.6
							c-0.6-0.9-0.7-2.2-0.4-3.5c0.4-1.3,0.9-2.4,1.7-3.7c0.6-1.3,1.1-2.6,1.1-4.1s-0.6-3-1.5-4.3c-0.9-1.3-2.2-2.4-3.2-3.7
							c-0.6-0.6-0.9-1.3-1.1-2c-0.2-0.7-0.4-1.5-0.4-2.2c-0.2-1.5,0.2-2.8,0.4-4.1c0.2-1.3,0.4-2.4,0.6-3.5c0.2-2-0.4-3.9-0.9-4.8
							c-0.6-0.9-1.3-1.3-1.1-1.5c0,0,0.2,0,0.4,0.2c0.2,0.2,0.6,0.6,0.9,1.1c0.7,0.9,1.3,2.8,1.1,5c0,1.1-0.2,2.2-0.4,3.5
							c-0.2,1.3-0.4,2.6-0.2,3.9c0,0.7,0.2,1.3,0.4,2c0.2,0.7,0.6,1.3,1.1,1.9c0.9,1.3,2,2.2,3.2,3.7c0.9,1.3,1.7,3,1.7,4.5
							c0,1.7-0.6,3.2-1.1,4.3c-0.6,1.3-1.3,2.4-1.7,3.7c-0.4,1.1-0.2,2.4,0.4,3.3c0.4,0.9,0.9,1.9,1.3,2.6c0.4,0.7,0.4,1.5,0.4,2.2
							c0,0.6-0.2,1.1-0.4,1.3C419.5,177.3,419.3,177.3,419.3,177.3z"/>
					</g>
				</g>
				<g>
					<g>
						<path class="st29" d="M404.1,176.8c0,0-0.2-0.2-0.2-0.4c-0.2-0.4-0.2-0.7,0-1.5c0.2-0.6,0.6-1.3,1.3-1.9s1.5-1.1,2.2-1.9
							c0.7-0.7,1.3-1.9,1.5-3.2c0.2-1.3,0-2.6-0.6-3.9c-0.6-1.3-1.1-2.8-0.9-4.5s0.9-3.2,1.7-4.6c0.7-1.5,1.3-3,1.1-4.5
							c0-1.5-0.6-3-0.9-4.3c-0.7-2.8-0.9-5.4-0.2-7.6c0.6-2,1.9-3.5,2.8-4.3c0.6-0.4,0.9-0.6,1.1-0.7c0.4-0.2,0.4-0.2,0.4-0.2
							s-0.6,0.4-1.5,1.1c-0.9,0.7-2,2.2-2.6,4.3c-0.6,2-0.6,4.6,0.4,7.4c0.4,1.3,0.9,2.8,0.9,4.5c0.2,1.7-0.6,3.2-1.1,4.6
							c-0.7,1.5-1.5,3-1.7,4.5c-0.2,1.5,0.4,3,0.9,4.3c0.2,0.7,0.6,1.3,0.6,2c0.2,0.7,0.2,1.3,0,2c-0.2,1.3-0.7,2.4-1.5,3.2
							c-0.7,0.7-1.7,1.3-2.2,1.9c-0.7,0.6-1.1,1.1-1.3,1.7c-0.2,0.6-0.2,1.1-0.2,1.3C403.9,176.6,404.1,176.8,404.1,176.8z"/>
					</g>
				</g>
			</g>
		</g>
	</g>
	<g id="Plants">
		<g>
			<g>
				<g>
					<g>
						<g>
							<g>
								<path class="st6" d="M73.1,344.9c0,0,0-0.2,0.2-0.4c0.2-0.2,0.4-0.6,0.6-1.1c0.4-0.9,0.9-2.4,1.5-4.5
									c0.9-3.9,1.3-9.8-0.2-16.9c-0.7-3.5-1.9-7.4-3.2-11.3c-1.3-4.1-3-8.4-4.1-13c-1.3-4.6-2.2-9.7-2-14.9
									c0.2-5.2,1.7-10.6,3.5-15.8c1.7-5.2,3.5-10.4,4.1-15.6c0.6-5.2-0.6-10.2-2.8-14.3c-2.2-4.3-5.2-7.8-7.2-11.5
									c-2.2-3.7-3.5-7.4-4.5-11c-1.7-7.1-1.1-13.2-0.2-17.1c0.9-3.9,1.9-6.1,1.9-6.1s0,0.2-0.2,0.4c0,0.4-0.2,0.7-0.4,1.1
									c-0.4,0.9-0.7,2.6-1.1,4.5c-0.7,3.9-1.3,9.8,0.4,16.9c0.9,3.5,2.2,7.2,4.5,11s5,7.2,7.2,11.5c2.4,4.3,3.5,9.5,3,14.7
									c-0.6,5.2-2.4,10.4-4.1,15.6c-1.7,5.2-3.3,10.4-3.5,15.6c-0.2,5.2,0.7,10.2,2,14.9c1.3,4.6,2.8,8.9,4.1,13s2.4,7.8,3.2,11.5
									c1.5,7.1,1.1,13.2,0,17.1c-0.6,2-1.1,3.3-1.7,4.5c-0.2,0.4-0.4,0.7-0.6,1.1C73.1,344.9,73.1,344.9,73.1,344.9z"/>
							</g>
						</g>
					</g>
				</g>
				<g>
					<g>
						<g>
							<g>
								<path class="st8" d="M66.1,229.2c0,0-4.3-13.9,3.5-22.1c0.2-0.4,0.7-0.2,0.7,0.2C70.7,209.7,71.3,216.7,66.1,229.2z"/>
							</g>
						</g>
					</g>
					<g>
						<g>
							<g>
								<g>
									<path class="st6" d="M68.7,211.9c0,0,0,0.9-0.4,2.6c-0.4,1.9-0.6,3.9-0.9,6.1c-0.4,2.2-0.7,4.5-0.9,6.1
										c-0.2,1.5-0.4,2.6-0.4,2.6s0-0.9,0-2.6c0.2-1.7,0.4-3.7,0.7-6.1s0.7-4.6,1.1-6.1C68.3,212.8,68.7,211.9,68.7,211.9z"/>
								</g>
							</g>
						</g>
					</g>
				</g>
				<g>
					<g>
						<g>
							<g>
								<path class="st8" d="M71.3,262c0,0,2.6-14.3,13.4-17.8c0.4-0.2,0.7,0.2,0.6,0.6C84.5,247,81.7,253.5,71.3,262z"/>
							</g>
						</g>
					</g>
					<g>
						<g>
							<g>
								<g>
									<path class="st6" d="M81.7,247.9c0,0-0.6,0.9-1.5,2c-1.1,1.5-2.4,3.2-3.7,5c-1.5,1.9-2.6,3.5-3.7,5c-0.9,1.3-1.5,2-1.7,2
										c0,0,0.4-0.9,1.3-2.2c0.9-1.3,2.2-3.2,3.5-5c1.5-1.9,2.8-3.7,3.9-4.8C80.9,248.5,81.7,247.9,81.7,247.9z"/>
								</g>
							</g>
						</g>
					</g>
				</g>
				<g>
					<g>
						<g>
							<g>
								<path class="st8" d="M68.3,298.1c0,0-1.7-14.5,7.6-21c0.4-0.2,0.7,0,0.7,0.4C76.7,279.7,75.7,286.7,68.3,298.1z"/>
							</g>
						</g>
					</g>
					<g>
						<g>
							<g>
								<g>
									<path class="st6" d="M74.3,281.3c0,0-0.2,0.9-0.7,2.4c-0.6,1.7-1.3,3.7-2.2,5.8c-0.7,2.2-1.5,4.1-2,5.8
										c-0.6,1.5-0.9,2.4-0.9,2.4s0.2-0.9,0.6-2.6c0.4-1.5,1.1-3.7,2-5.9s1.7-4.3,2.2-5.8C73.7,282.3,74.1,281.3,74.3,281.3z"/>
								</g>
							</g>
						</g>
					</g>
				</g>
				<g>
					<g>
						<g>
							<g>
								<path class="st8" d="M76.3,334.1c0,0-1.1-14.5,8.4-20.6c0.4-0.2,0.7,0,0.7,0.4C85.4,316.3,84.3,323.1,76.3,334.1z"/>
							</g>
						</g>
					</g>
					<g>
						<g>
							<g>
								<g>
									<path class="st6" d="M82.8,317.7c0,0-0.2,0.9-0.9,2.4c-0.7,1.7-1.5,3.5-2.4,5.8c-0.9,2.2-1.7,4.1-2.4,5.8
										c-0.6,1.5-0.9,2.4-1.1,2.4c0,0,0.2-0.9,0.7-2.4c0.6-1.5,1.3-3.5,2.2-5.8c0.9-2.2,1.9-4.3,2.4-5.8
										C82.2,318.7,82.8,317.7,82.8,317.7z"/>
								</g>
							</g>
						</g>
					</g>
				</g>
				<g>
					<g>
						<g>
							<g>
								<path class="st8" d="M59.8,217.1c0,0-13-6.7-13.2-18c0-0.4,0.4-0.6,0.7-0.4C49.4,200,54.8,204.5,59.8,217.1z"/>
							</g>
						</g>
					</g>
					<g>
						<g>
							<g>
								<g>
									<path class="st6" d="M49.4,202.8c0,0,0.7,0.7,1.7,2c1.1,1.5,2.2,3.2,3.7,5c1.3,1.9,2.6,3.5,3.7,5c0.9,1.3,1.5,2,1.5,2
										s-0.7-0.7-1.9-1.9c-1.1-1.3-2.4-3-3.7-5c-1.5-2-2.6-3.7-3.5-5.2C49.7,203.7,49.4,203,49.4,202.8z"/>
								</g>
							</g>
						</g>
					</g>
				</g>
				<g>
					<g>
						<g>
							<g>
								<path class="st8" d="M73.7,247c0,0-13.4-5.9-14.3-17.3c0-0.4,0.4-0.7,0.7-0.4C62.2,230.5,67.8,234.7,73.7,247z"/>
							</g>
						</g>
					</g>
					<g>
						<g>
							<g>
								<g>
									<path class="st6" d="M62.4,233.4c0,0,0.7,0.7,1.7,1.9c1.1,1.3,2.4,3,3.9,4.8c1.5,1.9,2.8,3.3,3.9,4.8c0.9,1.3,1.7,2,1.7,2
										s-0.7-0.6-1.9-1.9c-1.1-1.1-2.6-2.8-4.1-4.6s-3-3.7-3.9-4.8C62.9,234.4,62.4,233.4,62.4,233.4z"/>
								</g>
							</g>
						</g>
					</g>
				</g>
				<g>
					<g>
						<g>
							<g>
								<path class="st8" d="M66.1,280.2c0,0-9.1-11.3-4.8-21.7c0.2-0.4,0.6-0.4,0.9,0C63.3,260.4,66.3,266.7,66.1,280.2z"/>
							</g>
						</g>
					</g>
					<g>
						<g>
							<g>
								<g>
									<path class="st6" d="M62.2,263c0,0,0.4,0.9,0.7,2.4c0.4,1.7,0.7,3.7,1.3,6.1c0.6,2.2,0.9,4.3,1.3,6.1
										c0.4,1.5,0.6,2.6,0.6,2.6s-0.4-0.9-0.9-2.4c-0.4-1.5-0.9-3.7-1.5-6.1s-0.9-4.5-1.1-6.1C62.2,264.1,62,263.1,62.2,263z"/>
								</g>
							</g>
						</g>
					</g>
				</g>
				<g>
					<g>
						<g>
							<g>
								<path class="st8" d="M75.2,319.4c0,0-13.2-6.1-13.9-17.5c0-0.4,0.4-0.7,0.7-0.4C63.9,302.7,69.4,307.2,75.2,319.4z"/>
							</g>
						</g>
					</g>
					<g>
						<g>
							<g>
								<g>
									<path class="st6" d="M64,305.7c0,0,0.7,0.7,1.7,1.9c1.1,1.5,2.4,3,3.9,4.8c1.5,1.9,2.8,3.5,3.9,4.8c0.9,1.3,1.7,2,1.5,2
										c0,0-0.7-0.6-1.9-1.9c-1.1-1.1-2.4-2.8-4.1-4.8c-1.5-1.9-2.8-3.7-3.7-5C64.4,306.6,63.9,305.9,64,305.7z"/>
								</g>
							</g>
						</g>
					</g>
				</g>
				<g>
					<g>
						<g>
							<g>
								<g>
									<path class="st6" d="M101.4,262.2c0,0,0,0.2,0,0.4c0,0.2,0,0.6,0,0.9c0,0.9,0,2-0.2,3.5c-0.2,3.2-0.4,7.4-0.7,12.6l0,0l0,0
										c-0.9,5.2-3.7,11.1-7.2,16.7c-2.6,4.3-5.4,8-7.8,11.5c-2.4,3.5-4.5,6.9-5.9,9.7c-1.5,3-2.2,5.4-2.8,7.1
										c-0.2,0.9-0.4,1.5-0.6,2c-0.2,0.4-0.2,0.7-0.2,0.7s0-0.2,0-0.7c0-0.6,0.2-1.1,0.4-2c0.4-1.7,1.1-4.3,2.6-7.2
										c1.3-3,3.3-6.3,5.8-9.8c2.4-3.5,5.2-7.4,7.8-11.5c3.5-5.6,6.3-11.3,7.2-16.5l0,0c0.4-5.2,0.7-9.5,0.9-12.6
										c0.2-1.5,0.2-2.6,0.4-3.5c0-0.4,0-0.7,0.2-0.9S101.4,262.2,101.4,262.2z"/>
								</g>
							</g>
						</g>
					</g>
					<g>
						<g>
							<g>
								<g>
									<path class="st19" d="M93.6,295.3c0,0,5.6-13.4-1.5-22.3c-0.2-0.4-0.7-0.2-0.9,0.2C90.6,275.4,89.5,282.3,93.6,295.3z"/>
								</g>
							</g>
						</g>
						<g>
							<g>
								<g>
									<g>
										<path class="st6" d="M92.5,277.6c0,0,0.2,0.9,0.4,2.6c0.2,1.7,0.4,3.7,0.6,6.1c0.2,2.4,0.2,4.6,0.2,6.3
											c0,1.7,0,2.6-0.2,2.6c0,0-0.2-0.9-0.2-2.6c-0.2-1.9-0.2-3.9-0.4-6.1c-0.2-2.2-0.4-4.5-0.4-6.1
											C92.5,278.7,92.5,277.6,92.5,277.6z"/>
									</g>
								</g>
							</g>
						</g>
					</g>
					<g>
						<g>
							<g>
								<g>
									<g>
										<path class="st19" d="M76.3,327.8c0,0,4.5-13.9-3.2-22.1c-0.2-0.4-0.7-0.2-0.7,0.2C71.7,308.1,71.1,315.1,76.3,327.8z"/>
									</g>
								</g>
							</g>
						</g>
						<g>
							<g>
								<g>
									<g>
										<path class="st6" d="M73.7,310.3c0,0,0.4,0.9,0.6,2.4c0.4,1.5,0.7,3.7,1.1,6.1c0.4,2.4,0.6,4.6,0.7,6.1
											c0.2,1.7,0.2,2.6,0,2.6c0,0-0.2-0.9-0.4-2.6c-0.2-1.9-0.6-3.9-0.9-6.1c-0.4-2.2-0.7-4.5-0.9-6.1
											C73.9,311.2,73.7,310.3,73.7,310.3z"/>
									</g>
								</g>
							</g>
						</g>
					</g>
					<g>
						<g>
							<g>
								<g>
									<path class="st19" d="M100.6,278.7c0,0,11.9-8.4,10.8-19.5c0-0.4-0.6-0.6-0.7-0.4C108.8,260.5,104.2,265.7,100.6,278.7z"/>
								</g>
							</g>
						</g>
						<g>
							<g>
								<g>
									<g>
										<path class="st6" d="M109.2,263.5c0,0-0.4,0.9-0.9,2.4c-0.7,1.5-1.7,3.3-2.8,5.6s-2.2,4.1-3.2,5.4s-1.5,2-1.5,2
											s0.4-0.9,1.1-2.2c0.9-1.5,1.9-3.3,3-5.4c1.1-2,2-3.9,3-5.4C108.6,264.3,109.2,263.3,109.2,263.5z"/>
									</g>
								</g>
							</g>
						</g>
					</g>
					<g>
						<g>
							<g>
								<g>
									<g>
										<path class="st19" d="M81.1,314c0,0,14.5-2.2,18.2-12.8c0.2-0.4-0.2-0.7-0.6-0.6C96.5,301,90,303.8,81.1,314z"/>
									</g>
								</g>
							</g>
						</g>
						<g>
							<g>
								<g>
									<g>
										<path class="st6" d="M95.4,304c0,0-0.7,0.7-1.9,1.7c-1.3,0.9-3,2.4-5,3.7c-2,1.5-3.9,2.6-5.2,3.5
											c-1.3,0.7-2.2,1.3-2.2,1.3s0.7-0.6,2-1.5c1.5-1.1,3.2-2.2,5-3.5c1.9-1.3,3.5-2.6,5-3.5C94.7,304.4,95.4,303.8,95.4,304z"
											/>
									</g>
								</g>
							</g>
						</g>
					</g>
				</g>
			</g>
			<g>
				<g>
					<g>
						<g>
							<polygon class="st7" points="67.4,340.4 63.1,368.8 89.3,368.8 86,340.4 							"/>
						</g>
					</g>
				</g>
			</g>
			<g>
				<g>
					<g>
						<g>
							<path class="st6" d="M86.9,349.1c0,0.2-4.6,0.2-10.6,0.2c-5.8,0-10.6-0.2-10.6-0.2s4.6-0.2,10.6-0.2
								C82.2,348.9,86.9,349.1,86.9,349.1z"/>
						</g>
					</g>
				</g>
			</g>
			<g>
				<g>
					<g>
						<g>
							<g>
								<path class="st6" d="M87.4,351.5c0,0.2-4.8,0.2-11,0.2c-5.9,0-11-0.2-11-0.2c0-0.2,4.8-0.2,11-0.2
									C82.6,351.2,87.4,351.4,87.4,351.5z"/>
							</g>
						</g>
					</g>
				</g>
			</g>
		</g>
	</g>
</g>
</svg>
